G04 Layer: BottomLayer*
G04 EasyEDA Pro v3.2.148, 2026-08-09 11:46:54*
G04 Gerber Generator version 0.3*
G04 Scale: 100 percent, Rotated: No, Reflected: No*
G04 Dimensions in millimeters*
G04 Leading zeros omitted, absolute positions, 4 integers and 5 decimals*
G04 Generated by one-click*
G04 Object Configs: Pad,Via,Track,Text,Image,Dimension,BoardOutline,BoardCutout,CopperFilled,SolidRegion,FPCStiffener,Line,PlaneZone,ComponentProperty,ComponentSilkscreen,TearDrop*
G04 Layer Configs: 1,2,3,4,5,6,7,8,9,10,11,13,14,56*
G04 Copper Areas: 0*
%FSLAX45Y45*%
%MOMM*%
%ADD10C,2.49999*%
%ADD11C,1.6*%
%ADD12R,1.6X1.6*%
%ADD13C,1.55001*%
%ADD14C,1.524*%
%ADD15O,1.8X1.2*%
%ADD16O,2.0X1.2*%
%ADD17C,3.2068*%
%ADD18C,3.2*%
%ADD19C,0.61*%
%ADD20C,0.254*%
%ADD21C,0.19799*%
%ADD22C,0.22501*%
G75*


G04 Pad Start*
G54D10*
G01X7692200Y-3721100D03*
G01X7192201Y-3721100D03*
G54D11*
G01X4394200Y-6718300D03*
G01X4394200Y-6464300D03*
G01X4394200Y-6210300D03*
G01X4394200Y-5956300D03*
G01X4394200Y-5702300D03*
G01X4394200Y-5448300D03*
G01X4394200Y-5194300D03*
G01X4394200Y-4940300D03*
G01X4394200Y-4686300D03*
G01X4394200Y-4432300D03*
G01X4394200Y-4178300D03*
G01X4394200Y-3924300D03*
G01X4394200Y-3670300D03*
G54D12*
G01X4394200Y-3416300D03*
G54D13*
G01X7912100Y-6836600D03*
G01X7912100Y-7086613D03*
G01X7912100Y-7336599D03*
G01X7823200Y-6155499D03*
G01X7823200Y-5905487D03*
G01X7823200Y-5655500D03*
G01X8483600Y-6142799D03*
G01X8483600Y-5892787D03*
G01X8483600Y-5642800D03*
G01X7099300Y-7446200D03*
G01X7099300Y-7696213D03*
G01X7099300Y-7946199D03*
G54D14*
G01X7886700Y-4474400D03*
G01X7886700Y-4724413D03*
G01X7886700Y-4974399D03*
G54D15*
G01X3372091Y-6020511D03*
G54D16*
G01X3790074Y-6020511D03*
G01X3790074Y-5155489D03*
G54D15*
G01X3372091Y-5155489D03*
G54D18*
G01X3657600Y-4089400D03*
G01X8382000Y-4076700D03*
G01X8407400Y-6997700D03*
G01X3644900Y-6997700D03*
G04 Pad End*

G04 Via Start*
G54D19*
G01X7393225Y-5316300D03*
G01X7357926Y-5478599D03*
G01X5196680Y-6590017D03*
G01X3995411Y-5828028D03*
G01X4097011Y-5929628D03*
G01X5214220Y-6513777D03*
G01X5935108Y-5212609D03*
G01X5706509Y-5542808D03*
G01X6080918Y-5862479D03*
G01X5441519Y-5811679D03*
G01X5943698Y-5034809D03*
G01X5612309Y-5974608D03*
G01X6097007Y-6500187D03*
G01X6274807Y-5509589D03*
G01X6249407Y-6041768D03*
G01X5664499Y-4603010D03*
G01X5608739Y-5771408D03*
G01X5317719Y-6666177D03*
G01X5549059Y-6667167D03*
G01X5481499Y-6015408D03*
G01X5909109Y-6536387D03*
G01X5451910Y-7044386D03*
G01X4842311Y-7069786D03*
G01X4182982Y-7449715D03*
G01X5281499Y-6981076D03*
G01X4722700Y-6727076D03*
G01X5191709Y-6140778D03*
G01X4632910Y-5251779D03*
G01X4531310Y-4743781D03*
G01X4445012Y-4809190D03*
G01X5761888Y-5029200D03*
G01X5939688Y-4876800D03*
G01X5115509Y-6187768D03*
G01X4942300Y-5912959D03*
G01X5729699Y-4719161D03*
G01X5932898Y-4656871D03*
G01X5876108Y-4349011D03*
G01X5521499Y-5795818D03*
G01X3763812Y-5712969D03*
G01X5491009Y-5509769D03*
G01X6190138Y-5433569D03*
G01X6352707Y-5296399D03*
G01X6122407Y-6081768D03*
G01X7519085Y-5962658D03*
G01X6477687Y-5149860D03*
G01X6560027Y-4711921D03*
G01X7474885Y-5590159D03*
G01X7487085Y-6774556D03*
G01X7233086Y-6215758D03*
G01X7385485Y-5585999D03*
G01X7029886Y-5255799D03*
G01X6349517Y-5948778D03*
G01X6157948Y-6630967D03*
G01X6003058Y-6827186D03*
G01X5799858Y-7030386D03*
G01X6053858Y-5303189D03*
G01X5622059Y-4490391D03*
G01X5955988Y-7344065D03*
G01X6032188Y-7039266D03*
G01X5905188Y-6683667D03*
G01X5905188Y-6201068D03*
G01X6209988Y-5972468D03*
G01X6590987Y-5870868D03*
G01X6514787Y-5337469D03*
G01X6971986Y-5972468D03*
G01X5955988Y-7430065D03*
G01X6032188Y-7135486D03*
G01X6159188Y-6881486D03*
G01X6260787Y-6754486D03*
G01X6159188Y-6271887D03*
G01X6906746Y-5718589D03*
G01X7186145Y-5743989D03*
G01X6642487Y-4431261D03*
G01X6642487Y-5523459D03*
G01X6961647Y-6397207D03*
G01X7283885Y-6651207D03*
G01X5460999Y-6667497D03*
G01X6623487Y-7470395D03*
G01X5441519Y-6967976D03*
G01X5797118Y-6586977D03*
G01X5809008Y-5418579D03*
G01X6365267Y-5377850D03*
G01X5435600Y-6807200D03*
G01X4851400Y-6743700D03*
G01X4925005Y-6437256D03*
G01X4835591Y-6572227D03*
G04 Via End*

G04 Track Start*
G54D20*
G01X7393225Y-5316300D02*
G01X7393225Y-5443299D01*
G01X7357926Y-5478599D01*
G54D21*
G01X4501111Y-5809208D02*
G01X4394201Y-5702299D01*
G54D20*
G01X3995411Y-5828028D02*
G01X4097011Y-5929628D01*
G54D21*
G01X4541121Y-5595219D02*
G01X4394201Y-5448299D01*
G01X5935108Y-5212609D02*
G01X5706509Y-5441209D01*
G01X5706509Y-5542808D01*
G01X6080918Y-5862479D02*
G01X6055518Y-5887879D01*
G01X6055518Y-6116478D01*
G01X6131718Y-6192678D01*
G01X6182518Y-6192678D01*
G01X7099296Y-7109456D01*
G01X7099296Y-7446205D01*
G01X5441519Y-5811679D02*
G01X5390719Y-5862479D01*
G01X5390719Y-6675277D01*
G01X5339919Y-6726077D01*
G01X5943698Y-5034809D02*
G01X5638899Y-5339609D01*
G01X5638899Y-5720608D01*
G01X5689699Y-5771408D01*
G01X5689699Y-5897218D01*
G01X5612309Y-5974608D01*
G01X6097007Y-6500187D02*
G01X6097007Y-6220788D01*
G01X5995407Y-6119188D01*
G01X5995407Y-5865188D01*
G01X6274807Y-5585789D01*
G01X6274807Y-5509589D01*
G01X6249407Y-6041768D02*
G01X6363137Y-6155498D01*
G01X7823204Y-6155498D01*
G01X5664499Y-4603010D02*
G01X5588299Y-4679210D01*
G01X5588299Y-5750968D01*
G01X5608739Y-5771408D01*
G01X4581121Y-5381219D02*
G01X4394201Y-5194300D01*
G01X5549059Y-6667167D02*
G01X5549059Y-6082968D01*
G01X5481499Y-6015408D01*
G01X5909109Y-6536387D02*
G01X5909109Y-6587187D01*
G01X5451910Y-7044386D01*
G01X4842311Y-7069786D02*
G01X4562911Y-7069786D01*
G01X4182982Y-7449715D01*
G01X5281499Y-6981076D02*
G01X5256099Y-6981076D01*
G01X5191709Y-6140778D02*
G01X5191709Y-5810578D01*
G01X4632910Y-5251779D01*
G01X4531310Y-4743781D02*
G01X4531310Y-4667581D01*
G01X4404311Y-4540581D01*
G01X4328111Y-4540581D01*
G01X4277311Y-4489781D01*
G01X4277311Y-4295192D01*
G01X4394201Y-4178302D01*
G01X4445012Y-4809190D02*
G01X4343412Y-4809190D01*
G01X4241812Y-4707591D01*
G01X4241812Y-4076691D01*
G01X4394201Y-3924302D01*
G54D20*
G01X5761888Y-5029200D02*
G01X5787288Y-5029200D01*
G01X5939688Y-4876800D01*
G54D21*
G01X5115509Y-6187768D02*
G01X5115509Y-6086168D01*
G01X4942300Y-5912959D01*
G54D20*
G01X5729699Y-4719161D02*
G01X5870608Y-4719161D01*
G01X5932898Y-4656871D01*
G54D21*
G01X5876108Y-4349011D02*
G01X5672909Y-4349011D01*
G01X5546899Y-4475021D01*
G01X5546899Y-5770418D01*
G01X5521499Y-5795818D01*
G54D20*
G01X3763812Y-5712969D02*
G01X3763812Y-5662169D01*
G01X4348011Y-5077970D01*
G01X5059210Y-5077970D01*
G01X5491009Y-5509769D01*
G01X6190138Y-5433569D02*
G01X6215538Y-5433569D01*
G01X6352707Y-5296399D01*
G54D21*
G01X6122407Y-6081768D02*
G01X6877236Y-6836596D01*
G01X7912104Y-6836596D01*
G54D20*
G01X7519085Y-5962658D02*
G01X7366685Y-5810258D01*
G01X6833286Y-5810258D01*
G01X6579287Y-5556259D01*
G01X6579287Y-5302259D01*
G01X6477687Y-5200660D01*
G01X6477687Y-5149860D01*
G01X6477687Y-4794260D01*
G01X6560027Y-4711921D01*
G01X7474885Y-5590159D02*
G01X7474885Y-4003792D01*
G01X7192196Y-3721103D01*
G01X7487085Y-6774556D02*
G01X7487085Y-6469757D01*
G01X7233086Y-6215758D01*
G01X7385485Y-5585999D02*
G01X7360085Y-5585999D01*
G01X7029886Y-5255799D01*
G54D21*
G01X6349517Y-5948778D02*
G01X6451117Y-6050377D01*
G01X7517915Y-6050377D01*
G01X7797314Y-5770978D01*
G01X8533913Y-5770978D01*
G01X8610113Y-5847178D01*
G01X8610113Y-6016288D01*
G01X8483603Y-6142798D01*
G54D20*
G01X7823204Y-5905488D02*
G01X8470903Y-5905488D01*
G01X8483603Y-5892788D01*
G01X7924804Y-5905488D02*
G01X8026404Y-6007088D01*
G01X8026404Y-6972126D01*
G01X7912104Y-7086606D01*
G01X7708905Y-7086606D01*
G01X7099296Y-7696215D01*
G54D21*
G01X7099296Y-7696215D02*
G01X6159498Y-6756416D01*
G01X6159498Y-6632517D01*
G01X6157948Y-6630967D01*
G54D20*
G01X6159498Y-6756416D02*
G01X5803898Y-7112016D01*
G01X5321299Y-7112016D01*
G01X4343401Y-6832616D02*
G01X4267201Y-6756416D01*
G01X4267201Y-6337297D01*
G01X4394201Y-6210298D01*
G54D21*
G01X6003058Y-6827186D02*
G01X5799858Y-7030386D01*
G01X6003058Y-6827186D02*
G01X6028458Y-6801786D01*
G01X6028458Y-6217588D01*
G01X5952258Y-6141388D01*
G01X5952258Y-5836588D01*
G01X6104658Y-5684189D01*
G01X6104658Y-5353989D01*
G01X6053858Y-5303189D01*
G54D20*
G01X6053858Y-5303189D02*
G01X6053858Y-4693591D01*
G01X5850658Y-4490391D01*
G01X5622059Y-4490391D01*
G01X5955988Y-7344065D02*
G01X5955988Y-7115466D01*
G01X6032188Y-7039266D01*
G54D21*
G01X5905188Y-6683667D02*
G01X5981388Y-6607467D01*
G01X5981388Y-6277267D01*
G01X5905188Y-6201068D01*
G01X6209988Y-5972468D02*
G01X6336987Y-5845468D01*
G01X6463987Y-5845468D01*
G01X6489387Y-5870868D01*
G01X6590987Y-5870868D01*
G54D22*
G01X6438587Y-5845468D02*
G01X6438587Y-5413669D01*
G01X6514787Y-5337469D01*
G01X6590987Y-5870868D02*
G01X6870386Y-5870868D01*
G01X6971986Y-5972468D01*
G54D20*
G01X5955988Y-7430065D02*
G01X6032188Y-7353865D01*
G01X6032188Y-7135486D01*
G54D21*
G01X6032188Y-7135486D02*
G01X6159188Y-7008486D01*
G01X6159188Y-6881486D01*
G01X6260787Y-6754486D02*
G01X6260787Y-6373487D01*
G01X6159188Y-6271887D01*
G54D22*
G01X6906746Y-5718589D02*
G01X7160745Y-5718589D01*
G01X7186145Y-5743989D01*
G01X6642487Y-4431261D02*
G01X6642487Y-5431259D01*
G01X6642487Y-5523459D01*
G01X6961647Y-6397207D02*
G01X7029886Y-6397207D01*
G01X7283885Y-6651207D01*
G54D20*
G01X6642487Y-5523459D02*
G01X6774526Y-5655499D01*
G01X7823204Y-5655499D01*
G01X8470903Y-5655499D01*
G01X8483603Y-5642799D01*
G54D21*
G01X5105400Y-6769096D02*
G01X5359399Y-6769096D01*
G01X5460999Y-6667497D01*
G54D20*
G01X6623487Y-7470395D02*
G01X7099296Y-7946204D01*
G01X7302495Y-7946204D01*
G01X7912104Y-7336595D01*
G54D21*
G01X5441519Y-6967976D02*
G01X5797118Y-6612377D01*
G01X5797118Y-6586977D01*
G01X5797118Y-6586977D02*
G01X5797118Y-5430469D01*
G01X5809008Y-5418579D01*
G54D20*
G01X6365267Y-5377850D02*
G01X6416067Y-5327050D01*
G01X6416067Y-4793651D01*
G01X5908068Y-4285652D01*
G01X4679471Y-4285652D01*
G01X4532821Y-4432301D01*
G01X4394201Y-4432301D01*
G01X4440622Y-4432301D02*
G01X4516821Y-4356101D01*
G01X4516821Y-3538923D01*
G01X4394201Y-3416303D01*
G01X5321299Y-7112016D02*
G01X5206984Y-6997700D01*
G01X4864100Y-6997700D01*
G01X4699016Y-6832616D01*
G01X4343401Y-6832616D01*
G54D21*
G01X5256099Y-6981076D02*
G01X5196524Y-6921500D01*
G01X4917124Y-6921500D01*
G01X4722700Y-6727076D01*
G54D20*
G01X5435600Y-6807200D02*
G01X5020110Y-6807200D01*
G02X4840505Y-6732805I0J254000D01*
G54D21*
G01X4541121Y-5836521D02*
G01X4541121Y-5595219D01*
G01X5214220Y-6513777D02*
G01X5214220Y-6509620D01*
G01X4541121Y-5836521D01*
G01X5196680Y-6590017D02*
G01X5196680Y-6574924D01*
G01X4501111Y-5879355D01*
G01X4501111Y-5809208D01*
G01X5339919Y-6726077D02*
G01X5111933Y-6726077D01*
G54D20*
G01X4840505Y-6732805D02*
G01X4851400Y-6743700D01*
G54D21*
G01X5111933Y-6726077D02*
G01X5019193Y-6633337D01*
G01X4563241Y-6633337D01*
G01X4394201Y-6464297D01*
G01X4394201Y-6718297D02*
G01X4441061Y-6671437D01*
G01X5007740Y-6671437D01*
G01X5105400Y-6769096D01*
G54D20*
G01X4834299Y-6573047D02*
G01X4890272Y-6517074D01*
G03X4919031Y-6447644I-69430J69430D01*
G54D21*
G01X5317719Y-6666177D02*
G01X5317719Y-6513419D01*
G01X4581121Y-5776820D01*
G01X4581121Y-5381219D01*
G04 Track End*

M02*

