;TYPE=PLATED
;Layer: PTH_Through
;EasyEDA Pro v3.2.148, 2026-08-09 17:13:06
;Gerber Generator version 0.3
M48
METRIC,LZ,0000.00000
;Hole size 1 = 0.30500 METRIC
T01C0.30500
;Hole size 2 = 0.30500 METRIC
T02C0.30500
;Hole size 3 = 0.80000 METRIC
T03C0.80000
;Hole size 4 = 0.90002 METRIC
T04C0.90002
;Hole size 5 = 0.91440 METRIC
T05C0.91440
;Hole size 6 = 1.02001 METRIC
T06C1.02001
;Hole size 7 = 1.80000 METRIC
T07C1.80000
%
G05
G90
T01
X54.356Y-68.072
X48.514Y-67.437
X49.25005Y-64.37256
X48.35591Y-65.72227
T02
X73.93225Y-53.163
X73.57926Y-54.78599
X51.9668Y-65.90017
X39.95411Y-58.28028
X40.97011Y-59.29628
X52.1422Y-65.13777
X59.28931Y-51.76316
X57.06509Y-55.42809
X61.67577Y-58.48832
X54.41519Y-58.11679
X59.43698Y-50.3481
X56.12309Y-59.74608
X60.97007Y-65.00187
X62.74807Y-55.09589
X62.49407Y-60.41768
X56.64499Y-46.0301
X56.08739Y-57.71408
X53.17719Y-66.66177
X55.49059Y-66.67167
X54.81499Y-60.15408
X59.09109Y-65.36387
X54.5191Y-70.44386
X48.71314Y-69.6219
X41.82982Y-74.49715
X52.81499Y-69.81075
X47.227Y-67.27076
X51.91709Y-61.40778
X46.3291Y-52.51779
X46.08549Y-47.39715
X44.45012Y-48.0919
X57.61888Y-50.292
X59.38968Y-49.49587
X51.15509Y-61.87768
X49.423Y-59.12959
X57.01953Y-47.33041
X59.32898Y-46.56871
X58.76108Y-43.49011
X55.21499Y-57.95818
X37.63812Y-57.12969
X54.91009Y-55.09769
X61.60297Y-54.8073
X63.57627Y-52.18745
X61.22407Y-60.81768
X75.19085Y-59.62658
X64.74507Y-51.01865
X65.04697Y-47.72722
X74.75332Y-56.07246
X74.87085Y-67.74556
X72.33086Y-62.15757
X74.16366Y-55.37479
X70.29886Y-52.55799
X63.49517Y-59.48778
X61.57948Y-66.30967
X58.93735Y-67.63713
X57.99858Y-70.30386
X62.84655Y-50.66379
X56.06781Y-44.93825
X58.4271Y-74.03359
X60.67008Y-71.24616
X58.15049Y-67.63713
X59.05188Y-62.01068
X62.09988Y-59.72468
X65.90987Y-58.70868
X65.57426Y-53.37164
X69.71986Y-59.72468
X59.55988Y-74.30064
X60.95221Y-72.00968
X62.4381Y-69.24738
X62.60788Y-67.54486
X61.59188Y-62.71887
X69.28749Y-57.15881
X72.65319Y-57.13939
X66.76536Y-43.95996
X66.87939Y-55.82265
X69.61647Y-63.97207
X72.83885Y-66.51207
X54.60999Y-66.67497
X66.23487Y-74.70395
X54.41519Y-69.67976
X57.97118Y-65.86977
X58.09008Y-54.18579
X63.59432Y-53.40114
T03
X33.92073Y-60.20496G85X33.52074Y-60.20496
X38.25066Y-60.20496G85X37.55066Y-60.20496
X38.25063Y-51.55504G85X37.55064Y-51.55504
X33.92073Y-51.55504G85X33.52074Y-51.55504
T04
X79.121Y-68.36613
X79.121Y-70.8663
X79.121Y-73.36617
X78.232Y-61.55487
X78.232Y-59.0547
X78.232Y-56.55483
X84.836Y-61.42787
X84.836Y-58.9277
X84.836Y-56.42783
X70.993Y-74.46213
X70.993Y-76.9623
X70.993Y-79.46217
T05
X78.867Y-44.744
X78.867Y-47.244
X78.867Y-49.74399
T06
X43.942Y-67.183
X43.942Y-64.643
X43.942Y-62.103
X43.942Y-59.563
X43.942Y-57.023
X43.942Y-54.483
X43.942Y-51.943
X43.942Y-49.403
X43.942Y-46.863
X43.942Y-44.323
X43.942Y-41.783
X43.942Y-39.243
X43.942Y-36.703
X43.942Y-34.163
T07
X76.92212Y-37.211
X71.92213Y-37.211
M30