G04 Layer: TopSilkscreenLayer*
G04 EasyEDA Pro v3.2.148, 2026-08-09 17:13:05*
G04 Gerber Generator version 0.3*
G04 Scale: 100 percent, Rotated: No, Reflected: No*
G04 Dimensions in millimeters*
G04 Leading zeros omitted, absolute positions, 4 integers and 5 decimals*
G04 Generated by one-click*
G04 Object Configs: Pad,Via,Track,Text,Image,Dimension,BoardOutline,BoardCutout,CopperFilled,SolidRegion,FPCStiffener,Line,PlaneZone,ComponentProperty,ComponentSilkscreen,TearDrop*
G04 Layer Configs: 1,2,3,4,5,6,7,8,9,10,11,13,14,56*
G04 Copper Areas: 0*
%FSLAX45Y45*%
%MOMM*%
%ADD10C,0.1524*%
%ADD11C,0.2032*%
%ADD12C,0.254*%
%ADD13C,0.11999*%
%ADD14C,0.15199*%
%ADD15C,0.15*%
%ADD16C,0.1*%
%ADD17C,0.0536*%
%ADD18C,0.05001*%
%ADD19C,0.2*%
%ADD20C,0.3*%
G75*


G04 Text Start*
G54D10*
G01X5153401Y-5438976D02*
G01X5150353Y-5432626D01*
G01X5144003Y-5426530D01*
G01X5137907Y-5423482D01*
G01X5125461Y-5423482D01*
G01X5119365Y-5426530D01*
G01X5113015Y-5432626D01*
G01X5109967Y-5438976D01*
G01X5106919Y-5448120D01*
G01X5106919Y-5463614D01*
G01X5109967Y-5473012D01*
G01X5113015Y-5479108D01*
G01X5119365Y-5485458D01*
G01X5125461Y-5488506D01*
G01X5137907Y-5488506D01*
G01X5144003Y-5485458D01*
G01X5150353Y-5479108D01*
G01X5153401Y-5473012D01*
G01X5183627Y-5435928D02*
G01X5189723Y-5432626D01*
G01X5198867Y-5423482D01*
G01X5198867Y-5488506D01*
G01X4943411Y-4971332D02*
G01X4940363Y-4964982D01*
G01X4934013Y-4958886D01*
G01X4927917Y-4955838D01*
G01X4915471Y-4955838D01*
G01X4909375Y-4958886D01*
G01X4903025Y-4964982D01*
G01X4899977Y-4971332D01*
G01X4896929Y-4980476D01*
G01X4896929Y-4995970D01*
G01X4899977Y-5005368D01*
G01X4903025Y-5011464D01*
G01X4909375Y-5017814D01*
G01X4915471Y-5020862D01*
G01X4927917Y-5020862D01*
G01X4934013Y-5017814D01*
G01X4940363Y-5011464D01*
G01X4943411Y-5005368D01*
G01X4976685Y-4971332D02*
G01X4976685Y-4968284D01*
G01X4979733Y-4961934D01*
G01X4982781Y-4958886D01*
G01X4988877Y-4955838D01*
G01X5001323Y-4955838D01*
G01X5007673Y-4958886D01*
G01X5010721Y-4961934D01*
G01X5013769Y-4968284D01*
G01X5013769Y-4974380D01*
G01X5010721Y-4980476D01*
G01X5004371Y-4989874D01*
G01X4973637Y-5020862D01*
G01X5016817Y-5020862D01*
G01X5263768Y-7618725D02*
G01X5266816Y-7625075D01*
G01X5273166Y-7631171D01*
G01X5279262Y-7634219D01*
G01X5291708Y-7634219D01*
G01X5297804Y-7631171D01*
G01X5304154Y-7625075D01*
G01X5307202Y-7618725D01*
G01X5310250Y-7609581D01*
G01X5310250Y-7594087D01*
G01X5307202Y-7584689D01*
G01X5304154Y-7578593D01*
G01X5297804Y-7572243D01*
G01X5291708Y-7569195D01*
G01X5279262Y-7569195D01*
G01X5273166Y-7572243D01*
G01X5266816Y-7578593D01*
G01X5263768Y-7584689D01*
G01X5227446Y-7634219D02*
G01X5193410Y-7634219D01*
G01X5211952Y-7609581D01*
G01X5202808Y-7609581D01*
G01X5196458Y-7606533D01*
G01X5193410Y-7603231D01*
G01X5190362Y-7594087D01*
G01X5190362Y-7587737D01*
G01X5193410Y-7578593D01*
G01X5199506Y-7572243D01*
G01X5208904Y-7569195D01*
G01X5218302Y-7569195D01*
G01X5227446Y-7572243D01*
G01X5230494Y-7575545D01*
G01X5233542Y-7581641D01*
G01X5255420Y-7268055D02*
G01X5258468Y-7274405D01*
G01X5264818Y-7280501D01*
G01X5270914Y-7283549D01*
G01X5283360Y-7283549D01*
G01X5289456Y-7280501D01*
G01X5295806Y-7274405D01*
G01X5298854Y-7268055D01*
G01X5301902Y-7258911D01*
G01X5301902Y-7243417D01*
G01X5298854Y-7234019D01*
G01X5295806Y-7227923D01*
G01X5289456Y-7221573D01*
G01X5283360Y-7218525D01*
G01X5270914Y-7218525D01*
G01X5264818Y-7221573D01*
G01X5258468Y-7227923D01*
G01X5255420Y-7234019D01*
G01X5194460Y-7283549D02*
G01X5225194Y-7240369D01*
G01X5178966Y-7240369D01*
G01X5194460Y-7283549D02*
G01X5194460Y-7218525D01*
G01X4701649Y-4517189D02*
G01X4695299Y-4520237D01*
G01X4689203Y-4526587D01*
G01X4686155Y-4532683D01*
G01X4686155Y-4545129D01*
G01X4689203Y-4551225D01*
G01X4695299Y-4557575D01*
G01X4701649Y-4560623D01*
G01X4710793Y-4563671D01*
G01X4726287Y-4563671D01*
G01X4735685Y-4560623D01*
G01X4741781Y-4557575D01*
G01X4748131Y-4551225D01*
G01X4751179Y-4545129D01*
G01X4751179Y-4532683D01*
G01X4748131Y-4526587D01*
G01X4741781Y-4520237D01*
G01X4735685Y-4517189D01*
G01X4686155Y-4449879D02*
G01X4686155Y-4480867D01*
G01X4713841Y-4483915D01*
G01X4710793Y-4480867D01*
G01X4707745Y-4471723D01*
G01X4707745Y-4462325D01*
G01X4710793Y-4452927D01*
G01X4717143Y-4446831D01*
G01X4726287Y-4443783D01*
G01X4732637Y-4443783D01*
G01X4741781Y-4446831D01*
G01X4748131Y-4452927D01*
G01X4751179Y-4462325D01*
G01X4751179Y-4471723D01*
G01X4748131Y-4480867D01*
G01X4744829Y-4483915D01*
G01X4738733Y-4486963D01*
G01X6327976Y-4981199D02*
G01X6321626Y-4984247D01*
G01X6315530Y-4990597D01*
G01X6312482Y-4996693D01*
G01X6312482Y-5009139D01*
G01X6315530Y-5015235D01*
G01X6321626Y-5021585D01*
G01X6327976Y-5024633D01*
G01X6337120Y-5027681D01*
G01X6352614Y-5027681D01*
G01X6362012Y-5024633D01*
G01X6368108Y-5021585D01*
G01X6374458Y-5015235D01*
G01X6377506Y-5009139D01*
G01X6377506Y-4996693D01*
G01X6374458Y-4990597D01*
G01X6368108Y-4984247D01*
G01X6362012Y-4981199D01*
G01X6321626Y-4913889D02*
G01X6315530Y-4916937D01*
G01X6312482Y-4926335D01*
G01X6312482Y-4932431D01*
G01X6315530Y-4941829D01*
G01X6324928Y-4947925D01*
G01X6340168Y-4950973D01*
G01X6355662Y-4950973D01*
G01X6368108Y-4947925D01*
G01X6374458Y-4941829D01*
G01X6377506Y-4932431D01*
G01X6377506Y-4929383D01*
G01X6374458Y-4920239D01*
G01X6368108Y-4913889D01*
G01X6358964Y-4910841D01*
G01X6355662Y-4910841D01*
G01X6346518Y-4913889D01*
G01X6340168Y-4920239D01*
G01X6337120Y-4929383D01*
G01X6337120Y-4932431D01*
G01X6340168Y-4941829D01*
G01X6346518Y-4947925D01*
G01X6355662Y-4950973D01*
G01X4268280Y-7795278D02*
G01X4261930Y-7798326D01*
G01X4255834Y-7804676D01*
G01X4252786Y-7810772D01*
G01X4252786Y-7823218D01*
G01X4255834Y-7829314D01*
G01X4261930Y-7835664D01*
G01X4268280Y-7838712D01*
G01X4277424Y-7841760D01*
G01X4292918Y-7841760D01*
G01X4302316Y-7838712D01*
G01X4308412Y-7835664D01*
G01X4314762Y-7829314D01*
G01X4317810Y-7823218D01*
G01X4317810Y-7810772D01*
G01X4314762Y-7804676D01*
G01X4308412Y-7798326D01*
G01X4302316Y-7795278D01*
G01X4268280Y-7762004D02*
G01X4265232Y-7762004D01*
G01X4258882Y-7758956D01*
G01X4255834Y-7755908D01*
G01X4252786Y-7749812D01*
G01X4252786Y-7737366D01*
G01X4255834Y-7731016D01*
G01X4258882Y-7727968D01*
G01X4265232Y-7724920D01*
G01X4271328Y-7724920D01*
G01X4277424Y-7727968D01*
G01X4286822Y-7734318D01*
G01X4317810Y-7765052D01*
G01X4317810Y-7721872D01*
G01X4265232Y-7691646D02*
G01X4261930Y-7685550D01*
G01X4252786Y-7676406D01*
G01X4317810Y-7676406D01*
G01X3750976Y-6233404D02*
G01X3757326Y-6230356D01*
G01X3763422Y-6224006D01*
G01X3766470Y-6217910D01*
G01X3766470Y-6205464D01*
G01X3763422Y-6199368D01*
G01X3757326Y-6193018D01*
G01X3750976Y-6189970D01*
G01X3741832Y-6186922D01*
G01X3726338Y-6186922D01*
G01X3716940Y-6189970D01*
G01X3710844Y-6193018D01*
G01X3704494Y-6199368D01*
G01X3701446Y-6205464D01*
G01X3701446Y-6217910D01*
G01X3704494Y-6224006D01*
G01X3710844Y-6230356D01*
G01X3716940Y-6233404D01*
G01X3750976Y-6266678D02*
G01X3754024Y-6266678D01*
G01X3760374Y-6269726D01*
G01X3763422Y-6272774D01*
G01X3766470Y-6278870D01*
G01X3766470Y-6291316D01*
G01X3763422Y-6297666D01*
G01X3760374Y-6300714D01*
G01X3754024Y-6303762D01*
G01X3747928Y-6303762D01*
G01X3741832Y-6300714D01*
G01X3732434Y-6294364D01*
G01X3701446Y-6263630D01*
G01X3701446Y-6306810D01*
G01X3750976Y-6340084D02*
G01X3754024Y-6340084D01*
G01X3760374Y-6343132D01*
G01X3763422Y-6346180D01*
G01X3766470Y-6352276D01*
G01X3766470Y-6364722D01*
G01X3763422Y-6371072D01*
G01X3760374Y-6374120D01*
G01X3754024Y-6377168D01*
G01X3747928Y-6377168D01*
G01X3741832Y-6374120D01*
G01X3732434Y-6367770D01*
G01X3701446Y-6337036D01*
G01X3701446Y-6380216D01*
G01X7065068Y-4158121D02*
G01X7068116Y-4164471D01*
G01X7074466Y-4170567D01*
G01X7080562Y-4173615D01*
G01X7093008Y-4173615D01*
G01X7099104Y-4170567D01*
G01X7105454Y-4164471D01*
G01X7108502Y-4158121D01*
G01X7111550Y-4148977D01*
G01X7111550Y-4133483D01*
G01X7108502Y-4124085D01*
G01X7105454Y-4117989D01*
G01X7099104Y-4111639D01*
G01X7093008Y-4108591D01*
G01X7080562Y-4108591D01*
G01X7074466Y-4111639D01*
G01X7068116Y-4117989D01*
G01X7065068Y-4124085D01*
G01X7010204Y-4173615D02*
G01X7034842Y-4108591D01*
G01X7010204Y-4173615D02*
G01X6985312Y-4108591D01*
G01X7025698Y-4130435D02*
G01X6994710Y-4130435D01*
G01X6955086Y-4173615D02*
G01X6955086Y-4108591D01*
G01X6955086Y-4173615D02*
G01X6927400Y-4173615D01*
G01X6918002Y-4170567D01*
G01X6914954Y-4167519D01*
G01X6911906Y-4161169D01*
G01X6911906Y-4155073D01*
G01X6914954Y-4148977D01*
G01X6918002Y-4145929D01*
G01X6927400Y-4142627D01*
G01X6955086Y-4142627D01*
G01X6933496Y-4142627D02*
G01X6911906Y-4108591D01*
G01X6881680Y-4173615D02*
G01X6881680Y-4108591D01*
G01X6881680Y-4173615D02*
G01X6860090Y-4173615D01*
G01X6850946Y-4170567D01*
G01X6844596Y-4164471D01*
G01X6841548Y-4158121D01*
G01X6838500Y-4148977D01*
G01X6838500Y-4133483D01*
G01X6841548Y-4124085D01*
G01X6844596Y-4117989D01*
G01X6850946Y-4111639D01*
G01X6860090Y-4108591D01*
G01X6881680Y-4108591D01*
G01X6808274Y-4161169D02*
G01X6802178Y-4164471D01*
G01X6793034Y-4173615D01*
G01X6793034Y-4108591D01*
G54D11*
G01X8054353Y-3733038D02*
G01X8009649Y-3733038D01*
G01X6876301Y-3742690D02*
G01X6876301Y-3697986D01*
G01X6898653Y-3720338D02*
G01X6853949Y-3720338D01*
G54D10*
G01X7058576Y-3397534D02*
G01X7061624Y-3403884D01*
G01X7067974Y-3409980D01*
G01X7074070Y-3413028D01*
G01X7086516Y-3413028D01*
G01X7092612Y-3409980D01*
G01X7098962Y-3403884D01*
G01X7102010Y-3397534D01*
G01X7105058Y-3388390D01*
G01X7105058Y-3372896D01*
G01X7102010Y-3363498D01*
G01X7098962Y-3357402D01*
G01X7092612Y-3351052D01*
G01X7086516Y-3348004D01*
G01X7074070Y-3348004D01*
G01X7067974Y-3351052D01*
G01X7061624Y-3357402D01*
G01X7058576Y-3363498D01*
G01X7028350Y-3413028D02*
G01X7028350Y-3348004D01*
G01X7028350Y-3413028D02*
G01X6985170Y-3348004D01*
G01X6985170Y-3413028D02*
G01X6985170Y-3348004D01*
G01X6954944Y-3400582D02*
G01X6948848Y-3403884D01*
G01X6939704Y-3413028D01*
G01X6939704Y-3348004D01*
G01X6280295Y-8118191D02*
G01X6283343Y-8124541D01*
G01X6289693Y-8130637D01*
G01X6295789Y-8133685D01*
G01X6308235Y-8133685D01*
G01X6314331Y-8130637D01*
G01X6320681Y-8124541D01*
G01X6323729Y-8118191D01*
G01X6326777Y-8109047D01*
G01X6326777Y-8093553D01*
G01X6323729Y-8084155D01*
G01X6320681Y-8078059D01*
G01X6314331Y-8071709D01*
G01X6308235Y-8068661D01*
G01X6295789Y-8068661D01*
G01X6289693Y-8071709D01*
G01X6283343Y-8078059D01*
G01X6280295Y-8084155D01*
G01X6250069Y-8133685D02*
G01X6250069Y-8068661D01*
G01X6250069Y-8133685D02*
G01X6206889Y-8068661D01*
G01X6206889Y-8133685D02*
G01X6206889Y-8068661D01*
G01X6173615Y-8118191D02*
G01X6173615Y-8121239D01*
G01X6170567Y-8127589D01*
G01X6167519Y-8130637D01*
G01X6161423Y-8133685D01*
G01X6148977Y-8133685D01*
G01X6142627Y-8130637D01*
G01X6139579Y-8127589D01*
G01X6136531Y-8121239D01*
G01X6136531Y-8115143D01*
G01X6139579Y-8109047D01*
G01X6145929Y-8099649D01*
G01X6176663Y-8068661D01*
G01X6133483Y-8068661D01*
G01X4206670Y-6891792D02*
G01X4206670Y-6956816D01*
G01X4206670Y-6891792D02*
G01X4228260Y-6891792D01*
G01X4237658Y-6894840D01*
G01X4243754Y-6900936D01*
G01X4246802Y-6907286D01*
G01X4250104Y-6916430D01*
G01X4250104Y-6931924D01*
G01X4246802Y-6941322D01*
G01X4243754Y-6947418D01*
G01X4237658Y-6953768D01*
G01X4228260Y-6956816D01*
G01X4206670Y-6956816D01*
G01X4283378Y-6907286D02*
G01X4283378Y-6904238D01*
G01X4286426Y-6897888D01*
G01X4289474Y-6894840D01*
G01X4295570Y-6891792D01*
G01X4308016Y-6891792D01*
G01X4314366Y-6894840D01*
G01X4317414Y-6897888D01*
G01X4320462Y-6904238D01*
G01X4320462Y-6910334D01*
G01X4317414Y-6916430D01*
G01X4311064Y-6925828D01*
G01X4280330Y-6956816D01*
G01X4323510Y-6956816D01*
G01X4640834Y-3284220D02*
G01X4575810Y-3284220D01*
G01X4640834Y-3327654D02*
G01X4575810Y-3327654D01*
G01X4609846Y-3284220D02*
G01X4609846Y-3327654D01*
G01X4628388Y-3357880D02*
G01X4631690Y-3363976D01*
G01X4640834Y-3373120D01*
G01X4575810Y-3373120D01*
G01X6484283Y-6736717D02*
G01X6484283Y-6801741D01*
G01X6484283Y-6801741D02*
G01X6521367Y-6801741D01*
G01X6551593Y-6749163D02*
G01X6557689Y-6745861D01*
G01X6566833Y-6736717D01*
G01X6566833Y-6801741D01*
G01X6380472Y-4713627D02*
G01X6445496Y-4713627D01*
G01X6445496Y-4713627D02*
G01X6445496Y-4676543D01*
G01X6395966Y-4643269D02*
G01X6392918Y-4643269D01*
G01X6386568Y-4640221D01*
G01X6383520Y-4637173D01*
G01X6380472Y-4631077D01*
G01X6380472Y-4618631D01*
G01X6383520Y-4612281D01*
G01X6386568Y-4609233D01*
G01X6392918Y-4606185D01*
G01X6399014Y-4606185D01*
G01X6405110Y-4609233D01*
G01X6414508Y-4615583D01*
G01X6445496Y-4646317D01*
G01X6445496Y-4603137D01*
G01X4610786Y-6469824D02*
G01X4675810Y-6469824D01*
G01X4610786Y-6469824D02*
G01X4610786Y-6441884D01*
G01X4613834Y-6432740D01*
G01X4616882Y-6429692D01*
G01X4623232Y-6426390D01*
G01X4629328Y-6426390D01*
G01X4635424Y-6429692D01*
G01X4638472Y-6432740D01*
G01X4641774Y-6441884D01*
G01X4641774Y-6469824D01*
G01X4641774Y-6448234D02*
G01X4675810Y-6426390D01*
G01X4623232Y-6396164D02*
G01X4619930Y-6390068D01*
G01X4610786Y-6380924D01*
G01X4675810Y-6380924D01*
G01X6145952Y-5520493D02*
G01X6080928Y-5520493D01*
G01X6145952Y-5520493D02*
G01X6145952Y-5548433D01*
G01X6142904Y-5557577D01*
G01X6139856Y-5560625D01*
G01X6133506Y-5563927D01*
G01X6127410Y-5563927D01*
G01X6121314Y-5560625D01*
G01X6118266Y-5557577D01*
G01X6114964Y-5548433D01*
G01X6114964Y-5520493D01*
G01X6114964Y-5542083D02*
G01X6080928Y-5563927D01*
G01X6130458Y-5597201D02*
G01X6133506Y-5597201D01*
G01X6139856Y-5600249D01*
G01X6142904Y-5603297D01*
G01X6145952Y-5609393D01*
G01X6145952Y-5621839D01*
G01X6142904Y-5628189D01*
G01X6139856Y-5631237D01*
G01X6133506Y-5634285D01*
G01X6127410Y-5634285D01*
G01X6121314Y-5631237D01*
G01X6111916Y-5624887D01*
G01X6080928Y-5594153D01*
G01X6080928Y-5637333D01*
G01X6680760Y-5229204D02*
G01X6615736Y-5229204D01*
G01X6680760Y-5229204D02*
G01X6680760Y-5257144D01*
G01X6677712Y-5266288D01*
G01X6674664Y-5269336D01*
G01X6668314Y-5272638D01*
G01X6662218Y-5272638D01*
G01X6656122Y-5269336D01*
G01X6653074Y-5266288D01*
G01X6649772Y-5257144D01*
G01X6649772Y-5229204D01*
G01X6649772Y-5250794D02*
G01X6615736Y-5272638D01*
G01X6680760Y-5308960D02*
G01X6680760Y-5342996D01*
G01X6656122Y-5324454D01*
G01X6656122Y-5333598D01*
G01X6653074Y-5339948D01*
G01X6649772Y-5342996D01*
G01X6640628Y-5346044D01*
G01X6634278Y-5346044D01*
G01X6625134Y-5342996D01*
G01X6618784Y-5336900D01*
G01X6615736Y-5327502D01*
G01X6615736Y-5318104D01*
G01X6618784Y-5308960D01*
G01X6622086Y-5305912D01*
G01X6628182Y-5302864D01*
G01X6483831Y-5510781D02*
G01X6418807Y-5510781D01*
G01X6483831Y-5510781D02*
G01X6483831Y-5538721D01*
G01X6480783Y-5547865D01*
G01X6477735Y-5550913D01*
G01X6471385Y-5554215D01*
G01X6465289Y-5554215D01*
G01X6459193Y-5550913D01*
G01X6456145Y-5547865D01*
G01X6452843Y-5538721D01*
G01X6452843Y-5510781D01*
G01X6452843Y-5532371D02*
G01X6418807Y-5554215D01*
G01X6483831Y-5615175D02*
G01X6440651Y-5584441D01*
G01X6440651Y-5630669D01*
G01X6483831Y-5615175D02*
G01X6418807Y-5615175D01*
G01X6950739Y-4464751D02*
G01X6885715Y-4464751D01*
G01X6950739Y-4464751D02*
G01X6950739Y-4492691D01*
G01X6947691Y-4501835D01*
G01X6944643Y-4504883D01*
G01X6938293Y-4508185D01*
G01X6932197Y-4508185D01*
G01X6926101Y-4504883D01*
G01X6923053Y-4501835D01*
G01X6919751Y-4492691D01*
G01X6919751Y-4464751D01*
G01X6919751Y-4486341D02*
G01X6885715Y-4508185D01*
G01X6950739Y-4575495D02*
G01X6950739Y-4544507D01*
G01X6923053Y-4541459D01*
G01X6926101Y-4544507D01*
G01X6929149Y-4553651D01*
G01X6929149Y-4563049D01*
G01X6926101Y-4572447D01*
G01X6919751Y-4578543D01*
G01X6910607Y-4581591D01*
G01X6904257Y-4581591D01*
G01X6895113Y-4578543D01*
G01X6888763Y-4572447D01*
G01X6885715Y-4563049D01*
G01X6885715Y-4553651D01*
G01X6888763Y-4544507D01*
G01X6892065Y-4541459D01*
G01X6898161Y-4538411D01*
G01X5932026Y-5512140D02*
G01X5867002Y-5512140D01*
G01X5932026Y-5512140D02*
G01X5932026Y-5540080D01*
G01X5928978Y-5549224D01*
G01X5925930Y-5552272D01*
G01X5919580Y-5555574D01*
G01X5913484Y-5555574D01*
G01X5907388Y-5552272D01*
G01X5904340Y-5549224D01*
G01X5901038Y-5540080D01*
G01X5901038Y-5512140D01*
G01X5901038Y-5533730D02*
G01X5867002Y-5555574D01*
G01X5922882Y-5622884D02*
G01X5928978Y-5619836D01*
G01X5932026Y-5610438D01*
G01X5932026Y-5604342D01*
G01X5928978Y-5594944D01*
G01X5919580Y-5588848D01*
G01X5904340Y-5585800D01*
G01X5888846Y-5585800D01*
G01X5876400Y-5588848D01*
G01X5870050Y-5594944D01*
G01X5867002Y-5604342D01*
G01X5867002Y-5607390D01*
G01X5870050Y-5616534D01*
G01X5876400Y-5622884D01*
G01X5885544Y-5625932D01*
G01X5888846Y-5625932D01*
G01X5897990Y-5622884D01*
G01X5904340Y-5616534D01*
G01X5907388Y-5607390D01*
G01X5907388Y-5604342D01*
G01X5904340Y-5594944D01*
G01X5897990Y-5588848D01*
G01X5888846Y-5585800D01*
G01X4199019Y-7534228D02*
G01X4133995Y-7534228D01*
G01X4199019Y-7534228D02*
G01X4199019Y-7562168D01*
G01X4195971Y-7571312D01*
G01X4192923Y-7574360D01*
G01X4186573Y-7577662D01*
G01X4180477Y-7577662D01*
G01X4174381Y-7574360D01*
G01X4171333Y-7571312D01*
G01X4168031Y-7562168D01*
G01X4168031Y-7534228D01*
G01X4168031Y-7555818D02*
G01X4133995Y-7577662D01*
G01X4199019Y-7651068D02*
G01X4133995Y-7620080D01*
G01X4199019Y-7607888D02*
G01X4199019Y-7651068D01*
G01X6314605Y-5600571D02*
G01X6249581Y-5600571D01*
G01X6314605Y-5600571D02*
G01X6314605Y-5628511D01*
G01X6311557Y-5637655D01*
G01X6308509Y-5640703D01*
G01X6302159Y-5644005D01*
G01X6296063Y-5644005D01*
G01X6289967Y-5640703D01*
G01X6286919Y-5637655D01*
G01X6283617Y-5628511D01*
G01X6283617Y-5600571D01*
G01X6283617Y-5622161D02*
G01X6249581Y-5644005D01*
G01X6314605Y-5689471D02*
G01X6311557Y-5680327D01*
G01X6305461Y-5677279D01*
G01X6299111Y-5677279D01*
G01X6293015Y-5680327D01*
G01X6289967Y-5686423D01*
G01X6286919Y-5698869D01*
G01X6283617Y-5708267D01*
G01X6277521Y-5714363D01*
G01X6271425Y-5717411D01*
G01X6262027Y-5717411D01*
G01X6255931Y-5714363D01*
G01X6252629Y-5711315D01*
G01X6249581Y-5701917D01*
G01X6249581Y-5689471D01*
G01X6252629Y-5680327D01*
G01X6255931Y-5677279D01*
G01X6262027Y-5674231D01*
G01X6271425Y-5674231D01*
G01X6277521Y-5677279D01*
G01X6283617Y-5683375D01*
G01X6286919Y-5692773D01*
G01X6289967Y-5704965D01*
G01X6293015Y-5711315D01*
G01X6299111Y-5714363D01*
G01X6305461Y-5714363D01*
G01X6311557Y-5711315D01*
G01X6314605Y-5701917D01*
G01X6314605Y-5689471D01*
G01X7437209Y-6192949D02*
G01X7372185Y-6192949D01*
G01X7437209Y-6192949D02*
G01X7437209Y-6220889D01*
G01X7434161Y-6230033D01*
G01X7431113Y-6233081D01*
G01X7424763Y-6236383D01*
G01X7418667Y-6236383D01*
G01X7412571Y-6233081D01*
G01X7409523Y-6230033D01*
G01X7406221Y-6220889D01*
G01X7406221Y-6192949D01*
G01X7406221Y-6214539D02*
G01X7372185Y-6236383D01*
G01X7415619Y-6306741D02*
G01X7406221Y-6303693D01*
G01X7400125Y-6297343D01*
G01X7397077Y-6288199D01*
G01X7397077Y-6285151D01*
G01X7400125Y-6275753D01*
G01X7406221Y-6269657D01*
G01X7415619Y-6266609D01*
G01X7418667Y-6266609D01*
G01X7428065Y-6269657D01*
G01X7434161Y-6275753D01*
G01X7437209Y-6285151D01*
G01X7437209Y-6288199D01*
G01X7434161Y-6297343D01*
G01X7428065Y-6303693D01*
G01X7415619Y-6306741D01*
G01X7400125Y-6306741D01*
G01X7384631Y-6303693D01*
G01X7375233Y-6297343D01*
G01X7372185Y-6288199D01*
G01X7372185Y-6281849D01*
G01X7375233Y-6272705D01*
G01X7381583Y-6269657D01*
G01X6079745Y-5753344D02*
G01X6033263Y-5753344D01*
G01X6024119Y-5756392D01*
G01X6017769Y-5762742D01*
G01X6014721Y-5771886D01*
G01X6014721Y-5778236D01*
G01X6017769Y-5787380D01*
G01X6024119Y-5793476D01*
G01X6033263Y-5796778D01*
G01X6079745Y-5796778D01*
G01X6067299Y-5827004D02*
G01X6070601Y-5833100D01*
G01X6079745Y-5842244D01*
G01X6014721Y-5842244D01*
G01X6925266Y-6213215D02*
G01X6925266Y-6259697D01*
G01X6928314Y-6268841D01*
G01X6934664Y-6275191D01*
G01X6943808Y-6278239D01*
G01X6950158Y-6278239D01*
G01X6959302Y-6275191D01*
G01X6965398Y-6268841D01*
G01X6968700Y-6259697D01*
G01X6968700Y-6213215D01*
G01X7001974Y-6228709D02*
G01X7001974Y-6225661D01*
G01X7005022Y-6219311D01*
G01X7008070Y-6216263D01*
G01X7014166Y-6213215D01*
G01X7026612Y-6213215D01*
G01X7032962Y-6216263D01*
G01X7036010Y-6219311D01*
G01X7039058Y-6225661D01*
G01X7039058Y-6231757D01*
G01X7036010Y-6237853D01*
G01X7029660Y-6247251D01*
G01X6998926Y-6278239D01*
G01X7042106Y-6278239D01*
G01X6273385Y-7422269D02*
G01X6273385Y-7375787D01*
G01X6270337Y-7366643D01*
G01X6263987Y-7360293D01*
G01X6254843Y-7357245D01*
G01X6248493Y-7357245D01*
G01X6239349Y-7360293D01*
G01X6233253Y-7366643D01*
G01X6229951Y-7375787D01*
G01X6229951Y-7422269D01*
G01X6193629Y-7422269D02*
G01X6159593Y-7422269D01*
G01X6178135Y-7397631D01*
G01X6168991Y-7397631D01*
G01X6162641Y-7394583D01*
G01X6159593Y-7391281D01*
G01X6156545Y-7382137D01*
G01X6156545Y-7375787D01*
G01X6159593Y-7366643D01*
G01X6165689Y-7360293D01*
G01X6175087Y-7357245D01*
G01X6184485Y-7357245D01*
G01X6193629Y-7360293D01*
G01X6196677Y-7363595D01*
G01X6199725Y-7369691D01*
G01X6919144Y-5457482D02*
G01X6919144Y-5503964D01*
G01X6922192Y-5513108D01*
G01X6928542Y-5519458D01*
G01X6937686Y-5522506D01*
G01X6944036Y-5522506D01*
G01X6953180Y-5519458D01*
G01X6959276Y-5513108D01*
G01X6962578Y-5503964D01*
G01X6962578Y-5457482D01*
G01X7023538Y-5457482D02*
G01X6992804Y-5500662D01*
G01X7039032Y-5500662D01*
G01X7023538Y-5457482D02*
G01X7023538Y-5522506D01*
G01X5018866Y-8023780D02*
G01X5065348Y-8023780D01*
G01X5074492Y-8020732D01*
G01X5080842Y-8014382D01*
G01X5083890Y-8005238D01*
G01X5083890Y-7998888D01*
G01X5080842Y-7989744D01*
G01X5074492Y-7983648D01*
G01X5065348Y-7980346D01*
G01X5018866Y-7980346D01*
G01X5018866Y-7913036D02*
G01X5018866Y-7944024D01*
G01X5046552Y-7947072D01*
G01X5043504Y-7944024D01*
G01X5040456Y-7934880D01*
G01X5040456Y-7925482D01*
G01X5043504Y-7916084D01*
G01X5049854Y-7909988D01*
G01X5058998Y-7906940D01*
G01X5065348Y-7906940D01*
G01X5074492Y-7909988D01*
G01X5080842Y-7916084D01*
G01X5083890Y-7925482D01*
G01X5083890Y-7934880D01*
G01X5080842Y-7944024D01*
G01X5077540Y-7947072D01*
G01X5071444Y-7950120D01*
G01X6935975Y-6912726D02*
G01X6982457Y-6912726D01*
G01X6991601Y-6909678D01*
G01X6997951Y-6903328D01*
G01X7000999Y-6894184D01*
G01X7000999Y-6887834D01*
G01X6997951Y-6878690D01*
G01X6991601Y-6872594D01*
G01X6982457Y-6869292D01*
G01X6935975Y-6869292D01*
G01X6945119Y-6801982D02*
G01X6939023Y-6805030D01*
G01X6935975Y-6814428D01*
G01X6935975Y-6820524D01*
G01X6939023Y-6829922D01*
G01X6948421Y-6836018D01*
G01X6963661Y-6839066D01*
G01X6979155Y-6839066D01*
G01X6991601Y-6836018D01*
G01X6997951Y-6829922D01*
G01X7000999Y-6820524D01*
G01X7000999Y-6817476D01*
G01X6997951Y-6808332D01*
G01X6991601Y-6801982D01*
G01X6982457Y-6798934D01*
G01X6979155Y-6798934D01*
G01X6970011Y-6801982D01*
G01X6963661Y-6808332D01*
G01X6960613Y-6817476D01*
G01X6960613Y-6820524D01*
G01X6963661Y-6829922D01*
G01X6970011Y-6836018D01*
G01X6979155Y-6839066D01*
G01X5211288Y-5268371D02*
G01X5257770Y-5268371D01*
G01X5266914Y-5265323D01*
G01X5273264Y-5258973D01*
G01X5276312Y-5249829D01*
G01X5276312Y-5243479D01*
G01X5273264Y-5234335D01*
G01X5266914Y-5228239D01*
G01X5257770Y-5224937D01*
G01X5211288Y-5224937D01*
G01X5211288Y-5151531D02*
G01X5276312Y-5182519D01*
G01X5211288Y-5194711D02*
G01X5211288Y-5151531D01*
G01X8283428Y-6499700D02*
G01X8236946Y-6499700D01*
G01X8227802Y-6502748D01*
G01X8221452Y-6509098D01*
G01X8218404Y-6518242D01*
G01X8218404Y-6524592D01*
G01X8221452Y-6533736D01*
G01X8227802Y-6539832D01*
G01X8236946Y-6543134D01*
G01X8283428Y-6543134D01*
G01X8283428Y-6588600D02*
G01X8280380Y-6579456D01*
G01X8274284Y-6576408D01*
G01X8267934Y-6576408D01*
G01X8261838Y-6579456D01*
G01X8258790Y-6585552D01*
G01X8255742Y-6597998D01*
G01X8252440Y-6607396D01*
G01X8246344Y-6613492D01*
G01X8240248Y-6616540D01*
G01X8230850Y-6616540D01*
G01X8224754Y-6613492D01*
G01X8221452Y-6610444D01*
G01X8218404Y-6601046D01*
G01X8218404Y-6588600D01*
G01X8221452Y-6579456D01*
G01X8224754Y-6576408D01*
G01X8230850Y-6573360D01*
G01X8240248Y-6573360D01*
G01X8246344Y-6576408D01*
G01X8252440Y-6582504D01*
G01X8255742Y-6591902D01*
G01X8258790Y-6604094D01*
G01X8261838Y-6610444D01*
G01X8267934Y-6613492D01*
G01X8274284Y-6613492D01*
G01X8280380Y-6610444D01*
G01X8283428Y-6601046D01*
G01X8283428Y-6588600D01*
G01X7789957Y-6557705D02*
G01X7836439Y-6557705D01*
G01X7845583Y-6554657D01*
G01X7851933Y-6548307D01*
G01X7854981Y-6539163D01*
G01X7854981Y-6532813D01*
G01X7851933Y-6523669D01*
G01X7845583Y-6517573D01*
G01X7836439Y-6514271D01*
G01X7789957Y-6514271D01*
G01X7811547Y-6443913D02*
G01X7820945Y-6446961D01*
G01X7827041Y-6453311D01*
G01X7830089Y-6462455D01*
G01X7830089Y-6465503D01*
G01X7827041Y-6474901D01*
G01X7820945Y-6480997D01*
G01X7811547Y-6484045D01*
G01X7808499Y-6484045D01*
G01X7799101Y-6480997D01*
G01X7793005Y-6474901D01*
G01X7789957Y-6465503D01*
G01X7789957Y-6462455D01*
G01X7793005Y-6453311D01*
G01X7799101Y-6446961D01*
G01X7811547Y-6443913D01*
G01X7827041Y-6443913D01*
G01X7842535Y-6446961D01*
G01X7851933Y-6453311D01*
G01X7854981Y-6462455D01*
G01X7854981Y-6468805D01*
G01X7851933Y-6477949D01*
G01X7845583Y-6480997D01*
G01X8448111Y-6592181D02*
G01X8494593Y-6592181D01*
G01X8503737Y-6589133D01*
G01X8510087Y-6582783D01*
G01X8513135Y-6573639D01*
G01X8513135Y-6567289D01*
G01X8510087Y-6558145D01*
G01X8503737Y-6552049D01*
G01X8494593Y-6548747D01*
G01X8448111Y-6548747D01*
G01X8460557Y-6518521D02*
G01X8457255Y-6512425D01*
G01X8448111Y-6503281D01*
G01X8513135Y-6503281D01*
G01X8448111Y-6454513D02*
G01X8451159Y-6463911D01*
G01X8460557Y-6470007D01*
G01X8475797Y-6473055D01*
G01X8485195Y-6473055D01*
G01X8500689Y-6470007D01*
G01X8510087Y-6463911D01*
G01X8513135Y-6454513D01*
G01X8513135Y-6448417D01*
G01X8510087Y-6439019D01*
G01X8500689Y-6432923D01*
G01X8485195Y-6429875D01*
G01X8475797Y-6429875D01*
G01X8460557Y-6432923D01*
G01X8451159Y-6439019D01*
G01X8448111Y-6448417D01*
G01X8448111Y-6454513D01*
G01X7462777Y-7194509D02*
G01X7416295Y-7194509D01*
G01X7407151Y-7197557D01*
G01X7400801Y-7203907D01*
G01X7397753Y-7213051D01*
G01X7397753Y-7219401D01*
G01X7400801Y-7228545D01*
G01X7407151Y-7234641D01*
G01X7416295Y-7237943D01*
G01X7462777Y-7237943D01*
G01X7450331Y-7268169D02*
G01X7453633Y-7274265D01*
G01X7462777Y-7283409D01*
G01X7397753Y-7283409D01*
G01X7450331Y-7313635D02*
G01X7453633Y-7319731D01*
G01X7462777Y-7328875D01*
G01X7397753Y-7328875D01*
G01X5634086Y-4945132D02*
G01X5680568Y-4945132D01*
G01X5689712Y-4942084D01*
G01X5696062Y-4935734D01*
G01X5699110Y-4926590D01*
G01X5699110Y-4920240D01*
G01X5696062Y-4911096D01*
G01X5689712Y-4905000D01*
G01X5680568Y-4901698D01*
G01X5634086Y-4901698D01*
G01X5646532Y-4871472D02*
G01X5643230Y-4865376D01*
G01X5634086Y-4856232D01*
G01X5699110Y-4856232D01*
G01X5649580Y-4822958D02*
G01X5646532Y-4822958D01*
G01X5640182Y-4819910D01*
G01X5637134Y-4816862D01*
G01X5634086Y-4810766D01*
G01X5634086Y-4798320D01*
G01X5637134Y-4791970D01*
G01X5640182Y-4788922D01*
G01X5646532Y-4785874D01*
G01X5652628Y-4785874D01*
G01X5658724Y-4788922D01*
G01X5668122Y-4795272D01*
G01X5699110Y-4826006D01*
G01X5699110Y-4782826D01*
G01X8209534Y-4268483D02*
G01X8163052Y-4268483D01*
G01X8153908Y-4271531D01*
G01X8147558Y-4277881D01*
G01X8144510Y-4287025D01*
G01X8144510Y-4293375D01*
G01X8147558Y-4302519D01*
G01X8153908Y-4308615D01*
G01X8163052Y-4311917D01*
G01X8209534Y-4311917D01*
G01X8197088Y-4342143D02*
G01X8200390Y-4348239D01*
G01X8209534Y-4357383D01*
G01X8144510Y-4357383D01*
G01X8209534Y-4393705D02*
G01X8209534Y-4427741D01*
G01X8184896Y-4409199D01*
G01X8184896Y-4418343D01*
G01X8181848Y-4424693D01*
G01X8178546Y-4427741D01*
G01X8169402Y-4430789D01*
G01X8163052Y-4430789D01*
G01X8153908Y-4427741D01*
G01X8147558Y-4421645D01*
G01X8144510Y-4412247D01*
G01X8144510Y-4402849D01*
G01X8147558Y-4393705D01*
G01X8150860Y-4390657D01*
G01X8156956Y-4387609D01*
G01X4039105Y-5102855D02*
G01X3992623Y-5102855D01*
G01X3983479Y-5105903D01*
G01X3977129Y-5112253D01*
G01X3974081Y-5121397D01*
G01X3974081Y-5127747D01*
G01X3977129Y-5136891D01*
G01X3983479Y-5142987D01*
G01X3992623Y-5146289D01*
G01X4039105Y-5146289D01*
G01X4029961Y-5219695D02*
G01X4036057Y-5213599D01*
G01X4039105Y-5204201D01*
G01X4039105Y-5191755D01*
G01X4036057Y-5182611D01*
G01X4029961Y-5176515D01*
G01X4023611Y-5176515D01*
G01X4017515Y-5179563D01*
G01X4014467Y-5182611D01*
G01X4011419Y-5188707D01*
G01X4005069Y-5207249D01*
G01X4002021Y-5213599D01*
G01X3998973Y-5216647D01*
G01X3992623Y-5219695D01*
G01X3983479Y-5219695D01*
G01X3977129Y-5213599D01*
G01X3974081Y-5204201D01*
G01X3974081Y-5191755D01*
G01X3977129Y-5182611D01*
G01X3983479Y-5176515D01*
G01X4039105Y-5249921D02*
G01X3974081Y-5249921D01*
G01X4039105Y-5249921D02*
G01X4039105Y-5277607D01*
G01X4036057Y-5287005D01*
G01X4033009Y-5290053D01*
G01X4026659Y-5293101D01*
G01X4020563Y-5293101D01*
G01X4014467Y-5290053D01*
G01X4011419Y-5287005D01*
G01X4008117Y-5277607D01*
G01X4008117Y-5249921D02*
G01X4008117Y-5277607D01*
G01X4005069Y-5287005D01*
G01X4002021Y-5290053D01*
G01X3995925Y-5293101D01*
G01X3986527Y-5293101D01*
G01X3980431Y-5290053D01*
G01X3977129Y-5287005D01*
G01X3974081Y-5277607D01*
G01X3974081Y-5249921D01*
G01X4023611Y-5369555D02*
G01X4029961Y-5366507D01*
G01X4036057Y-5360411D01*
G01X4039105Y-5354061D01*
G01X4039105Y-5341869D01*
G01X4036057Y-5335519D01*
G01X4029961Y-5329423D01*
G01X4023611Y-5326375D01*
G01X4014467Y-5323327D01*
G01X3998973Y-5323327D01*
G01X3989575Y-5326375D01*
G01X3983479Y-5329423D01*
G01X3977129Y-5335519D01*
G01X3974081Y-5341869D01*
G01X3974081Y-5354061D01*
G01X3977129Y-5360411D01*
G01X3983479Y-5366507D01*
G01X3989575Y-5369555D01*
G01X4026659Y-5399781D02*
G01X4029961Y-5405877D01*
G01X4039105Y-5415021D01*
G01X3974081Y-5415021D01*
G01X7438253Y-4771887D02*
G01X7438253Y-4706863D01*
G01X7438253Y-4771887D02*
G01X7410313Y-4771887D01*
G01X7401169Y-4768839D01*
G01X7398121Y-4765791D01*
G01X7394819Y-4759441D01*
G01X7394819Y-4753345D01*
G01X7398121Y-4747249D01*
G01X7401169Y-4744201D01*
G01X7410313Y-4740899D01*
G01X7438253Y-4740899D01*
G01X7416663Y-4740899D02*
G01X7394819Y-4706863D01*
G01X7364593Y-4759441D02*
G01X7358497Y-4762743D01*
G01X7349353Y-4771887D01*
G01X7349353Y-4706863D01*
G01X7300585Y-4771887D02*
G01X7309983Y-4768839D01*
G01X7316079Y-4759441D01*
G01X7319127Y-4744201D01*
G01X7319127Y-4734803D01*
G01X7316079Y-4719309D01*
G01X7309983Y-4709911D01*
G01X7300585Y-4706863D01*
G01X7294489Y-4706863D01*
G01X7285091Y-4709911D01*
G01X7278995Y-4719309D01*
G01X7275947Y-4734803D01*
G01X7275947Y-4744201D01*
G01X7278995Y-4759441D01*
G01X7285091Y-4768839D01*
G01X7294489Y-4771887D01*
G01X7300585Y-4771887D01*
G04 Text End*

G04 PolygonModel Start*
G01X5122161Y-5538246D02*
G01X5172161Y-5538246D01*
G01X5106919Y-5622724D02*
G01X5106919Y-5553484D01*
G01X5172161Y-5637964D02*
G01X5122161Y-5637964D01*
G01X5266439Y-5637751D02*
G01X5216439Y-5637751D01*
G01X5216439Y-5538038D02*
G01X5266439Y-5538038D01*
G01X5281681Y-5553273D02*
G01X5281681Y-5622516D01*
G01X5266439Y-5538036D02*
G02X5281679Y-5553276I0J-15240D01*
G01X5281679Y-5622516D02*
G02X5266439Y-5637756I-15240J0D01*
G01X5122161Y-5637964D02*
G02X5106921Y-5622724I0J15240D01*
G01X5106921Y-5553484D02*
G02X5122161Y-5538244I15240J0D01*
G01X4912171Y-5070603D02*
G01X4962171Y-5070603D01*
G01X4896929Y-5155081D02*
G01X4896929Y-5085841D01*
G01X4962171Y-5170321D02*
G01X4912171Y-5170321D01*
G01X5056448Y-5170108D02*
G01X5006448Y-5170108D01*
G01X5006448Y-5070395D02*
G01X5056448Y-5070395D01*
G01X5071691Y-5085630D02*
G01X5071691Y-5154873D01*
G01X5056448Y-5070392D02*
G02X5071688Y-5085632I0J-15240D01*
G01X5071688Y-5154873D02*
G02X5056448Y-5170113I-15240J0D01*
G01X4912171Y-5170321D02*
G02X4896931Y-5155081I0J15240D01*
G01X4896931Y-5085841D02*
G02X4912171Y-5070601I15240J0D01*
G54D12*
G01X5037676Y-7416443D02*
G01X5117673Y-7416443D01*
G01X4981631Y-7416397D02*
G01X4901633Y-7416397D01*
G01X5037676Y-7558411D02*
G01X5117673Y-7558411D01*
G01X4981631Y-7558363D02*
G01X4901633Y-7558363D01*
G01X5148648Y-7447426D02*
G01X5148648Y-7527431D01*
G01X4870655Y-7527377D02*
G01X4870655Y-7447375D01*
G01X4901638Y-7558363D02*
G02X4870655Y-7527377I0J30983D01*
G01X4870655Y-7447380D02*
G02X4901638Y-7416397I30983J0D01*
G01X5117668Y-7416443D02*
G02X5148648Y-7447426I-3J-30983D01*
G01X5148648Y-7527423D02*
G02X5117668Y-7558411I-30983J-5D01*
G01X5037676Y-7072033D02*
G01X5117673Y-7072033D01*
G01X4981631Y-7071988D02*
G01X4901633Y-7071988D01*
G01X5037676Y-7214002D02*
G01X5117673Y-7214002D01*
G01X4981631Y-7213953D02*
G01X4901633Y-7213953D01*
G01X5148648Y-7103016D02*
G01X5148648Y-7183021D01*
G01X4870655Y-7182968D02*
G01X4870655Y-7102965D01*
G01X4901638Y-7213953D02*
G02X4870655Y-7182968I0J30983D01*
G01X4870655Y-7102971D02*
G02X4901638Y-7071988I30983J0D01*
G01X5117668Y-7072033D02*
G02X5148648Y-7103016I-3J-30983D01*
G01X5148648Y-7183014D02*
G02X5117668Y-7214002I-30983J-5D01*
G01X4947757Y-4447619D02*
G01X4947757Y-4527616D01*
G01X4947803Y-4391574D02*
G01X4947803Y-4311576D01*
G01X4805789Y-4447619D02*
G01X4805789Y-4527616D01*
G01X4805837Y-4391574D02*
G01X4805837Y-4311576D01*
G01X4916775Y-4558591D02*
G01X4836770Y-4558591D01*
G01X4836823Y-4280598D02*
G01X4916825Y-4280598D01*
G01X4805837Y-4311581D02*
G02X4836823Y-4280598I30983J0D01*
G01X4916820Y-4280598D02*
G02X4947803Y-4311581I0J-30983D01*
G01X4947757Y-4527611D02*
G02X4916775Y-4558591I-30983J3D01*
G01X4836777Y-4558591D02*
G02X4805789Y-4527611I-5J30983D01*
G54D10*
G01X6427246Y-5012439D02*
G01X6427246Y-4962439D01*
G01X6511724Y-5027681D02*
G01X6442484Y-5027681D01*
G01X6526964Y-4962439D02*
G01X6526964Y-5012439D01*
G01X6526751Y-4868161D02*
G01X6526751Y-4918161D01*
G01X6427038Y-4918161D02*
G01X6427038Y-4868161D01*
G01X6442273Y-4852919D02*
G01X6511516Y-4852919D01*
G01X6427036Y-4868161D02*
G02X6442276Y-4852921I15240J0D01*
G01X6511516Y-4852921D02*
G02X6526756Y-4868161I0J-15240D01*
G01X6526964Y-5012439D02*
G02X6511724Y-5027679I-15240J0D01*
G01X6442484Y-5027679D02*
G02X6427244Y-5012439I0J15240D01*
G01X4367340Y-7464280D02*
G01X4367340Y-7605281D01*
G01X4548061Y-7605281D02*
G01X4548061Y-7464280D01*
G01X4532821Y-7449040D02*
G01X4382580Y-7449040D01*
G01X4367340Y-7826520D02*
G01X4367340Y-7685519D01*
G01X4548061Y-7685519D02*
G01X4548061Y-7826520D01*
G01X4532821Y-7841760D02*
G01X4382580Y-7841760D01*
G01X4548061Y-7464280D02*
G03X4532821Y-7449040I-15240J0D01*
G01X4382580Y-7449040D02*
G03X4367340Y-7464280I0J-15240D01*
G01X4548061Y-7826520D02*
G02X4532821Y-7841760I-15240J0D01*
G01X4382580Y-7841760D02*
G02X4367340Y-7826520I0J15240D01*
G01X4021621Y-6558046D02*
G01X4021621Y-6417046D01*
G01X3840900Y-6417046D02*
G01X3840900Y-6558046D01*
G01X3856140Y-6573286D02*
G01X4006381Y-6573286D01*
G01X4021621Y-6195807D02*
G01X4021621Y-6336807D01*
G01X3840900Y-6336807D02*
G01X3840900Y-6195807D01*
G01X3856140Y-6180567D02*
G01X4006381Y-6180567D01*
G01X3840900Y-6558046D02*
G03X3856140Y-6573286I15240J0D01*
G01X4006381Y-6573286D02*
G03X4021621Y-6558046I0J15240D01*
G01X3840900Y-6195807D02*
G02X3856140Y-6180567I15240J0D01*
G01X4006381Y-6180567D02*
G02X4021621Y-6195807I0J-15240D01*
G54D12*
G01X6667500Y-4036314D02*
G01X6667500Y-3300817D01*
G01X5194300Y-3300379D02*
G01X5194300Y-4028349D01*
G01X6667500Y-3014274D02*
G01X6667500Y-2763495D01*
G01X6667500Y-2738095D02*
G01X5194300Y-2738097D01*
G01X5194300Y-2738097D02*
G01X5194300Y-3012827D01*
G01X6667500Y-2786631D02*
G01X6667500Y-2809098D01*
G01X6667500Y-2809098D02*
G01X5830900Y-2809098D01*
G01X5830900Y-2809098D02*
G01X5537200Y-2739390D01*
G01X6932214Y-3981099D02*
G01X6932214Y-3461101D01*
G01X6932214Y-3461101D02*
G01X7692812Y-3461060D01*
G01X7701885Y-3981099D02*
G01X6932214Y-3981099D01*
G01X6997713Y-3924300D02*
G01X6997713Y-3530600D01*
G01X6997713Y-3530600D02*
G01X7785113Y-3530600D01*
G01X7785113Y-3530600D02*
G01X7886713Y-3632200D01*
G01X7886713Y-3632200D02*
G01X7886713Y-3822700D01*
G01X7886713Y-3822700D02*
G01X7785113Y-3924300D01*
G01X7785113Y-3924300D02*
G01X6997713Y-3924300D01*
G01X7701885Y-3981099D02*
G03X7692812Y-3461060I-5282J260007D01*
G54D13*
G01X6184278Y-8006829D02*
G01X5804294Y-8006829D01*
G01X6294514Y-7816837D02*
G01X6294514Y-7716761D01*
G01X6294514Y-7716761D02*
G01X6204344Y-7716761D01*
G01X6244476Y-7716761D02*
G01X6244476Y-7816837D01*
G01X6244476Y-7816837D02*
G01X6244476Y-7716761D01*
G01X6244476Y-7776705D02*
G01X6294514Y-7776705D01*
G01X6294514Y-7776705D02*
G01X6244476Y-7776705D01*
G01X5694312Y-7816837D02*
G01X5694312Y-7716761D01*
G01X5694312Y-7716761D02*
G01X5784482Y-7716761D01*
G01X5744350Y-7716761D02*
G01X5744350Y-7816837D01*
G01X5744350Y-7816837D02*
G01X5744350Y-7716761D01*
G01X5744350Y-7776705D02*
G01X5694312Y-7776705D01*
G01X5694312Y-7776705D02*
G01X5744350Y-7776705D01*
G01X6184278Y-7916659D02*
G01X6184278Y-7966697D01*
G01X6184278Y-7966697D02*
G01X5804294Y-7966697D01*
G01X5804294Y-7966697D02*
G01X5804294Y-7916659D01*
G01X6184278Y-7856715D02*
G01X6184278Y-7791691D01*
G01X6184278Y-7791691D02*
G01X5804294Y-7791691D01*
G01X5804294Y-7791691D02*
G01X5804294Y-7856715D01*
G01X6144400Y-7916659D02*
G01X6144400Y-7896847D01*
G01X6044324Y-7916659D02*
G01X6044324Y-7896847D01*
G01X5944502Y-7916659D02*
G01X5944502Y-7896847D01*
G01X5844426Y-7916659D02*
G01X5844426Y-7896847D01*
G01X6219398Y-7651750D02*
G03X6269394Y-7652343I25001J-19D01*
G03X6219424Y-7650643I-24995J573D01*
G54D10*
G01X4439618Y-6989677D02*
G01X4439618Y-7269920D01*
G01X4197777Y-6989677D02*
G01X4743023Y-6989677D01*
G01X4197777Y-7269920D02*
G01X4743023Y-7269920D01*
G01X4743023Y-6989677D02*
G01X4743023Y-7029829D01*
G01X4743023Y-7269920D02*
G01X4743023Y-7229768D01*
G36*
G01X4205399Y-6982060D02*
G01X4205399Y-7034909D01*
G01X4159679Y-7034909D01*
G01X4159679Y-6982060D01*
G01X4205399Y-6982060D01*
G37*
G36*
G01X4205399Y-7277538D02*
G01X4159679Y-7277538D01*
G01X4159679Y-7224688D01*
G01X4205399Y-7224688D01*
G01X4205399Y-7277538D01*
G37*
G54D12*
G01X4521200Y-3289300D02*
G01X4521200Y-6845300D01*
G01X4521200Y-6845300D02*
G01X4267200Y-6845300D01*
G01X4267200Y-3289300D02*
G01X4267200Y-6845300D01*
G01X4521200Y-3289300D02*
G01X4267200Y-3289300D01*
G01X6501521Y-6685677D02*
G01X6555292Y-6685677D01*
G01X6501521Y-6525678D02*
G01X6555292Y-6525678D01*
G54D10*
G01X6625160Y-4698217D02*
G01X6609925Y-4713627D01*
G01X6609925Y-4713627D02*
G01X6508282Y-4713627D01*
G01X6508282Y-4713627D02*
G01X6495026Y-4698217D01*
G01X6495026Y-4444217D02*
G01X6510126Y-4428802D01*
G01X6510126Y-4428802D02*
G01X6611769Y-4428802D01*
G01X6611769Y-4428802D02*
G01X6625025Y-4444217D01*
G54D14*
G01X6495026Y-4698418D02*
G01X6495026Y-4622218D01*
G01X6625025Y-4444011D02*
G01X6625025Y-4520211D01*
G01X6625025Y-4698418D02*
G01X6625025Y-4622218D01*
G01X6495026Y-4444011D02*
G01X6495026Y-4520211D01*
G54D10*
G01X4825060Y-6398021D02*
G01X4825060Y-6469824D01*
G01X4825060Y-6469824D02*
G01X4725340Y-6469824D01*
G01X4725340Y-6469824D02*
G01X4725340Y-6398021D01*
G01X4825060Y-6352779D02*
G01X4825060Y-6280975D01*
G01X4825060Y-6280975D02*
G01X4725340Y-6280975D01*
G01X4725340Y-6280975D02*
G01X4725340Y-6352779D01*
G01X6061686Y-5317062D02*
G01X6061686Y-5245259D01*
G01X6061686Y-5245259D02*
G01X6161406Y-5245259D01*
G01X6161406Y-5245259D02*
G01X6161406Y-5317062D01*
G01X6061686Y-5362305D02*
G01X6061686Y-5434108D01*
G01X6061686Y-5434108D02*
G01X6161406Y-5434108D01*
G01X6161406Y-5434108D02*
G01X6161406Y-5362305D01*
G01X6708908Y-5314592D02*
G01X6708908Y-5242789D01*
G01X6708908Y-5242789D02*
G01X6808628Y-5242789D01*
G01X6808628Y-5242789D02*
G01X6808628Y-5314592D01*
G01X6708908Y-5359834D02*
G01X6708908Y-5431638D01*
G01X6708908Y-5431638D02*
G01X6808628Y-5431638D01*
G01X6808628Y-5431638D02*
G01X6808628Y-5359834D01*
G01X6403321Y-5316644D02*
G01X6403321Y-5244840D01*
G01X6403321Y-5244840D02*
G01X6503042Y-5244840D01*
G01X6503042Y-5244840D02*
G01X6503042Y-5316644D01*
G01X6403321Y-5361886D02*
G01X6403321Y-5433689D01*
G01X6403321Y-5433689D02*
G01X6503042Y-5433689D01*
G01X6503042Y-5433689D02*
G01X6503042Y-5361886D01*
G01X6736465Y-4536554D02*
G01X6736465Y-4464751D01*
G01X6736465Y-4464751D02*
G01X6836185Y-4464751D01*
G01X6836185Y-4464751D02*
G01X6836185Y-4536554D01*
G01X6736465Y-4581796D02*
G01X6736465Y-4653600D01*
G01X6736465Y-4653600D02*
G01X6836185Y-4653600D01*
G01X6836185Y-4653600D02*
G01X6836185Y-4581796D01*
G01X5922126Y-5317062D02*
G01X5922126Y-5245259D01*
G01X5922126Y-5245259D02*
G01X6021846Y-5245259D01*
G01X6021846Y-5245259D02*
G01X6021846Y-5317062D01*
G01X5922126Y-5362305D02*
G01X5922126Y-5434108D01*
G01X5922126Y-5434108D02*
G01X6021846Y-5434108D01*
G01X6021846Y-5434108D02*
G01X6021846Y-5362305D01*
G01X4001440Y-7470379D02*
G01X4001440Y-7398575D01*
G01X4001440Y-7398575D02*
G01X4101160Y-7398575D01*
G01X4101160Y-7398575D02*
G01X4101160Y-7470379D01*
G01X4001440Y-7515621D02*
G01X4001440Y-7587424D01*
G01X4001440Y-7587424D02*
G01X4101160Y-7587424D01*
G01X4101160Y-7587424D02*
G01X4101160Y-7515621D01*
G01X6326366Y-5362305D02*
G01X6326366Y-5434108D01*
G01X6326366Y-5434108D02*
G01X6226645Y-5434108D01*
G01X6226645Y-5434108D02*
G01X6226645Y-5362305D01*
G01X6326366Y-5317062D02*
G01X6326366Y-5245259D01*
G01X6326366Y-5245259D02*
G01X6226645Y-5245259D01*
G01X6226645Y-5245259D02*
G01X6226645Y-5317062D01*
G01X7357723Y-6397295D02*
G01X7357723Y-6325492D01*
G01X7357723Y-6325492D02*
G01X7457444Y-6325492D01*
G01X7457444Y-6325492D02*
G01X7457444Y-6397295D01*
G01X7357723Y-6442538D02*
G01X7357723Y-6514341D01*
G01X7357723Y-6514341D02*
G01X7457444Y-6514341D01*
G01X7457444Y-6514341D02*
G01X7457444Y-6442538D01*
G01X5918746Y-5888763D02*
G01X6019927Y-5888763D01*
G01X6019927Y-5888763D02*
G01X6019927Y-5989944D01*
G01X5918746Y-6904001D02*
G01X6019927Y-6904001D01*
G01X6019927Y-6904001D02*
G01X6019927Y-6802820D01*
G01X5105870Y-6904001D02*
G01X5004689Y-6904001D01*
G01X5004689Y-6904001D02*
G01X5004689Y-6802820D01*
G01X5105870Y-5888763D02*
G01X5004689Y-5888763D01*
G01X5004689Y-5888763D02*
G01X5004689Y-5989944D01*
G54D12*
G01X6459190Y-5744789D02*
G01X6875793Y-5744789D01*
G01X6459149Y-6294788D02*
G01X6875790Y-6294788D01*
G01X6459190Y-5744789D02*
G01X6459190Y-6294788D01*
G01X6875790Y-6294788D02*
G01X6875790Y-5744789D01*
G54D10*
G01X6253615Y-6992470D02*
G01X5938370Y-6992470D01*
G01X6253615Y-7307715D02*
G01X5938370Y-7307715D01*
G54D15*
G01X6178550Y-7258050D02*
G01X6013450Y-7258050D01*
G01X6013450Y-7042150D01*
G01X6178550Y-7042150D01*
G01X6178550Y-7258050D01*
G54D10*
G01X7030580Y-5771340D02*
G01X7030580Y-5557060D01*
G01X7030580Y-5557060D02*
G01X7345820Y-5557060D01*
G01X7345820Y-5557060D02*
G01X7345820Y-5771340D01*
G01X7345820Y-5771340D02*
G01X7030580Y-5771340D01*
G54D16*
G01X5295900Y-8026400D02*
G01X5359400Y-8026400D01*
G01X5359400Y-8026400D02*
G01X5359400Y-8003812D01*
G01X5130800Y-8001000D02*
G01X5130800Y-8026400D01*
G01X5130800Y-8026400D02*
G01X5194300Y-8026400D01*
G01X5295900Y-7772400D02*
G01X5359400Y-7772400D01*
G01X5359400Y-7772400D02*
G01X5359400Y-7797800D01*
G01X5130800Y-7797800D02*
G01X5130800Y-7772400D01*
G01X5130800Y-7772400D02*
G01X5194300Y-7772400D01*
G54D12*
G01X7033894Y-6975060D02*
G01X7033894Y-6795058D01*
G01X7343896Y-6975060D02*
G01X7343896Y-6795058D01*
G01X5623017Y-5185827D02*
G01X5623022Y-5046129D01*
G01X5330922Y-5158222D02*
G01X5330922Y-5073744D01*
G01X5508717Y-5204879D02*
G01X5432522Y-5204879D01*
G01X7892100Y-7546589D02*
G01X7892100Y-7594529D01*
G01X7892100Y-7594529D02*
G01X7897063Y-7594529D01*
G01X7952097Y-7546589D02*
G01X7952097Y-7594529D01*
G01X7952097Y-7594529D02*
G01X7951671Y-7594529D01*
G01X7888171Y-6589989D02*
G01X7888171Y-6636591D01*
G01X7888171Y-6636591D02*
G01X7892100Y-6636591D01*
G01X7945321Y-6589989D02*
G01X7945321Y-6636591D01*
G01X7945321Y-6636591D02*
G01X7942102Y-6636591D01*
G01X7571743Y-6589989D02*
G01X7571743Y-7583188D01*
G01X8105143Y-6756385D02*
G01X8155943Y-6756385D01*
G01X8105143Y-6908785D02*
G01X8155943Y-6908785D01*
G01X8105143Y-7416853D02*
G01X8133085Y-7416853D01*
G01X8133085Y-7416853D02*
G01X8155943Y-7416853D01*
G01X8105143Y-7264385D02*
G01X8155943Y-7264385D01*
G01X8155943Y-7583188D02*
G01X8155943Y-6589989D01*
G01X7571743Y-7594529D02*
G01X8155943Y-7594529D01*
G01X8155943Y-6589989D02*
G01X7571743Y-6589989D01*
G01X7843200Y-5445511D02*
G01X7843200Y-5397571D01*
G01X7843200Y-5397571D02*
G01X7838237Y-5397571D01*
G01X7783203Y-5445511D02*
G01X7783203Y-5397571D01*
G01X7783203Y-5397571D02*
G01X7783629Y-5397571D01*
G01X7847129Y-6402111D02*
G01X7847129Y-6355509D01*
G01X7847129Y-6355509D02*
G01X7843200Y-6355509D01*
G01X7789979Y-6402111D02*
G01X7789979Y-6355509D01*
G01X7789979Y-6355509D02*
G01X7793198Y-6355509D01*
G01X8163557Y-6402111D02*
G01X8163557Y-5408912D01*
G01X7630157Y-6235715D02*
G01X7579357Y-6235715D01*
G01X7630157Y-6083315D02*
G01X7579357Y-6083315D01*
G01X7630157Y-5575247D02*
G01X7602215Y-5575247D01*
G01X7602215Y-5575247D02*
G01X7579357Y-5575247D01*
G01X7630157Y-5727715D02*
G01X7579357Y-5727715D01*
G01X7579357Y-5408912D02*
G01X7579357Y-6402111D01*
G01X8163557Y-5397571D02*
G01X7579357Y-5397571D01*
G01X7579357Y-6402111D02*
G01X8163557Y-6402111D01*
G01X8503600Y-5432811D02*
G01X8503600Y-5384871D01*
G01X8503600Y-5384871D02*
G01X8498637Y-5384871D01*
G01X8443603Y-5432811D02*
G01X8443603Y-5384871D01*
G01X8443603Y-5384871D02*
G01X8444029Y-5384871D01*
G01X8507529Y-6389411D02*
G01X8507529Y-6342809D01*
G01X8507529Y-6342809D02*
G01X8503600Y-6342809D01*
G01X8450379Y-6389411D02*
G01X8450379Y-6342809D01*
G01X8450379Y-6342809D02*
G01X8453598Y-6342809D01*
G01X8823957Y-6389411D02*
G01X8823957Y-5396212D01*
G01X8290557Y-6223015D02*
G01X8239757Y-6223015D01*
G01X8290557Y-6070615D02*
G01X8239757Y-6070615D01*
G01X8290557Y-5562547D02*
G01X8262615Y-5562547D01*
G01X8262615Y-5562547D02*
G01X8239757Y-5562547D01*
G01X8290557Y-5715015D02*
G01X8239757Y-5715015D01*
G01X8239757Y-5396212D02*
G01X8239757Y-6389411D01*
G01X8823957Y-5384871D02*
G01X8239757Y-5384871D01*
G01X8239757Y-6389411D02*
G01X8823957Y-6389411D01*
G01X7079300Y-8156189D02*
G01X7079300Y-8204129D01*
G01X7079300Y-8204129D02*
G01X7084263Y-8204129D01*
G01X7139297Y-8156189D02*
G01X7139297Y-8204129D01*
G01X7139297Y-8204129D02*
G01X7138871Y-8204129D01*
G01X7075371Y-7199589D02*
G01X7075371Y-7246191D01*
G01X7075371Y-7246191D02*
G01X7079300Y-7246191D01*
G01X7132521Y-7199589D02*
G01X7132521Y-7246191D01*
G01X7132521Y-7246191D02*
G01X7129302Y-7246191D01*
G01X6758943Y-7199589D02*
G01X6758943Y-8192788D01*
G01X7292343Y-7365985D02*
G01X7343143Y-7365985D01*
G01X7292343Y-7518385D02*
G01X7343143Y-7518385D01*
G01X7292343Y-8026453D02*
G01X7320285Y-8026453D01*
G01X7320285Y-8026453D02*
G01X7343143Y-8026453D01*
G01X7292343Y-7873985D02*
G01X7343143Y-7873985D01*
G01X7343143Y-8192788D02*
G01X7343143Y-7199589D01*
G01X6758943Y-8204129D02*
G01X7343143Y-8204129D01*
G01X7343143Y-7199589D02*
G01X6758943Y-7199589D01*
G54D10*
G01X6093963Y-4866120D02*
G01X5758241Y-4866120D01*
G01X5758241Y-4866120D02*
G01X5758241Y-4460401D01*
G01X5758241Y-4460401D02*
G01X6093963Y-4460401D01*
G01X6093963Y-4460401D02*
G01X6093963Y-4866120D01*
G01X5951104Y-4888980D02*
G01X6116823Y-4888980D01*
G01X6116823Y-4888980D02*
G01X6116823Y-4703260D01*
G54D15*
G01X7869499Y-4572000D02*
G01X7772400Y-4572000D01*
G01X7772400Y-4597400D01*
G01X8001000Y-4606051D02*
G01X8001000Y-4572000D01*
G01X7903901Y-4572000D01*
G54D12*
G01X8001000Y-4864100D02*
G01X7772400Y-4864100D01*
G01X7772400Y-4597400D01*
G01X8001000Y-4597400D01*
G01X8001000Y-4864100D01*
G01X3521242Y-5141102D02*
G01X3646897Y-5141102D01*
G01X3110090Y-6035101D02*
G01X3110090Y-5141102D01*
G01X3241075Y-5141102D01*
G01X3517411Y-6035101D02*
G01X3648430Y-6035101D01*
G01X3110090Y-6035101D02*
G01X3242134Y-6035101D01*
G54D10*
G01X6861881Y-4808141D02*
G01X6718386Y-4808141D01*
G01X6718386Y-4808141D02*
G01X6718386Y-5199459D01*
G01X6718386Y-5199459D02*
G01X6861881Y-5199459D01*
G01X7362119Y-4808141D02*
G01X7505614Y-4808141D01*
G01X7505614Y-4808141D02*
G01X7505614Y-5199459D01*
G01X7505614Y-5199459D02*
G01X7362119Y-5199459D01*

G04 Rect Start*
G54D12*
G01X7622540Y-6642113D02*
G01X8105140Y-6642113D01*
G01X8105140Y-7543813D01*
G01X7622540Y-7543813D01*
G01X7622540Y-6642113D01*
G01X8112760Y-6349987D02*
G01X7630160Y-6349987D01*
G01X7630160Y-5448287D01*
G01X8112760Y-5448287D01*
G01X8112760Y-6349987D01*
G01X8773160Y-6337287D02*
G01X8290560Y-6337287D01*
G01X8290560Y-5435587D01*
G01X8773160Y-5435587D01*
G01X8773160Y-6337287D01*
G01X6809740Y-7251713D02*
G01X7292340Y-7251713D01*
G01X7292340Y-8153413D01*
G01X6809740Y-8153413D01*
G01X6809740Y-7251713D01*
G01X7683500Y-4273563D02*
G01X8089900Y-4273563D01*
G01X8089900Y-5175263D01*
G01X7683500Y-5175263D01*
G01X7683500Y-4273563D01*
G04 Rect End*

G04 Circle Start*
G01X6618406Y-6470278D02*
G03X6643806Y-6470278I12700J0D01*
G03X6618406Y-6470278I-12700J0D01*
G54D18*
G01X5889828Y-5852314D02*
G03X5894807Y-5852314I2489J0D01*
G03X5889828Y-5852314I-2489J0D01*
G54D19*
G01X6401194Y-6266787D02*
G03X6421209Y-6266787I10008J0D01*
G03X6401194Y-6266787I-10008J0D01*
G01X5863184Y-7270191D02*
G03X5883199Y-7270191I10008J0D01*
G03X5863184Y-7270191I-10008J0D01*
G54D14*
G01X6108700Y-7086600D02*
G03X6159500Y-7086600I25400J0D01*
G03X6108700Y-7086600I-25400J0D01*
G54D20*
G01X7073189Y-5696102D02*
G03X7103212Y-5696102I15011J0D01*
G03X7073189Y-5696102I-15011J0D01*
G01X7013956Y-5875198D02*
G03X7043979Y-5875198I15011J0D01*
G03X7013956Y-5875198I-15011J0D01*
G54D15*
G01X5383352Y-7974406D02*
G03X5398338Y-7974406I7493J0D01*
G03X5383352Y-7974406I-7493J0D01*
G54D12*
G01X7341285Y-6745361D02*
G03X7366685Y-6745361I12700J0D01*
G03X7341285Y-6745361I-12700J0D01*
G54D20*
G01X5551630Y-4914986D02*
G03X5581653Y-4914986I15011J0D01*
G03X5551630Y-4914986I-15011J0D01*
G04 Circle End*

M02*

