G04 Layer: TopSolderMaskLayer*
G04 EasyEDA Pro v3.2.148, 2026-08-09 17:13:05*
G04 Gerber Generator version 0.3*
G04 Scale: 100 percent, Rotated: No, Reflected: No*
G04 Dimensions in millimeters*
G04 Leading zeros omitted, absolute positions, 4 integers and 5 decimals*
G04 Generated by one-click*
G04 Object Configs: Pad,Via,Track,Text,Image,Dimension,BoardOutline,BoardCutout,CopperFilled,SolidRegion,FPCStiffener,Line,PlaneZone,ComponentProperty,ComponentSilkscreen,TearDrop*
G04 Layer Configs: 1,2,3,4,5,6,7,8,9,10,11,13,14,56*
G04 Copper Areas: 0*
%FSLAX45Y45*%
%MOMM*%
%AMRoundRect*1,1,$1,$2,$3*1,1,$1,$4,$5*1,1,$1,0-$2,0-$3*1,1,$1,0-$4,0-$5*20,1,$1,$2,$3,$4,$5,0*20,1,$1,$4,$5,0-$2,0-$3,0*20,1,$1,0-$2,0-$3,0-$4,0-$5,0*20,1,$1,0-$4,0-$5,$2,$3,0*4,1,4,$2,$3,$4,$5,0-$2,0-$3,0-$4,0-$5,$2,$3,0*%
%AMPolygonMacro1*4,1,8,-0.64994,-0.00001,-0.65009,-0.00001,-0.65009,0.29999,0.64994,0.29999,0.64994,0.00001,0.65009,0.00001,0.65009,-0.29999,-0.64994,-0.29999,-0.64994,-0.00001,0*%
%AMPolygonMacro2*4,1,8,0.64999,0.00001,0.64999,-0.00001,0.64999,-0.30001,-0.64999,-0.30001,-0.64999,-0.00001,-0.64999,0.00001,-0.64999,0.30001,0.64999,0.30001,0.64999,0.00001,0*%
%AMPolygonMacro3*4,1,8,-0.64999,-0.00001,-0.64999,0.00001,-0.64999,0.30001,0.64999,0.30001,0.64999,0.00001,0.64999,-0.00001,0.64999,-0.30001,-0.64999,-0.30001,-0.64999,-0.00001,0*%
%AMPolygonMacro4*4,1,8,-0.64997,-0.00004,-0.65,-0.00004,-0.65,0.29999,0.64997,0.29999,0.64997,0.00004,0.65,0.00004,0.65,-0.29999,-0.64997,-0.29999,-0.64997,-0.00004,0*%
%ADD10C,3.4*%
%ADD11R,0.5X0.54*%
%ADD12R,0.8X0.9*%
%ADD13R,0.9X0.8*%
%ADD14R,0.54X0.5*%
%ADD15RoundRect,0.1016X-0.675X-0.705X-0.675X0.705*%
%ADD16R,0.6067X1.3*%
%ADD17R,0.6X1.3*%
%ADD18R,1.2X1.4*%
%ADD19R,1.2X2.0*%
%ADD20C,2.49999*%
%ADD21R,0.6X1.55001*%
%ADD22R,1.2X1.8*%
%ADD23R,1.8X1.7*%
%ADD24C,1.6*%
%ADD25R,1.6X1.6*%
%ADD26R,1.0X1.6*%
%ADD27RoundRect,0.1016X-0.432X-0.4X-0.432X0.4*%
%ADD28RoundRect,0.1016X-0.27X-0.28283X-0.27X0.28283*%
%ADD29R,0.21999X0.665*%
%ADD30R,0.665X0.21999*%
%ADD31R,3.39999X3.39999*%
%ADD32R,0.5X0.25001*%
%ADD33R,0.25001X0.5*%
%ADD34O,0.9X0.44801*%
%ADD35O,0.28001X1.62001*%
%ADD36R,0.28001X0.5*%
%ADD37R,0.5X0.28001*%
%ADD38RoundRect,0.10201X-0.3X-0.55X-0.3X0.55*%
%ADD39RoundRect,0.10003X-0.3X0.5X0.3X0.5*%
%ADD40C,1.55001*%
%ADD41C,1.62403*%
%ADD42R,1.3X0.3*%
%ADD43PolygonMacro1*%
%ADD44PolygonMacro2*%
%ADD45PolygonMacro3*%
%ADD46PolygonMacro4*%
%ADD47O,1.9016X1.3016*%
%ADD48O,2.1016X1.3016*%
%ADD49RoundRect,0.1016X-0.64126X1.728X0.64126X1.728*%
G75*


G04 Pad Start*
G54D10*
G01X3657600Y-4089400D03*
G01X8356619Y-4088248D03*
G01X8381344Y-6934592D03*
G01X3567817Y-6926457D03*
G54D11*
G01X5236312Y-5588000D03*
G01X5152288Y-5588000D03*
G01X5026321Y-5120357D03*
G01X4942298Y-5120357D03*
G54D12*
G01X4939655Y-7487400D03*
G01X5079659Y-7487400D03*
G01X4939655Y-7142991D03*
G01X5079659Y-7142991D03*
G54D13*
G01X4876800Y-4349598D03*
G01X4876800Y-4489602D03*
G54D14*
G01X6477000Y-4898288D03*
G01X6477000Y-4982312D03*
G54D15*
G01X4457700Y-7545400D03*
G01X4457700Y-7745400D03*
G01X3931261Y-6476926D03*
G01X3931261Y-6276927D03*
G54D17*
G01X5706900Y-4223309D03*
G01X5816905Y-4223309D03*
G01X5926910Y-4223309D03*
G01X6036915Y-4223309D03*
G01X6146897Y-4223309D03*
G01X6256901Y-4223309D03*
G01X6366906Y-4223309D03*
G01X6476888Y-4223309D03*
G01X6586898Y-4223268D03*
G54D18*
G01X6706898Y-4138270D03*
G01X5238900Y-4138270D03*
G54D19*
G01X5154905Y-3168091D03*
G01X6706898Y-3168091D03*
G54D20*
G01X7692200Y-3721100D03*
G01X7192201Y-3721100D03*
G54D21*
G01X6144400Y-7684249D03*
G01X6044400Y-7684249D03*
G01X5944400Y-7684249D03*
G01X5844400Y-7684249D03*
G54D22*
G01X6274397Y-7936751D03*
G01X5714403Y-7936751D03*
G54D23*
G01X4689653Y-7129799D03*
G01X4251147Y-7129799D03*
G54D24*
G01X4394200Y-6718300D03*
G01X4394200Y-6464300D03*
G01X4394200Y-6210300D03*
G01X4394200Y-5956300D03*
G01X4394200Y-5702300D03*
G01X4394200Y-5448300D03*
G01X4394200Y-5194300D03*
G01X4394200Y-4940300D03*
G01X4394200Y-4686300D03*
G01X4394200Y-4432300D03*
G01X4394200Y-4178300D03*
G01X4394200Y-3924300D03*
G01X4394200Y-3670300D03*
G54D25*
G01X4394200Y-3416300D03*
G54D26*
G01X6628406Y-6605677D03*
G01X6428407Y-6605677D03*
G54D27*
G01X6560024Y-4641207D03*
G01X6560024Y-4501227D03*
G54D28*
G01X4775200Y-6332118D03*
G01X4775200Y-6418682D03*
G01X6111546Y-5382965D03*
G01X6111546Y-5296402D03*
G01X6758768Y-5380495D03*
G01X6758768Y-5293931D03*
G01X6453181Y-5382547D03*
G01X6453181Y-5295983D03*
G01X6786325Y-4602457D03*
G01X6786325Y-4515893D03*
G01X5971986Y-5382965D03*
G01X5971986Y-5296402D03*
G01X4051300Y-7536282D03*
G01X4051300Y-7449718D03*
G01X6276506Y-5296402D03*
G01X6276506Y-5382965D03*
G01X7407584Y-6463198D03*
G01X7407584Y-6376635D03*
G54D29*
G01X5892317Y-5905629D03*
G01X5852312Y-5905629D03*
G01X5812307Y-5905629D03*
G01X5772302Y-5905629D03*
G01X5732297Y-5905629D03*
G01X5692318Y-5905629D03*
G01X5652313Y-5905629D03*
G01X5612308Y-5905629D03*
G01X5572303Y-5905629D03*
G01X5532298Y-5905629D03*
G01X5492318Y-5905629D03*
G01X5452313Y-5905629D03*
G01X5412308Y-5905629D03*
G01X5372303Y-5905629D03*
G01X5332298Y-5905629D03*
G01X5292319Y-5905629D03*
G01X5252314Y-5905629D03*
G01X5212309Y-5905629D03*
G01X5172304Y-5905629D03*
G01X5132299Y-5905629D03*
G54D30*
G01X5021555Y-6016373D03*
G01X5021555Y-6056378D03*
G01X5021555Y-6096383D03*
G01X5021555Y-6136388D03*
G01X5021555Y-6176393D03*
G01X5021555Y-6216372D03*
G01X5021555Y-6256377D03*
G01X5021555Y-6296382D03*
G01X5021555Y-6336387D03*
G01X5021555Y-6376392D03*
G01X5021555Y-6416372D03*
G01X5021555Y-6456377D03*
G01X5021555Y-6496382D03*
G01X5021555Y-6536387D03*
G01X5021555Y-6576392D03*
G01X5021555Y-6616372D03*
G01X5021555Y-6656377D03*
G01X5021555Y-6696382D03*
G01X5021555Y-6736387D03*
G01X5021555Y-6776392D03*
G54D29*
G01X5132299Y-6887136D03*
G01X5172304Y-6887136D03*
G01X5212309Y-6887136D03*
G01X5252314Y-6887136D03*
G01X5292319Y-6887136D03*
G01X5332298Y-6887136D03*
G01X5372303Y-6887136D03*
G01X5412308Y-6887136D03*
G01X5452313Y-6887136D03*
G01X5492318Y-6887136D03*
G01X5532298Y-6887136D03*
G01X5572303Y-6887136D03*
G01X5612308Y-6887136D03*
G01X5652313Y-6887136D03*
G01X5692318Y-6887136D03*
G01X5732297Y-6887136D03*
G01X5772302Y-6887136D03*
G01X5812307Y-6887136D03*
G01X5852312Y-6887136D03*
G01X5892317Y-6887136D03*
G54D30*
G01X6003061Y-6776392D03*
G01X6003061Y-6736387D03*
G01X6003061Y-6696382D03*
G01X6003061Y-6656377D03*
G01X6003061Y-6616372D03*
G01X6003061Y-6576392D03*
G01X6003061Y-6536387D03*
G01X6003061Y-6496382D03*
G01X6003061Y-6456377D03*
G01X6003061Y-6416372D03*
G01X6003061Y-6376392D03*
G01X6003061Y-6336387D03*
G01X6003061Y-6296382D03*
G01X6003061Y-6256377D03*
G01X6003061Y-6216372D03*
G01X6003061Y-6176393D03*
G01X6003061Y-6136388D03*
G01X6003061Y-6096383D03*
G01X6003061Y-6056378D03*
G01X6003061Y-6016373D03*
G54D31*
G01X5512308Y-6396382D03*
G54D32*
G01X6511201Y-6244780D03*
G54D33*
G01X6592507Y-6244780D03*
G01X6642494Y-6244780D03*
G01X6692506Y-6244780D03*
G01X6742494Y-6244780D03*
G54D32*
G01X6823799Y-6244806D03*
G01X6823799Y-6194793D03*
G01X6823799Y-6144781D03*
G01X6823799Y-6094793D03*
G01X6823799Y-6044781D03*
G01X6823799Y-5994794D03*
G01X6823799Y-5944781D03*
G01X6823799Y-5894794D03*
G01X6823799Y-5844781D03*
G01X6823799Y-5794794D03*
G54D33*
G01X6742494Y-5794794D03*
G01X6692481Y-5794794D03*
G01X6642494Y-5794794D03*
G01X6592481Y-5794794D03*
G54D32*
G01X6511201Y-5794794D03*
G01X6511201Y-5844781D03*
G01X6511201Y-5894794D03*
G01X6511201Y-5944781D03*
G01X6511201Y-5994794D03*
G01X6511201Y-6044781D03*
G01X6511201Y-6094793D03*
G01X6511201Y-6144781D03*
G01X6511201Y-6194793D03*
G54D34*
G01X6236005Y-7270090D03*
G01X6236005Y-7190105D03*
G01X6236005Y-7110095D03*
G01X6236005Y-7030110D03*
G01X5955995Y-7030110D03*
G01X5955995Y-7110095D03*
G01X5955995Y-7190105D03*
G01X5955995Y-7270090D03*
G54D35*
G01X7088200Y-5875198D03*
G01X7138213Y-5875198D03*
G01X7188200Y-5875198D03*
G01X7238213Y-5875198D03*
G01X7288200Y-5875198D03*
G01X7088200Y-5453202D03*
G01X7138213Y-5453202D03*
G01X7188200Y-5453202D03*
G01X7238213Y-5453202D03*
G01X7288200Y-5453202D03*
G54D36*
G01X5270094Y-7986903D03*
G01X5220106Y-7986903D03*
G54D37*
G01X5157597Y-7974406D03*
G01X5157597Y-7924394D03*
G01X5157597Y-7874406D03*
G01X5157597Y-7824394D03*
G54D36*
G01X5220106Y-7811897D03*
G01X5270094Y-7811897D03*
G54D37*
G01X5332603Y-7824394D03*
G01X5332603Y-7874406D03*
G01X5332603Y-7924394D03*
G01X5332603Y-7974406D03*
G54D38*
G01X7093889Y-6750060D03*
G01X7188885Y-6750060D03*
G01X7283881Y-6750060D03*
G01X7283881Y-7020062D03*
G01X7188885Y-7020062D03*
G01X7093889Y-7020062D03*
G54D39*
G01X5470632Y-5005977D03*
G01X5375636Y-5005977D03*
G01X5565603Y-5005977D03*
G01X5375611Y-5225992D03*
G01X5565628Y-5225992D03*
G54D40*
G01X7912100Y-6836600D03*
G01X7912100Y-7086613D03*
G01X7912100Y-7336599D03*
G01X7823200Y-6155499D03*
G01X7823200Y-5905487D03*
G01X7823200Y-5655500D03*
G01X8483600Y-6142799D03*
G01X8483600Y-5892787D03*
G01X8483600Y-5642800D03*
G01X7099300Y-7446200D03*
G01X7099300Y-7696213D03*
G01X7099300Y-7946199D03*
G54D18*
G01X6011116Y-4773268D03*
G01X6011116Y-4553253D03*
G01X5841114Y-4553253D03*
G01X5841114Y-4773268D03*
G54D41*
G01X7886700Y-4474400D03*
G01X7886700Y-4724413D03*
G01X7886700Y-4974399D03*
G54D42*
G01X3866909Y-5412994D03*
G01X3866909Y-5463007D03*
G01X3866909Y-5512994D03*
G01X3866909Y-5563006D03*
G01X3866909Y-5612994D03*
G01X3866909Y-5663006D03*
G01X3866909Y-5712968D03*
G01X3866909Y-5763006D03*
G54D43*
G01X3866909Y-5268004D03*
G54D44*
G01X3866919Y-5908001D03*
G54D45*
G01X3866919Y-5828016D03*
G54D46*
G01X3866902Y-5348004D03*
G54D47*
G01X3372091Y-6020511D03*
G54D48*
G01X3790074Y-6020511D03*
G01X3790074Y-5155489D03*
G54D47*
G01X3372091Y-5155489D03*
G54D49*
G01X6805371Y-5003800D03*
G01X7418629Y-5003800D03*
G04 Pad End*

M02*

