G04 Layer: DrillDrawingLayer*
G04 EasyEDA Pro v3.2.148, 2026-08-09 17:13:05*
G04 Gerber Generator version 0.3*
G04 Scale: 100 percent, Rotated: No, Reflected: No*
G04 Dimensions in millimeters*
G04 Leading zeros omitted, absolute positions, 4 integers and 5 decimals*
G04 Generated by one-click*
G04 Object Configs: Pad,Via,Track,Text,Image,Dimension,BoardOutline,BoardCutout,CopperFilled,SolidRegion,FPCStiffener,Line,PlaneZone,ComponentProperty,ComponentSilkscreen,TearDrop*
G04 Layer Configs: 1,2,3,4,5,6,7,8,9,10,11,13,14,56*
G04 Copper Areas: 0*
%FSLAX45Y45*%
%MOMM*%
%AMIconRect*4,1,4,0.28,-0.28,-0.28,-0.28,-0.28,0.28,0.28,0.28,0.28,-0.28,0*4,0,4,0.233333,-0.233333,0.233333,0.233333,-0.233333,0.233333,-0.233333,-0.233333,0.233333,-0.233333,0*%
%AMIconTriangle*4,1,3,-0.339593,0.240473,0.339593,0.240473,0,-0.37884,-0.339593,0.240473,0*4,0,3,-0.265673,0.19404,0,-0.27342,0.266233,0.19404,-0.265673,0.19404,0*%
%AMIconStar6*4,1,12,0.12068,0.20888,0.298527,0.172713,0.241313,0,0.298527,-0.17206,0.12068,-0.208227,0,-0.344073,-0.120073,-0.208227,-0.298573,-0.17206,-0.240707,0,-0.298573,0.17206,-0.120073,0.20888,0,0.344073,0.12068,0.20888,0*4,0,12,-0.000467,0.273467,-0.090067,0.171733,-0.237533,0.136733,-0.193667,-0.007467,-0.237533,-0.1372,-0.090067,-0.171733,-0.000467,-0.273933,0.090067,-0.171733,0.237533,-0.1372,0.194133,0.007,0.237533,0.1372,0.090067,0.171267,-0.000467,0.273467,0*%
%AMIconStar4*4,1,8,-0.311733,0.311733,0,0.202533,0.311733,0.311733,0.202533,0,0.311733,-0.311733,0,-0.202533,-0.304407,-0.311733,-0.202533,0,-0.311733,0.311733,0*4,0,8,0.233333,-0.233333,0.1512,0,0.233333,0.233333,0,0.1512,-0.233333,0.233333,-0.1512,0,-0.233333,-0.233333,0,-0.1512,0.233333,-0.233333,0*%
%AMIconPlus*4,1,12,0.1736,-0.28,-0.1736,-0.28,-0.1736,-0.1736,-0.28,-0.1736,-0.28,0.1736,-0.1736,0.1736,-0.1736,0.28,0.1736,0.28,0.1736,0.1736,0.28,0.1736,0.28,-0.1736,0.1736,-0.1736,0.1736,-0.28,0*4,0,12,0.126933,-0.233333,0.126933,-0.126933,0.233333,-0.126933,0.233333,0.126933,0.126933,0.126933,0.126933,0.233333,-0.126933,0.233333,-0.126933,0.126933,-0.233333,0.126933,-0.233333,-0.126933,-0.126933,-0.126933,-0.126933,-0.233333,0.126933,-0.233333,0*%
%AMIconX*4,1,16,0.28,-0.28,0.076347,-0.28,0,-0.203653,-0.076347,-0.28,-0.28,-0.28,-0.28,-0.076347,-0.203653,0,-0.28,0.076347,-0.28,0.28,-0.076347,0.28,0,0.203653,0.076347,0.28,0.28,0.28,0.28,0.076347,0.203653,0,0.28,-0.076347,0.28,-0.28,0*4,0,16,0.23352,-0.23296,0.23352,-0.095853,0.137107,0.000093,0.23352,0.095853,0.23352,0.2331,0.095853,0.2331,0,0.137107,-0.095853,0.2331,-0.23352,0.2331,-0.23352,0.095853,-0.137107,0.000093,-0.23352,-0.095853,-0.23352,-0.23296,-0.095853,-0.23296,0,-0.137107,0.095853,-0.23296,0.23352,-0.23296,0*%
%AMIconDiamond*4,1,4,0,-0.364,-0.364,0,0,0.364,0.364,0,0,-0.364,0*4,0,4,0,-0.284807,0.284807,0,0,0.28504,-0.284807,0,0,-0.284807,0*%
%AMIconRect2*4,1,6,0.28,-0.28,-0.28,-0.28,-0.28,0.28,-0.23352,0.2331,-0.233333,-0.233333,0.23352,-0.233333,0.28,-0.28,0*4,1,6,0.28,-0.28,0.23352,-0.233333,0.23352,0.2331,-0.23352,0.2331,-0.28,0.28,0.28,0.28,0.28,-0.28,0*4,1,6,0.186853,-0.186667,-0.186667,-0.186667,-0.186667,0.186853,-0.14,0.140187,-0.14,-0.14,0.140187,-0.14,0.186853,-0.186667,0*4,1,6,0.186853,-0.186667,0.140187,-0.14,0.140187,0.140187,-0.14,0.140187,-0.186667,0.186853,0.186853,0.186853,0.186853,-0.186667,0*%
%ADD10IconRect*%
%ADD11C,0.616X0.522667*%
%ADD12IconTriangle*%
%ADD13IconStar6*%
%ADD14IconStar4*%
%ADD15IconPlus*%
%ADD16IconX*%
%ADD17IconDiamond*%
%ADD18IconRect2*%
%ADD19C,0.2032*%
%ADD20C,0.254*%
G75*


G04 Drill Drawing Start*
G54D10*
G01X7192213Y-3721100D03*
G01X7692212Y-3721100D03*
G54D11*
G01X3372074Y-6020496D03*
G01X3372074Y-5155504D03*
G54D12*
G01X3790064Y-5155504D03*
G01X3790066Y-6020496D03*
G54D13*
G01X5625897Y-3139092D03*
G01X6425895Y-3139092D03*
G54D14*
G01X3740061Y-5877992D03*
G01X3740061Y-5298008D03*
G54D15*
G01X7886700Y-4974399D03*
G01X7886700Y-4724400D03*
G01X7886700Y-4474400D03*
G54D16*
G01X7099300Y-7946217D03*
G01X7099300Y-7696230D03*
G01X7099300Y-7446213D03*
G01X7823200Y-6155487D03*
G01X7823200Y-5905470D03*
G01X7823200Y-5655483D03*
G01X7912100Y-7336617D03*
G01X7912100Y-7086630D03*
G01X7912100Y-6836613D03*
G01X8483600Y-6142787D03*
G01X8483600Y-5892770D03*
G01X8483600Y-5642783D03*
G54D17*
G01X4394200Y-6718300D03*
G01X4394200Y-6464300D03*
G01X4394200Y-6210300D03*
G01X4394200Y-5956300D03*
G01X4394200Y-5702300D03*
G01X4394200Y-5448300D03*
G01X4394200Y-5194300D03*
G01X4394200Y-4940300D03*
G01X4394200Y-4686300D03*
G01X4394200Y-4432300D03*
G01X4394200Y-4178300D03*
G01X4394200Y-3924300D03*
G01X4394200Y-3670300D03*
G01X4394200Y-3416300D03*
G54D18*
G01X3763812Y-5712969D03*
G01X3995411Y-5828028D03*
G01X4097011Y-5929628D03*
G01X4182982Y-7449715D03*
G01X4445012Y-4809190D03*
G01X4608549Y-4739715D03*
G01X4632910Y-5251779D03*
G01X4722700Y-6727076D03*
G01X4835591Y-6572227D03*
G01X4851400Y-6743700D03*
G01X4871314Y-6962190D03*
G01X4925005Y-6437256D03*
G01X4942300Y-5912959D03*
G01X5115509Y-6187768D03*
G01X5191709Y-6140778D03*
G01X5196680Y-6590017D03*
G01X5214220Y-6513777D03*
G01X5281499Y-6981075D03*
G01X5317719Y-6666177D03*
G01X5435600Y-6807200D03*
G01X5441519Y-6967976D03*
G01X5441519Y-5811679D03*
G01X5451910Y-7044386D03*
G01X5460999Y-6667497D03*
G01X5481499Y-6015408D03*
G01X5491009Y-5509769D03*
G01X5521499Y-5795818D03*
G01X5549059Y-6667167D03*
G01X5606781Y-4493825D03*
G01X5608739Y-5771408D03*
G01X5612309Y-5974608D03*
G01X5664499Y-4603010D03*
G01X5701953Y-4733041D03*
G01X5706509Y-5542809D03*
G01X5761888Y-5029200D03*
G01X5797118Y-6586977D03*
G01X5799858Y-7030386D03*
G01X5809008Y-5418579D03*
G01X5815049Y-6763713D03*
G01X5842710Y-7403359D03*
G01X5876108Y-4349011D03*
G01X5893735Y-6763713D03*
G01X5905188Y-6201068D03*
G01X5909109Y-6536387D03*
G01X5928931Y-5176316D03*
G01X5932898Y-4656871D03*
G01X5938968Y-4949587D03*
G01X5943698Y-5034810D03*
G01X5955988Y-7430064D03*
G01X6067008Y-7124616D03*
G01X6095221Y-7200968D03*
G01X6097007Y-6500187D03*
G01X6122407Y-6081768D03*
G01X6157948Y-6630967D03*
G01X6159188Y-6271887D03*
G01X6160297Y-5480730D03*
G01X6167577Y-5848832D03*
G01X6209988Y-5972468D03*
G01X6243810Y-6924738D03*
G01X6249407Y-6041768D03*
G01X6260788Y-6754486D03*
G01X6274807Y-5509589D03*
G01X6284655Y-5066379D03*
G01X6349517Y-5948778D03*
G01X6357627Y-5218745D03*
G01X6359432Y-5340114D03*
G01X6474507Y-5101865D03*
G01X6504697Y-4772722D03*
G01X6557426Y-5337164D03*
G01X6590987Y-5870868D03*
G01X6623487Y-7470395D03*
G01X6676536Y-4395996D03*
G01X6687939Y-5582265D03*
G01X6928749Y-5715881D03*
G01X6961647Y-6397207D03*
G01X6971986Y-5972468D03*
G01X7029886Y-5255799D03*
G01X7233086Y-6215757D03*
G01X7265319Y-5713939D03*
G01X7283885Y-6651207D03*
G01X7357926Y-5478599D03*
G01X7393225Y-5316300D03*
G01X7416366Y-5537479D03*
G01X7475332Y-5607246D03*
G01X7487085Y-6774556D03*
G01X7519085Y-5962658D03*
G04 Drill Drawing End*

G04 Text Start*
G54D19*
G01X11320246Y-2797006D02*
G01X11320246Y-2917148D01*
G01X11320246Y-2797006D02*
G01X11365966Y-2917148D01*
G01X11411686Y-2797006D02*
G01X11365966Y-2917148D01*
G01X11411686Y-2797006D02*
G01X11411686Y-2917148D01*
G01X11528018Y-2837138D02*
G01X11528018Y-2917148D01*
G01X11528018Y-2854156D02*
G01X11516588Y-2842726D01*
G01X11505158Y-2837138D01*
G01X11488140Y-2837138D01*
G01X11476710Y-2842726D01*
G01X11465280Y-2854156D01*
G01X11459438Y-2871428D01*
G01X11459438Y-2882858D01*
G01X11465280Y-2899876D01*
G01X11476710Y-2911306D01*
G01X11488140Y-2917148D01*
G01X11505158Y-2917148D01*
G01X11516588Y-2911306D01*
G01X11528018Y-2899876D01*
G01X11575770Y-2837138D02*
G01X11575770Y-2917148D01*
G01X11575770Y-2871428D02*
G01X11581612Y-2854156D01*
G01X11593042Y-2842726D01*
G01X11604472Y-2837138D01*
G01X11621490Y-2837138D01*
G01X11669242Y-2797006D02*
G01X11669242Y-2917148D01*
G01X11726392Y-2837138D02*
G01X11669242Y-2894288D01*
G01X11692102Y-2871428D02*
G01X11732234Y-2917148D01*
G01X12857526Y-2825708D02*
G01X12851684Y-2814278D01*
G01X12840254Y-2802848D01*
G01X12828824Y-2797006D01*
G01X12805964Y-2797006D01*
G01X12794534Y-2802848D01*
G01X12783104Y-2814278D01*
G01X12777516Y-2825708D01*
G01X12771674Y-2842726D01*
G01X12771674Y-2871428D01*
G01X12777516Y-2888446D01*
G01X12783104Y-2899876D01*
G01X12794534Y-2911306D01*
G01X12805964Y-2917148D01*
G01X12828824Y-2917148D01*
G01X12840254Y-2911306D01*
G01X12851684Y-2899876D01*
G01X12857526Y-2888446D01*
G01X12933980Y-2837138D02*
G01X12922550Y-2842726D01*
G01X12911120Y-2854156D01*
G01X12905278Y-2871428D01*
G01X12905278Y-2882858D01*
G01X12911120Y-2899876D01*
G01X12922550Y-2911306D01*
G01X12933980Y-2917148D01*
G01X12950998Y-2917148D01*
G01X12962428Y-2911306D01*
G01X12973858Y-2899876D01*
G01X12979700Y-2882858D01*
G01X12979700Y-2871428D01*
G01X12973858Y-2854156D01*
G01X12962428Y-2842726D01*
G01X12950998Y-2837138D01*
G01X12933980Y-2837138D01*
G01X13027452Y-2837138D02*
G01X13027452Y-2894288D01*
G01X13033294Y-2911306D01*
G01X13044724Y-2917148D01*
G01X13061742Y-2917148D01*
G01X13073172Y-2911306D01*
G01X13090444Y-2894288D01*
G01X13090444Y-2837138D02*
G01X13090444Y-2917148D01*
G01X13138196Y-2837138D02*
G01X13138196Y-2917148D01*
G01X13138196Y-2859998D02*
G01X13155468Y-2842726D01*
G01X13166898Y-2837138D01*
G01X13183916Y-2837138D01*
G01X13195346Y-2842726D01*
G01X13201188Y-2859998D01*
G01X13201188Y-2917148D01*
G01X13266212Y-2797006D02*
G01X13266212Y-2894288D01*
G01X13271800Y-2911306D01*
G01X13283230Y-2917148D01*
G01X13294660Y-2917148D01*
G01X13248940Y-2837138D02*
G01X13289072Y-2837138D01*
G01X14265848Y-2814278D02*
G01X14254418Y-2802848D01*
G01X14237400Y-2797006D01*
G01X14214540Y-2797006D01*
G01X14197268Y-2802848D01*
G01X14185838Y-2814278D01*
G01X14185838Y-2825708D01*
G01X14191680Y-2837138D01*
G01X14197268Y-2842726D01*
G01X14208698Y-2848568D01*
G01X14242988Y-2859998D01*
G01X14254418Y-2865586D01*
G01X14260260Y-2871428D01*
G01X14265848Y-2882858D01*
G01X14265848Y-2899876D01*
G01X14254418Y-2911306D01*
G01X14237400Y-2917148D01*
G01X14214540Y-2917148D01*
G01X14197268Y-2911306D01*
G01X14185838Y-2899876D01*
G01X14313600Y-2797006D02*
G01X14319442Y-2802848D01*
G01X14325030Y-2797006D01*
G01X14319442Y-2791418D01*
G01X14313600Y-2797006D01*
G01X14319442Y-2837138D02*
G01X14319442Y-2917148D01*
G01X14435774Y-2837138D02*
G01X14372782Y-2917148D01*
G01X14372782Y-2837138D02*
G01X14435774Y-2837138D01*
G01X14372782Y-2917148D02*
G01X14435774Y-2917148D01*
G01X14483526Y-2871428D02*
G01X14552106Y-2871428D01*
G01X14552106Y-2859998D01*
G01X14546518Y-2848568D01*
G01X14540676Y-2842726D01*
G01X14529246Y-2837138D01*
G01X14512228Y-2837138D01*
G01X14500798Y-2842726D01*
G01X14489368Y-2854156D01*
G01X14483526Y-2871428D01*
G01X14483526Y-2882858D01*
G01X14489368Y-2899876D01*
G01X14500798Y-2911306D01*
G01X14512228Y-2917148D01*
G01X14529246Y-2917148D01*
G01X14540676Y-2911306D01*
G01X14552106Y-2899876D01*
G01X18079803Y-2797006D02*
G01X18079803Y-2917148D01*
G01X18079803Y-2797006D02*
G01X18131365Y-2797006D01*
G01X18148383Y-2802848D01*
G01X18154225Y-2808436D01*
G01X18159813Y-2819866D01*
G01X18159813Y-2837138D01*
G01X18154225Y-2848568D01*
G01X18148383Y-2854156D01*
G01X18131365Y-2859998D01*
G01X18079803Y-2859998D01*
G01X18207565Y-2797006D02*
G01X18207565Y-2917148D01*
G01X18323897Y-2837138D02*
G01X18323897Y-2917148D01*
G01X18323897Y-2854156D02*
G01X18312467Y-2842726D01*
G01X18301037Y-2837138D01*
G01X18284019Y-2837138D01*
G01X18272589Y-2842726D01*
G01X18261159Y-2854156D01*
G01X18255317Y-2871428D01*
G01X18255317Y-2882858D01*
G01X18261159Y-2899876D01*
G01X18272589Y-2911306D01*
G01X18284019Y-2917148D01*
G01X18301037Y-2917148D01*
G01X18312467Y-2911306D01*
G01X18323897Y-2899876D01*
G01X18388921Y-2797006D02*
G01X18388921Y-2894288D01*
G01X18394509Y-2911306D01*
G01X18405939Y-2917148D01*
G01X18417369Y-2917148D01*
G01X18371649Y-2837138D02*
G01X18411781Y-2837138D01*
G01X18465121Y-2871428D02*
G01X18533701Y-2871428D01*
G01X18533701Y-2859998D01*
G01X18528113Y-2848568D01*
G01X18522271Y-2842726D01*
G01X18510841Y-2837138D01*
G01X18493823Y-2837138D01*
G01X18482393Y-2842726D01*
G01X18470963Y-2854156D01*
G01X18465121Y-2871428D01*
G01X18465121Y-2882858D01*
G01X18470963Y-2899876D01*
G01X18482393Y-2911306D01*
G01X18493823Y-2917148D01*
G01X18510841Y-2917148D01*
G01X18522271Y-2911306D01*
G01X18533701Y-2899876D01*
G01X18650033Y-2797006D02*
G01X18650033Y-2917148D01*
G01X18650033Y-2854156D02*
G01X18638603Y-2842726D01*
G01X18627173Y-2837138D01*
G01X18610155Y-2837138D01*
G01X18598725Y-2842726D01*
G01X18587295Y-2854156D01*
G01X18581453Y-2871428D01*
G01X18581453Y-2882858D01*
G01X18587295Y-2899876D01*
G01X18598725Y-2911306D01*
G01X18610155Y-2917148D01*
G01X18627173Y-2917148D01*
G01X18638603Y-2911306D01*
G01X18650033Y-2899876D01*
G01X19621220Y-2814278D02*
G01X19609790Y-2802848D01*
G01X19592772Y-2797006D01*
G01X19569912Y-2797006D01*
G01X19552640Y-2802848D01*
G01X19541210Y-2814278D01*
G01X19541210Y-2825708D01*
G01X19547052Y-2837138D01*
G01X19552640Y-2842726D01*
G01X19564070Y-2848568D01*
G01X19598360Y-2859998D01*
G01X19609790Y-2865586D01*
G01X19615632Y-2871428D01*
G01X19621220Y-2882858D01*
G01X19621220Y-2899876D01*
G01X19609790Y-2911306D01*
G01X19592772Y-2917148D01*
G01X19569912Y-2917148D01*
G01X19552640Y-2911306D01*
G01X19541210Y-2899876D01*
G01X19668972Y-2797006D02*
G01X19668972Y-2917148D01*
G01X19668972Y-2859998D02*
G01X19686244Y-2842726D01*
G01X19697674Y-2837138D01*
G01X19714692Y-2837138D01*
G01X19726122Y-2842726D01*
G01X19731964Y-2859998D01*
G01X19731964Y-2917148D01*
G01X19848296Y-2837138D02*
G01X19848296Y-2917148D01*
G01X19848296Y-2854156D02*
G01X19836866Y-2842726D01*
G01X19825436Y-2837138D01*
G01X19808418Y-2837138D01*
G01X19796988Y-2842726D01*
G01X19785558Y-2854156D01*
G01X19779716Y-2871428D01*
G01X19779716Y-2882858D01*
G01X19785558Y-2899876D01*
G01X19796988Y-2911306D01*
G01X19808418Y-2917148D01*
G01X19825436Y-2917148D01*
G01X19836866Y-2911306D01*
G01X19848296Y-2899876D01*
G01X19896048Y-2837138D02*
G01X19896048Y-2957026D01*
G01X19896048Y-2854156D02*
G01X19907478Y-2842726D01*
G01X19918908Y-2837138D01*
G01X19936180Y-2837138D01*
G01X19947610Y-2842726D01*
G01X19959040Y-2854156D01*
G01X19964628Y-2871428D01*
G01X19964628Y-2882858D01*
G01X19959040Y-2899876D01*
G01X19947610Y-2911306D01*
G01X19936180Y-2917148D01*
G01X19918908Y-2917148D01*
G01X19907478Y-2911306D01*
G01X19896048Y-2899876D01*
G01X20012380Y-2871428D02*
G01X20080960Y-2871428D01*
G01X20080960Y-2859998D01*
G01X20075372Y-2848568D01*
G01X20069530Y-2842726D01*
G01X20058100Y-2837138D01*
G01X20041082Y-2837138D01*
G01X20029652Y-2842726D01*
G01X20018222Y-2854156D01*
G01X20012380Y-2871428D01*
G01X20012380Y-2882858D01*
G01X20018222Y-2899876D01*
G01X20029652Y-2911306D01*
G01X20041082Y-2917148D01*
G01X20058100Y-2917148D01*
G01X20069530Y-2911306D01*
G01X20080960Y-2899876D01*
G01X20972391Y-2797006D02*
G01X21018111Y-2917148D01*
G01X21063831Y-2797006D02*
G01X21018111Y-2917148D01*
G01X21111583Y-2797006D02*
G01X21117425Y-2802848D01*
G01X21123013Y-2797006D01*
G01X21117425Y-2791418D01*
G01X21111583Y-2797006D01*
G01X21117425Y-2837138D02*
G01X21117425Y-2917148D01*
G01X21239345Y-2837138D02*
G01X21239345Y-2917148D01*
G01X21239345Y-2854156D02*
G01X21227915Y-2842726D01*
G01X21216485Y-2837138D01*
G01X21199467Y-2837138D01*
G01X21188037Y-2842726D01*
G01X21176607Y-2854156D01*
G01X21170765Y-2871428D01*
G01X21170765Y-2882858D01*
G01X21176607Y-2899876D01*
G01X21188037Y-2911306D01*
G01X21199467Y-2917148D01*
G01X21216485Y-2917148D01*
G01X21227915Y-2911306D01*
G01X21239345Y-2899876D01*
G01X21389967Y-2774146D02*
G01X21287097Y-2957026D01*
G01X21437719Y-2797006D02*
G01X21437719Y-2917148D01*
G01X21437719Y-2797006D02*
G01X21489281Y-2797006D01*
G01X21506299Y-2802848D01*
G01X21512141Y-2808436D01*
G01X21517729Y-2819866D01*
G01X21517729Y-2837138D01*
G01X21512141Y-2848568D01*
G01X21506299Y-2854156D01*
G01X21489281Y-2859998D01*
G01X21437719Y-2859998D01*
G01X21634061Y-2837138D02*
G01X21634061Y-2917148D01*
G01X21634061Y-2854156D02*
G01X21622631Y-2842726D01*
G01X21611201Y-2837138D01*
G01X21594183Y-2837138D01*
G01X21582753Y-2842726D01*
G01X21571323Y-2854156D01*
G01X21565481Y-2871428D01*
G01X21565481Y-2882858D01*
G01X21571323Y-2899876D01*
G01X21582753Y-2911306D01*
G01X21594183Y-2917148D01*
G01X21611201Y-2917148D01*
G01X21622631Y-2911306D01*
G01X21634061Y-2899876D01*
G01X21750393Y-2797006D02*
G01X21750393Y-2917148D01*
G01X21750393Y-2854156D02*
G01X21738963Y-2842726D01*
G01X21727533Y-2837138D01*
G01X21710515Y-2837138D01*
G01X21699085Y-2842726D01*
G01X21687655Y-2854156D01*
G01X21681813Y-2871428D01*
G01X21681813Y-2882858D01*
G01X21687655Y-2899876D01*
G01X21699085Y-2911306D01*
G01X21710515Y-2917148D01*
G01X21727533Y-2917148D01*
G01X21738963Y-2911306D01*
G01X21750393Y-2899876D01*
G01X22641570Y-2797006D02*
G01X22641570Y-2917148D01*
G01X22641570Y-2797006D02*
G01X22693132Y-2797006D01*
G01X22710150Y-2802848D01*
G01X22715992Y-2808436D01*
G01X22721580Y-2819866D01*
G01X22721580Y-2837138D01*
G01X22715992Y-2848568D01*
G01X22710150Y-2854156D01*
G01X22693132Y-2859998D01*
G01X22641570Y-2859998D01*
G01X22837912Y-2837138D02*
G01X22837912Y-2917148D01*
G01X22837912Y-2854156D02*
G01X22826482Y-2842726D01*
G01X22815052Y-2837138D01*
G01X22798034Y-2837138D01*
G01X22786604Y-2842726D01*
G01X22775174Y-2854156D01*
G01X22769332Y-2871428D01*
G01X22769332Y-2882858D01*
G01X22775174Y-2899876D01*
G01X22786604Y-2911306D01*
G01X22798034Y-2917148D01*
G01X22815052Y-2917148D01*
G01X22826482Y-2911306D01*
G01X22837912Y-2899876D01*
G01X22954244Y-2797006D02*
G01X22954244Y-2917148D01*
G01X22954244Y-2854156D02*
G01X22942814Y-2842726D01*
G01X22931384Y-2837138D01*
G01X22914366Y-2837138D01*
G01X22902936Y-2842726D01*
G01X22891506Y-2854156D01*
G01X22885664Y-2871428D01*
G01X22885664Y-2882858D01*
G01X22891506Y-2899876D01*
G01X22902936Y-2911306D01*
G01X22914366Y-2917148D01*
G01X22931384Y-2917148D01*
G01X22942814Y-2911306D01*
G01X22954244Y-2899876D01*
G01X23210022Y-2814278D02*
G01X23198592Y-2802848D01*
G01X23181574Y-2797006D01*
G01X23158714Y-2797006D01*
G01X23141442Y-2802848D01*
G01X23130012Y-2814278D01*
G01X23130012Y-2825708D01*
G01X23135854Y-2837138D01*
G01X23141442Y-2842726D01*
G01X23152872Y-2848568D01*
G01X23187162Y-2859998D01*
G01X23198592Y-2865586D01*
G01X23204434Y-2871428D01*
G01X23210022Y-2882858D01*
G01X23210022Y-2899876D01*
G01X23198592Y-2911306D01*
G01X23181574Y-2917148D01*
G01X23158714Y-2917148D01*
G01X23141442Y-2911306D01*
G01X23130012Y-2899876D01*
G01X23257774Y-2797006D02*
G01X23257774Y-2917148D01*
G01X23257774Y-2859998D02*
G01X23275046Y-2842726D01*
G01X23286476Y-2837138D01*
G01X23303494Y-2837138D01*
G01X23314924Y-2842726D01*
G01X23320766Y-2859998D01*
G01X23320766Y-2917148D01*
G01X23437098Y-2837138D02*
G01X23437098Y-2917148D01*
G01X23437098Y-2854156D02*
G01X23425668Y-2842726D01*
G01X23414238Y-2837138D01*
G01X23397220Y-2837138D01*
G01X23385790Y-2842726D01*
G01X23374360Y-2854156D01*
G01X23368518Y-2871428D01*
G01X23368518Y-2882858D01*
G01X23374360Y-2899876D01*
G01X23385790Y-2911306D01*
G01X23397220Y-2917148D01*
G01X23414238Y-2917148D01*
G01X23425668Y-2911306D01*
G01X23437098Y-2899876D01*
G01X23484850Y-2837138D02*
G01X23484850Y-2957026D01*
G01X23484850Y-2854156D02*
G01X23496280Y-2842726D01*
G01X23507710Y-2837138D01*
G01X23524982Y-2837138D01*
G01X23536412Y-2842726D01*
G01X23547842Y-2854156D01*
G01X23553430Y-2871428D01*
G01X23553430Y-2882858D01*
G01X23547842Y-2899876D01*
G01X23536412Y-2911306D01*
G01X23524982Y-2917148D01*
G01X23507710Y-2917148D01*
G01X23496280Y-2911306D01*
G01X23484850Y-2899876D01*
G01X23601182Y-2871428D02*
G01X23669762Y-2871428D01*
G01X23669762Y-2859998D01*
G01X23664174Y-2848568D01*
G01X23658332Y-2842726D01*
G01X23646902Y-2837138D01*
G01X23629884Y-2837138D01*
G01X23618454Y-2842726D01*
G01X23607024Y-2854156D01*
G01X23601182Y-2871428D01*
G01X23601182Y-2882858D01*
G01X23607024Y-2899876D01*
G01X23618454Y-2911306D01*
G01X23629884Y-2917148D01*
G01X23646902Y-2917148D01*
G01X23658332Y-2911306D01*
G01X23669762Y-2899876D01*
G01X24560939Y-2797006D02*
G01X24560939Y-2917148D01*
G01X24560939Y-2917148D02*
G01X24629519Y-2917148D01*
G01X24745851Y-2837138D02*
G01X24745851Y-2917148D01*
G01X24745851Y-2854156D02*
G01X24734421Y-2842726D01*
G01X24722991Y-2837138D01*
G01X24705973Y-2837138D01*
G01X24694543Y-2842726D01*
G01X24683113Y-2854156D01*
G01X24677271Y-2871428D01*
G01X24677271Y-2882858D01*
G01X24683113Y-2899876D01*
G01X24694543Y-2911306D01*
G01X24705973Y-2917148D01*
G01X24722991Y-2917148D01*
G01X24734421Y-2911306D01*
G01X24745851Y-2899876D01*
G01X24799445Y-2837138D02*
G01X24833735Y-2917148D01*
G01X24868025Y-2837138D02*
G01X24833735Y-2917148D01*
G01X24822305Y-2940008D01*
G01X24810875Y-2951438D01*
G01X24799445Y-2957026D01*
G01X24793603Y-2957026D01*
G01X24915777Y-2871428D02*
G01X24984357Y-2871428D01*
G01X24984357Y-2859998D01*
G01X24978769Y-2848568D01*
G01X24972927Y-2842726D01*
G01X24961497Y-2837138D01*
G01X24944479Y-2837138D01*
G01X24933049Y-2842726D01*
G01X24921619Y-2854156D01*
G01X24915777Y-2871428D01*
G01X24915777Y-2882858D01*
G01X24921619Y-2899876D01*
G01X24933049Y-2911306D01*
G01X24944479Y-2917148D01*
G01X24961497Y-2917148D01*
G01X24972927Y-2911306D01*
G01X24984357Y-2899876D01*
G01X25032109Y-2837138D02*
G01X25032109Y-2917148D01*
G01X25032109Y-2871428D02*
G01X25037951Y-2854156D01*
G01X25049381Y-2842726D01*
G01X25060811Y-2837138D01*
G01X25077829Y-2837138D01*
G01X25253597Y-2797006D02*
G01X25253597Y-2917148D01*
G01X25253597Y-2797006D02*
G01X25305159Y-2797006D01*
G01X25322177Y-2802848D01*
G01X25328019Y-2808436D01*
G01X25333607Y-2819866D01*
G01X25333607Y-2837138D01*
G01X25328019Y-2848568D01*
G01X25322177Y-2854156D01*
G01X25305159Y-2859998D01*
G01X25253597Y-2859998D01*
G01X25449939Y-2837138D02*
G01X25449939Y-2917148D01*
G01X25449939Y-2854156D02*
G01X25438509Y-2842726D01*
G01X25427079Y-2837138D01*
G01X25410061Y-2837138D01*
G01X25398631Y-2842726D01*
G01X25387201Y-2854156D01*
G01X25381359Y-2871428D01*
G01X25381359Y-2882858D01*
G01X25387201Y-2899876D01*
G01X25398631Y-2911306D01*
G01X25410061Y-2917148D01*
G01X25427079Y-2917148D01*
G01X25438509Y-2911306D01*
G01X25449939Y-2899876D01*
G01X25497691Y-2797006D02*
G01X25503533Y-2802848D01*
G01X25509121Y-2797006D01*
G01X25503533Y-2791418D01*
G01X25497691Y-2797006D01*
G01X25503533Y-2837138D02*
G01X25503533Y-2917148D01*
G01X25556873Y-2837138D02*
G01X25556873Y-2917148D01*
G01X25556873Y-2871428D02*
G01X25562715Y-2854156D01*
G01X25574145Y-2842726D01*
G01X25585575Y-2837138D01*
G01X25602593Y-2837138D01*
G01X12777516Y-3406279D02*
G01X12777516Y-3400437D01*
G01X12783104Y-3389007D01*
G01X12788946Y-3383419D01*
G01X12800376Y-3377577D01*
G01X12823236Y-3377577D01*
G01X12834666Y-3383419D01*
G01X12840254Y-3389007D01*
G01X12846096Y-3400437D01*
G01X12846096Y-3411867D01*
G01X12840254Y-3423297D01*
G01X12828824Y-3440569D01*
G01X12771674Y-3497719D01*
G01X12851684Y-3497719D01*
G01X14265848Y-3377577D02*
G01X14208698Y-3497719D01*
G01X14185838Y-3377577D02*
G01X14265848Y-3377577D01*
G01X14347890Y-3377577D02*
G01X14330872Y-3383419D01*
G01X14319442Y-3400437D01*
G01X14313600Y-3429139D01*
G01X14313600Y-3446157D01*
G01X14319442Y-3474859D01*
G01X14330872Y-3491877D01*
G01X14347890Y-3497719D01*
G01X14359320Y-3497719D01*
G01X14376592Y-3491877D01*
G01X14388022Y-3474859D01*
G01X14393610Y-3446157D01*
G01X14393610Y-3429139D01*
G01X14388022Y-3400437D01*
G01X14376592Y-3383419D01*
G01X14359320Y-3377577D01*
G01X14347890Y-3377577D01*
G01X14447204Y-3469017D02*
G01X14441362Y-3474859D01*
G01X14447204Y-3480447D01*
G01X14452792Y-3474859D01*
G01X14447204Y-3469017D01*
G01X14574966Y-3417709D02*
G01X14569124Y-3434727D01*
G01X14557694Y-3446157D01*
G01X14540676Y-3451999D01*
G01X14534834Y-3451999D01*
G01X14517816Y-3446157D01*
G01X14506386Y-3434727D01*
G01X14500544Y-3417709D01*
G01X14500544Y-3411867D01*
G01X14506386Y-3394849D01*
G01X14517816Y-3383419D01*
G01X14534834Y-3377577D01*
G01X14540676Y-3377577D01*
G01X14557694Y-3383419D01*
G01X14569124Y-3394849D01*
G01X14574966Y-3417709D01*
G01X14574966Y-3446157D01*
G01X14569124Y-3474859D01*
G01X14557694Y-3491877D01*
G01X14540676Y-3497719D01*
G01X14529246Y-3497719D01*
G01X14511974Y-3491877D01*
G01X14506386Y-3480447D01*
G01X14622718Y-3417709D02*
G01X14685710Y-3497719D01*
G01X14685710Y-3417709D02*
G01X14622718Y-3497719D01*
G01X14813472Y-3377577D02*
G01X14756322Y-3497719D01*
G01X14733462Y-3377577D02*
G01X14813472Y-3377577D01*
G01X14895514Y-3377577D02*
G01X14878496Y-3383419D01*
G01X14867066Y-3400437D01*
G01X14861224Y-3429139D01*
G01X14861224Y-3446157D01*
G01X14867066Y-3474859D01*
G01X14878496Y-3491877D01*
G01X14895514Y-3497719D01*
G01X14906944Y-3497719D01*
G01X14924216Y-3491877D01*
G01X14935646Y-3474859D01*
G01X14941234Y-3446157D01*
G01X14941234Y-3429139D01*
G01X14935646Y-3400437D01*
G01X14924216Y-3383419D01*
G01X14906944Y-3377577D01*
G01X14895514Y-3377577D01*
G01X14994828Y-3469017D02*
G01X14988986Y-3474859D01*
G01X14994828Y-3480447D01*
G01X15000416Y-3474859D01*
G01X14994828Y-3469017D01*
G01X15122590Y-3417709D02*
G01X15116748Y-3434727D01*
G01X15105318Y-3446157D01*
G01X15088300Y-3451999D01*
G01X15082458Y-3451999D01*
G01X15065440Y-3446157D01*
G01X15054010Y-3434727D01*
G01X15048168Y-3417709D01*
G01X15048168Y-3411867D01*
G01X15054010Y-3394849D01*
G01X15065440Y-3383419D01*
G01X15082458Y-3377577D01*
G01X15088300Y-3377577D01*
G01X15105318Y-3383419D01*
G01X15116748Y-3394849D01*
G01X15122590Y-3417709D01*
G01X15122590Y-3446157D01*
G01X15116748Y-3474859D01*
G01X15105318Y-3491877D01*
G01X15088300Y-3497719D01*
G01X15076870Y-3497719D01*
G01X15059598Y-3491877D01*
G01X15054010Y-3480447D01*
G01X15170342Y-3417709D02*
G01X15170342Y-3497719D01*
G01X15170342Y-3440569D02*
G01X15187614Y-3423297D01*
G01X15199044Y-3417709D01*
G01X15216062Y-3417709D01*
G01X15227492Y-3423297D01*
G01X15233334Y-3440569D01*
G01X15233334Y-3497719D01*
G01X15233334Y-3440569D02*
G01X15250352Y-3423297D01*
G01X15261782Y-3417709D01*
G01X15279054Y-3417709D01*
G01X15290484Y-3423297D01*
G01X15296072Y-3440569D01*
G01X15296072Y-3497719D01*
G01X15343824Y-3377577D02*
G01X15349666Y-3383419D01*
G01X15355254Y-3377577D01*
G01X15349666Y-3371989D01*
G01X15343824Y-3377577D01*
G01X15349666Y-3417709D02*
G01X15349666Y-3497719D01*
G01X15403006Y-3377577D02*
G01X15403006Y-3497719D01*
G01X15490890Y-3354717D02*
G01X15479460Y-3366147D01*
G01X15468030Y-3383419D01*
G01X15456600Y-3406279D01*
G01X15450758Y-3434727D01*
G01X15450758Y-3457587D01*
G01X15456600Y-3486289D01*
G01X15468030Y-3509149D01*
G01X15479460Y-3526167D01*
G01X15490890Y-3537597D01*
G01X15538642Y-3400437D02*
G01X15550072Y-3394849D01*
G01X15567344Y-3377577D01*
G01X15567344Y-3497719D01*
G01X15620938Y-3469017D02*
G01X15615096Y-3474859D01*
G01X15620938Y-3480447D01*
G01X15626526Y-3474859D01*
G01X15620938Y-3469017D01*
G01X15702980Y-3377577D02*
G01X15685708Y-3383419D01*
G01X15680120Y-3394849D01*
G01X15680120Y-3406279D01*
G01X15685708Y-3417709D01*
G01X15697138Y-3423297D01*
G01X15719998Y-3429139D01*
G01X15737270Y-3434727D01*
G01X15748700Y-3446157D01*
G01X15754288Y-3457587D01*
G01X15754288Y-3474859D01*
G01X15748700Y-3486289D01*
G01X15742858Y-3491877D01*
G01X15725840Y-3497719D01*
G01X15702980Y-3497719D01*
G01X15685708Y-3491877D01*
G01X15680120Y-3486289D01*
G01X15674278Y-3474859D01*
G01X15674278Y-3457587D01*
G01X15680120Y-3446157D01*
G01X15691550Y-3434727D01*
G01X15708568Y-3429139D01*
G01X15731428Y-3423297D01*
G01X15742858Y-3417709D01*
G01X15748700Y-3406279D01*
G01X15748700Y-3394849D01*
G01X15742858Y-3383419D01*
G01X15725840Y-3377577D01*
G01X15702980Y-3377577D01*
G01X15836330Y-3377577D02*
G01X15819312Y-3383419D01*
G01X15807882Y-3400437D01*
G01X15802040Y-3429139D01*
G01X15802040Y-3446157D01*
G01X15807882Y-3474859D01*
G01X15819312Y-3491877D01*
G01X15836330Y-3497719D01*
G01X15847760Y-3497719D01*
G01X15865032Y-3491877D01*
G01X15876462Y-3474859D01*
G01X15882050Y-3446157D01*
G01X15882050Y-3429139D01*
G01X15876462Y-3400437D01*
G01X15865032Y-3383419D01*
G01X15847760Y-3377577D01*
G01X15836330Y-3377577D01*
G01X15964092Y-3377577D02*
G01X15947074Y-3383419D01*
G01X15935644Y-3400437D01*
G01X15929802Y-3429139D01*
G01X15929802Y-3446157D01*
G01X15935644Y-3474859D01*
G01X15947074Y-3491877D01*
G01X15964092Y-3497719D01*
G01X15975522Y-3497719D01*
G01X15992794Y-3491877D01*
G01X16004224Y-3474859D01*
G01X16009812Y-3446157D01*
G01X16009812Y-3429139D01*
G01X16004224Y-3400437D01*
G01X15992794Y-3383419D01*
G01X15975522Y-3377577D01*
G01X15964092Y-3377577D01*
G01X16057564Y-3417709D02*
G01X16120556Y-3497719D01*
G01X16120556Y-3417709D02*
G01X16057564Y-3497719D01*
G01X16168308Y-3400437D02*
G01X16179738Y-3394849D01*
G01X16197010Y-3377577D01*
G01X16197010Y-3497719D01*
G01X16250604Y-3469017D02*
G01X16244762Y-3474859D01*
G01X16250604Y-3480447D01*
G01X16256192Y-3474859D01*
G01X16250604Y-3469017D01*
G01X16332646Y-3377577D02*
G01X16315374Y-3383419D01*
G01X16309786Y-3394849D01*
G01X16309786Y-3406279D01*
G01X16315374Y-3417709D01*
G01X16326804Y-3423297D01*
G01X16349664Y-3429139D01*
G01X16366936Y-3434727D01*
G01X16378366Y-3446157D01*
G01X16383954Y-3457587D01*
G01X16383954Y-3474859D01*
G01X16378366Y-3486289D01*
G01X16372524Y-3491877D01*
G01X16355506Y-3497719D01*
G01X16332646Y-3497719D01*
G01X16315374Y-3491877D01*
G01X16309786Y-3486289D01*
G01X16303944Y-3474859D01*
G01X16303944Y-3457587D01*
G01X16309786Y-3446157D01*
G01X16321216Y-3434727D01*
G01X16338234Y-3429139D01*
G01X16361094Y-3423297D01*
G01X16372524Y-3417709D01*
G01X16378366Y-3406279D01*
G01X16378366Y-3394849D01*
G01X16372524Y-3383419D01*
G01X16355506Y-3377577D01*
G01X16332646Y-3377577D01*
G01X16465996Y-3377577D02*
G01X16448978Y-3383419D01*
G01X16437548Y-3400437D01*
G01X16431706Y-3429139D01*
G01X16431706Y-3446157D01*
G01X16437548Y-3474859D01*
G01X16448978Y-3491877D01*
G01X16465996Y-3497719D01*
G01X16477426Y-3497719D01*
G01X16494698Y-3491877D01*
G01X16506128Y-3474859D01*
G01X16511716Y-3446157D01*
G01X16511716Y-3429139D01*
G01X16506128Y-3400437D01*
G01X16494698Y-3383419D01*
G01X16477426Y-3377577D01*
G01X16465996Y-3377577D01*
G01X16593758Y-3377577D02*
G01X16576740Y-3383419D01*
G01X16565310Y-3400437D01*
G01X16559468Y-3429139D01*
G01X16559468Y-3446157D01*
G01X16565310Y-3474859D01*
G01X16576740Y-3491877D01*
G01X16593758Y-3497719D01*
G01X16605188Y-3497719D01*
G01X16622460Y-3491877D01*
G01X16633890Y-3474859D01*
G01X16639478Y-3446157D01*
G01X16639478Y-3429139D01*
G01X16633890Y-3400437D01*
G01X16622460Y-3383419D01*
G01X16605188Y-3377577D01*
G01X16593758Y-3377577D01*
G01X16687230Y-3417709D02*
G01X16687230Y-3497719D01*
G01X16687230Y-3440569D02*
G01X16704502Y-3423297D01*
G01X16715932Y-3417709D01*
G01X16732950Y-3417709D01*
G01X16744380Y-3423297D01*
G01X16750222Y-3440569D01*
G01X16750222Y-3497719D01*
G01X16750222Y-3440569D02*
G01X16767240Y-3423297D01*
G01X16778670Y-3417709D01*
G01X16795942Y-3417709D01*
G01X16807372Y-3423297D01*
G01X16812960Y-3440569D01*
G01X16812960Y-3497719D01*
G01X16860712Y-3417709D02*
G01X16860712Y-3497719D01*
G01X16860712Y-3440569D02*
G01X16877984Y-3423297D01*
G01X16889414Y-3417709D01*
G01X16906432Y-3417709D01*
G01X16917862Y-3423297D01*
G01X16923704Y-3440569D01*
G01X16923704Y-3497719D01*
G01X16923704Y-3440569D02*
G01X16940722Y-3423297D01*
G01X16952152Y-3417709D01*
G01X16969424Y-3417709D01*
G01X16980854Y-3423297D01*
G01X16986442Y-3440569D01*
G01X16986442Y-3497719D01*
G01X17034194Y-3354717D02*
G01X17045624Y-3366147D01*
G01X17057054Y-3383419D01*
G01X17068484Y-3406279D01*
G01X17074326Y-3434727D01*
G01X17074326Y-3457587D01*
G01X17068484Y-3486289D01*
G01X17057054Y-3509149D01*
G01X17045624Y-3526167D01*
G01X17034194Y-3537597D01*
G01X18079803Y-3377577D02*
G01X18079803Y-3497719D01*
G01X18079803Y-3377577D02*
G01X18131365Y-3377577D01*
G01X18148383Y-3383419D01*
G01X18154225Y-3389007D01*
G01X18159813Y-3400437D01*
G01X18159813Y-3417709D01*
G01X18154225Y-3429139D01*
G01X18148383Y-3434727D01*
G01X18131365Y-3440569D01*
G01X18079803Y-3440569D01*
G01X18247697Y-3377577D02*
G01X18247697Y-3497719D01*
G01X18207565Y-3377577D02*
G01X18287575Y-3377577D01*
G01X18335327Y-3377577D02*
G01X18335327Y-3497719D01*
G01X18415337Y-3377577D02*
G01X18415337Y-3497719D01*
G01X18335327Y-3434727D02*
G01X18415337Y-3434727D01*
G01X19541210Y-3377577D02*
G01X19541210Y-3497719D01*
G01X19541210Y-3377577D02*
G01X19592772Y-3377577D01*
G01X19609790Y-3383419D01*
G01X19615632Y-3389007D01*
G01X19621220Y-3400437D01*
G01X19621220Y-3411867D01*
G01X19615632Y-3423297D01*
G01X19609790Y-3429139D01*
G01X19592772Y-3434727D01*
G01X19541210Y-3434727D01*
G01X19581342Y-3434727D02*
G01X19621220Y-3497719D01*
G01X19697674Y-3417709D02*
G01X19686244Y-3423297D01*
G01X19674814Y-3434727D01*
G01X19668972Y-3451999D01*
G01X19668972Y-3463429D01*
G01X19674814Y-3480447D01*
G01X19686244Y-3491877D01*
G01X19697674Y-3497719D01*
G01X19714692Y-3497719D01*
G01X19726122Y-3491877D01*
G01X19737552Y-3480447D01*
G01X19743394Y-3463429D01*
G01X19743394Y-3451999D01*
G01X19737552Y-3434727D01*
G01X19726122Y-3423297D01*
G01X19714692Y-3417709D01*
G01X19697674Y-3417709D01*
G01X19791146Y-3417709D02*
G01X19791146Y-3474859D01*
G01X19796988Y-3491877D01*
G01X19808418Y-3497719D01*
G01X19825436Y-3497719D01*
G01X19836866Y-3491877D01*
G01X19854138Y-3474859D01*
G01X19854138Y-3417709D02*
G01X19854138Y-3497719D01*
G01X19901890Y-3417709D02*
G01X19901890Y-3497719D01*
G01X19901890Y-3440569D02*
G01X19919162Y-3423297D01*
G01X19930592Y-3417709D01*
G01X19947610Y-3417709D01*
G01X19959040Y-3423297D01*
G01X19964882Y-3440569D01*
G01X19964882Y-3497719D01*
G01X20081214Y-3377577D02*
G01X20081214Y-3497719D01*
G01X20081214Y-3434727D02*
G01X20069784Y-3423297D01*
G01X20058354Y-3417709D01*
G01X20041336Y-3417709D01*
G01X20029906Y-3423297D01*
G01X20018476Y-3434727D01*
G01X20012634Y-3451999D01*
G01X20012634Y-3463429D01*
G01X20018476Y-3480447D01*
G01X20029906Y-3491877D01*
G01X20041336Y-3497719D01*
G01X20058354Y-3497719D01*
G01X20069784Y-3491877D01*
G01X20081214Y-3480447D01*
G01X20972391Y-3377577D02*
G01X20972391Y-3497719D01*
G01X20972391Y-3377577D02*
G01X21023953Y-3377577D01*
G01X21040971Y-3383419D01*
G01X21046813Y-3389007D01*
G01X21052401Y-3400437D01*
G01X21052401Y-3417709D01*
G01X21046813Y-3429139D01*
G01X21040971Y-3434727D01*
G01X21023953Y-3440569D01*
G01X20972391Y-3440569D01*
G01X21168733Y-3417709D02*
G01X21168733Y-3497719D01*
G01X21168733Y-3434727D02*
G01X21157303Y-3423297D01*
G01X21145873Y-3417709D01*
G01X21128855Y-3417709D01*
G01X21117425Y-3423297D01*
G01X21105995Y-3434727D01*
G01X21100153Y-3451999D01*
G01X21100153Y-3463429D01*
G01X21105995Y-3480447D01*
G01X21117425Y-3491877D01*
G01X21128855Y-3497719D01*
G01X21145873Y-3497719D01*
G01X21157303Y-3491877D01*
G01X21168733Y-3480447D01*
G01X21285065Y-3377577D02*
G01X21285065Y-3497719D01*
G01X21285065Y-3434727D02*
G01X21273635Y-3423297D01*
G01X21262205Y-3417709D01*
G01X21245187Y-3417709D01*
G01X21233757Y-3423297D01*
G01X21222327Y-3434727D01*
G01X21216485Y-3451999D01*
G01X21216485Y-3463429D01*
G01X21222327Y-3480447D01*
G01X21233757Y-3491877D01*
G01X21245187Y-3497719D01*
G01X21262205Y-3497719D01*
G01X21273635Y-3491877D01*
G01X21285065Y-3480447D01*
G01X22641570Y-3377577D02*
G01X22641570Y-3497719D01*
G01X22641570Y-3377577D02*
G01X22693132Y-3377577D01*
G01X22710150Y-3383419D01*
G01X22715992Y-3389007D01*
G01X22721580Y-3400437D01*
G01X22721580Y-3411867D01*
G01X22715992Y-3423297D01*
G01X22710150Y-3429139D01*
G01X22693132Y-3434727D01*
G01X22641570Y-3434727D01*
G01X22681702Y-3434727D02*
G01X22721580Y-3497719D01*
G01X22798034Y-3417709D02*
G01X22786604Y-3423297D01*
G01X22775174Y-3434727D01*
G01X22769332Y-3451999D01*
G01X22769332Y-3463429D01*
G01X22775174Y-3480447D01*
G01X22786604Y-3491877D01*
G01X22798034Y-3497719D01*
G01X22815052Y-3497719D01*
G01X22826482Y-3491877D01*
G01X22837912Y-3480447D01*
G01X22843754Y-3463429D01*
G01X22843754Y-3451999D01*
G01X22837912Y-3434727D01*
G01X22826482Y-3423297D01*
G01X22815052Y-3417709D01*
G01X22798034Y-3417709D01*
G01X22891506Y-3417709D02*
G01X22891506Y-3474859D01*
G01X22897348Y-3491877D01*
G01X22908778Y-3497719D01*
G01X22925796Y-3497719D01*
G01X22937226Y-3491877D01*
G01X22954498Y-3474859D01*
G01X22954498Y-3417709D02*
G01X22954498Y-3497719D01*
G01X23002250Y-3417709D02*
G01X23002250Y-3497719D01*
G01X23002250Y-3440569D02*
G01X23019522Y-3423297D01*
G01X23030952Y-3417709D01*
G01X23047970Y-3417709D01*
G01X23059400Y-3423297D01*
G01X23065242Y-3440569D01*
G01X23065242Y-3497719D01*
G01X23181574Y-3377577D02*
G01X23181574Y-3497719D01*
G01X23181574Y-3434727D02*
G01X23170144Y-3423297D01*
G01X23158714Y-3417709D01*
G01X23141696Y-3417709D01*
G01X23130266Y-3423297D01*
G01X23118836Y-3434727D01*
G01X23112994Y-3451999D01*
G01X23112994Y-3463429D01*
G01X23118836Y-3480447D01*
G01X23130266Y-3491877D01*
G01X23141696Y-3497719D01*
G01X23158714Y-3497719D01*
G01X23170144Y-3491877D01*
G01X23181574Y-3480447D01*
G01X24601071Y-3377577D02*
G01X24601071Y-3497719D01*
G01X24560939Y-3377577D02*
G01X24640949Y-3377577D01*
G01X24717403Y-3417709D02*
G01X24705973Y-3423297D01*
G01X24694543Y-3434727D01*
G01X24688701Y-3451999D01*
G01X24688701Y-3463429D01*
G01X24694543Y-3480447D01*
G01X24705973Y-3491877D01*
G01X24717403Y-3497719D01*
G01X24734421Y-3497719D01*
G01X24745851Y-3491877D01*
G01X24757281Y-3480447D01*
G01X24763123Y-3463429D01*
G01X24763123Y-3451999D01*
G01X24757281Y-3434727D01*
G01X24745851Y-3423297D01*
G01X24734421Y-3417709D01*
G01X24717403Y-3417709D01*
G01X24810875Y-3417709D02*
G01X24810875Y-3537597D01*
G01X24810875Y-3434727D02*
G01X24822305Y-3423297D01*
G01X24833735Y-3417709D01*
G01X24851007Y-3417709D01*
G01X24862437Y-3423297D01*
G01X24873867Y-3434727D01*
G01X24879455Y-3451999D01*
G01X24879455Y-3463429D01*
G01X24873867Y-3480447D01*
G01X24862437Y-3491877D01*
G01X24851007Y-3497719D01*
G01X24833735Y-3497719D01*
G01X24822305Y-3491877D01*
G01X24810875Y-3480447D01*
G01X25055223Y-3377577D02*
G01X25055223Y-3497719D01*
G01X25055223Y-3497719D02*
G01X25123803Y-3497719D01*
G01X25240135Y-3417709D02*
G01X25240135Y-3497719D01*
G01X25240135Y-3434727D02*
G01X25228705Y-3423297D01*
G01X25217275Y-3417709D01*
G01X25200257Y-3417709D01*
G01X25188827Y-3423297D01*
G01X25177397Y-3434727D01*
G01X25171555Y-3451999D01*
G01X25171555Y-3463429D01*
G01X25177397Y-3480447D01*
G01X25188827Y-3491877D01*
G01X25200257Y-3497719D01*
G01X25217275Y-3497719D01*
G01X25228705Y-3491877D01*
G01X25240135Y-3480447D01*
G01X25293729Y-3417709D02*
G01X25328019Y-3497719D01*
G01X25362309Y-3417709D02*
G01X25328019Y-3497719D01*
G01X25316589Y-3520579D01*
G01X25305159Y-3532009D01*
G01X25293729Y-3537597D01*
G01X25287887Y-3537597D01*
G01X25410061Y-3451999D02*
G01X25478641Y-3451999D01*
G01X25478641Y-3440569D01*
G01X25473053Y-3429139D01*
G01X25467211Y-3423297D01*
G01X25455781Y-3417709D01*
G01X25438763Y-3417709D01*
G01X25427333Y-3423297D01*
G01X25415903Y-3434727D01*
G01X25410061Y-3451999D01*
G01X25410061Y-3463429D01*
G01X25415903Y-3480447D01*
G01X25427333Y-3491877D01*
G01X25438763Y-3497719D01*
G01X25455781Y-3497719D01*
G01X25467211Y-3491877D01*
G01X25478641Y-3480447D01*
G01X25526393Y-3417709D02*
G01X25526393Y-3497719D01*
G01X25526393Y-3451999D02*
G01X25532235Y-3434727D01*
G01X25543665Y-3423297D01*
G01X25555095Y-3417709D01*
G01X25572113Y-3417709D01*
G01X25619865Y-3446157D02*
G01X25722735Y-3446157D01*
G01X25770487Y-3377577D02*
G01X25770487Y-3497719D01*
G01X25770487Y-3377577D02*
G01X25822049Y-3377577D01*
G01X25839067Y-3383419D01*
G01X25844909Y-3389007D01*
G01X25850497Y-3400437D01*
G01X25850497Y-3411867D01*
G01X25844909Y-3423297D01*
G01X25839067Y-3429139D01*
G01X25822049Y-3434727D01*
G01X25770487Y-3434727D02*
G01X25822049Y-3434727D01*
G01X25839067Y-3440569D01*
G01X25844909Y-3446157D01*
G01X25850497Y-3457587D01*
G01X25850497Y-3474859D01*
G01X25844909Y-3486289D01*
G01X25839067Y-3491877D01*
G01X25822049Y-3497719D01*
G01X25770487Y-3497719D01*
G01X25926951Y-3417709D02*
G01X25915521Y-3423297D01*
G01X25904091Y-3434727D01*
G01X25898249Y-3451999D01*
G01X25898249Y-3463429D01*
G01X25904091Y-3480447D01*
G01X25915521Y-3491877D01*
G01X25926951Y-3497719D01*
G01X25943969Y-3497719D01*
G01X25955399Y-3491877D01*
G01X25966829Y-3480447D01*
G01X25972671Y-3463429D01*
G01X25972671Y-3451999D01*
G01X25966829Y-3434727D01*
G01X25955399Y-3423297D01*
G01X25943969Y-3417709D01*
G01X25926951Y-3417709D01*
G01X26037695Y-3377577D02*
G01X26037695Y-3474859D01*
G01X26043283Y-3491877D01*
G01X26054713Y-3497719D01*
G01X26066143Y-3497719D01*
G01X26020423Y-3417709D02*
G01X26060555Y-3417709D01*
G01X26131167Y-3377577D02*
G01X26131167Y-3474859D01*
G01X26136755Y-3491877D01*
G01X26148185Y-3497719D01*
G01X26159615Y-3497719D01*
G01X26113895Y-3417709D02*
G01X26154027Y-3417709D01*
G01X26236069Y-3417709D02*
G01X26224639Y-3423297D01*
G01X26213209Y-3434727D01*
G01X26207367Y-3451999D01*
G01X26207367Y-3463429D01*
G01X26213209Y-3480447D01*
G01X26224639Y-3491877D01*
G01X26236069Y-3497719D01*
G01X26253087Y-3497719D01*
G01X26264517Y-3491877D01*
G01X26275947Y-3480447D01*
G01X26281789Y-3463429D01*
G01X26281789Y-3451999D01*
G01X26275947Y-3434727D01*
G01X26264517Y-3423297D01*
G01X26253087Y-3417709D01*
G01X26236069Y-3417709D01*
G01X26329541Y-3417709D02*
G01X26329541Y-3497719D01*
G01X26329541Y-3440569D02*
G01X26346813Y-3423297D01*
G01X26358243Y-3417709D01*
G01X26375261Y-3417709D01*
G01X26386691Y-3423297D01*
G01X26392533Y-3440569D01*
G01X26392533Y-3497719D01*
G01X26392533Y-3440569D02*
G01X26409551Y-3423297D01*
G01X26420981Y-3417709D01*
G01X26438253Y-3417709D01*
G01X26449683Y-3423297D01*
G01X26455271Y-3440569D01*
G01X26455271Y-3497719D01*
G01X26631039Y-3377577D02*
G01X26631039Y-3497719D01*
G01X26631039Y-3497719D02*
G01X26699619Y-3497719D01*
G01X26815951Y-3417709D02*
G01X26815951Y-3497719D01*
G01X26815951Y-3434727D02*
G01X26804521Y-3423297D01*
G01X26793091Y-3417709D01*
G01X26776073Y-3417709D01*
G01X26764643Y-3423297D01*
G01X26753213Y-3434727D01*
G01X26747371Y-3451999D01*
G01X26747371Y-3463429D01*
G01X26753213Y-3480447D01*
G01X26764643Y-3491877D01*
G01X26776073Y-3497719D01*
G01X26793091Y-3497719D01*
G01X26804521Y-3491877D01*
G01X26815951Y-3480447D01*
G01X26869545Y-3417709D02*
G01X26903835Y-3497719D01*
G01X26938125Y-3417709D02*
G01X26903835Y-3497719D01*
G01X26892405Y-3520579D01*
G01X26880975Y-3532009D01*
G01X26869545Y-3537597D01*
G01X26863703Y-3537597D01*
G01X26985877Y-3451999D02*
G01X27054457Y-3451999D01*
G01X27054457Y-3440569D01*
G01X27048869Y-3429139D01*
G01X27043027Y-3423297D01*
G01X27031597Y-3417709D01*
G01X27014579Y-3417709D01*
G01X27003149Y-3423297D01*
G01X26991719Y-3434727D01*
G01X26985877Y-3451999D01*
G01X26985877Y-3463429D01*
G01X26991719Y-3480447D01*
G01X27003149Y-3491877D01*
G01X27014579Y-3497719D01*
G01X27031597Y-3497719D01*
G01X27043027Y-3491877D01*
G01X27054457Y-3480447D01*
G01X27102209Y-3417709D02*
G01X27102209Y-3497719D01*
G01X27102209Y-3451999D02*
G01X27108051Y-3434727D01*
G01X27119481Y-3423297D01*
G01X27130911Y-3417709D01*
G01X27147929Y-3417709D01*
G01X12777516Y-3986850D02*
G01X12777516Y-3981008D01*
G01X12783104Y-3969578D01*
G01X12788946Y-3963990D01*
G01X12800376Y-3958148D01*
G01X12823236Y-3958148D01*
G01X12834666Y-3963990D01*
G01X12840254Y-3969578D01*
G01X12846096Y-3981008D01*
G01X12846096Y-3992438D01*
G01X12840254Y-4003868D01*
G01X12828824Y-4021140D01*
G01X12771674Y-4078290D01*
G01X12851684Y-4078290D01*
G01X14197268Y-3958148D02*
G01X14260260Y-3958148D01*
G01X14225970Y-4003868D01*
G01X14242988Y-4003868D01*
G01X14254418Y-4009710D01*
G01X14260260Y-4015298D01*
G01X14265848Y-4032570D01*
G01X14265848Y-4044000D01*
G01X14260260Y-4061018D01*
G01X14248830Y-4072448D01*
G01X14231558Y-4078290D01*
G01X14214540Y-4078290D01*
G01X14197268Y-4072448D01*
G01X14191680Y-4066860D01*
G01X14185838Y-4055430D01*
G01X14313600Y-3981008D02*
G01X14325030Y-3975420D01*
G01X14342302Y-3958148D01*
G01X14342302Y-4078290D01*
G01X14395896Y-4049588D02*
G01X14390054Y-4055430D01*
G01X14395896Y-4061018D01*
G01X14401484Y-4055430D01*
G01X14395896Y-4049588D01*
G01X14517816Y-3958148D02*
G01X14460666Y-3958148D01*
G01X14455078Y-4009710D01*
G01X14460666Y-4003868D01*
G01X14477938Y-3998280D01*
G01X14494956Y-3998280D01*
G01X14512228Y-4003868D01*
G01X14523658Y-4015298D01*
G01X14529246Y-4032570D01*
G01X14529246Y-4044000D01*
G01X14523658Y-4061018D01*
G01X14512228Y-4072448D01*
G01X14494956Y-4078290D01*
G01X14477938Y-4078290D01*
G01X14460666Y-4072448D01*
G01X14455078Y-4066860D01*
G01X14449236Y-4055430D01*
G01X14576998Y-3998280D02*
G01X14639990Y-4078290D01*
G01X14639990Y-3998280D02*
G01X14576998Y-4078290D01*
G01X14744892Y-3958148D02*
G01X14687742Y-4038158D01*
G01X14773594Y-4038158D01*
G01X14744892Y-3958148D02*
G01X14744892Y-4078290D01*
G01X14901356Y-3958148D02*
G01X14844206Y-4078290D01*
G01X14821346Y-3958148D02*
G01X14901356Y-3958148D01*
G01X14954950Y-4049588D02*
G01X14949108Y-4055430D01*
G01X14954950Y-4061018D01*
G01X14960538Y-4055430D01*
G01X14954950Y-4049588D01*
G01X15014132Y-3986850D02*
G01X15014132Y-3981008D01*
G01X15019720Y-3969578D01*
G01X15025562Y-3963990D01*
G01X15036992Y-3958148D01*
G01X15059852Y-3958148D01*
G01X15071282Y-3963990D01*
G01X15076870Y-3969578D01*
G01X15082712Y-3981008D01*
G01X15082712Y-3992438D01*
G01X15076870Y-4003868D01*
G01X15065440Y-4021140D01*
G01X15008290Y-4078290D01*
G01X15088300Y-4078290D01*
G01X15136052Y-3998280D02*
G01X15136052Y-4078290D01*
G01X15136052Y-4021140D02*
G01X15153324Y-4003868D01*
G01X15164754Y-3998280D01*
G01X15181772Y-3998280D01*
G01X15193202Y-4003868D01*
G01X15199044Y-4021140D01*
G01X15199044Y-4078290D01*
G01X15199044Y-4021140D02*
G01X15216062Y-4003868D01*
G01X15227492Y-3998280D01*
G01X15244764Y-3998280D01*
G01X15256194Y-4003868D01*
G01X15261782Y-4021140D01*
G01X15261782Y-4078290D01*
G01X15309534Y-3958148D02*
G01X15315376Y-3963990D01*
G01X15320964Y-3958148D01*
G01X15315376Y-3952560D01*
G01X15309534Y-3958148D01*
G01X15315376Y-3998280D02*
G01X15315376Y-4078290D01*
G01X15368716Y-3958148D02*
G01X15368716Y-4078290D01*
G01X15456600Y-3935288D02*
G01X15445170Y-3946718D01*
G01X15433740Y-3963990D01*
G01X15422310Y-3986850D01*
G01X15416468Y-4015298D01*
G01X15416468Y-4038158D01*
G01X15422310Y-4066860D01*
G01X15433740Y-4089720D01*
G01X15445170Y-4106738D01*
G01X15456600Y-4118168D01*
G01X15538642Y-3958148D02*
G01X15521624Y-3963990D01*
G01X15510194Y-3981008D01*
G01X15504352Y-4009710D01*
G01X15504352Y-4026728D01*
G01X15510194Y-4055430D01*
G01X15521624Y-4072448D01*
G01X15538642Y-4078290D01*
G01X15550072Y-4078290D01*
G01X15567344Y-4072448D01*
G01X15578774Y-4055430D01*
G01X15584362Y-4026728D01*
G01X15584362Y-4009710D01*
G01X15578774Y-3981008D01*
G01X15567344Y-3963990D01*
G01X15550072Y-3958148D01*
G01X15538642Y-3958148D01*
G01X15637956Y-4049588D02*
G01X15632114Y-4055430D01*
G01X15637956Y-4061018D01*
G01X15643544Y-4055430D01*
G01X15637956Y-4049588D01*
G01X15719998Y-3958148D02*
G01X15702726Y-3963990D01*
G01X15697138Y-3975420D01*
G01X15697138Y-3986850D01*
G01X15702726Y-3998280D01*
G01X15714156Y-4003868D01*
G01X15737016Y-4009710D01*
G01X15754288Y-4015298D01*
G01X15765718Y-4026728D01*
G01X15771306Y-4038158D01*
G01X15771306Y-4055430D01*
G01X15765718Y-4066860D01*
G01X15759876Y-4072448D01*
G01X15742858Y-4078290D01*
G01X15719998Y-4078290D01*
G01X15702726Y-4072448D01*
G01X15697138Y-4066860D01*
G01X15691296Y-4055430D01*
G01X15691296Y-4038158D01*
G01X15697138Y-4026728D01*
G01X15708568Y-4015298D01*
G01X15725586Y-4009710D01*
G01X15748446Y-4003868D01*
G01X15759876Y-3998280D01*
G01X15765718Y-3986850D01*
G01X15765718Y-3975420D01*
G01X15759876Y-3963990D01*
G01X15742858Y-3958148D01*
G01X15719998Y-3958148D01*
G01X15853348Y-3958148D02*
G01X15836330Y-3963990D01*
G01X15824900Y-3981008D01*
G01X15819058Y-4009710D01*
G01X15819058Y-4026728D01*
G01X15824900Y-4055430D01*
G01X15836330Y-4072448D01*
G01X15853348Y-4078290D01*
G01X15864778Y-4078290D01*
G01X15882050Y-4072448D01*
G01X15893480Y-4055430D01*
G01X15899068Y-4026728D01*
G01X15899068Y-4009710D01*
G01X15893480Y-3981008D01*
G01X15882050Y-3963990D01*
G01X15864778Y-3958148D01*
G01X15853348Y-3958148D01*
G01X15981110Y-3958148D02*
G01X15964092Y-3963990D01*
G01X15952662Y-3981008D01*
G01X15946820Y-4009710D01*
G01X15946820Y-4026728D01*
G01X15952662Y-4055430D01*
G01X15964092Y-4072448D01*
G01X15981110Y-4078290D01*
G01X15992540Y-4078290D01*
G01X16009812Y-4072448D01*
G01X16021242Y-4055430D01*
G01X16026830Y-4026728D01*
G01X16026830Y-4009710D01*
G01X16021242Y-3981008D01*
G01X16009812Y-3963990D01*
G01X15992540Y-3958148D01*
G01X15981110Y-3958148D01*
G01X16074582Y-3998280D02*
G01X16137574Y-4078290D01*
G01X16137574Y-3998280D02*
G01X16074582Y-4078290D01*
G01X16185326Y-3981008D02*
G01X16196756Y-3975420D01*
G01X16214028Y-3958148D01*
G01X16214028Y-4078290D01*
G01X16267622Y-4049588D02*
G01X16261780Y-4055430D01*
G01X16267622Y-4061018D01*
G01X16273210Y-4055430D01*
G01X16267622Y-4049588D01*
G01X16326804Y-3986850D02*
G01X16326804Y-3981008D01*
G01X16332392Y-3969578D01*
G01X16338234Y-3963990D01*
G01X16349664Y-3958148D01*
G01X16372524Y-3958148D01*
G01X16383954Y-3963990D01*
G01X16389542Y-3969578D01*
G01X16395384Y-3981008D01*
G01X16395384Y-3992438D01*
G01X16389542Y-4003868D01*
G01X16378112Y-4021140D01*
G01X16320962Y-4078290D01*
G01X16400972Y-4078290D01*
G01X16483014Y-3958148D02*
G01X16465996Y-3963990D01*
G01X16454566Y-3981008D01*
G01X16448724Y-4009710D01*
G01X16448724Y-4026728D01*
G01X16454566Y-4055430D01*
G01X16465996Y-4072448D01*
G01X16483014Y-4078290D01*
G01X16494444Y-4078290D01*
G01X16511716Y-4072448D01*
G01X16523146Y-4055430D01*
G01X16528734Y-4026728D01*
G01X16528734Y-4009710D01*
G01X16523146Y-3981008D01*
G01X16511716Y-3963990D01*
G01X16494444Y-3958148D01*
G01X16483014Y-3958148D01*
G01X16610776Y-3958148D02*
G01X16593758Y-3963990D01*
G01X16582328Y-3981008D01*
G01X16576486Y-4009710D01*
G01X16576486Y-4026728D01*
G01X16582328Y-4055430D01*
G01X16593758Y-4072448D01*
G01X16610776Y-4078290D01*
G01X16622206Y-4078290D01*
G01X16639478Y-4072448D01*
G01X16650908Y-4055430D01*
G01X16656496Y-4026728D01*
G01X16656496Y-4009710D01*
G01X16650908Y-3981008D01*
G01X16639478Y-3963990D01*
G01X16622206Y-3958148D01*
G01X16610776Y-3958148D01*
G01X16704248Y-3998280D02*
G01X16704248Y-4078290D01*
G01X16704248Y-4021140D02*
G01X16721520Y-4003868D01*
G01X16732950Y-3998280D01*
G01X16749968Y-3998280D01*
G01X16761398Y-4003868D01*
G01X16767240Y-4021140D01*
G01X16767240Y-4078290D01*
G01X16767240Y-4021140D02*
G01X16784258Y-4003868D01*
G01X16795688Y-3998280D01*
G01X16812960Y-3998280D01*
G01X16824390Y-4003868D01*
G01X16829978Y-4021140D01*
G01X16829978Y-4078290D01*
G01X16877730Y-3998280D02*
G01X16877730Y-4078290D01*
G01X16877730Y-4021140D02*
G01X16895002Y-4003868D01*
G01X16906432Y-3998280D01*
G01X16923450Y-3998280D01*
G01X16934880Y-4003868D01*
G01X16940722Y-4021140D01*
G01X16940722Y-4078290D01*
G01X16940722Y-4021140D02*
G01X16957740Y-4003868D01*
G01X16969170Y-3998280D01*
G01X16986442Y-3998280D01*
G01X16997872Y-4003868D01*
G01X17003460Y-4021140D01*
G01X17003460Y-4078290D01*
G01X17051212Y-3935288D02*
G01X17062642Y-3946718D01*
G01X17074072Y-3963990D01*
G01X17085502Y-3986850D01*
G01X17091344Y-4015298D01*
G01X17091344Y-4038158D01*
G01X17085502Y-4066860D01*
G01X17074072Y-4089720D01*
G01X17062642Y-4106738D01*
G01X17051212Y-4118168D01*
G01X18079803Y-3958148D02*
G01X18079803Y-4078290D01*
G01X18079803Y-3958148D02*
G01X18131365Y-3958148D01*
G01X18148383Y-3963990D01*
G01X18154225Y-3969578D01*
G01X18159813Y-3981008D01*
G01X18159813Y-3998280D01*
G01X18154225Y-4009710D01*
G01X18148383Y-4015298D01*
G01X18131365Y-4021140D01*
G01X18079803Y-4021140D01*
G01X18247697Y-3958148D02*
G01X18247697Y-4078290D01*
G01X18207565Y-3958148D02*
G01X18287575Y-3958148D01*
G01X18335327Y-3958148D02*
G01X18335327Y-4078290D01*
G01X18415337Y-3958148D02*
G01X18415337Y-4078290D01*
G01X18335327Y-4015298D02*
G01X18415337Y-4015298D01*
G01X19621220Y-3975420D02*
G01X19609790Y-3963990D01*
G01X19592772Y-3958148D01*
G01X19569912Y-3958148D01*
G01X19552640Y-3963990D01*
G01X19541210Y-3975420D01*
G01X19541210Y-3986850D01*
G01X19547052Y-3998280D01*
G01X19552640Y-4003868D01*
G01X19564070Y-4009710D01*
G01X19598360Y-4021140D01*
G01X19609790Y-4026728D01*
G01X19615632Y-4032570D01*
G01X19621220Y-4044000D01*
G01X19621220Y-4061018D01*
G01X19609790Y-4072448D01*
G01X19592772Y-4078290D01*
G01X19569912Y-4078290D01*
G01X19552640Y-4072448D01*
G01X19541210Y-4061018D01*
G01X19668972Y-3958148D02*
G01X19668972Y-4078290D01*
G01X19745426Y-3998280D02*
G01X19733996Y-4003868D01*
G01X19722566Y-4015298D01*
G01X19716724Y-4032570D01*
G01X19716724Y-4044000D01*
G01X19722566Y-4061018D01*
G01X19733996Y-4072448D01*
G01X19745426Y-4078290D01*
G01X19762444Y-4078290D01*
G01X19773874Y-4072448D01*
G01X19785304Y-4061018D01*
G01X19791146Y-4044000D01*
G01X19791146Y-4032570D01*
G01X19785304Y-4015298D01*
G01X19773874Y-4003868D01*
G01X19762444Y-3998280D01*
G01X19745426Y-3998280D01*
G01X19856170Y-3958148D02*
G01X19856170Y-4055430D01*
G01X19861758Y-4072448D01*
G01X19873188Y-4078290D01*
G01X19884618Y-4078290D01*
G01X19838898Y-3998280D02*
G01X19879030Y-3998280D01*
G01X20972391Y-3958148D02*
G01X20972391Y-4078290D01*
G01X20972391Y-3958148D02*
G01X21023953Y-3958148D01*
G01X21040971Y-3963990D01*
G01X21046813Y-3969578D01*
G01X21052401Y-3981008D01*
G01X21052401Y-3998280D01*
G01X21046813Y-4009710D01*
G01X21040971Y-4015298D01*
G01X21023953Y-4021140D01*
G01X20972391Y-4021140D01*
G01X21168733Y-3998280D02*
G01X21168733Y-4078290D01*
G01X21168733Y-4015298D02*
G01X21157303Y-4003868D01*
G01X21145873Y-3998280D01*
G01X21128855Y-3998280D01*
G01X21117425Y-4003868D01*
G01X21105995Y-4015298D01*
G01X21100153Y-4032570D01*
G01X21100153Y-4044000D01*
G01X21105995Y-4061018D01*
G01X21117425Y-4072448D01*
G01X21128855Y-4078290D01*
G01X21145873Y-4078290D01*
G01X21157303Y-4072448D01*
G01X21168733Y-4061018D01*
G01X21285065Y-3958148D02*
G01X21285065Y-4078290D01*
G01X21285065Y-4015298D02*
G01X21273635Y-4003868D01*
G01X21262205Y-3998280D01*
G01X21245187Y-3998280D01*
G01X21233757Y-4003868D01*
G01X21222327Y-4015298D01*
G01X21216485Y-4032570D01*
G01X21216485Y-4044000D01*
G01X21222327Y-4061018D01*
G01X21233757Y-4072448D01*
G01X21245187Y-4078290D01*
G01X21262205Y-4078290D01*
G01X21273635Y-4072448D01*
G01X21285065Y-4061018D01*
G01X22675860Y-3958148D02*
G01X22664430Y-3963990D01*
G01X22653000Y-3975420D01*
G01X22647412Y-3986850D01*
G01X22641570Y-4003868D01*
G01X22641570Y-4032570D01*
G01X22647412Y-4049588D01*
G01X22653000Y-4061018D01*
G01X22664430Y-4072448D01*
G01X22675860Y-4078290D01*
G01X22698720Y-4078290D01*
G01X22710150Y-4072448D01*
G01X22721580Y-4061018D01*
G01X22727422Y-4049588D01*
G01X22733010Y-4032570D01*
G01X22733010Y-4003868D01*
G01X22727422Y-3986850D01*
G01X22721580Y-3975420D01*
G01X22710150Y-3963990D01*
G01X22698720Y-3958148D01*
G01X22675860Y-3958148D01*
G01X22780762Y-3998280D02*
G01X22815052Y-4078290D01*
G01X22849342Y-3998280D02*
G01X22815052Y-4078290D01*
G01X22965674Y-3998280D02*
G01X22965674Y-4078290D01*
G01X22965674Y-4015298D02*
G01X22954244Y-4003868D01*
G01X22942814Y-3998280D01*
G01X22925796Y-3998280D01*
G01X22914366Y-4003868D01*
G01X22902936Y-4015298D01*
G01X22897094Y-4032570D01*
G01X22897094Y-4044000D01*
G01X22902936Y-4061018D01*
G01X22914366Y-4072448D01*
G01X22925796Y-4078290D01*
G01X22942814Y-4078290D01*
G01X22954244Y-4072448D01*
G01X22965674Y-4061018D01*
G01X23013426Y-3958148D02*
G01X23013426Y-4078290D01*
G01X24601071Y-3958148D02*
G01X24601071Y-4078290D01*
G01X24560939Y-3958148D02*
G01X24640949Y-3958148D01*
G01X24717403Y-3998280D02*
G01X24705973Y-4003868D01*
G01X24694543Y-4015298D01*
G01X24688701Y-4032570D01*
G01X24688701Y-4044000D01*
G01X24694543Y-4061018D01*
G01X24705973Y-4072448D01*
G01X24717403Y-4078290D01*
G01X24734421Y-4078290D01*
G01X24745851Y-4072448D01*
G01X24757281Y-4061018D01*
G01X24763123Y-4044000D01*
G01X24763123Y-4032570D01*
G01X24757281Y-4015298D01*
G01X24745851Y-4003868D01*
G01X24734421Y-3998280D01*
G01X24717403Y-3998280D01*
G01X24810875Y-3998280D02*
G01X24810875Y-4118168D01*
G01X24810875Y-4015298D02*
G01X24822305Y-4003868D01*
G01X24833735Y-3998280D01*
G01X24851007Y-3998280D01*
G01X24862437Y-4003868D01*
G01X24873867Y-4015298D01*
G01X24879455Y-4032570D01*
G01X24879455Y-4044000D01*
G01X24873867Y-4061018D01*
G01X24862437Y-4072448D01*
G01X24851007Y-4078290D01*
G01X24833735Y-4078290D01*
G01X24822305Y-4072448D01*
G01X24810875Y-4061018D01*
G01X25055223Y-3958148D02*
G01X25055223Y-4078290D01*
G01X25055223Y-4078290D02*
G01X25123803Y-4078290D01*
G01X25240135Y-3998280D02*
G01X25240135Y-4078290D01*
G01X25240135Y-4015298D02*
G01X25228705Y-4003868D01*
G01X25217275Y-3998280D01*
G01X25200257Y-3998280D01*
G01X25188827Y-4003868D01*
G01X25177397Y-4015298D01*
G01X25171555Y-4032570D01*
G01X25171555Y-4044000D01*
G01X25177397Y-4061018D01*
G01X25188827Y-4072448D01*
G01X25200257Y-4078290D01*
G01X25217275Y-4078290D01*
G01X25228705Y-4072448D01*
G01X25240135Y-4061018D01*
G01X25293729Y-3998280D02*
G01X25328019Y-4078290D01*
G01X25362309Y-3998280D02*
G01X25328019Y-4078290D01*
G01X25316589Y-4101150D01*
G01X25305159Y-4112580D01*
G01X25293729Y-4118168D01*
G01X25287887Y-4118168D01*
G01X25410061Y-4032570D02*
G01X25478641Y-4032570D01*
G01X25478641Y-4021140D01*
G01X25473053Y-4009710D01*
G01X25467211Y-4003868D01*
G01X25455781Y-3998280D01*
G01X25438763Y-3998280D01*
G01X25427333Y-4003868D01*
G01X25415903Y-4015298D01*
G01X25410061Y-4032570D01*
G01X25410061Y-4044000D01*
G01X25415903Y-4061018D01*
G01X25427333Y-4072448D01*
G01X25438763Y-4078290D01*
G01X25455781Y-4078290D01*
G01X25467211Y-4072448D01*
G01X25478641Y-4061018D01*
G01X25526393Y-3998280D02*
G01X25526393Y-4078290D01*
G01X25526393Y-4032570D02*
G01X25532235Y-4015298D01*
G01X25543665Y-4003868D01*
G01X25555095Y-3998280D01*
G01X25572113Y-3998280D01*
G01X25619865Y-4026728D02*
G01X25722735Y-4026728D01*
G01X25770487Y-3958148D02*
G01X25770487Y-4078290D01*
G01X25770487Y-3958148D02*
G01X25822049Y-3958148D01*
G01X25839067Y-3963990D01*
G01X25844909Y-3969578D01*
G01X25850497Y-3981008D01*
G01X25850497Y-3992438D01*
G01X25844909Y-4003868D01*
G01X25839067Y-4009710D01*
G01X25822049Y-4015298D01*
G01X25770487Y-4015298D02*
G01X25822049Y-4015298D01*
G01X25839067Y-4021140D01*
G01X25844909Y-4026728D01*
G01X25850497Y-4038158D01*
G01X25850497Y-4055430D01*
G01X25844909Y-4066860D01*
G01X25839067Y-4072448D01*
G01X25822049Y-4078290D01*
G01X25770487Y-4078290D01*
G01X25926951Y-3998280D02*
G01X25915521Y-4003868D01*
G01X25904091Y-4015298D01*
G01X25898249Y-4032570D01*
G01X25898249Y-4044000D01*
G01X25904091Y-4061018D01*
G01X25915521Y-4072448D01*
G01X25926951Y-4078290D01*
G01X25943969Y-4078290D01*
G01X25955399Y-4072448D01*
G01X25966829Y-4061018D01*
G01X25972671Y-4044000D01*
G01X25972671Y-4032570D01*
G01X25966829Y-4015298D01*
G01X25955399Y-4003868D01*
G01X25943969Y-3998280D01*
G01X25926951Y-3998280D01*
G01X26037695Y-3958148D02*
G01X26037695Y-4055430D01*
G01X26043283Y-4072448D01*
G01X26054713Y-4078290D01*
G01X26066143Y-4078290D01*
G01X26020423Y-3998280D02*
G01X26060555Y-3998280D01*
G01X26131167Y-3958148D02*
G01X26131167Y-4055430D01*
G01X26136755Y-4072448D01*
G01X26148185Y-4078290D01*
G01X26159615Y-4078290D01*
G01X26113895Y-3998280D02*
G01X26154027Y-3998280D01*
G01X26236069Y-3998280D02*
G01X26224639Y-4003868D01*
G01X26213209Y-4015298D01*
G01X26207367Y-4032570D01*
G01X26207367Y-4044000D01*
G01X26213209Y-4061018D01*
G01X26224639Y-4072448D01*
G01X26236069Y-4078290D01*
G01X26253087Y-4078290D01*
G01X26264517Y-4072448D01*
G01X26275947Y-4061018D01*
G01X26281789Y-4044000D01*
G01X26281789Y-4032570D01*
G01X26275947Y-4015298D01*
G01X26264517Y-4003868D01*
G01X26253087Y-3998280D01*
G01X26236069Y-3998280D01*
G01X26329541Y-3998280D02*
G01X26329541Y-4078290D01*
G01X26329541Y-4021140D02*
G01X26346813Y-4003868D01*
G01X26358243Y-3998280D01*
G01X26375261Y-3998280D01*
G01X26386691Y-4003868D01*
G01X26392533Y-4021140D01*
G01X26392533Y-4078290D01*
G01X26392533Y-4021140D02*
G01X26409551Y-4003868D01*
G01X26420981Y-3998280D01*
G01X26438253Y-3998280D01*
G01X26449683Y-4003868D01*
G01X26455271Y-4021140D01*
G01X26455271Y-4078290D01*
G01X26631039Y-3958148D02*
G01X26631039Y-4078290D01*
G01X26631039Y-4078290D02*
G01X26699619Y-4078290D01*
G01X26815951Y-3998280D02*
G01X26815951Y-4078290D01*
G01X26815951Y-4015298D02*
G01X26804521Y-4003868D01*
G01X26793091Y-3998280D01*
G01X26776073Y-3998280D01*
G01X26764643Y-4003868D01*
G01X26753213Y-4015298D01*
G01X26747371Y-4032570D01*
G01X26747371Y-4044000D01*
G01X26753213Y-4061018D01*
G01X26764643Y-4072448D01*
G01X26776073Y-4078290D01*
G01X26793091Y-4078290D01*
G01X26804521Y-4072448D01*
G01X26815951Y-4061018D01*
G01X26869545Y-3998280D02*
G01X26903835Y-4078290D01*
G01X26938125Y-3998280D02*
G01X26903835Y-4078290D01*
G01X26892405Y-4101150D01*
G01X26880975Y-4112580D01*
G01X26869545Y-4118168D01*
G01X26863703Y-4118168D01*
G01X26985877Y-4032570D02*
G01X27054457Y-4032570D01*
G01X27054457Y-4021140D01*
G01X27048869Y-4009710D01*
G01X27043027Y-4003868D01*
G01X27031597Y-3998280D01*
G01X27014579Y-3998280D01*
G01X27003149Y-4003868D01*
G01X26991719Y-4015298D01*
G01X26985877Y-4032570D01*
G01X26985877Y-4044000D01*
G01X26991719Y-4061018D01*
G01X27003149Y-4072448D01*
G01X27014579Y-4078290D01*
G01X27031597Y-4078290D01*
G01X27043027Y-4072448D01*
G01X27054457Y-4061018D01*
G01X27102209Y-3998280D02*
G01X27102209Y-4078290D01*
G01X27102209Y-4032570D02*
G01X27108051Y-4015298D01*
G01X27119481Y-4003868D01*
G01X27130911Y-3998280D01*
G01X27147929Y-3998280D01*
G01X12777516Y-4567422D02*
G01X12777516Y-4561580D01*
G01X12783104Y-4550150D01*
G01X12788946Y-4544562D01*
G01X12800376Y-4538720D01*
G01X12823236Y-4538720D01*
G01X12834666Y-4544562D01*
G01X12840254Y-4550150D01*
G01X12846096Y-4561580D01*
G01X12846096Y-4573010D01*
G01X12840254Y-4584440D01*
G01X12828824Y-4601712D01*
G01X12771674Y-4658862D01*
G01X12851684Y-4658862D01*
G01X14197268Y-4538720D02*
G01X14260260Y-4538720D01*
G01X14225970Y-4584440D01*
G01X14242988Y-4584440D01*
G01X14254418Y-4590282D01*
G01X14260260Y-4595870D01*
G01X14265848Y-4613142D01*
G01X14265848Y-4624572D01*
G01X14260260Y-4641590D01*
G01X14248830Y-4653020D01*
G01X14231558Y-4658862D01*
G01X14214540Y-4658862D01*
G01X14197268Y-4653020D01*
G01X14191680Y-4647432D01*
G01X14185838Y-4636002D01*
G01X14313600Y-4561580D02*
G01X14325030Y-4555992D01*
G01X14342302Y-4538720D01*
G01X14342302Y-4658862D01*
G01X14395896Y-4630160D02*
G01X14390054Y-4636002D01*
G01X14395896Y-4641590D01*
G01X14401484Y-4636002D01*
G01X14395896Y-4630160D01*
G01X14517816Y-4538720D02*
G01X14460666Y-4538720D01*
G01X14455078Y-4590282D01*
G01X14460666Y-4584440D01*
G01X14477938Y-4578852D01*
G01X14494956Y-4578852D01*
G01X14512228Y-4584440D01*
G01X14523658Y-4595870D01*
G01X14529246Y-4613142D01*
G01X14529246Y-4624572D01*
G01X14523658Y-4641590D01*
G01X14512228Y-4653020D01*
G01X14494956Y-4658862D01*
G01X14477938Y-4658862D01*
G01X14460666Y-4653020D01*
G01X14455078Y-4647432D01*
G01X14449236Y-4636002D01*
G01X14576998Y-4578852D02*
G01X14639990Y-4658862D01*
G01X14639990Y-4578852D02*
G01X14576998Y-4658862D01*
G01X14756322Y-4538720D02*
G01X14699172Y-4538720D01*
G01X14693584Y-4590282D01*
G01X14699172Y-4584440D01*
G01X14716444Y-4578852D01*
G01X14733462Y-4578852D01*
G01X14750734Y-4584440D01*
G01X14762164Y-4595870D01*
G01X14767752Y-4613142D01*
G01X14767752Y-4624572D01*
G01X14762164Y-4641590D01*
G01X14750734Y-4653020D01*
G01X14733462Y-4658862D01*
G01X14716444Y-4658862D01*
G01X14699172Y-4653020D01*
G01X14693584Y-4647432D01*
G01X14687742Y-4636002D01*
G01X14889926Y-4578852D02*
G01X14884084Y-4595870D01*
G01X14872654Y-4607300D01*
G01X14855636Y-4613142D01*
G01X14849794Y-4613142D01*
G01X14832776Y-4607300D01*
G01X14821346Y-4595870D01*
G01X14815504Y-4578852D01*
G01X14815504Y-4573010D01*
G01X14821346Y-4555992D01*
G01X14832776Y-4544562D01*
G01X14849794Y-4538720D01*
G01X14855636Y-4538720D01*
G01X14872654Y-4544562D01*
G01X14884084Y-4555992D01*
G01X14889926Y-4578852D01*
G01X14889926Y-4607300D01*
G01X14884084Y-4636002D01*
G01X14872654Y-4653020D01*
G01X14855636Y-4658862D01*
G01X14844206Y-4658862D01*
G01X14826934Y-4653020D01*
G01X14821346Y-4641590D01*
G01X14943520Y-4630160D02*
G01X14937678Y-4636002D01*
G01X14943520Y-4641590D01*
G01X14949108Y-4636002D01*
G01X14943520Y-4630160D01*
G01X14996860Y-4561580D02*
G01X15008290Y-4555992D01*
G01X15025562Y-4538720D01*
G01X15025562Y-4658862D01*
G01X15073314Y-4578852D02*
G01X15073314Y-4658862D01*
G01X15073314Y-4601712D02*
G01X15090586Y-4584440D01*
G01X15102016Y-4578852D01*
G01X15119034Y-4578852D01*
G01X15130464Y-4584440D01*
G01X15136306Y-4601712D01*
G01X15136306Y-4658862D01*
G01X15136306Y-4601712D02*
G01X15153324Y-4584440D01*
G01X15164754Y-4578852D01*
G01X15182026Y-4578852D01*
G01X15193456Y-4584440D01*
G01X15199044Y-4601712D01*
G01X15199044Y-4658862D01*
G01X15246796Y-4538720D02*
G01X15252638Y-4544562D01*
G01X15258226Y-4538720D01*
G01X15252638Y-4533132D01*
G01X15246796Y-4538720D01*
G01X15252638Y-4578852D02*
G01X15252638Y-4658862D01*
G01X15305978Y-4538720D02*
G01X15305978Y-4658862D01*
G01X15393862Y-4515860D02*
G01X15382432Y-4527290D01*
G01X15371002Y-4544562D01*
G01X15359572Y-4567422D01*
G01X15353730Y-4595870D01*
G01X15353730Y-4618730D01*
G01X15359572Y-4647432D01*
G01X15371002Y-4670292D01*
G01X15382432Y-4687310D01*
G01X15393862Y-4698740D01*
G01X15475904Y-4538720D02*
G01X15458886Y-4544562D01*
G01X15447456Y-4561580D01*
G01X15441614Y-4590282D01*
G01X15441614Y-4607300D01*
G01X15447456Y-4636002D01*
G01X15458886Y-4653020D01*
G01X15475904Y-4658862D01*
G01X15487334Y-4658862D01*
G01X15504606Y-4653020D01*
G01X15516036Y-4636002D01*
G01X15521624Y-4607300D01*
G01X15521624Y-4590282D01*
G01X15516036Y-4561580D01*
G01X15504606Y-4544562D01*
G01X15487334Y-4538720D01*
G01X15475904Y-4538720D01*
G01X15575218Y-4630160D02*
G01X15569376Y-4636002D01*
G01X15575218Y-4641590D01*
G01X15580806Y-4636002D01*
G01X15575218Y-4630160D01*
G01X15657260Y-4538720D02*
G01X15639988Y-4544562D01*
G01X15634400Y-4555992D01*
G01X15634400Y-4567422D01*
G01X15639988Y-4578852D01*
G01X15651418Y-4584440D01*
G01X15674278Y-4590282D01*
G01X15691550Y-4595870D01*
G01X15702980Y-4607300D01*
G01X15708568Y-4618730D01*
G01X15708568Y-4636002D01*
G01X15702980Y-4647432D01*
G01X15697138Y-4653020D01*
G01X15680120Y-4658862D01*
G01X15657260Y-4658862D01*
G01X15639988Y-4653020D01*
G01X15634400Y-4647432D01*
G01X15628558Y-4636002D01*
G01X15628558Y-4618730D01*
G01X15634400Y-4607300D01*
G01X15645830Y-4595870D01*
G01X15662848Y-4590282D01*
G01X15685708Y-4584440D01*
G01X15697138Y-4578852D01*
G01X15702980Y-4567422D01*
G01X15702980Y-4555992D01*
G01X15697138Y-4544562D01*
G01X15680120Y-4538720D01*
G01X15657260Y-4538720D01*
G01X15790610Y-4538720D02*
G01X15773592Y-4544562D01*
G01X15762162Y-4561580D01*
G01X15756320Y-4590282D01*
G01X15756320Y-4607300D01*
G01X15762162Y-4636002D01*
G01X15773592Y-4653020D01*
G01X15790610Y-4658862D01*
G01X15802040Y-4658862D01*
G01X15819312Y-4653020D01*
G01X15830742Y-4636002D01*
G01X15836330Y-4607300D01*
G01X15836330Y-4590282D01*
G01X15830742Y-4561580D01*
G01X15819312Y-4544562D01*
G01X15802040Y-4538720D01*
G01X15790610Y-4538720D01*
G01X15918372Y-4538720D02*
G01X15901354Y-4544562D01*
G01X15889924Y-4561580D01*
G01X15884082Y-4590282D01*
G01X15884082Y-4607300D01*
G01X15889924Y-4636002D01*
G01X15901354Y-4653020D01*
G01X15918372Y-4658862D01*
G01X15929802Y-4658862D01*
G01X15947074Y-4653020D01*
G01X15958504Y-4636002D01*
G01X15964092Y-4607300D01*
G01X15964092Y-4590282D01*
G01X15958504Y-4561580D01*
G01X15947074Y-4544562D01*
G01X15929802Y-4538720D01*
G01X15918372Y-4538720D01*
G01X16011844Y-4578852D02*
G01X16074836Y-4658862D01*
G01X16074836Y-4578852D02*
G01X16011844Y-4658862D01*
G01X16122588Y-4561580D02*
G01X16134018Y-4555992D01*
G01X16151290Y-4538720D01*
G01X16151290Y-4658862D01*
G01X16204884Y-4630160D02*
G01X16199042Y-4636002D01*
G01X16204884Y-4641590D01*
G01X16210472Y-4636002D01*
G01X16204884Y-4630160D01*
G01X16326804Y-4538720D02*
G01X16269654Y-4538720D01*
G01X16264066Y-4590282D01*
G01X16269654Y-4584440D01*
G01X16286926Y-4578852D01*
G01X16303944Y-4578852D01*
G01X16321216Y-4584440D01*
G01X16332646Y-4595870D01*
G01X16338234Y-4613142D01*
G01X16338234Y-4624572D01*
G01X16332646Y-4641590D01*
G01X16321216Y-4653020D01*
G01X16303944Y-4658862D01*
G01X16286926Y-4658862D01*
G01X16269654Y-4653020D01*
G01X16264066Y-4647432D01*
G01X16258224Y-4636002D01*
G01X16420276Y-4538720D02*
G01X16403258Y-4544562D01*
G01X16391828Y-4561580D01*
G01X16385986Y-4590282D01*
G01X16385986Y-4607300D01*
G01X16391828Y-4636002D01*
G01X16403258Y-4653020D01*
G01X16420276Y-4658862D01*
G01X16431706Y-4658862D01*
G01X16448978Y-4653020D01*
G01X16460408Y-4636002D01*
G01X16465996Y-4607300D01*
G01X16465996Y-4590282D01*
G01X16460408Y-4561580D01*
G01X16448978Y-4544562D01*
G01X16431706Y-4538720D01*
G01X16420276Y-4538720D01*
G01X16548038Y-4538720D02*
G01X16531020Y-4544562D01*
G01X16519590Y-4561580D01*
G01X16513748Y-4590282D01*
G01X16513748Y-4607300D01*
G01X16519590Y-4636002D01*
G01X16531020Y-4653020D01*
G01X16548038Y-4658862D01*
G01X16559468Y-4658862D01*
G01X16576740Y-4653020D01*
G01X16588170Y-4636002D01*
G01X16593758Y-4607300D01*
G01X16593758Y-4590282D01*
G01X16588170Y-4561580D01*
G01X16576740Y-4544562D01*
G01X16559468Y-4538720D01*
G01X16548038Y-4538720D01*
G01X16641510Y-4578852D02*
G01X16641510Y-4658862D01*
G01X16641510Y-4601712D02*
G01X16658782Y-4584440D01*
G01X16670212Y-4578852D01*
G01X16687230Y-4578852D01*
G01X16698660Y-4584440D01*
G01X16704502Y-4601712D01*
G01X16704502Y-4658862D01*
G01X16704502Y-4601712D02*
G01X16721520Y-4584440D01*
G01X16732950Y-4578852D01*
G01X16750222Y-4578852D01*
G01X16761652Y-4584440D01*
G01X16767240Y-4601712D01*
G01X16767240Y-4658862D01*
G01X16814992Y-4578852D02*
G01X16814992Y-4658862D01*
G01X16814992Y-4601712D02*
G01X16832264Y-4584440D01*
G01X16843694Y-4578852D01*
G01X16860712Y-4578852D01*
G01X16872142Y-4584440D01*
G01X16877984Y-4601712D01*
G01X16877984Y-4658862D01*
G01X16877984Y-4601712D02*
G01X16895002Y-4584440D01*
G01X16906432Y-4578852D01*
G01X16923704Y-4578852D01*
G01X16935134Y-4584440D01*
G01X16940722Y-4601712D01*
G01X16940722Y-4658862D01*
G01X16988474Y-4515860D02*
G01X16999904Y-4527290D01*
G01X17011334Y-4544562D01*
G01X17022764Y-4567422D01*
G01X17028606Y-4595870D01*
G01X17028606Y-4618730D01*
G01X17022764Y-4647432D01*
G01X17011334Y-4670292D01*
G01X16999904Y-4687310D01*
G01X16988474Y-4698740D01*
G01X18079803Y-4538720D02*
G01X18079803Y-4658862D01*
G01X18079803Y-4538720D02*
G01X18131365Y-4538720D01*
G01X18148383Y-4544562D01*
G01X18154225Y-4550150D01*
G01X18159813Y-4561580D01*
G01X18159813Y-4578852D01*
G01X18154225Y-4590282D01*
G01X18148383Y-4595870D01*
G01X18131365Y-4601712D01*
G01X18079803Y-4601712D01*
G01X18247697Y-4538720D02*
G01X18247697Y-4658862D01*
G01X18207565Y-4538720D02*
G01X18287575Y-4538720D01*
G01X18335327Y-4538720D02*
G01X18335327Y-4658862D01*
G01X18415337Y-4538720D02*
G01X18415337Y-4658862D01*
G01X18335327Y-4595870D02*
G01X18415337Y-4595870D01*
G01X19621220Y-4555992D02*
G01X19609790Y-4544562D01*
G01X19592772Y-4538720D01*
G01X19569912Y-4538720D01*
G01X19552640Y-4544562D01*
G01X19541210Y-4555992D01*
G01X19541210Y-4567422D01*
G01X19547052Y-4578852D01*
G01X19552640Y-4584440D01*
G01X19564070Y-4590282D01*
G01X19598360Y-4601712D01*
G01X19609790Y-4607300D01*
G01X19615632Y-4613142D01*
G01X19621220Y-4624572D01*
G01X19621220Y-4641590D01*
G01X19609790Y-4653020D01*
G01X19592772Y-4658862D01*
G01X19569912Y-4658862D01*
G01X19552640Y-4653020D01*
G01X19541210Y-4641590D01*
G01X19668972Y-4538720D02*
G01X19668972Y-4658862D01*
G01X19745426Y-4578852D02*
G01X19733996Y-4584440D01*
G01X19722566Y-4595870D01*
G01X19716724Y-4613142D01*
G01X19716724Y-4624572D01*
G01X19722566Y-4641590D01*
G01X19733996Y-4653020D01*
G01X19745426Y-4658862D01*
G01X19762444Y-4658862D01*
G01X19773874Y-4653020D01*
G01X19785304Y-4641590D01*
G01X19791146Y-4624572D01*
G01X19791146Y-4613142D01*
G01X19785304Y-4595870D01*
G01X19773874Y-4584440D01*
G01X19762444Y-4578852D01*
G01X19745426Y-4578852D01*
G01X19856170Y-4538720D02*
G01X19856170Y-4636002D01*
G01X19861758Y-4653020D01*
G01X19873188Y-4658862D01*
G01X19884618Y-4658862D01*
G01X19838898Y-4578852D02*
G01X19879030Y-4578852D01*
G01X20972391Y-4538720D02*
G01X20972391Y-4658862D01*
G01X20972391Y-4538720D02*
G01X21023953Y-4538720D01*
G01X21040971Y-4544562D01*
G01X21046813Y-4550150D01*
G01X21052401Y-4561580D01*
G01X21052401Y-4578852D01*
G01X21046813Y-4590282D01*
G01X21040971Y-4595870D01*
G01X21023953Y-4601712D01*
G01X20972391Y-4601712D01*
G01X21168733Y-4578852D02*
G01X21168733Y-4658862D01*
G01X21168733Y-4595870D02*
G01X21157303Y-4584440D01*
G01X21145873Y-4578852D01*
G01X21128855Y-4578852D01*
G01X21117425Y-4584440D01*
G01X21105995Y-4595870D01*
G01X21100153Y-4613142D01*
G01X21100153Y-4624572D01*
G01X21105995Y-4641590D01*
G01X21117425Y-4653020D01*
G01X21128855Y-4658862D01*
G01X21145873Y-4658862D01*
G01X21157303Y-4653020D01*
G01X21168733Y-4641590D01*
G01X21285065Y-4538720D02*
G01X21285065Y-4658862D01*
G01X21285065Y-4595870D02*
G01X21273635Y-4584440D01*
G01X21262205Y-4578852D01*
G01X21245187Y-4578852D01*
G01X21233757Y-4584440D01*
G01X21222327Y-4595870D01*
G01X21216485Y-4613142D01*
G01X21216485Y-4624572D01*
G01X21222327Y-4641590D01*
G01X21233757Y-4653020D01*
G01X21245187Y-4658862D01*
G01X21262205Y-4658862D01*
G01X21273635Y-4653020D01*
G01X21285065Y-4641590D01*
G01X22675860Y-4538720D02*
G01X22664430Y-4544562D01*
G01X22653000Y-4555992D01*
G01X22647412Y-4567422D01*
G01X22641570Y-4584440D01*
G01X22641570Y-4613142D01*
G01X22647412Y-4630160D01*
G01X22653000Y-4641590D01*
G01X22664430Y-4653020D01*
G01X22675860Y-4658862D01*
G01X22698720Y-4658862D01*
G01X22710150Y-4653020D01*
G01X22721580Y-4641590D01*
G01X22727422Y-4630160D01*
G01X22733010Y-4613142D01*
G01X22733010Y-4584440D01*
G01X22727422Y-4567422D01*
G01X22721580Y-4555992D01*
G01X22710150Y-4544562D01*
G01X22698720Y-4538720D01*
G01X22675860Y-4538720D01*
G01X22780762Y-4578852D02*
G01X22815052Y-4658862D01*
G01X22849342Y-4578852D02*
G01X22815052Y-4658862D01*
G01X22965674Y-4578852D02*
G01X22965674Y-4658862D01*
G01X22965674Y-4595870D02*
G01X22954244Y-4584440D01*
G01X22942814Y-4578852D01*
G01X22925796Y-4578852D01*
G01X22914366Y-4584440D01*
G01X22902936Y-4595870D01*
G01X22897094Y-4613142D01*
G01X22897094Y-4624572D01*
G01X22902936Y-4641590D01*
G01X22914366Y-4653020D01*
G01X22925796Y-4658862D01*
G01X22942814Y-4658862D01*
G01X22954244Y-4653020D01*
G01X22965674Y-4641590D01*
G01X23013426Y-4538720D02*
G01X23013426Y-4658862D01*
G01X24601071Y-4538720D02*
G01X24601071Y-4658862D01*
G01X24560939Y-4538720D02*
G01X24640949Y-4538720D01*
G01X24717403Y-4578852D02*
G01X24705973Y-4584440D01*
G01X24694543Y-4595870D01*
G01X24688701Y-4613142D01*
G01X24688701Y-4624572D01*
G01X24694543Y-4641590D01*
G01X24705973Y-4653020D01*
G01X24717403Y-4658862D01*
G01X24734421Y-4658862D01*
G01X24745851Y-4653020D01*
G01X24757281Y-4641590D01*
G01X24763123Y-4624572D01*
G01X24763123Y-4613142D01*
G01X24757281Y-4595870D01*
G01X24745851Y-4584440D01*
G01X24734421Y-4578852D01*
G01X24717403Y-4578852D01*
G01X24810875Y-4578852D02*
G01X24810875Y-4698740D01*
G01X24810875Y-4595870D02*
G01X24822305Y-4584440D01*
G01X24833735Y-4578852D01*
G01X24851007Y-4578852D01*
G01X24862437Y-4584440D01*
G01X24873867Y-4595870D01*
G01X24879455Y-4613142D01*
G01X24879455Y-4624572D01*
G01X24873867Y-4641590D01*
G01X24862437Y-4653020D01*
G01X24851007Y-4658862D01*
G01X24833735Y-4658862D01*
G01X24822305Y-4653020D01*
G01X24810875Y-4641590D01*
G01X25055223Y-4538720D02*
G01X25055223Y-4658862D01*
G01X25055223Y-4658862D02*
G01X25123803Y-4658862D01*
G01X25240135Y-4578852D02*
G01X25240135Y-4658862D01*
G01X25240135Y-4595870D02*
G01X25228705Y-4584440D01*
G01X25217275Y-4578852D01*
G01X25200257Y-4578852D01*
G01X25188827Y-4584440D01*
G01X25177397Y-4595870D01*
G01X25171555Y-4613142D01*
G01X25171555Y-4624572D01*
G01X25177397Y-4641590D01*
G01X25188827Y-4653020D01*
G01X25200257Y-4658862D01*
G01X25217275Y-4658862D01*
G01X25228705Y-4653020D01*
G01X25240135Y-4641590D01*
G01X25293729Y-4578852D02*
G01X25328019Y-4658862D01*
G01X25362309Y-4578852D02*
G01X25328019Y-4658862D01*
G01X25316589Y-4681722D01*
G01X25305159Y-4693152D01*
G01X25293729Y-4698740D01*
G01X25287887Y-4698740D01*
G01X25410061Y-4613142D02*
G01X25478641Y-4613142D01*
G01X25478641Y-4601712D01*
G01X25473053Y-4590282D01*
G01X25467211Y-4584440D01*
G01X25455781Y-4578852D01*
G01X25438763Y-4578852D01*
G01X25427333Y-4584440D01*
G01X25415903Y-4595870D01*
G01X25410061Y-4613142D01*
G01X25410061Y-4624572D01*
G01X25415903Y-4641590D01*
G01X25427333Y-4653020D01*
G01X25438763Y-4658862D01*
G01X25455781Y-4658862D01*
G01X25467211Y-4653020D01*
G01X25478641Y-4641590D01*
G01X25526393Y-4578852D02*
G01X25526393Y-4658862D01*
G01X25526393Y-4613142D02*
G01X25532235Y-4595870D01*
G01X25543665Y-4584440D01*
G01X25555095Y-4578852D01*
G01X25572113Y-4578852D01*
G01X25619865Y-4607300D02*
G01X25722735Y-4607300D01*
G01X25770487Y-4538720D02*
G01X25770487Y-4658862D01*
G01X25770487Y-4538720D02*
G01X25822049Y-4538720D01*
G01X25839067Y-4544562D01*
G01X25844909Y-4550150D01*
G01X25850497Y-4561580D01*
G01X25850497Y-4573010D01*
G01X25844909Y-4584440D01*
G01X25839067Y-4590282D01*
G01X25822049Y-4595870D01*
G01X25770487Y-4595870D02*
G01X25822049Y-4595870D01*
G01X25839067Y-4601712D01*
G01X25844909Y-4607300D01*
G01X25850497Y-4618730D01*
G01X25850497Y-4636002D01*
G01X25844909Y-4647432D01*
G01X25839067Y-4653020D01*
G01X25822049Y-4658862D01*
G01X25770487Y-4658862D01*
G01X25926951Y-4578852D02*
G01X25915521Y-4584440D01*
G01X25904091Y-4595870D01*
G01X25898249Y-4613142D01*
G01X25898249Y-4624572D01*
G01X25904091Y-4641590D01*
G01X25915521Y-4653020D01*
G01X25926951Y-4658862D01*
G01X25943969Y-4658862D01*
G01X25955399Y-4653020D01*
G01X25966829Y-4641590D01*
G01X25972671Y-4624572D01*
G01X25972671Y-4613142D01*
G01X25966829Y-4595870D01*
G01X25955399Y-4584440D01*
G01X25943969Y-4578852D01*
G01X25926951Y-4578852D01*
G01X26037695Y-4538720D02*
G01X26037695Y-4636002D01*
G01X26043283Y-4653020D01*
G01X26054713Y-4658862D01*
G01X26066143Y-4658862D01*
G01X26020423Y-4578852D02*
G01X26060555Y-4578852D01*
G01X26131167Y-4538720D02*
G01X26131167Y-4636002D01*
G01X26136755Y-4653020D01*
G01X26148185Y-4658862D01*
G01X26159615Y-4658862D01*
G01X26113895Y-4578852D02*
G01X26154027Y-4578852D01*
G01X26236069Y-4578852D02*
G01X26224639Y-4584440D01*
G01X26213209Y-4595870D01*
G01X26207367Y-4613142D01*
G01X26207367Y-4624572D01*
G01X26213209Y-4641590D01*
G01X26224639Y-4653020D01*
G01X26236069Y-4658862D01*
G01X26253087Y-4658862D01*
G01X26264517Y-4653020D01*
G01X26275947Y-4641590D01*
G01X26281789Y-4624572D01*
G01X26281789Y-4613142D01*
G01X26275947Y-4595870D01*
G01X26264517Y-4584440D01*
G01X26253087Y-4578852D01*
G01X26236069Y-4578852D01*
G01X26329541Y-4578852D02*
G01X26329541Y-4658862D01*
G01X26329541Y-4601712D02*
G01X26346813Y-4584440D01*
G01X26358243Y-4578852D01*
G01X26375261Y-4578852D01*
G01X26386691Y-4584440D01*
G01X26392533Y-4601712D01*
G01X26392533Y-4658862D01*
G01X26392533Y-4601712D02*
G01X26409551Y-4584440D01*
G01X26420981Y-4578852D01*
G01X26438253Y-4578852D01*
G01X26449683Y-4584440D01*
G01X26455271Y-4601712D01*
G01X26455271Y-4658862D01*
G01X26631039Y-4538720D02*
G01X26631039Y-4658862D01*
G01X26631039Y-4658862D02*
G01X26699619Y-4658862D01*
G01X26815951Y-4578852D02*
G01X26815951Y-4658862D01*
G01X26815951Y-4595870D02*
G01X26804521Y-4584440D01*
G01X26793091Y-4578852D01*
G01X26776073Y-4578852D01*
G01X26764643Y-4584440D01*
G01X26753213Y-4595870D01*
G01X26747371Y-4613142D01*
G01X26747371Y-4624572D01*
G01X26753213Y-4641590D01*
G01X26764643Y-4653020D01*
G01X26776073Y-4658862D01*
G01X26793091Y-4658862D01*
G01X26804521Y-4653020D01*
G01X26815951Y-4641590D01*
G01X26869545Y-4578852D02*
G01X26903835Y-4658862D01*
G01X26938125Y-4578852D02*
G01X26903835Y-4658862D01*
G01X26892405Y-4681722D01*
G01X26880975Y-4693152D01*
G01X26869545Y-4698740D01*
G01X26863703Y-4698740D01*
G01X26985877Y-4613142D02*
G01X27054457Y-4613142D01*
G01X27054457Y-4601712D01*
G01X27048869Y-4590282D01*
G01X27043027Y-4584440D01*
G01X27031597Y-4578852D01*
G01X27014579Y-4578852D01*
G01X27003149Y-4584440D01*
G01X26991719Y-4595870D01*
G01X26985877Y-4613142D01*
G01X26985877Y-4624572D01*
G01X26991719Y-4641590D01*
G01X27003149Y-4653020D01*
G01X27014579Y-4658862D01*
G01X27031597Y-4658862D01*
G01X27043027Y-4653020D01*
G01X27054457Y-4641590D01*
G01X27102209Y-4578852D02*
G01X27102209Y-4658862D01*
G01X27102209Y-4613142D02*
G01X27108051Y-4595870D01*
G01X27119481Y-4584440D01*
G01X27130911Y-4578852D01*
G01X27147929Y-4578852D01*
G01X12777516Y-5147993D02*
G01X12777516Y-5142151D01*
G01X12783104Y-5130721D01*
G01X12788946Y-5125133D01*
G01X12800376Y-5119291D01*
G01X12823236Y-5119291D01*
G01X12834666Y-5125133D01*
G01X12840254Y-5130721D01*
G01X12846096Y-5142151D01*
G01X12846096Y-5153581D01*
G01X12840254Y-5165011D01*
G01X12828824Y-5182283D01*
G01X12771674Y-5239433D01*
G01X12851684Y-5239433D01*
G01X14197268Y-5119291D02*
G01X14260260Y-5119291D01*
G01X14225970Y-5165011D01*
G01X14242988Y-5165011D01*
G01X14254418Y-5170853D01*
G01X14260260Y-5176441D01*
G01X14265848Y-5193713D01*
G01X14265848Y-5205143D01*
G01X14260260Y-5222161D01*
G01X14248830Y-5233591D01*
G01X14231558Y-5239433D01*
G01X14214540Y-5239433D01*
G01X14197268Y-5233591D01*
G01X14191680Y-5228003D01*
G01X14185838Y-5216573D01*
G01X14388022Y-5159423D02*
G01X14382180Y-5176441D01*
G01X14370750Y-5187871D01*
G01X14353732Y-5193713D01*
G01X14347890Y-5193713D01*
G01X14330872Y-5187871D01*
G01X14319442Y-5176441D01*
G01X14313600Y-5159423D01*
G01X14313600Y-5153581D01*
G01X14319442Y-5136563D01*
G01X14330872Y-5125133D01*
G01X14347890Y-5119291D01*
G01X14353732Y-5119291D01*
G01X14370750Y-5125133D01*
G01X14382180Y-5136563D01*
G01X14388022Y-5159423D01*
G01X14388022Y-5187871D01*
G01X14382180Y-5216573D01*
G01X14370750Y-5233591D01*
G01X14353732Y-5239433D01*
G01X14342302Y-5239433D01*
G01X14325030Y-5233591D01*
G01X14319442Y-5222161D01*
G01X14441616Y-5210731D02*
G01X14435774Y-5216573D01*
G01X14441616Y-5222161D01*
G01X14447204Y-5216573D01*
G01X14441616Y-5210731D01*
G01X14552106Y-5119291D02*
G01X14494956Y-5199301D01*
G01X14580808Y-5199301D01*
G01X14552106Y-5119291D02*
G01X14552106Y-5239433D01*
G01X14628560Y-5159423D02*
G01X14628560Y-5239433D01*
G01X14628560Y-5182283D02*
G01X14645832Y-5165011D01*
G01X14657262Y-5159423D01*
G01X14674280Y-5159423D01*
G01X14685710Y-5165011D01*
G01X14691552Y-5182283D01*
G01X14691552Y-5239433D01*
G01X14691552Y-5182283D02*
G01X14708570Y-5165011D01*
G01X14720000Y-5159423D01*
G01X14737272Y-5159423D01*
G01X14748702Y-5165011D01*
G01X14754290Y-5182283D01*
G01X14754290Y-5239433D01*
G01X14802042Y-5119291D02*
G01X14807884Y-5125133D01*
G01X14813472Y-5119291D01*
G01X14807884Y-5113703D01*
G01X14802042Y-5119291D01*
G01X14807884Y-5159423D02*
G01X14807884Y-5239433D01*
G01X14861224Y-5119291D02*
G01X14861224Y-5239433D01*
G01X14949108Y-5096431D02*
G01X14937678Y-5107861D01*
G01X14926248Y-5125133D01*
G01X14914818Y-5147993D01*
G01X14908976Y-5176441D01*
G01X14908976Y-5199301D01*
G01X14914818Y-5228003D01*
G01X14926248Y-5250863D01*
G01X14937678Y-5267881D01*
G01X14949108Y-5279311D01*
G01X14996860Y-5142151D02*
G01X15008290Y-5136563D01*
G01X15025562Y-5119291D01*
G01X15025562Y-5239433D01*
G01X15079156Y-5210731D02*
G01X15073314Y-5216573D01*
G01X15079156Y-5222161D01*
G01X15084744Y-5216573D01*
G01X15079156Y-5210731D01*
G01X15166786Y-5119291D02*
G01X15149768Y-5125133D01*
G01X15138338Y-5142151D01*
G01X15132496Y-5170853D01*
G01X15132496Y-5187871D01*
G01X15138338Y-5216573D01*
G01X15149768Y-5233591D01*
G01X15166786Y-5239433D01*
G01X15178216Y-5239433D01*
G01X15195488Y-5233591D01*
G01X15206918Y-5216573D01*
G01X15212506Y-5187871D01*
G01X15212506Y-5170853D01*
G01X15206918Y-5142151D01*
G01X15195488Y-5125133D01*
G01X15178216Y-5119291D01*
G01X15166786Y-5119291D01*
G01X15294548Y-5119291D02*
G01X15277530Y-5125133D01*
G01X15266100Y-5142151D01*
G01X15260258Y-5170853D01*
G01X15260258Y-5187871D01*
G01X15266100Y-5216573D01*
G01X15277530Y-5233591D01*
G01X15294548Y-5239433D01*
G01X15305978Y-5239433D01*
G01X15323250Y-5233591D01*
G01X15334680Y-5216573D01*
G01X15340268Y-5187871D01*
G01X15340268Y-5170853D01*
G01X15334680Y-5142151D01*
G01X15323250Y-5125133D01*
G01X15305978Y-5119291D01*
G01X15294548Y-5119291D01*
G01X15422310Y-5119291D02*
G01X15405292Y-5125133D01*
G01X15393862Y-5142151D01*
G01X15388020Y-5170853D01*
G01X15388020Y-5187871D01*
G01X15393862Y-5216573D01*
G01X15405292Y-5233591D01*
G01X15422310Y-5239433D01*
G01X15433740Y-5239433D01*
G01X15451012Y-5233591D01*
G01X15462442Y-5216573D01*
G01X15468030Y-5187871D01*
G01X15468030Y-5170853D01*
G01X15462442Y-5142151D01*
G01X15451012Y-5125133D01*
G01X15433740Y-5119291D01*
G01X15422310Y-5119291D01*
G01X15515782Y-5159423D02*
G01X15515782Y-5239433D01*
G01X15515782Y-5182283D02*
G01X15533054Y-5165011D01*
G01X15544484Y-5159423D01*
G01X15561502Y-5159423D01*
G01X15572932Y-5165011D01*
G01X15578774Y-5182283D01*
G01X15578774Y-5239433D01*
G01X15578774Y-5182283D02*
G01X15595792Y-5165011D01*
G01X15607222Y-5159423D01*
G01X15624494Y-5159423D01*
G01X15635924Y-5165011D01*
G01X15641512Y-5182283D01*
G01X15641512Y-5239433D01*
G01X15689264Y-5159423D02*
G01X15689264Y-5239433D01*
G01X15689264Y-5182283D02*
G01X15706536Y-5165011D01*
G01X15717966Y-5159423D01*
G01X15734984Y-5159423D01*
G01X15746414Y-5165011D01*
G01X15752256Y-5182283D01*
G01X15752256Y-5239433D01*
G01X15752256Y-5182283D02*
G01X15769274Y-5165011D01*
G01X15780704Y-5159423D01*
G01X15797976Y-5159423D01*
G01X15809406Y-5165011D01*
G01X15814994Y-5182283D01*
G01X15814994Y-5239433D01*
G01X15862746Y-5096431D02*
G01X15874176Y-5107861D01*
G01X15885606Y-5125133D01*
G01X15897036Y-5147993D01*
G01X15902878Y-5176441D01*
G01X15902878Y-5199301D01*
G01X15897036Y-5228003D01*
G01X15885606Y-5250863D01*
G01X15874176Y-5267881D01*
G01X15862746Y-5279311D01*
G01X18079803Y-5119291D02*
G01X18079803Y-5239433D01*
G01X18079803Y-5119291D02*
G01X18159813Y-5239433D01*
G01X18159813Y-5119291D02*
G01X18159813Y-5239433D01*
G01X18207565Y-5119291D02*
G01X18207565Y-5239433D01*
G01X18207565Y-5119291D02*
G01X18259127Y-5119291D01*
G01X18276145Y-5125133D01*
G01X18281987Y-5130721D01*
G01X18287575Y-5142151D01*
G01X18287575Y-5159423D01*
G01X18281987Y-5170853D01*
G01X18276145Y-5176441D01*
G01X18259127Y-5182283D01*
G01X18207565Y-5182283D01*
G01X18375459Y-5119291D02*
G01X18375459Y-5239433D01*
G01X18335327Y-5119291D02*
G01X18415337Y-5119291D01*
G01X18463089Y-5119291D02*
G01X18463089Y-5239433D01*
G01X18543099Y-5119291D02*
G01X18543099Y-5239433D01*
G01X18463089Y-5176441D02*
G01X18543099Y-5176441D01*
G01X19541210Y-5119291D02*
G01X19541210Y-5239433D01*
G01X19541210Y-5119291D02*
G01X19592772Y-5119291D01*
G01X19609790Y-5125133D01*
G01X19615632Y-5130721D01*
G01X19621220Y-5142151D01*
G01X19621220Y-5153581D01*
G01X19615632Y-5165011D01*
G01X19609790Y-5170853D01*
G01X19592772Y-5176441D01*
G01X19541210Y-5176441D01*
G01X19581342Y-5176441D02*
G01X19621220Y-5239433D01*
G01X19697674Y-5159423D02*
G01X19686244Y-5165011D01*
G01X19674814Y-5176441D01*
G01X19668972Y-5193713D01*
G01X19668972Y-5205143D01*
G01X19674814Y-5222161D01*
G01X19686244Y-5233591D01*
G01X19697674Y-5239433D01*
G01X19714692Y-5239433D01*
G01X19726122Y-5233591D01*
G01X19737552Y-5222161D01*
G01X19743394Y-5205143D01*
G01X19743394Y-5193713D01*
G01X19737552Y-5176441D01*
G01X19726122Y-5165011D01*
G01X19714692Y-5159423D01*
G01X19697674Y-5159423D01*
G01X19791146Y-5159423D02*
G01X19791146Y-5216573D01*
G01X19796988Y-5233591D01*
G01X19808418Y-5239433D01*
G01X19825436Y-5239433D01*
G01X19836866Y-5233591D01*
G01X19854138Y-5216573D01*
G01X19854138Y-5159423D02*
G01X19854138Y-5239433D01*
G01X19901890Y-5159423D02*
G01X19901890Y-5239433D01*
G01X19901890Y-5182283D02*
G01X19919162Y-5165011D01*
G01X19930592Y-5159423D01*
G01X19947610Y-5159423D01*
G01X19959040Y-5165011D01*
G01X19964882Y-5182283D01*
G01X19964882Y-5239433D01*
G01X20081214Y-5119291D02*
G01X20081214Y-5239433D01*
G01X20081214Y-5176441D02*
G01X20069784Y-5165011D01*
G01X20058354Y-5159423D01*
G01X20041336Y-5159423D01*
G01X20029906Y-5165011D01*
G01X20018476Y-5176441D01*
G01X20012634Y-5193713D01*
G01X20012634Y-5205143D01*
G01X20018476Y-5222161D01*
G01X20029906Y-5233591D01*
G01X20041336Y-5239433D01*
G01X20058354Y-5239433D01*
G01X20069784Y-5233591D01*
G01X20081214Y-5222161D01*
G01X20972391Y-5119291D02*
G01X21018111Y-5239433D01*
G01X21063831Y-5119291D02*
G01X21018111Y-5239433D01*
G01X21111583Y-5119291D02*
G01X21117425Y-5125133D01*
G01X21123013Y-5119291D01*
G01X21117425Y-5113703D01*
G01X21111583Y-5119291D01*
G01X21117425Y-5159423D02*
G01X21117425Y-5239433D01*
G01X21239345Y-5159423D02*
G01X21239345Y-5239433D01*
G01X21239345Y-5176441D02*
G01X21227915Y-5165011D01*
G01X21216485Y-5159423D01*
G01X21199467Y-5159423D01*
G01X21188037Y-5165011D01*
G01X21176607Y-5176441D01*
G01X21170765Y-5193713D01*
G01X21170765Y-5205143D01*
G01X21176607Y-5222161D01*
G01X21188037Y-5233591D01*
G01X21199467Y-5239433D01*
G01X21216485Y-5239433D01*
G01X21227915Y-5233591D01*
G01X21239345Y-5222161D01*
G01X24601071Y-5119291D02*
G01X24601071Y-5239433D01*
G01X24560939Y-5119291D02*
G01X24640949Y-5119291D01*
G01X24717403Y-5159423D02*
G01X24705973Y-5165011D01*
G01X24694543Y-5176441D01*
G01X24688701Y-5193713D01*
G01X24688701Y-5205143D01*
G01X24694543Y-5222161D01*
G01X24705973Y-5233591D01*
G01X24717403Y-5239433D01*
G01X24734421Y-5239433D01*
G01X24745851Y-5233591D01*
G01X24757281Y-5222161D01*
G01X24763123Y-5205143D01*
G01X24763123Y-5193713D01*
G01X24757281Y-5176441D01*
G01X24745851Y-5165011D01*
G01X24734421Y-5159423D01*
G01X24717403Y-5159423D01*
G01X24810875Y-5159423D02*
G01X24810875Y-5279311D01*
G01X24810875Y-5176441D02*
G01X24822305Y-5165011D01*
G01X24833735Y-5159423D01*
G01X24851007Y-5159423D01*
G01X24862437Y-5165011D01*
G01X24873867Y-5176441D01*
G01X24879455Y-5193713D01*
G01X24879455Y-5205143D01*
G01X24873867Y-5222161D01*
G01X24862437Y-5233591D01*
G01X24851007Y-5239433D01*
G01X24833735Y-5239433D01*
G01X24822305Y-5233591D01*
G01X24810875Y-5222161D01*
G01X25055223Y-5119291D02*
G01X25055223Y-5239433D01*
G01X25055223Y-5239433D02*
G01X25123803Y-5239433D01*
G01X25240135Y-5159423D02*
G01X25240135Y-5239433D01*
G01X25240135Y-5176441D02*
G01X25228705Y-5165011D01*
G01X25217275Y-5159423D01*
G01X25200257Y-5159423D01*
G01X25188827Y-5165011D01*
G01X25177397Y-5176441D01*
G01X25171555Y-5193713D01*
G01X25171555Y-5205143D01*
G01X25177397Y-5222161D01*
G01X25188827Y-5233591D01*
G01X25200257Y-5239433D01*
G01X25217275Y-5239433D01*
G01X25228705Y-5233591D01*
G01X25240135Y-5222161D01*
G01X25293729Y-5159423D02*
G01X25328019Y-5239433D01*
G01X25362309Y-5159423D02*
G01X25328019Y-5239433D01*
G01X25316589Y-5262293D01*
G01X25305159Y-5273723D01*
G01X25293729Y-5279311D01*
G01X25287887Y-5279311D01*
G01X25410061Y-5193713D02*
G01X25478641Y-5193713D01*
G01X25478641Y-5182283D01*
G01X25473053Y-5170853D01*
G01X25467211Y-5165011D01*
G01X25455781Y-5159423D01*
G01X25438763Y-5159423D01*
G01X25427333Y-5165011D01*
G01X25415903Y-5176441D01*
G01X25410061Y-5193713D01*
G01X25410061Y-5205143D01*
G01X25415903Y-5222161D01*
G01X25427333Y-5233591D01*
G01X25438763Y-5239433D01*
G01X25455781Y-5239433D01*
G01X25467211Y-5233591D01*
G01X25478641Y-5222161D01*
G01X25526393Y-5159423D02*
G01X25526393Y-5239433D01*
G01X25526393Y-5193713D02*
G01X25532235Y-5176441D01*
G01X25543665Y-5165011D01*
G01X25555095Y-5159423D01*
G01X25572113Y-5159423D01*
G01X25619865Y-5187871D02*
G01X25722735Y-5187871D01*
G01X25770487Y-5119291D02*
G01X25770487Y-5239433D01*
G01X25770487Y-5119291D02*
G01X25822049Y-5119291D01*
G01X25839067Y-5125133D01*
G01X25844909Y-5130721D01*
G01X25850497Y-5142151D01*
G01X25850497Y-5153581D01*
G01X25844909Y-5165011D01*
G01X25839067Y-5170853D01*
G01X25822049Y-5176441D01*
G01X25770487Y-5176441D02*
G01X25822049Y-5176441D01*
G01X25839067Y-5182283D01*
G01X25844909Y-5187871D01*
G01X25850497Y-5199301D01*
G01X25850497Y-5216573D01*
G01X25844909Y-5228003D01*
G01X25839067Y-5233591D01*
G01X25822049Y-5239433D01*
G01X25770487Y-5239433D01*
G01X25926951Y-5159423D02*
G01X25915521Y-5165011D01*
G01X25904091Y-5176441D01*
G01X25898249Y-5193713D01*
G01X25898249Y-5205143D01*
G01X25904091Y-5222161D01*
G01X25915521Y-5233591D01*
G01X25926951Y-5239433D01*
G01X25943969Y-5239433D01*
G01X25955399Y-5233591D01*
G01X25966829Y-5222161D01*
G01X25972671Y-5205143D01*
G01X25972671Y-5193713D01*
G01X25966829Y-5176441D01*
G01X25955399Y-5165011D01*
G01X25943969Y-5159423D01*
G01X25926951Y-5159423D01*
G01X26037695Y-5119291D02*
G01X26037695Y-5216573D01*
G01X26043283Y-5233591D01*
G01X26054713Y-5239433D01*
G01X26066143Y-5239433D01*
G01X26020423Y-5159423D02*
G01X26060555Y-5159423D01*
G01X26131167Y-5119291D02*
G01X26131167Y-5216573D01*
G01X26136755Y-5233591D01*
G01X26148185Y-5239433D01*
G01X26159615Y-5239433D01*
G01X26113895Y-5159423D02*
G01X26154027Y-5159423D01*
G01X26236069Y-5159423D02*
G01X26224639Y-5165011D01*
G01X26213209Y-5176441D01*
G01X26207367Y-5193713D01*
G01X26207367Y-5205143D01*
G01X26213209Y-5222161D01*
G01X26224639Y-5233591D01*
G01X26236069Y-5239433D01*
G01X26253087Y-5239433D01*
G01X26264517Y-5233591D01*
G01X26275947Y-5222161D01*
G01X26281789Y-5205143D01*
G01X26281789Y-5193713D01*
G01X26275947Y-5176441D01*
G01X26264517Y-5165011D01*
G01X26253087Y-5159423D01*
G01X26236069Y-5159423D01*
G01X26329541Y-5159423D02*
G01X26329541Y-5239433D01*
G01X26329541Y-5182283D02*
G01X26346813Y-5165011D01*
G01X26358243Y-5159423D01*
G01X26375261Y-5159423D01*
G01X26386691Y-5165011D01*
G01X26392533Y-5182283D01*
G01X26392533Y-5239433D01*
G01X26392533Y-5182283D02*
G01X26409551Y-5165011D01*
G01X26420981Y-5159423D01*
G01X26438253Y-5159423D01*
G01X26449683Y-5165011D01*
G01X26455271Y-5182283D01*
G01X26455271Y-5239433D01*
G01X26631039Y-5119291D02*
G01X26631039Y-5239433D01*
G01X26631039Y-5239433D02*
G01X26699619Y-5239433D01*
G01X26815951Y-5159423D02*
G01X26815951Y-5239433D01*
G01X26815951Y-5176441D02*
G01X26804521Y-5165011D01*
G01X26793091Y-5159423D01*
G01X26776073Y-5159423D01*
G01X26764643Y-5165011D01*
G01X26753213Y-5176441D01*
G01X26747371Y-5193713D01*
G01X26747371Y-5205143D01*
G01X26753213Y-5222161D01*
G01X26764643Y-5233591D01*
G01X26776073Y-5239433D01*
G01X26793091Y-5239433D01*
G01X26804521Y-5233591D01*
G01X26815951Y-5222161D01*
G01X26869545Y-5159423D02*
G01X26903835Y-5239433D01*
G01X26938125Y-5159423D02*
G01X26903835Y-5239433D01*
G01X26892405Y-5262293D01*
G01X26880975Y-5273723D01*
G01X26869545Y-5279311D01*
G01X26863703Y-5279311D01*
G01X26985877Y-5193713D02*
G01X27054457Y-5193713D01*
G01X27054457Y-5182283D01*
G01X27048869Y-5170853D01*
G01X27043027Y-5165011D01*
G01X27031597Y-5159423D01*
G01X27014579Y-5159423D01*
G01X27003149Y-5165011D01*
G01X26991719Y-5176441D01*
G01X26985877Y-5193713D01*
G01X26985877Y-5205143D01*
G01X26991719Y-5222161D01*
G01X27003149Y-5233591D01*
G01X27014579Y-5239433D01*
G01X27031597Y-5239433D01*
G01X27043027Y-5233591D01*
G01X27054457Y-5222161D01*
G01X27102209Y-5159423D02*
G01X27102209Y-5239433D01*
G01X27102209Y-5193713D02*
G01X27108051Y-5176441D01*
G01X27119481Y-5165011D01*
G01X27130911Y-5159423D01*
G01X27147929Y-5159423D01*
G01X12777516Y-5728565D02*
G01X12777516Y-5722723D01*
G01X12783104Y-5711293D01*
G01X12788946Y-5705705D01*
G01X12800376Y-5699863D01*
G01X12823236Y-5699863D01*
G01X12834666Y-5705705D01*
G01X12840254Y-5711293D01*
G01X12846096Y-5722723D01*
G01X12846096Y-5734153D01*
G01X12840254Y-5745583D01*
G01X12828824Y-5762855D01*
G01X12771674Y-5820005D01*
G01X12851684Y-5820005D01*
G01X14191680Y-5728565D02*
G01X14191680Y-5722723D01*
G01X14197268Y-5711293D01*
G01X14203110Y-5705705D01*
G01X14214540Y-5699863D01*
G01X14237400Y-5699863D01*
G01X14248830Y-5705705D01*
G01X14254418Y-5711293D01*
G01X14260260Y-5722723D01*
G01X14260260Y-5734153D01*
G01X14254418Y-5745583D01*
G01X14242988Y-5762855D01*
G01X14185838Y-5820005D01*
G01X14265848Y-5820005D01*
G01X14325030Y-5699863D02*
G01X14388022Y-5699863D01*
G01X14353732Y-5745583D01*
G01X14370750Y-5745583D01*
G01X14382180Y-5751425D01*
G01X14388022Y-5757013D01*
G01X14393610Y-5774285D01*
G01X14393610Y-5785715D01*
G01X14388022Y-5802733D01*
G01X14376592Y-5814163D01*
G01X14359320Y-5820005D01*
G01X14342302Y-5820005D01*
G01X14325030Y-5814163D01*
G01X14319442Y-5808575D01*
G01X14313600Y-5797145D01*
G01X14447204Y-5791303D02*
G01X14441362Y-5797145D01*
G01X14447204Y-5802733D01*
G01X14452792Y-5797145D01*
G01X14447204Y-5791303D01*
G01X14569124Y-5717135D02*
G01X14563536Y-5705705D01*
G01X14546264Y-5699863D01*
G01X14534834Y-5699863D01*
G01X14517816Y-5705705D01*
G01X14506386Y-5722723D01*
G01X14500544Y-5751425D01*
G01X14500544Y-5779873D01*
G01X14506386Y-5802733D01*
G01X14517816Y-5814163D01*
G01X14534834Y-5820005D01*
G01X14540676Y-5820005D01*
G01X14557694Y-5814163D01*
G01X14569124Y-5802733D01*
G01X14574966Y-5785715D01*
G01X14574966Y-5779873D01*
G01X14569124Y-5762855D01*
G01X14557694Y-5751425D01*
G01X14540676Y-5745583D01*
G01X14534834Y-5745583D01*
G01X14517816Y-5751425D01*
G01X14506386Y-5762855D01*
G01X14500544Y-5779873D01*
G01X14622718Y-5739995D02*
G01X14622718Y-5820005D01*
G01X14622718Y-5762855D02*
G01X14639990Y-5745583D01*
G01X14651420Y-5739995D01*
G01X14668438Y-5739995D01*
G01X14679868Y-5745583D01*
G01X14685710Y-5762855D01*
G01X14685710Y-5820005D01*
G01X14685710Y-5762855D02*
G01X14702728Y-5745583D01*
G01X14714158Y-5739995D01*
G01X14731430Y-5739995D01*
G01X14742860Y-5745583D01*
G01X14748448Y-5762855D01*
G01X14748448Y-5820005D01*
G01X14796200Y-5699863D02*
G01X14802042Y-5705705D01*
G01X14807630Y-5699863D01*
G01X14802042Y-5694275D01*
G01X14796200Y-5699863D01*
G01X14802042Y-5739995D02*
G01X14802042Y-5820005D01*
G01X14855382Y-5699863D02*
G01X14855382Y-5820005D01*
G01X14943266Y-5677003D02*
G01X14931836Y-5688433D01*
G01X14920406Y-5705705D01*
G01X14908976Y-5728565D01*
G01X14903134Y-5757013D01*
G01X14903134Y-5779873D01*
G01X14908976Y-5808575D01*
G01X14920406Y-5831435D01*
G01X14931836Y-5848453D01*
G01X14943266Y-5859883D01*
G01X15025308Y-5699863D02*
G01X15008290Y-5705705D01*
G01X14996860Y-5722723D01*
G01X14991018Y-5751425D01*
G01X14991018Y-5768443D01*
G01X14996860Y-5797145D01*
G01X15008290Y-5814163D01*
G01X15025308Y-5820005D01*
G01X15036738Y-5820005D01*
G01X15054010Y-5814163D01*
G01X15065440Y-5797145D01*
G01X15071028Y-5768443D01*
G01X15071028Y-5751425D01*
G01X15065440Y-5722723D01*
G01X15054010Y-5705705D01*
G01X15036738Y-5699863D01*
G01X15025308Y-5699863D01*
G01X15124622Y-5791303D02*
G01X15118780Y-5797145D01*
G01X15124622Y-5802733D01*
G01X15130210Y-5797145D01*
G01X15124622Y-5791303D01*
G01X15246542Y-5717135D02*
G01X15240954Y-5705705D01*
G01X15223682Y-5699863D01*
G01X15212252Y-5699863D01*
G01X15195234Y-5705705D01*
G01X15183804Y-5722723D01*
G01X15177962Y-5751425D01*
G01X15177962Y-5779873D01*
G01X15183804Y-5802733D01*
G01X15195234Y-5814163D01*
G01X15212252Y-5820005D01*
G01X15218094Y-5820005D01*
G01X15235112Y-5814163D01*
G01X15246542Y-5802733D01*
G01X15252384Y-5785715D01*
G01X15252384Y-5779873D01*
G01X15246542Y-5762855D01*
G01X15235112Y-5751425D01*
G01X15218094Y-5745583D01*
G01X15212252Y-5745583D01*
G01X15195234Y-5751425D01*
G01X15183804Y-5762855D01*
G01X15177962Y-5779873D01*
G01X15334426Y-5699863D02*
G01X15317408Y-5705705D01*
G01X15305978Y-5722723D01*
G01X15300136Y-5751425D01*
G01X15300136Y-5768443D01*
G01X15305978Y-5797145D01*
G01X15317408Y-5814163D01*
G01X15334426Y-5820005D01*
G01X15345856Y-5820005D01*
G01X15363128Y-5814163D01*
G01X15374558Y-5797145D01*
G01X15380146Y-5768443D01*
G01X15380146Y-5751425D01*
G01X15374558Y-5722723D01*
G01X15363128Y-5705705D01*
G01X15345856Y-5699863D01*
G01X15334426Y-5699863D01*
G01X15462188Y-5699863D02*
G01X15445170Y-5705705D01*
G01X15433740Y-5722723D01*
G01X15427898Y-5751425D01*
G01X15427898Y-5768443D01*
G01X15433740Y-5797145D01*
G01X15445170Y-5814163D01*
G01X15462188Y-5820005D01*
G01X15473618Y-5820005D01*
G01X15490890Y-5814163D01*
G01X15502320Y-5797145D01*
G01X15507908Y-5768443D01*
G01X15507908Y-5751425D01*
G01X15502320Y-5722723D01*
G01X15490890Y-5705705D01*
G01X15473618Y-5699863D01*
G01X15462188Y-5699863D01*
G01X15555660Y-5739995D02*
G01X15555660Y-5820005D01*
G01X15555660Y-5762855D02*
G01X15572932Y-5745583D01*
G01X15584362Y-5739995D01*
G01X15601380Y-5739995D01*
G01X15612810Y-5745583D01*
G01X15618652Y-5762855D01*
G01X15618652Y-5820005D01*
G01X15618652Y-5762855D02*
G01X15635670Y-5745583D01*
G01X15647100Y-5739995D01*
G01X15664372Y-5739995D01*
G01X15675802Y-5745583D01*
G01X15681390Y-5762855D01*
G01X15681390Y-5820005D01*
G01X15729142Y-5739995D02*
G01X15729142Y-5820005D01*
G01X15729142Y-5762855D02*
G01X15746414Y-5745583D01*
G01X15757844Y-5739995D01*
G01X15774862Y-5739995D01*
G01X15786292Y-5745583D01*
G01X15792134Y-5762855D01*
G01X15792134Y-5820005D01*
G01X15792134Y-5762855D02*
G01X15809152Y-5745583D01*
G01X15820582Y-5739995D01*
G01X15837854Y-5739995D01*
G01X15849284Y-5745583D01*
G01X15854872Y-5762855D01*
G01X15854872Y-5820005D01*
G01X15902624Y-5677003D02*
G01X15914054Y-5688433D01*
G01X15925484Y-5705705D01*
G01X15936914Y-5728565D01*
G01X15942756Y-5757013D01*
G01X15942756Y-5779873D01*
G01X15936914Y-5808575D01*
G01X15925484Y-5831435D01*
G01X15914054Y-5848453D01*
G01X15902624Y-5859883D01*
G01X18079803Y-5699863D02*
G01X18079803Y-5820005D01*
G01X18079803Y-5699863D02*
G01X18159813Y-5820005D01*
G01X18159813Y-5699863D02*
G01X18159813Y-5820005D01*
G01X18207565Y-5699863D02*
G01X18207565Y-5820005D01*
G01X18207565Y-5699863D02*
G01X18259127Y-5699863D01*
G01X18276145Y-5705705D01*
G01X18281987Y-5711293D01*
G01X18287575Y-5722723D01*
G01X18287575Y-5739995D01*
G01X18281987Y-5751425D01*
G01X18276145Y-5757013D01*
G01X18259127Y-5762855D01*
G01X18207565Y-5762855D01*
G01X18375459Y-5699863D02*
G01X18375459Y-5820005D01*
G01X18335327Y-5699863D02*
G01X18415337Y-5699863D01*
G01X18463089Y-5699863D02*
G01X18463089Y-5820005D01*
G01X18543099Y-5699863D02*
G01X18543099Y-5820005D01*
G01X18463089Y-5757013D02*
G01X18543099Y-5757013D01*
G01X19541210Y-5699863D02*
G01X19541210Y-5820005D01*
G01X19541210Y-5699863D02*
G01X19592772Y-5699863D01*
G01X19609790Y-5705705D01*
G01X19615632Y-5711293D01*
G01X19621220Y-5722723D01*
G01X19621220Y-5734153D01*
G01X19615632Y-5745583D01*
G01X19609790Y-5751425D01*
G01X19592772Y-5757013D01*
G01X19541210Y-5757013D01*
G01X19581342Y-5757013D02*
G01X19621220Y-5820005D01*
G01X19697674Y-5739995D02*
G01X19686244Y-5745583D01*
G01X19674814Y-5757013D01*
G01X19668972Y-5774285D01*
G01X19668972Y-5785715D01*
G01X19674814Y-5802733D01*
G01X19686244Y-5814163D01*
G01X19697674Y-5820005D01*
G01X19714692Y-5820005D01*
G01X19726122Y-5814163D01*
G01X19737552Y-5802733D01*
G01X19743394Y-5785715D01*
G01X19743394Y-5774285D01*
G01X19737552Y-5757013D01*
G01X19726122Y-5745583D01*
G01X19714692Y-5739995D01*
G01X19697674Y-5739995D01*
G01X19791146Y-5739995D02*
G01X19791146Y-5797145D01*
G01X19796988Y-5814163D01*
G01X19808418Y-5820005D01*
G01X19825436Y-5820005D01*
G01X19836866Y-5814163D01*
G01X19854138Y-5797145D01*
G01X19854138Y-5739995D02*
G01X19854138Y-5820005D01*
G01X19901890Y-5739995D02*
G01X19901890Y-5820005D01*
G01X19901890Y-5762855D02*
G01X19919162Y-5745583D01*
G01X19930592Y-5739995D01*
G01X19947610Y-5739995D01*
G01X19959040Y-5745583D01*
G01X19964882Y-5762855D01*
G01X19964882Y-5820005D01*
G01X20081214Y-5699863D02*
G01X20081214Y-5820005D01*
G01X20081214Y-5757013D02*
G01X20069784Y-5745583D01*
G01X20058354Y-5739995D01*
G01X20041336Y-5739995D01*
G01X20029906Y-5745583D01*
G01X20018476Y-5757013D01*
G01X20012634Y-5774285D01*
G01X20012634Y-5785715D01*
G01X20018476Y-5802733D01*
G01X20029906Y-5814163D01*
G01X20041336Y-5820005D01*
G01X20058354Y-5820005D01*
G01X20069784Y-5814163D01*
G01X20081214Y-5802733D01*
G01X20972391Y-5699863D02*
G01X21018111Y-5820005D01*
G01X21063831Y-5699863D02*
G01X21018111Y-5820005D01*
G01X21111583Y-5699863D02*
G01X21117425Y-5705705D01*
G01X21123013Y-5699863D01*
G01X21117425Y-5694275D01*
G01X21111583Y-5699863D01*
G01X21117425Y-5739995D02*
G01X21117425Y-5820005D01*
G01X21239345Y-5739995D02*
G01X21239345Y-5820005D01*
G01X21239345Y-5757013D02*
G01X21227915Y-5745583D01*
G01X21216485Y-5739995D01*
G01X21199467Y-5739995D01*
G01X21188037Y-5745583D01*
G01X21176607Y-5757013D01*
G01X21170765Y-5774285D01*
G01X21170765Y-5785715D01*
G01X21176607Y-5802733D01*
G01X21188037Y-5814163D01*
G01X21199467Y-5820005D01*
G01X21216485Y-5820005D01*
G01X21227915Y-5814163D01*
G01X21239345Y-5802733D01*
G01X24601071Y-5699863D02*
G01X24601071Y-5820005D01*
G01X24560939Y-5699863D02*
G01X24640949Y-5699863D01*
G01X24717403Y-5739995D02*
G01X24705973Y-5745583D01*
G01X24694543Y-5757013D01*
G01X24688701Y-5774285D01*
G01X24688701Y-5785715D01*
G01X24694543Y-5802733D01*
G01X24705973Y-5814163D01*
G01X24717403Y-5820005D01*
G01X24734421Y-5820005D01*
G01X24745851Y-5814163D01*
G01X24757281Y-5802733D01*
G01X24763123Y-5785715D01*
G01X24763123Y-5774285D01*
G01X24757281Y-5757013D01*
G01X24745851Y-5745583D01*
G01X24734421Y-5739995D01*
G01X24717403Y-5739995D01*
G01X24810875Y-5739995D02*
G01X24810875Y-5859883D01*
G01X24810875Y-5757013D02*
G01X24822305Y-5745583D01*
G01X24833735Y-5739995D01*
G01X24851007Y-5739995D01*
G01X24862437Y-5745583D01*
G01X24873867Y-5757013D01*
G01X24879455Y-5774285D01*
G01X24879455Y-5785715D01*
G01X24873867Y-5802733D01*
G01X24862437Y-5814163D01*
G01X24851007Y-5820005D01*
G01X24833735Y-5820005D01*
G01X24822305Y-5814163D01*
G01X24810875Y-5802733D01*
G01X25055223Y-5699863D02*
G01X25055223Y-5820005D01*
G01X25055223Y-5820005D02*
G01X25123803Y-5820005D01*
G01X25240135Y-5739995D02*
G01X25240135Y-5820005D01*
G01X25240135Y-5757013D02*
G01X25228705Y-5745583D01*
G01X25217275Y-5739995D01*
G01X25200257Y-5739995D01*
G01X25188827Y-5745583D01*
G01X25177397Y-5757013D01*
G01X25171555Y-5774285D01*
G01X25171555Y-5785715D01*
G01X25177397Y-5802733D01*
G01X25188827Y-5814163D01*
G01X25200257Y-5820005D01*
G01X25217275Y-5820005D01*
G01X25228705Y-5814163D01*
G01X25240135Y-5802733D01*
G01X25293729Y-5739995D02*
G01X25328019Y-5820005D01*
G01X25362309Y-5739995D02*
G01X25328019Y-5820005D01*
G01X25316589Y-5842865D01*
G01X25305159Y-5854295D01*
G01X25293729Y-5859883D01*
G01X25287887Y-5859883D01*
G01X25410061Y-5774285D02*
G01X25478641Y-5774285D01*
G01X25478641Y-5762855D01*
G01X25473053Y-5751425D01*
G01X25467211Y-5745583D01*
G01X25455781Y-5739995D01*
G01X25438763Y-5739995D01*
G01X25427333Y-5745583D01*
G01X25415903Y-5757013D01*
G01X25410061Y-5774285D01*
G01X25410061Y-5785715D01*
G01X25415903Y-5802733D01*
G01X25427333Y-5814163D01*
G01X25438763Y-5820005D01*
G01X25455781Y-5820005D01*
G01X25467211Y-5814163D01*
G01X25478641Y-5802733D01*
G01X25526393Y-5739995D02*
G01X25526393Y-5820005D01*
G01X25526393Y-5774285D02*
G01X25532235Y-5757013D01*
G01X25543665Y-5745583D01*
G01X25555095Y-5739995D01*
G01X25572113Y-5739995D01*
G01X25619865Y-5768443D02*
G01X25722735Y-5768443D01*
G01X25770487Y-5699863D02*
G01X25770487Y-5820005D01*
G01X25770487Y-5699863D02*
G01X25822049Y-5699863D01*
G01X25839067Y-5705705D01*
G01X25844909Y-5711293D01*
G01X25850497Y-5722723D01*
G01X25850497Y-5734153D01*
G01X25844909Y-5745583D01*
G01X25839067Y-5751425D01*
G01X25822049Y-5757013D01*
G01X25770487Y-5757013D02*
G01X25822049Y-5757013D01*
G01X25839067Y-5762855D01*
G01X25844909Y-5768443D01*
G01X25850497Y-5779873D01*
G01X25850497Y-5797145D01*
G01X25844909Y-5808575D01*
G01X25839067Y-5814163D01*
G01X25822049Y-5820005D01*
G01X25770487Y-5820005D01*
G01X25926951Y-5739995D02*
G01X25915521Y-5745583D01*
G01X25904091Y-5757013D01*
G01X25898249Y-5774285D01*
G01X25898249Y-5785715D01*
G01X25904091Y-5802733D01*
G01X25915521Y-5814163D01*
G01X25926951Y-5820005D01*
G01X25943969Y-5820005D01*
G01X25955399Y-5814163D01*
G01X25966829Y-5802733D01*
G01X25972671Y-5785715D01*
G01X25972671Y-5774285D01*
G01X25966829Y-5757013D01*
G01X25955399Y-5745583D01*
G01X25943969Y-5739995D01*
G01X25926951Y-5739995D01*
G01X26037695Y-5699863D02*
G01X26037695Y-5797145D01*
G01X26043283Y-5814163D01*
G01X26054713Y-5820005D01*
G01X26066143Y-5820005D01*
G01X26020423Y-5739995D02*
G01X26060555Y-5739995D01*
G01X26131167Y-5699863D02*
G01X26131167Y-5797145D01*
G01X26136755Y-5814163D01*
G01X26148185Y-5820005D01*
G01X26159615Y-5820005D01*
G01X26113895Y-5739995D02*
G01X26154027Y-5739995D01*
G01X26236069Y-5739995D02*
G01X26224639Y-5745583D01*
G01X26213209Y-5757013D01*
G01X26207367Y-5774285D01*
G01X26207367Y-5785715D01*
G01X26213209Y-5802733D01*
G01X26224639Y-5814163D01*
G01X26236069Y-5820005D01*
G01X26253087Y-5820005D01*
G01X26264517Y-5814163D01*
G01X26275947Y-5802733D01*
G01X26281789Y-5785715D01*
G01X26281789Y-5774285D01*
G01X26275947Y-5757013D01*
G01X26264517Y-5745583D01*
G01X26253087Y-5739995D01*
G01X26236069Y-5739995D01*
G01X26329541Y-5739995D02*
G01X26329541Y-5820005D01*
G01X26329541Y-5762855D02*
G01X26346813Y-5745583D01*
G01X26358243Y-5739995D01*
G01X26375261Y-5739995D01*
G01X26386691Y-5745583D01*
G01X26392533Y-5762855D01*
G01X26392533Y-5820005D01*
G01X26392533Y-5762855D02*
G01X26409551Y-5745583D01*
G01X26420981Y-5739995D01*
G01X26438253Y-5739995D01*
G01X26449683Y-5745583D01*
G01X26455271Y-5762855D01*
G01X26455271Y-5820005D01*
G01X26631039Y-5699863D02*
G01X26631039Y-5820005D01*
G01X26631039Y-5820005D02*
G01X26699619Y-5820005D01*
G01X26815951Y-5739995D02*
G01X26815951Y-5820005D01*
G01X26815951Y-5757013D02*
G01X26804521Y-5745583D01*
G01X26793091Y-5739995D01*
G01X26776073Y-5739995D01*
G01X26764643Y-5745583D01*
G01X26753213Y-5757013D01*
G01X26747371Y-5774285D01*
G01X26747371Y-5785715D01*
G01X26753213Y-5802733D01*
G01X26764643Y-5814163D01*
G01X26776073Y-5820005D01*
G01X26793091Y-5820005D01*
G01X26804521Y-5814163D01*
G01X26815951Y-5802733D01*
G01X26869545Y-5739995D02*
G01X26903835Y-5820005D01*
G01X26938125Y-5739995D02*
G01X26903835Y-5820005D01*
G01X26892405Y-5842865D01*
G01X26880975Y-5854295D01*
G01X26869545Y-5859883D01*
G01X26863703Y-5859883D01*
G01X26985877Y-5774285D02*
G01X27054457Y-5774285D01*
G01X27054457Y-5762855D01*
G01X27048869Y-5751425D01*
G01X27043027Y-5745583D01*
G01X27031597Y-5739995D01*
G01X27014579Y-5739995D01*
G01X27003149Y-5745583D01*
G01X26991719Y-5757013D01*
G01X26985877Y-5774285D01*
G01X26985877Y-5785715D01*
G01X26991719Y-5802733D01*
G01X27003149Y-5814163D01*
G01X27014579Y-5820005D01*
G01X27031597Y-5820005D01*
G01X27043027Y-5814163D01*
G01X27054457Y-5802733D01*
G01X27102209Y-5739995D02*
G01X27102209Y-5820005D01*
G01X27102209Y-5774285D02*
G01X27108051Y-5757013D01*
G01X27119481Y-5745583D01*
G01X27130911Y-5739995D01*
G01X27147929Y-5739995D01*
G01X12783104Y-6280434D02*
G01X12846096Y-6280434D01*
G01X12811806Y-6326154D01*
G01X12828824Y-6326154D01*
G01X12840254Y-6331996D01*
G01X12846096Y-6337584D01*
G01X12851684Y-6354856D01*
G01X12851684Y-6366286D01*
G01X12846096Y-6383304D01*
G01X12834666Y-6394734D01*
G01X12817394Y-6400576D01*
G01X12800376Y-6400576D01*
G01X12783104Y-6394734D01*
G01X12777516Y-6389146D01*
G01X12771674Y-6377716D01*
G01X14197268Y-6280434D02*
G01X14260260Y-6280434D01*
G01X14225970Y-6326154D01*
G01X14242988Y-6326154D01*
G01X14254418Y-6331996D01*
G01X14260260Y-6337584D01*
G01X14265848Y-6354856D01*
G01X14265848Y-6366286D01*
G01X14260260Y-6383304D01*
G01X14248830Y-6394734D01*
G01X14231558Y-6400576D01*
G01X14214540Y-6400576D01*
G01X14197268Y-6394734D01*
G01X14191680Y-6389146D01*
G01X14185838Y-6377716D01*
G01X14382180Y-6297706D02*
G01X14376592Y-6286276D01*
G01X14359320Y-6280434D01*
G01X14347890Y-6280434D01*
G01X14330872Y-6286276D01*
G01X14319442Y-6303294D01*
G01X14313600Y-6331996D01*
G01X14313600Y-6360444D01*
G01X14319442Y-6383304D01*
G01X14330872Y-6394734D01*
G01X14347890Y-6400576D01*
G01X14353732Y-6400576D01*
G01X14370750Y-6394734D01*
G01X14382180Y-6383304D01*
G01X14388022Y-6366286D01*
G01X14388022Y-6360444D01*
G01X14382180Y-6343426D01*
G01X14370750Y-6331996D01*
G01X14353732Y-6326154D01*
G01X14347890Y-6326154D01*
G01X14330872Y-6331996D01*
G01X14319442Y-6343426D01*
G01X14313600Y-6360444D01*
G01X14441616Y-6371874D02*
G01X14435774Y-6377716D01*
G01X14441616Y-6383304D01*
G01X14447204Y-6377716D01*
G01X14441616Y-6371874D01*
G01X14529246Y-6280434D02*
G01X14512228Y-6286276D01*
G01X14500798Y-6303294D01*
G01X14494956Y-6331996D01*
G01X14494956Y-6349014D01*
G01X14500798Y-6377716D01*
G01X14512228Y-6394734D01*
G01X14529246Y-6400576D01*
G01X14540676Y-6400576D01*
G01X14557948Y-6394734D01*
G01X14569378Y-6377716D01*
G01X14574966Y-6349014D01*
G01X14574966Y-6331996D01*
G01X14569378Y-6303294D01*
G01X14557948Y-6286276D01*
G01X14540676Y-6280434D01*
G01X14529246Y-6280434D01*
G01X14622718Y-6320566D02*
G01X14685710Y-6400576D01*
G01X14685710Y-6320566D02*
G01X14622718Y-6400576D01*
G01X14744892Y-6280434D02*
G01X14807884Y-6280434D01*
G01X14773594Y-6326154D01*
G01X14790612Y-6326154D01*
G01X14802042Y-6331996D01*
G01X14807884Y-6337584D01*
G01X14813472Y-6354856D01*
G01X14813472Y-6366286D01*
G01X14807884Y-6383304D01*
G01X14796454Y-6394734D01*
G01X14779182Y-6400576D01*
G01X14762164Y-6400576D01*
G01X14744892Y-6394734D01*
G01X14739304Y-6389146D01*
G01X14733462Y-6377716D01*
G01X14929804Y-6297706D02*
G01X14924216Y-6286276D01*
G01X14906944Y-6280434D01*
G01X14895514Y-6280434D01*
G01X14878496Y-6286276D01*
G01X14867066Y-6303294D01*
G01X14861224Y-6331996D01*
G01X14861224Y-6360444D01*
G01X14867066Y-6383304D01*
G01X14878496Y-6394734D01*
G01X14895514Y-6400576D01*
G01X14901356Y-6400576D01*
G01X14918374Y-6394734D01*
G01X14929804Y-6383304D01*
G01X14935646Y-6366286D01*
G01X14935646Y-6360444D01*
G01X14929804Y-6343426D01*
G01X14918374Y-6331996D01*
G01X14901356Y-6326154D01*
G01X14895514Y-6326154D01*
G01X14878496Y-6331996D01*
G01X14867066Y-6343426D01*
G01X14861224Y-6360444D01*
G01X14989240Y-6371874D02*
G01X14983398Y-6377716D01*
G01X14989240Y-6383304D01*
G01X14994828Y-6377716D01*
G01X14989240Y-6371874D01*
G01X15076870Y-6280434D02*
G01X15059852Y-6286276D01*
G01X15048422Y-6303294D01*
G01X15042580Y-6331996D01*
G01X15042580Y-6349014D01*
G01X15048422Y-6377716D01*
G01X15059852Y-6394734D01*
G01X15076870Y-6400576D01*
G01X15088300Y-6400576D01*
G01X15105572Y-6394734D01*
G01X15117002Y-6377716D01*
G01X15122590Y-6349014D01*
G01X15122590Y-6331996D01*
G01X15117002Y-6303294D01*
G01X15105572Y-6286276D01*
G01X15088300Y-6280434D01*
G01X15076870Y-6280434D01*
G01X15170342Y-6320566D02*
G01X15170342Y-6400576D01*
G01X15170342Y-6343426D02*
G01X15187614Y-6326154D01*
G01X15199044Y-6320566D01*
G01X15216062Y-6320566D01*
G01X15227492Y-6326154D01*
G01X15233334Y-6343426D01*
G01X15233334Y-6400576D01*
G01X15233334Y-6343426D02*
G01X15250352Y-6326154D01*
G01X15261782Y-6320566D01*
G01X15279054Y-6320566D01*
G01X15290484Y-6326154D01*
G01X15296072Y-6343426D01*
G01X15296072Y-6400576D01*
G01X15343824Y-6280434D02*
G01X15349666Y-6286276D01*
G01X15355254Y-6280434D01*
G01X15349666Y-6274846D01*
G01X15343824Y-6280434D01*
G01X15349666Y-6320566D02*
G01X15349666Y-6400576D01*
G01X15403006Y-6280434D02*
G01X15403006Y-6400576D01*
G01X15490890Y-6257574D02*
G01X15479460Y-6269004D01*
G01X15468030Y-6286276D01*
G01X15456600Y-6309136D01*
G01X15450758Y-6337584D01*
G01X15450758Y-6360444D01*
G01X15456600Y-6389146D01*
G01X15468030Y-6412006D01*
G01X15479460Y-6429024D01*
G01X15490890Y-6440454D01*
G01X15572932Y-6280434D02*
G01X15555914Y-6286276D01*
G01X15544484Y-6303294D01*
G01X15538642Y-6331996D01*
G01X15538642Y-6349014D01*
G01X15544484Y-6377716D01*
G01X15555914Y-6394734D01*
G01X15572932Y-6400576D01*
G01X15584362Y-6400576D01*
G01X15601634Y-6394734D01*
G01X15613064Y-6377716D01*
G01X15618652Y-6349014D01*
G01X15618652Y-6331996D01*
G01X15613064Y-6303294D01*
G01X15601634Y-6286276D01*
G01X15584362Y-6280434D01*
G01X15572932Y-6280434D01*
G01X15672246Y-6371874D02*
G01X15666404Y-6377716D01*
G01X15672246Y-6383304D01*
G01X15677834Y-6377716D01*
G01X15672246Y-6371874D01*
G01X15800008Y-6320566D02*
G01X15794166Y-6337584D01*
G01X15782736Y-6349014D01*
G01X15765718Y-6354856D01*
G01X15759876Y-6354856D01*
G01X15742858Y-6349014D01*
G01X15731428Y-6337584D01*
G01X15725586Y-6320566D01*
G01X15725586Y-6314724D01*
G01X15731428Y-6297706D01*
G01X15742858Y-6286276D01*
G01X15759876Y-6280434D01*
G01X15765718Y-6280434D01*
G01X15782736Y-6286276D01*
G01X15794166Y-6297706D01*
G01X15800008Y-6320566D01*
G01X15800008Y-6349014D01*
G01X15794166Y-6377716D01*
G01X15782736Y-6394734D01*
G01X15765718Y-6400576D01*
G01X15754288Y-6400576D01*
G01X15737016Y-6394734D01*
G01X15731428Y-6383304D01*
G01X15847760Y-6303294D02*
G01X15859190Y-6297706D01*
G01X15876462Y-6280434D01*
G01X15876462Y-6400576D01*
G01X15981364Y-6280434D02*
G01X15924214Y-6360444D01*
G01X16010066Y-6360444D01*
G01X15981364Y-6280434D02*
G01X15981364Y-6400576D01*
G01X16057818Y-6320566D02*
G01X16120810Y-6400576D01*
G01X16120810Y-6320566D02*
G01X16057818Y-6400576D01*
G01X16202852Y-6280434D02*
G01X16185834Y-6286276D01*
G01X16174404Y-6303294D01*
G01X16168562Y-6331996D01*
G01X16168562Y-6349014D01*
G01X16174404Y-6377716D01*
G01X16185834Y-6394734D01*
G01X16202852Y-6400576D01*
G01X16214282Y-6400576D01*
G01X16231554Y-6394734D01*
G01X16242984Y-6377716D01*
G01X16248572Y-6349014D01*
G01X16248572Y-6331996D01*
G01X16242984Y-6303294D01*
G01X16231554Y-6286276D01*
G01X16214282Y-6280434D01*
G01X16202852Y-6280434D01*
G01X16302166Y-6371874D02*
G01X16296324Y-6377716D01*
G01X16302166Y-6383304D01*
G01X16307754Y-6377716D01*
G01X16302166Y-6371874D01*
G01X16429928Y-6320566D02*
G01X16424086Y-6337584D01*
G01X16412656Y-6349014D01*
G01X16395638Y-6354856D01*
G01X16389796Y-6354856D01*
G01X16372778Y-6349014D01*
G01X16361348Y-6337584D01*
G01X16355506Y-6320566D01*
G01X16355506Y-6314724D01*
G01X16361348Y-6297706D01*
G01X16372778Y-6286276D01*
G01X16389796Y-6280434D01*
G01X16395638Y-6280434D01*
G01X16412656Y-6286276D01*
G01X16424086Y-6297706D01*
G01X16429928Y-6320566D01*
G01X16429928Y-6349014D01*
G01X16424086Y-6377716D01*
G01X16412656Y-6394734D01*
G01X16395638Y-6400576D01*
G01X16384208Y-6400576D01*
G01X16366936Y-6394734D01*
G01X16361348Y-6383304D01*
G01X16477680Y-6303294D02*
G01X16489110Y-6297706D01*
G01X16506382Y-6280434D01*
G01X16506382Y-6400576D01*
G01X16611284Y-6280434D02*
G01X16554134Y-6360444D01*
G01X16639986Y-6360444D01*
G01X16611284Y-6280434D02*
G01X16611284Y-6400576D01*
G01X16687738Y-6320566D02*
G01X16687738Y-6400576D01*
G01X16687738Y-6343426D02*
G01X16705010Y-6326154D01*
G01X16716440Y-6320566D01*
G01X16733458Y-6320566D01*
G01X16744888Y-6326154D01*
G01X16750730Y-6343426D01*
G01X16750730Y-6400576D01*
G01X16750730Y-6343426D02*
G01X16767748Y-6326154D01*
G01X16779178Y-6320566D01*
G01X16796450Y-6320566D01*
G01X16807880Y-6326154D01*
G01X16813468Y-6343426D01*
G01X16813468Y-6400576D01*
G01X16861220Y-6320566D02*
G01X16861220Y-6400576D01*
G01X16861220Y-6343426D02*
G01X16878492Y-6326154D01*
G01X16889922Y-6320566D01*
G01X16906940Y-6320566D01*
G01X16918370Y-6326154D01*
G01X16924212Y-6343426D01*
G01X16924212Y-6400576D01*
G01X16924212Y-6343426D02*
G01X16941230Y-6326154D01*
G01X16952660Y-6320566D01*
G01X16969932Y-6320566D01*
G01X16981362Y-6326154D01*
G01X16986950Y-6343426D01*
G01X16986950Y-6400576D01*
G01X17034702Y-6257574D02*
G01X17046132Y-6269004D01*
G01X17057562Y-6286276D01*
G01X17068992Y-6309136D01*
G01X17074834Y-6337584D01*
G01X17074834Y-6360444D01*
G01X17068992Y-6389146D01*
G01X17057562Y-6412006D01*
G01X17046132Y-6429024D01*
G01X17034702Y-6440454D01*
G01X18079803Y-6280434D02*
G01X18079803Y-6400576D01*
G01X18079803Y-6280434D02*
G01X18131365Y-6280434D01*
G01X18148383Y-6286276D01*
G01X18154225Y-6291864D01*
G01X18159813Y-6303294D01*
G01X18159813Y-6320566D01*
G01X18154225Y-6331996D01*
G01X18148383Y-6337584D01*
G01X18131365Y-6343426D01*
G01X18079803Y-6343426D01*
G01X18247697Y-6280434D02*
G01X18247697Y-6400576D01*
G01X18207565Y-6280434D02*
G01X18287575Y-6280434D01*
G01X18335327Y-6280434D02*
G01X18335327Y-6400576D01*
G01X18415337Y-6280434D02*
G01X18415337Y-6400576D01*
G01X18335327Y-6337584D02*
G01X18415337Y-6337584D01*
G01X19541210Y-6280434D02*
G01X19541210Y-6400576D01*
G01X19541210Y-6280434D02*
G01X19592772Y-6280434D01*
G01X19609790Y-6286276D01*
G01X19615632Y-6291864D01*
G01X19621220Y-6303294D01*
G01X19621220Y-6314724D01*
G01X19615632Y-6326154D01*
G01X19609790Y-6331996D01*
G01X19592772Y-6337584D01*
G01X19541210Y-6337584D01*
G01X19581342Y-6337584D02*
G01X19621220Y-6400576D01*
G01X19697674Y-6320566D02*
G01X19686244Y-6326154D01*
G01X19674814Y-6337584D01*
G01X19668972Y-6354856D01*
G01X19668972Y-6366286D01*
G01X19674814Y-6383304D01*
G01X19686244Y-6394734D01*
G01X19697674Y-6400576D01*
G01X19714692Y-6400576D01*
G01X19726122Y-6394734D01*
G01X19737552Y-6383304D01*
G01X19743394Y-6366286D01*
G01X19743394Y-6354856D01*
G01X19737552Y-6337584D01*
G01X19726122Y-6326154D01*
G01X19714692Y-6320566D01*
G01X19697674Y-6320566D01*
G01X19791146Y-6320566D02*
G01X19791146Y-6377716D01*
G01X19796988Y-6394734D01*
G01X19808418Y-6400576D01*
G01X19825436Y-6400576D01*
G01X19836866Y-6394734D01*
G01X19854138Y-6377716D01*
G01X19854138Y-6320566D02*
G01X19854138Y-6400576D01*
G01X19901890Y-6320566D02*
G01X19901890Y-6400576D01*
G01X19901890Y-6343426D02*
G01X19919162Y-6326154D01*
G01X19930592Y-6320566D01*
G01X19947610Y-6320566D01*
G01X19959040Y-6326154D01*
G01X19964882Y-6343426D01*
G01X19964882Y-6400576D01*
G01X20081214Y-6280434D02*
G01X20081214Y-6400576D01*
G01X20081214Y-6337584D02*
G01X20069784Y-6326154D01*
G01X20058354Y-6320566D01*
G01X20041336Y-6320566D01*
G01X20029906Y-6326154D01*
G01X20018476Y-6337584D01*
G01X20012634Y-6354856D01*
G01X20012634Y-6366286D01*
G01X20018476Y-6383304D01*
G01X20029906Y-6394734D01*
G01X20041336Y-6400576D01*
G01X20058354Y-6400576D01*
G01X20069784Y-6394734D01*
G01X20081214Y-6383304D01*
G01X20972391Y-6280434D02*
G01X20972391Y-6400576D01*
G01X20972391Y-6280434D02*
G01X21023953Y-6280434D01*
G01X21040971Y-6286276D01*
G01X21046813Y-6291864D01*
G01X21052401Y-6303294D01*
G01X21052401Y-6320566D01*
G01X21046813Y-6331996D01*
G01X21040971Y-6337584D01*
G01X21023953Y-6343426D01*
G01X20972391Y-6343426D01*
G01X21168733Y-6320566D02*
G01X21168733Y-6400576D01*
G01X21168733Y-6337584D02*
G01X21157303Y-6326154D01*
G01X21145873Y-6320566D01*
G01X21128855Y-6320566D01*
G01X21117425Y-6326154D01*
G01X21105995Y-6337584D01*
G01X21100153Y-6354856D01*
G01X21100153Y-6366286D01*
G01X21105995Y-6383304D01*
G01X21117425Y-6394734D01*
G01X21128855Y-6400576D01*
G01X21145873Y-6400576D01*
G01X21157303Y-6394734D01*
G01X21168733Y-6383304D01*
G01X21285065Y-6280434D02*
G01X21285065Y-6400576D01*
G01X21285065Y-6337584D02*
G01X21273635Y-6326154D01*
G01X21262205Y-6320566D01*
G01X21245187Y-6320566D01*
G01X21233757Y-6326154D01*
G01X21222327Y-6337584D01*
G01X21216485Y-6354856D01*
G01X21216485Y-6366286D01*
G01X21222327Y-6383304D01*
G01X21233757Y-6394734D01*
G01X21245187Y-6400576D01*
G01X21262205Y-6400576D01*
G01X21273635Y-6394734D01*
G01X21285065Y-6383304D01*
G01X22641570Y-6280434D02*
G01X22641570Y-6400576D01*
G01X22641570Y-6280434D02*
G01X22693132Y-6280434D01*
G01X22710150Y-6286276D01*
G01X22715992Y-6291864D01*
G01X22721580Y-6303294D01*
G01X22721580Y-6314724D01*
G01X22715992Y-6326154D01*
G01X22710150Y-6331996D01*
G01X22693132Y-6337584D01*
G01X22641570Y-6337584D01*
G01X22681702Y-6337584D02*
G01X22721580Y-6400576D01*
G01X22798034Y-6320566D02*
G01X22786604Y-6326154D01*
G01X22775174Y-6337584D01*
G01X22769332Y-6354856D01*
G01X22769332Y-6366286D01*
G01X22775174Y-6383304D01*
G01X22786604Y-6394734D01*
G01X22798034Y-6400576D01*
G01X22815052Y-6400576D01*
G01X22826482Y-6394734D01*
G01X22837912Y-6383304D01*
G01X22843754Y-6366286D01*
G01X22843754Y-6354856D01*
G01X22837912Y-6337584D01*
G01X22826482Y-6326154D01*
G01X22815052Y-6320566D01*
G01X22798034Y-6320566D01*
G01X22891506Y-6320566D02*
G01X22891506Y-6377716D01*
G01X22897348Y-6394734D01*
G01X22908778Y-6400576D01*
G01X22925796Y-6400576D01*
G01X22937226Y-6394734D01*
G01X22954498Y-6377716D01*
G01X22954498Y-6320566D02*
G01X22954498Y-6400576D01*
G01X23002250Y-6320566D02*
G01X23002250Y-6400576D01*
G01X23002250Y-6343426D02*
G01X23019522Y-6326154D01*
G01X23030952Y-6320566D01*
G01X23047970Y-6320566D01*
G01X23059400Y-6326154D01*
G01X23065242Y-6343426D01*
G01X23065242Y-6400576D01*
G01X23181574Y-6280434D02*
G01X23181574Y-6400576D01*
G01X23181574Y-6337584D02*
G01X23170144Y-6326154D01*
G01X23158714Y-6320566D01*
G01X23141696Y-6320566D01*
G01X23130266Y-6326154D01*
G01X23118836Y-6337584D01*
G01X23112994Y-6354856D01*
G01X23112994Y-6366286D01*
G01X23118836Y-6383304D01*
G01X23130266Y-6394734D01*
G01X23141696Y-6400576D01*
G01X23158714Y-6400576D01*
G01X23170144Y-6394734D01*
G01X23181574Y-6383304D01*
G01X24601071Y-6280434D02*
G01X24601071Y-6400576D01*
G01X24560939Y-6280434D02*
G01X24640949Y-6280434D01*
G01X24717403Y-6320566D02*
G01X24705973Y-6326154D01*
G01X24694543Y-6337584D01*
G01X24688701Y-6354856D01*
G01X24688701Y-6366286D01*
G01X24694543Y-6383304D01*
G01X24705973Y-6394734D01*
G01X24717403Y-6400576D01*
G01X24734421Y-6400576D01*
G01X24745851Y-6394734D01*
G01X24757281Y-6383304D01*
G01X24763123Y-6366286D01*
G01X24763123Y-6354856D01*
G01X24757281Y-6337584D01*
G01X24745851Y-6326154D01*
G01X24734421Y-6320566D01*
G01X24717403Y-6320566D01*
G01X24810875Y-6320566D02*
G01X24810875Y-6440454D01*
G01X24810875Y-6337584D02*
G01X24822305Y-6326154D01*
G01X24833735Y-6320566D01*
G01X24851007Y-6320566D01*
G01X24862437Y-6326154D01*
G01X24873867Y-6337584D01*
G01X24879455Y-6354856D01*
G01X24879455Y-6366286D01*
G01X24873867Y-6383304D01*
G01X24862437Y-6394734D01*
G01X24851007Y-6400576D01*
G01X24833735Y-6400576D01*
G01X24822305Y-6394734D01*
G01X24810875Y-6383304D01*
G01X25055223Y-6280434D02*
G01X25055223Y-6400576D01*
G01X25055223Y-6400576D02*
G01X25123803Y-6400576D01*
G01X25240135Y-6320566D02*
G01X25240135Y-6400576D01*
G01X25240135Y-6337584D02*
G01X25228705Y-6326154D01*
G01X25217275Y-6320566D01*
G01X25200257Y-6320566D01*
G01X25188827Y-6326154D01*
G01X25177397Y-6337584D01*
G01X25171555Y-6354856D01*
G01X25171555Y-6366286D01*
G01X25177397Y-6383304D01*
G01X25188827Y-6394734D01*
G01X25200257Y-6400576D01*
G01X25217275Y-6400576D01*
G01X25228705Y-6394734D01*
G01X25240135Y-6383304D01*
G01X25293729Y-6320566D02*
G01X25328019Y-6400576D01*
G01X25362309Y-6320566D02*
G01X25328019Y-6400576D01*
G01X25316589Y-6423436D01*
G01X25305159Y-6434866D01*
G01X25293729Y-6440454D01*
G01X25287887Y-6440454D01*
G01X25410061Y-6354856D02*
G01X25478641Y-6354856D01*
G01X25478641Y-6343426D01*
G01X25473053Y-6331996D01*
G01X25467211Y-6326154D01*
G01X25455781Y-6320566D01*
G01X25438763Y-6320566D01*
G01X25427333Y-6326154D01*
G01X25415903Y-6337584D01*
G01X25410061Y-6354856D01*
G01X25410061Y-6366286D01*
G01X25415903Y-6383304D01*
G01X25427333Y-6394734D01*
G01X25438763Y-6400576D01*
G01X25455781Y-6400576D01*
G01X25467211Y-6394734D01*
G01X25478641Y-6383304D01*
G01X25526393Y-6320566D02*
G01X25526393Y-6400576D01*
G01X25526393Y-6354856D02*
G01X25532235Y-6337584D01*
G01X25543665Y-6326154D01*
G01X25555095Y-6320566D01*
G01X25572113Y-6320566D01*
G01X25619865Y-6349014D02*
G01X25722735Y-6349014D01*
G01X25770487Y-6280434D02*
G01X25770487Y-6400576D01*
G01X25770487Y-6280434D02*
G01X25822049Y-6280434D01*
G01X25839067Y-6286276D01*
G01X25844909Y-6291864D01*
G01X25850497Y-6303294D01*
G01X25850497Y-6314724D01*
G01X25844909Y-6326154D01*
G01X25839067Y-6331996D01*
G01X25822049Y-6337584D01*
G01X25770487Y-6337584D02*
G01X25822049Y-6337584D01*
G01X25839067Y-6343426D01*
G01X25844909Y-6349014D01*
G01X25850497Y-6360444D01*
G01X25850497Y-6377716D01*
G01X25844909Y-6389146D01*
G01X25839067Y-6394734D01*
G01X25822049Y-6400576D01*
G01X25770487Y-6400576D01*
G01X25926951Y-6320566D02*
G01X25915521Y-6326154D01*
G01X25904091Y-6337584D01*
G01X25898249Y-6354856D01*
G01X25898249Y-6366286D01*
G01X25904091Y-6383304D01*
G01X25915521Y-6394734D01*
G01X25926951Y-6400576D01*
G01X25943969Y-6400576D01*
G01X25955399Y-6394734D01*
G01X25966829Y-6383304D01*
G01X25972671Y-6366286D01*
G01X25972671Y-6354856D01*
G01X25966829Y-6337584D01*
G01X25955399Y-6326154D01*
G01X25943969Y-6320566D01*
G01X25926951Y-6320566D01*
G01X26037695Y-6280434D02*
G01X26037695Y-6377716D01*
G01X26043283Y-6394734D01*
G01X26054713Y-6400576D01*
G01X26066143Y-6400576D01*
G01X26020423Y-6320566D02*
G01X26060555Y-6320566D01*
G01X26131167Y-6280434D02*
G01X26131167Y-6377716D01*
G01X26136755Y-6394734D01*
G01X26148185Y-6400576D01*
G01X26159615Y-6400576D01*
G01X26113895Y-6320566D02*
G01X26154027Y-6320566D01*
G01X26236069Y-6320566D02*
G01X26224639Y-6326154D01*
G01X26213209Y-6337584D01*
G01X26207367Y-6354856D01*
G01X26207367Y-6366286D01*
G01X26213209Y-6383304D01*
G01X26224639Y-6394734D01*
G01X26236069Y-6400576D01*
G01X26253087Y-6400576D01*
G01X26264517Y-6394734D01*
G01X26275947Y-6383304D01*
G01X26281789Y-6366286D01*
G01X26281789Y-6354856D01*
G01X26275947Y-6337584D01*
G01X26264517Y-6326154D01*
G01X26253087Y-6320566D01*
G01X26236069Y-6320566D01*
G01X26329541Y-6320566D02*
G01X26329541Y-6400576D01*
G01X26329541Y-6343426D02*
G01X26346813Y-6326154D01*
G01X26358243Y-6320566D01*
G01X26375261Y-6320566D01*
G01X26386691Y-6326154D01*
G01X26392533Y-6343426D01*
G01X26392533Y-6400576D01*
G01X26392533Y-6343426D02*
G01X26409551Y-6326154D01*
G01X26420981Y-6320566D01*
G01X26438253Y-6320566D01*
G01X26449683Y-6326154D01*
G01X26455271Y-6343426D01*
G01X26455271Y-6400576D01*
G01X26631039Y-6280434D02*
G01X26631039Y-6400576D01*
G01X26631039Y-6400576D02*
G01X26699619Y-6400576D01*
G01X26815951Y-6320566D02*
G01X26815951Y-6400576D01*
G01X26815951Y-6337584D02*
G01X26804521Y-6326154D01*
G01X26793091Y-6320566D01*
G01X26776073Y-6320566D01*
G01X26764643Y-6326154D01*
G01X26753213Y-6337584D01*
G01X26747371Y-6354856D01*
G01X26747371Y-6366286D01*
G01X26753213Y-6383304D01*
G01X26764643Y-6394734D01*
G01X26776073Y-6400576D01*
G01X26793091Y-6400576D01*
G01X26804521Y-6394734D01*
G01X26815951Y-6383304D01*
G01X26869545Y-6320566D02*
G01X26903835Y-6400576D01*
G01X26938125Y-6320566D02*
G01X26903835Y-6400576D01*
G01X26892405Y-6423436D01*
G01X26880975Y-6434866D01*
G01X26869545Y-6440454D01*
G01X26863703Y-6440454D01*
G01X26985877Y-6354856D02*
G01X27054457Y-6354856D01*
G01X27054457Y-6343426D01*
G01X27048869Y-6331996D01*
G01X27043027Y-6326154D01*
G01X27031597Y-6320566D01*
G01X27014579Y-6320566D01*
G01X27003149Y-6326154D01*
G01X26991719Y-6337584D01*
G01X26985877Y-6354856D01*
G01X26985877Y-6366286D01*
G01X26991719Y-6383304D01*
G01X27003149Y-6394734D01*
G01X27014579Y-6400576D01*
G01X27031597Y-6400576D01*
G01X27043027Y-6394734D01*
G01X27054457Y-6383304D01*
G01X27102209Y-6320566D02*
G01X27102209Y-6400576D01*
G01X27102209Y-6354856D02*
G01X27108051Y-6337584D01*
G01X27119481Y-6326154D01*
G01X27130911Y-6320566D01*
G01X27147929Y-6320566D01*
G01X12771674Y-6883866D02*
G01X12783104Y-6878278D01*
G01X12800376Y-6861006D01*
G01X12800376Y-6981148D01*
G01X12853970Y-6889708D02*
G01X12853970Y-6883866D01*
G01X12859558Y-6872436D01*
G01X12865400Y-6866848D01*
G01X12876830Y-6861006D01*
G01X12899690Y-6861006D01*
G01X12911120Y-6866848D01*
G01X12916708Y-6872436D01*
G01X12922550Y-6883866D01*
G01X12922550Y-6895296D01*
G01X12916708Y-6906726D01*
G01X12905278Y-6923998D01*
G01X12848128Y-6981148D01*
G01X12928138Y-6981148D01*
G01X14197268Y-6861006D02*
G01X14260260Y-6861006D01*
G01X14225970Y-6906726D01*
G01X14242988Y-6906726D01*
G01X14254418Y-6912568D01*
G01X14260260Y-6918156D01*
G01X14265848Y-6935428D01*
G01X14265848Y-6946858D01*
G01X14260260Y-6963876D01*
G01X14248830Y-6975306D01*
G01X14231558Y-6981148D01*
G01X14214540Y-6981148D01*
G01X14197268Y-6975306D01*
G01X14191680Y-6969718D01*
G01X14185838Y-6958288D01*
G01X14382180Y-6861006D02*
G01X14325030Y-6861006D01*
G01X14319442Y-6912568D01*
G01X14325030Y-6906726D01*
G01X14342302Y-6901138D01*
G01X14359320Y-6901138D01*
G01X14376592Y-6906726D01*
G01X14388022Y-6918156D01*
G01X14393610Y-6935428D01*
G01X14393610Y-6946858D01*
G01X14388022Y-6963876D01*
G01X14376592Y-6975306D01*
G01X14359320Y-6981148D01*
G01X14342302Y-6981148D01*
G01X14325030Y-6975306D01*
G01X14319442Y-6969718D01*
G01X14313600Y-6958288D01*
G01X14447204Y-6952446D02*
G01X14441362Y-6958288D01*
G01X14447204Y-6963876D01*
G01X14452792Y-6958288D01*
G01X14447204Y-6952446D01*
G01X14557694Y-6861006D02*
G01X14500544Y-6941016D01*
G01X14586396Y-6941016D01*
G01X14557694Y-6861006D02*
G01X14557694Y-6981148D01*
G01X14634148Y-6901138D02*
G01X14697140Y-6981148D01*
G01X14697140Y-6901138D02*
G01X14634148Y-6981148D01*
G01X14756322Y-6861006D02*
G01X14819314Y-6861006D01*
G01X14785024Y-6906726D01*
G01X14802042Y-6906726D01*
G01X14813472Y-6912568D01*
G01X14819314Y-6918156D01*
G01X14824902Y-6935428D01*
G01X14824902Y-6946858D01*
G01X14819314Y-6963876D01*
G01X14807884Y-6975306D01*
G01X14790612Y-6981148D01*
G01X14773594Y-6981148D01*
G01X14756322Y-6975306D01*
G01X14750734Y-6969718D01*
G01X14744892Y-6958288D01*
G01X14941234Y-6861006D02*
G01X14884084Y-6861006D01*
G01X14878496Y-6912568D01*
G01X14884084Y-6906726D01*
G01X14901356Y-6901138D01*
G01X14918374Y-6901138D01*
G01X14935646Y-6906726D01*
G01X14947076Y-6918156D01*
G01X14952664Y-6935428D01*
G01X14952664Y-6946858D01*
G01X14947076Y-6963876D01*
G01X14935646Y-6975306D01*
G01X14918374Y-6981148D01*
G01X14901356Y-6981148D01*
G01X14884084Y-6975306D01*
G01X14878496Y-6969718D01*
G01X14872654Y-6958288D01*
G01X15006258Y-6952446D02*
G01X15000416Y-6958288D01*
G01X15006258Y-6963876D01*
G01X15011846Y-6958288D01*
G01X15006258Y-6952446D01*
G01X15116748Y-6861006D02*
G01X15059598Y-6941016D01*
G01X15145450Y-6941016D01*
G01X15116748Y-6861006D02*
G01X15116748Y-6981148D01*
G01X15193202Y-6901138D02*
G01X15193202Y-6981148D01*
G01X15193202Y-6923998D02*
G01X15210474Y-6906726D01*
G01X15221904Y-6901138D01*
G01X15238922Y-6901138D01*
G01X15250352Y-6906726D01*
G01X15256194Y-6923998D01*
G01X15256194Y-6981148D01*
G01X15256194Y-6923998D02*
G01X15273212Y-6906726D01*
G01X15284642Y-6901138D01*
G01X15301914Y-6901138D01*
G01X15313344Y-6906726D01*
G01X15318932Y-6923998D01*
G01X15318932Y-6981148D01*
G01X15366684Y-6861006D02*
G01X15372526Y-6866848D01*
G01X15378114Y-6861006D01*
G01X15372526Y-6855418D01*
G01X15366684Y-6861006D01*
G01X15372526Y-6901138D02*
G01X15372526Y-6981148D01*
G01X15425866Y-6861006D02*
G01X15425866Y-6981148D01*
G01X15513750Y-6838146D02*
G01X15502320Y-6849576D01*
G01X15490890Y-6866848D01*
G01X15479460Y-6889708D01*
G01X15473618Y-6918156D01*
G01X15473618Y-6941016D01*
G01X15479460Y-6969718D01*
G01X15490890Y-6992578D01*
G01X15502320Y-7009596D01*
G01X15513750Y-7021026D01*
G01X15595792Y-6861006D02*
G01X15578774Y-6866848D01*
G01X15567344Y-6883866D01*
G01X15561502Y-6912568D01*
G01X15561502Y-6929586D01*
G01X15567344Y-6958288D01*
G01X15578774Y-6975306D01*
G01X15595792Y-6981148D01*
G01X15607222Y-6981148D01*
G01X15624494Y-6975306D01*
G01X15635924Y-6958288D01*
G01X15641512Y-6929586D01*
G01X15641512Y-6912568D01*
G01X15635924Y-6883866D01*
G01X15624494Y-6866848D01*
G01X15607222Y-6861006D01*
G01X15595792Y-6861006D01*
G01X15695106Y-6952446D02*
G01X15689264Y-6958288D01*
G01X15695106Y-6963876D01*
G01X15700694Y-6958288D01*
G01X15695106Y-6952446D01*
G01X15822868Y-6901138D02*
G01X15817026Y-6918156D01*
G01X15805596Y-6929586D01*
G01X15788578Y-6935428D01*
G01X15782736Y-6935428D01*
G01X15765718Y-6929586D01*
G01X15754288Y-6918156D01*
G01X15748446Y-6901138D01*
G01X15748446Y-6895296D01*
G01X15754288Y-6878278D01*
G01X15765718Y-6866848D01*
G01X15782736Y-6861006D01*
G01X15788578Y-6861006D01*
G01X15805596Y-6866848D01*
G01X15817026Y-6878278D01*
G01X15822868Y-6901138D01*
G01X15822868Y-6929586D01*
G01X15817026Y-6958288D01*
G01X15805596Y-6975306D01*
G01X15788578Y-6981148D01*
G01X15777148Y-6981148D01*
G01X15759876Y-6975306D01*
G01X15754288Y-6963876D01*
G01X15904910Y-6861006D02*
G01X15887892Y-6866848D01*
G01X15876462Y-6883866D01*
G01X15870620Y-6912568D01*
G01X15870620Y-6929586D01*
G01X15876462Y-6958288D01*
G01X15887892Y-6975306D01*
G01X15904910Y-6981148D01*
G01X15916340Y-6981148D01*
G01X15933612Y-6975306D01*
G01X15945042Y-6958288D01*
G01X15950630Y-6929586D01*
G01X15950630Y-6912568D01*
G01X15945042Y-6883866D01*
G01X15933612Y-6866848D01*
G01X15916340Y-6861006D01*
G01X15904910Y-6861006D01*
G01X16032672Y-6861006D02*
G01X16015654Y-6866848D01*
G01X16004224Y-6883866D01*
G01X15998382Y-6912568D01*
G01X15998382Y-6929586D01*
G01X16004224Y-6958288D01*
G01X16015654Y-6975306D01*
G01X16032672Y-6981148D01*
G01X16044102Y-6981148D01*
G01X16061374Y-6975306D01*
G01X16072804Y-6958288D01*
G01X16078392Y-6929586D01*
G01X16078392Y-6912568D01*
G01X16072804Y-6883866D01*
G01X16061374Y-6866848D01*
G01X16044102Y-6861006D01*
G01X16032672Y-6861006D01*
G01X16126144Y-6901138D02*
G01X16189136Y-6981148D01*
G01X16189136Y-6901138D02*
G01X16126144Y-6981148D01*
G01X16271178Y-6861006D02*
G01X16254160Y-6866848D01*
G01X16242730Y-6883866D01*
G01X16236888Y-6912568D01*
G01X16236888Y-6929586D01*
G01X16242730Y-6958288D01*
G01X16254160Y-6975306D01*
G01X16271178Y-6981148D01*
G01X16282608Y-6981148D01*
G01X16299880Y-6975306D01*
G01X16311310Y-6958288D01*
G01X16316898Y-6929586D01*
G01X16316898Y-6912568D01*
G01X16311310Y-6883866D01*
G01X16299880Y-6866848D01*
G01X16282608Y-6861006D01*
G01X16271178Y-6861006D01*
G01X16370492Y-6952446D02*
G01X16364650Y-6958288D01*
G01X16370492Y-6963876D01*
G01X16376080Y-6958288D01*
G01X16370492Y-6952446D01*
G01X16498254Y-6901138D02*
G01X16492412Y-6918156D01*
G01X16480982Y-6929586D01*
G01X16463964Y-6935428D01*
G01X16458122Y-6935428D01*
G01X16441104Y-6929586D01*
G01X16429674Y-6918156D01*
G01X16423832Y-6901138D01*
G01X16423832Y-6895296D01*
G01X16429674Y-6878278D01*
G01X16441104Y-6866848D01*
G01X16458122Y-6861006D01*
G01X16463964Y-6861006D01*
G01X16480982Y-6866848D01*
G01X16492412Y-6878278D01*
G01X16498254Y-6901138D01*
G01X16498254Y-6929586D01*
G01X16492412Y-6958288D01*
G01X16480982Y-6975306D01*
G01X16463964Y-6981148D01*
G01X16452534Y-6981148D01*
G01X16435262Y-6975306D01*
G01X16429674Y-6963876D01*
G01X16580296Y-6861006D02*
G01X16563278Y-6866848D01*
G01X16551848Y-6883866D01*
G01X16546006Y-6912568D01*
G01X16546006Y-6929586D01*
G01X16551848Y-6958288D01*
G01X16563278Y-6975306D01*
G01X16580296Y-6981148D01*
G01X16591726Y-6981148D01*
G01X16608998Y-6975306D01*
G01X16620428Y-6958288D01*
G01X16626016Y-6929586D01*
G01X16626016Y-6912568D01*
G01X16620428Y-6883866D01*
G01X16608998Y-6866848D01*
G01X16591726Y-6861006D01*
G01X16580296Y-6861006D01*
G01X16708058Y-6861006D02*
G01X16691040Y-6866848D01*
G01X16679610Y-6883866D01*
G01X16673768Y-6912568D01*
G01X16673768Y-6929586D01*
G01X16679610Y-6958288D01*
G01X16691040Y-6975306D01*
G01X16708058Y-6981148D01*
G01X16719488Y-6981148D01*
G01X16736760Y-6975306D01*
G01X16748190Y-6958288D01*
G01X16753778Y-6929586D01*
G01X16753778Y-6912568D01*
G01X16748190Y-6883866D01*
G01X16736760Y-6866848D01*
G01X16719488Y-6861006D01*
G01X16708058Y-6861006D01*
G01X16801530Y-6901138D02*
G01X16801530Y-6981148D01*
G01X16801530Y-6923998D02*
G01X16818802Y-6906726D01*
G01X16830232Y-6901138D01*
G01X16847250Y-6901138D01*
G01X16858680Y-6906726D01*
G01X16864522Y-6923998D01*
G01X16864522Y-6981148D01*
G01X16864522Y-6923998D02*
G01X16881540Y-6906726D01*
G01X16892970Y-6901138D01*
G01X16910242Y-6901138D01*
G01X16921672Y-6906726D01*
G01X16927260Y-6923998D01*
G01X16927260Y-6981148D01*
G01X16975012Y-6901138D02*
G01X16975012Y-6981148D01*
G01X16975012Y-6923998D02*
G01X16992284Y-6906726D01*
G01X17003714Y-6901138D01*
G01X17020732Y-6901138D01*
G01X17032162Y-6906726D01*
G01X17038004Y-6923998D01*
G01X17038004Y-6981148D01*
G01X17038004Y-6923998D02*
G01X17055022Y-6906726D01*
G01X17066452Y-6901138D01*
G01X17083724Y-6901138D01*
G01X17095154Y-6906726D01*
G01X17100742Y-6923998D01*
G01X17100742Y-6981148D01*
G01X17148494Y-6838146D02*
G01X17159924Y-6849576D01*
G01X17171354Y-6866848D01*
G01X17182784Y-6889708D01*
G01X17188626Y-6918156D01*
G01X17188626Y-6941016D01*
G01X17182784Y-6969718D01*
G01X17171354Y-6992578D01*
G01X17159924Y-7009596D01*
G01X17148494Y-7021026D01*
G01X18079803Y-6861006D02*
G01X18079803Y-6981148D01*
G01X18079803Y-6861006D02*
G01X18131365Y-6861006D01*
G01X18148383Y-6866848D01*
G01X18154225Y-6872436D01*
G01X18159813Y-6883866D01*
G01X18159813Y-6901138D01*
G01X18154225Y-6912568D01*
G01X18148383Y-6918156D01*
G01X18131365Y-6923998D01*
G01X18079803Y-6923998D01*
G01X18247697Y-6861006D02*
G01X18247697Y-6981148D01*
G01X18207565Y-6861006D02*
G01X18287575Y-6861006D01*
G01X18335327Y-6861006D02*
G01X18335327Y-6981148D01*
G01X18415337Y-6861006D02*
G01X18415337Y-6981148D01*
G01X18335327Y-6918156D02*
G01X18415337Y-6918156D01*
G01X19541210Y-6861006D02*
G01X19541210Y-6981148D01*
G01X19541210Y-6861006D02*
G01X19592772Y-6861006D01*
G01X19609790Y-6866848D01*
G01X19615632Y-6872436D01*
G01X19621220Y-6883866D01*
G01X19621220Y-6895296D01*
G01X19615632Y-6906726D01*
G01X19609790Y-6912568D01*
G01X19592772Y-6918156D01*
G01X19541210Y-6918156D01*
G01X19581342Y-6918156D02*
G01X19621220Y-6981148D01*
G01X19697674Y-6901138D02*
G01X19686244Y-6906726D01*
G01X19674814Y-6918156D01*
G01X19668972Y-6935428D01*
G01X19668972Y-6946858D01*
G01X19674814Y-6963876D01*
G01X19686244Y-6975306D01*
G01X19697674Y-6981148D01*
G01X19714692Y-6981148D01*
G01X19726122Y-6975306D01*
G01X19737552Y-6963876D01*
G01X19743394Y-6946858D01*
G01X19743394Y-6935428D01*
G01X19737552Y-6918156D01*
G01X19726122Y-6906726D01*
G01X19714692Y-6901138D01*
G01X19697674Y-6901138D01*
G01X19791146Y-6901138D02*
G01X19791146Y-6958288D01*
G01X19796988Y-6975306D01*
G01X19808418Y-6981148D01*
G01X19825436Y-6981148D01*
G01X19836866Y-6975306D01*
G01X19854138Y-6958288D01*
G01X19854138Y-6901138D02*
G01X19854138Y-6981148D01*
G01X19901890Y-6901138D02*
G01X19901890Y-6981148D01*
G01X19901890Y-6923998D02*
G01X19919162Y-6906726D01*
G01X19930592Y-6901138D01*
G01X19947610Y-6901138D01*
G01X19959040Y-6906726D01*
G01X19964882Y-6923998D01*
G01X19964882Y-6981148D01*
G01X20081214Y-6861006D02*
G01X20081214Y-6981148D01*
G01X20081214Y-6918156D02*
G01X20069784Y-6906726D01*
G01X20058354Y-6901138D01*
G01X20041336Y-6901138D01*
G01X20029906Y-6906726D01*
G01X20018476Y-6918156D01*
G01X20012634Y-6935428D01*
G01X20012634Y-6946858D01*
G01X20018476Y-6963876D01*
G01X20029906Y-6975306D01*
G01X20041336Y-6981148D01*
G01X20058354Y-6981148D01*
G01X20069784Y-6975306D01*
G01X20081214Y-6963876D01*
G01X20972391Y-6861006D02*
G01X20972391Y-6981148D01*
G01X20972391Y-6861006D02*
G01X21023953Y-6861006D01*
G01X21040971Y-6866848D01*
G01X21046813Y-6872436D01*
G01X21052401Y-6883866D01*
G01X21052401Y-6901138D01*
G01X21046813Y-6912568D01*
G01X21040971Y-6918156D01*
G01X21023953Y-6923998D01*
G01X20972391Y-6923998D01*
G01X21168733Y-6901138D02*
G01X21168733Y-6981148D01*
G01X21168733Y-6918156D02*
G01X21157303Y-6906726D01*
G01X21145873Y-6901138D01*
G01X21128855Y-6901138D01*
G01X21117425Y-6906726D01*
G01X21105995Y-6918156D01*
G01X21100153Y-6935428D01*
G01X21100153Y-6946858D01*
G01X21105995Y-6963876D01*
G01X21117425Y-6975306D01*
G01X21128855Y-6981148D01*
G01X21145873Y-6981148D01*
G01X21157303Y-6975306D01*
G01X21168733Y-6963876D01*
G01X21285065Y-6861006D02*
G01X21285065Y-6981148D01*
G01X21285065Y-6918156D02*
G01X21273635Y-6906726D01*
G01X21262205Y-6901138D01*
G01X21245187Y-6901138D01*
G01X21233757Y-6906726D01*
G01X21222327Y-6918156D01*
G01X21216485Y-6935428D01*
G01X21216485Y-6946858D01*
G01X21222327Y-6963876D01*
G01X21233757Y-6975306D01*
G01X21245187Y-6981148D01*
G01X21262205Y-6981148D01*
G01X21273635Y-6975306D01*
G01X21285065Y-6963876D01*
G01X22641570Y-6861006D02*
G01X22641570Y-6981148D01*
G01X22641570Y-6861006D02*
G01X22693132Y-6861006D01*
G01X22710150Y-6866848D01*
G01X22715992Y-6872436D01*
G01X22721580Y-6883866D01*
G01X22721580Y-6895296D01*
G01X22715992Y-6906726D01*
G01X22710150Y-6912568D01*
G01X22693132Y-6918156D01*
G01X22641570Y-6918156D01*
G01X22681702Y-6918156D02*
G01X22721580Y-6981148D01*
G01X22798034Y-6901138D02*
G01X22786604Y-6906726D01*
G01X22775174Y-6918156D01*
G01X22769332Y-6935428D01*
G01X22769332Y-6946858D01*
G01X22775174Y-6963876D01*
G01X22786604Y-6975306D01*
G01X22798034Y-6981148D01*
G01X22815052Y-6981148D01*
G01X22826482Y-6975306D01*
G01X22837912Y-6963876D01*
G01X22843754Y-6946858D01*
G01X22843754Y-6935428D01*
G01X22837912Y-6918156D01*
G01X22826482Y-6906726D01*
G01X22815052Y-6901138D01*
G01X22798034Y-6901138D01*
G01X22891506Y-6901138D02*
G01X22891506Y-6958288D01*
G01X22897348Y-6975306D01*
G01X22908778Y-6981148D01*
G01X22925796Y-6981148D01*
G01X22937226Y-6975306D01*
G01X22954498Y-6958288D01*
G01X22954498Y-6901138D02*
G01X22954498Y-6981148D01*
G01X23002250Y-6901138D02*
G01X23002250Y-6981148D01*
G01X23002250Y-6923998D02*
G01X23019522Y-6906726D01*
G01X23030952Y-6901138D01*
G01X23047970Y-6901138D01*
G01X23059400Y-6906726D01*
G01X23065242Y-6923998D01*
G01X23065242Y-6981148D01*
G01X23181574Y-6861006D02*
G01X23181574Y-6981148D01*
G01X23181574Y-6918156D02*
G01X23170144Y-6906726D01*
G01X23158714Y-6901138D01*
G01X23141696Y-6901138D01*
G01X23130266Y-6906726D01*
G01X23118836Y-6918156D01*
G01X23112994Y-6935428D01*
G01X23112994Y-6946858D01*
G01X23118836Y-6963876D01*
G01X23130266Y-6975306D01*
G01X23141696Y-6981148D01*
G01X23158714Y-6981148D01*
G01X23170144Y-6975306D01*
G01X23181574Y-6963876D01*
G01X24601071Y-6861006D02*
G01X24601071Y-6981148D01*
G01X24560939Y-6861006D02*
G01X24640949Y-6861006D01*
G01X24717403Y-6901138D02*
G01X24705973Y-6906726D01*
G01X24694543Y-6918156D01*
G01X24688701Y-6935428D01*
G01X24688701Y-6946858D01*
G01X24694543Y-6963876D01*
G01X24705973Y-6975306D01*
G01X24717403Y-6981148D01*
G01X24734421Y-6981148D01*
G01X24745851Y-6975306D01*
G01X24757281Y-6963876D01*
G01X24763123Y-6946858D01*
G01X24763123Y-6935428D01*
G01X24757281Y-6918156D01*
G01X24745851Y-6906726D01*
G01X24734421Y-6901138D01*
G01X24717403Y-6901138D01*
G01X24810875Y-6901138D02*
G01X24810875Y-7021026D01*
G01X24810875Y-6918156D02*
G01X24822305Y-6906726D01*
G01X24833735Y-6901138D01*
G01X24851007Y-6901138D01*
G01X24862437Y-6906726D01*
G01X24873867Y-6918156D01*
G01X24879455Y-6935428D01*
G01X24879455Y-6946858D01*
G01X24873867Y-6963876D01*
G01X24862437Y-6975306D01*
G01X24851007Y-6981148D01*
G01X24833735Y-6981148D01*
G01X24822305Y-6975306D01*
G01X24810875Y-6963876D01*
G01X25055223Y-6861006D02*
G01X25055223Y-6981148D01*
G01X25055223Y-6981148D02*
G01X25123803Y-6981148D01*
G01X25240135Y-6901138D02*
G01X25240135Y-6981148D01*
G01X25240135Y-6918156D02*
G01X25228705Y-6906726D01*
G01X25217275Y-6901138D01*
G01X25200257Y-6901138D01*
G01X25188827Y-6906726D01*
G01X25177397Y-6918156D01*
G01X25171555Y-6935428D01*
G01X25171555Y-6946858D01*
G01X25177397Y-6963876D01*
G01X25188827Y-6975306D01*
G01X25200257Y-6981148D01*
G01X25217275Y-6981148D01*
G01X25228705Y-6975306D01*
G01X25240135Y-6963876D01*
G01X25293729Y-6901138D02*
G01X25328019Y-6981148D01*
G01X25362309Y-6901138D02*
G01X25328019Y-6981148D01*
G01X25316589Y-7004008D01*
G01X25305159Y-7015438D01*
G01X25293729Y-7021026D01*
G01X25287887Y-7021026D01*
G01X25410061Y-6935428D02*
G01X25478641Y-6935428D01*
G01X25478641Y-6923998D01*
G01X25473053Y-6912568D01*
G01X25467211Y-6906726D01*
G01X25455781Y-6901138D01*
G01X25438763Y-6901138D01*
G01X25427333Y-6906726D01*
G01X25415903Y-6918156D01*
G01X25410061Y-6935428D01*
G01X25410061Y-6946858D01*
G01X25415903Y-6963876D01*
G01X25427333Y-6975306D01*
G01X25438763Y-6981148D01*
G01X25455781Y-6981148D01*
G01X25467211Y-6975306D01*
G01X25478641Y-6963876D01*
G01X25526393Y-6901138D02*
G01X25526393Y-6981148D01*
G01X25526393Y-6935428D02*
G01X25532235Y-6918156D01*
G01X25543665Y-6906726D01*
G01X25555095Y-6901138D01*
G01X25572113Y-6901138D01*
G01X25619865Y-6929586D02*
G01X25722735Y-6929586D01*
G01X25770487Y-6861006D02*
G01X25770487Y-6981148D01*
G01X25770487Y-6861006D02*
G01X25822049Y-6861006D01*
G01X25839067Y-6866848D01*
G01X25844909Y-6872436D01*
G01X25850497Y-6883866D01*
G01X25850497Y-6895296D01*
G01X25844909Y-6906726D01*
G01X25839067Y-6912568D01*
G01X25822049Y-6918156D01*
G01X25770487Y-6918156D02*
G01X25822049Y-6918156D01*
G01X25839067Y-6923998D01*
G01X25844909Y-6929586D01*
G01X25850497Y-6941016D01*
G01X25850497Y-6958288D01*
G01X25844909Y-6969718D01*
G01X25839067Y-6975306D01*
G01X25822049Y-6981148D01*
G01X25770487Y-6981148D01*
G01X25926951Y-6901138D02*
G01X25915521Y-6906726D01*
G01X25904091Y-6918156D01*
G01X25898249Y-6935428D01*
G01X25898249Y-6946858D01*
G01X25904091Y-6963876D01*
G01X25915521Y-6975306D01*
G01X25926951Y-6981148D01*
G01X25943969Y-6981148D01*
G01X25955399Y-6975306D01*
G01X25966829Y-6963876D01*
G01X25972671Y-6946858D01*
G01X25972671Y-6935428D01*
G01X25966829Y-6918156D01*
G01X25955399Y-6906726D01*
G01X25943969Y-6901138D01*
G01X25926951Y-6901138D01*
G01X26037695Y-6861006D02*
G01X26037695Y-6958288D01*
G01X26043283Y-6975306D01*
G01X26054713Y-6981148D01*
G01X26066143Y-6981148D01*
G01X26020423Y-6901138D02*
G01X26060555Y-6901138D01*
G01X26131167Y-6861006D02*
G01X26131167Y-6958288D01*
G01X26136755Y-6975306D01*
G01X26148185Y-6981148D01*
G01X26159615Y-6981148D01*
G01X26113895Y-6901138D02*
G01X26154027Y-6901138D01*
G01X26236069Y-6901138D02*
G01X26224639Y-6906726D01*
G01X26213209Y-6918156D01*
G01X26207367Y-6935428D01*
G01X26207367Y-6946858D01*
G01X26213209Y-6963876D01*
G01X26224639Y-6975306D01*
G01X26236069Y-6981148D01*
G01X26253087Y-6981148D01*
G01X26264517Y-6975306D01*
G01X26275947Y-6963876D01*
G01X26281789Y-6946858D01*
G01X26281789Y-6935428D01*
G01X26275947Y-6918156D01*
G01X26264517Y-6906726D01*
G01X26253087Y-6901138D01*
G01X26236069Y-6901138D01*
G01X26329541Y-6901138D02*
G01X26329541Y-6981148D01*
G01X26329541Y-6923998D02*
G01X26346813Y-6906726D01*
G01X26358243Y-6901138D01*
G01X26375261Y-6901138D01*
G01X26386691Y-6906726D01*
G01X26392533Y-6923998D01*
G01X26392533Y-6981148D01*
G01X26392533Y-6923998D02*
G01X26409551Y-6906726D01*
G01X26420981Y-6901138D01*
G01X26438253Y-6901138D01*
G01X26449683Y-6906726D01*
G01X26455271Y-6923998D01*
G01X26455271Y-6981148D01*
G01X26631039Y-6861006D02*
G01X26631039Y-6981148D01*
G01X26631039Y-6981148D02*
G01X26699619Y-6981148D01*
G01X26815951Y-6901138D02*
G01X26815951Y-6981148D01*
G01X26815951Y-6918156D02*
G01X26804521Y-6906726D01*
G01X26793091Y-6901138D01*
G01X26776073Y-6901138D01*
G01X26764643Y-6906726D01*
G01X26753213Y-6918156D01*
G01X26747371Y-6935428D01*
G01X26747371Y-6946858D01*
G01X26753213Y-6963876D01*
G01X26764643Y-6975306D01*
G01X26776073Y-6981148D01*
G01X26793091Y-6981148D01*
G01X26804521Y-6975306D01*
G01X26815951Y-6963876D01*
G01X26869545Y-6901138D02*
G01X26903835Y-6981148D01*
G01X26938125Y-6901138D02*
G01X26903835Y-6981148D01*
G01X26892405Y-7004008D01*
G01X26880975Y-7015438D01*
G01X26869545Y-7021026D01*
G01X26863703Y-7021026D01*
G01X26985877Y-6935428D02*
G01X27054457Y-6935428D01*
G01X27054457Y-6923998D01*
G01X27048869Y-6912568D01*
G01X27043027Y-6906726D01*
G01X27031597Y-6901138D01*
G01X27014579Y-6901138D01*
G01X27003149Y-6906726D01*
G01X26991719Y-6918156D01*
G01X26985877Y-6935428D01*
G01X26985877Y-6946858D01*
G01X26991719Y-6963876D01*
G01X27003149Y-6975306D01*
G01X27014579Y-6981148D01*
G01X27031597Y-6981148D01*
G01X27043027Y-6975306D01*
G01X27054457Y-6963876D01*
G01X27102209Y-6901138D02*
G01X27102209Y-6981148D01*
G01X27102209Y-6935428D02*
G01X27108051Y-6918156D01*
G01X27119481Y-6906726D01*
G01X27130911Y-6901138D01*
G01X27147929Y-6901138D01*
G01X12771674Y-7464437D02*
G01X12783104Y-7458849D01*
G01X12800376Y-7441577D01*
G01X12800376Y-7561719D01*
G01X12905278Y-7441577D02*
G01X12848128Y-7521587D01*
G01X12933980Y-7521587D01*
G01X12905278Y-7441577D02*
G01X12905278Y-7561719D01*
G01X14242988Y-7441577D02*
G01X14185838Y-7521587D01*
G01X14271690Y-7521587D01*
G01X14242988Y-7441577D02*
G01X14242988Y-7561719D01*
G01X14353732Y-7441577D02*
G01X14336714Y-7447419D01*
G01X14325284Y-7464437D01*
G01X14319442Y-7493139D01*
G01X14319442Y-7510157D01*
G01X14325284Y-7538859D01*
G01X14336714Y-7555877D01*
G01X14353732Y-7561719D01*
G01X14365162Y-7561719D01*
G01X14382434Y-7555877D01*
G01X14393864Y-7538859D01*
G01X14399452Y-7510157D01*
G01X14399452Y-7493139D01*
G01X14393864Y-7464437D01*
G01X14382434Y-7447419D01*
G01X14365162Y-7441577D01*
G01X14353732Y-7441577D01*
G01X14453046Y-7533017D02*
G01X14447204Y-7538859D01*
G01X14453046Y-7544447D01*
G01X14458634Y-7538859D01*
G01X14453046Y-7533017D01*
G01X14512228Y-7470279D02*
G01X14512228Y-7464437D01*
G01X14517816Y-7453007D01*
G01X14523658Y-7447419D01*
G01X14535088Y-7441577D01*
G01X14557948Y-7441577D01*
G01X14569378Y-7447419D01*
G01X14574966Y-7453007D01*
G01X14580808Y-7464437D01*
G01X14580808Y-7475867D01*
G01X14574966Y-7487297D01*
G01X14563536Y-7504569D01*
G01X14506386Y-7561719D01*
G01X14586396Y-7561719D01*
G01X14634148Y-7481709D02*
G01X14697140Y-7561719D01*
G01X14697140Y-7481709D02*
G01X14634148Y-7561719D01*
G01X14802042Y-7441577D02*
G01X14744892Y-7521587D01*
G01X14830744Y-7521587D01*
G01X14802042Y-7441577D02*
G01X14802042Y-7561719D01*
G01X14912786Y-7441577D02*
G01X14895768Y-7447419D01*
G01X14884338Y-7464437D01*
G01X14878496Y-7493139D01*
G01X14878496Y-7510157D01*
G01X14884338Y-7538859D01*
G01X14895768Y-7555877D01*
G01X14912786Y-7561719D01*
G01X14924216Y-7561719D01*
G01X14941488Y-7555877D01*
G01X14952918Y-7538859D01*
G01X14958506Y-7510157D01*
G01X14958506Y-7493139D01*
G01X14952918Y-7464437D01*
G01X14941488Y-7447419D01*
G01X14924216Y-7441577D01*
G01X14912786Y-7441577D01*
G01X15012100Y-7533017D02*
G01X15006258Y-7538859D01*
G01X15012100Y-7544447D01*
G01X15017688Y-7538859D01*
G01X15012100Y-7533017D01*
G01X15071282Y-7470279D02*
G01X15071282Y-7464437D01*
G01X15076870Y-7453007D01*
G01X15082712Y-7447419D01*
G01X15094142Y-7441577D01*
G01X15117002Y-7441577D01*
G01X15128432Y-7447419D01*
G01X15134020Y-7453007D01*
G01X15139862Y-7464437D01*
G01X15139862Y-7475867D01*
G01X15134020Y-7487297D01*
G01X15122590Y-7504569D01*
G01X15065440Y-7561719D01*
G01X15145450Y-7561719D01*
G01X15193202Y-7481709D02*
G01X15193202Y-7561719D01*
G01X15193202Y-7504569D02*
G01X15210474Y-7487297D01*
G01X15221904Y-7481709D01*
G01X15238922Y-7481709D01*
G01X15250352Y-7487297D01*
G01X15256194Y-7504569D01*
G01X15256194Y-7561719D01*
G01X15256194Y-7504569D02*
G01X15273212Y-7487297D01*
G01X15284642Y-7481709D01*
G01X15301914Y-7481709D01*
G01X15313344Y-7487297D01*
G01X15318932Y-7504569D01*
G01X15318932Y-7561719D01*
G01X15366684Y-7441577D02*
G01X15372526Y-7447419D01*
G01X15378114Y-7441577D01*
G01X15372526Y-7435989D01*
G01X15366684Y-7441577D01*
G01X15372526Y-7481709D02*
G01X15372526Y-7561719D01*
G01X15425866Y-7441577D02*
G01X15425866Y-7561719D01*
G01X15513750Y-7418717D02*
G01X15502320Y-7430147D01*
G01X15490890Y-7447419D01*
G01X15479460Y-7470279D01*
G01X15473618Y-7498727D01*
G01X15473618Y-7521587D01*
G01X15479460Y-7550289D01*
G01X15490890Y-7573149D01*
G01X15502320Y-7590167D01*
G01X15513750Y-7601597D01*
G01X15561502Y-7464437D02*
G01X15572932Y-7458849D01*
G01X15590204Y-7441577D01*
G01X15590204Y-7561719D01*
G01X15643798Y-7533017D02*
G01X15637956Y-7538859D01*
G01X15643798Y-7544447D01*
G01X15649386Y-7538859D01*
G01X15643798Y-7533017D01*
G01X15731428Y-7441577D02*
G01X15714410Y-7447419D01*
G01X15702980Y-7464437D01*
G01X15697138Y-7493139D01*
G01X15697138Y-7510157D01*
G01X15702980Y-7538859D01*
G01X15714410Y-7555877D01*
G01X15731428Y-7561719D01*
G01X15742858Y-7561719D01*
G01X15760130Y-7555877D01*
G01X15771560Y-7538859D01*
G01X15777148Y-7510157D01*
G01X15777148Y-7493139D01*
G01X15771560Y-7464437D01*
G01X15760130Y-7447419D01*
G01X15742858Y-7441577D01*
G01X15731428Y-7441577D01*
G01X15830742Y-7470279D02*
G01X15830742Y-7464437D01*
G01X15836330Y-7453007D01*
G01X15842172Y-7447419D01*
G01X15853602Y-7441577D01*
G01X15876462Y-7441577D01*
G01X15887892Y-7447419D01*
G01X15893480Y-7453007D01*
G01X15899322Y-7464437D01*
G01X15899322Y-7475867D01*
G01X15893480Y-7487297D01*
G01X15882050Y-7504569D01*
G01X15824900Y-7561719D01*
G01X15904910Y-7561719D01*
G01X15986952Y-7441577D02*
G01X15969934Y-7447419D01*
G01X15958504Y-7464437D01*
G01X15952662Y-7493139D01*
G01X15952662Y-7510157D01*
G01X15958504Y-7538859D01*
G01X15969934Y-7555877D01*
G01X15986952Y-7561719D01*
G01X15998382Y-7561719D01*
G01X16015654Y-7555877D01*
G01X16027084Y-7538859D01*
G01X16032672Y-7510157D01*
G01X16032672Y-7493139D01*
G01X16027084Y-7464437D01*
G01X16015654Y-7447419D01*
G01X15998382Y-7441577D01*
G01X15986952Y-7441577D01*
G01X16080424Y-7481709D02*
G01X16143416Y-7561719D01*
G01X16143416Y-7481709D02*
G01X16080424Y-7561719D01*
G01X16191168Y-7464437D02*
G01X16202598Y-7458849D01*
G01X16219870Y-7441577D01*
G01X16219870Y-7561719D01*
G01X16273464Y-7533017D02*
G01X16267622Y-7538859D01*
G01X16273464Y-7544447D01*
G01X16279052Y-7538859D01*
G01X16273464Y-7533017D01*
G01X16361094Y-7441577D02*
G01X16344076Y-7447419D01*
G01X16332646Y-7464437D01*
G01X16326804Y-7493139D01*
G01X16326804Y-7510157D01*
G01X16332646Y-7538859D01*
G01X16344076Y-7555877D01*
G01X16361094Y-7561719D01*
G01X16372524Y-7561719D01*
G01X16389796Y-7555877D01*
G01X16401226Y-7538859D01*
G01X16406814Y-7510157D01*
G01X16406814Y-7493139D01*
G01X16401226Y-7464437D01*
G01X16389796Y-7447419D01*
G01X16372524Y-7441577D01*
G01X16361094Y-7441577D01*
G01X16460408Y-7470279D02*
G01X16460408Y-7464437D01*
G01X16465996Y-7453007D01*
G01X16471838Y-7447419D01*
G01X16483268Y-7441577D01*
G01X16506128Y-7441577D01*
G01X16517558Y-7447419D01*
G01X16523146Y-7453007D01*
G01X16528988Y-7464437D01*
G01X16528988Y-7475867D01*
G01X16523146Y-7487297D01*
G01X16511716Y-7504569D01*
G01X16454566Y-7561719D01*
G01X16534576Y-7561719D01*
G01X16616618Y-7441577D02*
G01X16599600Y-7447419D01*
G01X16588170Y-7464437D01*
G01X16582328Y-7493139D01*
G01X16582328Y-7510157D01*
G01X16588170Y-7538859D01*
G01X16599600Y-7555877D01*
G01X16616618Y-7561719D01*
G01X16628048Y-7561719D01*
G01X16645320Y-7555877D01*
G01X16656750Y-7538859D01*
G01X16662338Y-7510157D01*
G01X16662338Y-7493139D01*
G01X16656750Y-7464437D01*
G01X16645320Y-7447419D01*
G01X16628048Y-7441577D01*
G01X16616618Y-7441577D01*
G01X16710090Y-7481709D02*
G01X16710090Y-7561719D01*
G01X16710090Y-7504569D02*
G01X16727362Y-7487297D01*
G01X16738792Y-7481709D01*
G01X16755810Y-7481709D01*
G01X16767240Y-7487297D01*
G01X16773082Y-7504569D01*
G01X16773082Y-7561719D01*
G01X16773082Y-7504569D02*
G01X16790100Y-7487297D01*
G01X16801530Y-7481709D01*
G01X16818802Y-7481709D01*
G01X16830232Y-7487297D01*
G01X16835820Y-7504569D01*
G01X16835820Y-7561719D01*
G01X16883572Y-7481709D02*
G01X16883572Y-7561719D01*
G01X16883572Y-7504569D02*
G01X16900844Y-7487297D01*
G01X16912274Y-7481709D01*
G01X16929292Y-7481709D01*
G01X16940722Y-7487297D01*
G01X16946564Y-7504569D01*
G01X16946564Y-7561719D01*
G01X16946564Y-7504569D02*
G01X16963582Y-7487297D01*
G01X16975012Y-7481709D01*
G01X16992284Y-7481709D01*
G01X17003714Y-7487297D01*
G01X17009302Y-7504569D01*
G01X17009302Y-7561719D01*
G01X17057054Y-7418717D02*
G01X17068484Y-7430147D01*
G01X17079914Y-7447419D01*
G01X17091344Y-7470279D01*
G01X17097186Y-7498727D01*
G01X17097186Y-7521587D01*
G01X17091344Y-7550289D01*
G01X17079914Y-7573149D01*
G01X17068484Y-7590167D01*
G01X17057054Y-7601597D01*
G01X18079803Y-7441577D02*
G01X18079803Y-7561719D01*
G01X18079803Y-7441577D02*
G01X18131365Y-7441577D01*
G01X18148383Y-7447419D01*
G01X18154225Y-7453007D01*
G01X18159813Y-7464437D01*
G01X18159813Y-7481709D01*
G01X18154225Y-7493139D01*
G01X18148383Y-7498727D01*
G01X18131365Y-7504569D01*
G01X18079803Y-7504569D01*
G01X18247697Y-7441577D02*
G01X18247697Y-7561719D01*
G01X18207565Y-7441577D02*
G01X18287575Y-7441577D01*
G01X18335327Y-7441577D02*
G01X18335327Y-7561719D01*
G01X18415337Y-7441577D02*
G01X18415337Y-7561719D01*
G01X18335327Y-7498727D02*
G01X18415337Y-7498727D01*
G01X19541210Y-7441577D02*
G01X19541210Y-7561719D01*
G01X19541210Y-7441577D02*
G01X19592772Y-7441577D01*
G01X19609790Y-7447419D01*
G01X19615632Y-7453007D01*
G01X19621220Y-7464437D01*
G01X19621220Y-7475867D01*
G01X19615632Y-7487297D01*
G01X19609790Y-7493139D01*
G01X19592772Y-7498727D01*
G01X19541210Y-7498727D01*
G01X19581342Y-7498727D02*
G01X19621220Y-7561719D01*
G01X19697674Y-7481709D02*
G01X19686244Y-7487297D01*
G01X19674814Y-7498727D01*
G01X19668972Y-7515999D01*
G01X19668972Y-7527429D01*
G01X19674814Y-7544447D01*
G01X19686244Y-7555877D01*
G01X19697674Y-7561719D01*
G01X19714692Y-7561719D01*
G01X19726122Y-7555877D01*
G01X19737552Y-7544447D01*
G01X19743394Y-7527429D01*
G01X19743394Y-7515999D01*
G01X19737552Y-7498727D01*
G01X19726122Y-7487297D01*
G01X19714692Y-7481709D01*
G01X19697674Y-7481709D01*
G01X19791146Y-7481709D02*
G01X19791146Y-7538859D01*
G01X19796988Y-7555877D01*
G01X19808418Y-7561719D01*
G01X19825436Y-7561719D01*
G01X19836866Y-7555877D01*
G01X19854138Y-7538859D01*
G01X19854138Y-7481709D02*
G01X19854138Y-7561719D01*
G01X19901890Y-7481709D02*
G01X19901890Y-7561719D01*
G01X19901890Y-7504569D02*
G01X19919162Y-7487297D01*
G01X19930592Y-7481709D01*
G01X19947610Y-7481709D01*
G01X19959040Y-7487297D01*
G01X19964882Y-7504569D01*
G01X19964882Y-7561719D01*
G01X20081214Y-7441577D02*
G01X20081214Y-7561719D01*
G01X20081214Y-7498727D02*
G01X20069784Y-7487297D01*
G01X20058354Y-7481709D01*
G01X20041336Y-7481709D01*
G01X20029906Y-7487297D01*
G01X20018476Y-7498727D01*
G01X20012634Y-7515999D01*
G01X20012634Y-7527429D01*
G01X20018476Y-7544447D01*
G01X20029906Y-7555877D01*
G01X20041336Y-7561719D01*
G01X20058354Y-7561719D01*
G01X20069784Y-7555877D01*
G01X20081214Y-7544447D01*
G01X20972391Y-7441577D02*
G01X20972391Y-7561719D01*
G01X20972391Y-7441577D02*
G01X21023953Y-7441577D01*
G01X21040971Y-7447419D01*
G01X21046813Y-7453007D01*
G01X21052401Y-7464437D01*
G01X21052401Y-7481709D01*
G01X21046813Y-7493139D01*
G01X21040971Y-7498727D01*
G01X21023953Y-7504569D01*
G01X20972391Y-7504569D01*
G01X21168733Y-7481709D02*
G01X21168733Y-7561719D01*
G01X21168733Y-7498727D02*
G01X21157303Y-7487297D01*
G01X21145873Y-7481709D01*
G01X21128855Y-7481709D01*
G01X21117425Y-7487297D01*
G01X21105995Y-7498727D01*
G01X21100153Y-7515999D01*
G01X21100153Y-7527429D01*
G01X21105995Y-7544447D01*
G01X21117425Y-7555877D01*
G01X21128855Y-7561719D01*
G01X21145873Y-7561719D01*
G01X21157303Y-7555877D01*
G01X21168733Y-7544447D01*
G01X21285065Y-7441577D02*
G01X21285065Y-7561719D01*
G01X21285065Y-7498727D02*
G01X21273635Y-7487297D01*
G01X21262205Y-7481709D01*
G01X21245187Y-7481709D01*
G01X21233757Y-7487297D01*
G01X21222327Y-7498727D01*
G01X21216485Y-7515999D01*
G01X21216485Y-7527429D01*
G01X21222327Y-7544447D01*
G01X21233757Y-7555877D01*
G01X21245187Y-7561719D01*
G01X21262205Y-7561719D01*
G01X21273635Y-7555877D01*
G01X21285065Y-7544447D01*
G01X22681702Y-7418717D02*
G01X22670272Y-7430147D01*
G01X22658842Y-7447419D01*
G01X22647412Y-7470279D01*
G01X22641570Y-7498727D01*
G01X22641570Y-7521587D01*
G01X22647412Y-7550289D01*
G01X22658842Y-7573149D01*
G01X22670272Y-7590167D01*
G01X22681702Y-7601597D01*
G01X22729454Y-7441577D02*
G01X22729454Y-7561719D01*
G01X22729454Y-7441577D02*
G01X22775174Y-7561719D01*
G01X22820894Y-7441577D02*
G01X22775174Y-7561719D01*
G01X22820894Y-7441577D02*
G01X22820894Y-7561719D01*
G01X22868646Y-7441577D02*
G01X22874488Y-7447419D01*
G01X22880076Y-7441577D01*
G01X22874488Y-7435989D01*
G01X22868646Y-7441577D01*
G01X22874488Y-7481709D02*
G01X22874488Y-7561719D01*
G01X22927828Y-7481709D02*
G01X22990820Y-7561719D01*
G01X22990820Y-7481709D02*
G01X22927828Y-7561719D01*
G01X23038572Y-7515999D02*
G01X23107152Y-7515999D01*
G01X23107152Y-7504569D01*
G01X23101564Y-7493139D01*
G01X23095722Y-7487297D01*
G01X23084292Y-7481709D01*
G01X23067274Y-7481709D01*
G01X23055844Y-7487297D01*
G01X23044414Y-7498727D01*
G01X23038572Y-7515999D01*
G01X23038572Y-7527429D01*
G01X23044414Y-7544447D01*
G01X23055844Y-7555877D01*
G01X23067274Y-7561719D01*
G01X23084292Y-7561719D01*
G01X23095722Y-7555877D01*
G01X23107152Y-7544447D01*
G01X23223484Y-7441577D02*
G01X23223484Y-7561719D01*
G01X23223484Y-7498727D02*
G01X23212054Y-7487297D01*
G01X23200624Y-7481709D01*
G01X23183606Y-7481709D01*
G01X23172176Y-7487297D01*
G01X23160746Y-7498727D01*
G01X23154904Y-7515999D01*
G01X23154904Y-7527429D01*
G01X23160746Y-7544447D01*
G01X23172176Y-7555877D01*
G01X23183606Y-7561719D01*
G01X23200624Y-7561719D01*
G01X23212054Y-7555877D01*
G01X23223484Y-7544447D01*
G01X23271236Y-7418717D02*
G01X23282666Y-7430147D01*
G01X23294096Y-7447419D01*
G01X23305526Y-7470279D01*
G01X23311368Y-7498727D01*
G01X23311368Y-7521587D01*
G01X23305526Y-7550289D01*
G01X23294096Y-7573149D01*
G01X23282666Y-7590167D01*
G01X23271236Y-7601597D01*
G01X24601071Y-7441577D02*
G01X24601071Y-7561719D01*
G01X24560939Y-7441577D02*
G01X24640949Y-7441577D01*
G01X24717403Y-7481709D02*
G01X24705973Y-7487297D01*
G01X24694543Y-7498727D01*
G01X24688701Y-7515999D01*
G01X24688701Y-7527429D01*
G01X24694543Y-7544447D01*
G01X24705973Y-7555877D01*
G01X24717403Y-7561719D01*
G01X24734421Y-7561719D01*
G01X24745851Y-7555877D01*
G01X24757281Y-7544447D01*
G01X24763123Y-7527429D01*
G01X24763123Y-7515999D01*
G01X24757281Y-7498727D01*
G01X24745851Y-7487297D01*
G01X24734421Y-7481709D01*
G01X24717403Y-7481709D01*
G01X24810875Y-7481709D02*
G01X24810875Y-7601597D01*
G01X24810875Y-7498727D02*
G01X24822305Y-7487297D01*
G01X24833735Y-7481709D01*
G01X24851007Y-7481709D01*
G01X24862437Y-7487297D01*
G01X24873867Y-7498727D01*
G01X24879455Y-7515999D01*
G01X24879455Y-7527429D01*
G01X24873867Y-7544447D01*
G01X24862437Y-7555877D01*
G01X24851007Y-7561719D01*
G01X24833735Y-7561719D01*
G01X24822305Y-7555877D01*
G01X24810875Y-7544447D01*
G01X25055223Y-7441577D02*
G01X25055223Y-7561719D01*
G01X25055223Y-7561719D02*
G01X25123803Y-7561719D01*
G01X25240135Y-7481709D02*
G01X25240135Y-7561719D01*
G01X25240135Y-7498727D02*
G01X25228705Y-7487297D01*
G01X25217275Y-7481709D01*
G01X25200257Y-7481709D01*
G01X25188827Y-7487297D01*
G01X25177397Y-7498727D01*
G01X25171555Y-7515999D01*
G01X25171555Y-7527429D01*
G01X25177397Y-7544447D01*
G01X25188827Y-7555877D01*
G01X25200257Y-7561719D01*
G01X25217275Y-7561719D01*
G01X25228705Y-7555877D01*
G01X25240135Y-7544447D01*
G01X25293729Y-7481709D02*
G01X25328019Y-7561719D01*
G01X25362309Y-7481709D02*
G01X25328019Y-7561719D01*
G01X25316589Y-7584579D01*
G01X25305159Y-7596009D01*
G01X25293729Y-7601597D01*
G01X25287887Y-7601597D01*
G01X25410061Y-7515999D02*
G01X25478641Y-7515999D01*
G01X25478641Y-7504569D01*
G01X25473053Y-7493139D01*
G01X25467211Y-7487297D01*
G01X25455781Y-7481709D01*
G01X25438763Y-7481709D01*
G01X25427333Y-7487297D01*
G01X25415903Y-7498727D01*
G01X25410061Y-7515999D01*
G01X25410061Y-7527429D01*
G01X25415903Y-7544447D01*
G01X25427333Y-7555877D01*
G01X25438763Y-7561719D01*
G01X25455781Y-7561719D01*
G01X25467211Y-7555877D01*
G01X25478641Y-7544447D01*
G01X25526393Y-7481709D02*
G01X25526393Y-7561719D01*
G01X25526393Y-7515999D02*
G01X25532235Y-7498727D01*
G01X25543665Y-7487297D01*
G01X25555095Y-7481709D01*
G01X25572113Y-7481709D01*
G01X25619865Y-7510157D02*
G01X25722735Y-7510157D01*
G01X25770487Y-7441577D02*
G01X25770487Y-7561719D01*
G01X25770487Y-7441577D02*
G01X25822049Y-7441577D01*
G01X25839067Y-7447419D01*
G01X25844909Y-7453007D01*
G01X25850497Y-7464437D01*
G01X25850497Y-7475867D01*
G01X25844909Y-7487297D01*
G01X25839067Y-7493139D01*
G01X25822049Y-7498727D01*
G01X25770487Y-7498727D02*
G01X25822049Y-7498727D01*
G01X25839067Y-7504569D01*
G01X25844909Y-7510157D01*
G01X25850497Y-7521587D01*
G01X25850497Y-7538859D01*
G01X25844909Y-7550289D01*
G01X25839067Y-7555877D01*
G01X25822049Y-7561719D01*
G01X25770487Y-7561719D01*
G01X25926951Y-7481709D02*
G01X25915521Y-7487297D01*
G01X25904091Y-7498727D01*
G01X25898249Y-7515999D01*
G01X25898249Y-7527429D01*
G01X25904091Y-7544447D01*
G01X25915521Y-7555877D01*
G01X25926951Y-7561719D01*
G01X25943969Y-7561719D01*
G01X25955399Y-7555877D01*
G01X25966829Y-7544447D01*
G01X25972671Y-7527429D01*
G01X25972671Y-7515999D01*
G01X25966829Y-7498727D01*
G01X25955399Y-7487297D01*
G01X25943969Y-7481709D01*
G01X25926951Y-7481709D01*
G01X26037695Y-7441577D02*
G01X26037695Y-7538859D01*
G01X26043283Y-7555877D01*
G01X26054713Y-7561719D01*
G01X26066143Y-7561719D01*
G01X26020423Y-7481709D02*
G01X26060555Y-7481709D01*
G01X26131167Y-7441577D02*
G01X26131167Y-7538859D01*
G01X26136755Y-7555877D01*
G01X26148185Y-7561719D01*
G01X26159615Y-7561719D01*
G01X26113895Y-7481709D02*
G01X26154027Y-7481709D01*
G01X26236069Y-7481709D02*
G01X26224639Y-7487297D01*
G01X26213209Y-7498727D01*
G01X26207367Y-7515999D01*
G01X26207367Y-7527429D01*
G01X26213209Y-7544447D01*
G01X26224639Y-7555877D01*
G01X26236069Y-7561719D01*
G01X26253087Y-7561719D01*
G01X26264517Y-7555877D01*
G01X26275947Y-7544447D01*
G01X26281789Y-7527429D01*
G01X26281789Y-7515999D01*
G01X26275947Y-7498727D01*
G01X26264517Y-7487297D01*
G01X26253087Y-7481709D01*
G01X26236069Y-7481709D01*
G01X26329541Y-7481709D02*
G01X26329541Y-7561719D01*
G01X26329541Y-7504569D02*
G01X26346813Y-7487297D01*
G01X26358243Y-7481709D01*
G01X26375261Y-7481709D01*
G01X26386691Y-7487297D01*
G01X26392533Y-7504569D01*
G01X26392533Y-7561719D01*
G01X26392533Y-7504569D02*
G01X26409551Y-7487297D01*
G01X26420981Y-7481709D01*
G01X26438253Y-7481709D01*
G01X26449683Y-7487297D01*
G01X26455271Y-7504569D01*
G01X26455271Y-7561719D01*
G01X26631039Y-7441577D02*
G01X26631039Y-7561719D01*
G01X26631039Y-7561719D02*
G01X26699619Y-7561719D01*
G01X26815951Y-7481709D02*
G01X26815951Y-7561719D01*
G01X26815951Y-7498727D02*
G01X26804521Y-7487297D01*
G01X26793091Y-7481709D01*
G01X26776073Y-7481709D01*
G01X26764643Y-7487297D01*
G01X26753213Y-7498727D01*
G01X26747371Y-7515999D01*
G01X26747371Y-7527429D01*
G01X26753213Y-7544447D01*
G01X26764643Y-7555877D01*
G01X26776073Y-7561719D01*
G01X26793091Y-7561719D01*
G01X26804521Y-7555877D01*
G01X26815951Y-7544447D01*
G01X26869545Y-7481709D02*
G01X26903835Y-7561719D01*
G01X26938125Y-7481709D02*
G01X26903835Y-7561719D01*
G01X26892405Y-7584579D01*
G01X26880975Y-7596009D01*
G01X26869545Y-7601597D01*
G01X26863703Y-7601597D01*
G01X26985877Y-7515999D02*
G01X27054457Y-7515999D01*
G01X27054457Y-7504569D01*
G01X27048869Y-7493139D01*
G01X27043027Y-7487297D01*
G01X27031597Y-7481709D01*
G01X27014579Y-7481709D01*
G01X27003149Y-7487297D01*
G01X26991719Y-7498727D01*
G01X26985877Y-7515999D01*
G01X26985877Y-7527429D01*
G01X26991719Y-7544447D01*
G01X27003149Y-7555877D01*
G01X27014579Y-7561719D01*
G01X27031597Y-7561719D01*
G01X27043027Y-7555877D01*
G01X27054457Y-7544447D01*
G01X27102209Y-7481709D02*
G01X27102209Y-7561719D01*
G01X27102209Y-7515999D02*
G01X27108051Y-7498727D01*
G01X27119481Y-7487297D01*
G01X27130911Y-7481709D01*
G01X27147929Y-7481709D01*
G01X12800376Y-8022148D02*
G01X12783104Y-8027990D01*
G01X12777516Y-8039420D01*
G01X12777516Y-8050850D01*
G01X12783104Y-8062280D01*
G01X12794534Y-8067868D01*
G01X12817394Y-8073710D01*
G01X12834666Y-8079298D01*
G01X12846096Y-8090728D01*
G01X12851684Y-8102158D01*
G01X12851684Y-8119430D01*
G01X12846096Y-8130860D01*
G01X12840254Y-8136448D01*
G01X12823236Y-8142290D01*
G01X12800376Y-8142290D01*
G01X12783104Y-8136448D01*
G01X12777516Y-8130860D01*
G01X12771674Y-8119430D01*
G01X12771674Y-8102158D01*
G01X12777516Y-8090728D01*
G01X12788946Y-8079298D01*
G01X12805964Y-8073710D01*
G01X12828824Y-8067868D01*
G01X12840254Y-8062280D01*
G01X12846096Y-8050850D01*
G01X12846096Y-8039420D01*
G01X12840254Y-8027990D01*
G01X12823236Y-8022148D01*
G01X12800376Y-8022148D01*
G01X12968016Y-8039420D02*
G01X12962428Y-8027990D01*
G01X12945156Y-8022148D01*
G01X12933726Y-8022148D01*
G01X12916708Y-8027990D01*
G01X12905278Y-8045008D01*
G01X12899436Y-8073710D01*
G01X12899436Y-8102158D01*
G01X12905278Y-8125018D01*
G01X12916708Y-8136448D01*
G01X12933726Y-8142290D01*
G01X12939568Y-8142290D01*
G01X12956586Y-8136448D01*
G01X12968016Y-8125018D01*
G01X12973858Y-8108000D01*
G01X12973858Y-8102158D01*
G01X12968016Y-8085140D01*
G01X12956586Y-8073710D01*
G01X12939568Y-8067868D01*
G01X12933726Y-8067868D01*
G01X12916708Y-8073710D01*
G01X12905278Y-8085140D01*
G01X12899436Y-8102158D01*
G01X14185838Y-8045008D02*
G01X14197268Y-8039420D01*
G01X14214540Y-8022148D01*
G01X14214540Y-8142290D01*
G01X14268134Y-8050850D02*
G01X14268134Y-8045008D01*
G01X14273722Y-8033578D01*
G01X14279564Y-8027990D01*
G01X14290994Y-8022148D01*
G01X14313854Y-8022148D01*
G01X14325284Y-8027990D01*
G01X14330872Y-8033578D01*
G01X14336714Y-8045008D01*
G01X14336714Y-8056438D01*
G01X14330872Y-8067868D01*
G01X14319442Y-8085140D01*
G01X14262292Y-8142290D01*
G01X14342302Y-8142290D01*
G01X14395896Y-8113588D02*
G01X14390054Y-8119430D01*
G01X14395896Y-8125018D01*
G01X14401484Y-8119430D01*
G01X14395896Y-8113588D01*
G01X14483526Y-8022148D02*
G01X14466508Y-8027990D01*
G01X14455078Y-8045008D01*
G01X14449236Y-8073710D01*
G01X14449236Y-8090728D01*
G01X14455078Y-8119430D01*
G01X14466508Y-8136448D01*
G01X14483526Y-8142290D01*
G01X14494956Y-8142290D01*
G01X14512228Y-8136448D01*
G01X14523658Y-8119430D01*
G01X14529246Y-8090728D01*
G01X14529246Y-8073710D01*
G01X14523658Y-8045008D01*
G01X14512228Y-8027990D01*
G01X14494956Y-8022148D01*
G01X14483526Y-8022148D01*
G01X14576998Y-8062280D02*
G01X14576998Y-8142290D01*
G01X14576998Y-8085140D02*
G01X14594270Y-8067868D01*
G01X14605700Y-8062280D01*
G01X14622718Y-8062280D01*
G01X14634148Y-8067868D01*
G01X14639990Y-8085140D01*
G01X14639990Y-8142290D01*
G01X14639990Y-8085140D02*
G01X14657008Y-8067868D01*
G01X14668438Y-8062280D01*
G01X14685710Y-8062280D01*
G01X14697140Y-8067868D01*
G01X14702728Y-8085140D01*
G01X14702728Y-8142290D01*
G01X14750480Y-8022148D02*
G01X14756322Y-8027990D01*
G01X14761910Y-8022148D01*
G01X14756322Y-8016560D01*
G01X14750480Y-8022148D01*
G01X14756322Y-8062280D02*
G01X14756322Y-8142290D01*
G01X14809662Y-8022148D02*
G01X14809662Y-8142290D01*
G01X14897546Y-7999288D02*
G01X14886116Y-8010718D01*
G01X14874686Y-8027990D01*
G01X14863256Y-8050850D01*
G01X14857414Y-8079298D01*
G01X14857414Y-8102158D01*
G01X14863256Y-8130860D01*
G01X14874686Y-8153720D01*
G01X14886116Y-8170738D01*
G01X14897546Y-8182168D01*
G01X14979588Y-8022148D02*
G01X14962570Y-8027990D01*
G01X14951140Y-8045008D01*
G01X14945298Y-8073710D01*
G01X14945298Y-8090728D01*
G01X14951140Y-8119430D01*
G01X14962570Y-8136448D01*
G01X14979588Y-8142290D01*
G01X14991018Y-8142290D01*
G01X15008290Y-8136448D01*
G01X15019720Y-8119430D01*
G01X15025308Y-8090728D01*
G01X15025308Y-8073710D01*
G01X15019720Y-8045008D01*
G01X15008290Y-8027990D01*
G01X14991018Y-8022148D01*
G01X14979588Y-8022148D01*
G01X15078902Y-8113588D02*
G01X15073060Y-8119430D01*
G01X15078902Y-8125018D01*
G01X15084490Y-8119430D01*
G01X15078902Y-8113588D01*
G01X15143672Y-8022148D02*
G01X15206664Y-8022148D01*
G01X15172374Y-8067868D01*
G01X15189392Y-8067868D01*
G01X15200822Y-8073710D01*
G01X15206664Y-8079298D01*
G01X15212252Y-8096570D01*
G01X15212252Y-8108000D01*
G01X15206664Y-8125018D01*
G01X15195234Y-8136448D01*
G01X15177962Y-8142290D01*
G01X15160944Y-8142290D01*
G01X15143672Y-8136448D01*
G01X15138084Y-8130860D01*
G01X15132242Y-8119430D01*
G01X15294294Y-8022148D02*
G01X15277276Y-8027990D01*
G01X15265846Y-8045008D01*
G01X15260004Y-8073710D01*
G01X15260004Y-8090728D01*
G01X15265846Y-8119430D01*
G01X15277276Y-8136448D01*
G01X15294294Y-8142290D01*
G01X15305724Y-8142290D01*
G01X15322996Y-8136448D01*
G01X15334426Y-8119430D01*
G01X15340014Y-8090728D01*
G01X15340014Y-8073710D01*
G01X15334426Y-8045008D01*
G01X15322996Y-8027990D01*
G01X15305724Y-8022148D01*
G01X15294294Y-8022148D01*
G01X15456346Y-8022148D02*
G01X15399196Y-8022148D01*
G01X15393608Y-8073710D01*
G01X15399196Y-8067868D01*
G01X15416468Y-8062280D01*
G01X15433486Y-8062280D01*
G01X15450758Y-8067868D01*
G01X15462188Y-8079298D01*
G01X15467776Y-8096570D01*
G01X15467776Y-8108000D01*
G01X15462188Y-8125018D01*
G01X15450758Y-8136448D01*
G01X15433486Y-8142290D01*
G01X15416468Y-8142290D01*
G01X15399196Y-8136448D01*
G01X15393608Y-8130860D01*
G01X15387766Y-8119430D01*
G01X15515528Y-8062280D02*
G01X15515528Y-8142290D01*
G01X15515528Y-8085140D02*
G01X15532800Y-8067868D01*
G01X15544230Y-8062280D01*
G01X15561248Y-8062280D01*
G01X15572678Y-8067868D01*
G01X15578520Y-8085140D01*
G01X15578520Y-8142290D01*
G01X15578520Y-8085140D02*
G01X15595538Y-8067868D01*
G01X15606968Y-8062280D01*
G01X15624240Y-8062280D01*
G01X15635670Y-8067868D01*
G01X15641258Y-8085140D01*
G01X15641258Y-8142290D01*
G01X15689010Y-8062280D02*
G01X15689010Y-8142290D01*
G01X15689010Y-8085140D02*
G01X15706282Y-8067868D01*
G01X15717712Y-8062280D01*
G01X15734730Y-8062280D01*
G01X15746160Y-8067868D01*
G01X15752002Y-8085140D01*
G01X15752002Y-8142290D01*
G01X15752002Y-8085140D02*
G01X15769020Y-8067868D01*
G01X15780450Y-8062280D01*
G01X15797722Y-8062280D01*
G01X15809152Y-8067868D01*
G01X15814740Y-8085140D01*
G01X15814740Y-8142290D01*
G01X15862492Y-7999288D02*
G01X15873922Y-8010718D01*
G01X15885352Y-8027990D01*
G01X15896782Y-8050850D01*
G01X15902624Y-8079298D01*
G01X15902624Y-8102158D01*
G01X15896782Y-8130860D01*
G01X15885352Y-8153720D01*
G01X15873922Y-8170738D01*
G01X15862492Y-8182168D01*
G01X18079803Y-8022148D02*
G01X18079803Y-8142290D01*
G01X18079803Y-8022148D02*
G01X18131365Y-8022148D01*
G01X18148383Y-8027990D01*
G01X18154225Y-8033578D01*
G01X18159813Y-8045008D01*
G01X18159813Y-8062280D01*
G01X18154225Y-8073710D01*
G01X18148383Y-8079298D01*
G01X18131365Y-8085140D01*
G01X18079803Y-8085140D01*
G01X18247697Y-8022148D02*
G01X18247697Y-8142290D01*
G01X18207565Y-8022148D02*
G01X18287575Y-8022148D01*
G01X18335327Y-8022148D02*
G01X18335327Y-8142290D01*
G01X18415337Y-8022148D02*
G01X18415337Y-8142290D01*
G01X18335327Y-8079298D02*
G01X18415337Y-8079298D01*
G01X19541210Y-8022148D02*
G01X19541210Y-8142290D01*
G01X19541210Y-8022148D02*
G01X19592772Y-8022148D01*
G01X19609790Y-8027990D01*
G01X19615632Y-8033578D01*
G01X19621220Y-8045008D01*
G01X19621220Y-8056438D01*
G01X19615632Y-8067868D01*
G01X19609790Y-8073710D01*
G01X19592772Y-8079298D01*
G01X19541210Y-8079298D01*
G01X19581342Y-8079298D02*
G01X19621220Y-8142290D01*
G01X19697674Y-8062280D02*
G01X19686244Y-8067868D01*
G01X19674814Y-8079298D01*
G01X19668972Y-8096570D01*
G01X19668972Y-8108000D01*
G01X19674814Y-8125018D01*
G01X19686244Y-8136448D01*
G01X19697674Y-8142290D01*
G01X19714692Y-8142290D01*
G01X19726122Y-8136448D01*
G01X19737552Y-8125018D01*
G01X19743394Y-8108000D01*
G01X19743394Y-8096570D01*
G01X19737552Y-8079298D01*
G01X19726122Y-8067868D01*
G01X19714692Y-8062280D01*
G01X19697674Y-8062280D01*
G01X19791146Y-8062280D02*
G01X19791146Y-8119430D01*
G01X19796988Y-8136448D01*
G01X19808418Y-8142290D01*
G01X19825436Y-8142290D01*
G01X19836866Y-8136448D01*
G01X19854138Y-8119430D01*
G01X19854138Y-8062280D02*
G01X19854138Y-8142290D01*
G01X19901890Y-8062280D02*
G01X19901890Y-8142290D01*
G01X19901890Y-8085140D02*
G01X19919162Y-8067868D01*
G01X19930592Y-8062280D01*
G01X19947610Y-8062280D01*
G01X19959040Y-8067868D01*
G01X19964882Y-8085140D01*
G01X19964882Y-8142290D01*
G01X20081214Y-8022148D02*
G01X20081214Y-8142290D01*
G01X20081214Y-8079298D02*
G01X20069784Y-8067868D01*
G01X20058354Y-8062280D01*
G01X20041336Y-8062280D01*
G01X20029906Y-8067868D01*
G01X20018476Y-8079298D01*
G01X20012634Y-8096570D01*
G01X20012634Y-8108000D01*
G01X20018476Y-8125018D01*
G01X20029906Y-8136448D01*
G01X20041336Y-8142290D01*
G01X20058354Y-8142290D01*
G01X20069784Y-8136448D01*
G01X20081214Y-8125018D01*
G01X20972391Y-8022148D02*
G01X21018111Y-8142290D01*
G01X21063831Y-8022148D02*
G01X21018111Y-8142290D01*
G01X21111583Y-8022148D02*
G01X21117425Y-8027990D01*
G01X21123013Y-8022148D01*
G01X21117425Y-8016560D01*
G01X21111583Y-8022148D01*
G01X21117425Y-8062280D02*
G01X21117425Y-8142290D01*
G01X21239345Y-8062280D02*
G01X21239345Y-8142290D01*
G01X21239345Y-8079298D02*
G01X21227915Y-8067868D01*
G01X21216485Y-8062280D01*
G01X21199467Y-8062280D01*
G01X21188037Y-8067868D01*
G01X21176607Y-8079298D01*
G01X21170765Y-8096570D01*
G01X21170765Y-8108000D01*
G01X21176607Y-8125018D01*
G01X21188037Y-8136448D01*
G01X21199467Y-8142290D01*
G01X21216485Y-8142290D01*
G01X21227915Y-8136448D01*
G01X21239345Y-8125018D01*
G01X24601071Y-8022148D02*
G01X24601071Y-8142290D01*
G01X24560939Y-8022148D02*
G01X24640949Y-8022148D01*
G01X24717403Y-8062280D02*
G01X24705973Y-8067868D01*
G01X24694543Y-8079298D01*
G01X24688701Y-8096570D01*
G01X24688701Y-8108000D01*
G01X24694543Y-8125018D01*
G01X24705973Y-8136448D01*
G01X24717403Y-8142290D01*
G01X24734421Y-8142290D01*
G01X24745851Y-8136448D01*
G01X24757281Y-8125018D01*
G01X24763123Y-8108000D01*
G01X24763123Y-8096570D01*
G01X24757281Y-8079298D01*
G01X24745851Y-8067868D01*
G01X24734421Y-8062280D01*
G01X24717403Y-8062280D01*
G01X24810875Y-8062280D02*
G01X24810875Y-8182168D01*
G01X24810875Y-8079298D02*
G01X24822305Y-8067868D01*
G01X24833735Y-8062280D01*
G01X24851007Y-8062280D01*
G01X24862437Y-8067868D01*
G01X24873867Y-8079298D01*
G01X24879455Y-8096570D01*
G01X24879455Y-8108000D01*
G01X24873867Y-8125018D01*
G01X24862437Y-8136448D01*
G01X24851007Y-8142290D01*
G01X24833735Y-8142290D01*
G01X24822305Y-8136448D01*
G01X24810875Y-8125018D01*
G01X25055223Y-8022148D02*
G01X25055223Y-8142290D01*
G01X25055223Y-8142290D02*
G01X25123803Y-8142290D01*
G01X25240135Y-8062280D02*
G01X25240135Y-8142290D01*
G01X25240135Y-8079298D02*
G01X25228705Y-8067868D01*
G01X25217275Y-8062280D01*
G01X25200257Y-8062280D01*
G01X25188827Y-8067868D01*
G01X25177397Y-8079298D01*
G01X25171555Y-8096570D01*
G01X25171555Y-8108000D01*
G01X25177397Y-8125018D01*
G01X25188827Y-8136448D01*
G01X25200257Y-8142290D01*
G01X25217275Y-8142290D01*
G01X25228705Y-8136448D01*
G01X25240135Y-8125018D01*
G01X25293729Y-8062280D02*
G01X25328019Y-8142290D01*
G01X25362309Y-8062280D02*
G01X25328019Y-8142290D01*
G01X25316589Y-8165150D01*
G01X25305159Y-8176580D01*
G01X25293729Y-8182168D01*
G01X25287887Y-8182168D01*
G01X25410061Y-8096570D02*
G01X25478641Y-8096570D01*
G01X25478641Y-8085140D01*
G01X25473053Y-8073710D01*
G01X25467211Y-8067868D01*
G01X25455781Y-8062280D01*
G01X25438763Y-8062280D01*
G01X25427333Y-8067868D01*
G01X25415903Y-8079298D01*
G01X25410061Y-8096570D01*
G01X25410061Y-8108000D01*
G01X25415903Y-8125018D01*
G01X25427333Y-8136448D01*
G01X25438763Y-8142290D01*
G01X25455781Y-8142290D01*
G01X25467211Y-8136448D01*
G01X25478641Y-8125018D01*
G01X25526393Y-8062280D02*
G01X25526393Y-8142290D01*
G01X25526393Y-8096570D02*
G01X25532235Y-8079298D01*
G01X25543665Y-8067868D01*
G01X25555095Y-8062280D01*
G01X25572113Y-8062280D01*
G01X25619865Y-8090728D02*
G01X25722735Y-8090728D01*
G01X25770487Y-8022148D02*
G01X25770487Y-8142290D01*
G01X25770487Y-8022148D02*
G01X25822049Y-8022148D01*
G01X25839067Y-8027990D01*
G01X25844909Y-8033578D01*
G01X25850497Y-8045008D01*
G01X25850497Y-8056438D01*
G01X25844909Y-8067868D01*
G01X25839067Y-8073710D01*
G01X25822049Y-8079298D01*
G01X25770487Y-8079298D02*
G01X25822049Y-8079298D01*
G01X25839067Y-8085140D01*
G01X25844909Y-8090728D01*
G01X25850497Y-8102158D01*
G01X25850497Y-8119430D01*
G01X25844909Y-8130860D01*
G01X25839067Y-8136448D01*
G01X25822049Y-8142290D01*
G01X25770487Y-8142290D01*
G01X25926951Y-8062280D02*
G01X25915521Y-8067868D01*
G01X25904091Y-8079298D01*
G01X25898249Y-8096570D01*
G01X25898249Y-8108000D01*
G01X25904091Y-8125018D01*
G01X25915521Y-8136448D01*
G01X25926951Y-8142290D01*
G01X25943969Y-8142290D01*
G01X25955399Y-8136448D01*
G01X25966829Y-8125018D01*
G01X25972671Y-8108000D01*
G01X25972671Y-8096570D01*
G01X25966829Y-8079298D01*
G01X25955399Y-8067868D01*
G01X25943969Y-8062280D01*
G01X25926951Y-8062280D01*
G01X26037695Y-8022148D02*
G01X26037695Y-8119430D01*
G01X26043283Y-8136448D01*
G01X26054713Y-8142290D01*
G01X26066143Y-8142290D01*
G01X26020423Y-8062280D02*
G01X26060555Y-8062280D01*
G01X26131167Y-8022148D02*
G01X26131167Y-8119430D01*
G01X26136755Y-8136448D01*
G01X26148185Y-8142290D01*
G01X26159615Y-8142290D01*
G01X26113895Y-8062280D02*
G01X26154027Y-8062280D01*
G01X26236069Y-8062280D02*
G01X26224639Y-8067868D01*
G01X26213209Y-8079298D01*
G01X26207367Y-8096570D01*
G01X26207367Y-8108000D01*
G01X26213209Y-8125018D01*
G01X26224639Y-8136448D01*
G01X26236069Y-8142290D01*
G01X26253087Y-8142290D01*
G01X26264517Y-8136448D01*
G01X26275947Y-8125018D01*
G01X26281789Y-8108000D01*
G01X26281789Y-8096570D01*
G01X26275947Y-8079298D01*
G01X26264517Y-8067868D01*
G01X26253087Y-8062280D01*
G01X26236069Y-8062280D01*
G01X26329541Y-8062280D02*
G01X26329541Y-8142290D01*
G01X26329541Y-8085140D02*
G01X26346813Y-8067868D01*
G01X26358243Y-8062280D01*
G01X26375261Y-8062280D01*
G01X26386691Y-8067868D01*
G01X26392533Y-8085140D01*
G01X26392533Y-8142290D01*
G01X26392533Y-8085140D02*
G01X26409551Y-8067868D01*
G01X26420981Y-8062280D01*
G01X26438253Y-8062280D01*
G01X26449683Y-8067868D01*
G01X26455271Y-8085140D01*
G01X26455271Y-8142290D01*
G01X26631039Y-8022148D02*
G01X26631039Y-8142290D01*
G01X26631039Y-8142290D02*
G01X26699619Y-8142290D01*
G01X26815951Y-8062280D02*
G01X26815951Y-8142290D01*
G01X26815951Y-8079298D02*
G01X26804521Y-8067868D01*
G01X26793091Y-8062280D01*
G01X26776073Y-8062280D01*
G01X26764643Y-8067868D01*
G01X26753213Y-8079298D01*
G01X26747371Y-8096570D01*
G01X26747371Y-8108000D01*
G01X26753213Y-8125018D01*
G01X26764643Y-8136448D01*
G01X26776073Y-8142290D01*
G01X26793091Y-8142290D01*
G01X26804521Y-8136448D01*
G01X26815951Y-8125018D01*
G01X26869545Y-8062280D02*
G01X26903835Y-8142290D01*
G01X26938125Y-8062280D02*
G01X26903835Y-8142290D01*
G01X26892405Y-8165150D01*
G01X26880975Y-8176580D01*
G01X26869545Y-8182168D01*
G01X26863703Y-8182168D01*
G01X26985877Y-8096570D02*
G01X27054457Y-8096570D01*
G01X27054457Y-8085140D01*
G01X27048869Y-8073710D01*
G01X27043027Y-8067868D01*
G01X27031597Y-8062280D01*
G01X27014579Y-8062280D01*
G01X27003149Y-8067868D01*
G01X26991719Y-8079298D01*
G01X26985877Y-8096570D01*
G01X26985877Y-8108000D01*
G01X26991719Y-8125018D01*
G01X27003149Y-8136448D01*
G01X27014579Y-8142290D01*
G01X27031597Y-8142290D01*
G01X27043027Y-8136448D01*
G01X27054457Y-8125018D01*
G01X27102209Y-8062280D02*
G01X27102209Y-8142290D01*
G01X27102209Y-8096570D02*
G01X27108051Y-8079298D01*
G01X27119481Y-8067868D01*
G01X27130911Y-8062280D01*
G01X27147929Y-8062280D01*

G04 Image Start*
G36*
G01X11475186Y-7365014D02*
G01X11640286Y-7530114D01*
G01X11475186Y-7695214D01*
G01X11310086Y-7530114D01*
G01X11346001Y-7530114D01*
G01X11475186Y-7659299D01*
G01X11604370Y-7530114D01*
G01X11475186Y-7400930D01*
G01X11475186Y-7400930D01*
G01X11346001Y-7530114D01*
G01X11310086Y-7530114D01*
G01X11475186Y-7365014D01*
G37*
G36*
G01X11607063Y-5299903D02*
G01X11501449Y-5288423D01*
G01X11458574Y-5385628D01*
G01X11415699Y-5288423D01*
G01X11310086Y-5299903D01*
G01X11372849Y-5214178D01*
G01X11333127Y-5159924D01*
G01X11364620Y-5159924D01*
G01X11404320Y-5214178D01*
G01X11364620Y-5268433D01*
G01X11431447Y-5261168D01*
G01X11431447Y-5261168D01*
G01X11458574Y-5322662D01*
G01X11485701Y-5261168D01*
G01X11552529Y-5268433D01*
G01X11512829Y-5214178D01*
G01X11552503Y-5159949D01*
G01X11485676Y-5167214D01*
G01X11458574Y-5105695D01*
G01X11431447Y-5167188D01*
G01X11364620Y-5159924D01*
G01X11333127Y-5159924D01*
G01X11310086Y-5128453D01*
G01X11415724Y-5139934D01*
G01X11458574Y-5042728D01*
G01X11501449Y-5139934D01*
G01X11607063Y-5128453D01*
G01X11544299Y-5214178D01*
G01X11607063Y-5299903D01*
G37*
G36*
G01X11478069Y-4185599D02*
G01X11470329Y-4186187D01*
G01X11462486Y-4186386D01*
G01X11454643Y-4186187D01*
G01X11446903Y-4185599D01*
G01X11439275Y-4184630D01*
G01X11431770Y-4183290D01*
G01X11417164Y-4179535D01*
G01X11403162Y-4174410D01*
G01X11389840Y-4167993D01*
G01X11377274Y-4160360D01*
G01X11365542Y-4151587D01*
G01X11354720Y-4141751D01*
G01X11344884Y-4130929D01*
G01X11336111Y-4119197D01*
G01X11328478Y-4106632D01*
G01X11322061Y-4093310D01*
G01X11316937Y-4079307D01*
G01X11313182Y-4064702D01*
G01X11311842Y-4057196D01*
G01X11310873Y-4049569D01*
G01X11310284Y-4041829D01*
G01X11310086Y-4033986D01*
G01X11335486Y-4033986D01*
G01X11336143Y-4046952D01*
G01X11338071Y-4059548D01*
G01X11341205Y-4071710D01*
G01X11345482Y-4083372D01*
G01X11350837Y-4094472D01*
G01X11357205Y-4104943D01*
G01X11364523Y-4114723D01*
G01X11372725Y-4123746D01*
G01X11381749Y-4131949D01*
G01X11391528Y-4139266D01*
G01X11402000Y-4145635D01*
G01X11413099Y-4150990D01*
G01X11424762Y-4155266D01*
G01X11436923Y-4158401D01*
G01X11436923Y-4158401D01*
G01X11449519Y-4160329D01*
G01X11462486Y-4160986D01*
G01X11475452Y-4160329D01*
G01X11488048Y-4158401D01*
G01X11500210Y-4155266D01*
G01X11511873Y-4150990D01*
G01X11522972Y-4145635D01*
G01X11533443Y-4139266D01*
G01X11543223Y-4131949D01*
G01X11552246Y-4123746D01*
G01X11560449Y-4114723D01*
G01X11567767Y-4104943D01*
G01X11574135Y-4094472D01*
G01X11579490Y-4083372D01*
G01X11583767Y-4071710D01*
G01X11586901Y-4059548D01*
G01X11588829Y-4046952D01*
G01X11589486Y-4033986D01*
G01X11588829Y-4021019D01*
G01X11586901Y-4008423D01*
G01X11583767Y-3996261D01*
G01X11579490Y-3984599D01*
G01X11574135Y-3973500D01*
G01X11567767Y-3963028D01*
G01X11560449Y-3953248D01*
G01X11552246Y-3944225D01*
G01X11543223Y-3936023D01*
G01X11533443Y-3928705D01*
G01X11522972Y-3922336D01*
G01X11511873Y-3916982D01*
G01X11500210Y-3912705D01*
G01X11488048Y-3909570D01*
G01X11475452Y-3907643D01*
G01X11462486Y-3906986D01*
G01X11449519Y-3907643D01*
G01X11436923Y-3909570D01*
G01X11424762Y-3912705D01*
G01X11413099Y-3916982D01*
G01X11402000Y-3922336D01*
G01X11391528Y-3928705D01*
G01X11381749Y-3936023D01*
G01X11372725Y-3944225D01*
G01X11364523Y-3953248D01*
G01X11357205Y-3963028D01*
G01X11350837Y-3973500D01*
G01X11345482Y-3984599D01*
G01X11341205Y-3996261D01*
G01X11338071Y-4008423D01*
G01X11336143Y-4021019D01*
G01X11335486Y-4033986D01*
G01X11310086Y-4033986D01*
G01X11310284Y-4026142D01*
G01X11310873Y-4018402D01*
G01X11311842Y-4010775D01*
G01X11313182Y-4003270D01*
G01X11316937Y-3988664D01*
G01X11322061Y-3974662D01*
G01X11328478Y-3961339D01*
G01X11336111Y-3948774D01*
G01X11344884Y-3937042D01*
G01X11354720Y-3926220D01*
G01X11365542Y-3916384D01*
G01X11377274Y-3907611D01*
G01X11389840Y-3899978D01*
G01X11403162Y-3893561D01*
G01X11417164Y-3888437D01*
G01X11431770Y-3884682D01*
G01X11439275Y-3883341D01*
G01X11446903Y-3882372D01*
G01X11454643Y-3881784D01*
G01X11462486Y-3881586D01*
G01X11470329Y-3881784D01*
G01X11478069Y-3882372D01*
G01X11485697Y-3883341D01*
G01X11493202Y-3884682D01*
G01X11507808Y-3888437D01*
G01X11521810Y-3893561D01*
G01X11535132Y-3899978D01*
G01X11547697Y-3907611D01*
G01X11559429Y-3916384D01*
G01X11570252Y-3926220D01*
G01X11580087Y-3937042D01*
G01X11588860Y-3948774D01*
G01X11596493Y-3961339D01*
G01X11602910Y-3974662D01*
G01X11608035Y-3988664D01*
G01X11611790Y-4003270D01*
G01X11613130Y-4010775D01*
G01X11614099Y-4018402D01*
G01X11614688Y-4026142D01*
G01X11614886Y-4033986D01*
G01X11614688Y-4041829D01*
G01X11614099Y-4049569D01*
G01X11613130Y-4057196D01*
G01X11611790Y-4064702D01*
G01X11608035Y-4079307D01*
G01X11602910Y-4093310D01*
G01X11596493Y-4106632D01*
G01X11588860Y-4119197D01*
G01X11580087Y-4130929D01*
G01X11570252Y-4141751D01*
G01X11559429Y-4151587D01*
G01X11547697Y-4160360D01*
G01X11535132Y-4167993D01*
G01X11521810Y-4174410D01*
G01X11507808Y-4179535D01*
G01X11493202Y-4183290D01*
G01X11485697Y-4184630D01*
G01X11478069Y-4185599D01*
G37*
G36*
G01X11614886Y-6425537D02*
G01X11531777Y-6425537D01*
G01X11531777Y-6508671D01*
G01X11393220Y-6508671D01*
G01X11393220Y-6425563D01*
G01X11310086Y-6425563D01*
G01X11310086Y-6312406D01*
G01X11335486Y-6312406D01*
G01X11335486Y-6400137D01*
G01X11418620Y-6400137D01*
G01X11418620Y-6483271D01*
G01X11418620Y-6483271D01*
G01X11506352Y-6483271D01*
G01X11506352Y-6400163D01*
G01X11589486Y-6400163D01*
G01X11589486Y-6312406D01*
G01X11506352Y-6312406D01*
G01X11506352Y-6229271D01*
G01X11418620Y-6229271D01*
G01X11418620Y-6312406D01*
G01X11335486Y-6312406D01*
G01X11310086Y-6312406D01*
G01X11310086Y-6287006D01*
G01X11393220Y-6287006D01*
G01X11393220Y-6203871D01*
G01X11531752Y-6203871D01*
G01X11531752Y-6287006D01*
G01X11614886Y-6287006D01*
G01X11614886Y-6425537D01*
G37*
G36*
G01X11614886Y-5623300D02*
G01X11544858Y-5775700D01*
G01X11614886Y-5928100D01*
G01X11462486Y-5858072D01*
G01X11310086Y-5928100D01*
G01X11333849Y-5876386D01*
G01X11361800Y-5876386D01*
G01X11451869Y-5834984D01*
G01X11462486Y-5830107D01*
G01X11473103Y-5834984D01*
G01X11563171Y-5876386D01*
G01X11521769Y-5786317D01*
G01X11516893Y-5775700D01*
G01X11521769Y-5765083D01*
G01X11563171Y-5675014D01*
G01X11473103Y-5716416D01*
G01X11462486Y-5721293D01*
G01X11451869Y-5716416D01*
G01X11361800Y-5675014D01*
G01X11403202Y-5765083D01*
G01X11408079Y-5775700D01*
G01X11408079Y-5775700D01*
G01X11403202Y-5786317D01*
G01X11361800Y-5876386D01*
G01X11333849Y-5876386D01*
G01X11380114Y-5775700D01*
G01X11310086Y-5623300D01*
G01X11462486Y-5693328D01*
G01X11614886Y-5623300D01*
G37*
G36*
G01X11310086Y-4462157D02*
G01X11614886Y-4462157D01*
G01X11462486Y-4726114D01*
G01X11324751Y-4487557D01*
G01X11354079Y-4487557D01*
G01X11462486Y-4675314D01*
G01X11570893Y-4487557D01*
G01X11570893Y-4487557D01*
G01X11354079Y-4487557D01*
G01X11324751Y-4487557D01*
G01X11310086Y-4462157D01*
G37*
G36*
G01X11589486Y-7063843D02*
G01X11487886Y-7063843D01*
G01X11449786Y-6987643D01*
G01X11411686Y-7063843D01*
G01X11310086Y-7063843D01*
G01X11310086Y-7038443D01*
G01X11335486Y-7038443D01*
G01X11395989Y-7038443D01*
G01X11427053Y-6976289D01*
G01X11449786Y-6930848D01*
G01X11472519Y-6976289D01*
G01X11503583Y-7038443D01*
G01X11564086Y-7038443D01*
G01X11564086Y-6977940D01*
G01X11501932Y-6946850D01*
G01X11456491Y-6924143D01*
G01X11501932Y-6901435D01*
G01X11564086Y-6870346D01*
G01X11564086Y-6809843D01*
G01X11503583Y-6809843D01*
G01X11472519Y-6871997D01*
G01X11449786Y-6917437D01*
G01X11427053Y-6871997D01*
G01X11395989Y-6809843D01*
G01X11335486Y-6809843D01*
G01X11335486Y-6870346D01*
G01X11397640Y-6901435D01*
G01X11443080Y-6924143D01*
G01X11397640Y-6946850D01*
G01X11335486Y-6977940D01*
G01X11335486Y-7038443D01*
G01X11335486Y-7038443D01*
G01X11310086Y-7038443D01*
G01X11310086Y-6962243D01*
G01X11386286Y-6924143D01*
G01X11310086Y-6886043D01*
G01X11310086Y-6784443D01*
G01X11411686Y-6784443D01*
G01X11449786Y-6860643D01*
G01X11487886Y-6784443D01*
G01X11589486Y-6784443D01*
G01X11589486Y-6886043D01*
G01X11513286Y-6924143D01*
G01X11589486Y-6962243D01*
G01X11589486Y-7063843D01*
G37*
G36*
G01X11310086Y-3301014D02*
G01X11589486Y-3301014D01*
G01X11589486Y-3580414D01*
G01X11310086Y-3580414D01*
G01X11310086Y-3326414D01*
G01X11335486Y-3326414D01*
G01X11335486Y-3555014D01*
G01X11564086Y-3555014D01*
G01X11564086Y-3326414D01*
G01X11564086Y-3326414D01*
G01X11335486Y-3326414D01*
G01X11310086Y-3326414D01*
G01X11310086Y-3301014D01*
G37*
G36*
G01X11310086Y-7945586D02*
G01X11589486Y-7945586D01*
G01X11589486Y-8224986D01*
G01X11310086Y-8224986D01*
G01X11310086Y-7970986D01*
G01X11335486Y-7970986D01*
G01X11335486Y-8199586D01*
G01X11564086Y-8199586D01*
G01X11564086Y-7970986D01*
G01X11564086Y-7970986D01*
G01X11335486Y-7970986D01*
G01X11310086Y-7970986D01*
G01X11310086Y-7945586D01*
G37*
G36*
G01X11360886Y-7996386D02*
G01X11538686Y-7996386D01*
G01X11538686Y-8174186D01*
G01X11360886Y-8174186D01*
G01X11360886Y-8148786D01*
G01X11386286Y-8148786D01*
G01X11513286Y-8148786D01*
G01X11513286Y-8021786D01*
G01X11386286Y-8021786D01*
G01X11386286Y-8148786D01*
G01X11386286Y-8148786D01*
G01X11360886Y-8148786D01*
G01X11360886Y-7996386D01*
G37*

G04 PolygonModel Start*
G54D20*
G01X11019800Y-8381014D02*
G01X27738661Y-8381014D01*
G01X11019800Y-7800443D02*
G01X27738661Y-7800443D01*
G01X11019800Y-7219871D02*
G01X27738661Y-7219871D01*
G01X11019800Y-6639300D02*
G01X27738661Y-6639300D01*
G01X11019800Y-6058728D02*
G01X27738661Y-6058728D01*
G01X11019800Y-5478157D02*
G01X27738661Y-5478157D01*
G01X11019800Y-4897586D02*
G01X27738661Y-4897586D01*
G01X11019800Y-4317014D02*
G01X27738661Y-4317014D01*
G01X11019800Y-3736443D02*
G01X27738661Y-3736443D01*
G01X11019800Y-3155871D02*
G01X27738661Y-3155871D01*
G01X11019800Y-2575300D02*
G01X27738661Y-2575300D01*
G01X11019800Y-2575300D02*
G01X11019800Y-8355614D01*
G01X12471229Y-2575300D02*
G01X12471229Y-8355614D01*
G01X13885392Y-2575300D02*
G01X13885392Y-8355614D01*
G01X17779357Y-2575300D02*
G01X17779357Y-8355614D01*
G01X19240764Y-2575300D02*
G01X19240764Y-8355614D01*
G01X20671945Y-2575300D02*
G01X20671945Y-8355614D01*
G01X22341124Y-2575300D02*
G01X22341124Y-8355614D01*
G01X24260494Y-2575300D02*
G01X24260494Y-8355614D01*
G01X27738661Y-2575300D02*
G01X27738661Y-8355614D01*

M02*

