G04 Layer: TopLayer*
G04 EasyEDA Pro v3.2.148, 2026-08-09 17:13:05*
G04 Gerber Generator version 0.3*
G04 Scale: 100 percent, Rotated: No, Reflected: No*
G04 Dimensions in millimeters*
G04 Leading zeros omitted, absolute positions, 4 integers and 5 decimals*
G04 Generated by one-click*
G04 Object Configs: Pad,Via,Track,Text,Image,Dimension,BoardOutline,BoardCutout,CopperFilled,SolidRegion,FPCStiffener,Line,PlaneZone,ComponentProperty,ComponentSilkscreen,TearDrop*
G04 Layer Configs: 1,2,3,4,5,6,7,8,9,10,11,13,14,56*
G04 Copper Areas: 0*
%FSLAX45Y45*%
%MOMM*%
%AMPolygonMacro1*4,1,8,-0.64994,-0.00001,-0.65009,-0.00001,-0.65009,0.29999,0.64994,0.29999,0.64994,0.00001,0.65009,0.00001,0.65009,-0.29999,-0.64994,-0.29999,-0.64994,-0.00001,0*%
%AMPolygonMacro2*4,1,8,0.64999,0.00001,0.64999,-0.00001,0.64999,-0.30001,-0.64999,-0.30001,-0.64999,-0.00001,-0.64999,0.00001,-0.64999,0.30001,0.64999,0.30001,0.64999,0.00001,0*%
%AMPolygonMacro3*4,1,8,-0.64999,-0.00001,-0.64999,0.00001,-0.64999,0.30001,0.64999,0.30001,0.64999,0.00001,0.64999,-0.00001,0.64999,-0.30001,-0.64999,-0.30001,-0.64999,-0.00001,0*%
%AMPolygonMacro4*4,1,8,-0.64997,-0.00004,-0.65,-0.00004,-0.65,0.29999,0.64997,0.29999,0.64997,0.00004,0.65,0.00004,0.65,-0.29999,-0.64997,-0.29999,-0.64997,-0.00004,0*%
%ADD10C,3.4*%
%ADD11R,0.5X0.54*%
%ADD12R,0.8X0.9*%
%ADD13R,0.9X0.8*%
%ADD14R,0.54X0.5*%
%ADD15R,1.35001X1.41*%
%ADD16R,0.6X1.3*%
%ADD17R,1.2X1.4*%
%ADD18R,1.2051X2.0*%
%ADD19R,1.2X2.0*%
%ADD20C,2.49999*%
%ADD21R,0.6X1.55001*%
%ADD22R,1.2X1.8*%
%ADD23R,1.8X1.7*%
%ADD24C,1.6*%
%ADD25R,1.6X1.6*%
%ADD26R,1.0X1.6*%
%ADD27R,0.86401X0.8*%
%ADD28R,0.54X0.56566*%
%ADD29R,0.21999X0.665*%
%ADD30R,0.665X0.21999*%
%ADD31R,3.39999X3.39999*%
%ADD32R,0.5X0.25001*%
%ADD33R,0.25001X0.5*%
%ADD34O,0.9X0.44801*%
%ADD35O,0.28001X1.62001*%
%ADD36R,0.28001X0.5*%
%ADD37R,0.5X0.28001*%
%ADD38R,0.6X1.1*%
%ADD39R,0.6X1.0*%
%ADD40C,1.55001*%
%ADD41C,1.524*%
%ADD42R,1.3X0.3*%
%ADD43PolygonMacro1*%
%ADD44PolygonMacro2*%
%ADD45PolygonMacro3*%
%ADD46PolygonMacro4*%
%ADD47O,1.8X1.2*%
%ADD48O,2.0X1.2*%
%ADD49R,1.28252X3.456*%
%ADD50C,0.61*%
%ADD51C,0.254*%
%ADD52C,0.19799*%
%ADD53C,0.22501*%
%ADD54C,0.25201*%
G75*


G04 Text Start*
G36*
G01X4114851Y-3728515D02*
G01X4114305Y-3734515D01*
G01X4113215Y-3737243D01*
G01X4112124Y-3739697D01*
G01X4110760Y-3742424D01*
G01X4109396Y-3744334D01*
G01X4108578Y-3745697D01*
G01X4107487Y-3747061D01*
G01X4104214Y-3750334D01*
G01X4102033Y-3751970D01*
G01X4100669Y-3753061D01*
G01X4098760Y-3754424D01*
G01X4096578Y-3755788D01*
G01X4092760Y-3757970D01*
G01X4090578Y-3759061D01*
G01X4088123Y-3760152D01*
G01X4085396Y-3761243D01*
G01X4082123Y-3762334D01*
G01X4078578Y-3763425D01*
G01X4075851Y-3764243D01*
G01X4069851Y-3765334D01*
G01X4065487Y-3765879D01*
G01X4055396Y-3766152D01*
G01X4044214Y-3765879D01*
G01X4039851Y-3765334D01*
G01X4036033Y-3764788D01*
G01X4033305Y-3764243D01*
G01X4031124Y-3763697D01*
G01X4029214Y-3763425D01*
G01X4027033Y-3762879D01*
G01X4022124Y-3761243D01*
G01X4019396Y-3760152D01*
G01X4016942Y-3759061D01*
G01X4012578Y-3756879D01*
G01X4010669Y-3755788D01*
G01X4008487Y-3754424D01*
G01X4006033Y-3752788D01*
G01X4002215Y-3749515D01*
G01X4000305Y-3747606D01*
G01X3998942Y-3745970D01*
G01X3997305Y-3744061D01*
G01X3995669Y-3741606D01*
G01X3994578Y-3739697D01*
G01X3993760Y-3738061D01*
G01X3992942Y-3735879D01*
G01X3992124Y-3733424D01*
G01X3991578Y-3729061D01*
G01X3991693Y-3726879D01*
G01X3997033Y-3726879D01*
G01X3997578Y-3730970D01*
G01X3998942Y-3734243D01*
G01X4000305Y-3736152D01*
G01X4001396Y-3737515D01*
G01X4003305Y-3739424D01*
G01X4005760Y-3741061D01*
G01X4007669Y-3742152D01*
G01X4011487Y-3743788D01*
G01X4013942Y-3744606D01*
G01X4016669Y-3745424D01*
G01X4019942Y-3746243D01*
G01X4022942Y-3746788D01*
G01X4030578Y-3747879D01*
G01X4036033Y-3748424D01*
G01X4043669Y-3748970D01*
G01X4055396Y-3749243D01*
G01X4067123Y-3748970D01*
G01X4069305Y-3748697D01*
G01X4073123Y-3748424D01*
G01X4077487Y-3747879D01*
G01X4080760Y-3747334D01*
G01X4086214Y-3746243D01*
G01X4090578Y-3745152D01*
G01X4093305Y-3744334D01*
G01X4096305Y-3743243D01*
G01X4098760Y-3742152D01*
G01X4100942Y-3741061D01*
G01X4102851Y-3739970D01*
G01X4104487Y-3738879D01*
G01X4106124Y-3737515D01*
G01X4107487Y-3735606D01*
G01X4108578Y-3733152D01*
G01X4108578Y-3733152D01*
G01X4109124Y-3731515D01*
G01X4109396Y-3729333D01*
G01X4109124Y-3726061D01*
G01X4108305Y-3723333D01*
G01X4106396Y-3719515D01*
G01X4105305Y-3718152D01*
G01X4103942Y-3716788D01*
G01X4102033Y-3715152D01*
G01X4099851Y-3713788D01*
G01X4097669Y-3712697D01*
G01X4094669Y-3711606D01*
G01X4091123Y-3710515D01*
G01X4088396Y-3709697D01*
G01X4082396Y-3708606D01*
G01X4078032Y-3708061D01*
G01X4073123Y-3707515D01*
G01X4065487Y-3706970D01*
G01X4051578Y-3706697D01*
G01X4037669Y-3706970D01*
G01X4035487Y-3707243D01*
G01X4031669Y-3707515D01*
G01X4027305Y-3708061D01*
G01X4024033Y-3708606D01*
G01X4021305Y-3709152D01*
G01X4019124Y-3709697D01*
G01X4016669Y-3710243D01*
G01X4013669Y-3711061D01*
G01X4010669Y-3712152D01*
G01X4008214Y-3713243D01*
G01X4006033Y-3714333D01*
G01X4003578Y-3715697D01*
G01X4001669Y-3717061D01*
G01X3999760Y-3718970D01*
G01X3998124Y-3721697D01*
G01X3997305Y-3723879D01*
G01X3997033Y-3726879D01*
G01X3991693Y-3726879D01*
G01X3991851Y-3723879D01*
G01X3992669Y-3720333D01*
G01X3993760Y-3717333D01*
G01X3994851Y-3715152D01*
G01X3996215Y-3712970D01*
G01X3997578Y-3711061D01*
G01X4000851Y-3706970D01*
G01X4004124Y-3704243D01*
G01X4006033Y-3702606D01*
G01X4007942Y-3701243D01*
G01X4009578Y-3700152D01*
G01X4011760Y-3698788D01*
G01X4014214Y-3697424D01*
G01X4016396Y-3696333D01*
G01X4018851Y-3695243D01*
G01X4021578Y-3694152D01*
G01X4024033Y-3693333D01*
G01X4027305Y-3692515D01*
G01X4030033Y-3691697D01*
G01X4036033Y-3690606D01*
G01X4040396Y-3690061D01*
G01X4045033Y-3689788D01*
G01X4050214Y-3689515D01*
G01X4052396Y-3689515D01*
G01X4057033Y-3689788D01*
G01X4062760Y-3690061D01*
G01X4067123Y-3690606D01*
G01X4070942Y-3691152D01*
G01X4073669Y-3691697D01*
G01X4075851Y-3692243D01*
G01X4077760Y-3692515D01*
G01X4079942Y-3693061D01*
G01X4084851Y-3694697D01*
G01X4087578Y-3695788D01*
G01X4090033Y-3696879D01*
G01X4094942Y-3699333D01*
G01X4096851Y-3700697D01*
G01X4098487Y-3701515D01*
G01X4100124Y-3702606D01*
G01X4103942Y-3705879D01*
G01X4106669Y-3708606D01*
G01X4107760Y-3709970D01*
G01X4110487Y-3713788D01*
G01X4111578Y-3715697D01*
G01X4112669Y-3718152D01*
G01X4114305Y-3723061D01*
G01X4114851Y-3728515D01*
G37*
G36*
G01X4112464Y-3850152D02*
G01X4111851Y-3858879D01*
G01X4110214Y-3858606D01*
G01X4108578Y-3857788D01*
G01X4105305Y-3853970D01*
G01X4099851Y-3848515D01*
G01X4097124Y-3845242D01*
G01X4086214Y-3834333D01*
G01X4083487Y-3832152D01*
G01X4079396Y-3828061D01*
G01X4076123Y-3825333D01*
G01X4074760Y-3823970D01*
G01X4073396Y-3822879D01*
G01X4071487Y-3821243D01*
G01X4068760Y-3819061D01*
G01X4066578Y-3817424D01*
G01X4065214Y-3816333D01*
G01X4063305Y-3814970D01*
G01X4060851Y-3813333D01*
G01X4056487Y-3810606D01*
G01X4054033Y-3809243D01*
G01X4049669Y-3807061D01*
G01X4046942Y-3805970D01*
G01X4043942Y-3804879D01*
G01X4041487Y-3804061D01*
G01X4036033Y-3802970D01*
G01X4032214Y-3802697D01*
G01X4028396Y-3802970D01*
G01X4024578Y-3803515D01*
G01X4022124Y-3804061D01*
G01X4019669Y-3804879D01*
G01X4017487Y-3805970D01*
G01X4015033Y-3807334D01*
G01X4013124Y-3808697D01*
G01X4009033Y-3812788D01*
G01X4007669Y-3814970D01*
G01X4006305Y-3817424D01*
G01X4005487Y-3820152D01*
G01X4004942Y-3822606D01*
G01X4004669Y-3825879D01*
G01X4004942Y-3829152D01*
G01X4005487Y-3832152D01*
G01X4006305Y-3835424D01*
G01X4007396Y-3837879D01*
G01X4008760Y-3840606D01*
G01X4010124Y-3842515D01*
G01X4011214Y-3843879D01*
G01X4013942Y-3846606D01*
G01X4015851Y-3848242D01*
G01X4018033Y-3849606D01*
G01X4021305Y-3851242D01*
G01X4023487Y-3852061D01*
G01X4024510Y-3852674D01*
G01X4024851Y-3853970D01*
G01X4024851Y-3855606D01*
G01X4023487Y-3855333D01*
G01X4021305Y-3854788D01*
G01X4018578Y-3854242D01*
G01X4015578Y-3853424D01*
G01X4013396Y-3852606D01*
G01X4011487Y-3851788D01*
G01X4006578Y-3849333D01*
G01X4004669Y-3847970D01*
G01X4003305Y-3847152D01*
G01X4001942Y-3846061D01*
G01X3998669Y-3842788D01*
G01X3997033Y-3840606D01*
G01X3995942Y-3838970D01*
G01X3994851Y-3837061D01*
G01X3993760Y-3834606D01*
G01X3992669Y-3831333D01*
G01X3991851Y-3828606D01*
G01X3991578Y-3822606D01*
G01X3991851Y-3816606D01*
G01X3992396Y-3813606D01*
G01X3993215Y-3810334D01*
G01X3994305Y-3807606D01*
G01X3995669Y-3804606D01*
G01X3997305Y-3802152D01*
G01X3998669Y-3799970D01*
G01X4000033Y-3798334D01*
G01X4003305Y-3795061D01*
G01X4005487Y-3793424D01*
G01X4007396Y-3792061D01*
G01X4009851Y-3790697D01*
G01X4012305Y-3789606D01*
G01X4014760Y-3788788D01*
G01X4016942Y-3788243D01*
G01X4021578Y-3787970D01*
G01X4026760Y-3788243D01*
G01X4030033Y-3788788D01*
G01X4033578Y-3789606D01*
G01X4036851Y-3790697D01*
G01X4039305Y-3791788D01*
G01X4048578Y-3796424D01*
G01X4055942Y-3801334D01*
G01X4057851Y-3802697D01*
G01X4059214Y-3803788D01*
G01X4060578Y-3804606D01*
G01X4061942Y-3805697D01*
G01X4065214Y-3808424D01*
G01X4066578Y-3809788D01*
G01X4069305Y-3811970D01*
G01X4070669Y-3813333D01*
G01X4074487Y-3816606D01*
G01X4077214Y-3819333D01*
G01X4081033Y-3822606D01*
G01X4085669Y-3827243D01*
G01X4087851Y-3828879D01*
G01X4097396Y-3838424D01*
G01X4098760Y-3839515D01*
G01X4099374Y-3834743D01*
G01X4099578Y-3819879D01*
G01X4099305Y-3798606D01*
G01X4098760Y-3795879D01*
G01X4098214Y-3793697D01*
G01X4097396Y-3791515D01*
G01X4096305Y-3789334D01*
G01X4095214Y-3787697D01*
G01X4093305Y-3785788D01*
G01X4091123Y-3784152D01*
G01X4090305Y-3782243D01*
G01X4090510Y-3781288D01*
G01X4091123Y-3781152D01*
G01X4093305Y-3781970D01*
G01X4111305Y-3788515D01*
G01X4112669Y-3789061D01*
G01X4112669Y-3823970D01*
G01X4112464Y-3850152D01*
G37*
G36*
G01X4112464Y-3670152D02*
G01X4111851Y-3678879D01*
G01X4110214Y-3678606D01*
G01X4108578Y-3677788D01*
G01X4105305Y-3673970D01*
G01X4099851Y-3668515D01*
G01X4097124Y-3665243D01*
G01X4086214Y-3654334D01*
G01X4083487Y-3652152D01*
G01X4079396Y-3648061D01*
G01X4076123Y-3645334D01*
G01X4074760Y-3643970D01*
G01X4073396Y-3642879D01*
G01X4071487Y-3641243D01*
G01X4068760Y-3639061D01*
G01X4066578Y-3637425D01*
G01X4065214Y-3636334D01*
G01X4063305Y-3634970D01*
G01X4060851Y-3633334D01*
G01X4056487Y-3630606D01*
G01X4054033Y-3629243D01*
G01X4049669Y-3627061D01*
G01X4046942Y-3625970D01*
G01X4043942Y-3624879D01*
G01X4041487Y-3624061D01*
G01X4036033Y-3622970D01*
G01X4032214Y-3622697D01*
G01X4028396Y-3622970D01*
G01X4024578Y-3623515D01*
G01X4022124Y-3624061D01*
G01X4019669Y-3624879D01*
G01X4017487Y-3625970D01*
G01X4015033Y-3627334D01*
G01X4013124Y-3628697D01*
G01X4009033Y-3632788D01*
G01X4007669Y-3634970D01*
G01X4006305Y-3637425D01*
G01X4005487Y-3640152D01*
G01X4004942Y-3642606D01*
G01X4004669Y-3645879D01*
G01X4004942Y-3649152D01*
G01X4005487Y-3652152D01*
G01X4006305Y-3655424D01*
G01X4007396Y-3657879D01*
G01X4008760Y-3660606D01*
G01X4010124Y-3662515D01*
G01X4011214Y-3663879D01*
G01X4013942Y-3666606D01*
G01X4015851Y-3668243D01*
G01X4018033Y-3669606D01*
G01X4021305Y-3671243D01*
G01X4023487Y-3672061D01*
G01X4024510Y-3672674D01*
G01X4024851Y-3673970D01*
G01X4024851Y-3675606D01*
G01X4023487Y-3675334D01*
G01X4021305Y-3674788D01*
G01X4018578Y-3674243D01*
G01X4015578Y-3673424D01*
G01X4013396Y-3672606D01*
G01X4011487Y-3671788D01*
G01X4006578Y-3669334D01*
G01X4004669Y-3667970D01*
G01X4003305Y-3667152D01*
G01X4001942Y-3666061D01*
G01X3998669Y-3662788D01*
G01X3997033Y-3660606D01*
G01X3995942Y-3658970D01*
G01X3994851Y-3657061D01*
G01X3993760Y-3654606D01*
G01X3992669Y-3651334D01*
G01X3991851Y-3648606D01*
G01X3991578Y-3642606D01*
G01X3991851Y-3636606D01*
G01X3992396Y-3633606D01*
G01X3993215Y-3630334D01*
G01X3994305Y-3627606D01*
G01X3995669Y-3624606D01*
G01X3997305Y-3622152D01*
G01X3998669Y-3619970D01*
G01X4000033Y-3618334D01*
G01X4003305Y-3615061D01*
G01X4005487Y-3613425D01*
G01X4007396Y-3612061D01*
G01X4009851Y-3610697D01*
G01X4012305Y-3609606D01*
G01X4014760Y-3608788D01*
G01X4016942Y-3608243D01*
G01X4021578Y-3607970D01*
G01X4026760Y-3608243D01*
G01X4030033Y-3608788D01*
G01X4033578Y-3609606D01*
G01X4036851Y-3610697D01*
G01X4039305Y-3611788D01*
G01X4048578Y-3616425D01*
G01X4055942Y-3621334D01*
G01X4057851Y-3622697D01*
G01X4059214Y-3623788D01*
G01X4060578Y-3624606D01*
G01X4061942Y-3625697D01*
G01X4065214Y-3628425D01*
G01X4066578Y-3629788D01*
G01X4069305Y-3631970D01*
G01X4070669Y-3633334D01*
G01X4074487Y-3636606D01*
G01X4077214Y-3639334D01*
G01X4081033Y-3642606D01*
G01X4085669Y-3647243D01*
G01X4087851Y-3648879D01*
G01X4097396Y-3658424D01*
G01X4098760Y-3659515D01*
G01X4099374Y-3654743D01*
G01X4099578Y-3639879D01*
G01X4099305Y-3618606D01*
G01X4098760Y-3615879D01*
G01X4098214Y-3613697D01*
G01X4097396Y-3611516D01*
G01X4096305Y-3609334D01*
G01X4095214Y-3607697D01*
G01X4093305Y-3605788D01*
G01X4091123Y-3604152D01*
G01X4090305Y-3602243D01*
G01X4090510Y-3601288D01*
G01X4091123Y-3601152D01*
G01X4093305Y-3601970D01*
G01X4111305Y-3608516D01*
G01X4112669Y-3609061D01*
G01X4112669Y-3643970D01*
G01X4112464Y-3670152D01*
G37*
G36*
G01X4114851Y-3547424D02*
G01X4114578Y-3552879D01*
G01X4114033Y-3554243D01*
G01X4113487Y-3556697D01*
G01X4112669Y-3559152D01*
G01X4110487Y-3563515D01*
G01X4109396Y-3565152D01*
G01X4107214Y-3567879D01*
G01X4102578Y-3572515D01*
G01X4099851Y-3574697D01*
G01X4097124Y-3576606D01*
G01X4094942Y-3577970D01*
G01X4093033Y-3579061D01*
G01X4088123Y-3581243D01*
G01X4085396Y-3582334D01*
G01X4082942Y-3583152D01*
G01X4078032Y-3584243D01*
G01X4074214Y-3584788D01*
G01X4067123Y-3585061D01*
G01X4059487Y-3584788D01*
G01X4056214Y-3584243D01*
G01X4052396Y-3583697D01*
G01X4048578Y-3582879D01*
G01X4045851Y-3582061D01*
G01X4043669Y-3581515D01*
G01X4037123Y-3579061D01*
G01X4028396Y-3574697D01*
G01X4026214Y-3573334D01*
G01X4023760Y-3571697D01*
G01X4021851Y-3570606D01*
G01X4017760Y-3567334D01*
G01X4014487Y-3564606D01*
G01X4010396Y-3560515D01*
G01X4007669Y-3557243D01*
G01X4005760Y-3555334D01*
G01X4004124Y-3553152D01*
G01X4001396Y-3549334D01*
G01X4000033Y-3547152D01*
G01X3998396Y-3544424D01*
G01X3997033Y-3541970D01*
G01X3995942Y-3539515D01*
G01X3994851Y-3536515D01*
G01X3993760Y-3533243D01*
G01X3992942Y-3530243D01*
G01X3992396Y-3528061D01*
G01X3991851Y-3524243D01*
G01X3991578Y-3517970D01*
G01X3991578Y-3512515D01*
G01X3992942Y-3512515D01*
G01X3994033Y-3512788D01*
G01X3994578Y-3513606D01*
G01X3995124Y-3516606D01*
G01X3995669Y-3519334D01*
G01X3996215Y-3522334D01*
G01X3997033Y-3525606D01*
G01X3997851Y-3528061D01*
G01X3998669Y-3530243D01*
G01X4001124Y-3535152D01*
G01X4002760Y-3537606D01*
G01X4004669Y-3540061D01*
G01X4006305Y-3542243D01*
G01X4007669Y-3543606D01*
G01X4009033Y-3545243D01*
G01X4010942Y-3547152D01*
G01X4012851Y-3548788D01*
G01X4014214Y-3550152D01*
G01X4016942Y-3552334D01*
G01X4018851Y-3553697D01*
G01X4021305Y-3555334D01*
G01X4023487Y-3556697D01*
G01X4027305Y-3558879D01*
G01X4031124Y-3560515D01*
G01X4033578Y-3561606D01*
G01X4039578Y-3563788D01*
G01X4042033Y-3564606D01*
G01X4044487Y-3565152D01*
G01X4045646Y-3565152D01*
G01X4045851Y-3564606D01*
G01X4045033Y-3562970D01*
G01X4043669Y-3560788D01*
G01X4042305Y-3558333D01*
G01X4041214Y-3555879D01*
G01X4040123Y-3553152D01*
G01X4039305Y-3550970D01*
G01X4038457Y-3547152D01*
G01X4045305Y-3547152D01*
G01X4045305Y-3548515D01*
G01X4045578Y-3550152D01*
G01X4045851Y-3552061D01*
G01X4046396Y-3554515D01*
G01X4047214Y-3556970D01*
G01X4049669Y-3561879D01*
G01X4051305Y-3564606D01*
G01X4052669Y-3566515D01*
G01X4054033Y-3567334D01*
G01X4058942Y-3567879D01*
G01X4065487Y-3568424D01*
G01X4070123Y-3568697D01*
G01X4075851Y-3568424D01*
G01X4079669Y-3567879D01*
G01X4085123Y-3566788D01*
G01X4088669Y-3565970D01*
G01X4091942Y-3564879D01*
G01X4094669Y-3563788D01*
G01X4097124Y-3562697D01*
G01X4099578Y-3561334D01*
G01X4101487Y-3560243D01*
G01X4104214Y-3558061D01*
G01X4106124Y-3556424D01*
G01X4107760Y-3554243D01*
G01X4108851Y-3552606D01*
G01X4109396Y-3550697D01*
G01X4109396Y-3550697D01*
G01X4109669Y-3549334D01*
G01X4109942Y-3545788D01*
G01X4109669Y-3541697D01*
G01X4108851Y-3539243D01*
G01X4107487Y-3536515D01*
G01X4106124Y-3534606D01*
G01X4103396Y-3531879D01*
G01X4101487Y-3530243D01*
G01X4099305Y-3528879D01*
G01X4097396Y-3528061D01*
G01X4095214Y-3527243D01*
G01X4092214Y-3526424D01*
G01X4089487Y-3525879D01*
G01X4083214Y-3525606D01*
G01X4075851Y-3525879D01*
G01X4069305Y-3526970D01*
G01X4065760Y-3527788D01*
G01X4062487Y-3528879D01*
G01X4059760Y-3529970D01*
G01X4057305Y-3531061D01*
G01X4054851Y-3532424D01*
G01X4052942Y-3533515D01*
G01X4051578Y-3534606D01*
G01X4048851Y-3537334D01*
G01X4047760Y-3538697D01*
G01X4046942Y-3540334D01*
G01X4046123Y-3542515D01*
G01X4045578Y-3544970D01*
G01X4045305Y-3547152D01*
G01X4038457Y-3547152D01*
G01X4038214Y-3546061D01*
G01X4037942Y-3541424D01*
G01X4038214Y-3536243D01*
G01X4039305Y-3531879D01*
G01X4040123Y-3529697D01*
G01X4041214Y-3527515D01*
G01X4042578Y-3525061D01*
G01X4044487Y-3522606D01*
G01X4046123Y-3520425D01*
G01X4047487Y-3519061D01*
G01X4051578Y-3515788D01*
G01X4053487Y-3514697D01*
G01X4055669Y-3513606D01*
G01X4058123Y-3512515D01*
G01X4061669Y-3511425D01*
G01X4064396Y-3510606D01*
G01X4066851Y-3510334D01*
G01X4070396Y-3510061D01*
G01X4073123Y-3510061D01*
G01X4079123Y-3510606D01*
G01X4081851Y-3511152D01*
G01X4085396Y-3511970D01*
G01X4088669Y-3513061D01*
G01X4091123Y-3514152D01*
G01X4095487Y-3516334D01*
G01X4097669Y-3517697D01*
G01X4099578Y-3519061D01*
G01X4100942Y-3519879D01*
G01X4102305Y-3520970D01*
G01X4107760Y-3526424D01*
G01X4109124Y-3528334D01*
G01X4110487Y-3530515D01*
G01X4111578Y-3532424D01*
G01X4112396Y-3534334D01*
G01X4113215Y-3536515D01*
G01X4114033Y-3539243D01*
G01X4114578Y-3541697D01*
G01X4114851Y-3547424D01*
G37*
G36*
G01X4112669Y-3921061D02*
G01X4111305Y-3921061D01*
G01X4110283Y-3920788D01*
G01X4109942Y-3919970D01*
G01X4109669Y-3918061D01*
G01X4109124Y-3915333D01*
G01X4108033Y-3912061D01*
G01X4106396Y-3910152D01*
G01X4104760Y-3909061D01*
G01X4102305Y-3908515D01*
G01X4099851Y-3908243D01*
G01X4078305Y-3907970D01*
G01X4056760Y-3908243D01*
G01X4047487Y-3908788D01*
G01X4045305Y-3909333D01*
G01X4042851Y-3910970D01*
G01X4042033Y-3912470D01*
G01X4041760Y-3914243D01*
G01X4042033Y-3916970D01*
G01X4042578Y-3919424D01*
G01X4042442Y-3920720D01*
G01X4041487Y-3921334D01*
G01X4040328Y-3921265D01*
G01X4039578Y-3920515D01*
G01X4037396Y-3915606D01*
G01X4030851Y-3899242D01*
G01X4030305Y-3895970D01*
G01X4030305Y-3893788D01*
G01X4038760Y-3893788D01*
G01X4044964Y-3893584D01*
G01X4046669Y-3892970D01*
G01X4045033Y-3891606D01*
G01X4042578Y-3889970D01*
G01X4040396Y-3888606D01*
G01X4039033Y-3887515D01*
G01X4033578Y-3882061D01*
G01X4032487Y-3880424D01*
G01X4031669Y-3878788D01*
G01X4030851Y-3876879D01*
G01X4030305Y-3874152D01*
G01X4030578Y-3870606D01*
G01X4031396Y-3867879D01*
G01X4032487Y-3865970D01*
G01X4033851Y-3864333D01*
G01X4036033Y-3862970D01*
G01X4039033Y-3862152D01*
G01X4041487Y-3862424D01*
G01X4043396Y-3862970D01*
G01X4045033Y-3864061D01*
G01X4046396Y-3865424D01*
G01X4047487Y-3867333D01*
G01X4047487Y-3870606D01*
G01X4046396Y-3873879D01*
G01X4043669Y-3877697D01*
G01X4042305Y-3879879D01*
G01X4042033Y-3882606D01*
G01X4043123Y-3885061D01*
G01X4046396Y-3888333D01*
G01X4048578Y-3889970D01*
G01X4050214Y-3891061D01*
G01X4054033Y-3893242D01*
G01X4075851Y-3893788D01*
G01X4098214Y-3893515D01*
G01X4101487Y-3892970D01*
G01X4104214Y-3892152D01*
G01X4105851Y-3891061D01*
G01X4107760Y-3889152D01*
G01X4109124Y-3886424D01*
G01X4109669Y-3884242D01*
G01X4109942Y-3881515D01*
G01X4109942Y-3879606D01*
G01X4112669Y-3879606D01*
G01X4112669Y-3921061D01*
G37*
G36*
G01X4079396Y-4130515D02*
G01X4065760Y-4130515D01*
G01X4065760Y-4085243D01*
G01X4079396Y-4085243D01*
G01X4079396Y-4130515D01*
G37*
G36*
G01X4112669Y-4074333D02*
G01X4109942Y-4074333D01*
G01X4109942Y-4072424D01*
G01X4109669Y-4069697D01*
G01X4109124Y-4065879D01*
G01X4108578Y-4063970D01*
G01X4107760Y-4062061D01*
G01X4106942Y-4060424D01*
G01X4105578Y-4059061D01*
G01X4103396Y-4057970D01*
G01X4100124Y-4057424D01*
G01X4097124Y-4057151D01*
G01X4054305Y-4056879D01*
G01X4011487Y-4057151D01*
G01X4009033Y-4057424D01*
G01X4005487Y-4057697D01*
G01X4002215Y-4058515D01*
G01X3999760Y-4060151D01*
G01X3998124Y-4062606D01*
G01X3997305Y-4064788D01*
G01X3996760Y-4073515D01*
G01X3996215Y-4074061D01*
G01X3995124Y-4074061D01*
G01X3993760Y-4073788D01*
G01X3993760Y-3982152D01*
G01X3998396Y-3982152D01*
G01X4014760Y-3981333D01*
G01X4017760Y-3981061D01*
G01X4019396Y-3981333D01*
G01X4019942Y-3982152D01*
G01X4019396Y-3984061D01*
G01X4016942Y-3985152D01*
G01X4013396Y-3985970D01*
G01X4010124Y-3987061D01*
G01X4007669Y-3988152D01*
G01X4005487Y-3989515D01*
G01X4003305Y-3991697D01*
G01X4001942Y-3993879D01*
G01X4001124Y-3996333D01*
G01X4000578Y-3998788D01*
G01X4000305Y-4020061D01*
G01X4000305Y-4040515D01*
G01X4047214Y-4040515D01*
G01X4047214Y-4025515D01*
G01X4046942Y-4008061D01*
G01X4046123Y-4003970D01*
G01X4044760Y-4000970D01*
G01X4043123Y-3999061D01*
G01X4041487Y-3997970D01*
G01X4039305Y-3996879D01*
G01X4037123Y-3996061D01*
G01X4031396Y-3995242D01*
G01X4030578Y-3994833D01*
G01X4030305Y-3993606D01*
G01X4030305Y-3991970D01*
G01X4071214Y-3991970D01*
G01X4071214Y-3993606D01*
G01X4070873Y-3994902D01*
G01X4069851Y-3995515D01*
G01X4064396Y-3996606D01*
G01X4061396Y-3997424D01*
G01X4059214Y-3998515D01*
G01X4057851Y-3999606D01*
G01X4056487Y-4000970D01*
G01X4055396Y-4002606D01*
G01X4054578Y-4005061D01*
G01X4054033Y-4007515D01*
G01X4053760Y-4024424D01*
G01X4053760Y-4040515D01*
G01X4075032Y-4040515D01*
G01X4097124Y-4040242D01*
G01X4102033Y-4039697D01*
G01X4104214Y-4038606D01*
G01X4105305Y-4037652D01*
G01X4105851Y-4036424D01*
G01X4106396Y-4034242D01*
G01X4106669Y-4020061D01*
G01X4106396Y-4005879D01*
G01X4106124Y-4003152D01*
G01X4105851Y-3999879D01*
G01X4105305Y-3997152D01*
G01X4104487Y-3994152D01*
G01X4103124Y-3991152D01*
G01X4101760Y-3989242D01*
G01X4100669Y-3987879D01*
G01X4096578Y-3983788D01*
G01X4094396Y-3982152D01*
G01X4091669Y-3980242D01*
G01X4089487Y-3978879D01*
G01X4087578Y-3977788D01*
G01X4085123Y-3976424D01*
G01X4083487Y-3974788D01*
G01X4083487Y-3973152D01*
G01X4083964Y-3972674D01*
G01X4084851Y-3972879D01*
G01X4087578Y-3973970D01*
G01X4100669Y-3978333D01*
G01X4103396Y-3979424D01*
G01X4108305Y-3981061D01*
G01X4111033Y-3981879D01*
G01X4112669Y-3982152D01*
G01X4112669Y-4074333D01*
G37*
G36*
G01X4112669Y-4494333D02*
G01X4111305Y-4494333D01*
G01X4110283Y-4494060D01*
G01X4109942Y-4493242D01*
G01X4109669Y-4489697D01*
G01X4109124Y-4485879D01*
G01X4108305Y-4483424D01*
G01X4107214Y-4480969D01*
G01X4105305Y-4478788D01*
G01X4103124Y-4477697D01*
G01X4098214Y-4477151D01*
G01X4054033Y-4476879D01*
G01X4009851Y-4477151D01*
G01X4005487Y-4477697D01*
G01X4003033Y-4478242D01*
G01X4000851Y-4479060D01*
G01X3999487Y-4480151D01*
G01X3998124Y-4482333D01*
G01X3997305Y-4484788D01*
G01X3996760Y-4493515D01*
G01X3996215Y-4494060D01*
G01X3995124Y-4494060D01*
G01X3993760Y-4493788D01*
G01X3993760Y-4402151D01*
G01X3997851Y-4402151D01*
G01X4002760Y-4401879D01*
G01X4013124Y-4401333D01*
G01X4016669Y-4401060D01*
G01X4018783Y-4401265D01*
G01X4019669Y-4401879D01*
G01X4019669Y-4403515D01*
G01X4018987Y-4404265D01*
G01X4017487Y-4404879D01*
G01X4014760Y-4405697D01*
G01X4012305Y-4406242D01*
G01X4009851Y-4407060D01*
G01X4007669Y-4408151D01*
G01X4005760Y-4409242D01*
G01X4004396Y-4410333D01*
G01X4003033Y-4411970D01*
G01X4001942Y-4413879D01*
G01X4001124Y-4416061D01*
G01X4000578Y-4418242D01*
G01X4000305Y-4439788D01*
G01X4000305Y-4460515D01*
G01X4047214Y-4460515D01*
G01X4047214Y-4444970D01*
G01X4046942Y-4428060D01*
G01X4046396Y-4425333D01*
G01X4045578Y-4422606D01*
G01X4044487Y-4420697D01*
G01X4043396Y-4419333D01*
G01X4041760Y-4417970D01*
G01X4039578Y-4416879D01*
G01X4036578Y-4416061D01*
G01X4033851Y-4415515D01*
G01X4031669Y-4415242D01*
G01X4030646Y-4414833D01*
G01X4030305Y-4413606D01*
G01X4030305Y-4411970D01*
G01X4071214Y-4411970D01*
G01X4071214Y-4413606D01*
G01X4070805Y-4414901D01*
G01X4069578Y-4415515D01*
G01X4067123Y-4416061D01*
G01X4064396Y-4416606D01*
G01X4061123Y-4417424D01*
G01X4059214Y-4418515D01*
G01X4057851Y-4419606D01*
G01X4056487Y-4420970D01*
G01X4055396Y-4422606D01*
G01X4054578Y-4425060D01*
G01X4054033Y-4427515D01*
G01X4053760Y-4444424D01*
G01X4053760Y-4460515D01*
G01X4073942Y-4460515D01*
G01X4094942Y-4460242D01*
G01X4097942Y-4459969D01*
G01X4101487Y-4459697D01*
G01X4104214Y-4458606D01*
G01X4105305Y-4457651D01*
G01X4105851Y-4456424D01*
G01X4106396Y-4454242D01*
G01X4106669Y-4440060D01*
G01X4106396Y-4425879D01*
G01X4105851Y-4419879D01*
G01X4105305Y-4417151D01*
G01X4104487Y-4413879D01*
G01X4103124Y-4411151D01*
G01X4101760Y-4409242D01*
G01X4100669Y-4407879D01*
G01X4096578Y-4403788D01*
G01X4095214Y-4402697D01*
G01X4093305Y-4401333D01*
G01X4090851Y-4399697D01*
G01X4088669Y-4398333D01*
G01X4084851Y-4396151D01*
G01X4083487Y-4394788D01*
G01X4083487Y-4393151D01*
G01X4083964Y-4392674D01*
G01X4084851Y-4392879D01*
G01X4089760Y-4394515D01*
G01X4094123Y-4396151D01*
G01X4106396Y-4400242D01*
G01X4108578Y-4401060D01*
G01X4111033Y-4401879D01*
G01X4112669Y-4402151D01*
G01X4112669Y-4494333D01*
G37*
G36*
G01X4115396Y-4560879D02*
G01X4114851Y-4562788D01*
G01X4113487Y-4563606D01*
G01X4102033Y-4568515D01*
G01X4097124Y-4570697D01*
G01X4089487Y-4573969D01*
G01X4084578Y-4576151D01*
G01X4076942Y-4579424D01*
G01X4072032Y-4581606D01*
G01X4064396Y-4584879D01*
G01X4059487Y-4587060D01*
G01X4051851Y-4590333D01*
G01X4046942Y-4592515D01*
G01X4039305Y-4595788D01*
G01X4034396Y-4597969D01*
G01X4026760Y-4601242D01*
G01X4021851Y-4603424D01*
G01X4014214Y-4606697D01*
G01X4009305Y-4608879D01*
G01X4004942Y-4611060D01*
G01X4003033Y-4612151D01*
G01X4001396Y-4613515D01*
G01X4000033Y-4615424D01*
G01X3998942Y-4617333D01*
G01X3998124Y-4619242D01*
G01X3997305Y-4622515D01*
G01X3996760Y-4625515D01*
G01X3996215Y-4626060D01*
G01X3995124Y-4626060D01*
G01X3993760Y-4625788D01*
G01X3993760Y-4577788D01*
G01X3997033Y-4577788D01*
G01X3997305Y-4579697D01*
G01X3997851Y-4582969D01*
G01X3998669Y-4585969D01*
G01X3999760Y-4588151D01*
G01X4000851Y-4589515D01*
G01X4002760Y-4590606D01*
G01X4006033Y-4590606D01*
G01X4008760Y-4590060D01*
G01X4011214Y-4589515D01*
G01X4013942Y-4588697D01*
G01X4016124Y-4587879D01*
G01X4021851Y-4585424D01*
G01X4026760Y-4583242D01*
G01X4034396Y-4579970D01*
G01X4039305Y-4577788D01*
G01X4050760Y-4572879D01*
G01X4055669Y-4570697D01*
G01X4067123Y-4565788D01*
G01X4069305Y-4564697D01*
G01X4072032Y-4563606D01*
G01X4076942Y-4561424D01*
G01X4079669Y-4560333D01*
G01X4087033Y-4557060D01*
G01X4087714Y-4556515D01*
G01X4087578Y-4555969D01*
G01X4085669Y-4554878D01*
G01X4082942Y-4553788D01*
G01X4080487Y-4552697D01*
G01X4069578Y-4548333D01*
G01X4067123Y-4547242D01*
G01X4053487Y-4541787D01*
G01X4051033Y-4540697D01*
G01X4045578Y-4538515D01*
G01X4043396Y-4537697D01*
G01X4041487Y-4536878D01*
G01X4039033Y-4535787D01*
G01X4030851Y-4532515D01*
G01X4028669Y-4531697D01*
G01X4026760Y-4530878D01*
G01X4024305Y-4529787D01*
G01X4018851Y-4527606D01*
G01X4012851Y-4525424D01*
G01X4010396Y-4524606D01*
G01X4007396Y-4524333D01*
G01X4003851Y-4524606D01*
G01X4001942Y-4525424D01*
G01X4000578Y-4526515D01*
G01X3999215Y-4528151D01*
G01X3998124Y-4530878D01*
G01X3997305Y-4533878D01*
G01X3996760Y-4536060D01*
G01X3996215Y-4536606D01*
G01X3995124Y-4536606D01*
G01X3993760Y-4536333D01*
G01X3993760Y-4518606D01*
G01X3993965Y-4505242D01*
G01X3994578Y-4500606D01*
G01X3996215Y-4500606D01*
G01X3997578Y-4502515D01*
G01X3998669Y-4505515D01*
G01X4000033Y-4508242D01*
G01X4001396Y-4510151D01*
G01X4002487Y-4511242D01*
G01X4005214Y-4513424D01*
G01X4006851Y-4514515D01*
G01X4008760Y-4515606D01*
G01X4010942Y-4516697D01*
G01X4015851Y-4518878D01*
G01X4024033Y-4522151D01*
G01X4026487Y-4523242D01*
G01X4031942Y-4525424D01*
G01X4034124Y-4526242D01*
G01X4036033Y-4527060D01*
G01X4038487Y-4528151D01*
G01X4041214Y-4529242D01*
G01X4043396Y-4530060D01*
G01X4045305Y-4530878D01*
G01X4047760Y-4531969D01*
G01X4055942Y-4535242D01*
G01X4058396Y-4536333D01*
G01X4069305Y-4540697D01*
G01X4071760Y-4541787D01*
G01X4077214Y-4543969D01*
G01X4079669Y-4545060D01*
G01X4090578Y-4549424D01*
G01X4093033Y-4550515D01*
G01X4098487Y-4552697D01*
G01X4100669Y-4553515D01*
G01X4102578Y-4554333D01*
G01X4105033Y-4555424D01*
G01X4107760Y-4556515D01*
G01X4109942Y-4557333D01*
G01X4111851Y-4558151D01*
G01X4114033Y-4558969D01*
G01X4115055Y-4559583D01*
G01X4115396Y-4560879D01*
G37*
G36*
G01X4112669Y-4718515D02*
G01X4111305Y-4718515D01*
G01X4110283Y-4718174D01*
G01X4109942Y-4717151D01*
G01X4109669Y-4713878D01*
G01X4109124Y-4710606D01*
G01X4108578Y-4708424D01*
G01X4108033Y-4706787D01*
G01X4106942Y-4705424D01*
G01X4105578Y-4704060D01*
G01X4103942Y-4702969D01*
G01X4102033Y-4702424D01*
G01X4094942Y-4701878D01*
G01X4079669Y-4701606D01*
G01X4064396Y-4701878D01*
G01X4062214Y-4702969D01*
G01X4052396Y-4709515D01*
G01X4049669Y-4711151D01*
G01X4037396Y-4719333D01*
G01X4033033Y-4722060D01*
G01X4023214Y-4728606D01*
G01X4018851Y-4731333D01*
G01X4009033Y-4737878D01*
G01X4007124Y-4739242D01*
G01X4005760Y-4740333D01*
G01X4003851Y-4741697D01*
G01X4001669Y-4743878D01*
G01X4000033Y-4746333D01*
G01X3998669Y-4748788D01*
G01X3997578Y-4751242D01*
G01X3997033Y-4754242D01*
G01X3997033Y-4756151D01*
G01X3993760Y-4756151D01*
G01X3993760Y-4705424D01*
G01X3997033Y-4705424D01*
G01X3997033Y-4707060D01*
G01X3997305Y-4710060D01*
G01X3997851Y-4712242D01*
G01X3998396Y-4714151D01*
G01X3999487Y-4716333D01*
G01X4001669Y-4718242D01*
G01X4003237Y-4718787D01*
G01X4005214Y-4718787D01*
G01X4008214Y-4717969D01*
G01X4013124Y-4715515D01*
G01X4017487Y-4712787D01*
G01X4019942Y-4711151D01*
G01X4024305Y-4708424D01*
G01X4031669Y-4703515D01*
G01X4036033Y-4700787D01*
G01X4040942Y-4697515D01*
G01X4043669Y-4695878D01*
G01X4048578Y-4692606D01*
G01X4050487Y-4691242D01*
G01X4052396Y-4690151D01*
G01X4054033Y-4688787D01*
G01X4053964Y-4688038D01*
G01X4053214Y-4687424D01*
G01X4051033Y-4686060D01*
G01X4048578Y-4684424D01*
G01X4045851Y-4682787D01*
G01X4043396Y-4681151D01*
G01X4039033Y-4678424D01*
G01X4036578Y-4676787D01*
G01X4033851Y-4675151D01*
G01X4031396Y-4673515D01*
G01X4027033Y-4670787D01*
G01X4024578Y-4669151D01*
G01X4018033Y-4665060D01*
G01X4016124Y-4663969D01*
G01X4013942Y-4662606D01*
G01X4011760Y-4661515D01*
G01X4009578Y-4660697D01*
G01X4006033Y-4660151D01*
G01X4002215Y-4660697D01*
G01X3999760Y-4662333D01*
G01X3998124Y-4664515D01*
G01X3997305Y-4666424D01*
G01X3996760Y-4671333D01*
G01X3996215Y-4671878D01*
G01X3995124Y-4671878D01*
G01X3993760Y-4671606D01*
G01X3993760Y-4630697D01*
G01X3997033Y-4630697D01*
G01X3997033Y-4632333D01*
G01X3997578Y-4635606D01*
G01X3998669Y-4638606D01*
G01X3999760Y-4640788D01*
G01X4000851Y-4642697D01*
G01X4001942Y-4644333D01*
G01X4003033Y-4645697D01*
G01X4007124Y-4649787D01*
G01X4009305Y-4651424D01*
G01X4012033Y-4653333D01*
G01X4014487Y-4654969D01*
G01X4023214Y-4660424D01*
G01X4025669Y-4662060D01*
G01X4028396Y-4663697D01*
G01X4030851Y-4665333D01*
G01X4035214Y-4668060D01*
G01X4037669Y-4669697D01*
G01X4040396Y-4671333D01*
G01X4042851Y-4672969D01*
G01X4047214Y-4675697D01*
G01X4049669Y-4677333D01*
G01X4058396Y-4682787D01*
G01X4060851Y-4684424D01*
G01X4065828Y-4685038D01*
G01X4078578Y-4685242D01*
G01X4096033Y-4684969D01*
G01X4098214Y-4684696D01*
G01X4100942Y-4684424D01*
G01X4103124Y-4683878D01*
G01X4105305Y-4683060D01*
G01X4107487Y-4681151D01*
G01X4108851Y-4678697D01*
G01X4109396Y-4676515D01*
G01X4109669Y-4674606D01*
G01X4109942Y-4671060D01*
G01X4109942Y-4668333D01*
G01X4112669Y-4668333D01*
G01X4112669Y-4718515D01*
G37*
G36*
G01X4115124Y-4871515D02*
G01X4114305Y-4872333D01*
G01X4111851Y-4873151D01*
G01X4107487Y-4874787D01*
G01X4105033Y-4875606D01*
G01X4102305Y-4876696D01*
G01X4099033Y-4877787D01*
G01X4093033Y-4879969D01*
G01X4089760Y-4881060D01*
G01X4087033Y-4882151D01*
G01X4082123Y-4883787D01*
G01X4079396Y-4884878D01*
G01X4076123Y-4885969D01*
G01X4070123Y-4888151D01*
G01X4066851Y-4889242D01*
G01X4064123Y-4890333D01*
G01X4059214Y-4891969D01*
G01X4056487Y-4893060D01*
G01X4053214Y-4894151D01*
G01X4050487Y-4895242D01*
G01X4045578Y-4896878D01*
G01X4042851Y-4897969D01*
G01X4039578Y-4899060D01*
G01X4033578Y-4901242D01*
G01X4030305Y-4902333D01*
G01X4027578Y-4903424D01*
G01X4022669Y-4905060D01*
G01X4019942Y-4906151D01*
G01X4016669Y-4907242D01*
G01X4010669Y-4909424D01*
G01X4007942Y-4910515D01*
G01X4005760Y-4911333D01*
G01X4003851Y-4912151D01*
G01X4001942Y-4913242D01*
G01X3999760Y-4915151D01*
G01X3998124Y-4917878D01*
G01X3997305Y-4920060D01*
G01X3997033Y-4923060D01*
G01X3997033Y-4925242D01*
G01X3993760Y-4925242D01*
G01X3993760Y-4903969D01*
G01X3994033Y-4881878D01*
G01X3994578Y-4881333D01*
G01X3995669Y-4881333D01*
G01X3996692Y-4881878D01*
G01X3997033Y-4882969D01*
G01X3997305Y-4886242D01*
G01X3998124Y-4888969D01*
G01X3999215Y-4890606D01*
G01X4001124Y-4892242D01*
G01X4002760Y-4892787D01*
G01X4004942Y-4892787D01*
G01X4009305Y-4891969D01*
G01X4012851Y-4890878D01*
G01X4022669Y-4887606D01*
G01X4028669Y-4885424D01*
G01X4031942Y-4884333D01*
G01X4037942Y-4882151D01*
G01X4044487Y-4879969D01*
G01X4047214Y-4878878D01*
G01X4054578Y-4876424D01*
G01X4058942Y-4874787D01*
G01X4063851Y-4873151D01*
G01X4068214Y-4871515D01*
G01X4075578Y-4869060D01*
G01X4079942Y-4867424D01*
G01X4082396Y-4866605D01*
G01X4083283Y-4866128D01*
G01X4083214Y-4865242D01*
G01X4082465Y-4864356D01*
G01X4081305Y-4863878D01*
G01X4073942Y-4861424D01*
G01X4071214Y-4860333D01*
G01X4061396Y-4857060D01*
G01X4058669Y-4855969D01*
G01X4048851Y-4852696D01*
G01X4044487Y-4851060D01*
G01X4037123Y-4848605D01*
G01X4032760Y-4846969D01*
G01X4030305Y-4846151D01*
G01X4027851Y-4845878D01*
G01X4023487Y-4847515D01*
G01X4016124Y-4849969D01*
G01X4011760Y-4851605D01*
G01X4009033Y-4852696D01*
G01X4006033Y-4854060D01*
G01X4003851Y-4855424D01*
G01X4002215Y-4856515D01*
G01X4000851Y-4857605D01*
G01X3999487Y-4859242D01*
G01X3998124Y-4861424D01*
G01X3997305Y-4863333D01*
G01X3997033Y-4866333D01*
G01X3997033Y-4868515D01*
G01X3993760Y-4868515D01*
G01X3993760Y-4846151D01*
G01X3994033Y-4822969D01*
G01X3994578Y-4822424D01*
G01X3995669Y-4822424D01*
G01X3997033Y-4822696D01*
G01X3997033Y-4825424D01*
G01X3997578Y-4829787D01*
G01X3998669Y-4831969D01*
G01X3999760Y-4833333D01*
G01X4002215Y-4834696D01*
G01X4004942Y-4834969D01*
G01X4008760Y-4834424D01*
G01X4011487Y-4833878D01*
G01X4014487Y-4833060D01*
G01X4024305Y-4829787D01*
G01X4028669Y-4828151D01*
G01X4033578Y-4826515D01*
G01X4037942Y-4824878D01*
G01X4042851Y-4823242D01*
G01X4047214Y-4821606D01*
G01X4052123Y-4819969D01*
G01X4056487Y-4818333D01*
G01X4061396Y-4816696D01*
G01X4065760Y-4815060D01*
G01X4070669Y-4813424D01*
G01X4075032Y-4811787D01*
G01X4079942Y-4810151D01*
G01X4082669Y-4809060D01*
G01X4083828Y-4808515D01*
G01X4084033Y-4807969D01*
G01X4082123Y-4806878D01*
G01X4079396Y-4805787D01*
G01X4067123Y-4801697D01*
G01X4062760Y-4800060D01*
G01X4052942Y-4796787D01*
G01X4048578Y-4795151D01*
G01X4036305Y-4791060D01*
G01X4031942Y-4789424D01*
G01X4022124Y-4786151D01*
G01X4019396Y-4785060D01*
G01X4013669Y-4783151D01*
G01X4009305Y-4782060D01*
G01X4005760Y-4781787D01*
G01X4001669Y-4782333D01*
G01X3999215Y-4784242D01*
G01X3997851Y-4786697D01*
G01X3997305Y-4788606D01*
G01X3996760Y-4794060D01*
G01X3996215Y-4794606D01*
G01X3995124Y-4794606D01*
G01X3993760Y-4794333D01*
G01X3993760Y-4759424D01*
G01X3995124Y-4759424D01*
G01X3996215Y-4759628D01*
G01X3996760Y-4760242D01*
G01X3997851Y-4764606D01*
G01X3998396Y-4766515D01*
G01X3999487Y-4768151D01*
G01X4002215Y-4770878D01*
G01X4004396Y-4772242D01*
G01X4006851Y-4773606D01*
G01X4011214Y-4775242D01*
G01X4018578Y-4777697D01*
G01X4022942Y-4779333D01*
G01X4032760Y-4782606D01*
G01X4037123Y-4784242D01*
G01X4046942Y-4787515D01*
G01X4051305Y-4789151D01*
G01X4061123Y-4792424D01*
G01X4065487Y-4794060D01*
G01X4075305Y-4797333D01*
G01X4079669Y-4798969D01*
G01X4091942Y-4803060D01*
G01X4094669Y-4804151D01*
G01X4104487Y-4807424D01*
G01X4110487Y-4809606D01*
G01X4113760Y-4810696D01*
G01X4114987Y-4811447D01*
G01X4115396Y-4812606D01*
G01X4115124Y-4813833D01*
G01X4114305Y-4814787D01*
G01X4111851Y-4815878D01*
G01X4109396Y-4816696D01*
G01X4106669Y-4817787D01*
G01X4103396Y-4818878D01*
G01X4097396Y-4821060D01*
G01X4094123Y-4822151D01*
G01X4091396Y-4823242D01*
G01X4086487Y-4824878D01*
G01X4083760Y-4825969D01*
G01X4080487Y-4827060D01*
G01X4074487Y-4829242D01*
G01X4071214Y-4830333D01*
G01X4068487Y-4831424D01*
G01X4063578Y-4833060D01*
G01X4059214Y-4834696D01*
G01X4054305Y-4836333D01*
G01X4049942Y-4837969D01*
G01X4047487Y-4838787D01*
G01X4043123Y-4840424D01*
G01X4040669Y-4841242D01*
G01X4039987Y-4841719D01*
G01X4040123Y-4842060D01*
G01X4041760Y-4842878D01*
G01X4046669Y-4844515D01*
G01X4049396Y-4845605D01*
G01X4055942Y-4847787D01*
G01X4058669Y-4848878D01*
G01X4063578Y-4850515D01*
G01X4067942Y-4852151D01*
G01X4072851Y-4853787D01*
G01X4075578Y-4854878D01*
G01X4082123Y-4857060D01*
G01X4084851Y-4858151D01*
G01X4089760Y-4859787D01*
G01X4094123Y-4861424D01*
G01X4099033Y-4863060D01*
G01X4101760Y-4864151D01*
G01X4108305Y-4866333D01*
G01X4111033Y-4867424D01*
G01X4113760Y-4868242D01*
G01X4114987Y-4868856D01*
G01X4115396Y-4870151D01*
G01X4115124Y-4871515D01*
G37*
G36*
G01X4114578Y-4160242D02*
G01X4113760Y-4161061D01*
G01X4112124Y-4162424D01*
G01X4109396Y-4164606D01*
G01X4106124Y-4167333D01*
G01X4103396Y-4169515D01*
G01X4100124Y-4172242D01*
G01X4097396Y-4174424D01*
G01X4094123Y-4177151D01*
G01X4091396Y-4179333D01*
G01X4088123Y-4182060D01*
G01X4085396Y-4184242D01*
G01X4082123Y-4186970D01*
G01X4079396Y-4189151D01*
G01X4072851Y-4194606D01*
G01X4070123Y-4196788D01*
G01X4066851Y-4199515D01*
G01X4064123Y-4201697D01*
G01X4060851Y-4204424D01*
G01X4058123Y-4206606D01*
G01X4054851Y-4209333D01*
G01X4052123Y-4211515D01*
G01X4048851Y-4214242D01*
G01X4046123Y-4216424D01*
G01X4042851Y-4219151D01*
G01X4040123Y-4221333D01*
G01X4036851Y-4224060D01*
G01X4034124Y-4226242D01*
G01X4030851Y-4228970D01*
G01X4028124Y-4231151D01*
G01X4024851Y-4233879D01*
G01X4020760Y-4237151D01*
G01X4019669Y-4238242D01*
G01X4029078Y-4238856D01*
G01X4057851Y-4239061D01*
G01X4097669Y-4238788D01*
G01X4101487Y-4238242D01*
G01X4105305Y-4237151D01*
G01X4107214Y-4235515D01*
G01X4108305Y-4233879D01*
G01X4109124Y-4231424D01*
G01X4109669Y-4228970D01*
G01X4109942Y-4225151D01*
G01X4109942Y-4222151D01*
G01X4112669Y-4222151D01*
G01X4112669Y-4263606D01*
G01X4111305Y-4263606D01*
G01X4110283Y-4263265D01*
G01X4109942Y-4262242D01*
G01X4109669Y-4258970D01*
G01X4109124Y-4255152D01*
G01X4108305Y-4252424D01*
G01X4107214Y-4250515D01*
G01X4105851Y-4248879D01*
G01X4103942Y-4247788D01*
G01X4101760Y-4247242D01*
G01X4099851Y-4246970D01*
G01X4054578Y-4246697D01*
G01X4009033Y-4247242D01*
G01X4007396Y-4248333D01*
G01X4006033Y-4249424D01*
G01X4001942Y-4253515D01*
G01X4000578Y-4255424D01*
G01X3999215Y-4257879D01*
G01X3998124Y-4260879D01*
G01X3997305Y-4263333D01*
G01X3997033Y-4267151D01*
G01X3997033Y-4270151D01*
G01X3993760Y-4270151D01*
G01X3993760Y-4254606D01*
G01X3994305Y-4237970D01*
G01X3995942Y-4236333D01*
G01X3997578Y-4234970D01*
G01X4000305Y-4232788D01*
G01X4003578Y-4230060D01*
G01X4009033Y-4225697D01*
G01X4012305Y-4222970D01*
G01X4015033Y-4220788D01*
G01X4018305Y-4218060D01*
G01X4023760Y-4213697D01*
G01X4027033Y-4210969D01*
G01X4029760Y-4208788D01*
G01X4033033Y-4206060D01*
G01X4038487Y-4201697D01*
G01X4041760Y-4198970D01*
G01X4044487Y-4196788D01*
G01X4047760Y-4194060D01*
G01X4050487Y-4191879D01*
G01X4053760Y-4189151D01*
G01X4059214Y-4184788D01*
G01X4062487Y-4182060D01*
G01X4065214Y-4179879D01*
G01X4068487Y-4177151D01*
G01X4073942Y-4172788D01*
G01X4077214Y-4170060D01*
G01X4081305Y-4166788D01*
G01X4082396Y-4165697D01*
G01X4073669Y-4165083D01*
G01X4046942Y-4164879D01*
G01X4009305Y-4165151D01*
G01X4005487Y-4165697D01*
G01X4002215Y-4166515D01*
G01X4000578Y-4167606D01*
G01X3999487Y-4168697D01*
G01X3998124Y-4170606D01*
G01X3997305Y-4172788D01*
G01X3997033Y-4177697D01*
G01X3997033Y-4181788D01*
G01X3993760Y-4181788D01*
G01X3993760Y-4140333D01*
G01X3997033Y-4140333D01*
G01X3997033Y-4143879D01*
G01X3997578Y-4149333D01*
G01X3998942Y-4152606D01*
G01X4001124Y-4155061D01*
G01X4004124Y-4156424D01*
G01X4006578Y-4156970D01*
G01X4061123Y-4157242D01*
G01X4114851Y-4157242D01*
G01X4114851Y-4158879D01*
G01X4114578Y-4160242D01*
G37*
G36*
G01X4112669Y-4384697D02*
G01X4111305Y-4384697D01*
G01X4110283Y-4384356D01*
G01X4109942Y-4383333D01*
G01X4109669Y-4380060D01*
G01X4109124Y-4376242D01*
G01X4108305Y-4373515D01*
G01X4107487Y-4371878D01*
G01X4106396Y-4370515D01*
G01X4105033Y-4369424D01*
G01X4103396Y-4368606D01*
G01X4101487Y-4368060D01*
G01X4054578Y-4367788D01*
G01X4007124Y-4368060D01*
G01X4004396Y-4368606D01*
G01X4001942Y-4369424D01*
G01X4000305Y-4370515D01*
G01X3999215Y-4371606D01*
G01X3998124Y-4373515D01*
G01X3997305Y-4375697D01*
G01X3997033Y-4380606D01*
G01X3997033Y-4384697D01*
G01X3993760Y-4384697D01*
G01X3993760Y-4359333D01*
G01X3994001Y-4336151D01*
G01X4000305Y-4336151D01*
G01X4000578Y-4340242D01*
G01X4001124Y-4344606D01*
G01X4001669Y-4347879D01*
G01X4001942Y-4349788D01*
G01X4008078Y-4350606D01*
G01X4026487Y-4350879D01*
G01X4026487Y-4350879D01*
G01X4051305Y-4350606D01*
G01X4051578Y-4345424D01*
G01X4051305Y-4338060D01*
G01X4050760Y-4334788D01*
G01X4050214Y-4332333D01*
G01X4049396Y-4329060D01*
G01X4048305Y-4326606D01*
G01X4047214Y-4324424D01*
G01X4046123Y-4322515D01*
G01X4045033Y-4320879D01*
G01X4043669Y-4319242D01*
G01X4040942Y-4316515D01*
G01X4039578Y-4315424D01*
G01X4037669Y-4314333D01*
G01X4035487Y-4313242D01*
G01X4033305Y-4312424D01*
G01X4031124Y-4311879D01*
G01X4027033Y-4311606D01*
G01X4021851Y-4311879D01*
G01X4019124Y-4312424D01*
G01X4016669Y-4312970D01*
G01X4014487Y-4313788D01*
G01X4012578Y-4314879D01*
G01X4009851Y-4316515D01*
G01X4007669Y-4318151D01*
G01X4006305Y-4319515D01*
G01X4005214Y-4320879D01*
G01X4004124Y-4322515D01*
G01X4003033Y-4324424D01*
G01X4001942Y-4326879D01*
G01X4001124Y-4329333D01*
G01X4000578Y-4333151D01*
G01X4000305Y-4336151D01*
G01X3994001Y-4336151D01*
G01X3994033Y-4333151D01*
G01X3994305Y-4329879D01*
G01X3994578Y-4325515D01*
G01X3995124Y-4321151D01*
G01X3995942Y-4316788D01*
G01X3996760Y-4314060D01*
G01X3997305Y-4312151D01*
G01X3998124Y-4310242D01*
G01X4000305Y-4305879D01*
G01X4001396Y-4304242D01*
G01X4003578Y-4301515D01*
G01X4006305Y-4298788D01*
G01X4008214Y-4297151D01*
G01X4010669Y-4295515D01*
G01X4013124Y-4294151D01*
G01X4016396Y-4293061D01*
G01X4019124Y-4292242D01*
G01X4023487Y-4291970D01*
G01X4027851Y-4292242D01*
G01X4030305Y-4292788D01*
G01X4033578Y-4293606D01*
G01X4036033Y-4294697D01*
G01X4038214Y-4295788D01*
G01X4040942Y-4297424D01*
G01X4043123Y-4299060D01*
G01X4047214Y-4303151D01*
G01X4048578Y-4305060D01*
G01X4049942Y-4307515D01*
G01X4051033Y-4309697D01*
G01X4052669Y-4313515D01*
G01X4053487Y-4315697D01*
G01X4054305Y-4318970D01*
G01X4054919Y-4320333D01*
G01X4055669Y-4320606D01*
G01X4057851Y-4319242D01*
G01X4060033Y-4317606D01*
G01X4071487Y-4309424D01*
G01X4072851Y-4308333D01*
G01X4082396Y-4301515D01*
G01X4085123Y-4299606D01*
G01X4087305Y-4297970D01*
G01X4091123Y-4295242D01*
G01X4092487Y-4294151D01*
G01X4094396Y-4292788D01*
G01X4096305Y-4291151D01*
G01X4099033Y-4288970D01*
G01X4102305Y-4285697D01*
G01X4103942Y-4283515D01*
G01X4105033Y-4282151D01*
G01X4106124Y-4280242D01*
G01X4107214Y-4277788D01*
G01X4108033Y-4275333D01*
G01X4108851Y-4272061D01*
G01X4109669Y-4268242D01*
G01X4110214Y-4266810D01*
G01X4111305Y-4266333D01*
G01X4112669Y-4266333D01*
G01X4112669Y-4297970D01*
G01X4111305Y-4299060D01*
G01X4109124Y-4300697D01*
G01X4105305Y-4303424D01*
G01X4103942Y-4304515D01*
G01X4098214Y-4308606D01*
G01X4095487Y-4310515D01*
G01X4093305Y-4312151D01*
G01X4085669Y-4317606D01*
G01X4084305Y-4318697D01*
G01X4082396Y-4320060D01*
G01X4079669Y-4321970D01*
G01X4077487Y-4323606D01*
G01X4069851Y-4329060D01*
G01X4068487Y-4330151D01*
G01X4066578Y-4331515D01*
G01X4063851Y-4333424D01*
G01X4061669Y-4335060D01*
G01X4057851Y-4337788D01*
G01X4057237Y-4338674D01*
G01X4057033Y-4340242D01*
G01X4057305Y-4343515D01*
G01X4057305Y-4345697D01*
G01X4057033Y-4348697D01*
G01X4057033Y-4350879D01*
G01X4077214Y-4350879D01*
G01X4098214Y-4350606D01*
G01X4101487Y-4350060D01*
G01X4105305Y-4348969D01*
G01X4107214Y-4347333D01*
G01X4108305Y-4345697D01*
G01X4109124Y-4343242D01*
G01X4109669Y-4340788D01*
G01X4109942Y-4336969D01*
G01X4109942Y-4333969D01*
G01X4112669Y-4333969D01*
G01X4112669Y-4384697D01*
G37*
G04 Text End*

G04 Pad Start*
G54D10*
G01X3657600Y-4089400D03*
G01X8356619Y-4088248D03*
G01X8381344Y-6934592D03*
G01X3567817Y-6926457D03*
G54D11*
G01X5236312Y-5588000D03*
G01X5152288Y-5588000D03*
G01X5026321Y-5120357D03*
G01X4942298Y-5120357D03*
G54D12*
G01X4939655Y-7487400D03*
G01X5079659Y-7487400D03*
G01X4939655Y-7142991D03*
G01X5079659Y-7142991D03*
G54D13*
G01X4876800Y-4349598D03*
G01X4876800Y-4489602D03*
G54D14*
G01X6477000Y-4898288D03*
G01X6477000Y-4982312D03*
G54D15*
G01X4457700Y-7545400D03*
G01X4457700Y-7745400D03*
G01X3931261Y-6476926D03*
G01X3931261Y-6276927D03*
G54D16*
G01X5706900Y-4223309D03*
G01X5816905Y-4223309D03*
G01X5926910Y-4223309D03*
G01X6036915Y-4223309D03*
G01X6146897Y-4223309D03*
G01X6256901Y-4223309D03*
G01X6366906Y-4223309D03*
G01X6476888Y-4223309D03*
G01X6586898Y-4223268D03*
G54D17*
G01X6706898Y-4138270D03*
G01X5238900Y-4138270D03*
G54D19*
G01X5154905Y-3168091D03*
G01X6706898Y-3168091D03*
G54D20*
G01X7692200Y-3721100D03*
G01X7192201Y-3721100D03*
G54D21*
G01X6144400Y-7684249D03*
G01X6044400Y-7684249D03*
G01X5944400Y-7684249D03*
G01X5844400Y-7684249D03*
G54D22*
G01X6274397Y-7936751D03*
G01X5714403Y-7936751D03*
G54D23*
G01X4689653Y-7129799D03*
G01X4251147Y-7129799D03*
G54D24*
G01X4394200Y-6718300D03*
G01X4394200Y-6464300D03*
G01X4394200Y-6210300D03*
G01X4394200Y-5956300D03*
G01X4394200Y-5702300D03*
G01X4394200Y-5448300D03*
G01X4394200Y-5194300D03*
G01X4394200Y-4940300D03*
G01X4394200Y-4686300D03*
G01X4394200Y-4432300D03*
G01X4394200Y-4178300D03*
G01X4394200Y-3924300D03*
G01X4394200Y-3670300D03*
G54D25*
G01X4394200Y-3416300D03*
G54D26*
G01X6628406Y-6605677D03*
G01X6428407Y-6605677D03*
G54D27*
G01X6560024Y-4641207D03*
G01X6560024Y-4501227D03*
G54D28*
G01X4775200Y-6332118D03*
G01X4775200Y-6418682D03*
G01X6111546Y-5382965D03*
G01X6111546Y-5296402D03*
G01X6758768Y-5380495D03*
G01X6758768Y-5293931D03*
G01X6453181Y-5382547D03*
G01X6453181Y-5295983D03*
G01X6786325Y-4602457D03*
G01X6786325Y-4515893D03*
G01X5971986Y-5382965D03*
G01X5971986Y-5296402D03*
G01X4051300Y-7536282D03*
G01X4051300Y-7449718D03*
G01X6276506Y-5296402D03*
G01X6276506Y-5382965D03*
G01X7407584Y-6463198D03*
G01X7407584Y-6376635D03*
G54D29*
G01X5892317Y-5905629D03*
G01X5852312Y-5905629D03*
G01X5812307Y-5905629D03*
G01X5772302Y-5905629D03*
G01X5732297Y-5905629D03*
G01X5692318Y-5905629D03*
G01X5652313Y-5905629D03*
G01X5612308Y-5905629D03*
G01X5572303Y-5905629D03*
G01X5532298Y-5905629D03*
G01X5492318Y-5905629D03*
G01X5452313Y-5905629D03*
G01X5412308Y-5905629D03*
G01X5372303Y-5905629D03*
G01X5332298Y-5905629D03*
G01X5292319Y-5905629D03*
G01X5252314Y-5905629D03*
G01X5212309Y-5905629D03*
G01X5172304Y-5905629D03*
G01X5132299Y-5905629D03*
G54D30*
G01X5021555Y-6016373D03*
G01X5021555Y-6056378D03*
G01X5021555Y-6096383D03*
G01X5021555Y-6136388D03*
G01X5021555Y-6176393D03*
G01X5021555Y-6216372D03*
G01X5021555Y-6256377D03*
G01X5021555Y-6296382D03*
G01X5021555Y-6336387D03*
G01X5021555Y-6376392D03*
G01X5021555Y-6416372D03*
G01X5021555Y-6456377D03*
G01X5021555Y-6496382D03*
G01X5021555Y-6536387D03*
G01X5021555Y-6576392D03*
G01X5021555Y-6616372D03*
G01X5021555Y-6656377D03*
G01X5021555Y-6696382D03*
G01X5021555Y-6736387D03*
G01X5021555Y-6776392D03*
G54D29*
G01X5132299Y-6887136D03*
G01X5172304Y-6887136D03*
G01X5212309Y-6887136D03*
G01X5252314Y-6887136D03*
G01X5292319Y-6887136D03*
G01X5332298Y-6887136D03*
G01X5372303Y-6887136D03*
G01X5412308Y-6887136D03*
G01X5452313Y-6887136D03*
G01X5492318Y-6887136D03*
G01X5532298Y-6887136D03*
G01X5572303Y-6887136D03*
G01X5612308Y-6887136D03*
G01X5652313Y-6887136D03*
G01X5692318Y-6887136D03*
G01X5732297Y-6887136D03*
G01X5772302Y-6887136D03*
G01X5812307Y-6887136D03*
G01X5852312Y-6887136D03*
G01X5892317Y-6887136D03*
G54D30*
G01X6003061Y-6776392D03*
G01X6003061Y-6736387D03*
G01X6003061Y-6696382D03*
G01X6003061Y-6656377D03*
G01X6003061Y-6616372D03*
G01X6003061Y-6576392D03*
G01X6003061Y-6536387D03*
G01X6003061Y-6496382D03*
G01X6003061Y-6456377D03*
G01X6003061Y-6416372D03*
G01X6003061Y-6376392D03*
G01X6003061Y-6336387D03*
G01X6003061Y-6296382D03*
G01X6003061Y-6256377D03*
G01X6003061Y-6216372D03*
G01X6003061Y-6176393D03*
G01X6003061Y-6136388D03*
G01X6003061Y-6096383D03*
G01X6003061Y-6056378D03*
G01X6003061Y-6016373D03*
G54D31*
G01X5512308Y-6396382D03*
G54D32*
G01X6511201Y-6244780D03*
G54D33*
G01X6592507Y-6244780D03*
G01X6642494Y-6244780D03*
G01X6692506Y-6244780D03*
G01X6742494Y-6244780D03*
G54D32*
G01X6823799Y-6244806D03*
G01X6823799Y-6194793D03*
G01X6823799Y-6144781D03*
G01X6823799Y-6094793D03*
G01X6823799Y-6044781D03*
G01X6823799Y-5994794D03*
G01X6823799Y-5944781D03*
G01X6823799Y-5894794D03*
G01X6823799Y-5844781D03*
G01X6823799Y-5794794D03*
G54D33*
G01X6742494Y-5794794D03*
G01X6692481Y-5794794D03*
G01X6642494Y-5794794D03*
G01X6592481Y-5794794D03*
G54D32*
G01X6511201Y-5794794D03*
G01X6511201Y-5844781D03*
G01X6511201Y-5894794D03*
G01X6511201Y-5944781D03*
G01X6511201Y-5994794D03*
G01X6511201Y-6044781D03*
G01X6511201Y-6094793D03*
G01X6511201Y-6144781D03*
G01X6511201Y-6194793D03*
G54D34*
G01X6236005Y-7270090D03*
G01X6236005Y-7190105D03*
G01X6236005Y-7110095D03*
G01X6236005Y-7030110D03*
G01X5955995Y-7030110D03*
G01X5955995Y-7110095D03*
G01X5955995Y-7190105D03*
G01X5955995Y-7270090D03*
G54D35*
G01X7088200Y-5875198D03*
G01X7138213Y-5875198D03*
G01X7188200Y-5875198D03*
G01X7238213Y-5875198D03*
G01X7288200Y-5875198D03*
G01X7088200Y-5453202D03*
G01X7138213Y-5453202D03*
G01X7188200Y-5453202D03*
G01X7238213Y-5453202D03*
G01X7288200Y-5453202D03*
G54D36*
G01X5270094Y-7986903D03*
G01X5220106Y-7986903D03*
G54D37*
G01X5157597Y-7974406D03*
G01X5157597Y-7924394D03*
G01X5157597Y-7874406D03*
G01X5157597Y-7824394D03*
G54D36*
G01X5220106Y-7811897D03*
G01X5270094Y-7811897D03*
G54D37*
G01X5332603Y-7824394D03*
G01X5332603Y-7874406D03*
G01X5332603Y-7924394D03*
G01X5332603Y-7974406D03*
G54D38*
G01X7093889Y-6750060D03*
G01X7188885Y-6750060D03*
G01X7283881Y-6750060D03*
G01X7283881Y-7020062D03*
G01X7188885Y-7020062D03*
G01X7093889Y-7020062D03*
G54D39*
G01X5470632Y-5005977D03*
G01X5375636Y-5005977D03*
G01X5565603Y-5005977D03*
G01X5375611Y-5225992D03*
G01X5565628Y-5225992D03*
G54D40*
G01X7912100Y-6836600D03*
G01X7912100Y-7086613D03*
G01X7912100Y-7336599D03*
G01X7823200Y-6155499D03*
G01X7823200Y-5905487D03*
G01X7823200Y-5655500D03*
G01X8483600Y-6142799D03*
G01X8483600Y-5892787D03*
G01X8483600Y-5642800D03*
G01X7099300Y-7446200D03*
G01X7099300Y-7696213D03*
G01X7099300Y-7946199D03*
G54D17*
G01X6011116Y-4773268D03*
G01X6011116Y-4553253D03*
G01X5841114Y-4553253D03*
G01X5841114Y-4773268D03*
G54D41*
G01X7886700Y-4474400D03*
G01X7886700Y-4724413D03*
G01X7886700Y-4974399D03*
G54D42*
G01X3866909Y-5412994D03*
G01X3866909Y-5463007D03*
G01X3866909Y-5512994D03*
G01X3866909Y-5563006D03*
G01X3866909Y-5612994D03*
G01X3866909Y-5663006D03*
G01X3866909Y-5712968D03*
G01X3866909Y-5763006D03*
G54D43*
G01X3866909Y-5268004D03*
G54D44*
G01X3866919Y-5908001D03*
G54D45*
G01X3866919Y-5828016D03*
G54D46*
G01X3866902Y-5348004D03*
G54D47*
G01X3372091Y-6020511D03*
G54D48*
G01X3790074Y-6020511D03*
G01X3790074Y-5155489D03*
G54D47*
G01X3372091Y-5155489D03*
G54D49*
G01X6805371Y-5003800D03*
G01X7418629Y-5003800D03*
G04 Pad End*

G04 Via Start*
G54D50*
G01X7393225Y-5316300D03*
G01X7357926Y-5478599D03*
G01X5196680Y-6590017D03*
G01X3995411Y-5828028D03*
G01X4097011Y-5929628D03*
G01X5214220Y-6513777D03*
G01X5928931Y-5176316D03*
G01X5706509Y-5542809D03*
G01X6167577Y-5848832D03*
G01X5441519Y-5811679D03*
G01X5943698Y-5034810D03*
G01X5612309Y-5974608D03*
G01X6097007Y-6500187D03*
G01X6274807Y-5509589D03*
G01X6249407Y-6041768D03*
G01X5664499Y-4603010D03*
G01X5608739Y-5771408D03*
G01X5317719Y-6666177D03*
G01X5549059Y-6667167D03*
G01X5481499Y-6015408D03*
G01X5909109Y-6536387D03*
G01X5451910Y-7044386D03*
G01X4871314Y-6962190D03*
G01X4182982Y-7449715D03*
G01X5281499Y-6981075D03*
G01X4722700Y-6727076D03*
G01X5191709Y-6140778D03*
G01X4632910Y-5251779D03*
G01X4608549Y-4739715D03*
G01X4445012Y-4809190D03*
G01X5761888Y-5029200D03*
G01X5938968Y-4949587D03*
G01X5115509Y-6187768D03*
G01X4942300Y-5912959D03*
G01X5701953Y-4733041D03*
G01X5932898Y-4656871D03*
G01X5876108Y-4349011D03*
G01X5521499Y-5795818D03*
G01X3763812Y-5712969D03*
G01X5491009Y-5509769D03*
G01X6160297Y-5480730D03*
G01X6357627Y-5218745D03*
G01X6122407Y-6081768D03*
G01X7519085Y-5962658D03*
G01X6474507Y-5101865D03*
G01X6504697Y-4772722D03*
G01X7475332Y-5607246D03*
G01X7487085Y-6774556D03*
G01X7233086Y-6215757D03*
G01X7416366Y-5537479D03*
G01X7029886Y-5255799D03*
G01X6349517Y-5948778D03*
G01X6157948Y-6630967D03*
G01X5893735Y-6763713D03*
G01X5799858Y-7030386D03*
G01X6284655Y-5066379D03*
G01X5606781Y-4493825D03*
G01X5842710Y-7403359D03*
G01X6067008Y-7124616D03*
G01X5815049Y-6763713D03*
G01X5905188Y-6201068D03*
G01X6209988Y-5972468D03*
G01X6590987Y-5870868D03*
G01X6557426Y-5337164D03*
G01X6971986Y-5972468D03*
G01X5955988Y-7430064D03*
G01X6095221Y-7200968D03*
G01X6243810Y-6924738D03*
G01X6260788Y-6754486D03*
G01X6159188Y-6271887D03*
G01X6928749Y-5715881D03*
G01X7265319Y-5713939D03*
G01X6676536Y-4395996D03*
G01X6687939Y-5582265D03*
G01X6961647Y-6397207D03*
G01X7283885Y-6651207D03*
G01X5460999Y-6667497D03*
G01X6623487Y-7470395D03*
G01X5441519Y-6967976D03*
G01X5797118Y-6586977D03*
G01X5809008Y-5418579D03*
G01X6359432Y-5340114D03*
G01X5435600Y-6807200D03*
G01X4851400Y-6743700D03*
G01X4925005Y-6437256D03*
G01X4835591Y-6572227D03*
G04 Via End*

G04 Track Start*
G54D51*
G01X6786327Y-4602451D02*
G01X6551117Y-4837660D01*
G01X6430727Y-4837660D01*
G01X5971988Y-5296399D01*
G54D52*
G01X6428407Y-6605677D02*
G01X6337707Y-6696376D01*
G01X6003058Y-6696376D01*
G54D51*
G01X7418625Y-5003800D02*
G01X7418625Y-5290900D01*
G01X7393225Y-5316300D01*
G01X7357926Y-5478599D02*
G01X7357926Y-5529399D01*
G01X7307126Y-5580199D01*
G01X7230926Y-5580199D01*
G01X7188196Y-5537468D01*
G01X7188196Y-5453199D01*
G01X7230926Y-5580199D02*
G01X7088196Y-5722929D01*
G01X7088196Y-5875198D01*
G01X7418625Y-5003800D02*
G01X7418625Y-4942480D01*
G01X7886704Y-4474401D01*
G54D53*
G01X6823796Y-5994788D02*
G01X6910847Y-5994788D01*
G01X7291846Y-6375787D01*
G01X7406735Y-6375787D01*
G01X7407585Y-6376637D01*
G54D51*
G01X3866912Y-5828028D02*
G01X3944611Y-5828028D01*
G01X3970011Y-5802628D01*
G01X3970011Y-5396229D01*
G01X3919211Y-5345429D01*
G01X3869472Y-5345429D01*
G01X3866912Y-5347989D01*
G01X3970011Y-5802628D02*
G01X3995411Y-5828028D01*
G01X4427210Y-6590027D02*
G01X4689651Y-6852468D01*
G01X4689651Y-7061196D01*
G01X3866912Y-5563009D02*
G01X3789212Y-5563009D01*
G01X3636813Y-5715409D01*
G01X3636813Y-6579007D01*
G01X3992412Y-6934606D01*
G01X3992412Y-7493405D01*
G01X4035282Y-7536275D01*
G01X4051302Y-7536275D01*
G54D52*
G01X5706509Y-5542809D02*
G01X5692319Y-5556999D01*
G01X5692319Y-5905628D01*
G01X5852318Y-5905628D02*
G01X5852318Y-5862479D01*
G01X5877718Y-5837079D01*
G01X5492319Y-5905628D02*
G01X5492319Y-5862479D01*
G01X5441519Y-5811679D01*
G01X6146898Y-4223312D02*
G01X6146898Y-4831610D01*
G01X5943698Y-5034810D01*
G01X5612309Y-5974608D02*
G01X5612309Y-5905628D01*
G01X6003058Y-6576387D02*
G01X6046207Y-6576387D01*
G01X6097007Y-6525587D01*
G01X6097007Y-6500187D01*
G01X6274807Y-5509589D02*
G01X6274807Y-5384660D01*
G01X6276507Y-5382959D01*
G01X6003058Y-6016368D02*
G01X6147807Y-6016368D01*
G01X6173207Y-6041768D01*
G01X6249407Y-6041768D01*
G01X5608739Y-5771408D02*
G01X5652319Y-5814987D01*
G01X5652319Y-5905628D01*
G01X5292319Y-6887126D02*
G01X5292319Y-6691577D01*
G01X5317719Y-6666177D01*
G01X6628407Y-6605677D02*
G01X6513107Y-6490377D01*
G01X6196608Y-6490377D01*
G01X6070618Y-6616367D01*
G01X6003058Y-6616367D01*
G01X5883709Y-6616367D01*
G01X5680509Y-6819566D01*
G01X5549059Y-6819566D01*
G01X5532299Y-6836326D01*
G01X5532299Y-6887126D01*
G01X5481499Y-6015408D02*
G01X5532299Y-5964608D01*
G01X5532299Y-5905628D01*
G01X6003058Y-6536387D02*
G01X5909109Y-6536387D01*
G01X5451910Y-7044386D02*
G01X5401110Y-7095186D01*
G01X5172510Y-7095186D01*
G01X4182982Y-7449715D02*
G01X4051302Y-7449715D01*
G01X5332299Y-6887126D02*
G01X5332299Y-6930276D01*
G01X5281499Y-6981075D01*
G01X4519501Y-5065600D02*
G01X4394201Y-4940300D01*
G01X5021560Y-6496377D02*
G01X5064709Y-6496377D01*
G01X5191709Y-6369377D01*
G01X5191709Y-6140778D01*
G01X4572011Y-4936190D02*
G01X4445012Y-4809190D01*
G54D51*
G01X5152290Y-5791198D02*
G01X4775201Y-6168288D01*
G01X4775201Y-6332117D01*
G01X5152290Y-5613399D02*
G01X5203090Y-5664199D01*
G01X5253889Y-5664199D01*
G01X5482489Y-5435599D01*
G01X5482489Y-5181600D01*
G01X5533289Y-5130800D01*
G01X5660289Y-5130800D01*
G01X5761888Y-5029200D01*
G54D52*
G01X5021560Y-6416367D02*
G01X5064709Y-6416367D01*
G01X5115509Y-6365567D01*
G01X5115509Y-6187768D01*
G54D51*
G01X5932898Y-4656871D02*
G01X5932898Y-4631471D01*
G01X6011118Y-4553251D01*
G54D52*
G01X5926908Y-4223312D02*
G01X5926908Y-4298211D01*
G01X5876108Y-4349011D01*
G01X5521499Y-5795818D02*
G01X5572299Y-5846618D01*
G01X5572299Y-5905628D01*
G54D51*
G01X3866912Y-5712969D02*
G01X3763812Y-5712969D01*
G01X5491009Y-5509769D02*
G01X5516409Y-5484369D01*
G54D52*
G01X6003058Y-6056368D02*
G01X6097007Y-6056368D01*
G01X6122407Y-6081768D01*
G54D51*
G01X7188886Y-6750057D02*
G01X7188886Y-6648457D01*
G01X7265086Y-6572257D01*
G01X7468285Y-6572257D01*
G01X7519085Y-6521457D01*
G01X7519085Y-5962658D01*
G01X6401487Y-4946660D02*
G01X6449857Y-4898290D01*
G01X6476997Y-4898290D01*
G01X7093886Y-6750057D02*
G01X7093886Y-6682357D01*
G01X7246285Y-6529957D01*
G01X7449485Y-6529957D01*
G01X7474885Y-6504557D01*
G01X7474885Y-6126758D01*
G01X7449485Y-6101358D01*
G01X7283885Y-7020056D02*
G01X7283885Y-6977756D01*
G01X7487085Y-6774556D01*
G01X7029886Y-5255799D02*
G01X7029886Y-4951000D01*
G01X6877486Y-4798601D01*
G01X6725087Y-4798601D01*
G01X6547287Y-4976400D01*
G01X6482907Y-4976400D01*
G01X6476997Y-4982310D01*
G54D52*
G01X5892318Y-5905628D02*
G01X5910068Y-5923378D01*
G01X6171718Y-5923378D01*
G01X6197118Y-5897978D01*
G01X6298717Y-5897978D01*
G01X6349517Y-5948778D01*
G54D51*
G01X6805366Y-5003800D02*
G01X6805366Y-5189300D01*
G01X6932366Y-5316300D01*
G01X7084766Y-5316300D01*
G01X7135566Y-5367100D01*
G01X7135566Y-5450559D01*
G01X7138206Y-5453199D01*
G01X5822608Y-5341700D02*
G01X5822608Y-4986100D01*
G01X5797208Y-4960701D01*
G01X5746408Y-4960701D01*
G01X5701129Y-5005980D01*
G01X5565599Y-5005980D01*
G01X5565599Y-5043280D01*
G01X5514799Y-5094080D01*
G01X5438599Y-5094080D01*
G01X5387799Y-5043280D01*
G01X5387799Y-5018140D01*
G01X5375639Y-5005980D01*
G01X7135566Y-5367100D02*
G01X7160966Y-5341700D01*
G01X7313365Y-5341700D01*
G01X7823204Y-5851539D01*
G01X7823204Y-5905488D01*
G54D52*
G01X6157948Y-6630967D02*
G01X6132548Y-6656367D01*
G01X6003058Y-6656367D01*
G54D51*
G01X7188886Y-7020056D02*
G01X7093886Y-7020056D01*
G01X7188886Y-7020056D02*
G01X7188886Y-6986156D01*
G01X8013704Y-6161338D01*
G01X8013704Y-4851410D01*
G01X7886704Y-4724411D01*
G01X8008384Y-4602731D01*
G01X8008384Y-4439691D01*
G01X7932184Y-4363491D01*
G01X6938726Y-4363491D01*
G01X6786327Y-4515891D01*
G01X6574687Y-4515891D01*
G01X6560027Y-4501231D01*
G01X7093886Y-7020056D02*
G01X7093886Y-7087756D01*
G01X6458887Y-7722754D01*
G01X6255688Y-7722754D01*
G01X5823888Y-8154554D01*
G01X4866850Y-8154554D01*
G01X4457701Y-7745405D01*
G01X4251152Y-7538855D01*
G54D52*
G01X5799858Y-7030386D02*
G01X5687249Y-7142996D01*
G01X5079660Y-7142996D01*
G54D51*
G01X5079660Y-7142996D02*
G01X5079660Y-7487405D01*
G54D54*
G01X5844398Y-7684255D02*
G01X5655100Y-7684255D01*
G01X5361799Y-7977555D01*
G01X5335740Y-7977555D01*
G01X5332599Y-7974414D01*
G54D51*
G01X5965148Y-7039266D02*
G01X5955988Y-7030106D01*
G54D52*
G01X5905188Y-6201068D02*
G01X5879788Y-6175668D01*
G01X5879788Y-6124868D01*
G01X5930588Y-6074068D01*
G01X5952898Y-6096378D01*
G01X6003058Y-6096378D01*
G01X5930588Y-6074068D02*
G01X5905188Y-6048668D01*
G01X5905188Y-5997868D01*
G01X5930588Y-5972468D01*
G01X6209988Y-5972468D01*
G01X6590987Y-5870868D02*
G01X6590987Y-5796278D01*
G01X6592477Y-5794789D01*
G54D53*
G01X6971986Y-5972468D02*
G01X7048186Y-6048668D01*
G01X7190926Y-6048668D01*
G01X7288195Y-5951398D01*
G01X7288195Y-5875198D01*
G54D51*
G01X5944398Y-7684255D02*
G01X5944398Y-7441654D01*
G01X5955988Y-7430064D01*
G54D54*
G01X5944398Y-7684255D02*
G01X5944398Y-7910704D01*
G01X5791998Y-8063104D01*
G01X5258600Y-8063104D01*
G01X5220109Y-8024614D01*
G01X5220109Y-7986904D01*
G54D52*
G01X6159188Y-6271887D02*
G01X6133788Y-6246487D01*
G01X6133788Y-6195688D01*
G01X6074488Y-6136388D01*
G01X6003058Y-6136388D01*
G01X6133788Y-6195688D02*
G01X6184588Y-6195688D01*
G01X6438587Y-5941688D01*
G01X6438587Y-5840088D01*
G01X6483887Y-5794789D01*
G01X6511197Y-5794789D01*
G54D53*
G01X6511197Y-5794789D02*
G01X6511197Y-5555338D01*
G01X6627346Y-5439189D01*
G01X6652746Y-5439189D01*
G54D51*
G01X6036908Y-4223312D02*
G01X6036908Y-4196412D01*
G01X6113108Y-4120212D01*
G01X6179198Y-4120212D01*
G01X6256898Y-4197912D01*
G01X6256898Y-4223312D01*
G01X6256898Y-4196412D02*
G01X6333097Y-4120212D01*
G01X6510897Y-4120212D01*
G01X6587097Y-4196412D01*
G01X6586897Y-4223271D01*
G01X6036908Y-4223312D02*
G01X6036908Y-4351811D01*
G01X5841118Y-4547601D01*
G01X5841118Y-4553251D01*
G01X5841118Y-4773270D02*
G01X5688719Y-4925670D01*
G01X5510919Y-4925670D01*
G01X5485519Y-4951070D01*
G01X5485519Y-4991090D01*
G01X5470629Y-5005980D01*
G01X5485519Y-4951070D02*
G01X5460119Y-4925670D01*
G01X5333119Y-4925670D01*
G01X5155320Y-5103470D01*
G01X5043210Y-5103470D01*
G01X5026320Y-5120360D01*
G01X5155320Y-5103470D02*
G01X5236310Y-5184460D01*
G01X5236310Y-5587999D01*
G01X5841118Y-4756450D02*
G01X5866518Y-4781850D01*
G01X5866518Y-5289849D01*
G01X5959628Y-5382959D01*
G01X5971988Y-5382959D01*
G01X5815718Y-4547601D02*
G01X5688719Y-4674601D01*
G01X4927600Y-4674601D01*
G01X4800601Y-4547601D01*
G01X4800601Y-4425801D01*
G01X4876800Y-4349601D01*
G01X4800601Y-4547601D02*
G01X4532901Y-4547601D01*
G01X4394201Y-4686301D01*
G01X4394201Y-4737101D01*
G01X3886202Y-5245099D01*
G01X3866912Y-5268010D01*
G01X3911602Y-5245099D02*
G01X4013202Y-5346699D01*
G01X4013202Y-5753098D01*
G01X4064002Y-5803898D01*
G01X4064002Y-5854698D01*
G01X4013202Y-5905498D01*
G01X3962402Y-5905498D02*
G01X3937002Y-5930898D01*
G01X3889792Y-5930898D01*
G01X3866912Y-5908018D01*
G01X4064002Y-5854698D02*
G01X4292602Y-5854698D01*
G01X4394201Y-5956298D01*
G01X4927600Y-7150096D02*
G01X4939660Y-7142996D01*
G01X4927600Y-7475345D02*
G01X4939660Y-7487405D01*
G54D54*
G01X4939660Y-7487405D02*
G01X4939660Y-7741405D01*
G01X5117460Y-7919204D01*
G01X5152410Y-7919204D01*
G01X5157600Y-7924394D01*
G01X5246000Y-7924394D01*
G01X5270090Y-7948484D01*
G01X5270090Y-7986904D01*
G01X5270090Y-7948484D02*
G01X5294179Y-7924394D01*
G01X5332599Y-7924394D01*
G01X5332599Y-7874414D01*
G54D53*
G01X6767886Y-6023388D02*
G01X6789276Y-6044778D01*
G01X6823796Y-6044778D01*
G01X6860047Y-6044778D01*
G01X6885447Y-6070178D01*
G01X6885447Y-6208557D01*
G01X6860047Y-6233957D01*
G01X6834647Y-6233957D01*
G01X6823796Y-6244807D01*
G01X6767886Y-6023388D02*
G01X6746497Y-6044778D01*
G01X6511197Y-6044778D01*
G01X6823796Y-5794789D02*
G01X6860047Y-5794789D01*
G01X6940457Y-5875198D02*
G01X6957437Y-5875198D01*
G01X7084436Y-6002198D01*
G01X7109836Y-6002198D01*
G01X7138206Y-5973829D01*
G01X7138206Y-5875198D01*
G54D51*
G01X6885447Y-5820188D02*
G01X6910847Y-5820188D01*
G01X7088646Y-5642389D01*
G01X7088646Y-5453650D01*
G54D53*
G01X6823796Y-6244807D02*
G01X6823796Y-6259357D01*
G01X6961647Y-6397207D01*
G01X7283885Y-6651207D02*
G01X7283885Y-6750057D01*
G54D51*
G01X4876800Y-4349601D02*
G01X4876800Y-4152902D01*
G01X4394201Y-3670303D01*
G54D54*
G01X7283885Y-6750057D02*
G01X7283885Y-6800856D01*
G01X7156886Y-6927856D01*
G01X7055286Y-6927856D01*
G01X6318687Y-7664455D02*
G01X6164198Y-7664455D01*
G01X6144398Y-7684255D01*
G54D51*
G01X6598087Y-7385055D02*
G01X6598087Y-7359655D01*
G01X6268537Y-7030106D01*
G01X6236008Y-7030106D01*
G54D52*
G01X6236008Y-7030106D02*
G01X6181108Y-7030106D01*
G01X6079508Y-6928506D01*
G01X6079508Y-6750707D01*
G01X6065188Y-6736387D01*
G01X6003058Y-6736387D01*
G01X5460999Y-6667497D02*
G01X5460999Y-6447687D01*
G01X5512309Y-6396377D01*
G54D51*
G01X6572687Y-7410455D02*
G01X6572687Y-7419595D01*
G01X6623487Y-7470395D01*
G01X6044398Y-7684255D02*
G01X6044398Y-7252455D01*
G01X5993598Y-7201656D01*
G01X5967538Y-7201656D01*
G01X5955988Y-7190106D01*
G54D52*
G01X5955988Y-7190106D02*
G01X5930588Y-7190106D01*
G01X5879788Y-7139306D01*
G01X5879788Y-6986906D01*
G01X5892318Y-6974376D01*
G01X5892318Y-6887126D01*
G01X5879788Y-6986906D02*
G01X5854388Y-6961506D01*
G01X5473389Y-6961506D01*
G01X5492319Y-6942576D01*
G01X5492319Y-6887126D01*
G01X5397189Y-6961506D02*
G01X5320989Y-7037706D01*
G01X5232079Y-7037706D01*
G01X5132300Y-6937926D01*
G01X5132300Y-6887126D01*
G01X5021560Y-6776386D01*
G01X5466919Y-6967976D02*
G01X5441519Y-6967976D01*
G01X5797118Y-6586977D02*
G01X5771718Y-6561577D01*
G01X5771718Y-6510777D01*
G01X5836918Y-6445577D02*
G01X5952258Y-6445577D01*
G01X6003058Y-6470977D02*
G01X6028458Y-6470977D01*
G01X6079258Y-6420177D01*
G01X6079258Y-6191578D02*
G01X6064068Y-6176388D01*
G01X6003058Y-6176388D01*
G01X5797118Y-6485377D02*
G01X5797118Y-6085378D01*
G01X5746318Y-6034578D01*
G01X5746318Y-5977378D02*
G01X5732298Y-5963358D01*
G01X5732298Y-5905628D01*
G01X5746318Y-6028178D02*
G01X5695519Y-6078978D01*
G01X5454849Y-6078978D01*
G01X5330074Y-5954203D01*
G01X5330074Y-5949753D01*
G01X5332299Y-5947528D01*
G01X5332299Y-5905628D01*
G01X5205299Y-6074528D02*
G01X5145280Y-6074528D01*
G01X5083420Y-6136388D01*
G01X5021560Y-6136388D01*
G01X4978411Y-6136388D01*
G01X4953011Y-6161788D01*
G01X4953011Y-6314187D01*
G01X4975211Y-6336387D01*
G01X5021560Y-6336387D01*
G01X6079258Y-6343977D02*
G01X6618707Y-6343977D01*
G01X6692507Y-6270177D01*
G01X5809008Y-5418579D02*
G01X5758208Y-5418579D01*
G01X5565629Y-5225999D01*
G01X5732298Y-5905628D02*
G01X5732298Y-5862479D01*
G01X6011698Y-5583079D01*
G01X6287037Y-5583079D01*
G01X6441467Y-5428650D01*
G54D53*
G01X6692507Y-6281028D02*
G01X6874676Y-6463197D01*
G01X7407585Y-6463197D01*
G54D54*
G01X6044398Y-7684255D02*
G01X6044398Y-7875955D01*
G01X5815798Y-8104555D01*
G01X5236941Y-8104555D01*
G01X5160741Y-8028355D01*
G01X5160741Y-7977555D01*
G01X5157600Y-7974414D01*
G54D52*
G01X4722700Y-6727076D02*
G01X4519501Y-6523877D01*
G01X4519501Y-5065600D01*
G01X5549059Y-6792868D02*
G01X5470201Y-6792868D01*
G03X5435600Y-6807200I0J-48934D01*
G01X5549059Y-6819566D02*
G01X5549059Y-6792868D01*
G01X5549059Y-6667167D01*
G01X4808337Y-6385541D02*
G01X4775201Y-6418677D01*
G01X5021560Y-6376387D02*
G01X4821767Y-6376387D01*
G01X4812613Y-6385541D01*
G01X4808337Y-6385541D01*
G01X5252319Y-6887126D02*
G01X5252319Y-6551877D01*
G01X5214220Y-6513777D01*
G01X5212310Y-6887126D02*
G01X5212310Y-6605647D01*
G01X5196680Y-6590017D01*
G01X4572011Y-6497909D02*
G01X4572011Y-4936190D01*
G01X4590691Y-6516588D02*
G01X4572011Y-6497909D01*
G01X5021560Y-6536387D02*
G01X5017694Y-6532521D01*
G01X4988305Y-6532521D01*
G02X4964912Y-6516588I0J25140D01*
G01X4590691Y-6516588D01*
G54D51*
G01X4934622Y-6448999D02*
G01X4970616Y-6448999D01*
G03X4988305Y-6455311I17688J21628D01*
G01X5007037Y-6455311D01*
G01X4853279Y-6740476D02*
G01X4853279Y-6625085D01*
G03X4835655Y-6582536I-60173J0D01*
G01X4483101Y-7520005D02*
G01X4457701Y-7545405D01*
G01X4904852Y-7255699D02*
G01X4927600Y-7232951D01*
G01X4927600Y-7150096D02*
G01X4927600Y-7232951D01*
G01X4927600Y-7475345D01*
G01X4394201Y-6972296D02*
G01X4443950Y-7022044D01*
G01X4443950Y-7047444D01*
G01X4492731Y-7255699D02*
G01X4904852Y-7255699D01*
G01X4483101Y-7167874D02*
G01X4483101Y-7520005D01*
G01X4443950Y-7047444D02*
G01X4492731Y-7096226D01*
G01X7138236Y-4275061D02*
G01X7692195Y-3721103D01*
G54D53*
G01X6674087Y-4297312D02*
G01X6674087Y-4275528D01*
G01X6742486Y-5794789D02*
G01X6767886Y-5794789D01*
G01X6823796Y-5794789D01*
G01X6860047Y-5794789D02*
G01X6885447Y-5820188D01*
G01X6940457Y-5875198D01*
G54D54*
G01X7055286Y-6927856D02*
G01X6598087Y-7385055D01*
G01X6572687Y-7410455D01*
G01X6318687Y-7664455D01*
G54D51*
G01X6674087Y-4275061D02*
G01X7138236Y-4275061D01*
G54D53*
G01X6672687Y-4273661D02*
G02X6614539Y-4249576I0J82233D01*
G01X6600830Y-4235866D01*
G54D51*
G01X6256898Y-4197912D02*
G01X6256898Y-4196412D01*
G01X5841118Y-4553251D02*
G01X5841118Y-4756450D01*
G01X5841118Y-4773270D01*
G54D52*
G01X6441467Y-5428650D02*
G01X6441467Y-5403250D01*
G01X6441467Y-5382959D01*
G54D51*
G01X6441467Y-5403250D02*
G01X6422567Y-5403250D01*
G01X6359432Y-5340114D01*
G54D53*
G01X6652746Y-5439189D02*
G01X6664971Y-5426964D01*
G01X6859501Y-5428846D02*
G03X6866085Y-5412952I-15894J15894D01*
G03X6846680Y-5366105I-66251J0D01*
G01X6772977Y-5292402D01*
G01X6664971Y-5426964D02*
G01X6763177Y-5525170D01*
G01X6761707Y-5526640D02*
G01X6763177Y-5525170D01*
G01X6859501Y-5428846D01*
G54D51*
G01X6606427Y-5382959D02*
G01X6540172Y-5449214D01*
G01X6487432Y-5449214D01*
G01X6441467Y-5403250D01*
G01X6608815Y-5382569D02*
G01X6746886Y-5382569D01*
G01X6750436Y-5384039D01*
G54D52*
G01X5473389Y-6961506D02*
G01X5466919Y-6967976D01*
G01X5771718Y-6510777D02*
G01X5797118Y-6485377D01*
G01X5836918Y-6445577D01*
G01X6003058Y-6496377D02*
G01X6003058Y-6470977D01*
G01X6003058Y-6456367D01*
G01X6079258Y-6420177D02*
G01X6079258Y-6343977D01*
G01X6079258Y-6191578D01*
G01X5746318Y-6034578D02*
G01X5746318Y-6028178D01*
G01X5746318Y-5977378D01*
G01X5330074Y-5949753D02*
G01X5205299Y-6074528D01*
G54D53*
G01X6692507Y-6244777D02*
G01X6692507Y-6270177D01*
G01X6692507Y-6281028D01*
G54D52*
G01X5952258Y-6445577D02*
G01X6003058Y-6496377D01*
G01X5473389Y-6961506D02*
G01X5397189Y-6961506D01*
G54D53*
G01X6557426Y-5337164D02*
G01X6514753Y-5294491D01*
G01X6443376Y-5294491D01*
G01X6441467Y-5296399D01*
G01X6692481Y-5794789D02*
G01X6742486Y-5794789D01*
G01X6677684Y-5794789D02*
G01X6647256Y-5795694D01*
G01X6645062Y-5794785D01*
G54D51*
G01X6152807Y-5367100D02*
G01X6127407Y-5367100D01*
G01X5516409Y-5484369D02*
G01X6156658Y-5484369D01*
G01X6160297Y-5480730D01*
G54D52*
G01X6284655Y-5066379D02*
G01X6284655Y-5094379D01*
G01X6111548Y-5267486D01*
G01X6111548Y-5296399D01*
G54D51*
G01X6184273Y-5335634D02*
G01X6152807Y-5367100D01*
G01X6184273Y-5248274D02*
G01X6184273Y-5335634D01*
G01X6474507Y-5101865D02*
G01X6401487Y-5028845D01*
G01X6401487Y-4946660D01*
G01X6805366Y-5189300D02*
G01X6776371Y-5160305D01*
G01X6272242Y-5160305D01*
G01X6184273Y-5248274D01*
G01X6357627Y-5218745D02*
G01X6354162Y-5218745D01*
G01X6276507Y-5296399D01*
G54D52*
G01X6366907Y-4223312D02*
G01X6366907Y-4738340D01*
G01X5928931Y-5176316D01*
G54D51*
G01X6127407Y-5367100D02*
G01X6050778Y-5443729D01*
G01X5924637Y-5443729D01*
G01X5822608Y-5341700D01*
G01X4942300Y-5100160D02*
G01X5309420Y-4733041D01*
G01X5701953Y-4733041D01*
G01X4942300Y-5125560D02*
G01X4942300Y-5120360D01*
G01X4942300Y-5100160D01*
G54D52*
G01X4942300Y-5125560D02*
G01X4942300Y-5912959D01*
G54D51*
G01X5938968Y-4949587D02*
G01X5938968Y-4845421D01*
G01X6011118Y-4773270D01*
G54D52*
G01X5816898Y-4223312D02*
G01X5762040Y-4278171D01*
G54D51*
G01X5606781Y-4493825D02*
G01X4881024Y-4493825D01*
G01X4876800Y-4489601D01*
G54D52*
G01X5762040Y-4278171D02*
G01X5762040Y-4318356D01*
G01X5664499Y-4415896D01*
G01X5664499Y-4603010D01*
G54D53*
G01X6676536Y-4395996D02*
G01X6673035Y-4392495D01*
G01X6673035Y-4309410D01*
G54D51*
G01X6504697Y-4772722D02*
G01X6504697Y-4696540D01*
G01X6560027Y-4641211D01*
G54D53*
G01X7265319Y-5713939D02*
G01X7238205Y-5741052D01*
G01X7238205Y-5875198D01*
G54D51*
G01X5844398Y-7684255D02*
G01X5844398Y-7405048D01*
G01X5842710Y-7403359D01*
G54D52*
G01X6243810Y-6924738D02*
G01X6243810Y-6771464D01*
G01X6260788Y-6754486D01*
G54D51*
G01X6006788Y-7039266D02*
G01X5965148Y-7039266D01*
G54D52*
G01X6003058Y-6776386D02*
G01X5999197Y-6772525D01*
G01X5877718Y-5837079D02*
G01X6155824Y-5837079D01*
G01X6167577Y-5848832D01*
G54D53*
G01X6723767Y-5838908D02*
G01X6723767Y-5979268D01*
G01X6767886Y-6023388D01*
G54D52*
G01X5172510Y-7095186D02*
G01X5039514Y-6962190D01*
G01X4871314Y-6962190D01*
G01X5999197Y-6772525D02*
G01X5893735Y-6772525D01*
G01X5893735Y-6763713D01*
G01X6006788Y-7039266D02*
G01X5977635Y-7010113D01*
G01X5977635Y-6892651D01*
G01X5903478Y-6818493D01*
G02X5838096Y-6763713I-9743J54780D01*
G01X5815049Y-6763713D01*
G01X4632910Y-5251779D02*
G01X4632910Y-4764076D01*
G01X4608549Y-4739715D01*
G54D51*
G01X5999446Y-7139765D02*
G01X5985667Y-7139765D01*
G01X5955988Y-7110086D01*
G01X6095221Y-7200968D02*
G01X6060650Y-7200968D01*
G01X5999446Y-7139765D01*
G01X6067008Y-7124616D02*
G01X6006788Y-7064396D01*
G01X6006788Y-7039266D01*
G54D53*
G01X6687939Y-5582265D02*
G01X6691260Y-5585586D01*
G01X6691260Y-5781212D01*
G01X6763177Y-5525170D02*
G01X6928749Y-5690743D01*
G01X6928749Y-5715881D01*
G54D51*
G01X7449485Y-6101358D02*
G01X7449485Y-5633092D01*
G01X7475332Y-5607246D01*
G01X7233086Y-6215757D02*
G01X7408845Y-6039998D01*
G01X7408845Y-5616258D01*
G01X7416366Y-5608738D01*
G01X7416366Y-5537479D01*
G01X4367277Y-6590027D02*
G01X4427210Y-6590027D01*
G01X4097011Y-5929628D02*
G01X4122411Y-5955028D01*
G01X4122411Y-6345161D01*
G01X4367277Y-6590027D01*
G01X4251152Y-7538855D02*
G01X4251152Y-7129799D01*
G01X4381248Y-6739856D02*
G01X4192099Y-6550707D01*
G01X4012493Y-6476312D02*
G01X3954421Y-6476312D01*
G01X4061844Y-5976303D02*
G02X4038608Y-5931717I35167J46675D01*
G01X4013202Y-5905498D02*
G01X4012389Y-5905498D01*
G01X4038608Y-5931717D02*
G01X4012389Y-5905498D01*
G01X4011713Y-5904822D01*
G01X4192099Y-6550707D02*
G03X4061844Y-6481152I-179605J-179605D01*
G03X4012493Y-6476312I-49350J-249159D01*
G01X4061844Y-6483474D02*
G01X4061844Y-6481152D01*
G01X4061844Y-5976303D01*
G01X4012389Y-5905498D02*
G01X3962402Y-5905498D01*
G01X4492731Y-7255699D02*
G01X4492731Y-7096226D01*
G01X4394201Y-6972296D02*
G01X4394201Y-6674425D01*
G54D53*
G01X6767886Y-5794789D02*
G01X6723767Y-5838908D01*
G54D51*
G01X4251152Y-7129799D02*
G01X4251152Y-7036989D01*
G01X3808943Y-6594781D01*
G01X3808943Y-6328676D01*
G01X3878476Y-6259143D01*
G01X5152290Y-5587999D02*
G01X5152290Y-5613399D01*
G01X5152290Y-5791198D01*
G04 Track End*

M02*

