0
SECTION
2
HEADER
9
$INSUNITS
70
4
9
$ACADVER
1
AC1014
9
$HANDSEED
5
FFFF
0
ENDSEC
0
SECTION
2
TABLES
0
TABLE
2
VPORT
5
8
100
AcDbSymbolTable
0
ENDTAB
0
TABLE
2
LTYPE
5
5
100
AcDbSymbolTable
0
LTYPE
5
14
100
AcDbSymbolTableRecord
100
AcDbLinetypeTableRecord
2
BYBLOCK
70
0
0
LTYPE
5
15
100
AcDbSymbolTableRecord
100
AcDbLinetypeTableRecord
2
BYLAYER
70
0
0
ENDTAB
0
TABLE
2
LAYER
5
2
100
AcDbSymbolTable
70
2
0
LAYER
5
50
100
AcDbSymbolTableRecord
100
AcDbLayerTableRecord
2
0
70
0
6
CONTINUOUS
0
ENDTAB
0
TABLE
2
STYLE
5
3
100
AcDbSymbolTable
70
1
0
STYLE
5
11
100
AcDbSymbolTableRecord
100
AcDbTextStyleTableRecord
2
STANDARD
70
0
0
ENDTAB
0
TABLE
2
VIEW
5
6
100
AcDbSymbolTable
70
0
0
ENDTAB
0
TABLE
2
UCS
5
7
100
AcDbSymbolTable
70
0
0
ENDTAB
0
TABLE
2
APPID
5
9
100
AcDbSymbolTable
70
2
0
APPID
5
12
100
AcDbSymbolTableRecord
100
AcDbRegAppTableRecord
2
ACAD
70
0
0
ENDTAB
0
TABLE
2
DIMSTYLE
5
A
100
AcDbSymbolTable
70
1
0
ENDTAB
0
TABLE
2
BLOCK_RECORD
5
1
100
AcDbSymbolTable
70
1
0
BLOCK_RECORD
5
1F
100
AcDbSymbolTableRecord
100
AcDbBlockTableRecord
2
*MODEL_SPACE
0
BLOCK_RECORD
5
1B
100
AcDbSymbolTableRecord
100
AcDbBlockTableRecord
2
*PAPER_SPACE
0
ENDTAB
0
ENDSEC
0
SECTION
2
BLOCKS
0
BLOCK
5
20
100
AcDbEntity
100
AcDbBlockBegin
2
*MODEL_SPACE
0
ENDBLK
5
21
100
AcDbEntity
100
AcDbBlockEnd
0
BLOCK
5
1C
100
AcDbEntity
100
AcDbBlockBegin
2
*PAPER_SPACE
0
ENDBLK
5
1D
100
AcDbEntity
100
AcDbBlockEnd
0
ENDSEC
0
SECTION
2
ENTITIES
0
LWPOLYLINE
5
100
100
AcDbEntity
8
0
100
AcDbPolyline
90
6
70
1
43
0.0
10
14.685688928681547
20
87.199999999998028
42
0.41421356237309365
10
6.68568892868179
20
79.1999999999979
10
6.6856889286827128
20
24.428503240599447
42
0.77541474554821888
10
21.693592148174133
20
20.56983864436414
10
51.875599321929784
20
75.384811004753786
42
0.56855843127078032
10
44.843932881422496
20
87.199999999998838
0
LWPOLYLINE
5
101
100
AcDbEntity
8
0
100
AcDbPolyline
90
6
70
1
43
0.0
10
-7.1250000000000018
20
-13.611115613699594
42
0.47582316077480097
10
-7.9679648368139144
20
-12.925870361608986
10
-38.590548619541288
20
-19.314754747959089
42
0.81289897533701461
10
-38.590548619540193
20
-20.685245252035642
10
-7.9679648367571296
20
-27.074129638345962
42
0.4758231607743042
10
-7.125
20
-26.388884386300386
0
CIRCLE
5
102
100
AcDbEntity
8
0
100
AcDbCircle
10
65.369500000000016
20
-20
30
0
40
9.5070000000000014
210
0
220
0
230
1
0
LWPOLYLINE
5
103
100
AcDbEntity
8
0
100
AcDbPolyline
90
6
70
1
43
0.0
10
-44.843932881422717
20
87.199999999999349
42
0.56856507474780937
10
-51.875522703448866
20
75.384669794791108
10
-22.156589822024458
20
20.613173035393224
42
0.77788894270974451
10
-7.125
20
24.428503240599593
10
-7.1250000000000027
20
79.19999999999996
42
0.41421356237309598
10
-15.125000000000025
20
87.199999999999989
0
CIRCLE
5
104
100
AcDbEntity
8
0
100
AcDbCircle
10
-65.369500000000002
20
-20.000000000000004
30
0
40
9.5070000000000014
210
0
220
0
230
1
0
LWPOLYLINE
5
105
100
AcDbEntity
8
0
100
AcDbPolyline
90
6
70
1
43
0.0
10
7.9679648367571234
20
-12.925870361654015
42
0.47582316077430165
10
7.125
20
-13.611115613699594
10
7.1249999999999947
20
-26.388884386300386
42
0.47582316077427195
10
7.9679648367539047
20
-27.074129638343418
10
38.590548619494783
20
-20.685245252045586
42
0.81289897533774191
10
38.590548619494861
20
-19.314754747954428
0
CIRCLE
5
106
100
AcDbEntity
8
0
100
AcDbCircle
10
80.369499999999988
20
-19.999999999999996
30
0
40
1.955000000000009
210
0
220
0
230
1
0
CIRCLE
5
107
100
AcDbEntity
8
0
100
AcDbCircle
10
50.369500000000016
20
-20
30
0
40
1.9550000000000001
210
0
220
0
230
1
0
CIRCLE
5
108
100
AcDbEntity
8
0
100
AcDbCircle
10
-50.369500000000002
20
-20.000000000000004
30
0
40
1.9550000000000001
210
0
220
0
230
1
0
CIRCLE
5
109
100
AcDbEntity
8
0
100
AcDbCircle
10
-80.369499999999988
20
-20
30
0
40
1.9550000000000001
210
0
220
0
230
1
0
LINE
5
110
100
AcDbEntity
8
0
100
AcDbLine
10
58.179295943884533
20
37.075103485860225
30
0
11
73.784285066906236
21
65.416062070870055
31
0
0
ARC
5
111
100
AcDbEntity
8
0
100
AcDbCircle
10
65.024406042541642
20
70.239392816164511
30
0
40
10.000000000000275
210
-0
220
0
230
1
100
AcDbArc
50
331.16211002615847
51
360
0
LINE
5
112
100
AcDbEntity
8
0
100
AcDbLine
10
75.024406042541912
20
70.239392816164468
30
0
11
75.024406042541912
21
131.1999999999785
31
0
0
ARC
5
113
100
AcDbEntity
8
0
100
AcDbCircle
10
65.024406042541912
20
131.19999999997847
30
0
40
10
210
0
220
-0
230
1
100
AcDbArc
50
0
51
90.000000000001634
0
LINE
5
114
100
AcDbEntity
8
0
100
AcDbLine
10
65.024406042541628
20
141.19999999997847
30
0
11
57.48859823720052
21
141.19999999997816
31
0
0
SPLINE
5
115
100
AcDbEntity
8
0
100
AcDbSpline
70
0
71
3
72
104
73
100
74
0
42
0.000000001
43
0.0000000001
44
0.0000000001
40
-17.067066327398425
40
-17.067066327398425
40
-17.067066327398425
40
-17.067066327398425
40
-16.931836252788635
40
-16.931836252788635
40
-16.931836252788635
40
-15.800363318795849
40
-15.800363318795849
40
-15.800363318795849
40
-15.238796211899274
40
-15.238796211899274
40
-15.238796211899274
40
-14.811858666483802
40
-14.811858666483802
40
-14.811858666483802
40
-14.599535843989973
40
-14.599535843989973
40
-14.599535843989973
40
-14.169073857010813
40
-14.169073857010813
40
-14.169073857010813
40
-14.008635721706426
40
-14.008635721706426
40
-14.008635721706426
40
-13.607023922656891
40
-13.607023922656891
40
-13.607023922656891
40
-13.406218017620919
40
-13.406218017620919
40
-13.406218017620919
40
-13.205417782730857
40
-13.205417782730857
40
-13.205417782730857
40
-12.961164013865389
40
-12.961164013865389
40
-12.961164013865389
40
-12.59306349901685
40
-12.59306349901685
40
-12.59306349901685
40
-12.105089782144377
40
-12.105089782144377
40
-12.105089782144377
40
-11.470723950210163
40
-11.470723950210163
40
-11.470723950210163
40
-10.646048368695684
40
-10.646048368695684
40
-10.646048368695684
40
-9.5739701127268617
40
-9.5739701127268617
40
-9.5739701127268617
40
-8.1802683799673925
40
-8.1802683799673925
40
-8.1802683799673925
40
-6.697331005460053
40
-6.697331005460053
40
-6.697331005460053
40
-5.2118543705903804
40
-5.2118543705903804
40
-5.2118543705903804
40
-4.4691185577471284
40
-4.4691185577471284
40
-4.4691185577471284
40
-3.7263827449038764
40
-3.7263827449038764
40
-3.7263827449038764
40
-3.5257565168348326
40
-3.5257565168348326
40
-3.5257565168348326
40
-3.251550783289856
40
-3.251550783289856
40
-3.251550783289856
40
-2.977345049744879
40
-2.977345049744879
40
-2.977345049744879
40
-2.5733037174998818
40
-2.5733037174998818
40
-2.5733037174998818
40
-2.3466180659962115
40
-2.3466180659962115
40
-2.3466180659962115
40
-2.1199380935493064
40
-2.1199380935493064
40
-2.1199380935493064
40
-1.8660502833776036
40
-1.8660502833776036
40
-1.8660502833776036
40
-1.4521261006068273
40
-1.4521261006068273
40
-1.4521261006068273
40
-0.91402466300481822
40
-0.91402466300481822
40
-0.91402466300481822
40
-0.21449279412220623
40
-0.21449279412220623
40
-0.21449279412220623
40
0
40
0
40
0
40
0.13523007460977421
40
0.13523007460977421
40
0.13523007460977421
40
0.13523007460977421
10
57.48859823720052
20
141.19999999997816
30
0
10
57.472978730821183
20
140.74950378133809
30
0
10
57.457359224441845
20
140.29900756269799
30
0
10
57.441739718062522
20
139.84851134405793
30
0
10
57.311285395117302
20
136.08596099420501
30
0
10
57.153548829737595
20
132.32408271132871
30
0
10
56.970034734584672
20
128.56337758688736
30
0
10
56.878953701901935
20
126.6968784165431
30
0
10
56.781529430715153
20
124.83062013734111
30
0
10
56.677998203125355
20
122.96465303712559
30
0
10
56.599287324031408
20
121.54602878010166
30
0
10
56.517081441205896
20
120.1281358109825
30
0
10
56.431393074733293
20
118.70925133028285
30
0
10
56.394231438836016
20
118.09390445622495
30
0
10
56.296117099107192
20
117.47655395613023
30
0
10
56.141140577224469
20
116.87889295040014
30
0
10
55.82816184615173
20
115.6719024920221
30
0
10
55.257405074579538
20
114.48690750111302
30
0
10
54.509548364706319
20
113.48583140486718
30
0
10
54.22955343617113
20
113.11103202642188
30
0
10
53.920069534176285
20
112.7529543104899
30
0
10
53.586358698265812
20
112.41901008726927
30
0
10
52.750516050317991
20
111.58258287614177
30
0
10
51.7697839998661
20
110.90281569236342
30
0
10
50.694868729300531
20
110.41553705938412
30
0
10
50.158017544196497
20
110.17217265778513
30
0
10
49.595238858593412
20
109.9764192025374
30
0
10
49.024587508006483
20
109.83473716567296
30
0
10
48.453013800413544
20
109.69282612484805
30
0
10
47.874107278551762
20
109.60430655057444
30
0
10
47.291248669717092
20
109.56910692526674
30
0
10
46.479654014947016
20
109.5200936185803
30
0
10
45.668324638871987
20
109.47221634009422
30
0
10
44.856742756415997
20
109.42546637549391
30
0
10
43.633656421524307
20
109.35501231029689
30
0
10
42.410384358099414
20
109.28714232179286
30
0
10
41.186942826055571
20
109.22192893199563
30
0
10
39.565083757316486
20
109.13547859916349
30
0
10
37.94292152049433
20
109.05369730103962
30
0
10
36.320497082083527
20
108.97673586070935
30
0
10
34.211346150935157
20
108.87668602806869
30
0
10
32.101740556057841
20
108.78478310721627
30
0
10
29.991777699792316
20
108.70130741834915
30
0
10
27.248827764075266
20
108.59278909314162
30
0
10
24.50524958657493
20
108.49851704961262
30
0
10
21.761272731316513
20
108.41896533587516
30
0
10
18.194106592685941
20
108.31554821740694
30
0
10
14.626215582635769
20
108.23702138662293
30
0
10
11.058127757438587
20
108.18403346550207
30
0
10
6.4196217237115762
20
108.11514928891368
30
0
10
1.7806787506483261
20
108.08946470300299
30
0
10
-2.8575520989133896
20
108.10731400740866
30
0
10
-7.7927557994870522
20
108.12630615247707
30
0
10
-12.727284898530657
20
108.19460080859878
30
0
10
-17.659911622326831
20
108.31108973327389
30
0
10
-22.60098341550302
20
108.42777809672793
30
0
10
-27.541391585795338
20
108.59286150073571
30
0
10
-32.479882872308366
20
108.80368175336871
30
0
10
-34.949130028946492
20
108.90909194429027
30
0
10
-37.417961067128132
20
109.025912892173
30
0
10
-39.886345911970842
20
109.15366150940302
30
0
10
-42.354742629141775
20
109.2814107410727
30
0
10
-44.819003532108567
20
109.41986506528767
30
0
10
-47.290248669717087
20
109.56910692526674
30
0
10
-47.87256140689793
20
109.60427358464172
30
0
10
-48.455136341662438
20
109.69373373218946
30
0
10
-49.0215274178097
20
109.83422592412327
30
0
10
-49.794741769884567
20
110.02602022267864
30
0
10
-50.558548843777238
20
110.31936656552452
30
0
10
-51.26846755344252
20
110.69907112827553
30
0
10
-51.980776268913047
20
111.08005400091882
30
0
10
-52.636598593132987
20
111.54259644063757
30
0
10
-53.234642339159628
20
112.08490051860898
30
0
10
-54.113800191152571
20
112.88211793202395
30
0
10
-54.847730960753118
20
113.84077196936148
30
0
10
-55.386390253213484
20
114.89547962176863
30
0
10
-55.688464760178242
20
115.48694866082967
30
0
10
-55.932373275108446
20
116.11567252627927
30
0
10
-56.107483947443988
20
116.75627061991194
30
0
10
-56.282914394251733
20
117.39803852755166
30
0
10
-56.390669785595541
20
118.05148691251902
30
0
10
-56.430393074734759
20
118.70925133030769
30
0
10
-56.481328521074971
20
119.552674041053
30
0
10
-56.531057346503566
20
120.39615420406939
30
0
10
-56.579555090681517
20
121.2397025915588
30
0
10
-56.65862301899503
20
122.61497528849631
30
0
10
-56.734417663801374
20
123.99042160731915
30
0
10
-56.806837769035596
20
125.36602028420928
30
0
10
-56.900983878381609
20
127.15429804260089
30
0
10
-56.989426387208901
20
128.94284038898613
30
0
10
-57.071969905291525
20
130.73159869691452
30
0
10
-57.179276428074374
20
133.05698339799554
30
0
10
-57.276611605246892
20
135.38274808116122
30
0
10
-57.363621220217723
20
137.70878308517774
30
0
10
-57.390300427481108
20
138.42200046919766
30
0
10
-57.416009478324845
20
139.13524427803674
30
0
10
-57.44073971806322
20
139.84851134407853
30
0
10
-57.456359224442544
20
140.29900756271857
30
0
10
-57.47197873082186
20
140.74950378135861
30
0
10
-57.487598237201176
20
141.19999999999862
30
0
0
LINE
5
116
100
AcDbEntity
8
0
100
AcDbLine
10
-57.487598237201176
20
141.19999999999862
30
0
11
-64.975593957457832
21
141.19999999999999
31
0
0
ARC
5
117
100
AcDbEntity
8
0
100
AcDbCircle
10
-64.975593957458088
20
131.19999999999999
30
0
40
10.000000000000018
210
0
220
-0
230
1
100
AcDbArc
50
89.999999999998536
51
180
0
LINE
5
118
100
AcDbEntity
8
0
100
AcDbLine
10
-74.975593957458102
20
131.20000000000002
30
0
11
-74.975593957458088
21
70.172624904101951
31
0
0
ARC
5
119
100
AcDbEntity
8
0
100
AcDbCircle
10
-64.975593957458329
20
70.172624904101937
30
0
40
9.9999999999997602
210
0
220
0
230
1
100
AcDbArc
50
180
51
208.48419204159498
0
LINE
5
120
100
AcDbEntity
8
0
100
AcDbLine
10
-73.765081234997325
20
65.403462147603136
30
0
11
-58.271943304048222
21
36.849867798643089
31
0
0
ARC
5
121
100
AcDbEntity
8
0
100
AcDbCircle
10
-67.061430581587459
20
32.080705042144174
30
0
40
10.000000000000014
210
0
220
0
230
1
100
AcDbArc
50
-44.999999999998835
51
28.484192041594909
0
LINE
5
122
100
AcDbEntity
8
0
100
AcDbLine
10
-59.990362769721827
20
25.00963723027883
30
0
11
-87.071067811865106
21
-2.0710678118655679
31
0
0
ARC
5
123
100
AcDbEntity
8
0
100
AcDbCircle
10
-79.999999999999531
20
-9.142135623730864
30
0
40
9.9999999999999449
210
0
220
0
230
1
100
AcDbArc
50
135.00000000000117
51
180
0
LINE
5
124
100
AcDbEntity
8
0
100
AcDbLine
10
-89.99999999999946
20
-9.1421356237307503
30
0
11
-90.000000000000014
21
-39.999999999999986
31
0
0
ARC
5
125
100
AcDbEntity
8
0
100
AcDbCircle
10
-84.999999999999986
20
-40
30
0
40
5.0000000000000355
210
0
220
0
230
1
100
AcDbArc
50
180
51
269.99999999999983
0
LINE
5
126
100
AcDbEntity
8
0
100
AcDbLine
10
-85
20
-45.000000000000036
30
0
11
-55.000001174836783
21
-45
31
0
0
ARC
5
127
100
AcDbEntity
8
0
100
AcDbCircle
10
-55.000001174837195
20
-39.999999197712725
30
0
40
5.0000008022872766
210
-0
220
0
230
1
100
AcDbArc
50
270.00000000000472
51
359.99998725044065
0
ARC
5
128
100
AcDbEntity
8
0
100
AcDbCircle
10
-45.000000372550026
20
-39.999999999999957
30
0
40
4.9999999999999556
210
0
220
-0
230
1
100
AcDbArc
50
90
51
180.00000352019893
0
LINE
5
129
100
AcDbEntity
8
0
100
AcDbLine
10
-45.000000372550026
20
-35.000000000000007
30
0
11
45.000000372550026
21
-35
31
0
0
ARC
5
130
100
AcDbEntity
8
0
100
AcDbCircle
10
45.000000372550019
20
-39.999999999999993
30
0
40
4.9999999999999911
210
0
220
-0
230
1
100
AcDbArc
50
0
51
89.999999999999929
0
ARC
5
131
100
AcDbEntity
8
0
100
AcDbCircle
10
55.000000372550019
20
-39.999999999999993
30
0
40
5.0000000000000089
210
0
220
0
230
1
100
AcDbArc
50
180
51
269.99999999999972
0
LINE
5
132
100
AcDbEntity
8
0
100
AcDbLine
10
55.000000372549998
20
-45
30
0
11
84.999999999999986
21
-44.999999999999986
31
0
0
ARC
5
133
100
AcDbEntity
8
0
100
AcDbCircle
10
84.999999999999972
20
-40.000000000000071
30
0
40
4.9999999999999112
210
-0
220
0
230
1
100
AcDbArc
50
-89.999999999999844
51
0
0
LINE
5
134
100
AcDbEntity
8
0
100
AcDbLine
10
89.999999999999886
20
-40.000000000000057
30
0
11
90
21
-9.0933235386471267
31
0
0
ARC
5
135
100
AcDbEntity
8
0
100
AcDbCircle
10
79.999999999999901
20
-9.0933235386471161
30
0
40
10.000000000000098
210
-0
220
0
230
1
100
AcDbArc
50
0
51
45.000000000000185
0
LINE
5
136
100
AcDbEntity
8
0
100
AcDbLine
10
87.071067811865419
20
-2.0222557267815553
30
0
11
59.868107156383402
21
25.18070492870045
31
0
0
ARC
5
137
100
AcDbEntity
8
0
100
AcDbCircle
10
66.939174968248835
20
32.251772740565904
30
0
40
9.9999999999999538
210
0
220
0
230
1
100
AcDbArc
50
151.16211002615833
51
225.00000000000006
0
ENDSEC
0
SECTION
2
OBJECTS
0
DICTIONARY
5
C
100
AcDbDictionary
3
ACAD_GROUP
350
D
3
ACAD_MLINESTYLE
350
17
0
DICTIONARY
5
D
100
AcDbDictionary
0
DICTIONARY
5
1A
330
C
100
AcDbDictionary
0
DICTIONARY
5
17
100
AcDbDictionary
0
ENDSEC
0
EOF
