0
SECTION
2
HEADER
9
$INSUNITS
70
4
9
$ACADVER
1
AC1014
9
$HANDSEED
5
FFFF
0
ENDSEC
0
SECTION
2
TABLES
0
TABLE
2
VPORT
5
8
100
AcDbSymbolTable
0
ENDTAB
0
TABLE
2
LTYPE
5
5
100
AcDbSymbolTable
0
LTYPE
5
14
100
AcDbSymbolTableRecord
100
AcDbLinetypeTableRecord
2
BYBLOCK
70
0
0
LTYPE
5
15
100
AcDbSymbolTableRecord
100
AcDbLinetypeTableRecord
2
BYLAYER
70
0
0
ENDTAB
0
TABLE
2
LAYER
5
2
100
AcDbSymbolTable
70
2
0
LAYER
5
50
100
AcDbSymbolTableRecord
100
AcDbLayerTableRecord
2
0
70
0
6
CONTINUOUS
0
ENDTAB
0
TABLE
2
STYLE
5
3
100
AcDbSymbolTable
70
1
0
STYLE
5
11
100
AcDbSymbolTableRecord
100
AcDbTextStyleTableRecord
2
STANDARD
70
0
0
ENDTAB
0
TABLE
2
VIEW
5
6
100
AcDbSymbolTable
70
0
0
ENDTAB
0
TABLE
2
UCS
5
7
100
AcDbSymbolTable
70
0
0
ENDTAB
0
TABLE
2
APPID
5
9
100
AcDbSymbolTable
70
2
0
APPID
5
12
100
AcDbSymbolTableRecord
100
AcDbRegAppTableRecord
2
ACAD
70
0
0
ENDTAB
0
TABLE
2
DIMSTYLE
5
A
100
AcDbSymbolTable
70
1
0
ENDTAB
0
TABLE
2
BLOCK_RECORD
5
1
100
AcDbSymbolTable
70
1
0
BLOCK_RECORD
5
1F
100
AcDbSymbolTableRecord
100
AcDbBlockTableRecord
2
*MODEL_SPACE
0
BLOCK_RECORD
5
1B
100
AcDbSymbolTableRecord
100
AcDbBlockTableRecord
2
*PAPER_SPACE
0
ENDTAB
0
ENDSEC
0
SECTION
2
BLOCKS
0
BLOCK
5
20
100
AcDbEntity
100
AcDbBlockBegin
2
*MODEL_SPACE
0
ENDBLK
5
21
100
AcDbEntity
100
AcDbBlockEnd
0
BLOCK
5
1C
100
AcDbEntity
100
AcDbBlockBegin
2
*PAPER_SPACE
0
ENDBLK
5
1D
100
AcDbEntity
100
AcDbBlockEnd
0
ENDSEC
0
SECTION
2
ENTITIES
0
SPLINE
5
100
100
AcDbEntity
8
0
100
AcDbSpline
70
0
71
3
72
12
73
8
74
0
42
0.000000001
43
0.0000000001
44
0.0000000001
40
-0.11729540944627266
40
-0.11729540944627266
40
-0.11729540944627266
40
-0.11729540944627266
40
-0.085527079724415811
40
-0.085527079724415811
40
-0.053272672223130452
40
-0.053272672223130452
40
0
40
0
40
0
40
0
10
-48.918324080689771
20
36.894079956240041
30
0
10
-48.856137950749961
20
36.815628037379426
30
0
10
-48.790653425459141
20
36.735831066425412
30
0
10
-48.650467654624379
20
36.576948234154905
30
0
10
-48.576374419566989
20
36.498735863045269
30
0
10
-48.371058176919533
20
36.298801325040856
30
0
10
-48.236993088562954
20
36.185573077900159
30
0
10
-48.105920416309978
20
36.081676291860248
30
0
0
SPLINE
5
101
100
AcDbEntity
8
0
100
AcDbSpline
70
0
71
3
72
12
73
8
74
0
42
0.000000001
43
0.0000000001
44
0.0000000001
40
-0.11715852243350505
40
-0.11715852243350505
40
-0.11715852243350505
40
-0.11715852243350505
40
-0.083254743862100189
40
-0.083254743862100189
40
-0.048411886804243048
40
-0.048411886804243048
40
0
40
0
40
0
40
0
10
-58.082108953016018
20
26.105487755154201
30
0
10
-58.150586897662031
20
26.187221693660248
30
0
10
-58.221726374353096
20
26.271558504140312
30
0
10
-58.372402124048534
20
26.442172703596341
30
0
10
-58.451528458310321
20
26.527741648751501
30
0
10
-58.645751858120576
20
26.726926494404331
30
0
10
-58.761254280882767
20
26.836461660872196
30
0
10
-58.872136385965533
20
26.940267650964266
30
0
0
ARC
5
102
100
AcDbEntity
8
0
100
AcDbCircle
10
-45.000000372550026
20
39.999999999999957
30
0
40
4.9999999999999467
210
0
220
0
230
1
100
AcDbArc
50
231.59735129003522
51
269.99999999999989
0
ARC
5
103
100
AcDbEntity
8
0
100
AcDbCircle
10
-45.000000372550026
20
39.999999999999957
30
0
40
4.9999999999999556
210
0
220
0
230
1
100
AcDbArc
50
180
51
218.40264870996427
0
ARC
5
104
100
AcDbEntity
8
0
100
AcDbCircle
10
-65.369500000000002
20
20.000000000000004
30
0
40
9.5070000000000014
210
0
220
-0
230
1
100
AcDbArc
50
-313.11221574852419
51
39.956790380619815
0
SPLINE
5
105
100
AcDbEntity
8
0
100
AcDbSpline
70
0
71
3
72
12
73
8
74
0
42
0.000000001
43
0.0000000001
44
0.0000000001
40
-0.11729540944628589
40
-0.11729540944628589
40
-0.11729540944628589
40
-0.11729540944628589
40
-0.085527079724424304
40
-0.085527079724424304
40
-0.053272672223134261
40
-0.053272672223134261
40
0
40
0
40
0
40
0
10
48.105920416309978
20
36.081676291860241
30
0
10
48.1843723351706
20
36.143862421800051
30
0
10
48.264169306124614
20
36.209346947090879
30
0
10
48.423052138395121
20
36.349532717925626
30
0
10
48.501264509504757
20
36.423625952983024
30
0
10
48.701199047509157
20
36.628942195630479
30
0
10
48.81442729464986
20
36.763007283987051
30
0
10
48.918324080689779
20
36.894079956240034
30
0
0
SPLINE
5
106
100
AcDbEntity
8
0
100
AcDbSpline
70
0
71
3
72
12
73
8
74
0
42
0.000000001
43
0.0000000001
44
0.0000000001
40
-0.11711849842399291
40
-0.11711849842399291
40
-0.11711849842399291
40
-0.11711849842399291
40
-0.083396136988857658
40
-0.083396136988857658
40
-0.04864306803530194
40
-0.04864306803530194
40
0
40
0
40
0
40
0
10
58.872136385965547
20
26.940267650964259
30
0
10
58.794708312886499
20
26.867780771490857
30
0
10
58.714881046605072
20
26.792562794819066
30
0
10
58.553388698497606
20
26.633356456084343
30
0
10
58.472482735899398
20
26.549869841658019
30
0
10
58.283842759580402
20
26.344627670347268
30
0
10
58.180157089227286
20
26.222516097303611
30
0
10
58.082108953016032
20
26.105487755154186
30
0
0
ARC
5
107
100
AcDbEntity
8
0
100
AcDbCircle
10
45.000000372550019
20
39.999999999999993
30
0
40
4.9999999999999947
210
-0
220
0
230
1
100
AcDbArc
50
-38.402648709964524
51
0
0
ARC
5
108
100
AcDbEntity
8
0
100
AcDbCircle
10
45.000000372550019
20
39.999999999999993
30
0
40
4.9999999999999911
210
-0
220
0
230
1
100
AcDbArc
50
270.00000000000011
51
308.40264870996458
0
ARC
5
109
100
AcDbEntity
8
0
100
AcDbCircle
10
65.369500000000016
20
20
30
0
40
9.5070000000000086
210
0
220
0
230
1
100
AcDbArc
50
-219.95679038061974
51
133.11221574852419
0
LINE
5
110
100
AcDbEntity
8
0
100
AcDbLine
10
-45.000000372550033
20
35
30
0
11
45.000000372550026
21
35
31
0
0
ARC
5
111
100
AcDbEntity
8
0
100
AcDbCircle
10
55.000000372550005
20
40
30
0
40
4.9999999999999911
210
0
220
-0
230
1
100
AcDbArc
50
89.999999999999844
51
180
0
LINE
5
112
100
AcDbEntity
8
0
100
AcDbLine
10
55.000000372550019
20
44.999999999999993
30
0
11
84.999999999999986
21
44.999999999999993
31
0
0
ARC
5
113
100
AcDbEntity
8
0
100
AcDbCircle
10
85
20
40.000000000000071
30
0
40
4.9999999999999112
210
0
220
0
230
1
100
AcDbArc
50
0
51
90.000000000000171
0
LINE
5
114
100
AcDbEntity
8
0
100
AcDbLine
10
89.999999999999915
20
40.000000000000064
30
0
11
90
21
9.1421356237310505
31
0
0
ARC
5
115
100
AcDbEntity
8
0
100
AcDbCircle
10
79.999999999999872
20
9.1421356237310807
30
0
40
10.000000000000133
210
0
220
0
230
1
100
AcDbArc
50
315.00000000000017
51
360
0
LINE
5
116
100
AcDbEntity
8
0
100
AcDbLine
10
87.071067811865461
20
2.0710678118655359
30
0
11
68.59443146289469
21
-16.405568537105125
31
0
0
ARC
5
117
100
AcDbEntity
8
0
100
AcDbCircle
10
75.665499274760151
20
-23.47663634897058
30
0
40
9.999999999999968
210
0
220
0
230
1
100
AcDbArc
50
135.00000000000003
51
215.23683067207295
0
LINE
5
118
100
AcDbEntity
8
0
100
AcDbLine
10
67.497757381429892
20
-29.246211061541469
30
0
11
88.167741893330231
21
-58.507830304375886
31
0
0
ARC
5
119
100
AcDbEntity
8
0
100
AcDbCircle
10
80
20
-64.27740501694683
30
0
40
10
210
0
220
0
230
1
100
AcDbArc
50
0
51
35.23683067207331
0
LINE
5
120
100
AcDbEntity
8
0
100
AcDbLine
10
90
20
-64.277405016946886
30
0
11
90
21
-92.697124199580415
31
0
0
ARC
5
121
100
AcDbEntity
8
0
100
AcDbCircle
10
80
20
-92.697124199580429
30
0
40
9.9999999999999822
210
0
220
0
230
1
100
AcDbArc
50
-90
51
0
0
LINE
5
122
100
AcDbEntity
8
0
100
AcDbLine
10
80
20
-102.69712419958041
30
0
11
74.412614155307665
21
-102.69712419958066
31
0
0
CIRCLE
5
123
100
AcDbEntity
8
0
100
AcDbCircle
10
-50.369500000000002
20
20.000000000000004
30
0
40
1.9550000000000001
210
0
220
0
230
1
0
LWPOLYLINE
5
124
100
AcDbEntity
8
0
100
AcDbPolyline
90
6
70
1
43
0.0
10
-7.12500000000004
20
-10.56768276400158
42
0.73164260331082565
10
-21.659193514661279
20
-5.9520229939454063
10
-46.296986250451539
20
-40.8306998310482
42
0.60822966422030567
10
-39.762792735787855
20
-53.446359601104689
10
-15.125000000000025
20
-53.446359601104675
42
0.41421356237309537
10
-7.1250000000000169
20
-45.446359601104682
0
CIRCLE
5
125
100
AcDbEntity
8
0
100
AcDbCircle
10
80.369499999999988
20
19.999999999999996
30
0
40
1.955000000000009
210
0
220
0
230
1
0
CIRCLE
5
126
100
AcDbEntity
8
0
100
AcDbCircle
10
50.369500000000016
20
20
30
0
40
1.9550000000000001
210
0
220
0
230
1
0
LWPOLYLINE
5
127
100
AcDbEntity
8
0
100
AcDbPolyline
90
6
70
1
43
0.0
10
38.590548619494861
20
19.314754747954431
42
0.81289897533773858
10
38.590548619494783
20
20.685245252045586
10
7.9679648367539047
20
27.074129638343422
42
0.47582316077427117
10
7.1249999999999947
20
26.388884386300386
10
7.1249999999999991
20
13.611115613699594
42
0.47582316077430192
10
7.9679648367571225
20
12.925870361654017
0
CIRCLE
5
128
100
AcDbEntity
8
0
100
AcDbCircle
10
-80.369499999999988
20
20
30
0
40
1.9550000000000001
210
0
220
0
230
1
0
LWPOLYLINE
5
129
100
AcDbEntity
8
0
100
AcDbPolyline
90
6
70
1
43
0.0
10
-38.590548619540186
20
20.685245252035635
42
0.81289897533701572
10
-38.590548619541288
20
19.314754747959093
10
-7.9679648368139144
20
12.925870361608986
42
0.47582316077479925
10
-7.1250000000000018
20
13.611115613699594
10
-7.1250000000000018
20
26.388884386300386
42
0.4758231607743042
10
-7.9679648367571287
20
27.074129638345962
0
LWPOLYLINE
5
130
100
AcDbEntity
8
0
100
AcDbPolyline
90
6
70
1
43
0.0
10
21.659193514664246
20
-5.9520229939447535
42
0.73164260331084452
10
7.1249999999997273
20
-10.567682764001574
10
7.1249999999997247
20
-45.446359601104682
42
0.41421356237309476
10
15.124999999999698
20
-53.44635960110466
10
39.762792735787855
20
-53.446359601104675
42
0.608229664220305
10
46.296986250451539
20
-40.830699831048214
0
ARC
5
131
100
AcDbEntity
8
0
100
AcDbCircle
10
-55.000001174837209
20
39.999999197712711
30
0
40
5.0000008022872873
210
0
220
-0
230
1
100
AcDbArc
50
9.1557023482024848e-06
51
89.999999999993165
0
LINE
5
132
100
AcDbEntity
8
0
100
AcDbLine
10
-84.999999999999986
20
45.000000000000014
30
0
11
-55.000001174836612
21
45
31
0
0
ARC
5
133
100
AcDbEntity
8
0
100
AcDbCircle
10
-85
20
40.000000000000014
30
0
40
5
210
0
220
-0
230
1
100
AcDbArc
50
89.999999999999844
51
180
0
LINE
5
134
100
AcDbEntity
8
0
100
AcDbLine
10
-90.000000000000014
20
9.2935549084858931
30
0
11
-90
21
40
31
0
0
ARC
5
135
100
AcDbEntity
8
0
100
AcDbCircle
10
-79.999999999999972
20
9.2935549084860103
30
0
40
10.000000000000044
210
0
220
0
230
1
100
AcDbArc
50
180
51
226.47306462947944
0
LINE
5
136
100
AcDbEntity
8
0
100
AcDbLine
10
-68.326739672085992
20
-15.586528966961806
30
0
11
-86.886955060155429
21
2.0430480296947096
31
0
0
ARC
5
137
100
AcDbEntity
8
0
100
AcDbCircle
10
-75.213694732240711
20
-22.837035845752286
30
0
40
9.9999999999988436
210
-0
220
0
230
1
100
AcDbArc
50
-35.236830672075918
51
46.473064629479246
0
LINE
5
138
100
AcDbEntity
8
0
100
AcDbLine
10
-88.167741893329961
20
-58.5078303043733
30
0
11
-67.045952838911674
21
-28.606610558322949
31
0
0
ARC
5
139
100
AcDbEntity
8
0
100
AcDbCircle
10
-79.999999999999744
20
-64.277405016944741
30
0
40
10.000000000000263
210
0
220
0
230
1
100
AcDbArc
50
144.76316932792434
51
180
0
LINE
5
140
100
AcDbEntity
8
0
100
AcDbLine
10
-90
20
-92.697124199586909
30
0
11
-90
21
-64.277405016944712
31
0
0
ARC
5
141
100
AcDbEntity
8
0
100
AcDbCircle
10
-80
20
-92.697124199586909
30
0
40
10
210
0
220
0
230
1
100
AcDbArc
50
180
51
270
0
LINE
5
142
100
AcDbEntity
8
0
100
AcDbLine
10
-74.413614155312601
20
-102.69712419958668
30
0
11
-80
21
-102.69712419958691
31
0
0
SPLINE
5
143
100
AcDbEntity
8
0
100
AcDbSpline
70
0
71
3
72
50
73
46
74
0
42
0.000000001
43
0.0000000001
44
0.0000000001
40
-17.014258957076109
40
-17.014258957076109
40
-17.014258957076109
40
-17.014258957076109
40
-16.356861930403525
40
-16.356861930403525
40
-15.715506990129029
40
-15.715506990129029
40
-15.071581083488853
40
-15.071581083488853
40
-14.272056421436551
40
-14.272056421436551
40
-13.46769278772512
40
-13.46769278772512
40
-12.656603003607003
40
-12.656603003607003
40
-11.844915528036012
40
-11.844915528036012
40
-11.030341231166531
40
-11.030341231166531
40
-10.218049246482192
40
-10.218049246482192
40
-9.4079365950847809
40
-9.4079365950847809
40
-8.5976788801733406
40
-8.5976788801733406
40
-7.7849168319636401
40
-7.7849168319636401
40
-6.9674618704069644
40
-6.9674618704069644
40
-6.1547299743361013
40
-6.1547299743361013
40
-5.3455475330038835
40
-5.3455475330038835
40
-4.5375347528393704
40
-4.5375347528393704
40
-3.7283569307240914
40
-3.7283569307240914
40
-2.9166486380987449
40
-2.9166486380987449
40
-2.1926703224038429
40
-2.1926703224038429
40
-1.6496865856326663
40
-1.6496865856326663
40
-0.83521098047590148
40
-0.83521098047590148
40
-0.020735375319136561
40
-0.020735375319136561
40
-0.020735375319136561
40
-0.020735375319136561
10
74.412614155307651
20
-102.69712419958063
30
0
10
73.046961557312372
20
-101.03099616681382
30
0
10
71.611679164531765
20
-99.416224338379621
30
0
10
68.642919969700472
20
-96.341085013951599
30
0
10
67.11273964734221
20
-94.878033073823289
30
0
10
63.929235200671037
20
-92.069135095963205
30
0
10
62.27395862044601
20
-90.728192417296057
30
0
10
58.453799847820989
20
-87.839449999761968
30
0
10
56.274015881311556
20
-86.324464719349905
30
0
10
51.799961496549791
20
-83.471511591100466
30
0
10
49.510570313157636
20
-82.137560393543154
30
0
10
44.816332054238316
20
-79.645442752653764
30
0
10
42.405527764952751
20
-78.48660928376421
30
0
10
37.497093478761514
20
-76.364544641986328
30
0
10
34.999449346771158
20
-75.401479785960234
30
0
10
29.934573647072785
20
-73.67689206562406
30
0
10
27.363155053819824
20
-72.914295765191014
30
0
10
22.152058080174783
20
-71.594034018585575
30
0
10
19.516727933729758
20
-71.037286553067545
30
0
10
14.211055808149219
20
-70.137404635979394
30
0
10
11.540877559233833
20
-69.793718220634787
30
0
10
6.1842399249441034
20
-69.321133648996749
30
0
10
3.4978300854927449
20
-69.192273726978812
30
0
10
-1.8730249703049304
20
-69.148765128403241
30
0
10
-4.5573828336009665
20
-69.234761451652901
30
0
10
-9.9065685563311856
20
-69.61887920424391
30
0
10
-12.58540500675065
20
-69.918993484482215
30
0
10
-17.914109310394423
20
-70.734639672467409
30
0
10
-20.561080566322644
20
-71.248730494236085
30
0
10
-25.798170798597198
20
-72.486467085006993
30
0
10
-28.38843475007835
20
-73.209181101172504
30
0
10
-33.494775552445695
20
-74.85704976021313
30
0
10
-36.010906921930271
20
-75.78188699101338
30
0
10
-40.952894531959565
20
-77.825575900099309
30
0
10
-43.376635109531136
20
-78.943670285017816
30
0
10
-48.125027977325544
20
-81.367516047094242
30
0
10
-50.467176262477935
20
-82.683305020188783
30
0
10
-54.799267378118742
20
-85.353829450549185
30
0
10
-56.799917721540169
20
-86.688894402257517
30
0
10
-60.211313529978419
20
-89.148587474841193
30
0
10
-61.647506756383066
20
-90.240302150762446
30
0
10
-65.129978575662747
20
-93.070384605472441
30
0
10
-67.130392254534769
20
-94.870089994798832
30
0
10
-70.92701307522799
20
-98.652447557860114
30
0
10
-72.721863978371616
20
-100.63314951204327
30
0
10
-74.413614155312601
20
-102.69712419958668
30
0
0
ENDSEC
0
SECTION
2
OBJECTS
0
DICTIONARY
5
C
100
AcDbDictionary
3
ACAD_GROUP
350
D
3
ACAD_MLINESTYLE
350
17
0
DICTIONARY
5
D
100
AcDbDictionary
0
DICTIONARY
5
1A
330
C
100
AcDbDictionary
0
DICTIONARY
5
17
100
AcDbDictionary
0
ENDSEC
0
EOF
