solid CSWARCMOD1D.ork_finset_wind2_19ms
facet normal 0.00000 -0.70711 0.70711
  outer loop
    vertex 575.00000 22.27386 24.39518
    vertex 705.00000 22.27386 24.39518
    vertex 685.00000 45.07875 47.20007
  endloop
endfacet
facet normal 0.00000 -0.70711 0.70711
  outer loop
    vertex 575.00000 22.27386 24.39518
    vertex 685.00000 45.07875 47.20007
    vertex 630.00000 45.07875 47.20007
  endloop
endfacet
facet normal 0.00000 0.70711 -0.70711
  outer loop
    vertex 630.00000 47.20007 45.07875
    vertex 685.00000 47.20007 45.07875
    vertex 705.00000 24.39518 22.27386
  endloop
endfacet
facet normal 0.00000 0.70711 -0.70711
  outer loop
    vertex 630.00000 47.20007 45.07875
    vertex 705.00000 24.39518 22.27386
    vertex 575.00000 24.39518 22.27386
  endloop
endfacet
facet normal 0.50583 -0.60997 -0.60997
  outer loop
    vertex 575.00000 24.39518 22.27386
    vertex 630.00000 47.20007 45.07875
    vertex 630.00000 45.07875 47.20007
  endloop
endfacet
facet normal 0.50583 -0.60997 -0.60997
  outer loop
    vertex 575.00000 24.39518 22.27386
    vertex 630.00000 45.07875 47.20007
    vertex 575.00000 22.27386 24.39518
  endloop
endfacet
facet normal -0.84985 -0.37266 -0.37266
  outer loop
    vertex 705.00000 22.27386 24.39518
    vertex 685.00000 45.07875 47.20007
    vertex 685.00000 47.20007 45.07875
  endloop
endfacet
facet normal -0.84985 -0.37266 -0.37266
  outer loop
    vertex 705.00000 22.27386 24.39518
    vertex 685.00000 47.20007 45.07875
    vertex 705.00000 24.39518 22.27386
  endloop
endfacet
facet normal 0.00000 -0.70711 -0.70711
  outer loop
    vertex 630.00000 47.20007 45.07875
    vertex 685.00000 47.20007 45.07875
    vertex 685.00000 45.07875 47.20007
  endloop
endfacet
facet normal 0.00000 -0.70711 -0.70711
  outer loop
    vertex 630.00000 47.20007 45.07875
    vertex 685.00000 45.07875 47.20007
    vertex 630.00000 45.07875 47.20007
  endloop
endfacet
facet normal -0.00000 0.70711 0.70711
  outer loop
    vertex 575.00000 22.27386 24.39518
    vertex 705.00000 22.27386 24.39518
    vertex 705.00000 24.39518 22.27386
  endloop
endfacet
facet normal 0.00000 0.70711 0.70711
  outer loop
    vertex 575.00000 22.27386 24.39518
    vertex 705.00000 24.39518 22.27386
    vertex 575.00000 24.39518 22.27386
  endloop
endfacet
facet normal 0.00000 -0.70711 -0.70711
  outer loop
    vertex 575.00000 -24.39518 22.27386
    vertex 705.00000 -24.39518 22.27386
    vertex 685.00000 -47.20007 45.07875
  endloop
endfacet
facet normal 0.00000 -0.70711 -0.70711
  outer loop
    vertex 575.00000 -24.39518 22.27386
    vertex 685.00000 -47.20007 45.07875
    vertex 630.00000 -47.20007 45.07875
  endloop
endfacet
facet normal -0.00000 0.70711 0.70711
  outer loop
    vertex 630.00000 -45.07875 47.20007
    vertex 685.00000 -45.07875 47.20007
    vertex 705.00000 -22.27386 24.39518
  endloop
endfacet
facet normal 0.00000 0.70711 0.70711
  outer loop
    vertex 630.00000 -45.07875 47.20007
    vertex 705.00000 -22.27386 24.39518
    vertex 575.00000 -22.27386 24.39518
  endloop
endfacet
facet normal 0.50583 0.60997 -0.60997
  outer loop
    vertex 575.00000 -22.27386 24.39518
    vertex 630.00000 -45.07875 47.20007
    vertex 630.00000 -47.20007 45.07875
  endloop
endfacet
facet normal 0.50583 0.60997 -0.60997
  outer loop
    vertex 575.00000 -22.27386 24.39518
    vertex 630.00000 -47.20007 45.07875
    vertex 575.00000 -24.39518 22.27386
  endloop
endfacet
facet normal -0.84985 0.37266 -0.37266
  outer loop
    vertex 705.00000 -24.39518 22.27386
    vertex 685.00000 -47.20007 45.07875
    vertex 685.00000 -45.07875 47.20007
  endloop
endfacet
facet normal -0.84985 0.37266 -0.37266
  outer loop
    vertex 705.00000 -24.39518 22.27386
    vertex 685.00000 -45.07875 47.20007
    vertex 705.00000 -22.27386 24.39518
  endloop
endfacet
facet normal 0.00000 0.70711 -0.70711
  outer loop
    vertex 630.00000 -45.07875 47.20007
    vertex 685.00000 -45.07875 47.20007
    vertex 685.00000 -47.20007 45.07875
  endloop
endfacet
facet normal 0.00000 0.70711 -0.70711
  outer loop
    vertex 630.00000 -45.07875 47.20007
    vertex 685.00000 -47.20007 45.07875
    vertex 630.00000 -47.20007 45.07875
  endloop
endfacet
facet normal 0.00000 -0.70711 0.70711
  outer loop
    vertex 575.00000 -24.39518 22.27386
    vertex 705.00000 -24.39518 22.27386
    vertex 705.00000 -22.27386 24.39518
  endloop
endfacet
facet normal 0.00000 -0.70711 0.70711
  outer loop
    vertex 575.00000 -24.39518 22.27386
    vertex 705.00000 -22.27386 24.39518
    vertex 575.00000 -22.27386 24.39518
  endloop
endfacet
facet normal 0.00000 0.70711 -0.70711
  outer loop
    vertex 575.00000 -22.27386 -24.39518
    vertex 705.00000 -22.27386 -24.39518
    vertex 685.00000 -45.07875 -47.20007
  endloop
endfacet
facet normal 0.00000 0.70711 -0.70711
  outer loop
    vertex 575.00000 -22.27386 -24.39518
    vertex 685.00000 -45.07875 -47.20007
    vertex 630.00000 -45.07875 -47.20007
  endloop
endfacet
facet normal 0.00000 -0.70711 0.70711
  outer loop
    vertex 630.00000 -47.20007 -45.07875
    vertex 685.00000 -47.20007 -45.07875
    vertex 705.00000 -24.39518 -22.27386
  endloop
endfacet
facet normal 0.00000 -0.70711 0.70711
  outer loop
    vertex 630.00000 -47.20007 -45.07875
    vertex 705.00000 -24.39518 -22.27386
    vertex 575.00000 -24.39518 -22.27386
  endloop
endfacet
facet normal 0.50583 0.60997 0.60997
  outer loop
    vertex 575.00000 -24.39518 -22.27386
    vertex 630.00000 -47.20007 -45.07875
    vertex 630.00000 -45.07875 -47.20007
  endloop
endfacet
facet normal 0.50583 0.60997 0.60997
  outer loop
    vertex 575.00000 -24.39518 -22.27386
    vertex 630.00000 -45.07875 -47.20007
    vertex 575.00000 -22.27386 -24.39518
  endloop
endfacet
facet normal -0.84985 0.37266 0.37266
  outer loop
    vertex 705.00000 -22.27386 -24.39518
    vertex 685.00000 -45.07875 -47.20007
    vertex 685.00000 -47.20007 -45.07875
  endloop
endfacet
facet normal -0.84985 0.37266 0.37266
  outer loop
    vertex 705.00000 -22.27386 -24.39518
    vertex 685.00000 -47.20007 -45.07875
    vertex 705.00000 -24.39518 -22.27386
  endloop
endfacet
facet normal -0.00000 0.70711 0.70711
  outer loop
    vertex 630.00000 -47.20007 -45.07875
    vertex 685.00000 -47.20007 -45.07875
    vertex 685.00000 -45.07875 -47.20007
  endloop
endfacet
facet normal 0.00000 0.70711 0.70711
  outer loop
    vertex 630.00000 -47.20007 -45.07875
    vertex 685.00000 -45.07875 -47.20007
    vertex 630.00000 -45.07875 -47.20007
  endloop
endfacet
facet normal 0.00000 -0.70711 -0.70711
  outer loop
    vertex 575.00000 -22.27386 -24.39518
    vertex 705.00000 -22.27386 -24.39518
    vertex 705.00000 -24.39518 -22.27386
  endloop
endfacet
facet normal 0.00000 -0.70711 -0.70711
  outer loop
    vertex 575.00000 -22.27386 -24.39518
    vertex 705.00000 -24.39518 -22.27386
    vertex 575.00000 -24.39518 -22.27386
  endloop
endfacet
facet normal -0.00000 0.70711 0.70711
  outer loop
    vertex 575.00000 24.39518 -22.27386
    vertex 705.00000 24.39518 -22.27386
    vertex 685.00000 47.20007 -45.07875
  endloop
endfacet
facet normal 0.00000 0.70711 0.70711
  outer loop
    vertex 575.00000 24.39518 -22.27386
    vertex 685.00000 47.20007 -45.07875
    vertex 630.00000 47.20007 -45.07875
  endloop
endfacet
facet normal 0.00000 -0.70711 -0.70711
  outer loop
    vertex 630.00000 45.07875 -47.20007
    vertex 685.00000 45.07875 -47.20007
    vertex 705.00000 22.27386 -24.39518
  endloop
endfacet
facet normal 0.00000 -0.70711 -0.70711
  outer loop
    vertex 630.00000 45.07875 -47.20007
    vertex 705.00000 22.27386 -24.39518
    vertex 575.00000 22.27386 -24.39518
  endloop
endfacet
facet normal 0.50583 -0.60997 0.60997
  outer loop
    vertex 575.00000 22.27386 -24.39518
    vertex 630.00000 45.07875 -47.20007
    vertex 630.00000 47.20007 -45.07875
  endloop
endfacet
facet normal 0.50583 -0.60997 0.60997
  outer loop
    vertex 575.00000 22.27386 -24.39518
    vertex 630.00000 47.20007 -45.07875
    vertex 575.00000 24.39518 -22.27386
  endloop
endfacet
facet normal -0.84985 -0.37266 0.37266
  outer loop
    vertex 705.00000 24.39518 -22.27386
    vertex 685.00000 47.20007 -45.07875
    vertex 685.00000 45.07875 -47.20007
  endloop
endfacet
facet normal -0.84985 -0.37266 0.37266
  outer loop
    vertex 705.00000 24.39518 -22.27386
    vertex 685.00000 45.07875 -47.20007
    vertex 705.00000 22.27386 -24.39518
  endloop
endfacet
facet normal 0.00000 -0.70711 0.70711
  outer loop
    vertex 630.00000 45.07875 -47.20007
    vertex 685.00000 45.07875 -47.20007
    vertex 685.00000 47.20007 -45.07875
  endloop
endfacet
facet normal 0.00000 -0.70711 0.70711
  outer loop
    vertex 630.00000 45.07875 -47.20007
    vertex 685.00000 47.20007 -45.07875
    vertex 630.00000 47.20007 -45.07875
  endloop
endfacet
facet normal 0.00000 0.70711 -0.70711
  outer loop
    vertex 575.00000 24.39518 -22.27386
    vertex 705.00000 24.39518 -22.27386
    vertex 705.00000 22.27386 -24.39518
  endloop
endfacet
facet normal 0.00000 0.70711 -0.70711
  outer loop
    vertex 575.00000 24.39518 -22.27386
    vertex 705.00000 22.27386 -24.39518
    vertex 575.00000 22.27386 -24.39518
  endloop
endfacet
endsolid CSWARCMOD1D.ork_finset_wind2_19ms
