solid CSWARCMOD1D.ork_finset_wind1_57ms
facet normal 0.00000 -0.70711 0.70711
  outer loop
    vertex 575.00000 22.27386 24.39518
    vertex 705.00000 22.27386 24.39518
    vertex 685.00000 52.35352 54.47484
  endloop
endfacet
facet normal 0.00000 -0.70711 0.70711
  outer loop
    vertex 575.00000 22.27386 24.39518
    vertex 685.00000 52.35352 54.47484
    vertex 630.00000 52.35352 54.47484
  endloop
endfacet
facet normal 0.00000 0.70711 -0.70711
  outer loop
    vertex 630.00000 54.47484 52.35352
    vertex 685.00000 54.47484 52.35352
    vertex 705.00000 24.39518 22.27386
  endloop
endfacet
facet normal 0.00000 0.70711 -0.70711
  outer loop
    vertex 630.00000 54.47484 52.35352
    vertex 705.00000 24.39518 22.27386
    vertex 575.00000 24.39518 22.27386
  endloop
endfacet
facet normal 0.61180 -0.55933 -0.55933
  outer loop
    vertex 575.00000 24.39518 22.27386
    vertex 630.00000 54.47484 52.35352
    vertex 630.00000 52.35352 54.47484
  endloop
endfacet
facet normal 0.61180 -0.55933 -0.55933
  outer loop
    vertex 575.00000 24.39518 22.27386
    vertex 630.00000 52.35352 54.47484
    vertex 575.00000 22.27386 24.39518
  endloop
endfacet
facet normal -0.90497 -0.30086 -0.30086
  outer loop
    vertex 705.00000 22.27386 24.39518
    vertex 685.00000 52.35352 54.47484
    vertex 685.00000 54.47484 52.35352
  endloop
endfacet
facet normal -0.90497 -0.30086 -0.30086
  outer loop
    vertex 705.00000 22.27386 24.39518
    vertex 685.00000 54.47484 52.35352
    vertex 705.00000 24.39518 22.27386
  endloop
endfacet
facet normal 0.00000 -0.70711 -0.70711
  outer loop
    vertex 630.00000 54.47484 52.35352
    vertex 685.00000 54.47484 52.35352
    vertex 685.00000 52.35352 54.47484
  endloop
endfacet
facet normal 0.00000 -0.70711 -0.70711
  outer loop
    vertex 630.00000 54.47484 52.35352
    vertex 685.00000 52.35352 54.47484
    vertex 630.00000 52.35352 54.47484
  endloop
endfacet
facet normal -0.00000 0.70711 0.70711
  outer loop
    vertex 575.00000 22.27386 24.39518
    vertex 705.00000 22.27386 24.39518
    vertex 705.00000 24.39518 22.27386
  endloop
endfacet
facet normal 0.00000 0.70711 0.70711
  outer loop
    vertex 575.00000 22.27386 24.39518
    vertex 705.00000 24.39518 22.27386
    vertex 575.00000 24.39518 22.27386
  endloop
endfacet
facet normal 0.00000 -0.70711 -0.70711
  outer loop
    vertex 575.00000 -24.39518 22.27386
    vertex 705.00000 -24.39518 22.27386
    vertex 685.00000 -54.47484 52.35352
  endloop
endfacet
facet normal 0.00000 -0.70711 -0.70711
  outer loop
    vertex 575.00000 -24.39518 22.27386
    vertex 685.00000 -54.47484 52.35352
    vertex 630.00000 -54.47484 52.35352
  endloop
endfacet
facet normal -0.00000 0.70711 0.70711
  outer loop
    vertex 630.00000 -52.35352 54.47484
    vertex 685.00000 -52.35352 54.47484
    vertex 705.00000 -22.27386 24.39518
  endloop
endfacet
facet normal 0.00000 0.70711 0.70711
  outer loop
    vertex 630.00000 -52.35352 54.47484
    vertex 705.00000 -22.27386 24.39518
    vertex 575.00000 -22.27386 24.39518
  endloop
endfacet
facet normal 0.61180 0.55933 -0.55933
  outer loop
    vertex 575.00000 -22.27386 24.39518
    vertex 630.00000 -52.35352 54.47484
    vertex 630.00000 -54.47484 52.35352
  endloop
endfacet
facet normal 0.61180 0.55933 -0.55933
  outer loop
    vertex 575.00000 -22.27386 24.39518
    vertex 630.00000 -54.47484 52.35352
    vertex 575.00000 -24.39518 22.27386
  endloop
endfacet
facet normal -0.90497 0.30086 -0.30086
  outer loop
    vertex 705.00000 -24.39518 22.27386
    vertex 685.00000 -54.47484 52.35352
    vertex 685.00000 -52.35352 54.47484
  endloop
endfacet
facet normal -0.90497 0.30086 -0.30086
  outer loop
    vertex 705.00000 -24.39518 22.27386
    vertex 685.00000 -52.35352 54.47484
    vertex 705.00000 -22.27386 24.39518
  endloop
endfacet
facet normal 0.00000 0.70711 -0.70711
  outer loop
    vertex 630.00000 -52.35352 54.47484
    vertex 685.00000 -52.35352 54.47484
    vertex 685.00000 -54.47484 52.35352
  endloop
endfacet
facet normal 0.00000 0.70711 -0.70711
  outer loop
    vertex 630.00000 -52.35352 54.47484
    vertex 685.00000 -54.47484 52.35352
    vertex 630.00000 -54.47484 52.35352
  endloop
endfacet
facet normal 0.00000 -0.70711 0.70711
  outer loop
    vertex 575.00000 -24.39518 22.27386
    vertex 705.00000 -24.39518 22.27386
    vertex 705.00000 -22.27386 24.39518
  endloop
endfacet
facet normal 0.00000 -0.70711 0.70711
  outer loop
    vertex 575.00000 -24.39518 22.27386
    vertex 705.00000 -22.27386 24.39518
    vertex 575.00000 -22.27386 24.39518
  endloop
endfacet
facet normal 0.00000 0.70711 -0.70711
  outer loop
    vertex 575.00000 -22.27386 -24.39518
    vertex 705.00000 -22.27386 -24.39518
    vertex 685.00000 -52.35352 -54.47484
  endloop
endfacet
facet normal 0.00000 0.70711 -0.70711
  outer loop
    vertex 575.00000 -22.27386 -24.39518
    vertex 685.00000 -52.35352 -54.47484
    vertex 630.00000 -52.35352 -54.47484
  endloop
endfacet
facet normal 0.00000 -0.70711 0.70711
  outer loop
    vertex 630.00000 -54.47484 -52.35352
    vertex 685.00000 -54.47484 -52.35352
    vertex 705.00000 -24.39518 -22.27386
  endloop
endfacet
facet normal 0.00000 -0.70711 0.70711
  outer loop
    vertex 630.00000 -54.47484 -52.35352
    vertex 705.00000 -24.39518 -22.27386
    vertex 575.00000 -24.39518 -22.27386
  endloop
endfacet
facet normal 0.61180 0.55933 0.55933
  outer loop
    vertex 575.00000 -24.39518 -22.27386
    vertex 630.00000 -54.47484 -52.35352
    vertex 630.00000 -52.35352 -54.47484
  endloop
endfacet
facet normal 0.61180 0.55933 0.55933
  outer loop
    vertex 575.00000 -24.39518 -22.27386
    vertex 630.00000 -52.35352 -54.47484
    vertex 575.00000 -22.27386 -24.39518
  endloop
endfacet
facet normal -0.90497 0.30086 0.30086
  outer loop
    vertex 705.00000 -22.27386 -24.39518
    vertex 685.00000 -52.35352 -54.47484
    vertex 685.00000 -54.47484 -52.35352
  endloop
endfacet
facet normal -0.90497 0.30086 0.30086
  outer loop
    vertex 705.00000 -22.27386 -24.39518
    vertex 685.00000 -54.47484 -52.35352
    vertex 705.00000 -24.39518 -22.27386
  endloop
endfacet
facet normal -0.00000 0.70711 0.70711
  outer loop
    vertex 630.00000 -54.47484 -52.35352
    vertex 685.00000 -54.47484 -52.35352
    vertex 685.00000 -52.35352 -54.47484
  endloop
endfacet
facet normal 0.00000 0.70711 0.70711
  outer loop
    vertex 630.00000 -54.47484 -52.35352
    vertex 685.00000 -52.35352 -54.47484
    vertex 630.00000 -52.35352 -54.47484
  endloop
endfacet
facet normal 0.00000 -0.70711 -0.70711
  outer loop
    vertex 575.00000 -22.27386 -24.39518
    vertex 705.00000 -22.27386 -24.39518
    vertex 705.00000 -24.39518 -22.27386
  endloop
endfacet
facet normal 0.00000 -0.70711 -0.70711
  outer loop
    vertex 575.00000 -22.27386 -24.39518
    vertex 705.00000 -24.39518 -22.27386
    vertex 575.00000 -24.39518 -22.27386
  endloop
endfacet
facet normal -0.00000 0.70711 0.70711
  outer loop
    vertex 575.00000 24.39518 -22.27386
    vertex 705.00000 24.39518 -22.27386
    vertex 685.00000 54.47484 -52.35352
  endloop
endfacet
facet normal 0.00000 0.70711 0.70711
  outer loop
    vertex 575.00000 24.39518 -22.27386
    vertex 685.00000 54.47484 -52.35352
    vertex 630.00000 54.47484 -52.35352
  endloop
endfacet
facet normal 0.00000 -0.70711 -0.70711
  outer loop
    vertex 630.00000 52.35352 -54.47484
    vertex 685.00000 52.35352 -54.47484
    vertex 705.00000 22.27386 -24.39518
  endloop
endfacet
facet normal 0.00000 -0.70711 -0.70711
  outer loop
    vertex 630.00000 52.35352 -54.47484
    vertex 705.00000 22.27386 -24.39518
    vertex 575.00000 22.27386 -24.39518
  endloop
endfacet
facet normal 0.61180 -0.55933 0.55933
  outer loop
    vertex 575.00000 22.27386 -24.39518
    vertex 630.00000 52.35352 -54.47484
    vertex 630.00000 54.47484 -52.35352
  endloop
endfacet
facet normal 0.61180 -0.55933 0.55933
  outer loop
    vertex 575.00000 22.27386 -24.39518
    vertex 630.00000 54.47484 -52.35352
    vertex 575.00000 24.39518 -22.27386
  endloop
endfacet
facet normal -0.90497 -0.30086 0.30086
  outer loop
    vertex 705.00000 24.39518 -22.27386
    vertex 685.00000 54.47484 -52.35352
    vertex 685.00000 52.35352 -54.47484
  endloop
endfacet
facet normal -0.90497 -0.30086 0.30086
  outer loop
    vertex 705.00000 24.39518 -22.27386
    vertex 685.00000 52.35352 -54.47484
    vertex 705.00000 22.27386 -24.39518
  endloop
endfacet
facet normal 0.00000 -0.70711 0.70711
  outer loop
    vertex 630.00000 52.35352 -54.47484
    vertex 685.00000 52.35352 -54.47484
    vertex 685.00000 54.47484 -52.35352
  endloop
endfacet
facet normal 0.00000 -0.70711 0.70711
  outer loop
    vertex 630.00000 52.35352 -54.47484
    vertex 685.00000 54.47484 -52.35352
    vertex 630.00000 54.47484 -52.35352
  endloop
endfacet
facet normal 0.00000 0.70711 -0.70711
  outer loop
    vertex 575.00000 24.39518 -22.27386
    vertex 705.00000 24.39518 -22.27386
    vertex 705.00000 22.27386 -24.39518
  endloop
endfacet
facet normal 0.00000 0.70711 -0.70711
  outer loop
    vertex 575.00000 24.39518 -22.27386
    vertex 705.00000 22.27386 -24.39518
    vertex 575.00000 22.27386 -24.39518
  endloop
endfacet
endsolid CSWARCMOD1D.ork_finset_wind1_57ms
