solid CSWARCMOD1D.ork_finset_wind1_57ms
facet normal 0.00000 -0.70711 0.70711
  outer loop
    vertex 575.00000 22.27386 24.39518
    vertex 705.00000 22.27386 24.39518
    vertex 685.00000 47.61646 49.73778
  endloop
endfacet
facet normal 0.00000 -0.70711 0.70711
  outer loop
    vertex 575.00000 22.27386 24.39518
    vertex 685.00000 47.61646 49.73778
    vertex 630.00000 47.61646 49.73778
  endloop
endfacet
facet normal 0.00000 0.70711 -0.70711
  outer loop
    vertex 630.00000 49.73778 47.61646
    vertex 685.00000 49.73778 47.61646
    vertex 705.00000 24.39518 22.27386
  endloop
endfacet
facet normal 0.00000 0.70711 -0.70711
  outer loop
    vertex 630.00000 49.73778 47.61646
    vertex 705.00000 24.39518 22.27386
    vertex 575.00000 24.39518 22.27386
  endloop
endfacet
facet normal 0.54595 -0.59243 -0.59243
  outer loop
    vertex 575.00000 24.39518 22.27386
    vertex 630.00000 49.73778 47.61646
    vertex 630.00000 47.61646 49.73778
  endloop
endfacet
facet normal 0.54595 -0.59243 -0.59243
  outer loop
    vertex 575.00000 24.39518 22.27386
    vertex 630.00000 47.61646 49.73778
    vertex 575.00000 22.27386 24.39518
  endloop
endfacet
facet normal -0.87324 -0.34457 -0.34457
  outer loop
    vertex 705.00000 22.27386 24.39518
    vertex 685.00000 47.61646 49.73778
    vertex 685.00000 49.73778 47.61646
  endloop
endfacet
facet normal -0.87324 -0.34457 -0.34457
  outer loop
    vertex 705.00000 22.27386 24.39518
    vertex 685.00000 49.73778 47.61646
    vertex 705.00000 24.39518 22.27386
  endloop
endfacet
facet normal 0.00000 -0.70711 -0.70711
  outer loop
    vertex 630.00000 49.73778 47.61646
    vertex 685.00000 49.73778 47.61646
    vertex 685.00000 47.61646 49.73778
  endloop
endfacet
facet normal 0.00000 -0.70711 -0.70711
  outer loop
    vertex 630.00000 49.73778 47.61646
    vertex 685.00000 47.61646 49.73778
    vertex 630.00000 47.61646 49.73778
  endloop
endfacet
facet normal -0.00000 0.70711 0.70711
  outer loop
    vertex 575.00000 22.27386 24.39518
    vertex 705.00000 22.27386 24.39518
    vertex 705.00000 24.39518 22.27386
  endloop
endfacet
facet normal 0.00000 0.70711 0.70711
  outer loop
    vertex 575.00000 22.27386 24.39518
    vertex 705.00000 24.39518 22.27386
    vertex 575.00000 24.39518 22.27386
  endloop
endfacet
facet normal 0.00000 -0.70711 -0.70711
  outer loop
    vertex 575.00000 -24.39518 22.27386
    vertex 705.00000 -24.39518 22.27386
    vertex 685.00000 -49.73778 47.61646
  endloop
endfacet
facet normal 0.00000 -0.70711 -0.70711
  outer loop
    vertex 575.00000 -24.39518 22.27386
    vertex 685.00000 -49.73778 47.61646
    vertex 630.00000 -49.73778 47.61646
  endloop
endfacet
facet normal -0.00000 0.70711 0.70711
  outer loop
    vertex 630.00000 -47.61646 49.73778
    vertex 685.00000 -47.61646 49.73778
    vertex 705.00000 -22.27386 24.39518
  endloop
endfacet
facet normal 0.00000 0.70711 0.70711
  outer loop
    vertex 630.00000 -47.61646 49.73778
    vertex 705.00000 -22.27386 24.39518
    vertex 575.00000 -22.27386 24.39518
  endloop
endfacet
facet normal 0.54595 0.59243 -0.59243
  outer loop
    vertex 575.00000 -22.27386 24.39518
    vertex 630.00000 -47.61646 49.73778
    vertex 630.00000 -49.73778 47.61646
  endloop
endfacet
facet normal 0.54595 0.59243 -0.59243
  outer loop
    vertex 575.00000 -22.27386 24.39518
    vertex 630.00000 -49.73778 47.61646
    vertex 575.00000 -24.39518 22.27386
  endloop
endfacet
facet normal -0.87324 0.34457 -0.34457
  outer loop
    vertex 705.00000 -24.39518 22.27386
    vertex 685.00000 -49.73778 47.61646
    vertex 685.00000 -47.61646 49.73778
  endloop
endfacet
facet normal -0.87324 0.34457 -0.34457
  outer loop
    vertex 705.00000 -24.39518 22.27386
    vertex 685.00000 -47.61646 49.73778
    vertex 705.00000 -22.27386 24.39518
  endloop
endfacet
facet normal 0.00000 0.70711 -0.70711
  outer loop
    vertex 630.00000 -47.61646 49.73778
    vertex 685.00000 -47.61646 49.73778
    vertex 685.00000 -49.73778 47.61646
  endloop
endfacet
facet normal 0.00000 0.70711 -0.70711
  outer loop
    vertex 630.00000 -47.61646 49.73778
    vertex 685.00000 -49.73778 47.61646
    vertex 630.00000 -49.73778 47.61646
  endloop
endfacet
facet normal 0.00000 -0.70711 0.70711
  outer loop
    vertex 575.00000 -24.39518 22.27386
    vertex 705.00000 -24.39518 22.27386
    vertex 705.00000 -22.27386 24.39518
  endloop
endfacet
facet normal 0.00000 -0.70711 0.70711
  outer loop
    vertex 575.00000 -24.39518 22.27386
    vertex 705.00000 -22.27386 24.39518
    vertex 575.00000 -22.27386 24.39518
  endloop
endfacet
facet normal 0.00000 0.70711 -0.70711
  outer loop
    vertex 575.00000 -22.27386 -24.39518
    vertex 705.00000 -22.27386 -24.39518
    vertex 685.00000 -47.61646 -49.73778
  endloop
endfacet
facet normal 0.00000 0.70711 -0.70711
  outer loop
    vertex 575.00000 -22.27386 -24.39518
    vertex 685.00000 -47.61646 -49.73778
    vertex 630.00000 -47.61646 -49.73778
  endloop
endfacet
facet normal 0.00000 -0.70711 0.70711
  outer loop
    vertex 630.00000 -49.73778 -47.61646
    vertex 685.00000 -49.73778 -47.61646
    vertex 705.00000 -24.39518 -22.27386
  endloop
endfacet
facet normal 0.00000 -0.70711 0.70711
  outer loop
    vertex 630.00000 -49.73778 -47.61646
    vertex 705.00000 -24.39518 -22.27386
    vertex 575.00000 -24.39518 -22.27386
  endloop
endfacet
facet normal 0.54595 0.59243 0.59243
  outer loop
    vertex 575.00000 -24.39518 -22.27386
    vertex 630.00000 -49.73778 -47.61646
    vertex 630.00000 -47.61646 -49.73778
  endloop
endfacet
facet normal 0.54595 0.59243 0.59243
  outer loop
    vertex 575.00000 -24.39518 -22.27386
    vertex 630.00000 -47.61646 -49.73778
    vertex 575.00000 -22.27386 -24.39518
  endloop
endfacet
facet normal -0.87324 0.34457 0.34457
  outer loop
    vertex 705.00000 -22.27386 -24.39518
    vertex 685.00000 -47.61646 -49.73778
    vertex 685.00000 -49.73778 -47.61646
  endloop
endfacet
facet normal -0.87324 0.34457 0.34457
  outer loop
    vertex 705.00000 -22.27386 -24.39518
    vertex 685.00000 -49.73778 -47.61646
    vertex 705.00000 -24.39518 -22.27386
  endloop
endfacet
facet normal -0.00000 0.70711 0.70711
  outer loop
    vertex 630.00000 -49.73778 -47.61646
    vertex 685.00000 -49.73778 -47.61646
    vertex 685.00000 -47.61646 -49.73778
  endloop
endfacet
facet normal 0.00000 0.70711 0.70711
  outer loop
    vertex 630.00000 -49.73778 -47.61646
    vertex 685.00000 -47.61646 -49.73778
    vertex 630.00000 -47.61646 -49.73778
  endloop
endfacet
facet normal 0.00000 -0.70711 -0.70711
  outer loop
    vertex 575.00000 -22.27386 -24.39518
    vertex 705.00000 -22.27386 -24.39518
    vertex 705.00000 -24.39518 -22.27386
  endloop
endfacet
facet normal 0.00000 -0.70711 -0.70711
  outer loop
    vertex 575.00000 -22.27386 -24.39518
    vertex 705.00000 -24.39518 -22.27386
    vertex 575.00000 -24.39518 -22.27386
  endloop
endfacet
facet normal -0.00000 0.70711 0.70711
  outer loop
    vertex 575.00000 24.39518 -22.27386
    vertex 705.00000 24.39518 -22.27386
    vertex 685.00000 49.73778 -47.61646
  endloop
endfacet
facet normal 0.00000 0.70711 0.70711
  outer loop
    vertex 575.00000 24.39518 -22.27386
    vertex 685.00000 49.73778 -47.61646
    vertex 630.00000 49.73778 -47.61646
  endloop
endfacet
facet normal 0.00000 -0.70711 -0.70711
  outer loop
    vertex 630.00000 47.61646 -49.73778
    vertex 685.00000 47.61646 -49.73778
    vertex 705.00000 22.27386 -24.39518
  endloop
endfacet
facet normal 0.00000 -0.70711 -0.70711
  outer loop
    vertex 630.00000 47.61646 -49.73778
    vertex 705.00000 22.27386 -24.39518
    vertex 575.00000 22.27386 -24.39518
  endloop
endfacet
facet normal 0.54595 -0.59243 0.59243
  outer loop
    vertex 575.00000 22.27386 -24.39518
    vertex 630.00000 47.61646 -49.73778
    vertex 630.00000 49.73778 -47.61646
  endloop
endfacet
facet normal 0.54595 -0.59243 0.59243
  outer loop
    vertex 575.00000 22.27386 -24.39518
    vertex 630.00000 49.73778 -47.61646
    vertex 575.00000 24.39518 -22.27386
  endloop
endfacet
facet normal -0.87324 -0.34457 0.34457
  outer loop
    vertex 705.00000 24.39518 -22.27386
    vertex 685.00000 49.73778 -47.61646
    vertex 685.00000 47.61646 -49.73778
  endloop
endfacet
facet normal -0.87324 -0.34457 0.34457
  outer loop
    vertex 705.00000 24.39518 -22.27386
    vertex 685.00000 47.61646 -49.73778
    vertex 705.00000 22.27386 -24.39518
  endloop
endfacet
facet normal 0.00000 -0.70711 0.70711
  outer loop
    vertex 630.00000 47.61646 -49.73778
    vertex 685.00000 47.61646 -49.73778
    vertex 685.00000 49.73778 -47.61646
  endloop
endfacet
facet normal 0.00000 -0.70711 0.70711
  outer loop
    vertex 630.00000 47.61646 -49.73778
    vertex 685.00000 49.73778 -47.61646
    vertex 630.00000 49.73778 -47.61646
  endloop
endfacet
facet normal 0.00000 0.70711 -0.70711
  outer loop
    vertex 575.00000 24.39518 -22.27386
    vertex 705.00000 24.39518 -22.27386
    vertex 705.00000 22.27386 -24.39518
  endloop
endfacet
facet normal 0.00000 0.70711 -0.70711
  outer loop
    vertex 575.00000 24.39518 -22.27386
    vertex 705.00000 22.27386 -24.39518
    vertex 575.00000 22.27386 -24.39518
  endloop
endfacet
endsolid CSWARCMOD1D.ork_finset_wind1_57ms
