# Exported by ARC Rocket Simulation Toolkit -- Engine 5: Geometry Export
# Basic body-of-revolution + flat-fin approximation, units millimeters
o CSWARCMOD1D.ork_finset_wind2_19ms
v 575.00000 22.27386 24.39518
v 705.00000 22.27386 24.39518
v 685.00000 47.61646 49.73778
f 1 2 3
v 575.00000 22.27386 24.39518
v 685.00000 47.61646 49.73778
v 630.00000 47.61646 49.73778
f 4 5 6
v 630.00000 49.73778 47.61646
v 685.00000 49.73778 47.61646
v 705.00000 24.39518 22.27386
f 7 8 9
v 630.00000 49.73778 47.61646
v 705.00000 24.39518 22.27386
v 575.00000 24.39518 22.27386
f 10 11 12
v 575.00000 24.39518 22.27386
v 630.00000 49.73778 47.61646
v 630.00000 47.61646 49.73778
f 13 14 15
v 575.00000 24.39518 22.27386
v 630.00000 47.61646 49.73778
v 575.00000 22.27386 24.39518
f 16 17 18
v 705.00000 22.27386 24.39518
v 685.00000 47.61646 49.73778
v 685.00000 49.73778 47.61646
f 19 20 21
v 705.00000 22.27386 24.39518
v 685.00000 49.73778 47.61646
v 705.00000 24.39518 22.27386
f 22 23 24
v 630.00000 49.73778 47.61646
v 685.00000 49.73778 47.61646
v 685.00000 47.61646 49.73778
f 25 26 27
v 630.00000 49.73778 47.61646
v 685.00000 47.61646 49.73778
v 630.00000 47.61646 49.73778
f 28 29 30
v 575.00000 22.27386 24.39518
v 705.00000 22.27386 24.39518
v 705.00000 24.39518 22.27386
f 31 32 33
v 575.00000 22.27386 24.39518
v 705.00000 24.39518 22.27386
v 575.00000 24.39518 22.27386
f 34 35 36
v 575.00000 -24.39518 22.27386
v 705.00000 -24.39518 22.27386
v 685.00000 -49.73778 47.61646
f 37 38 39
v 575.00000 -24.39518 22.27386
v 685.00000 -49.73778 47.61646
v 630.00000 -49.73778 47.61646
f 40 41 42
v 630.00000 -47.61646 49.73778
v 685.00000 -47.61646 49.73778
v 705.00000 -22.27386 24.39518
f 43 44 45
v 630.00000 -47.61646 49.73778
v 705.00000 -22.27386 24.39518
v 575.00000 -22.27386 24.39518
f 46 47 48
v 575.00000 -22.27386 24.39518
v 630.00000 -47.61646 49.73778
v 630.00000 -49.73778 47.61646
f 49 50 51
v 575.00000 -22.27386 24.39518
v 630.00000 -49.73778 47.61646
v 575.00000 -24.39518 22.27386
f 52 53 54
v 705.00000 -24.39518 22.27386
v 685.00000 -49.73778 47.61646
v 685.00000 -47.61646 49.73778
f 55 56 57
v 705.00000 -24.39518 22.27386
v 685.00000 -47.61646 49.73778
v 705.00000 -22.27386 24.39518
f 58 59 60
v 630.00000 -47.61646 49.73778
v 685.00000 -47.61646 49.73778
v 685.00000 -49.73778 47.61646
f 61 62 63
v 630.00000 -47.61646 49.73778
v 685.00000 -49.73778 47.61646
v 630.00000 -49.73778 47.61646
f 64 65 66
v 575.00000 -24.39518 22.27386
v 705.00000 -24.39518 22.27386
v 705.00000 -22.27386 24.39518
f 67 68 69
v 575.00000 -24.39518 22.27386
v 705.00000 -22.27386 24.39518
v 575.00000 -22.27386 24.39518
f 70 71 72
v 575.00000 -22.27386 -24.39518
v 705.00000 -22.27386 -24.39518
v 685.00000 -47.61646 -49.73778
f 73 74 75
v 575.00000 -22.27386 -24.39518
v 685.00000 -47.61646 -49.73778
v 630.00000 -47.61646 -49.73778
f 76 77 78
v 630.00000 -49.73778 -47.61646
v 685.00000 -49.73778 -47.61646
v 705.00000 -24.39518 -22.27386
f 79 80 81
v 630.00000 -49.73778 -47.61646
v 705.00000 -24.39518 -22.27386
v 575.00000 -24.39518 -22.27386
f 82 83 84
v 575.00000 -24.39518 -22.27386
v 630.00000 -49.73778 -47.61646
v 630.00000 -47.61646 -49.73778
f 85 86 87
v 575.00000 -24.39518 -22.27386
v 630.00000 -47.61646 -49.73778
v 575.00000 -22.27386 -24.39518
f 88 89 90
v 705.00000 -22.27386 -24.39518
v 685.00000 -47.61646 -49.73778
v 685.00000 -49.73778 -47.61646
f 91 92 93
v 705.00000 -22.27386 -24.39518
v 685.00000 -49.73778 -47.61646
v 705.00000 -24.39518 -22.27386
f 94 95 96
v 630.00000 -49.73778 -47.61646
v 685.00000 -49.73778 -47.61646
v 685.00000 -47.61646 -49.73778
f 97 98 99
v 630.00000 -49.73778 -47.61646
v 685.00000 -47.61646 -49.73778
v 630.00000 -47.61646 -49.73778
f 100 101 102
v 575.00000 -22.27386 -24.39518
v 705.00000 -22.27386 -24.39518
v 705.00000 -24.39518 -22.27386
f 103 104 105
v 575.00000 -22.27386 -24.39518
v 705.00000 -24.39518 -22.27386
v 575.00000 -24.39518 -22.27386
f 106 107 108
v 575.00000 24.39518 -22.27386
v 705.00000 24.39518 -22.27386
v 685.00000 49.73778 -47.61646
f 109 110 111
v 575.00000 24.39518 -22.27386
v 685.00000 49.73778 -47.61646
v 630.00000 49.73778 -47.61646
f 112 113 114
v 630.00000 47.61646 -49.73778
v 685.00000 47.61646 -49.73778
v 705.00000 22.27386 -24.39518
f 115 116 117
v 630.00000 47.61646 -49.73778
v 705.00000 22.27386 -24.39518
v 575.00000 22.27386 -24.39518
f 118 119 120
v 575.00000 22.27386 -24.39518
v 630.00000 47.61646 -49.73778
v 630.00000 49.73778 -47.61646
f 121 122 123
v 575.00000 22.27386 -24.39518
v 630.00000 49.73778 -47.61646
v 575.00000 24.39518 -22.27386
f 124 125 126
v 705.00000 24.39518 -22.27386
v 685.00000 49.73778 -47.61646
v 685.00000 47.61646 -49.73778
f 127 128 129
v 705.00000 24.39518 -22.27386
v 685.00000 47.61646 -49.73778
v 705.00000 22.27386 -24.39518
f 130 131 132
v 630.00000 47.61646 -49.73778
v 685.00000 47.61646 -49.73778
v 685.00000 49.73778 -47.61646
f 133 134 135
v 630.00000 47.61646 -49.73778
v 685.00000 49.73778 -47.61646
v 630.00000 49.73778 -47.61646
f 136 137 138
v 575.00000 24.39518 -22.27386
v 705.00000 24.39518 -22.27386
v 705.00000 22.27386 -24.39518
f 139 140 141
v 575.00000 24.39518 -22.27386
v 705.00000 22.27386 -24.39518
v 575.00000 22.27386 -24.39518
f 142 143 144
