solid CSWARCMOD1D.ork_finset_wind3_42ms
facet normal 0.00000 -0.70711 0.70711
  outer loop
    vertex 575.00000 22.27386 24.39518
    vertex 705.00000 22.27386 24.39518
    vertex 685.00000 43.21776 45.33908
  endloop
endfacet
facet normal 0.00000 -0.70711 0.70711
  outer loop
    vertex 575.00000 22.27386 24.39518
    vertex 685.00000 43.21776 45.33908
    vertex 630.00000 43.21776 45.33908
  endloop
endfacet
facet normal 0.00000 0.70711 -0.70711
  outer loop
    vertex 630.00000 45.33908 43.21776
    vertex 685.00000 45.33908 43.21776
    vertex 705.00000 24.39518 22.27386
  endloop
endfacet
facet normal 0.00000 0.70711 -0.70711
  outer loop
    vertex 630.00000 45.33908 43.21776
    vertex 705.00000 24.39518 22.27386
    vertex 575.00000 24.39518 22.27386
  endloop
endfacet
facet normal 0.47415 -0.62257 -0.62257
  outer loop
    vertex 575.00000 24.39518 22.27386
    vertex 630.00000 45.33908 43.21776
    vertex 630.00000 43.21776 45.33908
  endloop
endfacet
facet normal 0.47415 -0.62257 -0.62257
  outer loop
    vertex 575.00000 24.39518 22.27386
    vertex 630.00000 43.21776 45.33908
    vertex 575.00000 22.27386 24.39518
  endloop
endfacet
facet normal -0.82876 -0.39570 -0.39570
  outer loop
    vertex 705.00000 22.27386 24.39518
    vertex 685.00000 43.21776 45.33908
    vertex 685.00000 45.33908 43.21776
  endloop
endfacet
facet normal -0.82876 -0.39570 -0.39570
  outer loop
    vertex 705.00000 22.27386 24.39518
    vertex 685.00000 45.33908 43.21776
    vertex 705.00000 24.39518 22.27386
  endloop
endfacet
facet normal 0.00000 -0.70711 -0.70711
  outer loop
    vertex 630.00000 45.33908 43.21776
    vertex 685.00000 45.33908 43.21776
    vertex 685.00000 43.21776 45.33908
  endloop
endfacet
facet normal 0.00000 -0.70711 -0.70711
  outer loop
    vertex 630.00000 45.33908 43.21776
    vertex 685.00000 43.21776 45.33908
    vertex 630.00000 43.21776 45.33908
  endloop
endfacet
facet normal -0.00000 0.70711 0.70711
  outer loop
    vertex 575.00000 22.27386 24.39518
    vertex 705.00000 22.27386 24.39518
    vertex 705.00000 24.39518 22.27386
  endloop
endfacet
facet normal 0.00000 0.70711 0.70711
  outer loop
    vertex 575.00000 22.27386 24.39518
    vertex 705.00000 24.39518 22.27386
    vertex 575.00000 24.39518 22.27386
  endloop
endfacet
facet normal 0.00000 -0.70711 -0.70711
  outer loop
    vertex 575.00000 -24.39518 22.27386
    vertex 705.00000 -24.39518 22.27386
    vertex 685.00000 -45.33908 43.21776
  endloop
endfacet
facet normal 0.00000 -0.70711 -0.70711
  outer loop
    vertex 575.00000 -24.39518 22.27386
    vertex 685.00000 -45.33908 43.21776
    vertex 630.00000 -45.33908 43.21776
  endloop
endfacet
facet normal -0.00000 0.70711 0.70711
  outer loop
    vertex 630.00000 -43.21776 45.33908
    vertex 685.00000 -43.21776 45.33908
    vertex 705.00000 -22.27386 24.39518
  endloop
endfacet
facet normal 0.00000 0.70711 0.70711
  outer loop
    vertex 630.00000 -43.21776 45.33908
    vertex 705.00000 -22.27386 24.39518
    vertex 575.00000 -22.27386 24.39518
  endloop
endfacet
facet normal 0.47415 0.62257 -0.62257
  outer loop
    vertex 575.00000 -22.27386 24.39518
    vertex 630.00000 -43.21776 45.33908
    vertex 630.00000 -45.33908 43.21776
  endloop
endfacet
facet normal 0.47415 0.62257 -0.62257
  outer loop
    vertex 575.00000 -22.27386 24.39518
    vertex 630.00000 -45.33908 43.21776
    vertex 575.00000 -24.39518 22.27386
  endloop
endfacet
facet normal -0.82876 0.39570 -0.39570
  outer loop
    vertex 705.00000 -24.39518 22.27386
    vertex 685.00000 -45.33908 43.21776
    vertex 685.00000 -43.21776 45.33908
  endloop
endfacet
facet normal -0.82876 0.39570 -0.39570
  outer loop
    vertex 705.00000 -24.39518 22.27386
    vertex 685.00000 -43.21776 45.33908
    vertex 705.00000 -22.27386 24.39518
  endloop
endfacet
facet normal 0.00000 0.70711 -0.70711
  outer loop
    vertex 630.00000 -43.21776 45.33908
    vertex 685.00000 -43.21776 45.33908
    vertex 685.00000 -45.33908 43.21776
  endloop
endfacet
facet normal 0.00000 0.70711 -0.70711
  outer loop
    vertex 630.00000 -43.21776 45.33908
    vertex 685.00000 -45.33908 43.21776
    vertex 630.00000 -45.33908 43.21776
  endloop
endfacet
facet normal 0.00000 -0.70711 0.70711
  outer loop
    vertex 575.00000 -24.39518 22.27386
    vertex 705.00000 -24.39518 22.27386
    vertex 705.00000 -22.27386 24.39518
  endloop
endfacet
facet normal 0.00000 -0.70711 0.70711
  outer loop
    vertex 575.00000 -24.39518 22.27386
    vertex 705.00000 -22.27386 24.39518
    vertex 575.00000 -22.27386 24.39518
  endloop
endfacet
facet normal 0.00000 0.70711 -0.70711
  outer loop
    vertex 575.00000 -22.27386 -24.39518
    vertex 705.00000 -22.27386 -24.39518
    vertex 685.00000 -43.21776 -45.33908
  endloop
endfacet
facet normal 0.00000 0.70711 -0.70711
  outer loop
    vertex 575.00000 -22.27386 -24.39518
    vertex 685.00000 -43.21776 -45.33908
    vertex 630.00000 -43.21776 -45.33908
  endloop
endfacet
facet normal 0.00000 -0.70711 0.70711
  outer loop
    vertex 630.00000 -45.33908 -43.21776
    vertex 685.00000 -45.33908 -43.21776
    vertex 705.00000 -24.39518 -22.27386
  endloop
endfacet
facet normal 0.00000 -0.70711 0.70711
  outer loop
    vertex 630.00000 -45.33908 -43.21776
    vertex 705.00000 -24.39518 -22.27386
    vertex 575.00000 -24.39518 -22.27386
  endloop
endfacet
facet normal 0.47415 0.62257 0.62257
  outer loop
    vertex 575.00000 -24.39518 -22.27386
    vertex 630.00000 -45.33908 -43.21776
    vertex 630.00000 -43.21776 -45.33908
  endloop
endfacet
facet normal 0.47415 0.62257 0.62257
  outer loop
    vertex 575.00000 -24.39518 -22.27386
    vertex 630.00000 -43.21776 -45.33908
    vertex 575.00000 -22.27386 -24.39518
  endloop
endfacet
facet normal -0.82876 0.39570 0.39570
  outer loop
    vertex 705.00000 -22.27386 -24.39518
    vertex 685.00000 -43.21776 -45.33908
    vertex 685.00000 -45.33908 -43.21776
  endloop
endfacet
facet normal -0.82876 0.39570 0.39570
  outer loop
    vertex 705.00000 -22.27386 -24.39518
    vertex 685.00000 -45.33908 -43.21776
    vertex 705.00000 -24.39518 -22.27386
  endloop
endfacet
facet normal -0.00000 0.70711 0.70711
  outer loop
    vertex 630.00000 -45.33908 -43.21776
    vertex 685.00000 -45.33908 -43.21776
    vertex 685.00000 -43.21776 -45.33908
  endloop
endfacet
facet normal 0.00000 0.70711 0.70711
  outer loop
    vertex 630.00000 -45.33908 -43.21776
    vertex 685.00000 -43.21776 -45.33908
    vertex 630.00000 -43.21776 -45.33908
  endloop
endfacet
facet normal 0.00000 -0.70711 -0.70711
  outer loop
    vertex 575.00000 -22.27386 -24.39518
    vertex 705.00000 -22.27386 -24.39518
    vertex 705.00000 -24.39518 -22.27386
  endloop
endfacet
facet normal 0.00000 -0.70711 -0.70711
  outer loop
    vertex 575.00000 -22.27386 -24.39518
    vertex 705.00000 -24.39518 -22.27386
    vertex 575.00000 -24.39518 -22.27386
  endloop
endfacet
facet normal -0.00000 0.70711 0.70711
  outer loop
    vertex 575.00000 24.39518 -22.27386
    vertex 705.00000 24.39518 -22.27386
    vertex 685.00000 45.33908 -43.21776
  endloop
endfacet
facet normal 0.00000 0.70711 0.70711
  outer loop
    vertex 575.00000 24.39518 -22.27386
    vertex 685.00000 45.33908 -43.21776
    vertex 630.00000 45.33908 -43.21776
  endloop
endfacet
facet normal 0.00000 -0.70711 -0.70711
  outer loop
    vertex 630.00000 43.21776 -45.33908
    vertex 685.00000 43.21776 -45.33908
    vertex 705.00000 22.27386 -24.39518
  endloop
endfacet
facet normal 0.00000 -0.70711 -0.70711
  outer loop
    vertex 630.00000 43.21776 -45.33908
    vertex 705.00000 22.27386 -24.39518
    vertex 575.00000 22.27386 -24.39518
  endloop
endfacet
facet normal 0.47415 -0.62257 0.62257
  outer loop
    vertex 575.00000 22.27386 -24.39518
    vertex 630.00000 43.21776 -45.33908
    vertex 630.00000 45.33908 -43.21776
  endloop
endfacet
facet normal 0.47415 -0.62257 0.62257
  outer loop
    vertex 575.00000 22.27386 -24.39518
    vertex 630.00000 45.33908 -43.21776
    vertex 575.00000 24.39518 -22.27386
  endloop
endfacet
facet normal -0.82876 -0.39570 0.39570
  outer loop
    vertex 705.00000 24.39518 -22.27386
    vertex 685.00000 45.33908 -43.21776
    vertex 685.00000 43.21776 -45.33908
  endloop
endfacet
facet normal -0.82876 -0.39570 0.39570
  outer loop
    vertex 705.00000 24.39518 -22.27386
    vertex 685.00000 43.21776 -45.33908
    vertex 705.00000 22.27386 -24.39518
  endloop
endfacet
facet normal 0.00000 -0.70711 0.70711
  outer loop
    vertex 630.00000 43.21776 -45.33908
    vertex 685.00000 43.21776 -45.33908
    vertex 685.00000 45.33908 -43.21776
  endloop
endfacet
facet normal 0.00000 -0.70711 0.70711
  outer loop
    vertex 630.00000 43.21776 -45.33908
    vertex 685.00000 45.33908 -43.21776
    vertex 630.00000 45.33908 -43.21776
  endloop
endfacet
facet normal 0.00000 0.70711 -0.70711
  outer loop
    vertex 575.00000 24.39518 -22.27386
    vertex 705.00000 24.39518 -22.27386
    vertex 705.00000 22.27386 -24.39518
  endloop
endfacet
facet normal 0.00000 0.70711 -0.70711
  outer loop
    vertex 575.00000 24.39518 -22.27386
    vertex 705.00000 22.27386 -24.39518
    vertex 575.00000 22.27386 -24.39518
  endloop
endfacet
endsolid CSWARCMOD1D.ork_finset_wind3_42ms
