%FSLAX46Y46*%
%MOMM*%
%ADD10C,0.100*%
D10*
X139500000Y100000000D02*
X139475938Y101378530D01*
X139403780Y102755381D01*
X139283615Y104128874D01*
X139115589Y105497337D01*
X138899906Y106859103D01*
X138636830Y108212512D01*
X138326681Y109555915D01*
X137969837Y110887676D01*
X137566732Y112206171D01*
X137117859Y113509796D01*
X136623762Y114796960D01*
X136085046Y116066097D01*
X135502365Y117315660D01*
X134876430Y118544127D01*
X134208003Y119750000D01*
X133497900Y120931811D01*
X132746984Y122088120D01*
X131956171Y123217517D01*
X131126425Y124318628D01*
X130258756Y125390111D01*
X129354221Y126430659D01*
X128413922Y127439006D01*
X127439006Y128413922D01*
X126430659Y129354221D01*
X125390111Y130258756D01*
X124318628Y131126425D01*
X123217517Y131956171D01*
X122088120Y132746984D01*
X120931811Y133497900D01*
X119750000Y134208003D01*
X118544127Y134876430D01*
X117315660Y135502365D01*
X116066097Y136085046D01*
X114796960Y136623762D01*
X113509796Y137117859D01*
X112206171Y137566732D01*
X110887676Y137969837D01*
X109555915Y138326681D01*
X108212512Y138636830D01*
X106859103Y138899906D01*
X105497337Y139115589D01*
X104128874Y139283615D01*
X102755381Y139403780D01*
X101378530Y139475938D01*
X100000000Y139500000D01*
X98621470Y139475938D01*
X97244619Y139403780D01*
X95871126Y139283615D01*
X94502663Y139115589D01*
X93140897Y138899906D01*
X91787488Y138636830D01*
X90444085Y138326681D01*
X89112324Y137969837D01*
X87793829Y137566732D01*
X86490204Y137117859D01*
X85203040Y136623762D01*
X83933903Y136085046D01*
X82684340Y135502365D01*
X81455873Y134876430D01*
X80250000Y134208003D01*
X79068189Y133497900D01*
X77911880Y132746984D01*
X76782483Y131956171D01*
X75681372Y131126425D01*
X74609889Y130258756D01*
X73569341Y129354221D01*
X72560994Y128413922D01*
X71586078Y127439006D01*
X70645779Y126430659D01*
X69741244Y125390111D01*
X68873575Y124318628D01*
X68043829Y123217517D01*
X67253016Y122088120D01*
X66502100Y120931811D01*
X65791997Y119750000D01*
X65123570Y118544127D01*
X64497635Y117315660D01*
X63914954Y116066097D01*
X63376238Y114796960D01*
X62882141Y113509796D01*
X62433268Y112206171D01*
X62030163Y110887676D01*
X61673319Y109555915D01*
X61363170Y108212512D01*
X61100094Y106859103D01*
X60884411Y105497337D01*
X60716385Y104128874D01*
X60596220Y102755381D01*
X60524062Y101378530D01*
X60500000Y100000000D01*
X60524062Y98621470D01*
X60596220Y97244619D01*
X60716385Y95871126D01*
X60884411Y94502663D01*
X61100094Y93140897D01*
X61363170Y91787488D01*
X61673319Y90444085D01*
X62030163Y89112324D01*
X62433268Y87793829D01*
X62882141Y86490204D01*
X63376238Y85203040D01*
X63914954Y83933903D01*
X64497635Y82684340D01*
X65123570Y81455873D01*
X65791997Y80250000D01*
X66502100Y79068189D01*
X67253016Y77911880D01*
X68043829Y76782483D01*
X68873575Y75681372D01*
X69741244Y74609889D01*
X70645779Y73569341D01*
X71586078Y72560994D01*
X72560994Y71586078D01*
X73569341Y70645779D01*
X74609889Y69741244D01*
X75681372Y68873575D01*
X76782483Y68043829D01*
X77911880Y67253016D01*
X79068189Y66502100D01*
X80250000Y65791997D01*
X81455873Y65123570D01*
X82684340Y64497635D01*
X83933903Y63914954D01*
X85203040Y63376238D01*
X86490204Y62882141D01*
X87793829Y62433268D01*
X89112324Y62030163D01*
X90444085Y61673319D01*
X91787488Y61363170D01*
X93140897Y61100094D01*
X94502663Y60884411D01*
X95871126Y60716385D01*
X97244619Y60596220D01*
X98621470Y60524062D01*
X100000000Y60500000D01*
X101378530Y60524062D01*
X102755381Y60596220D01*
X104128874Y60716385D01*
X105497337Y60884411D01*
X106859103Y61100094D01*
X108212512Y61363170D01*
X109555915Y61673319D01*
X110887676Y62030163D01*
X112206171Y62433268D01*
X113509796Y62882141D01*
X114796960Y63376238D01*
X116066097Y63914954D01*
X117315660Y64497635D01*
X118544127Y65123570D01*
X119750000Y65791997D01*
X120931811Y66502100D01*
X122088120Y67253016D01*
X123217517Y68043829D01*
X124318628Y68873575D01*
X125390111Y69741244D01*
X126430659Y70645779D01*
X127439006Y71586078D01*
X128413922Y72560994D01*
X129354221Y73569341D01*
X130258756Y74609889D01*
X131126425Y75681372D01*
X131956171Y76782483D01*
X132746984Y77911880D01*
X133497900Y79068189D01*
X134208003Y80250000D01*
X134876430Y81455873D01*
X135502365Y82684340D01*
X136085046Y83933903D01*
X136623762Y85203040D01*
X137117859Y86490204D01*
X137566732Y87793829D01*
X137969837Y89112324D01*
X138326681Y90444085D01*
X138636830Y91787488D01*
X138899906Y93140897D01*
X139115589Y94502663D01*
X139283615Y95871126D01*
X139403780Y97244619D01*
X139475938Y98621470D01*
X139500000Y100000000D01*
M02*
