%FSLAX46Y46*%
%MOMM*%
%ADD10C,0.150*%
D10*
X110103000Y96326000D02*
X119103000Y96326000D01*
X119103000Y105326000D01*
X110103000Y105326000D01*
X110103000Y96326000D01*
X123544000Y110856000D02*
X131144000Y110856000D01*
X131144000Y116256000D01*
X123544000Y116256000D01*
X123544000Y110856000D01*
X121406000Y120158000D02*
X124806000Y120158000D01*
X124806000Y123558000D01*
X121406000Y123558000D01*
X121406000Y120158000D01*
X118333000Y127443000D02*
X122533000Y127443000D01*
X122533000Y130743000D01*
X118333000Y130743000D01*
X118333000Y127443000D01*
X114316000Y122088000D02*
X117276000Y122088000D01*
X117276000Y123548000D01*
X114316000Y123548000D01*
X114316000Y122088000D01*
X121724000Y124781000D02*
X124684000Y124781000D01*
X124684000Y126241000D01*
X121724000Y126241000D01*
X121724000Y124781000D01*
X109960000Y113606000D02*
X112920000Y113606000D01*
X112920000Y115066000D01*
X109960000Y115066000D01*
X109960000Y113606000D01*
X108659000Y110914000D02*
X111619000Y110914000D01*
X111619000Y112374000D01*
X108659000Y112374000D01*
X108659000Y110914000D01*
X127740000Y120143000D02*
X130700000Y120143000D01*
X130700000Y121603000D01*
X127740000Y121603000D01*
X127740000Y120143000D01*
X126027000Y122810000D02*
X128987000Y122810000D01*
X128987000Y124270000D01*
X126027000Y124270000D01*
X126027000Y122810000D01*
X110697000Y108225000D02*
X113657000Y108225000D01*
X113657000Y109685000D01*
X110697000Y109685000D01*
X110697000Y108225000D01*
X115215000Y114052000D02*
X118175000Y114052000D01*
X118175000Y115512000D01*
X115215000Y115512000D01*
X115215000Y114052000D01*
X114870000Y107333000D02*
X117830000Y107333000D01*
X117830000Y108793000D01*
X114870000Y108793000D01*
X114870000Y107333000D01*
X123534000Y117471000D02*
X126494000Y117471000D01*
X126494000Y118931000D01*
X123534000Y118931000D01*
X123534000Y117471000D01*
X125734000Y98764000D02*
X128694000Y98764000D01*
X128694000Y100224000D01*
X125734000Y100224000D01*
X125734000Y98764000D01*
X128520000Y117480000D02*
X131480000Y117480000D01*
X131480000Y118940000D01*
X128520000Y118940000D01*
X128520000Y117480000D01*
X106592000Y116336000D02*
X109552000Y116336000D01*
X109552000Y117796000D01*
X106592000Y117796000D01*
X106592000Y116336000D01*
X101518000Y104536000D02*
X104478000Y104536000D01*
X104478000Y105996000D01*
X101518000Y105996000D01*
X101518000Y104536000D01*
X101292000Y94632000D02*
X108892000Y94632000D01*
X108892000Y100032000D01*
X101292000Y100032000D01*
X101292000Y94632000D01*
X97112000Y104733000D02*
X100312000Y104733000D01*
X100312000Y108733000D01*
X97112000Y108733000D01*
X97112000Y104733000D01*
X84559000Y104000000D02*
X87759000Y104000000D01*
X87759000Y108000000D01*
X84559000Y108000000D01*
X84559000Y104000000D01*
X105697000Y101754000D02*
X108897000Y101754000D01*
X108897000Y105754000D01*
X105697000Y105754000D01*
X105697000Y101754000D01*
X93363000Y115310000D02*
X101163000Y115310000D01*
X101163000Y119310000D01*
X93363000Y119310000D01*
X93363000Y115310000D01*
X120312000Y100223000D02*
X120312000Y74763000D01*
X122912000Y74763000D01*
X122912000Y100223000D01*
X120312000Y100223000D01*
X108917000Y134985000D02*
X108917000Y124785000D01*
X117117000Y124785000D01*
X117117000Y134985000D01*
X108917000Y134985000D01*
X110792000Y116283000D02*
X113992000Y116283000D01*
X113992000Y119883000D01*
X110792000Y119883000D01*
X110792000Y116283000D01*
X123489000Y101450000D02*
X133689000Y101450000D01*
X133689000Y109650000D01*
X123489000Y109650000D01*
X123489000Y101450000D01*
X119073000Y106535000D02*
X122273000Y106535000D01*
X122273000Y110135000D01*
X119073000Y110135000D01*
X119073000Y106535000D01*
X91407784Y126266973D02*
X85393751Y124078044D01*
X86488216Y121071027D01*
X92502249Y123259956D01*
X91407784Y126266973D01*
X89137000Y118378000D02*
X92097000Y118378000D01*
X92097000Y119838000D01*
X89137000Y119838000D01*
X89137000Y118378000D01*
X93710000Y123229000D02*
X96670000Y123229000D01*
X96670000Y124689000D01*
X93710000Y124689000D01*
X93710000Y123229000D01*
X91310000Y112622000D02*
X94270000Y112622000D01*
X94270000Y114082000D01*
X91310000Y114082000D01*
X91310000Y112622000D01*
X95494000Y112627000D02*
X98454000Y112627000D01*
X98454000Y114087000D01*
X95494000Y114087000D01*
X95494000Y112627000D01*
X81825198Y78567249D02*
X86727882Y74453409D01*
X88784802Y76904751D01*
X83882118Y81018591D01*
X81825198Y78567249D01*
X86537000Y82256000D02*
X89497000Y82256000D01*
X89497000Y83716000D01*
X86537000Y83716000D01*
X86537000Y82256000D01*
X82328000Y83714000D02*
X85288000Y83714000D01*
X85288000Y85174000D01*
X82328000Y85174000D01*
X82328000Y83714000D01*
X89703000Y87640000D02*
X92663000Y87640000D01*
X92663000Y89100000D01*
X89703000Y89100000D01*
X89703000Y87640000D01*
X88903000Y90302000D02*
X91863000Y90302000D01*
X91863000Y91762000D01*
X88903000Y91762000D01*
X88903000Y90302000D01*
X131484018Y90654778D02*
X132595367Y96957548D01*
X129443982Y97513222D01*
X128332633Y91210452D01*
X131484018Y90654778D01*
X124158000Y96049000D02*
X127118000Y96049000D01*
X127118000Y97509000D01*
X124158000Y97509000D01*
X124158000Y96049000D01*
X124162000Y93177000D02*
X127122000Y93177000D01*
X127122000Y94637000D01*
X124162000Y94637000D01*
X124162000Y93177000D01*
X113524000Y93639000D02*
X116484000Y93639000D01*
X116484000Y95099000D01*
X113524000Y95099000D01*
X113524000Y93639000D01*
X113989000Y90957000D02*
X116949000Y90957000D01*
X116949000Y92417000D01*
X113989000Y92417000D01*
X113989000Y90957000D01*
X100900000Y124865000D02*
X107700000Y124865000D01*
X107700000Y131665000D01*
X100900000Y131665000D01*
X100900000Y124865000D01*
X68041000Y91564000D02*
X74841000Y91564000D01*
X74841000Y98364000D01*
X68041000Y98364000D01*
X68041000Y91564000D01*
X112292000Y74385000D02*
X119092000Y74385000D01*
X119092000Y81185000D01*
X112292000Y81185000D01*
X112292000Y74385000D01*
X97093000Y94270000D02*
X100053000Y94270000D01*
X100053000Y95730000D01*
X97093000Y95730000D01*
X97093000Y94270000D01*
X102582000Y91949000D02*
X105542000Y91949000D01*
X105542000Y93409000D01*
X102582000Y93409000D01*
X102582000Y91949000D01*
X92911000Y94270000D02*
X95871000Y94270000D01*
X95871000Y95730000D01*
X92911000Y95730000D01*
X92911000Y94270000D01*
X93158000Y102032000D02*
X96118000Y102032000D01*
X96118000Y103492000D01*
X93158000Y103492000D01*
X93158000Y102032000D01*
X97337000Y102016000D02*
X100297000Y102016000D01*
X100297000Y103476000D01*
X97337000Y103476000D01*
X97337000Y102016000D01*
X88979000Y102270000D02*
X91939000Y102270000D01*
X91939000Y103730000D01*
X88979000Y103730000D01*
X88979000Y102270000D01*
X101510000Y101272000D02*
X104470000Y101272000D01*
X104470000Y102732000D01*
X101510000Y102732000D01*
X101510000Y101272000D01*
X90520000Y98270000D02*
X93480000Y98270000D01*
X93480000Y99730000D01*
X90520000Y99730000D01*
X90520000Y98270000D01*
X109822000Y90972000D02*
X112782000Y90972000D01*
X112782000Y92432000D01*
X109822000Y92432000D01*
X109822000Y90972000D01*
X86520000Y94270000D02*
X89480000Y94270000D01*
X89480000Y95730000D01*
X86520000Y95730000D01*
X86520000Y94270000D01*
X96085000Y109949000D02*
X99045000Y109949000D01*
X99045000Y111409000D01*
X96085000Y111409000D01*
X96085000Y109949000D01*
X100277000Y110270000D02*
X103237000Y110270000D01*
X103237000Y111730000D01*
X100277000Y111730000D01*
X100277000Y110270000D01*
X104452000Y110932000D02*
X107412000Y110932000D01*
X107412000Y112392000D01*
X104452000Y112392000D01*
X104452000Y110932000D01*
X106481000Y106963000D02*
X109441000Y106963000D01*
X109441000Y108423000D01*
X106481000Y108423000D01*
X106481000Y106963000D01*
X87719000Y109270000D02*
X90679000Y109270000D01*
X90679000Y110730000D01*
X87719000Y110730000D01*
X87719000Y109270000D01*
X91889000Y109270000D02*
X94849000Y109270000D01*
X94849000Y110730000D01*
X91889000Y110730000D01*
X91889000Y109270000D01*
X114876000Y110015000D02*
X117836000Y110015000D01*
X117836000Y111475000D01*
X114876000Y111475000D01*
X114876000Y110015000D01*
X119062000Y111363000D02*
X122022000Y111363000D01*
X122022000Y112823000D01*
X119062000Y112823000D01*
X119062000Y111363000D01*
X103141000Y113619000D02*
X106101000Y113619000D01*
X106101000Y115079000D01*
X103141000Y115079000D01*
X103141000Y113619000D01*
X102400000Y116313000D02*
X105360000Y116313000D01*
X105360000Y117773000D01*
X102400000Y117773000D01*
X102400000Y116313000D01*
X107410000Y88278000D02*
X110370000Y88278000D01*
X110370000Y89738000D01*
X107410000Y89738000D01*
X107410000Y88278000D01*
X111630000Y88254000D02*
X114590000Y88254000D01*
X114590000Y89714000D01*
X111630000Y89714000D01*
X111630000Y88254000D01*
X114520000Y82898000D02*
X117480000Y82898000D01*
X117480000Y84358000D01*
X114520000Y84358000D01*
X114520000Y82898000D01*
X116132000Y85591000D02*
X119092000Y85591000D01*
X119092000Y87051000D01*
X116132000Y87051000D01*
X116132000Y85591000D01*
X116116000Y88283000D02*
X119076000Y88283000D01*
X119076000Y89743000D01*
X116116000Y89743000D01*
X116116000Y88283000D01*
X88520000Y84974000D02*
X91480000Y84974000D01*
X91480000Y86434000D01*
X88520000Y86434000D01*
X88520000Y84974000D01*
X84717000Y89270000D02*
X87677000Y89270000D01*
X87677000Y90730000D01*
X84717000Y90730000D01*
X84717000Y89270000D01*
X80360000Y107270000D02*
X83320000Y107270000D01*
X83320000Y108730000D01*
X80360000Y108730000D01*
X80360000Y107270000D01*
X82520000Y110270000D02*
X85480000Y110270000D01*
X85480000Y111730000D01*
X82520000Y111730000D01*
X82520000Y110270000D01*
X116778000Y119398000D02*
X119738000Y119398000D01*
X119738000Y120858000D01*
X116778000Y120858000D01*
X116778000Y119398000D01*
X102893000Y121686000D02*
X105853000Y121686000D01*
X105853000Y123146000D01*
X102893000Y123146000D01*
X102893000Y121686000D01*
X105776000Y119018000D02*
X108736000Y119018000D01*
X108736000Y120478000D01*
X105776000Y120478000D01*
X105776000Y119018000D01*
X109962000Y121146000D02*
X112922000Y121146000D01*
X112922000Y122606000D01*
X109962000Y122606000D01*
X109962000Y121146000D01*
X115195000Y116730000D02*
X118155000Y116730000D01*
X118155000Y118190000D01*
X115195000Y118190000D01*
X115195000Y116730000D01*
X119374000Y116716000D02*
X122334000Y116716000D01*
X122334000Y118176000D01*
X119374000Y118176000D01*
X119374000Y116716000D01*
X94520000Y120518000D02*
X97480000Y120518000D01*
X97480000Y121978000D01*
X94520000Y121978000D01*
X94520000Y120518000D01*
M02*
