%FSLAX46Y46*%
%MOMM*%
%LPD*%
%LPD*%
G36*
X139200000Y100000000D02*
X139162690Y101709880D01*
X139050832Y103416505D01*
X138864639Y105116627D01*
X138604464Y106807009D01*
X138270803Y108484433D01*
X137864292Y110145707D01*
X137385704Y111787667D01*
X136835951Y113407190D01*
X136216078Y115001191D01*
X135527265Y116566636D01*
X134770825Y118100546D01*
X133948196Y119600000D01*
X133060945Y121062145D01*
X132110760Y122484196D01*
X131099451Y123863448D01*
X130028942Y125197274D01*
X128901272Y126483136D01*
X127718586Y127718586D01*
X126483136Y128901272D01*
X125197274Y130028942D01*
X123863448Y131099451D01*
X122484196Y132110760D01*
X121062145Y133060945D01*
X119600000Y133948196D01*
X118100546Y134770825D01*
X116566636Y135527265D01*
X115001191Y136216078D01*
X113407190Y136835951D01*
X111787667Y137385704D01*
X110145707Y137864292D01*
X108484433Y138270803D01*
X106807009Y138604464D01*
X105116627Y138864639D01*
X103416505Y139050832D01*
X101709880Y139162690D01*
X100000000Y139200000D01*
X98290120Y139162690D01*
X96583495Y139050832D01*
X94883373Y138864639D01*
X93192991Y138604464D01*
X91515567Y138270803D01*
X89854293Y137864292D01*
X88212333Y137385704D01*
X86592810Y136835951D01*
X84998809Y136216078D01*
X83433364Y135527265D01*
X81899454Y134770825D01*
X80400000Y133948196D01*
X78937855Y133060945D01*
X77515804Y132110760D01*
X76136552Y131099451D01*
X74802726Y130028942D01*
X73516864Y128901272D01*
X72281414Y127718586D01*
X71098728Y126483136D01*
X69971058Y125197274D01*
X68900549Y123863448D01*
X67889240Y122484196D01*
X66939055Y121062145D01*
X66051804Y119600000D01*
X65229175Y118100546D01*
X64472735Y116566636D01*
X63783922Y115001191D01*
X63164049Y113407190D01*
X62614296Y111787667D01*
X62135708Y110145707D01*
X61729197Y108484433D01*
X61395536Y106807009D01*
X61135361Y105116627D01*
X60949168Y103416505D01*
X60837310Y101709880D01*
X60800000Y100000000D01*
X60837310Y98290120D01*
X60949168Y96583495D01*
X61135361Y94883373D01*
X61395536Y93192991D01*
X61729197Y91515567D01*
X62135708Y89854293D01*
X62614296Y88212333D01*
X63164049Y86592810D01*
X63783922Y84998809D01*
X64472735Y83433364D01*
X65229175Y81899454D01*
X66051804Y80400000D01*
X66939055Y78937855D01*
X67889240Y77515804D01*
X68900549Y76136552D01*
X69971058Y74802726D01*
X71098728Y73516864D01*
X72281414Y72281414D01*
X73516864Y71098728D01*
X74802726Y69971058D01*
X76136552Y68900549D01*
X77515804Y67889240D01*
X78937855Y66939055D01*
X80400000Y66051804D01*
X81899454Y65229175D01*
X83433364Y64472735D01*
X84998809Y63783922D01*
X86592810Y63164049D01*
X88212333Y62614296D01*
X89854293Y62135708D01*
X91515567Y61729197D01*
X93192991Y61395536D01*
X94883373Y61135361D01*
X96583495Y60949168D01*
X98290120Y60837310D01*
X100000000Y60800000D01*
X101709880Y60837310D01*
X103416505Y60949168D01*
X105116627Y61135361D01*
X106807009Y61395536D01*
X108484433Y61729197D01*
X110145707Y62135708D01*
X111787667Y62614296D01*
X113407190Y63164049D01*
X115001191Y63783922D01*
X116566636Y64472735D01*
X118100546Y65229175D01*
X119600000Y66051804D01*
X121062145Y66939055D01*
X122484196Y67889240D01*
X123863448Y68900549D01*
X125197274Y69971058D01*
X126483136Y71098728D01*
X127718586Y72281414D01*
X128901272Y73516864D01*
X130028942Y74802726D01*
X131099451Y76136552D01*
X132110760Y77515804D01*
X133060945Y78937855D01*
X133948196Y80400000D01*
X134770825Y81899454D01*
X135527265Y83433364D01*
X136216078Y84998809D01*
X136835951Y86592810D01*
X137385704Y88212333D01*
X137864292Y89854293D01*
X138270803Y91515567D01*
X138604464Y93192991D01*
X138864639Y94883373D01*
X139050832Y96583495D01*
X139162690Y98290120D01*
X139200000Y100000000D01*
G37*
%LPC*%
G36*
X109400000Y105650000D02*
X110400000Y105650000D01*
X110400000Y106450000D01*
X109400000Y106450000D01*
X109400000Y105650000D01*
G37*
G36*
X109400000Y108250000D02*
X110400000Y108250000D01*
X110400000Y109050000D01*
X109400000Y109050000D01*
X109400000Y108250000D01*
G37*
G36*
X109400000Y108900000D02*
X110400000Y108900000D01*
X110400000Y109700000D01*
X109400000Y109700000D01*
X109400000Y108900000D01*
G37*
G36*
X109400000Y109550000D02*
X110400000Y109550000D01*
X110400000Y110350000D01*
X109400000Y110350000D01*
X109400000Y109550000D01*
G37*
G36*
X109650000Y110350000D02*
X110450000Y110350000D01*
X110450000Y111350000D01*
X109650000Y111350000D01*
X109650000Y110350000D01*
G37*
G36*
X112900000Y110350000D02*
X113700000Y110350000D01*
X113700000Y111350000D01*
X112900000Y111350000D01*
X112900000Y110350000D01*
G37*
G36*
X113600000Y107850000D02*
X114600000Y107850000D01*
X114600000Y108650000D01*
X113600000Y108650000D01*
X113600000Y107850000D01*
G37*
G36*
X110950000Y104350000D02*
X111750000Y104350000D01*
X111750000Y105350000D01*
X110950000Y105350000D01*
X110950000Y104350000D01*
G37*
G36*
X94200000Y94760000D02*
X95700000Y94760000D01*
X95700000Y95480000D01*
X94200000Y95480000D01*
X94200000Y94760000D01*
G37*
G36*
X94200000Y95160000D02*
X95700000Y95160000D01*
X95700000Y95880000D01*
X94200000Y95880000D01*
X94200000Y95160000D01*
G37*
G36*
X94200000Y95560000D02*
X95700000Y95560000D01*
X95700000Y96280000D01*
X94200000Y96280000D01*
X94200000Y95560000D01*
G37*
G36*
X94200000Y95960000D02*
X95700000Y95960000D01*
X95700000Y96680000D01*
X94200000Y96680000D01*
X94200000Y95960000D01*
G37*
G36*
X94200000Y96360000D02*
X95700000Y96360000D01*
X95700000Y97080000D01*
X94200000Y97080000D01*
X94200000Y96360000D01*
G37*
G36*
X94200000Y96760000D02*
X95700000Y96760000D01*
X95700000Y97480000D01*
X94200000Y97480000D01*
X94200000Y96760000D01*
G37*
G36*
X94200000Y97160000D02*
X95700000Y97160000D01*
X95700000Y97880000D01*
X94200000Y97880000D01*
X94200000Y97160000D01*
G37*
G36*
X94200000Y97560000D02*
X95700000Y97560000D01*
X95700000Y98280000D01*
X94200000Y98280000D01*
X94200000Y97560000D01*
G37*
G36*
X94200000Y97960000D02*
X95700000Y97960000D01*
X95700000Y98680000D01*
X94200000Y98680000D01*
X94200000Y97960000D01*
G37*
G36*
X94200000Y98360000D02*
X95700000Y98360000D01*
X95700000Y99080000D01*
X94200000Y99080000D01*
X94200000Y98360000D01*
G37*
G36*
X94200000Y98760000D02*
X95700000Y98760000D01*
X95700000Y99480000D01*
X94200000Y99480000D01*
X94200000Y98760000D01*
G37*
G36*
X94200000Y99160000D02*
X95700000Y99160000D01*
X95700000Y99880000D01*
X94200000Y99880000D01*
X94200000Y99160000D01*
G37*
G36*
X94200000Y99560000D02*
X95700000Y99560000D01*
X95700000Y100280000D01*
X94200000Y100280000D01*
X94200000Y99560000D01*
G37*
G36*
X94200000Y99960000D02*
X95700000Y99960000D01*
X95700000Y100680000D01*
X94200000Y100680000D01*
X94200000Y99960000D01*
G37*
G36*
X94200000Y100360000D02*
X95700000Y100360000D01*
X95700000Y101080000D01*
X94200000Y101080000D01*
X94200000Y100360000D01*
G37*
G36*
X94200000Y100760000D02*
X95700000Y100760000D01*
X95700000Y101480000D01*
X94200000Y101480000D01*
X94200000Y100760000D01*
G37*
G36*
X94200000Y101160000D02*
X95700000Y101160000D01*
X95700000Y101880000D01*
X94200000Y101880000D01*
X94200000Y101160000D01*
G37*
G36*
X94200000Y101560000D02*
X95700000Y101560000D01*
X95700000Y102280000D01*
X94200000Y102280000D01*
X94200000Y101560000D01*
G37*
G36*
X94200000Y101960000D02*
X95700000Y101960000D01*
X95700000Y102680000D01*
X94200000Y102680000D01*
X94200000Y101960000D01*
G37*
G36*
X94200000Y102360000D02*
X95700000Y102360000D01*
X95700000Y103080000D01*
X94200000Y103080000D01*
X94200000Y102360000D01*
G37*
G36*
X95840000Y103220000D02*
X96560000Y103220000D01*
X96560000Y104720000D01*
X95840000Y104720000D01*
X95840000Y103220000D01*
G37*
G36*
X96240000Y103220000D02*
X96960000Y103220000D01*
X96960000Y104720000D01*
X96240000Y104720000D01*
X96240000Y103220000D01*
G37*
G36*
X96640000Y103220000D02*
X97360000Y103220000D01*
X97360000Y104720000D01*
X96640000Y104720000D01*
X96640000Y103220000D01*
G37*
G36*
X97040000Y103220000D02*
X97760000Y103220000D01*
X97760000Y104720000D01*
X97040000Y104720000D01*
X97040000Y103220000D01*
G37*
G36*
X97440000Y103220000D02*
X98160000Y103220000D01*
X98160000Y104720000D01*
X97440000Y104720000D01*
X97440000Y103220000D01*
G37*
G36*
X97840000Y103220000D02*
X98560000Y103220000D01*
X98560000Y104720000D01*
X97840000Y104720000D01*
X97840000Y103220000D01*
G37*
G36*
X98240000Y103220000D02*
X98960000Y103220000D01*
X98960000Y104720000D01*
X98240000Y104720000D01*
X98240000Y103220000D01*
G37*
G36*
X98640000Y103220000D02*
X99360000Y103220000D01*
X99360000Y104720000D01*
X98640000Y104720000D01*
X98640000Y103220000D01*
G37*
G36*
X99040000Y103220000D02*
X99760000Y103220000D01*
X99760000Y104720000D01*
X99040000Y104720000D01*
X99040000Y103220000D01*
G37*
G36*
X99440000Y103220000D02*
X100160000Y103220000D01*
X100160000Y104720000D01*
X99440000Y104720000D01*
X99440000Y103220000D01*
G37*
G36*
X99840000Y103220000D02*
X100560000Y103220000D01*
X100560000Y104720000D01*
X99840000Y104720000D01*
X99840000Y103220000D01*
G37*
G36*
X100240000Y103220000D02*
X100960000Y103220000D01*
X100960000Y104720000D01*
X100240000Y104720000D01*
X100240000Y103220000D01*
G37*
G36*
X100640000Y103220000D02*
X101360000Y103220000D01*
X101360000Y104720000D01*
X100640000Y104720000D01*
X100640000Y103220000D01*
G37*
G36*
X101040000Y103220000D02*
X101760000Y103220000D01*
X101760000Y104720000D01*
X101040000Y104720000D01*
X101040000Y103220000D01*
G37*
G36*
X101440000Y103220000D02*
X102160000Y103220000D01*
X102160000Y104720000D01*
X101440000Y104720000D01*
X101440000Y103220000D01*
G37*
G36*
X101840000Y103220000D02*
X102560000Y103220000D01*
X102560000Y104720000D01*
X101840000Y104720000D01*
X101840000Y103220000D01*
G37*
G36*
X102240000Y103220000D02*
X102960000Y103220000D01*
X102960000Y104720000D01*
X102240000Y104720000D01*
X102240000Y103220000D01*
G37*
G36*
X102640000Y103220000D02*
X103360000Y103220000D01*
X103360000Y104720000D01*
X102640000Y104720000D01*
X102640000Y103220000D01*
G37*
G36*
X103040000Y103220000D02*
X103760000Y103220000D01*
X103760000Y104720000D01*
X103040000Y104720000D01*
X103040000Y103220000D01*
G37*
G36*
X103440000Y103220000D02*
X104160000Y103220000D01*
X104160000Y104720000D01*
X103440000Y104720000D01*
X103440000Y103220000D01*
G37*
G36*
X104300000Y102360000D02*
X105800000Y102360000D01*
X105800000Y103080000D01*
X104300000Y103080000D01*
X104300000Y102360000D01*
G37*
G36*
X104300000Y101960000D02*
X105800000Y101960000D01*
X105800000Y102680000D01*
X104300000Y102680000D01*
X104300000Y101960000D01*
G37*
G36*
X104300000Y101560000D02*
X105800000Y101560000D01*
X105800000Y102280000D01*
X104300000Y102280000D01*
X104300000Y101560000D01*
G37*
G36*
X104300000Y101160000D02*
X105800000Y101160000D01*
X105800000Y101880000D01*
X104300000Y101880000D01*
X104300000Y101160000D01*
G37*
G36*
X104300000Y100760000D02*
X105800000Y100760000D01*
X105800000Y101480000D01*
X104300000Y101480000D01*
X104300000Y100760000D01*
G37*
G36*
X104300000Y100360000D02*
X105800000Y100360000D01*
X105800000Y101080000D01*
X104300000Y101080000D01*
X104300000Y100360000D01*
G37*
G36*
X104300000Y99960000D02*
X105800000Y99960000D01*
X105800000Y100680000D01*
X104300000Y100680000D01*
X104300000Y99960000D01*
G37*
G36*
X104300000Y99560000D02*
X105800000Y99560000D01*
X105800000Y100280000D01*
X104300000Y100280000D01*
X104300000Y99560000D01*
G37*
G36*
X104300000Y99160000D02*
X105800000Y99160000D01*
X105800000Y99880000D01*
X104300000Y99880000D01*
X104300000Y99160000D01*
G37*
G36*
X104300000Y98760000D02*
X105800000Y98760000D01*
X105800000Y99480000D01*
X104300000Y99480000D01*
X104300000Y98760000D01*
G37*
G36*
X104300000Y98360000D02*
X105800000Y98360000D01*
X105800000Y99080000D01*
X104300000Y99080000D01*
X104300000Y98360000D01*
G37*
G36*
X104300000Y97960000D02*
X105800000Y97960000D01*
X105800000Y98680000D01*
X104300000Y98680000D01*
X104300000Y97960000D01*
G37*
G36*
X104300000Y97560000D02*
X105800000Y97560000D01*
X105800000Y98280000D01*
X104300000Y98280000D01*
X104300000Y97560000D01*
G37*
G36*
X104300000Y97160000D02*
X105800000Y97160000D01*
X105800000Y97880000D01*
X104300000Y97880000D01*
X104300000Y97160000D01*
G37*
G36*
X104300000Y96760000D02*
X105800000Y96760000D01*
X105800000Y97480000D01*
X104300000Y97480000D01*
X104300000Y96760000D01*
G37*
G36*
X104300000Y96360000D02*
X105800000Y96360000D01*
X105800000Y97080000D01*
X104300000Y97080000D01*
X104300000Y96360000D01*
G37*
G36*
X104300000Y95960000D02*
X105800000Y95960000D01*
X105800000Y96680000D01*
X104300000Y96680000D01*
X104300000Y95960000D01*
G37*
G36*
X104300000Y95560000D02*
X105800000Y95560000D01*
X105800000Y96280000D01*
X104300000Y96280000D01*
X104300000Y95560000D01*
G37*
G36*
X104300000Y95160000D02*
X105800000Y95160000D01*
X105800000Y95880000D01*
X104300000Y95880000D01*
X104300000Y95160000D01*
G37*
G36*
X104300000Y94760000D02*
X105800000Y94760000D01*
X105800000Y95480000D01*
X104300000Y95480000D01*
X104300000Y94760000D01*
G37*
G36*
X103440000Y93120000D02*
X104160000Y93120000D01*
X104160000Y94620000D01*
X103440000Y94620000D01*
X103440000Y93120000D01*
G37*
G36*
X103040000Y93120000D02*
X103760000Y93120000D01*
X103760000Y94620000D01*
X103040000Y94620000D01*
X103040000Y93120000D01*
G37*
G36*
X102640000Y93120000D02*
X103360000Y93120000D01*
X103360000Y94620000D01*
X102640000Y94620000D01*
X102640000Y93120000D01*
G37*
G36*
X102240000Y93120000D02*
X102960000Y93120000D01*
X102960000Y94620000D01*
X102240000Y94620000D01*
X102240000Y93120000D01*
G37*
G36*
X101840000Y93120000D02*
X102560000Y93120000D01*
X102560000Y94620000D01*
X101840000Y94620000D01*
X101840000Y93120000D01*
G37*
G36*
X101440000Y93120000D02*
X102160000Y93120000D01*
X102160000Y94620000D01*
X101440000Y94620000D01*
X101440000Y93120000D01*
G37*
G36*
X101040000Y93120000D02*
X101760000Y93120000D01*
X101760000Y94620000D01*
X101040000Y94620000D01*
X101040000Y93120000D01*
G37*
G36*
X100640000Y93120000D02*
X101360000Y93120000D01*
X101360000Y94620000D01*
X100640000Y94620000D01*
X100640000Y93120000D01*
G37*
G36*
X100240000Y93120000D02*
X100960000Y93120000D01*
X100960000Y94620000D01*
X100240000Y94620000D01*
X100240000Y93120000D01*
G37*
G36*
X99840000Y93120000D02*
X100560000Y93120000D01*
X100560000Y94620000D01*
X99840000Y94620000D01*
X99840000Y93120000D01*
G37*
G36*
X99440000Y93120000D02*
X100160000Y93120000D01*
X100160000Y94620000D01*
X99440000Y94620000D01*
X99440000Y93120000D01*
G37*
G36*
X99040000Y93120000D02*
X99760000Y93120000D01*
X99760000Y94620000D01*
X99040000Y94620000D01*
X99040000Y93120000D01*
G37*
G36*
X98640000Y93120000D02*
X99360000Y93120000D01*
X99360000Y94620000D01*
X98640000Y94620000D01*
X98640000Y93120000D01*
G37*
G36*
X98240000Y93120000D02*
X98960000Y93120000D01*
X98960000Y94620000D01*
X98240000Y94620000D01*
X98240000Y93120000D01*
G37*
G36*
X97840000Y93120000D02*
X98560000Y93120000D01*
X98560000Y94620000D01*
X97840000Y94620000D01*
X97840000Y93120000D01*
G37*
G36*
X97440000Y93120000D02*
X98160000Y93120000D01*
X98160000Y94620000D01*
X97440000Y94620000D01*
X97440000Y93120000D01*
G37*
G36*
X97040000Y93120000D02*
X97760000Y93120000D01*
X97760000Y94620000D01*
X97040000Y94620000D01*
X97040000Y93120000D01*
G37*
G36*
X96640000Y93120000D02*
X97360000Y93120000D01*
X97360000Y94620000D01*
X96640000Y94620000D01*
X96640000Y93120000D01*
G37*
G36*
X96240000Y93120000D02*
X96960000Y93120000D01*
X96960000Y94620000D01*
X96240000Y94620000D01*
X96240000Y93120000D01*
G37*
G36*
X95840000Y93120000D02*
X96560000Y93120000D01*
X96560000Y94620000D01*
X95840000Y94620000D01*
X95840000Y93120000D01*
G37*
G36*
X98400000Y88545000D02*
X99400000Y88545000D01*
X99400000Y89345000D01*
X98400000Y89345000D01*
X98400000Y88545000D01*
G37*
G36*
X98400000Y89045000D02*
X99400000Y89045000D01*
X99400000Y89845000D01*
X98400000Y89845000D01*
X98400000Y89045000D01*
G37*
G36*
X98400000Y89545000D02*
X99400000Y89545000D01*
X99400000Y90345000D01*
X98400000Y90345000D01*
X98400000Y89545000D01*
G37*
G36*
X98400000Y90045000D02*
X99400000Y90045000D01*
X99400000Y90845000D01*
X98400000Y90845000D01*
X98400000Y90045000D01*
G37*
G36*
X99100000Y90545000D02*
X99900000Y90545000D01*
X99900000Y91545000D01*
X99100000Y91545000D01*
X99100000Y90545000D01*
G37*
G36*
X100600000Y90045000D02*
X101600000Y90045000D01*
X101600000Y90845000D01*
X100600000Y90845000D01*
X100600000Y90045000D01*
G37*
G36*
X100600000Y89045000D02*
X101600000Y89045000D01*
X101600000Y89845000D01*
X100600000Y89845000D01*
X100600000Y89045000D01*
G37*
G36*
X100600000Y88545000D02*
X101600000Y88545000D01*
X101600000Y89345000D01*
X100600000Y89345000D01*
X100600000Y88545000D01*
G37*
G36*
X100100000Y87845000D02*
X100900000Y87845000D01*
X100900000Y88845000D01*
X100100000Y88845000D01*
X100100000Y87845000D01*
G37*
G36*
X99600000Y87845000D02*
X100400000Y87845000D01*
X100400000Y88845000D01*
X99600000Y88845000D01*
X99600000Y87845000D01*
G37*
G36*
X99100000Y87845000D02*
X99900000Y87845000D01*
X99900000Y88845000D01*
X99100000Y88845000D01*
X99100000Y87845000D01*
G37*
G36*
X104950000Y88587000D02*
X106050000Y88587000D01*
X106050000Y89487000D01*
X104950000Y89487000D01*
X104950000Y88587000D01*
G37*
G36*
X104950000Y89887000D02*
X106050000Y89887000D01*
X106050000Y90787000D01*
X104950000Y90787000D01*
X104950000Y89887000D01*
G37*
G36*
X104950000Y90537000D02*
X106050000Y90537000D01*
X106050000Y91437000D01*
X104950000Y91437000D01*
X104950000Y90537000D01*
G37*
G36*
X106950000Y89887000D02*
X108050000Y89887000D01*
X108050000Y90787000D01*
X106950000Y90787000D01*
X106950000Y89887000D01*
G37*
G36*
X106950000Y89237000D02*
X108050000Y89237000D01*
X108050000Y90137000D01*
X106950000Y90137000D01*
X106950000Y89237000D01*
G37*
G36*
X92175000Y89220000D02*
X93125000Y89220000D01*
X93125000Y90020000D01*
X92175000Y90020000D01*
X92175000Y89220000D01*
G37*
G36*
X92850000Y90745000D02*
X93650000Y90745000D01*
X93650000Y91695000D01*
X92850000Y91695000D01*
X92850000Y90745000D01*
G37*
G36*
X93350000Y90745000D02*
X94150000Y90745000D01*
X94150000Y91695000D01*
X93350000Y91695000D01*
X93350000Y90745000D01*
G37*
G36*
X93875000Y90720000D02*
X94825000Y90720000D01*
X94825000Y91520000D01*
X93875000Y91520000D01*
X93875000Y90720000D01*
G37*
G36*
X92850000Y89045000D02*
X93650000Y89045000D01*
X93650000Y89995000D01*
X92850000Y89995000D01*
X92850000Y89045000D01*
G37*
G36*
X98000000Y107775000D02*
X99800000Y107775000D01*
X99800000Y109275000D01*
X98000000Y109275000D01*
X98000000Y107775000D01*
G37*
G36*
X100200000Y106175000D02*
X102000000Y106175000D01*
X102000000Y107675000D01*
X100200000Y107675000D01*
X100200000Y106175000D01*
G37*
G36*
X88550000Y103750000D02*
X88550000Y105650000D01*
X84450000Y105650000D01*
X84450000Y103750000D01*
X88550000Y103750000D01*
G37*
G36*
X88550000Y100350000D02*
X88550000Y102250000D01*
X84450000Y102250000D01*
X84450000Y100350000D01*
X88550000Y100350000D01*
G37*
G36*
X120550000Y108750000D02*
X120550000Y110650000D01*
X116450000Y110650000D01*
X116450000Y108750000D01*
X120550000Y108750000D01*
G37*
G36*
X120550000Y105350000D02*
X120550000Y107250000D01*
X116450000Y107250000D01*
X116450000Y105350000D01*
X120550000Y105350000D01*
G37*
G36*
X94334000Y86260000D02*
X95709000Y86260000D01*
X95709000Y87710000D01*
X94334000Y87710000D01*
X94334000Y86260000D01*
G37*
G36*
X91635000Y82699000D02*
X93835000Y82699000D01*
X93835000Y84899000D01*
X91635000Y84899000D01*
X91635000Y82699000D01*
G37*
G36*
X96375000Y83799000D02*
X96347421Y84043773D01*
X96266066Y84276272D01*
X96135015Y84484839D01*
X95960839Y84659015D01*
X95752272Y84790066D01*
X95519773Y84871421D01*
X95275000Y84899000D01*
X95030227Y84871421D01*
X94797728Y84790066D01*
X94589161Y84659015D01*
X94414985Y84484839D01*
X94283934Y84276272D01*
X94202579Y84043773D01*
X94175000Y83799000D01*
X94202579Y83554227D01*
X94283934Y83321728D01*
X94414985Y83113161D01*
X94589161Y82938985D01*
X94797728Y82807934D01*
X95030227Y82726579D01*
X95275000Y82699000D01*
X95519773Y82726579D01*
X95752272Y82807934D01*
X95960839Y82938985D01*
X96135015Y83113161D01*
X96266066Y83321728D01*
X96347421Y83554227D01*
X96375000Y83799000D01*
G37*
G36*
X98915000Y83799000D02*
X98887421Y84043773D01*
X98806066Y84276272D01*
X98675015Y84484839D01*
X98500839Y84659015D01*
X98292272Y84790066D01*
X98059773Y84871421D01*
X97815000Y84899000D01*
X97570227Y84871421D01*
X97337728Y84790066D01*
X97129161Y84659015D01*
X96954985Y84484839D01*
X96823934Y84276272D01*
X96742579Y84043773D01*
X96715000Y83799000D01*
X96742579Y83554227D01*
X96823934Y83321728D01*
X96954985Y83113161D01*
X97129161Y82938985D01*
X97337728Y82807934D01*
X97570227Y82726579D01*
X97815000Y82699000D01*
X98059773Y82726579D01*
X98292272Y82807934D01*
X98500839Y82938985D01*
X98675015Y83113161D01*
X98806066Y83321728D01*
X98887421Y83554227D01*
X98915000Y83799000D01*
G37*
G36*
X101455000Y83799000D02*
X101427421Y84043773D01*
X101346066Y84276272D01*
X101215015Y84484839D01*
X101040839Y84659015D01*
X100832272Y84790066D01*
X100599773Y84871421D01*
X100355000Y84899000D01*
X100110227Y84871421D01*
X99877728Y84790066D01*
X99669161Y84659015D01*
X99494985Y84484839D01*
X99363934Y84276272D01*
X99282579Y84043773D01*
X99255000Y83799000D01*
X99282579Y83554227D01*
X99363934Y83321728D01*
X99494985Y83113161D01*
X99669161Y82938985D01*
X99877728Y82807934D01*
X100110227Y82726579D01*
X100355000Y82699000D01*
X100599773Y82726579D01*
X100832272Y82807934D01*
X101040839Y82938985D01*
X101215015Y83113161D01*
X101346066Y83321728D01*
X101427421Y83554227D01*
X101455000Y83799000D01*
G37*
G36*
X96886000Y124250000D02*
X100386000Y124250000D01*
X100386000Y127750000D01*
X96886000Y127750000D01*
X96886000Y124250000D01*
G37*
G36*
X72744482Y119480909D02*
X73310167Y120046594D01*
X72249507Y121107254D01*
X71683821Y120541569D01*
X72744482Y119480909D01*
G37*
G36*
X73451588Y118773802D02*
X74017274Y119339487D01*
X72956614Y120400148D01*
X72390928Y119834462D01*
X73451588Y118773802D01*
G37*
G36*
X73805142Y118420249D02*
X74370827Y118985934D01*
X73310167Y120046594D01*
X72744482Y119480909D01*
X73805142Y118420249D01*
G37*
G36*
X74158695Y118066695D02*
X74724381Y118632381D01*
X73663720Y119693041D01*
X73098035Y119127355D01*
X74158695Y118066695D01*
G37*
G36*
X74512249Y117713142D02*
X75077934Y118278827D01*
X74017274Y119339487D01*
X73451588Y118773802D01*
X74512249Y117713142D01*
G37*
G36*
X74229406Y120965833D02*
X74795091Y121531518D01*
X73734431Y122592179D01*
X73168746Y122026493D01*
X74229406Y120965833D01*
G37*
G36*
X74582959Y120612280D02*
X75148645Y121177965D01*
X74087984Y122238625D01*
X73522299Y121672940D01*
X74582959Y120612280D01*
G37*
G36*
X74936513Y120258726D02*
X75502198Y120824412D01*
X74441538Y121885072D01*
X73875852Y121319386D01*
X74936513Y120258726D01*
G37*
G36*
X75290066Y119905173D02*
X75855751Y120470858D01*
X74795091Y121531518D01*
X74229406Y120965833D01*
X75290066Y119905173D01*
G37*
G36*
X75643619Y119551619D02*
X76209305Y120117305D01*
X75148645Y121177965D01*
X74582959Y120612280D01*
X75643619Y119551619D01*
G37*
G36*
X75997173Y119198066D02*
X76562858Y119763751D01*
X75502198Y120824412D01*
X74936513Y120258726D01*
X75997173Y119198066D01*
G37*
G36*
X72359108Y120538033D02*
X73737967Y121916892D01*
X71899489Y123755369D01*
X70520631Y122376511D01*
X72359108Y120538033D01*
G37*
G36*
X78468511Y114428631D02*
X79847369Y115807489D01*
X78008892Y117645967D01*
X76630033Y116267108D01*
X78468511Y114428631D01*
G37*
G36*
X73773322Y121952247D02*
X75152180Y123331105D01*
X73313703Y125169583D01*
X71934844Y123790725D01*
X73773322Y121952247D01*
G37*
G36*
X79882725Y115842844D02*
X81261583Y117221703D01*
X79423105Y119060180D01*
X78044247Y117681322D01*
X79882725Y115842844D01*
G37*
G36*
X71050000Y105587000D02*
X71050000Y106787000D01*
X68950000Y106787000D01*
X68950000Y105587000D01*
X71050000Y105587000D01*
G37*
G36*
X71050000Y104487000D02*
X71050000Y105687000D01*
X68950000Y105687000D01*
X68950000Y104487000D01*
X71050000Y104487000D01*
G37*
G36*
X71050000Y103387000D02*
X71050000Y104587000D01*
X68950000Y104587000D01*
X68950000Y103387000D01*
X71050000Y103387000D01*
G37*
G36*
X71050000Y102287000D02*
X71050000Y103487000D01*
X68950000Y103487000D01*
X68950000Y102287000D01*
X71050000Y102287000D01*
G37*
G36*
X71050000Y101187000D02*
X71050000Y102387000D01*
X68950000Y102387000D01*
X68950000Y101187000D01*
X71050000Y101187000D01*
G37*
G36*
X71050000Y98987000D02*
X71050000Y100187000D01*
X68950000Y100187000D01*
X68950000Y98987000D01*
X71050000Y98987000D01*
G37*
G36*
X71050000Y97887000D02*
X71050000Y99087000D01*
X68950000Y99087000D01*
X68950000Y97887000D01*
X71050000Y97887000D01*
G37*
G36*
X75150000Y106787000D02*
X75150000Y108887000D01*
X72850000Y108887000D01*
X72850000Y106787000D01*
X75150000Y106787000D01*
G37*
G36*
X75150000Y94387000D02*
X75150000Y96487000D01*
X72850000Y96487000D01*
X72850000Y94387000D01*
X75150000Y94387000D01*
G37*
G36*
X72136949Y82503020D02*
X74328980Y84695051D01*
X72136949Y86887082D01*
X69944918Y84695051D01*
X72136949Y82503020D01*
G37*
G36*
X77279051Y81102949D02*
X77240189Y81447856D01*
X77125553Y81775469D01*
X76940890Y82069358D01*
X76695460Y82314788D01*
X76401571Y82499451D01*
X76073959Y82614087D01*
X75729051Y82652949D01*
X75384144Y82614087D01*
X75056531Y82499451D01*
X74762642Y82314788D01*
X74517212Y82069358D01*
X74332549Y81775469D01*
X74217913Y81447856D01*
X74179051Y81102949D01*
X74217913Y80758041D01*
X74332549Y80430429D01*
X74517212Y80136540D01*
X74762642Y79891110D01*
X75056531Y79706447D01*
X75384144Y79591811D01*
X75729051Y79552949D01*
X76073959Y79591811D01*
X76401571Y79706447D01*
X76695460Y79891110D01*
X76940890Y80136540D01*
X77125553Y80430429D01*
X77240189Y80758041D01*
X77279051Y81102949D01*
G37*
G36*
X85836165Y97060652D02*
X86613983Y97838470D01*
X85517967Y98934485D01*
X84740150Y98156668D01*
X85836165Y97060652D01*
G37*
G36*
X84952282Y94833266D02*
X85730099Y95611084D01*
X84634084Y96707099D01*
X83856266Y95929282D01*
X84952282Y94833266D01*
G37*
G36*
X106879000Y74611000D02*
X109079000Y74611000D01*
X109079000Y76811000D01*
X106879000Y76811000D01*
X106879000Y74611000D01*
G37*
G36*
X111619000Y75711000D02*
X111591421Y75955773D01*
X111510066Y76188272D01*
X111379015Y76396839D01*
X111204839Y76571015D01*
X110996272Y76702066D01*
X110763773Y76783421D01*
X110519000Y76811000D01*
X110274227Y76783421D01*
X110041728Y76702066D01*
X109833161Y76571015D01*
X109658985Y76396839D01*
X109527934Y76188272D01*
X109446579Y75955773D01*
X109419000Y75711000D01*
X109446579Y75466227D01*
X109527934Y75233728D01*
X109658985Y75025161D01*
X109833161Y74850985D01*
X110041728Y74719934D01*
X110274227Y74638579D01*
X110519000Y74611000D01*
X110763773Y74638579D01*
X110996272Y74719934D01*
X111204839Y74850985D01*
X111379015Y75025161D01*
X111510066Y75233728D01*
X111591421Y75466227D01*
X111619000Y75711000D01*
G37*
G36*
X114159000Y75711000D02*
X114131421Y75955773D01*
X114050066Y76188272D01*
X113919015Y76396839D01*
X113744839Y76571015D01*
X113536272Y76702066D01*
X113303773Y76783421D01*
X113059000Y76811000D01*
X112814227Y76783421D01*
X112581728Y76702066D01*
X112373161Y76571015D01*
X112198985Y76396839D01*
X112067934Y76188272D01*
X111986579Y75955773D01*
X111959000Y75711000D01*
X111986579Y75466227D01*
X112067934Y75233728D01*
X112198985Y75025161D01*
X112373161Y74850985D01*
X112581728Y74719934D01*
X112814227Y74638579D01*
X113059000Y74611000D01*
X113303773Y74638579D01*
X113536272Y74719934D01*
X113744839Y74850985D01*
X113919015Y75025161D01*
X114050066Y75233728D01*
X114131421Y75466227D01*
X114159000Y75711000D01*
G37*
G36*
X116699000Y75711000D02*
X116671421Y75955773D01*
X116590066Y76188272D01*
X116459015Y76396839D01*
X116284839Y76571015D01*
X116076272Y76702066D01*
X115843773Y76783421D01*
X115599000Y76811000D01*
X115354227Y76783421D01*
X115121728Y76702066D01*
X114913161Y76571015D01*
X114738985Y76396839D01*
X114607934Y76188272D01*
X114526579Y75955773D01*
X114499000Y75711000D01*
X114526579Y75466227D01*
X114607934Y75233728D01*
X114738985Y75025161D01*
X114913161Y74850985D01*
X115121728Y74719934D01*
X115354227Y74638579D01*
X115599000Y74611000D01*
X115843773Y74638579D01*
X116076272Y74719934D01*
X116284839Y74850985D01*
X116459015Y75025161D01*
X116590066Y75233728D01*
X116671421Y75466227D01*
X116699000Y75711000D01*
G37*
G36*
X122712000Y74963000D02*
X122712000Y77163000D01*
X120512000Y77163000D01*
X120512000Y74963000D01*
X122712000Y74963000D01*
G37*
G36*
X122712000Y78603000D02*
X122684421Y78847773D01*
X122603066Y79080272D01*
X122472015Y79288839D01*
X122297839Y79463015D01*
X122089272Y79594066D01*
X121856773Y79675421D01*
X121612000Y79703000D01*
X121367227Y79675421D01*
X121134728Y79594066D01*
X120926161Y79463015D01*
X120751985Y79288839D01*
X120620934Y79080272D01*
X120539579Y78847773D01*
X120512000Y78603000D01*
X120539579Y78358227D01*
X120620934Y78125728D01*
X120751985Y77917161D01*
X120926161Y77742985D01*
X121134728Y77611934D01*
X121367227Y77530579D01*
X121612000Y77503000D01*
X121856773Y77530579D01*
X122089272Y77611934D01*
X122297839Y77742985D01*
X122472015Y77917161D01*
X122603066Y78125728D01*
X122684421Y78358227D01*
X122712000Y78603000D01*
G37*
G36*
X122712000Y83683000D02*
X122684421Y83927773D01*
X122603066Y84160272D01*
X122472015Y84368839D01*
X122297839Y84543015D01*
X122089272Y84674066D01*
X121856773Y84755421D01*
X121612000Y84783000D01*
X121367227Y84755421D01*
X121134728Y84674066D01*
X120926161Y84543015D01*
X120751985Y84368839D01*
X120620934Y84160272D01*
X120539579Y83927773D01*
X120512000Y83683000D01*
X120539579Y83438227D01*
X120620934Y83205728D01*
X120751985Y82997161D01*
X120926161Y82822985D01*
X121134728Y82691934D01*
X121367227Y82610579D01*
X121612000Y82583000D01*
X121856773Y82610579D01*
X122089272Y82691934D01*
X122297839Y82822985D01*
X122472015Y82997161D01*
X122603066Y83205728D01*
X122684421Y83438227D01*
X122712000Y83683000D01*
G37*
G36*
X122712000Y86223000D02*
X122684421Y86467773D01*
X122603066Y86700272D01*
X122472015Y86908839D01*
X122297839Y87083015D01*
X122089272Y87214066D01*
X121856773Y87295421D01*
X121612000Y87323000D01*
X121367227Y87295421D01*
X121134728Y87214066D01*
X120926161Y87083015D01*
X120751985Y86908839D01*
X120620934Y86700272D01*
X120539579Y86467773D01*
X120512000Y86223000D01*
X120539579Y85978227D01*
X120620934Y85745728D01*
X120751985Y85537161D01*
X120926161Y85362985D01*
X121134728Y85231934D01*
X121367227Y85150579D01*
X121612000Y85123000D01*
X121856773Y85150579D01*
X122089272Y85231934D01*
X122297839Y85362985D01*
X122472015Y85537161D01*
X122603066Y85745728D01*
X122684421Y85978227D01*
X122712000Y86223000D01*
G37*
G36*
X122712000Y88763000D02*
X122684421Y89007773D01*
X122603066Y89240272D01*
X122472015Y89448839D01*
X122297839Y89623015D01*
X122089272Y89754066D01*
X121856773Y89835421D01*
X121612000Y89863000D01*
X121367227Y89835421D01*
X121134728Y89754066D01*
X120926161Y89623015D01*
X120751985Y89448839D01*
X120620934Y89240272D01*
X120539579Y89007773D01*
X120512000Y88763000D01*
X120539579Y88518227D01*
X120620934Y88285728D01*
X120751985Y88077161D01*
X120926161Y87902985D01*
X121134728Y87771934D01*
X121367227Y87690579D01*
X121612000Y87663000D01*
X121856773Y87690579D01*
X122089272Y87771934D01*
X122297839Y87902985D01*
X122472015Y88077161D01*
X122603066Y88285728D01*
X122684421Y88518227D01*
X122712000Y88763000D01*
G37*
G36*
X122712000Y91303000D02*
X122684421Y91547773D01*
X122603066Y91780272D01*
X122472015Y91988839D01*
X122297839Y92163015D01*
X122089272Y92294066D01*
X121856773Y92375421D01*
X121612000Y92403000D01*
X121367227Y92375421D01*
X121134728Y92294066D01*
X120926161Y92163015D01*
X120751985Y91988839D01*
X120620934Y91780272D01*
X120539579Y91547773D01*
X120512000Y91303000D01*
X120539579Y91058227D01*
X120620934Y90825728D01*
X120751985Y90617161D01*
X120926161Y90442985D01*
X121134728Y90311934D01*
X121367227Y90230579D01*
X121612000Y90203000D01*
X121856773Y90230579D01*
X122089272Y90311934D01*
X122297839Y90442985D01*
X122472015Y90617161D01*
X122603066Y90825728D01*
X122684421Y91058227D01*
X122712000Y91303000D01*
G37*
G36*
X114567000Y125795000D02*
X114567000Y128895000D01*
X111467000Y128895000D01*
X111467000Y125795000D01*
X114567000Y125795000D01*
G37*
G36*
X114567000Y132425000D02*
X114528138Y132769907D01*
X114413502Y133097520D01*
X114228839Y133391409D01*
X113983409Y133636839D01*
X113689520Y133821502D01*
X113361907Y133936138D01*
X113017000Y133975000D01*
X112672093Y133936138D01*
X112344480Y133821502D01*
X112050591Y133636839D01*
X111805161Y133391409D01*
X111620498Y133097520D01*
X111505862Y132769907D01*
X111467000Y132425000D01*
X111505862Y132080093D01*
X111620498Y131752480D01*
X111805161Y131458591D01*
X112050591Y131213161D01*
X112344480Y131028498D01*
X112672093Y130913862D01*
X113017000Y130875000D01*
X113361907Y130913862D01*
X113689520Y131028498D01*
X113983409Y131213161D01*
X114228839Y131458591D01*
X114413502Y131752480D01*
X114528138Y132080093D01*
X114567000Y132425000D01*
G37*
G36*
X129579000Y104000000D02*
X132679000Y104000000D01*
X132679000Y107100000D01*
X129579000Y107100000D01*
X129579000Y104000000D01*
G37*
G36*
X127599000Y105550000D02*
X127560138Y105894907D01*
X127445502Y106222520D01*
X127260839Y106516409D01*
X127015409Y106761839D01*
X126721520Y106946502D01*
X126393907Y107061138D01*
X126049000Y107100000D01*
X125704093Y107061138D01*
X125376480Y106946502D01*
X125082591Y106761839D01*
X124837161Y106516409D01*
X124652498Y106222520D01*
X124537862Y105894907D01*
X124499000Y105550000D01*
X124537862Y105205093D01*
X124652498Y104877480D01*
X124837161Y104583591D01*
X125082591Y104338161D01*
X125376480Y104153498D01*
X125704093Y104038862D01*
X126049000Y104000000D01*
X126393907Y104038862D01*
X126721520Y104153498D01*
X127015409Y104338161D01*
X127260839Y104583591D01*
X127445502Y104877480D01*
X127560138Y105205093D01*
X127599000Y105550000D01*
G37*
G36*
X92900474Y131137124D02*
X89987427Y132197386D01*
X88927164Y129284339D01*
X91840212Y128224076D01*
X92900474Y131137124D01*
G37*
G36*
X87690181Y128473269D02*
X87651319Y128818176D01*
X87536682Y129145789D01*
X87352020Y129439678D01*
X87106590Y129685108D01*
X86812701Y129869771D01*
X86485088Y129984407D01*
X86140181Y130023269D01*
X85795273Y129984407D01*
X85467661Y129869771D01*
X85173772Y129685108D01*
X84928342Y129439678D01*
X84743679Y129145789D01*
X84629042Y128818176D01*
X84590181Y128473269D01*
X84629042Y128128361D01*
X84743679Y127800749D01*
X84928342Y127506860D01*
X85173772Y127261430D01*
X85467661Y127076767D01*
X85795273Y126962131D01*
X86140181Y126923269D01*
X86485088Y126962131D01*
X86812701Y127076767D01*
X87106590Y127261430D01*
X87352020Y127506860D01*
X87536682Y127800749D01*
X87651319Y128128361D01*
X87690181Y128473269D01*
G37*
G36*
X94526827Y120287408D02*
X93493165Y120663630D01*
X92963034Y119207107D01*
X93996695Y118830884D01*
X94526827Y120287408D01*
G37*
G36*
X92741411Y119637570D02*
X91707749Y120013792D01*
X91177618Y118557268D01*
X92211279Y118181046D01*
X92741411Y119637570D01*
G37*
G36*
X92881674Y122029813D02*
X91848013Y122406035D01*
X91317881Y120949511D01*
X92351543Y120573289D01*
X92881674Y122029813D01*
G37*
G36*
X98256927Y116303107D02*
X96283573Y117021349D01*
X94881290Y113168610D01*
X96854645Y112450367D01*
X98256927Y116303107D01*
G37*
G36*
X86047199Y70618991D02*
X88421937Y72611632D01*
X86429295Y74986370D01*
X84054557Y72993729D01*
X86047199Y70618991D01*
G37*
G36*
X91679753Y69537319D02*
X91640891Y69882227D01*
X91526255Y70209839D01*
X91341592Y70503729D01*
X91096162Y70749158D01*
X90802273Y70933821D01*
X90474660Y71048458D01*
X90129753Y71087319D01*
X89784845Y71048458D01*
X89457233Y70933821D01*
X89163344Y70749158D01*
X88917914Y70503729D01*
X88733251Y70209839D01*
X88618615Y69882227D01*
X88579753Y69537319D01*
X88618615Y69192412D01*
X88733251Y68864800D01*
X88917914Y68570910D01*
X89163344Y68325481D01*
X89457233Y68140818D01*
X89784845Y68026181D01*
X90129753Y67987319D01*
X90474660Y68026181D01*
X90802273Y68140818D01*
X91096162Y68325481D01*
X91341592Y68570910D01*
X91526255Y68864800D01*
X91640891Y69192412D01*
X91679753Y69537319D01*
G37*
G36*
X85790160Y81733079D02*
X86632809Y82440146D01*
X85636488Y83627515D01*
X84793839Y82920448D01*
X85790160Y81733079D01*
G37*
G36*
X87245645Y80511783D02*
X88088293Y81218849D01*
X87091973Y82406218D01*
X86249324Y81699152D01*
X87245645Y80511783D01*
G37*
G36*
X85103770Y79437133D02*
X85946418Y80144200D01*
X84950098Y81331569D01*
X84107449Y80624502D01*
X85103770Y79437133D01*
G37*
G36*
X84212839Y88513766D02*
X85821532Y89863620D01*
X83186103Y93004402D01*
X81577410Y91654548D01*
X84212839Y88513766D01*
G37*
G36*
X125735327Y93104886D02*
X126273636Y90051982D01*
X129326540Y90590291D01*
X128788231Y93643195D01*
X125735327Y93104886D01*
G37*
G36*
X129963066Y96850412D02*
X129924205Y97195319D01*
X129809568Y97522931D01*
X129624905Y97816821D01*
X129379476Y98062250D01*
X129085586Y98246913D01*
X128757974Y98361550D01*
X128413066Y98400412D01*
X128068159Y98361550D01*
X127740547Y98246913D01*
X127446657Y98062250D01*
X127201228Y97816821D01*
X127016565Y97522931D01*
X126901928Y97195319D01*
X126863066Y96850412D01*
X126901928Y96505504D01*
X127016565Y96177892D01*
X127201228Y95884002D01*
X127446657Y95638573D01*
X127740547Y95453910D01*
X128068159Y95339273D01*
X128413066Y95300412D01*
X128757974Y95339273D01*
X129085586Y95453910D01*
X129379476Y95638573D01*
X129624905Y95884002D01*
X129809568Y96177892D01*
X129924205Y96505504D01*
X129963066Y96850412D01*
G37*
G36*
X116280013Y95842513D02*
X116471026Y94759224D01*
X117997478Y95028379D01*
X117806465Y96111667D01*
X116280013Y95842513D01*
G37*
G36*
X116609945Y97713647D02*
X116800958Y96630359D01*
X118327410Y96899513D01*
X118136397Y97982802D01*
X116609945Y97713647D01*
G37*
G36*
X118611556Y96396054D02*
X118802569Y95312765D01*
X120329021Y95581920D01*
X120138008Y96665209D01*
X118611556Y96396054D01*
G37*
G36*
X109781234Y94696127D02*
X110145895Y92628031D01*
X114183607Y93339988D01*
X113818946Y95408084D01*
X109781234Y94696127D01*
G37*
G36*
X104400000Y127115000D02*
X106700000Y127115000D01*
X106700000Y129415000D01*
X104400000Y129415000D01*
X104400000Y127115000D01*
G37*
G36*
X71541000Y93814000D02*
X73841000Y93814000D01*
X73841000Y96114000D01*
X71541000Y96114000D01*
X71541000Y93814000D01*
G37*
G36*
X115792000Y76635000D02*
X118092000Y76635000D01*
X118092000Y78935000D01*
X115792000Y78935000D01*
X115792000Y76635000D01*
G37*
G36*
X93651000Y78944000D02*
X95851000Y78944000D01*
X95851000Y81144000D01*
X93651000Y81144000D01*
X93651000Y78944000D01*
G37*
G36*
X108616000Y123243000D02*
X111716000Y123243000D01*
X111716000Y126343000D01*
X108616000Y126343000D01*
X108616000Y123243000D01*
G37*
G36*
X140050000Y100000000D02*
X139968516Y100723193D01*
X139728149Y101410122D01*
X139340952Y102026342D01*
X138826342Y102540952D01*
X138210122Y102928149D01*
X137523193Y103168516D01*
X136800000Y103250000D01*
X136076807Y103168516D01*
X135389878Y102928149D01*
X134773658Y102540952D01*
X134259048Y102026342D01*
X133871851Y101410122D01*
X133631484Y100723193D01*
X133550000Y100000000D01*
X133631484Y99276807D01*
X133871851Y98589878D01*
X134259048Y97973658D01*
X134773658Y97459048D01*
X135389878Y97071851D01*
X136076807Y96831484D01*
X136800000Y96750000D01*
X137523193Y96831484D01*
X138210122Y97071851D01*
X138826342Y97459048D01*
X139340952Y97973658D01*
X139728149Y98589878D01*
X139968516Y99276807D01*
X140050000Y100000000D01*
G37*
G36*
X103250000Y136800000D02*
X103168516Y137523193D01*
X102928149Y138210122D01*
X102540952Y138826342D01*
X102026342Y139340952D01*
X101410122Y139728149D01*
X100723193Y139968516D01*
X100000000Y140050000D01*
X99276807Y139968516D01*
X98589878Y139728149D01*
X97973658Y139340952D01*
X97459048Y138826342D01*
X97071851Y138210122D01*
X96831484Y137523193D01*
X96750000Y136800000D01*
X96831484Y136076807D01*
X97071851Y135389878D01*
X97459048Y134773658D01*
X97973658Y134259048D01*
X98589878Y133871851D01*
X99276807Y133631484D01*
X100000000Y133550000D01*
X100723193Y133631484D01*
X101410122Y133871851D01*
X102026342Y134259048D01*
X102540952Y134773658D01*
X102928149Y135389878D01*
X103168516Y136076807D01*
X103250000Y136800000D01*
G37*
G36*
X66450000Y100000000D02*
X66368516Y100723193D01*
X66128149Y101410122D01*
X65740952Y102026342D01*
X65226342Y102540952D01*
X64610122Y102928149D01*
X63923193Y103168516D01*
X63200000Y103250000D01*
X62476807Y103168516D01*
X61789878Y102928149D01*
X61173658Y102540952D01*
X60659048Y102026342D01*
X60271851Y101410122D01*
X60031484Y100723193D01*
X59950000Y100000000D01*
X60031484Y99276807D01*
X60271851Y98589878D01*
X60659048Y97973658D01*
X61173658Y97459048D01*
X61789878Y97071851D01*
X62476807Y96831484D01*
X63200000Y96750000D01*
X63923193Y96831484D01*
X64610122Y97071851D01*
X65226342Y97459048D01*
X65740952Y97973658D01*
X66128149Y98589878D01*
X66368516Y99276807D01*
X66450000Y100000000D01*
G37*
G36*
X103250000Y63200000D02*
X103168516Y63923193D01*
X102928149Y64610122D01*
X102540952Y65226342D01*
X102026342Y65740952D01*
X101410122Y66128149D01*
X100723193Y66368516D01*
X100000000Y66450000D01*
X99276807Y66368516D01*
X98589878Y66128149D01*
X97973658Y65740952D01*
X97459048Y65226342D01*
X97071851Y64610122D01*
X96831484Y63923193D01*
X96750000Y63200000D01*
X96831484Y62476807D01*
X97071851Y61789878D01*
X97459048Y61173658D01*
X97973658Y60659048D01*
X98589878Y60271851D01*
X99276807Y60031484D01*
X100000000Y59950000D01*
X100723193Y60031484D01*
X101410122Y60271851D01*
X102026342Y60659048D01*
X102540952Y61173658D01*
X102928149Y61789878D01*
X103168516Y62476807D01*
X103250000Y63200000D01*
G37*
G36*
X95300000Y95250000D02*
X92600000Y95250000D01*
X92600000Y95950000D01*
X95300000Y95950000D01*
X95300000Y95250000D01*
G37*
G36*
X95300000Y96850000D02*
X92600000Y96850000D01*
X92600000Y97550000D01*
X95300000Y97550000D01*
X95300000Y96850000D01*
G37*
G36*
X95300000Y97650000D02*
X92600000Y97650000D01*
X92600000Y98350000D01*
X95300000Y98350000D01*
X95300000Y97650000D01*
G37*
G36*
X95300000Y100450000D02*
X93600000Y100450000D01*
X93600000Y101150000D01*
X95300000Y101150000D01*
X95300000Y100450000D01*
G37*
G36*
X101050000Y103700000D02*
X101050000Y106400000D01*
X101750000Y106400000D01*
X101750000Y103700000D01*
X101050000Y103700000D01*
G37*
G36*
X101450000Y103700000D02*
X101450000Y105400000D01*
X102150000Y105400000D01*
X102150000Y103700000D01*
X101450000Y103700000D01*
G37*
G36*
X102650000Y103700000D02*
X102650000Y106400000D01*
X103350000Y106400000D01*
X103350000Y103700000D01*
X102650000Y103700000D01*
G37*
G36*
X104700000Y97550000D02*
X106400000Y97550000D01*
X106400000Y96850000D01*
X104700000Y96850000D01*
X104700000Y97550000D01*
G37*
G36*
X104700000Y96350000D02*
X107400000Y96350000D01*
X107400000Y95650000D01*
X104700000Y95650000D01*
X104700000Y96350000D01*
G37*
G36*
X101350000Y94300000D02*
X101350000Y91600000D01*
X100650000Y91600000D01*
X100650000Y94300000D01*
X101350000Y94300000D01*
G37*
G36*
X98950000Y94300000D02*
X98950000Y91600000D01*
X98250000Y91600000D01*
X98250000Y94300000D01*
X98950000Y94300000D01*
G37*
G36*
X91940000Y89645025D02*
X81965025Y99620000D01*
X82460000Y100114975D01*
X92434975Y90140000D01*
X91940000Y89645025D01*
G37*
G36*
X82810000Y99270000D02*
X70350000Y99270000D01*
X70350000Y99970000D01*
X82810000Y99970000D01*
X82810000Y99270000D01*
G37*
G36*
X100950000Y104070000D02*
X100950000Y105850000D01*
X101650000Y105850000D01*
X101650000Y104070000D01*
X100950000Y104070000D01*
G37*
G36*
X101300000Y105005025D02*
X100685025Y105620000D01*
X101180000Y106114975D01*
X101794975Y105500000D01*
X101300000Y105005025D01*
G37*
G36*
X100830000Y105270000D02*
X100830000Y106810000D01*
X101530000Y106810000D01*
X101530000Y105270000D01*
X100830000Y105270000D01*
G37*
G36*
X110434975Y110660000D02*
X109820000Y110045025D01*
X109325025Y110540000D01*
X109940000Y111154975D01*
X110434975Y110660000D01*
G37*
G36*
X110170000Y110190000D02*
X108630000Y110190000D01*
X108630000Y110890000D01*
X110170000Y110890000D01*
X110170000Y110190000D01*
G37*
G36*
X109474975Y110540000D02*
X108380000Y109445025D01*
X107885025Y109940000D01*
X108980000Y111034975D01*
X109474975Y110540000D01*
G37*
G36*
X108730000Y109590000D02*
X102150000Y109590000D01*
X102150000Y110290000D01*
X108730000Y110290000D01*
X108730000Y109590000D01*
G37*
G36*
X117557817Y109100000D02*
X114860000Y106402183D01*
X114082183Y107180000D01*
X116780000Y109877817D01*
X117557817Y109100000D01*
G37*
G36*
X115410000Y107730000D02*
X115410000Y105790000D01*
X114310000Y105790000D01*
X114310000Y107730000D01*
X115410000Y107730000D01*
G37*
G36*
X115637817Y106340000D02*
X114140000Y104842183D01*
X113362183Y105620000D01*
X114860000Y107117817D01*
X115637817Y106340000D01*
G37*
G36*
X118960000Y102400000D02*
X118960000Y105480000D01*
X119640000Y105480000D01*
X119640000Y102400000D01*
X118960000Y102400000D01*
G37*
G36*
X121340000Y114859167D02*
X119779167Y116420000D01*
X120260000Y116900833D01*
X121820833Y115340000D01*
X121340000Y114859167D01*
G37*
G36*
X120600000Y116080000D02*
X108760000Y116080000D01*
X108760000Y116760000D01*
X120600000Y116760000D01*
X120600000Y116080000D01*
G37*
G36*
X109100000Y115939167D02*
X107539167Y117500000D01*
X108020000Y117980833D01*
X109580833Y116420000D01*
X109100000Y115939167D01*
G37*
G36*
X107680000Y117160000D02*
X107680000Y119640000D01*
X108360000Y119640000D01*
X108360000Y117160000D01*
X107680000Y117160000D01*
G37*
G36*
X99210000Y88820000D02*
X99196210Y88942387D01*
X99155533Y89058636D01*
X99090007Y89162919D01*
X99002919Y89250007D01*
X98898636Y89315533D01*
X98782387Y89356210D01*
X98660000Y89370000D01*
X98537613Y89356210D01*
X98421364Y89315533D01*
X98317081Y89250007D01*
X98229993Y89162919D01*
X98164467Y89058636D01*
X98123790Y88942387D01*
X98110000Y88820000D01*
X98123790Y88697613D01*
X98164467Y88581364D01*
X98229993Y88477081D01*
X98317081Y88389993D01*
X98421364Y88324467D01*
X98537613Y88283790D01*
X98660000Y88270000D01*
X98782387Y88283790D01*
X98898636Y88324467D01*
X99002919Y88389993D01*
X99090007Y88477081D01*
X99155533Y88581364D01*
X99196210Y88697613D01*
X99210000Y88820000D01*
G37*
G36*
X92490000Y90140000D02*
X92476210Y90262387D01*
X92435533Y90378636D01*
X92370007Y90482919D01*
X92282919Y90570007D01*
X92178636Y90635533D01*
X92062387Y90676210D01*
X91940000Y90690000D01*
X91817613Y90676210D01*
X91701364Y90635533D01*
X91597081Y90570007D01*
X91509993Y90482919D01*
X91444467Y90378636D01*
X91403790Y90262387D01*
X91390000Y90140000D01*
X91403790Y90017613D01*
X91444467Y89901364D01*
X91509993Y89797081D01*
X91597081Y89709993D01*
X91701364Y89644467D01*
X91817613Y89603790D01*
X91940000Y89590000D01*
X92062387Y89603790D01*
X92178636Y89644467D01*
X92282919Y89709993D01*
X92370007Y89797081D01*
X92435533Y89901364D01*
X92476210Y90017613D01*
X92490000Y90140000D01*
G37*
G36*
X103050000Y109940000D02*
X103036210Y110062387D01*
X102995533Y110178636D01*
X102930007Y110282919D01*
X102842919Y110370007D01*
X102738636Y110435533D01*
X102622387Y110476210D01*
X102500000Y110490000D01*
X102377613Y110476210D01*
X102261364Y110435533D01*
X102157081Y110370007D01*
X102069993Y110282919D01*
X102004467Y110178636D01*
X101963790Y110062387D01*
X101950000Y109940000D01*
X101963790Y109817613D01*
X102004467Y109701364D01*
X102069993Y109597081D01*
X102157081Y109509993D01*
X102261364Y109444467D01*
X102377613Y109403790D01*
X102500000Y109390000D01*
X102622387Y109403790D01*
X102738636Y109444467D01*
X102842919Y109509993D01*
X102930007Y109597081D01*
X102995533Y109701364D01*
X103036210Y109817613D01*
X103050000Y109940000D01*
G37*
G36*
X93450000Y97940000D02*
X93436210Y98062387D01*
X93395533Y98178636D01*
X93330007Y98282919D01*
X93242919Y98370007D01*
X93138636Y98435533D01*
X93022387Y98476210D01*
X92900000Y98490000D01*
X92777613Y98476210D01*
X92661364Y98435533D01*
X92557081Y98370007D01*
X92469993Y98282919D01*
X92404467Y98178636D01*
X92363790Y98062387D01*
X92350000Y97940000D01*
X92363790Y97817613D01*
X92404467Y97701364D01*
X92469993Y97597081D01*
X92557081Y97509993D01*
X92661364Y97444467D01*
X92777613Y97403790D01*
X92900000Y97390000D01*
X93022387Y97403790D01*
X93138636Y97444467D01*
X93242919Y97509993D01*
X93330007Y97597081D01*
X93395533Y97701364D01*
X93436210Y97817613D01*
X93450000Y97940000D01*
G37*
G36*
X114690000Y105620000D02*
X114676210Y105742387D01*
X114635533Y105858636D01*
X114570007Y105962919D01*
X114482919Y106050007D01*
X114378636Y106115533D01*
X114262387Y106156210D01*
X114140000Y106170000D01*
X114017613Y106156210D01*
X113901364Y106115533D01*
X113797081Y106050007D01*
X113709993Y105962919D01*
X113644467Y105858636D01*
X113603790Y105742387D01*
X113590000Y105620000D01*
X113603790Y105497613D01*
X113644467Y105381364D01*
X113709993Y105277081D01*
X113797081Y105189993D01*
X113901364Y105124467D01*
X114017613Y105083790D01*
X114140000Y105070000D01*
X114262387Y105083790D01*
X114378636Y105124467D01*
X114482919Y105189993D01*
X114570007Y105277081D01*
X114635533Y105381364D01*
X114676210Y105497613D01*
X114690000Y105620000D01*
G37*
G36*
X119850000Y102740000D02*
X119836210Y102862387D01*
X119795533Y102978636D01*
X119730007Y103082919D01*
X119642919Y103170007D01*
X119538636Y103235533D01*
X119422387Y103276210D01*
X119300000Y103290000D01*
X119177613Y103276210D01*
X119061364Y103235533D01*
X118957081Y103170007D01*
X118869993Y103082919D01*
X118804467Y102978636D01*
X118763790Y102862387D01*
X118750000Y102740000D01*
X118763790Y102617613D01*
X118804467Y102501364D01*
X118869993Y102397081D01*
X118957081Y102309993D01*
X119061364Y102244467D01*
X119177613Y102203790D01*
X119300000Y102190000D01*
X119422387Y102203790D01*
X119538636Y102244467D01*
X119642919Y102309993D01*
X119730007Y102397081D01*
X119795533Y102501364D01*
X119836210Y102617613D01*
X119850000Y102740000D01*
G37*
G36*
X119850000Y105140000D02*
X119836210Y105262387D01*
X119795533Y105378636D01*
X119730007Y105482919D01*
X119642919Y105570007D01*
X119538636Y105635533D01*
X119422387Y105676210D01*
X119300000Y105690000D01*
X119177613Y105676210D01*
X119061364Y105635533D01*
X118957081Y105570007D01*
X118869993Y105482919D01*
X118804467Y105378636D01*
X118763790Y105262387D01*
X118750000Y105140000D01*
X118763790Y105017613D01*
X118804467Y104901364D01*
X118869993Y104797081D01*
X118957081Y104709993D01*
X119061364Y104644467D01*
X119177613Y104603790D01*
X119300000Y104590000D01*
X119422387Y104603790D01*
X119538636Y104644467D01*
X119642919Y104709993D01*
X119730007Y104797081D01*
X119795533Y104901364D01*
X119836210Y105017613D01*
X119850000Y105140000D01*
G37*
G36*
X121890000Y115340000D02*
X121876210Y115462387D01*
X121835533Y115578636D01*
X121770007Y115682919D01*
X121682919Y115770007D01*
X121578636Y115835533D01*
X121462387Y115876210D01*
X121340000Y115890000D01*
X121217613Y115876210D01*
X121101364Y115835533D01*
X120997081Y115770007D01*
X120909993Y115682919D01*
X120844467Y115578636D01*
X120803790Y115462387D01*
X120790000Y115340000D01*
X120803790Y115217613D01*
X120844467Y115101364D01*
X120909993Y114997081D01*
X120997081Y114909993D01*
X121101364Y114844467D01*
X121217613Y114803790D01*
X121340000Y114790000D01*
X121462387Y114803790D01*
X121578636Y114844467D01*
X121682919Y114909993D01*
X121770007Y114997081D01*
X121835533Y115101364D01*
X121876210Y115217613D01*
X121890000Y115340000D01*
G37*
G36*
X108570000Y119300000D02*
X108556210Y119422387D01*
X108515533Y119538636D01*
X108450007Y119642919D01*
X108362919Y119730007D01*
X108258636Y119795533D01*
X108142387Y119836210D01*
X108020000Y119850000D01*
X107897613Y119836210D01*
X107781364Y119795533D01*
X107677081Y119730007D01*
X107589993Y119642919D01*
X107524467Y119538636D01*
X107483790Y119422387D01*
X107470000Y119300000D01*
X107483790Y119177613D01*
X107524467Y119061364D01*
X107589993Y118957081D01*
X107677081Y118869993D01*
X107781364Y118804467D01*
X107897613Y118763790D01*
X108020000Y118750000D01*
X108142387Y118763790D01*
X108258636Y118804467D01*
X108362919Y118869993D01*
X108450007Y118957081D01*
X108515533Y119061364D01*
X108556210Y119177613D01*
X108570000Y119300000D01*
G37*
%LPD*%
G36*
X109650000Y105900000D02*
X110150000Y105900000D01*
X110150000Y106200000D01*
X109650000Y106200000D01*
X109650000Y105900000D01*
G37*
G36*
X109650000Y106550000D02*
X110150000Y106550000D01*
X110150000Y106850000D01*
X109650000Y106850000D01*
X109650000Y106550000D01*
G37*
G36*
X109650000Y107200000D02*
X110150000Y107200000D01*
X110150000Y107500000D01*
X109650000Y107500000D01*
X109650000Y107200000D01*
G37*
G36*
X109650000Y107850000D02*
X110150000Y107850000D01*
X110150000Y108150000D01*
X109650000Y108150000D01*
X109650000Y107850000D01*
G37*
G36*
X109650000Y108500000D02*
X110150000Y108500000D01*
X110150000Y108800000D01*
X109650000Y108800000D01*
X109650000Y108500000D01*
G37*
G36*
X109650000Y109150000D02*
X110150000Y109150000D01*
X110150000Y109450000D01*
X109650000Y109450000D01*
X109650000Y109150000D01*
G37*
G36*
X109650000Y109800000D02*
X110150000Y109800000D01*
X110150000Y110100000D01*
X109650000Y110100000D01*
X109650000Y109800000D01*
G37*
G36*
X109900000Y110600000D02*
X110200000Y110600000D01*
X110200000Y111100000D01*
X109900000Y111100000D01*
X109900000Y110600000D01*
G37*
G36*
X110550000Y110600000D02*
X110850000Y110600000D01*
X110850000Y111100000D01*
X110550000Y111100000D01*
X110550000Y110600000D01*
G37*
G36*
X111200000Y110600000D02*
X111500000Y110600000D01*
X111500000Y111100000D01*
X111200000Y111100000D01*
X111200000Y110600000D01*
G37*
G36*
X111850000Y110600000D02*
X112150000Y110600000D01*
X112150000Y111100000D01*
X111850000Y111100000D01*
X111850000Y110600000D01*
G37*
G36*
X112500000Y110600000D02*
X112800000Y110600000D01*
X112800000Y111100000D01*
X112500000Y111100000D01*
X112500000Y110600000D01*
G37*
G36*
X113150000Y110600000D02*
X113450000Y110600000D01*
X113450000Y111100000D01*
X113150000Y111100000D01*
X113150000Y110600000D01*
G37*
G36*
X113800000Y110600000D02*
X114100000Y110600000D01*
X114100000Y111100000D01*
X113800000Y111100000D01*
X113800000Y110600000D01*
G37*
G36*
X113850000Y110700000D02*
X114350000Y110700000D01*
X114350000Y111000000D01*
X113850000Y111000000D01*
X113850000Y110700000D01*
G37*
G36*
X113850000Y110050000D02*
X114350000Y110050000D01*
X114350000Y110350000D01*
X113850000Y110350000D01*
X113850000Y110050000D01*
G37*
G36*
X113850000Y109400000D02*
X114350000Y109400000D01*
X114350000Y109700000D01*
X113850000Y109700000D01*
X113850000Y109400000D01*
G37*
G36*
X113850000Y108750000D02*
X114350000Y108750000D01*
X114350000Y109050000D01*
X113850000Y109050000D01*
X113850000Y108750000D01*
G37*
G36*
X113850000Y108100000D02*
X114350000Y108100000D01*
X114350000Y108400000D01*
X113850000Y108400000D01*
X113850000Y108100000D01*
G37*
G36*
X113850000Y107450000D02*
X114350000Y107450000D01*
X114350000Y107750000D01*
X113850000Y107750000D01*
X113850000Y107450000D01*
G37*
G36*
X113850000Y106800000D02*
X114350000Y106800000D01*
X114350000Y107100000D01*
X113850000Y107100000D01*
X113850000Y106800000D01*
G37*
G36*
X113800000Y104600000D02*
X114100000Y104600000D01*
X114100000Y105100000D01*
X113800000Y105100000D01*
X113800000Y104600000D01*
G37*
G36*
X113150000Y104600000D02*
X113450000Y104600000D01*
X113450000Y105100000D01*
X113150000Y105100000D01*
X113150000Y104600000D01*
G37*
G36*
X112500000Y104600000D02*
X112800000Y104600000D01*
X112800000Y105100000D01*
X112500000Y105100000D01*
X112500000Y104600000D01*
G37*
G36*
X111850000Y104600000D02*
X112150000Y104600000D01*
X112150000Y105100000D01*
X111850000Y105100000D01*
X111850000Y104600000D01*
G37*
G36*
X111200000Y104600000D02*
X111500000Y104600000D01*
X111500000Y105100000D01*
X111200000Y105100000D01*
X111200000Y104600000D01*
G37*
G36*
X110550000Y104600000D02*
X110850000Y104600000D01*
X110850000Y105100000D01*
X110550000Y105100000D01*
X110550000Y104600000D01*
G37*
G36*
X109900000Y104600000D02*
X110200000Y104600000D01*
X110200000Y105100000D01*
X109900000Y105100000D01*
X109900000Y104600000D01*
G37*
G36*
X94450000Y95010000D02*
X95450000Y95010000D01*
X95450000Y95230000D01*
X94450000Y95230000D01*
X94450000Y95010000D01*
G37*
G36*
X94450000Y95410000D02*
X95450000Y95410000D01*
X95450000Y95630000D01*
X94450000Y95630000D01*
X94450000Y95410000D01*
G37*
G36*
X94450000Y95810000D02*
X95450000Y95810000D01*
X95450000Y96030000D01*
X94450000Y96030000D01*
X94450000Y95810000D01*
G37*
G36*
X94450000Y96210000D02*
X95450000Y96210000D01*
X95450000Y96430000D01*
X94450000Y96430000D01*
X94450000Y96210000D01*
G37*
G36*
X94450000Y96610000D02*
X95450000Y96610000D01*
X95450000Y96830000D01*
X94450000Y96830000D01*
X94450000Y96610000D01*
G37*
G36*
X94450000Y97010000D02*
X95450000Y97010000D01*
X95450000Y97230000D01*
X94450000Y97230000D01*
X94450000Y97010000D01*
G37*
G36*
X94450000Y97410000D02*
X95450000Y97410000D01*
X95450000Y97630000D01*
X94450000Y97630000D01*
X94450000Y97410000D01*
G37*
G36*
X94450000Y97810000D02*
X95450000Y97810000D01*
X95450000Y98030000D01*
X94450000Y98030000D01*
X94450000Y97810000D01*
G37*
G36*
X94450000Y98210000D02*
X95450000Y98210000D01*
X95450000Y98430000D01*
X94450000Y98430000D01*
X94450000Y98210000D01*
G37*
G36*
X94450000Y98610000D02*
X95450000Y98610000D01*
X95450000Y98830000D01*
X94450000Y98830000D01*
X94450000Y98610000D01*
G37*
G36*
X94450000Y99010000D02*
X95450000Y99010000D01*
X95450000Y99230000D01*
X94450000Y99230000D01*
X94450000Y99010000D01*
G37*
G36*
X94450000Y99410000D02*
X95450000Y99410000D01*
X95450000Y99630000D01*
X94450000Y99630000D01*
X94450000Y99410000D01*
G37*
G36*
X94450000Y99810000D02*
X95450000Y99810000D01*
X95450000Y100030000D01*
X94450000Y100030000D01*
X94450000Y99810000D01*
G37*
G36*
X94450000Y100210000D02*
X95450000Y100210000D01*
X95450000Y100430000D01*
X94450000Y100430000D01*
X94450000Y100210000D01*
G37*
G36*
X94450000Y100610000D02*
X95450000Y100610000D01*
X95450000Y100830000D01*
X94450000Y100830000D01*
X94450000Y100610000D01*
G37*
G36*
X94450000Y101010000D02*
X95450000Y101010000D01*
X95450000Y101230000D01*
X94450000Y101230000D01*
X94450000Y101010000D01*
G37*
G36*
X94450000Y101410000D02*
X95450000Y101410000D01*
X95450000Y101630000D01*
X94450000Y101630000D01*
X94450000Y101410000D01*
G37*
G36*
X94450000Y101810000D02*
X95450000Y101810000D01*
X95450000Y102030000D01*
X94450000Y102030000D01*
X94450000Y101810000D01*
G37*
G36*
X94450000Y102210000D02*
X95450000Y102210000D01*
X95450000Y102430000D01*
X94450000Y102430000D01*
X94450000Y102210000D01*
G37*
G36*
X94450000Y102610000D02*
X95450000Y102610000D01*
X95450000Y102830000D01*
X94450000Y102830000D01*
X94450000Y102610000D01*
G37*
G36*
X96090000Y103470000D02*
X96310000Y103470000D01*
X96310000Y104470000D01*
X96090000Y104470000D01*
X96090000Y103470000D01*
G37*
G36*
X96490000Y103470000D02*
X96710000Y103470000D01*
X96710000Y104470000D01*
X96490000Y104470000D01*
X96490000Y103470000D01*
G37*
G36*
X96890000Y103470000D02*
X97110000Y103470000D01*
X97110000Y104470000D01*
X96890000Y104470000D01*
X96890000Y103470000D01*
G37*
G36*
X97290000Y103470000D02*
X97510000Y103470000D01*
X97510000Y104470000D01*
X97290000Y104470000D01*
X97290000Y103470000D01*
G37*
G36*
X97690000Y103470000D02*
X97910000Y103470000D01*
X97910000Y104470000D01*
X97690000Y104470000D01*
X97690000Y103470000D01*
G37*
G36*
X98090000Y103470000D02*
X98310000Y103470000D01*
X98310000Y104470000D01*
X98090000Y104470000D01*
X98090000Y103470000D01*
G37*
G36*
X98490000Y103470000D02*
X98710000Y103470000D01*
X98710000Y104470000D01*
X98490000Y104470000D01*
X98490000Y103470000D01*
G37*
G36*
X98890000Y103470000D02*
X99110000Y103470000D01*
X99110000Y104470000D01*
X98890000Y104470000D01*
X98890000Y103470000D01*
G37*
G36*
X99290000Y103470000D02*
X99510000Y103470000D01*
X99510000Y104470000D01*
X99290000Y104470000D01*
X99290000Y103470000D01*
G37*
G36*
X99690000Y103470000D02*
X99910000Y103470000D01*
X99910000Y104470000D01*
X99690000Y104470000D01*
X99690000Y103470000D01*
G37*
G36*
X100090000Y103470000D02*
X100310000Y103470000D01*
X100310000Y104470000D01*
X100090000Y104470000D01*
X100090000Y103470000D01*
G37*
G36*
X100490000Y103470000D02*
X100710000Y103470000D01*
X100710000Y104470000D01*
X100490000Y104470000D01*
X100490000Y103470000D01*
G37*
G36*
X100890000Y103470000D02*
X101110000Y103470000D01*
X101110000Y104470000D01*
X100890000Y104470000D01*
X100890000Y103470000D01*
G37*
G36*
X101290000Y103470000D02*
X101510000Y103470000D01*
X101510000Y104470000D01*
X101290000Y104470000D01*
X101290000Y103470000D01*
G37*
G36*
X101690000Y103470000D02*
X101910000Y103470000D01*
X101910000Y104470000D01*
X101690000Y104470000D01*
X101690000Y103470000D01*
G37*
G36*
X102090000Y103470000D02*
X102310000Y103470000D01*
X102310000Y104470000D01*
X102090000Y104470000D01*
X102090000Y103470000D01*
G37*
G36*
X102490000Y103470000D02*
X102710000Y103470000D01*
X102710000Y104470000D01*
X102490000Y104470000D01*
X102490000Y103470000D01*
G37*
G36*
X102890000Y103470000D02*
X103110000Y103470000D01*
X103110000Y104470000D01*
X102890000Y104470000D01*
X102890000Y103470000D01*
G37*
G36*
X103290000Y103470000D02*
X103510000Y103470000D01*
X103510000Y104470000D01*
X103290000Y104470000D01*
X103290000Y103470000D01*
G37*
G36*
X103690000Y103470000D02*
X103910000Y103470000D01*
X103910000Y104470000D01*
X103690000Y104470000D01*
X103690000Y103470000D01*
G37*
G36*
X104550000Y102610000D02*
X105550000Y102610000D01*
X105550000Y102830000D01*
X104550000Y102830000D01*
X104550000Y102610000D01*
G37*
G36*
X104550000Y102210000D02*
X105550000Y102210000D01*
X105550000Y102430000D01*
X104550000Y102430000D01*
X104550000Y102210000D01*
G37*
G36*
X104550000Y101810000D02*
X105550000Y101810000D01*
X105550000Y102030000D01*
X104550000Y102030000D01*
X104550000Y101810000D01*
G37*
G36*
X104550000Y101410000D02*
X105550000Y101410000D01*
X105550000Y101630000D01*
X104550000Y101630000D01*
X104550000Y101410000D01*
G37*
G36*
X104550000Y101010000D02*
X105550000Y101010000D01*
X105550000Y101230000D01*
X104550000Y101230000D01*
X104550000Y101010000D01*
G37*
G36*
X104550000Y100610000D02*
X105550000Y100610000D01*
X105550000Y100830000D01*
X104550000Y100830000D01*
X104550000Y100610000D01*
G37*
G36*
X104550000Y100210000D02*
X105550000Y100210000D01*
X105550000Y100430000D01*
X104550000Y100430000D01*
X104550000Y100210000D01*
G37*
G36*
X104550000Y99810000D02*
X105550000Y99810000D01*
X105550000Y100030000D01*
X104550000Y100030000D01*
X104550000Y99810000D01*
G37*
G36*
X104550000Y99410000D02*
X105550000Y99410000D01*
X105550000Y99630000D01*
X104550000Y99630000D01*
X104550000Y99410000D01*
G37*
G36*
X104550000Y99010000D02*
X105550000Y99010000D01*
X105550000Y99230000D01*
X104550000Y99230000D01*
X104550000Y99010000D01*
G37*
G36*
X104550000Y98610000D02*
X105550000Y98610000D01*
X105550000Y98830000D01*
X104550000Y98830000D01*
X104550000Y98610000D01*
G37*
G36*
X104550000Y98210000D02*
X105550000Y98210000D01*
X105550000Y98430000D01*
X104550000Y98430000D01*
X104550000Y98210000D01*
G37*
G36*
X104550000Y97810000D02*
X105550000Y97810000D01*
X105550000Y98030000D01*
X104550000Y98030000D01*
X104550000Y97810000D01*
G37*
G36*
X104550000Y97410000D02*
X105550000Y97410000D01*
X105550000Y97630000D01*
X104550000Y97630000D01*
X104550000Y97410000D01*
G37*
G36*
X104550000Y97010000D02*
X105550000Y97010000D01*
X105550000Y97230000D01*
X104550000Y97230000D01*
X104550000Y97010000D01*
G37*
G36*
X104550000Y96610000D02*
X105550000Y96610000D01*
X105550000Y96830000D01*
X104550000Y96830000D01*
X104550000Y96610000D01*
G37*
G36*
X104550000Y96210000D02*
X105550000Y96210000D01*
X105550000Y96430000D01*
X104550000Y96430000D01*
X104550000Y96210000D01*
G37*
G36*
X104550000Y95810000D02*
X105550000Y95810000D01*
X105550000Y96030000D01*
X104550000Y96030000D01*
X104550000Y95810000D01*
G37*
G36*
X104550000Y95410000D02*
X105550000Y95410000D01*
X105550000Y95630000D01*
X104550000Y95630000D01*
X104550000Y95410000D01*
G37*
G36*
X104550000Y95010000D02*
X105550000Y95010000D01*
X105550000Y95230000D01*
X104550000Y95230000D01*
X104550000Y95010000D01*
G37*
G36*
X103690000Y93370000D02*
X103910000Y93370000D01*
X103910000Y94370000D01*
X103690000Y94370000D01*
X103690000Y93370000D01*
G37*
G36*
X103290000Y93370000D02*
X103510000Y93370000D01*
X103510000Y94370000D01*
X103290000Y94370000D01*
X103290000Y93370000D01*
G37*
G36*
X102890000Y93370000D02*
X103110000Y93370000D01*
X103110000Y94370000D01*
X102890000Y94370000D01*
X102890000Y93370000D01*
G37*
G36*
X102490000Y93370000D02*
X102710000Y93370000D01*
X102710000Y94370000D01*
X102490000Y94370000D01*
X102490000Y93370000D01*
G37*
G36*
X102090000Y93370000D02*
X102310000Y93370000D01*
X102310000Y94370000D01*
X102090000Y94370000D01*
X102090000Y93370000D01*
G37*
G36*
X101690000Y93370000D02*
X101910000Y93370000D01*
X101910000Y94370000D01*
X101690000Y94370000D01*
X101690000Y93370000D01*
G37*
G36*
X101290000Y93370000D02*
X101510000Y93370000D01*
X101510000Y94370000D01*
X101290000Y94370000D01*
X101290000Y93370000D01*
G37*
G36*
X100890000Y93370000D02*
X101110000Y93370000D01*
X101110000Y94370000D01*
X100890000Y94370000D01*
X100890000Y93370000D01*
G37*
G36*
X100490000Y93370000D02*
X100710000Y93370000D01*
X100710000Y94370000D01*
X100490000Y94370000D01*
X100490000Y93370000D01*
G37*
G36*
X100090000Y93370000D02*
X100310000Y93370000D01*
X100310000Y94370000D01*
X100090000Y94370000D01*
X100090000Y93370000D01*
G37*
G36*
X99690000Y93370000D02*
X99910000Y93370000D01*
X99910000Y94370000D01*
X99690000Y94370000D01*
X99690000Y93370000D01*
G37*
G36*
X99290000Y93370000D02*
X99510000Y93370000D01*
X99510000Y94370000D01*
X99290000Y94370000D01*
X99290000Y93370000D01*
G37*
G36*
X98890000Y93370000D02*
X99110000Y93370000D01*
X99110000Y94370000D01*
X98890000Y94370000D01*
X98890000Y93370000D01*
G37*
G36*
X98490000Y93370000D02*
X98710000Y93370000D01*
X98710000Y94370000D01*
X98490000Y94370000D01*
X98490000Y93370000D01*
G37*
G36*
X98090000Y93370000D02*
X98310000Y93370000D01*
X98310000Y94370000D01*
X98090000Y94370000D01*
X98090000Y93370000D01*
G37*
G36*
X97690000Y93370000D02*
X97910000Y93370000D01*
X97910000Y94370000D01*
X97690000Y94370000D01*
X97690000Y93370000D01*
G37*
G36*
X97290000Y93370000D02*
X97510000Y93370000D01*
X97510000Y94370000D01*
X97290000Y94370000D01*
X97290000Y93370000D01*
G37*
G36*
X96890000Y93370000D02*
X97110000Y93370000D01*
X97110000Y94370000D01*
X96890000Y94370000D01*
X96890000Y93370000D01*
G37*
G36*
X96490000Y93370000D02*
X96710000Y93370000D01*
X96710000Y94370000D01*
X96490000Y94370000D01*
X96490000Y93370000D01*
G37*
G36*
X96090000Y93370000D02*
X96310000Y93370000D01*
X96310000Y94370000D01*
X96090000Y94370000D01*
X96090000Y93370000D01*
G37*
G36*
X97700000Y96620000D02*
X102300000Y96620000D01*
X102300000Y101220000D01*
X97700000Y101220000D01*
X97700000Y96620000D01*
G37*
G36*
X98650000Y88795000D02*
X99150000Y88795000D01*
X99150000Y89095000D01*
X98650000Y89095000D01*
X98650000Y88795000D01*
G37*
G36*
X98650000Y89295000D02*
X99150000Y89295000D01*
X99150000Y89595000D01*
X98650000Y89595000D01*
X98650000Y89295000D01*
G37*
G36*
X98650000Y89795000D02*
X99150000Y89795000D01*
X99150000Y90095000D01*
X98650000Y90095000D01*
X98650000Y89795000D01*
G37*
G36*
X98650000Y90295000D02*
X99150000Y90295000D01*
X99150000Y90595000D01*
X98650000Y90595000D01*
X98650000Y90295000D01*
G37*
G36*
X99350000Y90795000D02*
X99650000Y90795000D01*
X99650000Y91295000D01*
X99350000Y91295000D01*
X99350000Y90795000D01*
G37*
G36*
X99850000Y90795000D02*
X100150000Y90795000D01*
X100150000Y91295000D01*
X99850000Y91295000D01*
X99850000Y90795000D01*
G37*
G36*
X100350000Y90795000D02*
X100650000Y90795000D01*
X100650000Y91295000D01*
X100350000Y91295000D01*
X100350000Y90795000D01*
G37*
G36*
X100850000Y90295000D02*
X101350000Y90295000D01*
X101350000Y90595000D01*
X100850000Y90595000D01*
X100850000Y90295000D01*
G37*
G36*
X100850000Y89795000D02*
X101350000Y89795000D01*
X101350000Y90095000D01*
X100850000Y90095000D01*
X100850000Y89795000D01*
G37*
G36*
X100850000Y89295000D02*
X101350000Y89295000D01*
X101350000Y89595000D01*
X100850000Y89595000D01*
X100850000Y89295000D01*
G37*
G36*
X100850000Y88795000D02*
X101350000Y88795000D01*
X101350000Y89095000D01*
X100850000Y89095000D01*
X100850000Y88795000D01*
G37*
G36*
X100350000Y88095000D02*
X100650000Y88095000D01*
X100650000Y88595000D01*
X100350000Y88595000D01*
X100350000Y88095000D01*
G37*
G36*
X99850000Y88095000D02*
X100150000Y88095000D01*
X100150000Y88595000D01*
X99850000Y88595000D01*
X99850000Y88095000D01*
G37*
G36*
X99350000Y88095000D02*
X99650000Y88095000D01*
X99650000Y88595000D01*
X99350000Y88595000D01*
X99350000Y88095000D01*
G37*
G36*
X105200000Y88837000D02*
X105800000Y88837000D01*
X105800000Y89237000D01*
X105200000Y89237000D01*
X105200000Y88837000D01*
G37*
G36*
X105200000Y89487000D02*
X105800000Y89487000D01*
X105800000Y89887000D01*
X105200000Y89887000D01*
X105200000Y89487000D01*
G37*
G36*
X105200000Y90137000D02*
X105800000Y90137000D01*
X105800000Y90537000D01*
X105200000Y90537000D01*
X105200000Y90137000D01*
G37*
G36*
X105200000Y90787000D02*
X105800000Y90787000D01*
X105800000Y91187000D01*
X105200000Y91187000D01*
X105200000Y90787000D01*
G37*
G36*
X107200000Y90787000D02*
X107800000Y90787000D01*
X107800000Y91187000D01*
X107200000Y91187000D01*
X107200000Y90787000D01*
G37*
G36*
X107200000Y90137000D02*
X107800000Y90137000D01*
X107800000Y90537000D01*
X107200000Y90537000D01*
X107200000Y90137000D01*
G37*
G36*
X107200000Y89487000D02*
X107800000Y89487000D01*
X107800000Y89887000D01*
X107200000Y89887000D01*
X107200000Y89487000D01*
G37*
G36*
X107200000Y88837000D02*
X107800000Y88837000D01*
X107800000Y89237000D01*
X107200000Y89237000D01*
X107200000Y88837000D01*
G37*
G36*
X92425000Y89470000D02*
X92875000Y89470000D01*
X92875000Y89770000D01*
X92425000Y89770000D01*
X92425000Y89470000D01*
G37*
G36*
X92425000Y89970000D02*
X92875000Y89970000D01*
X92875000Y90270000D01*
X92425000Y90270000D01*
X92425000Y89970000D01*
G37*
G36*
X92425000Y90470000D02*
X92875000Y90470000D01*
X92875000Y90770000D01*
X92425000Y90770000D01*
X92425000Y90470000D01*
G37*
G36*
X92425000Y90970000D02*
X92875000Y90970000D01*
X92875000Y91270000D01*
X92425000Y91270000D01*
X92425000Y90970000D01*
G37*
G36*
X93100000Y90995000D02*
X93400000Y90995000D01*
X93400000Y91445000D01*
X93100000Y91445000D01*
X93100000Y90995000D01*
G37*
G36*
X93600000Y90995000D02*
X93900000Y90995000D01*
X93900000Y91445000D01*
X93600000Y91445000D01*
X93600000Y90995000D01*
G37*
G36*
X94125000Y90970000D02*
X94575000Y90970000D01*
X94575000Y91270000D01*
X94125000Y91270000D01*
X94125000Y90970000D01*
G37*
G36*
X94125000Y90470000D02*
X94575000Y90470000D01*
X94575000Y90770000D01*
X94125000Y90770000D01*
X94125000Y90470000D01*
G37*
G36*
X94125000Y89970000D02*
X94575000Y89970000D01*
X94575000Y90270000D01*
X94125000Y90270000D01*
X94125000Y89970000D01*
G37*
G36*
X94125000Y89470000D02*
X94575000Y89470000D01*
X94575000Y89770000D01*
X94125000Y89770000D01*
X94125000Y89470000D01*
G37*
G36*
X93600000Y89295000D02*
X93900000Y89295000D01*
X93900000Y89745000D01*
X93600000Y89745000D01*
X93600000Y89295000D01*
G37*
G36*
X93100000Y89295000D02*
X93400000Y89295000D01*
X93400000Y89745000D01*
X93100000Y89745000D01*
X93100000Y89295000D01*
G37*
G36*
X98250000Y108025000D02*
X99550000Y108025000D01*
X99550000Y109025000D01*
X98250000Y109025000D01*
X98250000Y108025000D01*
G37*
G36*
X100450000Y108025000D02*
X101750000Y108025000D01*
X101750000Y109025000D01*
X100450000Y109025000D01*
X100450000Y108025000D01*
G37*
G36*
X100450000Y106425000D02*
X101750000Y106425000D01*
X101750000Y107425000D01*
X100450000Y107425000D01*
X100450000Y106425000D01*
G37*
G36*
X98250000Y106425000D02*
X99550000Y106425000D01*
X99550000Y107425000D01*
X98250000Y107425000D01*
X98250000Y106425000D01*
G37*
G36*
X88300000Y104000000D02*
X88300000Y105400000D01*
X84700000Y105400000D01*
X84700000Y104000000D01*
X88300000Y104000000D01*
G37*
G36*
X88300000Y100600000D02*
X88300000Y102000000D01*
X84700000Y102000000D01*
X84700000Y100600000D01*
X88300000Y100600000D01*
G37*
G36*
X120300000Y109000000D02*
X120300000Y110400000D01*
X116700000Y110400000D01*
X116700000Y109000000D01*
X120300000Y109000000D01*
G37*
G36*
X120300000Y105600000D02*
X120300000Y107000000D01*
X116700000Y107000000D01*
X116700000Y105600000D01*
X120300000Y105600000D01*
G37*
G36*
X93009000Y86510000D02*
X93884000Y86510000D01*
X93884000Y87460000D01*
X93009000Y87460000D01*
X93009000Y86510000D01*
G37*
G36*
X94584000Y86510000D02*
X95459000Y86510000D01*
X95459000Y87460000D01*
X94584000Y87460000D01*
X94584000Y86510000D01*
G37*
G36*
X91885000Y82949000D02*
X93585000Y82949000D01*
X93585000Y84649000D01*
X91885000Y84649000D01*
X91885000Y82949000D01*
G37*
G36*
X96125000Y83799000D02*
X96103689Y83988143D01*
X96040824Y84167801D01*
X95939557Y84328966D01*
X95804966Y84463557D01*
X95643801Y84564824D01*
X95464143Y84627689D01*
X95275000Y84649000D01*
X95085857Y84627689D01*
X94906199Y84564824D01*
X94745034Y84463557D01*
X94610443Y84328966D01*
X94509176Y84167801D01*
X94446311Y83988143D01*
X94425000Y83799000D01*
X94446311Y83609857D01*
X94509176Y83430199D01*
X94610443Y83269034D01*
X94745034Y83134443D01*
X94906199Y83033176D01*
X95085857Y82970311D01*
X95275000Y82949000D01*
X95464143Y82970311D01*
X95643801Y83033176D01*
X95804966Y83134443D01*
X95939557Y83269034D01*
X96040824Y83430199D01*
X96103689Y83609857D01*
X96125000Y83799000D01*
G37*
G36*
X98665000Y83799000D02*
X98643689Y83988143D01*
X98580824Y84167801D01*
X98479557Y84328966D01*
X98344966Y84463557D01*
X98183801Y84564824D01*
X98004143Y84627689D01*
X97815000Y84649000D01*
X97625857Y84627689D01*
X97446199Y84564824D01*
X97285034Y84463557D01*
X97150443Y84328966D01*
X97049176Y84167801D01*
X96986311Y83988143D01*
X96965000Y83799000D01*
X96986311Y83609857D01*
X97049176Y83430199D01*
X97150443Y83269034D01*
X97285034Y83134443D01*
X97446199Y83033176D01*
X97625857Y82970311D01*
X97815000Y82949000D01*
X98004143Y82970311D01*
X98183801Y83033176D01*
X98344966Y83134443D01*
X98479557Y83269034D01*
X98580824Y83430199D01*
X98643689Y83609857D01*
X98665000Y83799000D01*
G37*
G36*
X101205000Y83799000D02*
X101183689Y83988143D01*
X101120824Y84167801D01*
X101019557Y84328966D01*
X100884966Y84463557D01*
X100723801Y84564824D01*
X100544143Y84627689D01*
X100355000Y84649000D01*
X100165857Y84627689D01*
X99986199Y84564824D01*
X99825034Y84463557D01*
X99690443Y84328966D01*
X99589176Y84167801D01*
X99526311Y83988143D01*
X99505000Y83799000D01*
X99526311Y83609857D01*
X99589176Y83430199D01*
X99690443Y83269034D01*
X99825034Y83134443D01*
X99986199Y83033176D01*
X100165857Y82970311D01*
X100355000Y82949000D01*
X100544143Y82970311D01*
X100723801Y83033176D01*
X100884966Y83134443D01*
X101019557Y83269034D01*
X101120824Y83430199D01*
X101183689Y83609857D01*
X101205000Y83799000D01*
G37*
G36*
X103745000Y83799000D02*
X103723689Y83988143D01*
X103660824Y84167801D01*
X103559557Y84328966D01*
X103424966Y84463557D01*
X103263801Y84564824D01*
X103084143Y84627689D01*
X102895000Y84649000D01*
X102705857Y84627689D01*
X102526199Y84564824D01*
X102365034Y84463557D01*
X102230443Y84328966D01*
X102129176Y84167801D01*
X102066311Y83988143D01*
X102045000Y83799000D01*
X102066311Y83609857D01*
X102129176Y83430199D01*
X102230443Y83269034D01*
X102365034Y83134443D01*
X102526199Y83033176D01*
X102705857Y82970311D01*
X102895000Y82949000D01*
X103084143Y82970311D01*
X103263801Y83033176D01*
X103424966Y83134443D01*
X103559557Y83269034D01*
X103660824Y83430199D01*
X103723689Y83609857D01*
X103745000Y83799000D01*
G37*
G36*
X97136000Y124500000D02*
X100136000Y124500000D01*
X100136000Y127500000D01*
X97136000Y127500000D01*
X97136000Y124500000D01*
G37*
G36*
X105136000Y126000000D02*
X105098392Y126333781D01*
X104987453Y126650826D01*
X104808747Y126935235D01*
X104571235Y127172747D01*
X104286826Y127351453D01*
X103969781Y127462392D01*
X103636000Y127500000D01*
X103302219Y127462392D01*
X102985174Y127351453D01*
X102700765Y127172747D01*
X102463253Y126935235D01*
X102284547Y126650826D01*
X102173608Y126333781D01*
X102136000Y126000000D01*
X102173608Y125666219D01*
X102284547Y125349174D01*
X102463253Y125064765D01*
X102700765Y124827253D01*
X102985174Y124648547D01*
X103302219Y124537608D01*
X103636000Y124500000D01*
X103969781Y124537608D01*
X104286826Y124648547D01*
X104571235Y124827253D01*
X104808747Y125064765D01*
X104987453Y125349174D01*
X105098392Y125666219D01*
X105136000Y126000000D01*
G37*
G36*
X72744482Y119834462D02*
X72956614Y120046594D01*
X72249507Y120753701D01*
X72037375Y120541569D01*
X72744482Y119834462D01*
G37*
G36*
X73098035Y119480909D02*
X73310167Y119693041D01*
X72603060Y120400148D01*
X72390928Y120188016D01*
X73098035Y119480909D01*
G37*
G36*
X73451588Y119127355D02*
X73663720Y119339487D01*
X72956614Y120046594D01*
X72744482Y119834462D01*
X73451588Y119127355D01*
G37*
G36*
X73805142Y118773802D02*
X74017274Y118985934D01*
X73310167Y119693041D01*
X73098035Y119480909D01*
X73805142Y118773802D01*
G37*
G36*
X74158695Y118420249D02*
X74370827Y118632381D01*
X73663720Y119339487D01*
X73451588Y119127355D01*
X74158695Y118420249D01*
G37*
G36*
X74512249Y118066695D02*
X74724381Y118278827D01*
X74017274Y118985934D01*
X73805142Y118773802D01*
X74512249Y118066695D01*
G37*
G36*
X74229406Y121319386D02*
X74441538Y121531518D01*
X73734431Y122238625D01*
X73522299Y122026493D01*
X74229406Y121319386D01*
G37*
G36*
X74582959Y120965833D02*
X74795091Y121177965D01*
X74087984Y121885072D01*
X73875852Y121672940D01*
X74582959Y120965833D01*
G37*
G36*
X74936513Y120612280D02*
X75148645Y120824412D01*
X74441538Y121531518D01*
X74229406Y121319386D01*
X74936513Y120612280D01*
G37*
G36*
X75290066Y120258726D02*
X75502198Y120470858D01*
X74795091Y121177965D01*
X74582959Y120965833D01*
X75290066Y120258726D01*
G37*
G36*
X75643619Y119905173D02*
X75855751Y120117305D01*
X75148645Y120824412D01*
X74936513Y120612280D01*
X75643619Y119905173D01*
G37*
G36*
X75997173Y119551619D02*
X76209305Y119763751D01*
X75502198Y120470858D01*
X75290066Y120258726D01*
X75997173Y119551619D01*
G37*
G36*
X72359108Y120891587D02*
X73384413Y121916892D01*
X71899489Y123401816D01*
X70874184Y122376511D01*
X72359108Y120891587D01*
G37*
G36*
X78468511Y114782184D02*
X79493816Y115807489D01*
X78008892Y117292413D01*
X76983587Y116267108D01*
X78468511Y114782184D01*
G37*
G36*
X73773322Y122305800D02*
X74798627Y123331105D01*
X73313703Y124816029D01*
X72288398Y123790725D01*
X73773322Y122305800D01*
G37*
G36*
X79882725Y116196398D02*
X80908029Y117221703D01*
X79423105Y118706627D01*
X78397800Y117681322D01*
X79882725Y116196398D01*
G37*
G36*
X70800000Y105837000D02*
X70800000Y106537000D01*
X69200000Y106537000D01*
X69200000Y105837000D01*
X70800000Y105837000D01*
G37*
G36*
X70800000Y104737000D02*
X70800000Y105437000D01*
X69200000Y105437000D01*
X69200000Y104737000D01*
X70800000Y104737000D01*
G37*
G36*
X70800000Y103637000D02*
X70800000Y104337000D01*
X69200000Y104337000D01*
X69200000Y103637000D01*
X70800000Y103637000D01*
G37*
G36*
X70800000Y102537000D02*
X70800000Y103237000D01*
X69200000Y103237000D01*
X69200000Y102537000D01*
X70800000Y102537000D01*
G37*
G36*
X70800000Y101437000D02*
X70800000Y102137000D01*
X69200000Y102137000D01*
X69200000Y101437000D01*
X70800000Y101437000D01*
G37*
G36*
X70800000Y100337000D02*
X70800000Y101037000D01*
X69200000Y101037000D01*
X69200000Y100337000D01*
X70800000Y100337000D01*
G37*
G36*
X70800000Y99237000D02*
X70800000Y99937000D01*
X69200000Y99937000D01*
X69200000Y99237000D01*
X70800000Y99237000D01*
G37*
G36*
X70800000Y98137000D02*
X70800000Y98837000D01*
X69200000Y98837000D01*
X69200000Y98137000D01*
X70800000Y98137000D01*
G37*
G36*
X74900000Y107037000D02*
X74900000Y108637000D01*
X73100000Y108637000D01*
X73100000Y107037000D01*
X74900000Y107037000D01*
G37*
G36*
X74900000Y94637000D02*
X74900000Y96237000D01*
X73100000Y96237000D01*
X73100000Y94637000D01*
X74900000Y94637000D01*
G37*
G36*
X72136949Y82856574D02*
X73975426Y84695051D01*
X72136949Y86533529D01*
X70298471Y84695051D01*
X72136949Y82856574D01*
G37*
G36*
X77029051Y81102949D02*
X76996458Y81392226D01*
X76900311Y81666998D01*
X76745432Y81913486D01*
X76539588Y82119330D01*
X76293100Y82274208D01*
X76018328Y82370355D01*
X75729051Y82402949D01*
X75439774Y82370355D01*
X75165002Y82274208D01*
X74918514Y82119330D01*
X74712670Y81913486D01*
X74557792Y81666998D01*
X74461645Y81392226D01*
X74429051Y81102949D01*
X74461645Y80813672D01*
X74557792Y80538900D01*
X74712670Y80292412D01*
X74918514Y80086568D01*
X75165002Y79931689D01*
X75439774Y79835542D01*
X75729051Y79802949D01*
X76018328Y79835542D01*
X76293100Y79931689D01*
X76539588Y80086568D01*
X76745432Y80292412D01*
X76900311Y80538900D01*
X76996458Y80813672D01*
X77029051Y81102949D01*
G37*
G36*
X85836165Y97414206D02*
X86260429Y97838470D01*
X85517967Y98580932D01*
X85093703Y98156668D01*
X85836165Y97414206D01*
G37*
G36*
X87179668Y96070703D02*
X87603932Y96494967D01*
X86861470Y97237429D01*
X86437206Y96813165D01*
X87179668Y96070703D01*
G37*
G36*
X84952282Y95186819D02*
X85376546Y95611084D01*
X84634084Y96353546D01*
X84209819Y95929282D01*
X84952282Y95186819D01*
G37*
G36*
X107129000Y74861000D02*
X108829000Y74861000D01*
X108829000Y76561000D01*
X107129000Y76561000D01*
X107129000Y74861000D01*
G37*
G36*
X111369000Y75711000D02*
X111347689Y75900143D01*
X111284824Y76079801D01*
X111183557Y76240966D01*
X111048966Y76375557D01*
X110887801Y76476824D01*
X110708143Y76539689D01*
X110519000Y76561000D01*
X110329857Y76539689D01*
X110150199Y76476824D01*
X109989034Y76375557D01*
X109854443Y76240966D01*
X109753176Y76079801D01*
X109690311Y75900143D01*
X109669000Y75711000D01*
X109690311Y75521857D01*
X109753176Y75342199D01*
X109854443Y75181034D01*
X109989034Y75046443D01*
X110150199Y74945176D01*
X110329857Y74882311D01*
X110519000Y74861000D01*
X110708143Y74882311D01*
X110887801Y74945176D01*
X111048966Y75046443D01*
X111183557Y75181034D01*
X111284824Y75342199D01*
X111347689Y75521857D01*
X111369000Y75711000D01*
G37*
G36*
X113909000Y75711000D02*
X113887689Y75900143D01*
X113824824Y76079801D01*
X113723557Y76240966D01*
X113588966Y76375557D01*
X113427801Y76476824D01*
X113248143Y76539689D01*
X113059000Y76561000D01*
X112869857Y76539689D01*
X112690199Y76476824D01*
X112529034Y76375557D01*
X112394443Y76240966D01*
X112293176Y76079801D01*
X112230311Y75900143D01*
X112209000Y75711000D01*
X112230311Y75521857D01*
X112293176Y75342199D01*
X112394443Y75181034D01*
X112529034Y75046443D01*
X112690199Y74945176D01*
X112869857Y74882311D01*
X113059000Y74861000D01*
X113248143Y74882311D01*
X113427801Y74945176D01*
X113588966Y75046443D01*
X113723557Y75181034D01*
X113824824Y75342199D01*
X113887689Y75521857D01*
X113909000Y75711000D01*
G37*
G36*
X116449000Y75711000D02*
X116427689Y75900143D01*
X116364824Y76079801D01*
X116263557Y76240966D01*
X116128966Y76375557D01*
X115967801Y76476824D01*
X115788143Y76539689D01*
X115599000Y76561000D01*
X115409857Y76539689D01*
X115230199Y76476824D01*
X115069034Y76375557D01*
X114934443Y76240966D01*
X114833176Y76079801D01*
X114770311Y75900143D01*
X114749000Y75711000D01*
X114770311Y75521857D01*
X114833176Y75342199D01*
X114934443Y75181034D01*
X115069034Y75046443D01*
X115230199Y74945176D01*
X115409857Y74882311D01*
X115599000Y74861000D01*
X115788143Y74882311D01*
X115967801Y74945176D01*
X116128966Y75046443D01*
X116263557Y75181034D01*
X116364824Y75342199D01*
X116427689Y75521857D01*
X116449000Y75711000D01*
G37*
G36*
X118989000Y75711000D02*
X118967689Y75900143D01*
X118904824Y76079801D01*
X118803557Y76240966D01*
X118668966Y76375557D01*
X118507801Y76476824D01*
X118328143Y76539689D01*
X118139000Y76561000D01*
X117949857Y76539689D01*
X117770199Y76476824D01*
X117609034Y76375557D01*
X117474443Y76240966D01*
X117373176Y76079801D01*
X117310311Y75900143D01*
X117289000Y75711000D01*
X117310311Y75521857D01*
X117373176Y75342199D01*
X117474443Y75181034D01*
X117609034Y75046443D01*
X117770199Y74945176D01*
X117949857Y74882311D01*
X118139000Y74861000D01*
X118328143Y74882311D01*
X118507801Y74945176D01*
X118668966Y75046443D01*
X118803557Y75181034D01*
X118904824Y75342199D01*
X118967689Y75521857D01*
X118989000Y75711000D01*
G37*
G36*
X122462000Y75213000D02*
X122462000Y76913000D01*
X120762000Y76913000D01*
X120762000Y75213000D01*
X122462000Y75213000D01*
G37*
G36*
X122462000Y78603000D02*
X122440689Y78792143D01*
X122377824Y78971801D01*
X122276557Y79132966D01*
X122141966Y79267557D01*
X121980801Y79368824D01*
X121801143Y79431689D01*
X121612000Y79453000D01*
X121422857Y79431689D01*
X121243199Y79368824D01*
X121082034Y79267557D01*
X120947443Y79132966D01*
X120846176Y78971801D01*
X120783311Y78792143D01*
X120762000Y78603000D01*
X120783311Y78413857D01*
X120846176Y78234199D01*
X120947443Y78073034D01*
X121082034Y77938443D01*
X121243199Y77837176D01*
X121422857Y77774311D01*
X121612000Y77753000D01*
X121801143Y77774311D01*
X121980801Y77837176D01*
X122141966Y77938443D01*
X122276557Y78073034D01*
X122377824Y78234199D01*
X122440689Y78413857D01*
X122462000Y78603000D01*
G37*
G36*
X122462000Y81143000D02*
X122440689Y81332143D01*
X122377824Y81511801D01*
X122276557Y81672966D01*
X122141966Y81807557D01*
X121980801Y81908824D01*
X121801143Y81971689D01*
X121612000Y81993000D01*
X121422857Y81971689D01*
X121243199Y81908824D01*
X121082034Y81807557D01*
X120947443Y81672966D01*
X120846176Y81511801D01*
X120783311Y81332143D01*
X120762000Y81143000D01*
X120783311Y80953857D01*
X120846176Y80774199D01*
X120947443Y80613034D01*
X121082034Y80478443D01*
X121243199Y80377176D01*
X121422857Y80314311D01*
X121612000Y80293000D01*
X121801143Y80314311D01*
X121980801Y80377176D01*
X122141966Y80478443D01*
X122276557Y80613034D01*
X122377824Y80774199D01*
X122440689Y80953857D01*
X122462000Y81143000D01*
G37*
G36*
X122462000Y83683000D02*
X122440689Y83872143D01*
X122377824Y84051801D01*
X122276557Y84212966D01*
X122141966Y84347557D01*
X121980801Y84448824D01*
X121801143Y84511689D01*
X121612000Y84533000D01*
X121422857Y84511689D01*
X121243199Y84448824D01*
X121082034Y84347557D01*
X120947443Y84212966D01*
X120846176Y84051801D01*
X120783311Y83872143D01*
X120762000Y83683000D01*
X120783311Y83493857D01*
X120846176Y83314199D01*
X120947443Y83153034D01*
X121082034Y83018443D01*
X121243199Y82917176D01*
X121422857Y82854311D01*
X121612000Y82833000D01*
X121801143Y82854311D01*
X121980801Y82917176D01*
X122141966Y83018443D01*
X122276557Y83153034D01*
X122377824Y83314199D01*
X122440689Y83493857D01*
X122462000Y83683000D01*
G37*
G36*
X122462000Y86223000D02*
X122440689Y86412143D01*
X122377824Y86591801D01*
X122276557Y86752966D01*
X122141966Y86887557D01*
X121980801Y86988824D01*
X121801143Y87051689D01*
X121612000Y87073000D01*
X121422857Y87051689D01*
X121243199Y86988824D01*
X121082034Y86887557D01*
X120947443Y86752966D01*
X120846176Y86591801D01*
X120783311Y86412143D01*
X120762000Y86223000D01*
X120783311Y86033857D01*
X120846176Y85854199D01*
X120947443Y85693034D01*
X121082034Y85558443D01*
X121243199Y85457176D01*
X121422857Y85394311D01*
X121612000Y85373000D01*
X121801143Y85394311D01*
X121980801Y85457176D01*
X122141966Y85558443D01*
X122276557Y85693034D01*
X122377824Y85854199D01*
X122440689Y86033857D01*
X122462000Y86223000D01*
G37*
G36*
X122462000Y88763000D02*
X122440689Y88952143D01*
X122377824Y89131801D01*
X122276557Y89292966D01*
X122141966Y89427557D01*
X121980801Y89528824D01*
X121801143Y89591689D01*
X121612000Y89613000D01*
X121422857Y89591689D01*
X121243199Y89528824D01*
X121082034Y89427557D01*
X120947443Y89292966D01*
X120846176Y89131801D01*
X120783311Y88952143D01*
X120762000Y88763000D01*
X120783311Y88573857D01*
X120846176Y88394199D01*
X120947443Y88233034D01*
X121082034Y88098443D01*
X121243199Y87997176D01*
X121422857Y87934311D01*
X121612000Y87913000D01*
X121801143Y87934311D01*
X121980801Y87997176D01*
X122141966Y88098443D01*
X122276557Y88233034D01*
X122377824Y88394199D01*
X122440689Y88573857D01*
X122462000Y88763000D01*
G37*
G36*
X122462000Y91303000D02*
X122440689Y91492143D01*
X122377824Y91671801D01*
X122276557Y91832966D01*
X122141966Y91967557D01*
X121980801Y92068824D01*
X121801143Y92131689D01*
X121612000Y92153000D01*
X121422857Y92131689D01*
X121243199Y92068824D01*
X121082034Y91967557D01*
X120947443Y91832966D01*
X120846176Y91671801D01*
X120783311Y91492143D01*
X120762000Y91303000D01*
X120783311Y91113857D01*
X120846176Y90934199D01*
X120947443Y90773034D01*
X121082034Y90638443D01*
X121243199Y90537176D01*
X121422857Y90474311D01*
X121612000Y90453000D01*
X121801143Y90474311D01*
X121980801Y90537176D01*
X122141966Y90638443D01*
X122276557Y90773034D01*
X122377824Y90934199D01*
X122440689Y91113857D01*
X122462000Y91303000D01*
G37*
G36*
X122462000Y93843000D02*
X122440689Y94032143D01*
X122377824Y94211801D01*
X122276557Y94372966D01*
X122141966Y94507557D01*
X121980801Y94608824D01*
X121801143Y94671689D01*
X121612000Y94693000D01*
X121422857Y94671689D01*
X121243199Y94608824D01*
X121082034Y94507557D01*
X120947443Y94372966D01*
X120846176Y94211801D01*
X120783311Y94032143D01*
X120762000Y93843000D01*
X120783311Y93653857D01*
X120846176Y93474199D01*
X120947443Y93313034D01*
X121082034Y93178443D01*
X121243199Y93077176D01*
X121422857Y93014311D01*
X121612000Y92993000D01*
X121801143Y93014311D01*
X121980801Y93077176D01*
X122141966Y93178443D01*
X122276557Y93313034D01*
X122377824Y93474199D01*
X122440689Y93653857D01*
X122462000Y93843000D01*
G37*
G36*
X122462000Y96383000D02*
X122440689Y96572143D01*
X122377824Y96751801D01*
X122276557Y96912966D01*
X122141966Y97047557D01*
X121980801Y97148824D01*
X121801143Y97211689D01*
X121612000Y97233000D01*
X121422857Y97211689D01*
X121243199Y97148824D01*
X121082034Y97047557D01*
X120947443Y96912966D01*
X120846176Y96751801D01*
X120783311Y96572143D01*
X120762000Y96383000D01*
X120783311Y96193857D01*
X120846176Y96014199D01*
X120947443Y95853034D01*
X121082034Y95718443D01*
X121243199Y95617176D01*
X121422857Y95554311D01*
X121612000Y95533000D01*
X121801143Y95554311D01*
X121980801Y95617176D01*
X122141966Y95718443D01*
X122276557Y95853034D01*
X122377824Y96014199D01*
X122440689Y96193857D01*
X122462000Y96383000D01*
G37*
G36*
X122462000Y98923000D02*
X122440689Y99112143D01*
X122377824Y99291801D01*
X122276557Y99452966D01*
X122141966Y99587557D01*
X121980801Y99688824D01*
X121801143Y99751689D01*
X121612000Y99773000D01*
X121422857Y99751689D01*
X121243199Y99688824D01*
X121082034Y99587557D01*
X120947443Y99452966D01*
X120846176Y99291801D01*
X120783311Y99112143D01*
X120762000Y98923000D01*
X120783311Y98733857D01*
X120846176Y98554199D01*
X120947443Y98393034D01*
X121082034Y98258443D01*
X121243199Y98157176D01*
X121422857Y98094311D01*
X121612000Y98073000D01*
X121801143Y98094311D01*
X121980801Y98157176D01*
X122141966Y98258443D01*
X122276557Y98393034D01*
X122377824Y98554199D01*
X122440689Y98733857D01*
X122462000Y98923000D01*
G37*
G36*
X114317000Y126045000D02*
X114317000Y128645000D01*
X111717000Y128645000D01*
X111717000Y126045000D01*
X114317000Y126045000D01*
G37*
G36*
X114317000Y132425000D02*
X114284406Y132714277D01*
X114188260Y132989049D01*
X114033381Y133235537D01*
X113827537Y133441381D01*
X113581049Y133596260D01*
X113306277Y133692406D01*
X113017000Y133725000D01*
X112727723Y133692406D01*
X112452951Y133596260D01*
X112206463Y133441381D01*
X112000619Y133235537D01*
X111845740Y132989049D01*
X111749594Y132714277D01*
X111717000Y132425000D01*
X111749594Y132135723D01*
X111845740Y131860951D01*
X112000619Y131614463D01*
X112206463Y131408619D01*
X112452951Y131253740D01*
X112727723Y131157594D01*
X113017000Y131125000D01*
X113306277Y131157594D01*
X113581049Y131253740D01*
X113827537Y131408619D01*
X114033381Y131614463D01*
X114188260Y131860951D01*
X114284406Y132135723D01*
X114317000Y132425000D01*
G37*
G36*
X129829000Y104250000D02*
X132429000Y104250000D01*
X132429000Y106850000D01*
X129829000Y106850000D01*
X129829000Y104250000D01*
G37*
G36*
X127349000Y105550000D02*
X127316406Y105839277D01*
X127220260Y106114049D01*
X127065381Y106360537D01*
X126859537Y106566381D01*
X126613049Y106721260D01*
X126338277Y106817406D01*
X126049000Y106850000D01*
X125759723Y106817406D01*
X125484951Y106721260D01*
X125238463Y106566381D01*
X125032619Y106360537D01*
X124877740Y106114049D01*
X124781594Y105839277D01*
X124749000Y105550000D01*
X124781594Y105260723D01*
X124877740Y104985951D01*
X125032619Y104739463D01*
X125238463Y104533619D01*
X125484951Y104378740D01*
X125759723Y104282594D01*
X126049000Y104250000D01*
X126338277Y104282594D01*
X126613049Y104378740D01*
X126859537Y104533619D01*
X127065381Y104739463D01*
X127220260Y104985951D01*
X127316406Y105260723D01*
X127349000Y105550000D01*
G37*
G36*
X92580046Y130987705D02*
X90136845Y131876958D01*
X89247593Y129433757D01*
X91690793Y128544505D01*
X92580046Y130987705D01*
G37*
G36*
X87440181Y128473269D02*
X87407587Y128762546D01*
X87311440Y129037318D01*
X87156562Y129283806D01*
X86950717Y129489650D01*
X86704230Y129644528D01*
X86429458Y129740675D01*
X86140181Y129773269D01*
X85850904Y129740675D01*
X85576132Y129644528D01*
X85329644Y129489650D01*
X85123800Y129283806D01*
X84968921Y129037318D01*
X84872774Y128762546D01*
X84840181Y128473269D01*
X84872774Y128183992D01*
X84968921Y127909220D01*
X85123800Y127662732D01*
X85329644Y127456888D01*
X85576132Y127302009D01*
X85850904Y127205863D01*
X86140181Y127173269D01*
X86429458Y127205863D01*
X86704230Y127302009D01*
X86950717Y127456888D01*
X87156562Y127662732D01*
X87311440Y127909220D01*
X87407587Y128183992D01*
X87440181Y128473269D01*
G37*
G36*
X94206399Y120137990D02*
X93642583Y120343202D01*
X93283462Y119356525D01*
X93847277Y119151313D01*
X94206399Y120137990D01*
G37*
G36*
X92420983Y119488152D02*
X91857167Y119693364D01*
X91498046Y118706686D01*
X92061861Y118501474D01*
X92420983Y119488152D01*
G37*
G36*
X92561246Y121880394D02*
X91997431Y122085607D01*
X91638309Y121098929D01*
X92202125Y120893717D01*
X92561246Y121880394D01*
G37*
G36*
X97936499Y116153689D02*
X96432991Y116700921D01*
X95201718Y113318028D01*
X96705226Y112770796D01*
X97936499Y116153689D01*
G37*
G36*
X92486282Y114169972D02*
X90982774Y114717204D01*
X89751501Y111334311D01*
X91255009Y110787079D01*
X92486282Y114169972D01*
G37*
G36*
X86078013Y70971199D02*
X88069729Y72642447D01*
X86398481Y74634162D01*
X84406765Y72962914D01*
X86078013Y70971199D01*
G37*
G36*
X91429753Y69537319D02*
X91397159Y69826597D01*
X91301012Y70101368D01*
X91146134Y70347856D01*
X90940290Y70553700D01*
X90693802Y70708579D01*
X90419030Y70804726D01*
X90129753Y70837319D01*
X89840476Y70804726D01*
X89565704Y70708579D01*
X89319216Y70553700D01*
X89113372Y70347856D01*
X88958493Y70101368D01*
X88862347Y69826597D01*
X88829753Y69537319D01*
X88862347Y69248042D01*
X88958493Y68973271D01*
X89113372Y68726783D01*
X89319216Y68520939D01*
X89565704Y68366060D01*
X89840476Y68269913D01*
X90129753Y68237319D01*
X90419030Y68269913D01*
X90693802Y68366060D01*
X90940290Y68520939D01*
X91146134Y68726783D01*
X91301012Y68973271D01*
X91397159Y69248042D01*
X91429753Y69537319D01*
G37*
G36*
X85820974Y82085288D02*
X86280601Y82470960D01*
X85605674Y83275307D01*
X85146047Y82889634D01*
X85820974Y82085288D01*
G37*
G36*
X87276459Y80863991D02*
X87736085Y81249664D01*
X87061158Y82054010D01*
X86601532Y81668338D01*
X87276459Y80863991D01*
G37*
G36*
X85134584Y79789341D02*
X85594210Y80175014D01*
X84919283Y80979361D01*
X84459657Y80593688D01*
X85134584Y79789341D01*
G37*
G36*
X84243653Y88865974D02*
X85469324Y89894434D01*
X83155289Y92652194D01*
X81929618Y91623734D01*
X84243653Y88865974D01*
G37*
G36*
X88686711Y85137806D02*
X89912382Y86166266D01*
X87598347Y88924026D01*
X86372676Y87895566D01*
X88686711Y85137806D01*
G37*
G36*
X126024941Y92902096D02*
X126476426Y90341596D01*
X129036926Y90793081D01*
X128585441Y93353581D01*
X126024941Y92902096D01*
G37*
G36*
X129713066Y96850412D02*
X129680473Y97139689D01*
X129584326Y97414461D01*
X129429447Y97660948D01*
X129223603Y97866793D01*
X128977115Y98021671D01*
X128702344Y98117818D01*
X128413066Y98150412D01*
X128123789Y98117818D01*
X127849018Y98021671D01*
X127602530Y97866793D01*
X127396685Y97660948D01*
X127241807Y97414461D01*
X127145660Y97139689D01*
X127113066Y96850412D01*
X127145660Y96561134D01*
X127241807Y96286363D01*
X127396685Y96039875D01*
X127602530Y95834031D01*
X127849018Y95679152D01*
X128123789Y95583005D01*
X128413066Y95550412D01*
X128702344Y95583005D01*
X128977115Y95679152D01*
X129223603Y95834031D01*
X129429447Y96039875D01*
X129584326Y96286363D01*
X129680473Y96561134D01*
X129713066Y96850412D01*
G37*
G36*
X116569627Y95639723D02*
X116673816Y95048838D01*
X117707864Y95231169D01*
X117603675Y95822053D01*
X116569627Y95639723D01*
G37*
G36*
X116899559Y97510857D02*
X117003748Y96919973D01*
X118037796Y97102303D01*
X117933607Y97693188D01*
X116899559Y97510857D01*
G37*
G36*
X118901170Y96193264D02*
X119005359Y95602379D01*
X120039407Y95784710D01*
X119935218Y96375595D01*
X118901170Y96193264D01*
G37*
G36*
X110070848Y94493337D02*
X110348685Y92917645D01*
X113893993Y93542778D01*
X113616156Y95118470D01*
X110070848Y94493337D01*
G37*
G36*
X111078007Y100205222D02*
X111355844Y98629530D01*
X114901152Y99254663D01*
X114623315Y100830355D01*
X111078007Y100205222D01*
G37*
G36*
X104650000Y127365000D02*
X106450000Y127365000D01*
X106450000Y129165000D01*
X104650000Y129165000D01*
X104650000Y127365000D01*
G37*
G36*
X103950000Y128265000D02*
X103927435Y128465269D01*
X103860872Y128655495D01*
X103753648Y128826141D01*
X103611141Y128968648D01*
X103440495Y129075872D01*
X103250269Y129142435D01*
X103050000Y129165000D01*
X102849731Y129142435D01*
X102659505Y129075872D01*
X102488859Y128968648D01*
X102346352Y128826141D01*
X102239128Y128655495D01*
X102172565Y128465269D01*
X102150000Y128265000D01*
X102172565Y128064731D01*
X102239128Y127874505D01*
X102346352Y127703859D01*
X102488859Y127561352D01*
X102659505Y127454128D01*
X102849731Y127387565D01*
X103050000Y127365000D01*
X103250269Y127387565D01*
X103440495Y127454128D01*
X103611141Y127561352D01*
X103753648Y127703859D01*
X103860872Y127874505D01*
X103927435Y128064731D01*
X103950000Y128265000D01*
G37*
G36*
X71791000Y94064000D02*
X73591000Y94064000D01*
X73591000Y95864000D01*
X71791000Y95864000D01*
X71791000Y94064000D01*
G37*
G36*
X71091000Y94964000D02*
X71068435Y95164269D01*
X71001872Y95354495D01*
X70894648Y95525141D01*
X70752141Y95667648D01*
X70581495Y95774872D01*
X70391269Y95841435D01*
X70191000Y95864000D01*
X69990731Y95841435D01*
X69800505Y95774872D01*
X69629859Y95667648D01*
X69487352Y95525141D01*
X69380128Y95354495D01*
X69313565Y95164269D01*
X69291000Y94964000D01*
X69313565Y94763731D01*
X69380128Y94573505D01*
X69487352Y94402859D01*
X69629859Y94260352D01*
X69800505Y94153128D01*
X69990731Y94086565D01*
X70191000Y94064000D01*
X70391269Y94086565D01*
X70581495Y94153128D01*
X70752141Y94260352D01*
X70894648Y94402859D01*
X71001872Y94573505D01*
X71068435Y94763731D01*
X71091000Y94964000D01*
G37*
G36*
X116042000Y76885000D02*
X117842000Y76885000D01*
X117842000Y78685000D01*
X116042000Y78685000D01*
X116042000Y76885000D01*
G37*
G36*
X115342000Y77785000D02*
X115319435Y77985269D01*
X115252872Y78175495D01*
X115145648Y78346141D01*
X115003141Y78488648D01*
X114832495Y78595872D01*
X114642269Y78662435D01*
X114442000Y78685000D01*
X114241731Y78662435D01*
X114051505Y78595872D01*
X113880859Y78488648D01*
X113738352Y78346141D01*
X113631128Y78175495D01*
X113564565Y77985269D01*
X113542000Y77785000D01*
X113564565Y77584731D01*
X113631128Y77394505D01*
X113738352Y77223859D01*
X113880859Y77081352D01*
X114051505Y76974128D01*
X114241731Y76907565D01*
X114442000Y76885000D01*
X114642269Y76907565D01*
X114832495Y76974128D01*
X115003141Y77081352D01*
X115145648Y77223859D01*
X115252872Y77394505D01*
X115319435Y77584731D01*
X115342000Y77785000D01*
G37*
G36*
X93901000Y79194000D02*
X95601000Y79194000D01*
X95601000Y80894000D01*
X93901000Y80894000D01*
X93901000Y79194000D01*
G37*
G36*
X98141000Y80044000D02*
X98119689Y80233143D01*
X98056824Y80412801D01*
X97955557Y80573966D01*
X97820966Y80708557D01*
X97659801Y80809824D01*
X97480143Y80872689D01*
X97291000Y80894000D01*
X97101857Y80872689D01*
X96922199Y80809824D01*
X96761034Y80708557D01*
X96626443Y80573966D01*
X96525176Y80412801D01*
X96462311Y80233143D01*
X96441000Y80044000D01*
X96462311Y79854857D01*
X96525176Y79675199D01*
X96626443Y79514034D01*
X96761034Y79379443D01*
X96922199Y79278176D01*
X97101857Y79215311D01*
X97291000Y79194000D01*
X97480143Y79215311D01*
X97659801Y79278176D01*
X97820966Y79379443D01*
X97955557Y79514034D01*
X98056824Y79675199D01*
X98119689Y79854857D01*
X98141000Y80044000D01*
G37*
G36*
X108866000Y123493000D02*
X111466000Y123493000D01*
X111466000Y126093000D01*
X108866000Y126093000D01*
X108866000Y123493000D01*
G37*
G36*
X116546000Y124793000D02*
X116513406Y125082277D01*
X116417260Y125357049D01*
X116262381Y125603537D01*
X116056537Y125809381D01*
X115810049Y125964260D01*
X115535277Y126060406D01*
X115246000Y126093000D01*
X114956723Y126060406D01*
X114681951Y125964260D01*
X114435463Y125809381D01*
X114229619Y125603537D01*
X114074740Y125357049D01*
X113978594Y125082277D01*
X113946000Y124793000D01*
X113978594Y124503723D01*
X114074740Y124228951D01*
X114229619Y123982463D01*
X114435463Y123776619D01*
X114681951Y123621740D01*
X114956723Y123525594D01*
X115246000Y123493000D01*
X115535277Y123525594D01*
X115810049Y123621740D01*
X116056537Y123776619D01*
X116262381Y123982463D01*
X116417260Y124228951D01*
X116513406Y124503723D01*
X116546000Y124793000D01*
G37*
G36*
X139800000Y100000000D02*
X139724784Y100667563D01*
X139502907Y101301651D01*
X139145494Y101870469D01*
X138670469Y102345494D01*
X138101651Y102702907D01*
X137467563Y102924784D01*
X136800000Y103000000D01*
X136132437Y102924784D01*
X135498349Y102702907D01*
X134929531Y102345494D01*
X134454506Y101870469D01*
X134097093Y101301651D01*
X133875216Y100667563D01*
X133800000Y100000000D01*
X133875216Y99332437D01*
X134097093Y98698349D01*
X134454506Y98129531D01*
X134929531Y97654506D01*
X135498349Y97297093D01*
X136132437Y97075216D01*
X136800000Y97000000D01*
X137467563Y97075216D01*
X138101651Y97297093D01*
X138670469Y97654506D01*
X139145494Y98129531D01*
X139502907Y98698349D01*
X139724784Y99332437D01*
X139800000Y100000000D01*
G37*
G36*
X103000000Y136800000D02*
X102924784Y137467563D01*
X102702907Y138101651D01*
X102345494Y138670469D01*
X101870469Y139145494D01*
X101301651Y139502907D01*
X100667563Y139724784D01*
X100000000Y139800000D01*
X99332437Y139724784D01*
X98698349Y139502907D01*
X98129531Y139145494D01*
X97654506Y138670469D01*
X97297093Y138101651D01*
X97075216Y137467563D01*
X97000000Y136800000D01*
X97075216Y136132437D01*
X97297093Y135498349D01*
X97654506Y134929531D01*
X98129531Y134454506D01*
X98698349Y134097093D01*
X99332437Y133875216D01*
X100000000Y133800000D01*
X100667563Y133875216D01*
X101301651Y134097093D01*
X101870469Y134454506D01*
X102345494Y134929531D01*
X102702907Y135498349D01*
X102924784Y136132437D01*
X103000000Y136800000D01*
G37*
G36*
X66200000Y100000000D02*
X66124784Y100667563D01*
X65902907Y101301651D01*
X65545494Y101870469D01*
X65070469Y102345494D01*
X64501651Y102702907D01*
X63867563Y102924784D01*
X63200000Y103000000D01*
X62532437Y102924784D01*
X61898349Y102702907D01*
X61329531Y102345494D01*
X60854506Y101870469D01*
X60497093Y101301651D01*
X60275216Y100667563D01*
X60200000Y100000000D01*
X60275216Y99332437D01*
X60497093Y98698349D01*
X60854506Y98129531D01*
X61329531Y97654506D01*
X61898349Y97297093D01*
X62532437Y97075216D01*
X63200000Y97000000D01*
X63867563Y97075216D01*
X64501651Y97297093D01*
X65070469Y97654506D01*
X65545494Y98129531D01*
X65902907Y98698349D01*
X66124784Y99332437D01*
X66200000Y100000000D01*
G37*
G36*
X103000000Y63200000D02*
X102924784Y63867563D01*
X102702907Y64501651D01*
X102345494Y65070469D01*
X101870469Y65545494D01*
X101301651Y65902907D01*
X100667563Y66124784D01*
X100000000Y66200000D01*
X99332437Y66124784D01*
X98698349Y65902907D01*
X98129531Y65545494D01*
X97654506Y65070469D01*
X97297093Y64501651D01*
X97075216Y63867563D01*
X97000000Y63200000D01*
X97075216Y62532437D01*
X97297093Y61898349D01*
X97654506Y61329531D01*
X98129531Y60854506D01*
X98698349Y60497093D01*
X99332437Y60275216D01*
X100000000Y60200000D01*
X100667563Y60275216D01*
X101301651Y60497093D01*
X101870469Y60854506D01*
X102345494Y61329531D01*
X102702907Y61898349D01*
X102924784Y62532437D01*
X103000000Y63200000D01*
G37*
G36*
X95050000Y95500000D02*
X92850000Y95500000D01*
X92850000Y95700000D01*
X95050000Y95700000D01*
X95050000Y95500000D01*
G37*
G36*
X95050000Y97100000D02*
X92850000Y97100000D01*
X92850000Y97300000D01*
X95050000Y97300000D01*
X95050000Y97100000D01*
G37*
G36*
X95050000Y97900000D02*
X92850000Y97900000D01*
X92850000Y98100000D01*
X95050000Y98100000D01*
X95050000Y97900000D01*
G37*
G36*
X95050000Y100700000D02*
X93850000Y100700000D01*
X93850000Y100900000D01*
X95050000Y100900000D01*
X95050000Y100700000D01*
G37*
G36*
X101300000Y103950000D02*
X101300000Y106150000D01*
X101500000Y106150000D01*
X101500000Y103950000D01*
X101300000Y103950000D01*
G37*
G36*
X101700000Y103950000D02*
X101700000Y105150000D01*
X101900000Y105150000D01*
X101900000Y103950000D01*
X101700000Y103950000D01*
G37*
G36*
X102900000Y103950000D02*
X102900000Y106150000D01*
X103100000Y106150000D01*
X103100000Y103950000D01*
X102900000Y103950000D01*
G37*
G36*
X104950000Y97300000D02*
X106150000Y97300000D01*
X106150000Y97100000D01*
X104950000Y97100000D01*
X104950000Y97300000D01*
G37*
G36*
X104950000Y96100000D02*
X107150000Y96100000D01*
X107150000Y95900000D01*
X104950000Y95900000D01*
X104950000Y96100000D01*
G37*
G36*
X101100000Y94050000D02*
X101100000Y91850000D01*
X100900000Y91850000D01*
X100900000Y94050000D01*
X101100000Y94050000D01*
G37*
G36*
X98700000Y94050000D02*
X98700000Y91850000D01*
X98500000Y91850000D01*
X98500000Y94050000D01*
X98700000Y94050000D01*
G37*
G36*
X91940000Y89998579D02*
X82318579Y99620000D01*
X82460000Y99761421D01*
X92081421Y90140000D01*
X91940000Y89998579D01*
G37*
G36*
X82560000Y99520000D02*
X70600000Y99520000D01*
X70600000Y99720000D01*
X82560000Y99720000D01*
X82560000Y99520000D01*
G37*
G36*
X101200000Y104320000D02*
X101200000Y105600000D01*
X101400000Y105600000D01*
X101400000Y104320000D01*
X101200000Y104320000D01*
G37*
G36*
X101300000Y105358579D02*
X101038579Y105620000D01*
X101180000Y105761421D01*
X101441421Y105500000D01*
X101300000Y105358579D01*
G37*
G36*
X101080000Y105520000D02*
X101080000Y106560000D01*
X101280000Y106560000D01*
X101280000Y105520000D01*
X101080000Y105520000D01*
G37*
G36*
X110081421Y110660000D02*
X109820000Y110398579D01*
X109678579Y110540000D01*
X109940000Y110801421D01*
X110081421Y110660000D01*
G37*
G36*
X109920000Y110440000D02*
X108880000Y110440000D01*
X108880000Y110640000D01*
X109920000Y110640000D01*
X109920000Y110440000D01*
G37*
G36*
X109121421Y110540000D02*
X108380000Y109798579D01*
X108238579Y109940000D01*
X108980000Y110681421D01*
X109121421Y110540000D01*
G37*
G36*
X108480000Y109840000D02*
X102400000Y109840000D01*
X102400000Y110040000D01*
X108480000Y110040000D01*
X108480000Y109840000D01*
G37*
G36*
X117204264Y109100000D02*
X114860000Y106755736D01*
X114435736Y107180000D01*
X116780000Y109524264D01*
X117204264Y109100000D01*
G37*
G36*
X115160000Y107480000D02*
X115160000Y106040000D01*
X114560000Y106040000D01*
X114560000Y107480000D01*
X115160000Y107480000D01*
G37*
G36*
X115284264Y106340000D02*
X114140000Y105195736D01*
X113715736Y105620000D01*
X114860000Y106764264D01*
X115284264Y106340000D01*
G37*
G36*
X119210000Y102650000D02*
X119210000Y105230000D01*
X119390000Y105230000D01*
X119390000Y102650000D01*
X119210000Y102650000D01*
G37*
G36*
X121340000Y115212721D02*
X120132721Y116420000D01*
X120260000Y116547279D01*
X121467279Y115340000D01*
X121340000Y115212721D01*
G37*
G36*
X120350000Y116330000D02*
X109010000Y116330000D01*
X109010000Y116510000D01*
X120350000Y116510000D01*
X120350000Y116330000D01*
G37*
G36*
X109100000Y116292721D02*
X107892721Y117500000D01*
X108020000Y117627279D01*
X109227279Y116420000D01*
X109100000Y116292721D01*
G37*
G36*
X107930000Y117410000D02*
X107930000Y119390000D01*
X108110000Y119390000D01*
X108110000Y117410000D01*
X107930000Y117410000D01*
G37*
G36*
X98960000Y88820000D02*
X98952478Y88886756D01*
X98930291Y88950165D01*
X98894549Y89007047D01*
X98847047Y89054549D01*
X98790165Y89090291D01*
X98726756Y89112478D01*
X98660000Y89120000D01*
X98593244Y89112478D01*
X98529835Y89090291D01*
X98472953Y89054549D01*
X98425451Y89007047D01*
X98389709Y88950165D01*
X98367522Y88886756D01*
X98360000Y88820000D01*
X98367522Y88753244D01*
X98389709Y88689835D01*
X98425451Y88632953D01*
X98472953Y88585451D01*
X98529835Y88549709D01*
X98593244Y88527522D01*
X98660000Y88520000D01*
X98726756Y88527522D01*
X98790165Y88549709D01*
X98847047Y88585451D01*
X98894549Y88632953D01*
X98930291Y88689835D01*
X98952478Y88753244D01*
X98960000Y88820000D01*
G37*
G36*
X92240000Y90140000D02*
X92232478Y90206756D01*
X92210291Y90270165D01*
X92174549Y90327047D01*
X92127047Y90374549D01*
X92070165Y90410291D01*
X92006756Y90432478D01*
X91940000Y90440000D01*
X91873244Y90432478D01*
X91809835Y90410291D01*
X91752953Y90374549D01*
X91705451Y90327047D01*
X91669709Y90270165D01*
X91647522Y90206756D01*
X91640000Y90140000D01*
X91647522Y90073244D01*
X91669709Y90009835D01*
X91705451Y89952953D01*
X91752953Y89905451D01*
X91809835Y89869709D01*
X91873244Y89847522D01*
X91940000Y89840000D01*
X92006756Y89847522D01*
X92070165Y89869709D01*
X92127047Y89905451D01*
X92174549Y89952953D01*
X92210291Y90009835D01*
X92232478Y90073244D01*
X92240000Y90140000D01*
G37*
G36*
X102800000Y109940000D02*
X102792478Y110006756D01*
X102770291Y110070165D01*
X102734549Y110127047D01*
X102687047Y110174549D01*
X102630165Y110210291D01*
X102566756Y110232478D01*
X102500000Y110240000D01*
X102433244Y110232478D01*
X102369835Y110210291D01*
X102312953Y110174549D01*
X102265451Y110127047D01*
X102229709Y110070165D01*
X102207522Y110006756D01*
X102200000Y109940000D01*
X102207522Y109873244D01*
X102229709Y109809835D01*
X102265451Y109752953D01*
X102312953Y109705451D01*
X102369835Y109669709D01*
X102433244Y109647522D01*
X102500000Y109640000D01*
X102566756Y109647522D01*
X102630165Y109669709D01*
X102687047Y109705451D01*
X102734549Y109752953D01*
X102770291Y109809835D01*
X102792478Y109873244D01*
X102800000Y109940000D01*
G37*
G36*
X93200000Y97940000D02*
X93192478Y98006756D01*
X93170291Y98070165D01*
X93134549Y98127047D01*
X93087047Y98174549D01*
X93030165Y98210291D01*
X92966756Y98232478D01*
X92900000Y98240000D01*
X92833244Y98232478D01*
X92769835Y98210291D01*
X92712953Y98174549D01*
X92665451Y98127047D01*
X92629709Y98070165D01*
X92607522Y98006756D01*
X92600000Y97940000D01*
X92607522Y97873244D01*
X92629709Y97809835D01*
X92665451Y97752953D01*
X92712953Y97705451D01*
X92769835Y97669709D01*
X92833244Y97647522D01*
X92900000Y97640000D01*
X92966756Y97647522D01*
X93030165Y97669709D01*
X93087047Y97705451D01*
X93134549Y97752953D01*
X93170291Y97809835D01*
X93192478Y97873244D01*
X93200000Y97940000D01*
G37*
G36*
X114440000Y105620000D02*
X114432478Y105686756D01*
X114410291Y105750165D01*
X114374549Y105807047D01*
X114327047Y105854549D01*
X114270165Y105890291D01*
X114206756Y105912478D01*
X114140000Y105920000D01*
X114073244Y105912478D01*
X114009835Y105890291D01*
X113952953Y105854549D01*
X113905451Y105807047D01*
X113869709Y105750165D01*
X113847522Y105686756D01*
X113840000Y105620000D01*
X113847522Y105553244D01*
X113869709Y105489835D01*
X113905451Y105432953D01*
X113952953Y105385451D01*
X114009835Y105349709D01*
X114073244Y105327522D01*
X114140000Y105320000D01*
X114206756Y105327522D01*
X114270165Y105349709D01*
X114327047Y105385451D01*
X114374549Y105432953D01*
X114410291Y105489835D01*
X114432478Y105553244D01*
X114440000Y105620000D01*
G37*
G36*
X119600000Y102740000D02*
X119592478Y102806756D01*
X119570291Y102870165D01*
X119534549Y102927047D01*
X119487047Y102974549D01*
X119430165Y103010291D01*
X119366756Y103032478D01*
X119300000Y103040000D01*
X119233244Y103032478D01*
X119169835Y103010291D01*
X119112953Y102974549D01*
X119065451Y102927047D01*
X119029709Y102870165D01*
X119007522Y102806756D01*
X119000000Y102740000D01*
X119007522Y102673244D01*
X119029709Y102609835D01*
X119065451Y102552953D01*
X119112953Y102505451D01*
X119169835Y102469709D01*
X119233244Y102447522D01*
X119300000Y102440000D01*
X119366756Y102447522D01*
X119430165Y102469709D01*
X119487047Y102505451D01*
X119534549Y102552953D01*
X119570291Y102609835D01*
X119592478Y102673244D01*
X119600000Y102740000D01*
G37*
G36*
X119600000Y105140000D02*
X119592478Y105206756D01*
X119570291Y105270165D01*
X119534549Y105327047D01*
X119487047Y105374549D01*
X119430165Y105410291D01*
X119366756Y105432478D01*
X119300000Y105440000D01*
X119233244Y105432478D01*
X119169835Y105410291D01*
X119112953Y105374549D01*
X119065451Y105327047D01*
X119029709Y105270165D01*
X119007522Y105206756D01*
X119000000Y105140000D01*
X119007522Y105073244D01*
X119029709Y105009835D01*
X119065451Y104952953D01*
X119112953Y104905451D01*
X119169835Y104869709D01*
X119233244Y104847522D01*
X119300000Y104840000D01*
X119366756Y104847522D01*
X119430165Y104869709D01*
X119487047Y104905451D01*
X119534549Y104952953D01*
X119570291Y105009835D01*
X119592478Y105073244D01*
X119600000Y105140000D01*
G37*
G36*
X121640000Y115340000D02*
X121632478Y115406756D01*
X121610291Y115470165D01*
X121574549Y115527047D01*
X121527047Y115574549D01*
X121470165Y115610291D01*
X121406756Y115632478D01*
X121340000Y115640000D01*
X121273244Y115632478D01*
X121209835Y115610291D01*
X121152953Y115574549D01*
X121105451Y115527047D01*
X121069709Y115470165D01*
X121047522Y115406756D01*
X121040000Y115340000D01*
X121047522Y115273244D01*
X121069709Y115209835D01*
X121105451Y115152953D01*
X121152953Y115105451D01*
X121209835Y115069709D01*
X121273244Y115047522D01*
X121340000Y115040000D01*
X121406756Y115047522D01*
X121470165Y115069709D01*
X121527047Y115105451D01*
X121574549Y115152953D01*
X121610291Y115209835D01*
X121632478Y115273244D01*
X121640000Y115340000D01*
G37*
G36*
X108320000Y119300000D02*
X108312478Y119366756D01*
X108290291Y119430165D01*
X108254549Y119487047D01*
X108207047Y119534549D01*
X108150165Y119570291D01*
X108086756Y119592478D01*
X108020000Y119600000D01*
X107953244Y119592478D01*
X107889835Y119570291D01*
X107832953Y119534549D01*
X107785451Y119487047D01*
X107749709Y119430165D01*
X107727522Y119366756D01*
X107720000Y119300000D01*
X107727522Y119233244D01*
X107749709Y119169835D01*
X107785451Y119112953D01*
X107832953Y119065451D01*
X107889835Y119029709D01*
X107953244Y119007522D01*
X108020000Y119000000D01*
X108086756Y119007522D01*
X108150165Y119029709D01*
X108207047Y119065451D01*
X108254549Y119112953D01*
X108290291Y119169835D01*
X108312478Y119233244D01*
X108320000Y119300000D01*
G37*
G36*
X137709205Y106079588D02*
X137701683Y106146344D01*
X137679496Y106209753D01*
X137643754Y106266634D01*
X137596252Y106314137D01*
X137539370Y106349878D01*
X137475961Y106372066D01*
X137409205Y106379588D01*
X137342449Y106372066D01*
X137279040Y106349878D01*
X137222158Y106314137D01*
X137174656Y106266634D01*
X137138914Y106209753D01*
X137116727Y106146344D01*
X137109205Y106079588D01*
X137116727Y106012831D01*
X137138914Y105949422D01*
X137174656Y105892541D01*
X137222158Y105845038D01*
X137279040Y105809297D01*
X137342449Y105787109D01*
X137409205Y105779588D01*
X137475961Y105787109D01*
X137539370Y105809297D01*
X137596252Y105845038D01*
X137643754Y105892541D01*
X137679496Y105949422D01*
X137701683Y106012831D01*
X137709205Y106079588D01*
G37*
G36*
X136249531Y112001717D02*
X136242010Y112068473D01*
X136219822Y112131882D01*
X136184081Y112188764D01*
X136136578Y112236266D01*
X136079696Y112272008D01*
X136016287Y112294195D01*
X135949531Y112301717D01*
X135882775Y112294195D01*
X135819366Y112272008D01*
X135762484Y112236266D01*
X135714982Y112188764D01*
X135679240Y112131882D01*
X135657053Y112068473D01*
X135649531Y112001717D01*
X135657053Y111934961D01*
X135679240Y111871552D01*
X135714982Y111814670D01*
X135762484Y111767168D01*
X135819366Y111731426D01*
X135882775Y111709239D01*
X135949531Y111701717D01*
X136016287Y111709239D01*
X136079696Y111731426D01*
X136136578Y111767168D01*
X136184081Y111814670D01*
X136219822Y111871552D01*
X136242010Y111934961D01*
X136249531Y112001717D01*
G37*
G36*
X133858783Y117613008D02*
X133851262Y117679765D01*
X133829074Y117743173D01*
X133793333Y117800055D01*
X133745830Y117847558D01*
X133688948Y117883299D01*
X133625540Y117905487D01*
X133558783Y117913008D01*
X133492027Y117905487D01*
X133428618Y117883299D01*
X133371736Y117847558D01*
X133324234Y117800055D01*
X133288493Y117743173D01*
X133266305Y117679765D01*
X133258783Y117613008D01*
X133266305Y117546252D01*
X133288493Y117482843D01*
X133324234Y117425961D01*
X133371736Y117378459D01*
X133428618Y117342718D01*
X133492027Y117320530D01*
X133558783Y117313008D01*
X133625540Y117320530D01*
X133688948Y117342718D01*
X133745830Y117378459D01*
X133793333Y117425961D01*
X133829074Y117482843D01*
X133851262Y117546252D01*
X133858783Y117613008D01*
G37*
G36*
X130598881Y122768132D02*
X130591359Y122834888D01*
X130569171Y122898297D01*
X130533430Y122955179D01*
X130485928Y123002681D01*
X130429046Y123038422D01*
X130365637Y123060610D01*
X130298881Y123068132D01*
X130232124Y123060610D01*
X130168716Y123038422D01*
X130111834Y123002681D01*
X130064331Y122955179D01*
X130028590Y122898297D01*
X130006402Y122834888D01*
X129998881Y122768132D01*
X130006402Y122701376D01*
X130028590Y122637967D01*
X130064331Y122581085D01*
X130111834Y122533582D01*
X130168716Y122497841D01*
X130232124Y122475653D01*
X130298881Y122468132D01*
X130365637Y122475653D01*
X130429046Y122497841D01*
X130485928Y122533582D01*
X130533430Y122581085D01*
X130569171Y122637967D01*
X130591359Y122701376D01*
X130598881Y122768132D01*
G37*
G36*
X126554253Y127333573D02*
X126546731Y127400329D01*
X126524544Y127463738D01*
X126488802Y127520620D01*
X126441300Y127568122D01*
X126384418Y127603863D01*
X126321009Y127626051D01*
X126254253Y127633573D01*
X126187497Y127626051D01*
X126124088Y127603863D01*
X126067206Y127568122D01*
X126019704Y127520620D01*
X125983962Y127463738D01*
X125961775Y127400329D01*
X125954253Y127333573D01*
X125961775Y127266816D01*
X125983962Y127203408D01*
X126019704Y127146526D01*
X126067206Y127099023D01*
X126124088Y127063282D01*
X126187497Y127041094D01*
X126254253Y127033573D01*
X126321009Y127041094D01*
X126384418Y127063282D01*
X126441300Y127099023D01*
X126488802Y127146526D01*
X126524544Y127203408D01*
X126546731Y127266816D01*
X126554253Y127333573D01*
G37*
G36*
X116547448Y134240771D02*
X116539926Y134307528D01*
X116517739Y134370937D01*
X116481998Y134427818D01*
X116434495Y134475321D01*
X116377613Y134511062D01*
X116314204Y134533250D01*
X116247448Y134540771D01*
X116180692Y134533250D01*
X116117283Y134511062D01*
X116060401Y134475321D01*
X116012899Y134427818D01*
X115977157Y134370937D01*
X115954970Y134307528D01*
X115947448Y134240771D01*
X115954970Y134174015D01*
X115977157Y134110606D01*
X116012899Y134053725D01*
X116060401Y134006222D01*
X116117283Y133970481D01*
X116180692Y133948293D01*
X116247448Y133940771D01*
X116314204Y133948293D01*
X116377613Y133970481D01*
X116434495Y134006222D01*
X116481998Y134053725D01*
X116517739Y134110606D01*
X116539926Y134174015D01*
X116547448Y134240771D01*
G37*
G36*
X110844442Y136403636D02*
X110836920Y136470393D01*
X110814733Y136533802D01*
X110778991Y136590683D01*
X110731489Y136638186D01*
X110674607Y136673927D01*
X110611198Y136696115D01*
X110544442Y136703636D01*
X110477686Y136696115D01*
X110414277Y136673927D01*
X110357395Y136638186D01*
X110309892Y136590683D01*
X110274151Y136533802D01*
X110251964Y136470393D01*
X110244442Y136403636D01*
X110251964Y136336880D01*
X110274151Y136273471D01*
X110309892Y136216589D01*
X110357395Y136169087D01*
X110414277Y136133346D01*
X110477686Y136111158D01*
X110544442Y136103636D01*
X110611198Y136111158D01*
X110674607Y136133346D01*
X110731489Y136169087D01*
X110778991Y136216589D01*
X110814733Y136273471D01*
X110836920Y136336880D01*
X110844442Y136403636D01*
G37*
G36*
X104868340Y137623666D02*
X104860819Y137690423D01*
X104838631Y137753831D01*
X104802890Y137810713D01*
X104755387Y137858216D01*
X104698505Y137893957D01*
X104635096Y137916145D01*
X104568340Y137923666D01*
X104501584Y137916145D01*
X104438175Y137893957D01*
X104381293Y137858216D01*
X104333791Y137810713D01*
X104298050Y137753831D01*
X104275862Y137690423D01*
X104268340Y137623666D01*
X104275862Y137556910D01*
X104298050Y137493501D01*
X104333791Y137436619D01*
X104381293Y137389117D01*
X104438175Y137353376D01*
X104501584Y137331188D01*
X104568340Y137323666D01*
X104635096Y137331188D01*
X104698505Y137353376D01*
X104755387Y137389117D01*
X104802890Y137436619D01*
X104838631Y137493501D01*
X104860819Y137556910D01*
X104868340Y137623666D01*
G37*
G36*
X92719026Y137134066D02*
X92711505Y137200822D01*
X92689317Y137264231D01*
X92653576Y137321113D01*
X92606073Y137368615D01*
X92549191Y137404356D01*
X92485782Y137426544D01*
X92419026Y137434066D01*
X92352270Y137426544D01*
X92288861Y137404356D01*
X92231979Y137368615D01*
X92184477Y137321113D01*
X92148736Y137264231D01*
X92126548Y137200822D01*
X92119026Y137134066D01*
X92126548Y137067309D01*
X92148736Y137003901D01*
X92184477Y136947019D01*
X92231979Y136899516D01*
X92288861Y136863775D01*
X92352270Y136841587D01*
X92419026Y136834066D01*
X92485782Y136841587D01*
X92549191Y136863775D01*
X92606073Y136899516D01*
X92653576Y136947019D01*
X92689317Y137003901D01*
X92711505Y137067309D01*
X92719026Y137134066D01*
G37*
G36*
X86860475Y135437116D02*
X86852953Y135503872D01*
X86830765Y135567281D01*
X86795024Y135624163D01*
X86747522Y135671665D01*
X86690640Y135707406D01*
X86627231Y135729594D01*
X86560475Y135737116D01*
X86493719Y135729594D01*
X86430310Y135707406D01*
X86373428Y135671665D01*
X86325925Y135624163D01*
X86290184Y135567281D01*
X86267996Y135503872D01*
X86260475Y135437116D01*
X86267996Y135370359D01*
X86290184Y135306950D01*
X86325925Y135250069D01*
X86373428Y135202566D01*
X86430310Y135166825D01*
X86493719Y135144637D01*
X86560475Y135137116D01*
X86627231Y135144637D01*
X86690640Y135166825D01*
X86747522Y135202566D01*
X86795024Y135250069D01*
X86830765Y135306950D01*
X86852953Y135370359D01*
X86860475Y135437116D01*
G37*
G36*
X81350000Y132822363D02*
X81342478Y132889119D01*
X81320291Y132952528D01*
X81284549Y133009410D01*
X81237047Y133056912D01*
X81180165Y133092653D01*
X81116756Y133114841D01*
X81050000Y133122363D01*
X80983244Y133114841D01*
X80919835Y133092653D01*
X80862953Y133056912D01*
X80815451Y133009410D01*
X80779709Y132952528D01*
X80757522Y132889119D01*
X80750000Y132822363D01*
X80757522Y132755607D01*
X80779709Y132692198D01*
X80815451Y132635316D01*
X80862953Y132587813D01*
X80919835Y132552072D01*
X80983244Y132529884D01*
X81050000Y132522363D01*
X81116756Y132529884D01*
X81180165Y132552072D01*
X81237047Y132587813D01*
X81284549Y132635316D01*
X81320291Y132692198D01*
X81342478Y132755607D01*
X81350000Y132822363D01*
G37*
G36*
X76330320Y129357528D02*
X76322799Y129424284D01*
X76300611Y129487693D01*
X76264870Y129544575D01*
X76217367Y129592077D01*
X76160485Y129627819D01*
X76097077Y129650006D01*
X76030320Y129657528D01*
X75963564Y129650006D01*
X75900155Y129627819D01*
X75843273Y129592077D01*
X75795771Y129544575D01*
X75760030Y129487693D01*
X75737842Y129424284D01*
X75730320Y129357528D01*
X75737842Y129290772D01*
X75760030Y129227363D01*
X75795771Y129170481D01*
X75843273Y129122979D01*
X75900155Y129087237D01*
X75963564Y129065050D01*
X76030320Y129057528D01*
X76097077Y129065050D01*
X76160485Y129087237D01*
X76217367Y129122979D01*
X76264870Y129170481D01*
X76300611Y129227363D01*
X76322799Y129290772D01*
X76330320Y129357528D01*
G37*
G36*
X71931443Y125132349D02*
X71923921Y125199105D01*
X71901733Y125262514D01*
X71865992Y125319396D01*
X71818490Y125366898D01*
X71761608Y125402639D01*
X71698199Y125424827D01*
X71631443Y125432349D01*
X71564686Y125424827D01*
X71501278Y125402639D01*
X71444396Y125366898D01*
X71396893Y125319396D01*
X71361152Y125262514D01*
X71338964Y125199105D01*
X71331443Y125132349D01*
X71338964Y125065592D01*
X71361152Y125002184D01*
X71396893Y124945302D01*
X71444396Y124897799D01*
X71501278Y124862058D01*
X71564686Y124839870D01*
X71631443Y124832349D01*
X71698199Y124839870D01*
X71761608Y124862058D01*
X71818490Y124897799D01*
X71865992Y124945302D01*
X71901733Y125002184D01*
X71923921Y125065592D01*
X71931443Y125132349D01*
G37*
G36*
X68267296Y120256255D02*
X68259774Y120323011D01*
X68237586Y120386420D01*
X68201845Y120443302D01*
X68154343Y120490804D01*
X68097461Y120526545D01*
X68034052Y120548733D01*
X67967296Y120556255D01*
X67900539Y120548733D01*
X67837131Y120526545D01*
X67780249Y120490804D01*
X67732746Y120443302D01*
X67697005Y120386420D01*
X67674817Y120323011D01*
X67667296Y120256255D01*
X67674817Y120189499D01*
X67697005Y120126090D01*
X67732746Y120069208D01*
X67780249Y120021705D01*
X67837131Y119985964D01*
X67900539Y119963776D01*
X67967296Y119956255D01*
X68034052Y119963776D01*
X68097461Y119985964D01*
X68154343Y120021705D01*
X68201845Y120069208D01*
X68237586Y120126090D01*
X68259774Y120189499D01*
X68267296Y120256255D01*
G37*
G36*
X65432779Y114855535D02*
X65425257Y114922291D01*
X65403070Y114985700D01*
X65367329Y115042581D01*
X65319826Y115090084D01*
X65262944Y115125825D01*
X65199535Y115148013D01*
X65132779Y115155535D01*
X65066023Y115148013D01*
X65002614Y115125825D01*
X64945732Y115090084D01*
X64898230Y115042581D01*
X64862488Y114985700D01*
X64840301Y114922291D01*
X64832779Y114855535D01*
X64840301Y114788778D01*
X64862488Y114725369D01*
X64898230Y114668488D01*
X64945732Y114620985D01*
X65002614Y114585244D01*
X65066023Y114563056D01*
X65132779Y114555535D01*
X65199535Y114563056D01*
X65262944Y114585244D01*
X65319826Y114620985D01*
X65367329Y114668488D01*
X65403070Y114725369D01*
X65425257Y114788778D01*
X65432779Y114855535D01*
G37*
G36*
X63501305Y109070064D02*
X63493783Y109136820D01*
X63471596Y109200229D01*
X63435855Y109257111D01*
X63388352Y109304613D01*
X63331470Y109340354D01*
X63268061Y109362542D01*
X63201305Y109370064D01*
X63134549Y109362542D01*
X63071140Y109340354D01*
X63014258Y109304613D01*
X62966756Y109257111D01*
X62931014Y109200229D01*
X62908827Y109136820D01*
X62901305Y109070064D01*
X62908827Y109003307D01*
X62931014Y108939899D01*
X62966756Y108883017D01*
X63014258Y108835514D01*
X63071140Y108799773D01*
X63134549Y108777585D01*
X63201305Y108770064D01*
X63268061Y108777585D01*
X63331470Y108799773D01*
X63388352Y108835514D01*
X63435855Y108883017D01*
X63471596Y108939899D01*
X63493783Y109003307D01*
X63501305Y109070064D01*
G37*
G36*
X63501305Y90929936D02*
X63493783Y90996693D01*
X63471596Y91060101D01*
X63435855Y91116983D01*
X63388352Y91164486D01*
X63331470Y91200227D01*
X63268061Y91222415D01*
X63201305Y91229936D01*
X63134549Y91222415D01*
X63071140Y91200227D01*
X63014258Y91164486D01*
X62966756Y91116983D01*
X62931014Y91060101D01*
X62908827Y90996693D01*
X62901305Y90929936D01*
X62908827Y90863180D01*
X62931014Y90799771D01*
X62966756Y90742889D01*
X63014258Y90695387D01*
X63071140Y90659646D01*
X63134549Y90637458D01*
X63201305Y90629936D01*
X63268061Y90637458D01*
X63331470Y90659646D01*
X63388352Y90695387D01*
X63435855Y90742889D01*
X63471596Y90799771D01*
X63493783Y90863180D01*
X63501305Y90929936D01*
G37*
G36*
X65432779Y85144465D02*
X65425257Y85211222D01*
X65403070Y85274631D01*
X65367329Y85331512D01*
X65319826Y85379015D01*
X65262944Y85414756D01*
X65199535Y85436944D01*
X65132779Y85444465D01*
X65066023Y85436944D01*
X65002614Y85414756D01*
X64945732Y85379015D01*
X64898230Y85331512D01*
X64862488Y85274631D01*
X64840301Y85211222D01*
X64832779Y85144465D01*
X64840301Y85077709D01*
X64862488Y85014300D01*
X64898230Y84957419D01*
X64945732Y84909916D01*
X65002614Y84874175D01*
X65066023Y84851987D01*
X65132779Y84844465D01*
X65199535Y84851987D01*
X65262944Y84874175D01*
X65319826Y84909916D01*
X65367329Y84957419D01*
X65403070Y85014300D01*
X65425257Y85077709D01*
X65432779Y85144465D01*
G37*
G36*
X68267296Y79743745D02*
X68259774Y79810501D01*
X68237586Y79873910D01*
X68201845Y79930792D01*
X68154343Y79978295D01*
X68097461Y80014036D01*
X68034052Y80036224D01*
X67967296Y80043745D01*
X67900539Y80036224D01*
X67837131Y80014036D01*
X67780249Y79978295D01*
X67732746Y79930792D01*
X67697005Y79873910D01*
X67674817Y79810501D01*
X67667296Y79743745D01*
X67674817Y79676989D01*
X67697005Y79613580D01*
X67732746Y79556698D01*
X67780249Y79509196D01*
X67837131Y79473455D01*
X67900539Y79451267D01*
X67967296Y79443745D01*
X68034052Y79451267D01*
X68097461Y79473455D01*
X68154343Y79509196D01*
X68201845Y79556698D01*
X68237586Y79613580D01*
X68259774Y79676989D01*
X68267296Y79743745D01*
G37*
G36*
X71931443Y74867651D02*
X71923921Y74934408D01*
X71901733Y74997816D01*
X71865992Y75054698D01*
X71818490Y75102201D01*
X71761608Y75137942D01*
X71698199Y75160130D01*
X71631443Y75167651D01*
X71564686Y75160130D01*
X71501278Y75137942D01*
X71444396Y75102201D01*
X71396893Y75054698D01*
X71361152Y74997816D01*
X71338964Y74934408D01*
X71331443Y74867651D01*
X71338964Y74800895D01*
X71361152Y74737486D01*
X71396893Y74680604D01*
X71444396Y74633102D01*
X71501278Y74597361D01*
X71564686Y74575173D01*
X71631443Y74567651D01*
X71698199Y74575173D01*
X71761608Y74597361D01*
X71818490Y74633102D01*
X71865992Y74680604D01*
X71901733Y74737486D01*
X71923921Y74800895D01*
X71931443Y74867651D01*
G37*
G36*
X76330320Y70642472D02*
X76322799Y70709228D01*
X76300611Y70772637D01*
X76264870Y70829519D01*
X76217367Y70877021D01*
X76160485Y70912763D01*
X76097077Y70934950D01*
X76030320Y70942472D01*
X75963564Y70934950D01*
X75900155Y70912763D01*
X75843273Y70877021D01*
X75795771Y70829519D01*
X75760030Y70772637D01*
X75737842Y70709228D01*
X75730320Y70642472D01*
X75737842Y70575716D01*
X75760030Y70512307D01*
X75795771Y70455425D01*
X75843273Y70407923D01*
X75900155Y70372181D01*
X75963564Y70349994D01*
X76030320Y70342472D01*
X76097077Y70349994D01*
X76160485Y70372181D01*
X76217367Y70407923D01*
X76264870Y70455425D01*
X76300611Y70512307D01*
X76322799Y70575716D01*
X76330320Y70642472D01*
G37*
G36*
X81350000Y67177637D02*
X81342478Y67244393D01*
X81320291Y67307802D01*
X81284549Y67364684D01*
X81237047Y67412187D01*
X81180165Y67447928D01*
X81116756Y67470116D01*
X81050000Y67477637D01*
X80983244Y67470116D01*
X80919835Y67447928D01*
X80862953Y67412187D01*
X80815451Y67364684D01*
X80779709Y67307802D01*
X80757522Y67244393D01*
X80750000Y67177637D01*
X80757522Y67110881D01*
X80779709Y67047472D01*
X80815451Y66990590D01*
X80862953Y66943088D01*
X80919835Y66907347D01*
X80983244Y66885159D01*
X81050000Y66877637D01*
X81116756Y66885159D01*
X81180165Y66907347D01*
X81237047Y66943088D01*
X81284549Y66990590D01*
X81320291Y67047472D01*
X81342478Y67110881D01*
X81350000Y67177637D01*
G37*
G36*
X86860475Y64562884D02*
X86852953Y64629641D01*
X86830765Y64693050D01*
X86795024Y64749931D01*
X86747522Y64797434D01*
X86690640Y64833175D01*
X86627231Y64855363D01*
X86560475Y64862884D01*
X86493719Y64855363D01*
X86430310Y64833175D01*
X86373428Y64797434D01*
X86325925Y64749931D01*
X86290184Y64693050D01*
X86267996Y64629641D01*
X86260475Y64562884D01*
X86267996Y64496128D01*
X86290184Y64432719D01*
X86325925Y64375837D01*
X86373428Y64328335D01*
X86430310Y64292594D01*
X86493719Y64270406D01*
X86560475Y64262884D01*
X86627231Y64270406D01*
X86690640Y64292594D01*
X86747522Y64328335D01*
X86795024Y64375837D01*
X86830765Y64432719D01*
X86852953Y64496128D01*
X86860475Y64562884D01*
G37*
G36*
X92719026Y62865934D02*
X92711505Y62932691D01*
X92689317Y62996099D01*
X92653576Y63052981D01*
X92606073Y63100484D01*
X92549191Y63136225D01*
X92485782Y63158413D01*
X92419026Y63165934D01*
X92352270Y63158413D01*
X92288861Y63136225D01*
X92231979Y63100484D01*
X92184477Y63052981D01*
X92148736Y62996099D01*
X92126548Y62932691D01*
X92119026Y62865934D01*
X92126548Y62799178D01*
X92148736Y62735769D01*
X92184477Y62678887D01*
X92231979Y62631385D01*
X92288861Y62595644D01*
X92352270Y62573456D01*
X92419026Y62565934D01*
X92485782Y62573456D01*
X92549191Y62595644D01*
X92606073Y62631385D01*
X92653576Y62678887D01*
X92689317Y62735769D01*
X92711505Y62799178D01*
X92719026Y62865934D01*
G37*
G36*
X104868340Y62376334D02*
X104860819Y62443090D01*
X104838631Y62506499D01*
X104802890Y62563381D01*
X104755387Y62610883D01*
X104698505Y62646624D01*
X104635096Y62668812D01*
X104568340Y62676334D01*
X104501584Y62668812D01*
X104438175Y62646624D01*
X104381293Y62610883D01*
X104333791Y62563381D01*
X104298050Y62506499D01*
X104275862Y62443090D01*
X104268340Y62376334D01*
X104275862Y62309577D01*
X104298050Y62246169D01*
X104333791Y62189287D01*
X104381293Y62141784D01*
X104438175Y62106043D01*
X104501584Y62083855D01*
X104568340Y62076334D01*
X104635096Y62083855D01*
X104698505Y62106043D01*
X104755387Y62141784D01*
X104802890Y62189287D01*
X104838631Y62246169D01*
X104860819Y62309577D01*
X104868340Y62376334D01*
G37*
G36*
X110844442Y63596364D02*
X110836920Y63663120D01*
X110814733Y63726529D01*
X110778991Y63783411D01*
X110731489Y63830913D01*
X110674607Y63866654D01*
X110611198Y63888842D01*
X110544442Y63896364D01*
X110477686Y63888842D01*
X110414277Y63866654D01*
X110357395Y63830913D01*
X110309892Y63783411D01*
X110274151Y63726529D01*
X110251964Y63663120D01*
X110244442Y63596364D01*
X110251964Y63529607D01*
X110274151Y63466198D01*
X110309892Y63409317D01*
X110357395Y63361814D01*
X110414277Y63326073D01*
X110477686Y63303885D01*
X110544442Y63296364D01*
X110611198Y63303885D01*
X110674607Y63326073D01*
X110731489Y63361814D01*
X110778991Y63409317D01*
X110814733Y63466198D01*
X110836920Y63529607D01*
X110844442Y63596364D01*
G37*
G36*
X116547448Y65759229D02*
X116539926Y65825985D01*
X116517739Y65889394D01*
X116481998Y65946275D01*
X116434495Y65993778D01*
X116377613Y66029519D01*
X116314204Y66051707D01*
X116247448Y66059229D01*
X116180692Y66051707D01*
X116117283Y66029519D01*
X116060401Y65993778D01*
X116012899Y65946275D01*
X115977157Y65889394D01*
X115954970Y65825985D01*
X115947448Y65759229D01*
X115954970Y65692472D01*
X115977157Y65629063D01*
X116012899Y65572182D01*
X116060401Y65524679D01*
X116117283Y65488938D01*
X116180692Y65466750D01*
X116247448Y65459229D01*
X116314204Y65466750D01*
X116377613Y65488938D01*
X116434495Y65524679D01*
X116481998Y65572182D01*
X116517739Y65629063D01*
X116539926Y65692472D01*
X116547448Y65759229D01*
G37*
G36*
X121829654Y68808911D02*
X121822132Y68875668D01*
X121799945Y68939077D01*
X121764203Y68995958D01*
X121716701Y69043461D01*
X121659819Y69079202D01*
X121596410Y69101390D01*
X121529654Y69108911D01*
X121462898Y69101390D01*
X121399489Y69079202D01*
X121342607Y69043461D01*
X121295104Y68995958D01*
X121259363Y68939077D01*
X121237176Y68875668D01*
X121229654Y68808911D01*
X121237176Y68742155D01*
X121259363Y68678746D01*
X121295104Y68621865D01*
X121342607Y68574362D01*
X121399489Y68538621D01*
X121462898Y68516433D01*
X121529654Y68508911D01*
X121596410Y68516433D01*
X121659819Y68538621D01*
X121716701Y68574362D01*
X121764203Y68621865D01*
X121799945Y68678746D01*
X121822132Y68742155D01*
X121829654Y68808911D01*
G37*
G36*
X126554253Y72666427D02*
X126546731Y72733184D01*
X126524544Y72796592D01*
X126488802Y72853474D01*
X126441300Y72900977D01*
X126384418Y72936718D01*
X126321009Y72958906D01*
X126254253Y72966427D01*
X126187497Y72958906D01*
X126124088Y72936718D01*
X126067206Y72900977D01*
X126019704Y72853474D01*
X125983962Y72796592D01*
X125961775Y72733184D01*
X125954253Y72666427D01*
X125961775Y72599671D01*
X125983962Y72536262D01*
X126019704Y72479380D01*
X126067206Y72431878D01*
X126124088Y72396137D01*
X126187497Y72373949D01*
X126254253Y72366427D01*
X126321009Y72373949D01*
X126384418Y72396137D01*
X126441300Y72431878D01*
X126488802Y72479380D01*
X126524544Y72536262D01*
X126546731Y72599671D01*
X126554253Y72666427D01*
G37*
G36*
X130598881Y77231868D02*
X130591359Y77298624D01*
X130569171Y77362033D01*
X130533430Y77418915D01*
X130485928Y77466418D01*
X130429046Y77502159D01*
X130365637Y77524347D01*
X130298881Y77531868D01*
X130232124Y77524347D01*
X130168716Y77502159D01*
X130111834Y77466418D01*
X130064331Y77418915D01*
X130028590Y77362033D01*
X130006402Y77298624D01*
X129998881Y77231868D01*
X130006402Y77165112D01*
X130028590Y77101703D01*
X130064331Y77044821D01*
X130111834Y76997319D01*
X130168716Y76961578D01*
X130232124Y76939390D01*
X130298881Y76931868D01*
X130365637Y76939390D01*
X130429046Y76961578D01*
X130485928Y76997319D01*
X130533430Y77044821D01*
X130569171Y77101703D01*
X130591359Y77165112D01*
X130598881Y77231868D01*
G37*
G36*
X133858783Y82386992D02*
X133851262Y82453748D01*
X133829074Y82517157D01*
X133793333Y82574039D01*
X133745830Y82621541D01*
X133688948Y82657282D01*
X133625540Y82679470D01*
X133558783Y82686992D01*
X133492027Y82679470D01*
X133428618Y82657282D01*
X133371736Y82621541D01*
X133324234Y82574039D01*
X133288493Y82517157D01*
X133266305Y82453748D01*
X133258783Y82386992D01*
X133266305Y82320235D01*
X133288493Y82256827D01*
X133324234Y82199945D01*
X133371736Y82152442D01*
X133428618Y82116701D01*
X133492027Y82094513D01*
X133558783Y82086992D01*
X133625540Y82094513D01*
X133688948Y82116701D01*
X133745830Y82152442D01*
X133793333Y82199945D01*
X133829074Y82256827D01*
X133851262Y82320235D01*
X133858783Y82386992D01*
G37*
G36*
X136249531Y87998283D02*
X136242010Y88065039D01*
X136219822Y88128448D01*
X136184081Y88185330D01*
X136136578Y88232832D01*
X136079696Y88268574D01*
X136016287Y88290761D01*
X135949531Y88298283D01*
X135882775Y88290761D01*
X135819366Y88268574D01*
X135762484Y88232832D01*
X135714982Y88185330D01*
X135679240Y88128448D01*
X135657053Y88065039D01*
X135649531Y87998283D01*
X135657053Y87931527D01*
X135679240Y87868118D01*
X135714982Y87811236D01*
X135762484Y87763734D01*
X135819366Y87727992D01*
X135882775Y87705805D01*
X135949531Y87698283D01*
X136016287Y87705805D01*
X136079696Y87727992D01*
X136136578Y87763734D01*
X136184081Y87811236D01*
X136219822Y87868118D01*
X136242010Y87931527D01*
X136249531Y87998283D01*
G37*
G36*
X137709205Y93920412D02*
X137701683Y93987169D01*
X137679496Y94050578D01*
X137643754Y94107459D01*
X137596252Y94154962D01*
X137539370Y94190703D01*
X137475961Y94212891D01*
X137409205Y94220412D01*
X137342449Y94212891D01*
X137279040Y94190703D01*
X137222158Y94154962D01*
X137174656Y94107459D01*
X137138914Y94050578D01*
X137116727Y93987169D01*
X137109205Y93920412D01*
X137116727Y93853656D01*
X137138914Y93790247D01*
X137174656Y93733366D01*
X137222158Y93685863D01*
X137279040Y93650122D01*
X137342449Y93627934D01*
X137409205Y93620412D01*
X137475961Y93627934D01*
X137539370Y93650122D01*
X137596252Y93685863D01*
X137643754Y93733366D01*
X137679496Y93790247D01*
X137701683Y93853656D01*
X137709205Y93920412D01*
G37*
G36*
X63800000Y105500000D02*
X63792478Y105566756D01*
X63770291Y105630165D01*
X63734549Y105687047D01*
X63687047Y105734549D01*
X63630165Y105770291D01*
X63566756Y105792478D01*
X63500000Y105800000D01*
X63433244Y105792478D01*
X63369835Y105770291D01*
X63312953Y105734549D01*
X63265451Y105687047D01*
X63229709Y105630165D01*
X63207522Y105566756D01*
X63200000Y105500000D01*
X63207522Y105433244D01*
X63229709Y105369835D01*
X63265451Y105312953D01*
X63312953Y105265451D01*
X63369835Y105229709D01*
X63433244Y105207522D01*
X63500000Y105200000D01*
X63566756Y105207522D01*
X63630165Y105229709D01*
X63687047Y105265451D01*
X63734549Y105312953D01*
X63770291Y105369835D01*
X63792478Y105433244D01*
X63800000Y105500000D01*
G37*
G36*
X69800000Y87500000D02*
X69792478Y87566756D01*
X69770291Y87630165D01*
X69734549Y87687047D01*
X69687047Y87734549D01*
X69630165Y87770291D01*
X69566756Y87792478D01*
X69500000Y87800000D01*
X69433244Y87792478D01*
X69369835Y87770291D01*
X69312953Y87734549D01*
X69265451Y87687047D01*
X69229709Y87630165D01*
X69207522Y87566756D01*
X69200000Y87500000D01*
X69207522Y87433244D01*
X69229709Y87369835D01*
X69265451Y87312953D01*
X69312953Y87265451D01*
X69369835Y87229709D01*
X69433244Y87207522D01*
X69500000Y87200000D01*
X69566756Y87207522D01*
X69630165Y87229709D01*
X69687047Y87265451D01*
X69734549Y87312953D01*
X69770291Y87369835D01*
X69792478Y87433244D01*
X69800000Y87500000D01*
G37*
G36*
X69800000Y111500000D02*
X69792478Y111566756D01*
X69770291Y111630165D01*
X69734549Y111687047D01*
X69687047Y111734549D01*
X69630165Y111770291D01*
X69566756Y111792478D01*
X69500000Y111800000D01*
X69433244Y111792478D01*
X69369835Y111770291D01*
X69312953Y111734549D01*
X69265451Y111687047D01*
X69229709Y111630165D01*
X69207522Y111566756D01*
X69200000Y111500000D01*
X69207522Y111433244D01*
X69229709Y111369835D01*
X69265451Y111312953D01*
X69312953Y111265451D01*
X69369835Y111229709D01*
X69433244Y111207522D01*
X69500000Y111200000D01*
X69566756Y111207522D01*
X69630165Y111229709D01*
X69687047Y111265451D01*
X69734549Y111312953D01*
X69770291Y111369835D01*
X69792478Y111433244D01*
X69800000Y111500000D01*
G37*
G36*
X75800000Y75500000D02*
X75792478Y75566756D01*
X75770291Y75630165D01*
X75734549Y75687047D01*
X75687047Y75734549D01*
X75630165Y75770291D01*
X75566756Y75792478D01*
X75500000Y75800000D01*
X75433244Y75792478D01*
X75369835Y75770291D01*
X75312953Y75734549D01*
X75265451Y75687047D01*
X75229709Y75630165D01*
X75207522Y75566756D01*
X75200000Y75500000D01*
X75207522Y75433244D01*
X75229709Y75369835D01*
X75265451Y75312953D01*
X75312953Y75265451D01*
X75369835Y75229709D01*
X75433244Y75207522D01*
X75500000Y75200000D01*
X75566756Y75207522D01*
X75630165Y75229709D01*
X75687047Y75265451D01*
X75734549Y75312953D01*
X75770291Y75369835D01*
X75792478Y75433244D01*
X75800000Y75500000D01*
G37*
G36*
X75800000Y87500000D02*
X75792478Y87566756D01*
X75770291Y87630165D01*
X75734549Y87687047D01*
X75687047Y87734549D01*
X75630165Y87770291D01*
X75566756Y87792478D01*
X75500000Y87800000D01*
X75433244Y87792478D01*
X75369835Y87770291D01*
X75312953Y87734549D01*
X75265451Y87687047D01*
X75229709Y87630165D01*
X75207522Y87566756D01*
X75200000Y87500000D01*
X75207522Y87433244D01*
X75229709Y87369835D01*
X75265451Y87312953D01*
X75312953Y87265451D01*
X75369835Y87229709D01*
X75433244Y87207522D01*
X75500000Y87200000D01*
X75566756Y87207522D01*
X75630165Y87229709D01*
X75687047Y87265451D01*
X75734549Y87312953D01*
X75770291Y87369835D01*
X75792478Y87433244D01*
X75800000Y87500000D01*
G37*
G36*
X75800000Y93500000D02*
X75792478Y93566756D01*
X75770291Y93630165D01*
X75734549Y93687047D01*
X75687047Y93734549D01*
X75630165Y93770291D01*
X75566756Y93792478D01*
X75500000Y93800000D01*
X75433244Y93792478D01*
X75369835Y93770291D01*
X75312953Y93734549D01*
X75265451Y93687047D01*
X75229709Y93630165D01*
X75207522Y93566756D01*
X75200000Y93500000D01*
X75207522Y93433244D01*
X75229709Y93369835D01*
X75265451Y93312953D01*
X75312953Y93265451D01*
X75369835Y93229709D01*
X75433244Y93207522D01*
X75500000Y93200000D01*
X75566756Y93207522D01*
X75630165Y93229709D01*
X75687047Y93265451D01*
X75734549Y93312953D01*
X75770291Y93369835D01*
X75792478Y93433244D01*
X75800000Y93500000D01*
G37*
G36*
X75800000Y105500000D02*
X75792478Y105566756D01*
X75770291Y105630165D01*
X75734549Y105687047D01*
X75687047Y105734549D01*
X75630165Y105770291D01*
X75566756Y105792478D01*
X75500000Y105800000D01*
X75433244Y105792478D01*
X75369835Y105770291D01*
X75312953Y105734549D01*
X75265451Y105687047D01*
X75229709Y105630165D01*
X75207522Y105566756D01*
X75200000Y105500000D01*
X75207522Y105433244D01*
X75229709Y105369835D01*
X75265451Y105312953D01*
X75312953Y105265451D01*
X75369835Y105229709D01*
X75433244Y105207522D01*
X75500000Y105200000D01*
X75566756Y105207522D01*
X75630165Y105229709D01*
X75687047Y105265451D01*
X75734549Y105312953D01*
X75770291Y105369835D01*
X75792478Y105433244D01*
X75800000Y105500000D01*
G37*
G36*
X75800000Y111500000D02*
X75792478Y111566756D01*
X75770291Y111630165D01*
X75734549Y111687047D01*
X75687047Y111734549D01*
X75630165Y111770291D01*
X75566756Y111792478D01*
X75500000Y111800000D01*
X75433244Y111792478D01*
X75369835Y111770291D01*
X75312953Y111734549D01*
X75265451Y111687047D01*
X75229709Y111630165D01*
X75207522Y111566756D01*
X75200000Y111500000D01*
X75207522Y111433244D01*
X75229709Y111369835D01*
X75265451Y111312953D01*
X75312953Y111265451D01*
X75369835Y111229709D01*
X75433244Y111207522D01*
X75500000Y111200000D01*
X75566756Y111207522D01*
X75630165Y111229709D01*
X75687047Y111265451D01*
X75734549Y111312953D01*
X75770291Y111369835D01*
X75792478Y111433244D01*
X75800000Y111500000D01*
G37*
G36*
X75800000Y117500000D02*
X75792478Y117566756D01*
X75770291Y117630165D01*
X75734549Y117687047D01*
X75687047Y117734549D01*
X75630165Y117770291D01*
X75566756Y117792478D01*
X75500000Y117800000D01*
X75433244Y117792478D01*
X75369835Y117770291D01*
X75312953Y117734549D01*
X75265451Y117687047D01*
X75229709Y117630165D01*
X75207522Y117566756D01*
X75200000Y117500000D01*
X75207522Y117433244D01*
X75229709Y117369835D01*
X75265451Y117312953D01*
X75312953Y117265451D01*
X75369835Y117229709D01*
X75433244Y117207522D01*
X75500000Y117200000D01*
X75566756Y117207522D01*
X75630165Y117229709D01*
X75687047Y117265451D01*
X75734549Y117312953D01*
X75770291Y117369835D01*
X75792478Y117433244D01*
X75800000Y117500000D01*
G37*
G36*
X75800000Y123500000D02*
X75792478Y123566756D01*
X75770291Y123630165D01*
X75734549Y123687047D01*
X75687047Y123734549D01*
X75630165Y123770291D01*
X75566756Y123792478D01*
X75500000Y123800000D01*
X75433244Y123792478D01*
X75369835Y123770291D01*
X75312953Y123734549D01*
X75265451Y123687047D01*
X75229709Y123630165D01*
X75207522Y123566756D01*
X75200000Y123500000D01*
X75207522Y123433244D01*
X75229709Y123369835D01*
X75265451Y123312953D01*
X75312953Y123265451D01*
X75369835Y123229709D01*
X75433244Y123207522D01*
X75500000Y123200000D01*
X75566756Y123207522D01*
X75630165Y123229709D01*
X75687047Y123265451D01*
X75734549Y123312953D01*
X75770291Y123369835D01*
X75792478Y123433244D01*
X75800000Y123500000D01*
G37*
G36*
X81800000Y75500000D02*
X81792478Y75566756D01*
X81770291Y75630165D01*
X81734549Y75687047D01*
X81687047Y75734549D01*
X81630165Y75770291D01*
X81566756Y75792478D01*
X81500000Y75800000D01*
X81433244Y75792478D01*
X81369835Y75770291D01*
X81312953Y75734549D01*
X81265451Y75687047D01*
X81229709Y75630165D01*
X81207522Y75566756D01*
X81200000Y75500000D01*
X81207522Y75433244D01*
X81229709Y75369835D01*
X81265451Y75312953D01*
X81312953Y75265451D01*
X81369835Y75229709D01*
X81433244Y75207522D01*
X81500000Y75200000D01*
X81566756Y75207522D01*
X81630165Y75229709D01*
X81687047Y75265451D01*
X81734549Y75312953D01*
X81770291Y75369835D01*
X81792478Y75433244D01*
X81800000Y75500000D01*
G37*
G36*
X81800000Y81500000D02*
X81792478Y81566756D01*
X81770291Y81630165D01*
X81734549Y81687047D01*
X81687047Y81734549D01*
X81630165Y81770291D01*
X81566756Y81792478D01*
X81500000Y81800000D01*
X81433244Y81792478D01*
X81369835Y81770291D01*
X81312953Y81734549D01*
X81265451Y81687047D01*
X81229709Y81630165D01*
X81207522Y81566756D01*
X81200000Y81500000D01*
X81207522Y81433244D01*
X81229709Y81369835D01*
X81265451Y81312953D01*
X81312953Y81265451D01*
X81369835Y81229709D01*
X81433244Y81207522D01*
X81500000Y81200000D01*
X81566756Y81207522D01*
X81630165Y81229709D01*
X81687047Y81265451D01*
X81734549Y81312953D01*
X81770291Y81369835D01*
X81792478Y81433244D01*
X81800000Y81500000D01*
G37*
G36*
X81800000Y87500000D02*
X81792478Y87566756D01*
X81770291Y87630165D01*
X81734549Y87687047D01*
X81687047Y87734549D01*
X81630165Y87770291D01*
X81566756Y87792478D01*
X81500000Y87800000D01*
X81433244Y87792478D01*
X81369835Y87770291D01*
X81312953Y87734549D01*
X81265451Y87687047D01*
X81229709Y87630165D01*
X81207522Y87566756D01*
X81200000Y87500000D01*
X81207522Y87433244D01*
X81229709Y87369835D01*
X81265451Y87312953D01*
X81312953Y87265451D01*
X81369835Y87229709D01*
X81433244Y87207522D01*
X81500000Y87200000D01*
X81566756Y87207522D01*
X81630165Y87229709D01*
X81687047Y87265451D01*
X81734549Y87312953D01*
X81770291Y87369835D01*
X81792478Y87433244D01*
X81800000Y87500000D01*
G37*
G36*
X81800000Y93500000D02*
X81792478Y93566756D01*
X81770291Y93630165D01*
X81734549Y93687047D01*
X81687047Y93734549D01*
X81630165Y93770291D01*
X81566756Y93792478D01*
X81500000Y93800000D01*
X81433244Y93792478D01*
X81369835Y93770291D01*
X81312953Y93734549D01*
X81265451Y93687047D01*
X81229709Y93630165D01*
X81207522Y93566756D01*
X81200000Y93500000D01*
X81207522Y93433244D01*
X81229709Y93369835D01*
X81265451Y93312953D01*
X81312953Y93265451D01*
X81369835Y93229709D01*
X81433244Y93207522D01*
X81500000Y93200000D01*
X81566756Y93207522D01*
X81630165Y93229709D01*
X81687047Y93265451D01*
X81734549Y93312953D01*
X81770291Y93369835D01*
X81792478Y93433244D01*
X81800000Y93500000D01*
G37*
G36*
X81800000Y105500000D02*
X81792478Y105566756D01*
X81770291Y105630165D01*
X81734549Y105687047D01*
X81687047Y105734549D01*
X81630165Y105770291D01*
X81566756Y105792478D01*
X81500000Y105800000D01*
X81433244Y105792478D01*
X81369835Y105770291D01*
X81312953Y105734549D01*
X81265451Y105687047D01*
X81229709Y105630165D01*
X81207522Y105566756D01*
X81200000Y105500000D01*
X81207522Y105433244D01*
X81229709Y105369835D01*
X81265451Y105312953D01*
X81312953Y105265451D01*
X81369835Y105229709D01*
X81433244Y105207522D01*
X81500000Y105200000D01*
X81566756Y105207522D01*
X81630165Y105229709D01*
X81687047Y105265451D01*
X81734549Y105312953D01*
X81770291Y105369835D01*
X81792478Y105433244D01*
X81800000Y105500000D01*
G37*
G36*
X81800000Y111500000D02*
X81792478Y111566756D01*
X81770291Y111630165D01*
X81734549Y111687047D01*
X81687047Y111734549D01*
X81630165Y111770291D01*
X81566756Y111792478D01*
X81500000Y111800000D01*
X81433244Y111792478D01*
X81369835Y111770291D01*
X81312953Y111734549D01*
X81265451Y111687047D01*
X81229709Y111630165D01*
X81207522Y111566756D01*
X81200000Y111500000D01*
X81207522Y111433244D01*
X81229709Y111369835D01*
X81265451Y111312953D01*
X81312953Y111265451D01*
X81369835Y111229709D01*
X81433244Y111207522D01*
X81500000Y111200000D01*
X81566756Y111207522D01*
X81630165Y111229709D01*
X81687047Y111265451D01*
X81734549Y111312953D01*
X81770291Y111369835D01*
X81792478Y111433244D01*
X81800000Y111500000D01*
G37*
G36*
X81800000Y123500000D02*
X81792478Y123566756D01*
X81770291Y123630165D01*
X81734549Y123687047D01*
X81687047Y123734549D01*
X81630165Y123770291D01*
X81566756Y123792478D01*
X81500000Y123800000D01*
X81433244Y123792478D01*
X81369835Y123770291D01*
X81312953Y123734549D01*
X81265451Y123687047D01*
X81229709Y123630165D01*
X81207522Y123566756D01*
X81200000Y123500000D01*
X81207522Y123433244D01*
X81229709Y123369835D01*
X81265451Y123312953D01*
X81312953Y123265451D01*
X81369835Y123229709D01*
X81433244Y123207522D01*
X81500000Y123200000D01*
X81566756Y123207522D01*
X81630165Y123229709D01*
X81687047Y123265451D01*
X81734549Y123312953D01*
X81770291Y123369835D01*
X81792478Y123433244D01*
X81800000Y123500000D01*
G37*
G36*
X81800000Y129500000D02*
X81792478Y129566756D01*
X81770291Y129630165D01*
X81734549Y129687047D01*
X81687047Y129734549D01*
X81630165Y129770291D01*
X81566756Y129792478D01*
X81500000Y129800000D01*
X81433244Y129792478D01*
X81369835Y129770291D01*
X81312953Y129734549D01*
X81265451Y129687047D01*
X81229709Y129630165D01*
X81207522Y129566756D01*
X81200000Y129500000D01*
X81207522Y129433244D01*
X81229709Y129369835D01*
X81265451Y129312953D01*
X81312953Y129265451D01*
X81369835Y129229709D01*
X81433244Y129207522D01*
X81500000Y129200000D01*
X81566756Y129207522D01*
X81630165Y129229709D01*
X81687047Y129265451D01*
X81734549Y129312953D01*
X81770291Y129369835D01*
X81792478Y129433244D01*
X81800000Y129500000D01*
G37*
G36*
X87800000Y69500000D02*
X87792478Y69566756D01*
X87770291Y69630165D01*
X87734549Y69687047D01*
X87687047Y69734549D01*
X87630165Y69770291D01*
X87566756Y69792478D01*
X87500000Y69800000D01*
X87433244Y69792478D01*
X87369835Y69770291D01*
X87312953Y69734549D01*
X87265451Y69687047D01*
X87229709Y69630165D01*
X87207522Y69566756D01*
X87200000Y69500000D01*
X87207522Y69433244D01*
X87229709Y69369835D01*
X87265451Y69312953D01*
X87312953Y69265451D01*
X87369835Y69229709D01*
X87433244Y69207522D01*
X87500000Y69200000D01*
X87566756Y69207522D01*
X87630165Y69229709D01*
X87687047Y69265451D01*
X87734549Y69312953D01*
X87770291Y69369835D01*
X87792478Y69433244D01*
X87800000Y69500000D01*
G37*
G36*
X87800000Y93500000D02*
X87792478Y93566756D01*
X87770291Y93630165D01*
X87734549Y93687047D01*
X87687047Y93734549D01*
X87630165Y93770291D01*
X87566756Y93792478D01*
X87500000Y93800000D01*
X87433244Y93792478D01*
X87369835Y93770291D01*
X87312953Y93734549D01*
X87265451Y93687047D01*
X87229709Y93630165D01*
X87207522Y93566756D01*
X87200000Y93500000D01*
X87207522Y93433244D01*
X87229709Y93369835D01*
X87265451Y93312953D01*
X87312953Y93265451D01*
X87369835Y93229709D01*
X87433244Y93207522D01*
X87500000Y93200000D01*
X87566756Y93207522D01*
X87630165Y93229709D01*
X87687047Y93265451D01*
X87734549Y93312953D01*
X87770291Y93369835D01*
X87792478Y93433244D01*
X87800000Y93500000D01*
G37*
G36*
X87800000Y111500000D02*
X87792478Y111566756D01*
X87770291Y111630165D01*
X87734549Y111687047D01*
X87687047Y111734549D01*
X87630165Y111770291D01*
X87566756Y111792478D01*
X87500000Y111800000D01*
X87433244Y111792478D01*
X87369835Y111770291D01*
X87312953Y111734549D01*
X87265451Y111687047D01*
X87229709Y111630165D01*
X87207522Y111566756D01*
X87200000Y111500000D01*
X87207522Y111433244D01*
X87229709Y111369835D01*
X87265451Y111312953D01*
X87312953Y111265451D01*
X87369835Y111229709D01*
X87433244Y111207522D01*
X87500000Y111200000D01*
X87566756Y111207522D01*
X87630165Y111229709D01*
X87687047Y111265451D01*
X87734549Y111312953D01*
X87770291Y111369835D01*
X87792478Y111433244D01*
X87800000Y111500000D01*
G37*
G36*
X87800000Y117500000D02*
X87792478Y117566756D01*
X87770291Y117630165D01*
X87734549Y117687047D01*
X87687047Y117734549D01*
X87630165Y117770291D01*
X87566756Y117792478D01*
X87500000Y117800000D01*
X87433244Y117792478D01*
X87369835Y117770291D01*
X87312953Y117734549D01*
X87265451Y117687047D01*
X87229709Y117630165D01*
X87207522Y117566756D01*
X87200000Y117500000D01*
X87207522Y117433244D01*
X87229709Y117369835D01*
X87265451Y117312953D01*
X87312953Y117265451D01*
X87369835Y117229709D01*
X87433244Y117207522D01*
X87500000Y117200000D01*
X87566756Y117207522D01*
X87630165Y117229709D01*
X87687047Y117265451D01*
X87734549Y117312953D01*
X87770291Y117369835D01*
X87792478Y117433244D01*
X87800000Y117500000D01*
G37*
G36*
X93800000Y69500000D02*
X93792478Y69566756D01*
X93770291Y69630165D01*
X93734549Y69687047D01*
X93687047Y69734549D01*
X93630165Y69770291D01*
X93566756Y69792478D01*
X93500000Y69800000D01*
X93433244Y69792478D01*
X93369835Y69770291D01*
X93312953Y69734549D01*
X93265451Y69687047D01*
X93229709Y69630165D01*
X93207522Y69566756D01*
X93200000Y69500000D01*
X93207522Y69433244D01*
X93229709Y69369835D01*
X93265451Y69312953D01*
X93312953Y69265451D01*
X93369835Y69229709D01*
X93433244Y69207522D01*
X93500000Y69200000D01*
X93566756Y69207522D01*
X93630165Y69229709D01*
X93687047Y69265451D01*
X93734549Y69312953D01*
X93770291Y69369835D01*
X93792478Y69433244D01*
X93800000Y69500000D01*
G37*
G36*
X93800000Y75500000D02*
X93792478Y75566756D01*
X93770291Y75630165D01*
X93734549Y75687047D01*
X93687047Y75734549D01*
X93630165Y75770291D01*
X93566756Y75792478D01*
X93500000Y75800000D01*
X93433244Y75792478D01*
X93369835Y75770291D01*
X93312953Y75734549D01*
X93265451Y75687047D01*
X93229709Y75630165D01*
X93207522Y75566756D01*
X93200000Y75500000D01*
X93207522Y75433244D01*
X93229709Y75369835D01*
X93265451Y75312953D01*
X93312953Y75265451D01*
X93369835Y75229709D01*
X93433244Y75207522D01*
X93500000Y75200000D01*
X93566756Y75207522D01*
X93630165Y75229709D01*
X93687047Y75265451D01*
X93734549Y75312953D01*
X93770291Y75369835D01*
X93792478Y75433244D01*
X93800000Y75500000D01*
G37*
G36*
X93800000Y81500000D02*
X93792478Y81566756D01*
X93770291Y81630165D01*
X93734549Y81687047D01*
X93687047Y81734549D01*
X93630165Y81770291D01*
X93566756Y81792478D01*
X93500000Y81800000D01*
X93433244Y81792478D01*
X93369835Y81770291D01*
X93312953Y81734549D01*
X93265451Y81687047D01*
X93229709Y81630165D01*
X93207522Y81566756D01*
X93200000Y81500000D01*
X93207522Y81433244D01*
X93229709Y81369835D01*
X93265451Y81312953D01*
X93312953Y81265451D01*
X93369835Y81229709D01*
X93433244Y81207522D01*
X93500000Y81200000D01*
X93566756Y81207522D01*
X93630165Y81229709D01*
X93687047Y81265451D01*
X93734549Y81312953D01*
X93770291Y81369835D01*
X93792478Y81433244D01*
X93800000Y81500000D01*
G37*
G36*
X93800000Y93500000D02*
X93792478Y93566756D01*
X93770291Y93630165D01*
X93734549Y93687047D01*
X93687047Y93734549D01*
X93630165Y93770291D01*
X93566756Y93792478D01*
X93500000Y93800000D01*
X93433244Y93792478D01*
X93369835Y93770291D01*
X93312953Y93734549D01*
X93265451Y93687047D01*
X93229709Y93630165D01*
X93207522Y93566756D01*
X93200000Y93500000D01*
X93207522Y93433244D01*
X93229709Y93369835D01*
X93265451Y93312953D01*
X93312953Y93265451D01*
X93369835Y93229709D01*
X93433244Y93207522D01*
X93500000Y93200000D01*
X93566756Y93207522D01*
X93630165Y93229709D01*
X93687047Y93265451D01*
X93734549Y93312953D01*
X93770291Y93369835D01*
X93792478Y93433244D01*
X93800000Y93500000D01*
G37*
G36*
X93800000Y105500000D02*
X93792478Y105566756D01*
X93770291Y105630165D01*
X93734549Y105687047D01*
X93687047Y105734549D01*
X93630165Y105770291D01*
X93566756Y105792478D01*
X93500000Y105800000D01*
X93433244Y105792478D01*
X93369835Y105770291D01*
X93312953Y105734549D01*
X93265451Y105687047D01*
X93229709Y105630165D01*
X93207522Y105566756D01*
X93200000Y105500000D01*
X93207522Y105433244D01*
X93229709Y105369835D01*
X93265451Y105312953D01*
X93312953Y105265451D01*
X93369835Y105229709D01*
X93433244Y105207522D01*
X93500000Y105200000D01*
X93566756Y105207522D01*
X93630165Y105229709D01*
X93687047Y105265451D01*
X93734549Y105312953D01*
X93770291Y105369835D01*
X93792478Y105433244D01*
X93800000Y105500000D01*
G37*
G36*
X93800000Y111500000D02*
X93792478Y111566756D01*
X93770291Y111630165D01*
X93734549Y111687047D01*
X93687047Y111734549D01*
X93630165Y111770291D01*
X93566756Y111792478D01*
X93500000Y111800000D01*
X93433244Y111792478D01*
X93369835Y111770291D01*
X93312953Y111734549D01*
X93265451Y111687047D01*
X93229709Y111630165D01*
X93207522Y111566756D01*
X93200000Y111500000D01*
X93207522Y111433244D01*
X93229709Y111369835D01*
X93265451Y111312953D01*
X93312953Y111265451D01*
X93369835Y111229709D01*
X93433244Y111207522D01*
X93500000Y111200000D01*
X93566756Y111207522D01*
X93630165Y111229709D01*
X93687047Y111265451D01*
X93734549Y111312953D01*
X93770291Y111369835D01*
X93792478Y111433244D01*
X93800000Y111500000D01*
G37*
G36*
X93800000Y129500000D02*
X93792478Y129566756D01*
X93770291Y129630165D01*
X93734549Y129687047D01*
X93687047Y129734549D01*
X93630165Y129770291D01*
X93566756Y129792478D01*
X93500000Y129800000D01*
X93433244Y129792478D01*
X93369835Y129770291D01*
X93312953Y129734549D01*
X93265451Y129687047D01*
X93229709Y129630165D01*
X93207522Y129566756D01*
X93200000Y129500000D01*
X93207522Y129433244D01*
X93229709Y129369835D01*
X93265451Y129312953D01*
X93312953Y129265451D01*
X93369835Y129229709D01*
X93433244Y129207522D01*
X93500000Y129200000D01*
X93566756Y129207522D01*
X93630165Y129229709D01*
X93687047Y129265451D01*
X93734549Y129312953D01*
X93770291Y129369835D01*
X93792478Y129433244D01*
X93800000Y129500000D01*
G37*
G36*
X99800000Y69500000D02*
X99792478Y69566756D01*
X99770291Y69630165D01*
X99734549Y69687047D01*
X99687047Y69734549D01*
X99630165Y69770291D01*
X99566756Y69792478D01*
X99500000Y69800000D01*
X99433244Y69792478D01*
X99369835Y69770291D01*
X99312953Y69734549D01*
X99265451Y69687047D01*
X99229709Y69630165D01*
X99207522Y69566756D01*
X99200000Y69500000D01*
X99207522Y69433244D01*
X99229709Y69369835D01*
X99265451Y69312953D01*
X99312953Y69265451D01*
X99369835Y69229709D01*
X99433244Y69207522D01*
X99500000Y69200000D01*
X99566756Y69207522D01*
X99630165Y69229709D01*
X99687047Y69265451D01*
X99734549Y69312953D01*
X99770291Y69369835D01*
X99792478Y69433244D01*
X99800000Y69500000D01*
G37*
G36*
X99800000Y75500000D02*
X99792478Y75566756D01*
X99770291Y75630165D01*
X99734549Y75687047D01*
X99687047Y75734549D01*
X99630165Y75770291D01*
X99566756Y75792478D01*
X99500000Y75800000D01*
X99433244Y75792478D01*
X99369835Y75770291D01*
X99312953Y75734549D01*
X99265451Y75687047D01*
X99229709Y75630165D01*
X99207522Y75566756D01*
X99200000Y75500000D01*
X99207522Y75433244D01*
X99229709Y75369835D01*
X99265451Y75312953D01*
X99312953Y75265451D01*
X99369835Y75229709D01*
X99433244Y75207522D01*
X99500000Y75200000D01*
X99566756Y75207522D01*
X99630165Y75229709D01*
X99687047Y75265451D01*
X99734549Y75312953D01*
X99770291Y75369835D01*
X99792478Y75433244D01*
X99800000Y75500000D01*
G37*
G36*
X99800000Y81500000D02*
X99792478Y81566756D01*
X99770291Y81630165D01*
X99734549Y81687047D01*
X99687047Y81734549D01*
X99630165Y81770291D01*
X99566756Y81792478D01*
X99500000Y81800000D01*
X99433244Y81792478D01*
X99369835Y81770291D01*
X99312953Y81734549D01*
X99265451Y81687047D01*
X99229709Y81630165D01*
X99207522Y81566756D01*
X99200000Y81500000D01*
X99207522Y81433244D01*
X99229709Y81369835D01*
X99265451Y81312953D01*
X99312953Y81265451D01*
X99369835Y81229709D01*
X99433244Y81207522D01*
X99500000Y81200000D01*
X99566756Y81207522D01*
X99630165Y81229709D01*
X99687047Y81265451D01*
X99734549Y81312953D01*
X99770291Y81369835D01*
X99792478Y81433244D01*
X99800000Y81500000D01*
G37*
G36*
X99800000Y111500000D02*
X99792478Y111566756D01*
X99770291Y111630165D01*
X99734549Y111687047D01*
X99687047Y111734549D01*
X99630165Y111770291D01*
X99566756Y111792478D01*
X99500000Y111800000D01*
X99433244Y111792478D01*
X99369835Y111770291D01*
X99312953Y111734549D01*
X99265451Y111687047D01*
X99229709Y111630165D01*
X99207522Y111566756D01*
X99200000Y111500000D01*
X99207522Y111433244D01*
X99229709Y111369835D01*
X99265451Y111312953D01*
X99312953Y111265451D01*
X99369835Y111229709D01*
X99433244Y111207522D01*
X99500000Y111200000D01*
X99566756Y111207522D01*
X99630165Y111229709D01*
X99687047Y111265451D01*
X99734549Y111312953D01*
X99770291Y111369835D01*
X99792478Y111433244D01*
X99800000Y111500000D01*
G37*
G36*
X99800000Y123500000D02*
X99792478Y123566756D01*
X99770291Y123630165D01*
X99734549Y123687047D01*
X99687047Y123734549D01*
X99630165Y123770291D01*
X99566756Y123792478D01*
X99500000Y123800000D01*
X99433244Y123792478D01*
X99369835Y123770291D01*
X99312953Y123734549D01*
X99265451Y123687047D01*
X99229709Y123630165D01*
X99207522Y123566756D01*
X99200000Y123500000D01*
X99207522Y123433244D01*
X99229709Y123369835D01*
X99265451Y123312953D01*
X99312953Y123265451D01*
X99369835Y123229709D01*
X99433244Y123207522D01*
X99500000Y123200000D01*
X99566756Y123207522D01*
X99630165Y123229709D01*
X99687047Y123265451D01*
X99734549Y123312953D01*
X99770291Y123369835D01*
X99792478Y123433244D01*
X99800000Y123500000D01*
G37*
G36*
X99800000Y129500000D02*
X99792478Y129566756D01*
X99770291Y129630165D01*
X99734549Y129687047D01*
X99687047Y129734549D01*
X99630165Y129770291D01*
X99566756Y129792478D01*
X99500000Y129800000D01*
X99433244Y129792478D01*
X99369835Y129770291D01*
X99312953Y129734549D01*
X99265451Y129687047D01*
X99229709Y129630165D01*
X99207522Y129566756D01*
X99200000Y129500000D01*
X99207522Y129433244D01*
X99229709Y129369835D01*
X99265451Y129312953D01*
X99312953Y129265451D01*
X99369835Y129229709D01*
X99433244Y129207522D01*
X99500000Y129200000D01*
X99566756Y129207522D01*
X99630165Y129229709D01*
X99687047Y129265451D01*
X99734549Y129312953D01*
X99770291Y129369835D01*
X99792478Y129433244D01*
X99800000Y129500000D01*
G37*
G36*
X105800000Y69500000D02*
X105792478Y69566756D01*
X105770291Y69630165D01*
X105734549Y69687047D01*
X105687047Y69734549D01*
X105630165Y69770291D01*
X105566756Y69792478D01*
X105500000Y69800000D01*
X105433244Y69792478D01*
X105369835Y69770291D01*
X105312953Y69734549D01*
X105265451Y69687047D01*
X105229709Y69630165D01*
X105207522Y69566756D01*
X105200000Y69500000D01*
X105207522Y69433244D01*
X105229709Y69369835D01*
X105265451Y69312953D01*
X105312953Y69265451D01*
X105369835Y69229709D01*
X105433244Y69207522D01*
X105500000Y69200000D01*
X105566756Y69207522D01*
X105630165Y69229709D01*
X105687047Y69265451D01*
X105734549Y69312953D01*
X105770291Y69369835D01*
X105792478Y69433244D01*
X105800000Y69500000D01*
G37*
G36*
X105800000Y75500000D02*
X105792478Y75566756D01*
X105770291Y75630165D01*
X105734549Y75687047D01*
X105687047Y75734549D01*
X105630165Y75770291D01*
X105566756Y75792478D01*
X105500000Y75800000D01*
X105433244Y75792478D01*
X105369835Y75770291D01*
X105312953Y75734549D01*
X105265451Y75687047D01*
X105229709Y75630165D01*
X105207522Y75566756D01*
X105200000Y75500000D01*
X105207522Y75433244D01*
X105229709Y75369835D01*
X105265451Y75312953D01*
X105312953Y75265451D01*
X105369835Y75229709D01*
X105433244Y75207522D01*
X105500000Y75200000D01*
X105566756Y75207522D01*
X105630165Y75229709D01*
X105687047Y75265451D01*
X105734549Y75312953D01*
X105770291Y75369835D01*
X105792478Y75433244D01*
X105800000Y75500000D01*
G37*
G36*
X105800000Y81500000D02*
X105792478Y81566756D01*
X105770291Y81630165D01*
X105734549Y81687047D01*
X105687047Y81734549D01*
X105630165Y81770291D01*
X105566756Y81792478D01*
X105500000Y81800000D01*
X105433244Y81792478D01*
X105369835Y81770291D01*
X105312953Y81734549D01*
X105265451Y81687047D01*
X105229709Y81630165D01*
X105207522Y81566756D01*
X105200000Y81500000D01*
X105207522Y81433244D01*
X105229709Y81369835D01*
X105265451Y81312953D01*
X105312953Y81265451D01*
X105369835Y81229709D01*
X105433244Y81207522D01*
X105500000Y81200000D01*
X105566756Y81207522D01*
X105630165Y81229709D01*
X105687047Y81265451D01*
X105734549Y81312953D01*
X105770291Y81369835D01*
X105792478Y81433244D01*
X105800000Y81500000D01*
G37*
G36*
X105800000Y87500000D02*
X105792478Y87566756D01*
X105770291Y87630165D01*
X105734549Y87687047D01*
X105687047Y87734549D01*
X105630165Y87770291D01*
X105566756Y87792478D01*
X105500000Y87800000D01*
X105433244Y87792478D01*
X105369835Y87770291D01*
X105312953Y87734549D01*
X105265451Y87687047D01*
X105229709Y87630165D01*
X105207522Y87566756D01*
X105200000Y87500000D01*
X105207522Y87433244D01*
X105229709Y87369835D01*
X105265451Y87312953D01*
X105312953Y87265451D01*
X105369835Y87229709D01*
X105433244Y87207522D01*
X105500000Y87200000D01*
X105566756Y87207522D01*
X105630165Y87229709D01*
X105687047Y87265451D01*
X105734549Y87312953D01*
X105770291Y87369835D01*
X105792478Y87433244D01*
X105800000Y87500000D01*
G37*
G36*
X105800000Y123500000D02*
X105792478Y123566756D01*
X105770291Y123630165D01*
X105734549Y123687047D01*
X105687047Y123734549D01*
X105630165Y123770291D01*
X105566756Y123792478D01*
X105500000Y123800000D01*
X105433244Y123792478D01*
X105369835Y123770291D01*
X105312953Y123734549D01*
X105265451Y123687047D01*
X105229709Y123630165D01*
X105207522Y123566756D01*
X105200000Y123500000D01*
X105207522Y123433244D01*
X105229709Y123369835D01*
X105265451Y123312953D01*
X105312953Y123265451D01*
X105369835Y123229709D01*
X105433244Y123207522D01*
X105500000Y123200000D01*
X105566756Y123207522D01*
X105630165Y123229709D01*
X105687047Y123265451D01*
X105734549Y123312953D01*
X105770291Y123369835D01*
X105792478Y123433244D01*
X105800000Y123500000D01*
G37*
G36*
X111800000Y69500000D02*
X111792478Y69566756D01*
X111770291Y69630165D01*
X111734549Y69687047D01*
X111687047Y69734549D01*
X111630165Y69770291D01*
X111566756Y69792478D01*
X111500000Y69800000D01*
X111433244Y69792478D01*
X111369835Y69770291D01*
X111312953Y69734549D01*
X111265451Y69687047D01*
X111229709Y69630165D01*
X111207522Y69566756D01*
X111200000Y69500000D01*
X111207522Y69433244D01*
X111229709Y69369835D01*
X111265451Y69312953D01*
X111312953Y69265451D01*
X111369835Y69229709D01*
X111433244Y69207522D01*
X111500000Y69200000D01*
X111566756Y69207522D01*
X111630165Y69229709D01*
X111687047Y69265451D01*
X111734549Y69312953D01*
X111770291Y69369835D01*
X111792478Y69433244D01*
X111800000Y69500000D01*
G37*
G36*
X111800000Y81500000D02*
X111792478Y81566756D01*
X111770291Y81630165D01*
X111734549Y81687047D01*
X111687047Y81734549D01*
X111630165Y81770291D01*
X111566756Y81792478D01*
X111500000Y81800000D01*
X111433244Y81792478D01*
X111369835Y81770291D01*
X111312953Y81734549D01*
X111265451Y81687047D01*
X111229709Y81630165D01*
X111207522Y81566756D01*
X111200000Y81500000D01*
X111207522Y81433244D01*
X111229709Y81369835D01*
X111265451Y81312953D01*
X111312953Y81265451D01*
X111369835Y81229709D01*
X111433244Y81207522D01*
X111500000Y81200000D01*
X111566756Y81207522D01*
X111630165Y81229709D01*
X111687047Y81265451D01*
X111734549Y81312953D01*
X111770291Y81369835D01*
X111792478Y81433244D01*
X111800000Y81500000D01*
G37*
G36*
X111800000Y87500000D02*
X111792478Y87566756D01*
X111770291Y87630165D01*
X111734549Y87687047D01*
X111687047Y87734549D01*
X111630165Y87770291D01*
X111566756Y87792478D01*
X111500000Y87800000D01*
X111433244Y87792478D01*
X111369835Y87770291D01*
X111312953Y87734549D01*
X111265451Y87687047D01*
X111229709Y87630165D01*
X111207522Y87566756D01*
X111200000Y87500000D01*
X111207522Y87433244D01*
X111229709Y87369835D01*
X111265451Y87312953D01*
X111312953Y87265451D01*
X111369835Y87229709D01*
X111433244Y87207522D01*
X111500000Y87200000D01*
X111566756Y87207522D01*
X111630165Y87229709D01*
X111687047Y87265451D01*
X111734549Y87312953D01*
X111770291Y87369835D01*
X111792478Y87433244D01*
X111800000Y87500000D01*
G37*
G36*
X111800000Y129500000D02*
X111792478Y129566756D01*
X111770291Y129630165D01*
X111734549Y129687047D01*
X111687047Y129734549D01*
X111630165Y129770291D01*
X111566756Y129792478D01*
X111500000Y129800000D01*
X111433244Y129792478D01*
X111369835Y129770291D01*
X111312953Y129734549D01*
X111265451Y129687047D01*
X111229709Y129630165D01*
X111207522Y129566756D01*
X111200000Y129500000D01*
X111207522Y129433244D01*
X111229709Y129369835D01*
X111265451Y129312953D01*
X111312953Y129265451D01*
X111369835Y129229709D01*
X111433244Y129207522D01*
X111500000Y129200000D01*
X111566756Y129207522D01*
X111630165Y129229709D01*
X111687047Y129265451D01*
X111734549Y129312953D01*
X111770291Y129369835D01*
X111792478Y129433244D01*
X111800000Y129500000D01*
G37*
G36*
X117800000Y69500000D02*
X117792478Y69566756D01*
X117770291Y69630165D01*
X117734549Y69687047D01*
X117687047Y69734549D01*
X117630165Y69770291D01*
X117566756Y69792478D01*
X117500000Y69800000D01*
X117433244Y69792478D01*
X117369835Y69770291D01*
X117312953Y69734549D01*
X117265451Y69687047D01*
X117229709Y69630165D01*
X117207522Y69566756D01*
X117200000Y69500000D01*
X117207522Y69433244D01*
X117229709Y69369835D01*
X117265451Y69312953D01*
X117312953Y69265451D01*
X117369835Y69229709D01*
X117433244Y69207522D01*
X117500000Y69200000D01*
X117566756Y69207522D01*
X117630165Y69229709D01*
X117687047Y69265451D01*
X117734549Y69312953D01*
X117770291Y69369835D01*
X117792478Y69433244D01*
X117800000Y69500000D01*
G37*
G36*
X117800000Y81500000D02*
X117792478Y81566756D01*
X117770291Y81630165D01*
X117734549Y81687047D01*
X117687047Y81734549D01*
X117630165Y81770291D01*
X117566756Y81792478D01*
X117500000Y81800000D01*
X117433244Y81792478D01*
X117369835Y81770291D01*
X117312953Y81734549D01*
X117265451Y81687047D01*
X117229709Y81630165D01*
X117207522Y81566756D01*
X117200000Y81500000D01*
X117207522Y81433244D01*
X117229709Y81369835D01*
X117265451Y81312953D01*
X117312953Y81265451D01*
X117369835Y81229709D01*
X117433244Y81207522D01*
X117500000Y81200000D01*
X117566756Y81207522D01*
X117630165Y81229709D01*
X117687047Y81265451D01*
X117734549Y81312953D01*
X117770291Y81369835D01*
X117792478Y81433244D01*
X117800000Y81500000D01*
G37*
G36*
X117800000Y93500000D02*
X117792478Y93566756D01*
X117770291Y93630165D01*
X117734549Y93687047D01*
X117687047Y93734549D01*
X117630165Y93770291D01*
X117566756Y93792478D01*
X117500000Y93800000D01*
X117433244Y93792478D01*
X117369835Y93770291D01*
X117312953Y93734549D01*
X117265451Y93687047D01*
X117229709Y93630165D01*
X117207522Y93566756D01*
X117200000Y93500000D01*
X117207522Y93433244D01*
X117229709Y93369835D01*
X117265451Y93312953D01*
X117312953Y93265451D01*
X117369835Y93229709D01*
X117433244Y93207522D01*
X117500000Y93200000D01*
X117566756Y93207522D01*
X117630165Y93229709D01*
X117687047Y93265451D01*
X117734549Y93312953D01*
X117770291Y93369835D01*
X117792478Y93433244D01*
X117800000Y93500000D01*
G37*
G36*
X117800000Y123500000D02*
X117792478Y123566756D01*
X117770291Y123630165D01*
X117734549Y123687047D01*
X117687047Y123734549D01*
X117630165Y123770291D01*
X117566756Y123792478D01*
X117500000Y123800000D01*
X117433244Y123792478D01*
X117369835Y123770291D01*
X117312953Y123734549D01*
X117265451Y123687047D01*
X117229709Y123630165D01*
X117207522Y123566756D01*
X117200000Y123500000D01*
X117207522Y123433244D01*
X117229709Y123369835D01*
X117265451Y123312953D01*
X117312953Y123265451D01*
X117369835Y123229709D01*
X117433244Y123207522D01*
X117500000Y123200000D01*
X117566756Y123207522D01*
X117630165Y123229709D01*
X117687047Y123265451D01*
X117734549Y123312953D01*
X117770291Y123369835D01*
X117792478Y123433244D01*
X117800000Y123500000D01*
G37*
G36*
X117800000Y129500000D02*
X117792478Y129566756D01*
X117770291Y129630165D01*
X117734549Y129687047D01*
X117687047Y129734549D01*
X117630165Y129770291D01*
X117566756Y129792478D01*
X117500000Y129800000D01*
X117433244Y129792478D01*
X117369835Y129770291D01*
X117312953Y129734549D01*
X117265451Y129687047D01*
X117229709Y129630165D01*
X117207522Y129566756D01*
X117200000Y129500000D01*
X117207522Y129433244D01*
X117229709Y129369835D01*
X117265451Y129312953D01*
X117312953Y129265451D01*
X117369835Y129229709D01*
X117433244Y129207522D01*
X117500000Y129200000D01*
X117566756Y129207522D01*
X117630165Y129229709D01*
X117687047Y129265451D01*
X117734549Y129312953D01*
X117770291Y129369835D01*
X117792478Y129433244D01*
X117800000Y129500000D01*
G37*
G36*
X123800000Y75500000D02*
X123792478Y75566756D01*
X123770291Y75630165D01*
X123734549Y75687047D01*
X123687047Y75734549D01*
X123630165Y75770291D01*
X123566756Y75792478D01*
X123500000Y75800000D01*
X123433244Y75792478D01*
X123369835Y75770291D01*
X123312953Y75734549D01*
X123265451Y75687047D01*
X123229709Y75630165D01*
X123207522Y75566756D01*
X123200000Y75500000D01*
X123207522Y75433244D01*
X123229709Y75369835D01*
X123265451Y75312953D01*
X123312953Y75265451D01*
X123369835Y75229709D01*
X123433244Y75207522D01*
X123500000Y75200000D01*
X123566756Y75207522D01*
X123630165Y75229709D01*
X123687047Y75265451D01*
X123734549Y75312953D01*
X123770291Y75369835D01*
X123792478Y75433244D01*
X123800000Y75500000D01*
G37*
G36*
X123800000Y81500000D02*
X123792478Y81566756D01*
X123770291Y81630165D01*
X123734549Y81687047D01*
X123687047Y81734549D01*
X123630165Y81770291D01*
X123566756Y81792478D01*
X123500000Y81800000D01*
X123433244Y81792478D01*
X123369835Y81770291D01*
X123312953Y81734549D01*
X123265451Y81687047D01*
X123229709Y81630165D01*
X123207522Y81566756D01*
X123200000Y81500000D01*
X123207522Y81433244D01*
X123229709Y81369835D01*
X123265451Y81312953D01*
X123312953Y81265451D01*
X123369835Y81229709D01*
X123433244Y81207522D01*
X123500000Y81200000D01*
X123566756Y81207522D01*
X123630165Y81229709D01*
X123687047Y81265451D01*
X123734549Y81312953D01*
X123770291Y81369835D01*
X123792478Y81433244D01*
X123800000Y81500000D01*
G37*
G36*
X123800000Y87500000D02*
X123792478Y87566756D01*
X123770291Y87630165D01*
X123734549Y87687047D01*
X123687047Y87734549D01*
X123630165Y87770291D01*
X123566756Y87792478D01*
X123500000Y87800000D01*
X123433244Y87792478D01*
X123369835Y87770291D01*
X123312953Y87734549D01*
X123265451Y87687047D01*
X123229709Y87630165D01*
X123207522Y87566756D01*
X123200000Y87500000D01*
X123207522Y87433244D01*
X123229709Y87369835D01*
X123265451Y87312953D01*
X123312953Y87265451D01*
X123369835Y87229709D01*
X123433244Y87207522D01*
X123500000Y87200000D01*
X123566756Y87207522D01*
X123630165Y87229709D01*
X123687047Y87265451D01*
X123734549Y87312953D01*
X123770291Y87369835D01*
X123792478Y87433244D01*
X123800000Y87500000D01*
G37*
G36*
X123800000Y93500000D02*
X123792478Y93566756D01*
X123770291Y93630165D01*
X123734549Y93687047D01*
X123687047Y93734549D01*
X123630165Y93770291D01*
X123566756Y93792478D01*
X123500000Y93800000D01*
X123433244Y93792478D01*
X123369835Y93770291D01*
X123312953Y93734549D01*
X123265451Y93687047D01*
X123229709Y93630165D01*
X123207522Y93566756D01*
X123200000Y93500000D01*
X123207522Y93433244D01*
X123229709Y93369835D01*
X123265451Y93312953D01*
X123312953Y93265451D01*
X123369835Y93229709D01*
X123433244Y93207522D01*
X123500000Y93200000D01*
X123566756Y93207522D01*
X123630165Y93229709D01*
X123687047Y93265451D01*
X123734549Y93312953D01*
X123770291Y93369835D01*
X123792478Y93433244D01*
X123800000Y93500000D01*
G37*
G36*
X123800000Y99500000D02*
X123792478Y99566756D01*
X123770291Y99630165D01*
X123734549Y99687047D01*
X123687047Y99734549D01*
X123630165Y99770291D01*
X123566756Y99792478D01*
X123500000Y99800000D01*
X123433244Y99792478D01*
X123369835Y99770291D01*
X123312953Y99734549D01*
X123265451Y99687047D01*
X123229709Y99630165D01*
X123207522Y99566756D01*
X123200000Y99500000D01*
X123207522Y99433244D01*
X123229709Y99369835D01*
X123265451Y99312953D01*
X123312953Y99265451D01*
X123369835Y99229709D01*
X123433244Y99207522D01*
X123500000Y99200000D01*
X123566756Y99207522D01*
X123630165Y99229709D01*
X123687047Y99265451D01*
X123734549Y99312953D01*
X123770291Y99369835D01*
X123792478Y99433244D01*
X123800000Y99500000D01*
G37*
G36*
X123800000Y105500000D02*
X123792478Y105566756D01*
X123770291Y105630165D01*
X123734549Y105687047D01*
X123687047Y105734549D01*
X123630165Y105770291D01*
X123566756Y105792478D01*
X123500000Y105800000D01*
X123433244Y105792478D01*
X123369835Y105770291D01*
X123312953Y105734549D01*
X123265451Y105687047D01*
X123229709Y105630165D01*
X123207522Y105566756D01*
X123200000Y105500000D01*
X123207522Y105433244D01*
X123229709Y105369835D01*
X123265451Y105312953D01*
X123312953Y105265451D01*
X123369835Y105229709D01*
X123433244Y105207522D01*
X123500000Y105200000D01*
X123566756Y105207522D01*
X123630165Y105229709D01*
X123687047Y105265451D01*
X123734549Y105312953D01*
X123770291Y105369835D01*
X123792478Y105433244D01*
X123800000Y105500000D01*
G37*
G36*
X123800000Y129500000D02*
X123792478Y129566756D01*
X123770291Y129630165D01*
X123734549Y129687047D01*
X123687047Y129734549D01*
X123630165Y129770291D01*
X123566756Y129792478D01*
X123500000Y129800000D01*
X123433244Y129792478D01*
X123369835Y129770291D01*
X123312953Y129734549D01*
X123265451Y129687047D01*
X123229709Y129630165D01*
X123207522Y129566756D01*
X123200000Y129500000D01*
X123207522Y129433244D01*
X123229709Y129369835D01*
X123265451Y129312953D01*
X123312953Y129265451D01*
X123369835Y129229709D01*
X123433244Y129207522D01*
X123500000Y129200000D01*
X123566756Y129207522D01*
X123630165Y129229709D01*
X123687047Y129265451D01*
X123734549Y129312953D01*
X123770291Y129369835D01*
X123792478Y129433244D01*
X123800000Y129500000D01*
G37*
G36*
X129800000Y81500000D02*
X129792478Y81566756D01*
X129770291Y81630165D01*
X129734549Y81687047D01*
X129687047Y81734549D01*
X129630165Y81770291D01*
X129566756Y81792478D01*
X129500000Y81800000D01*
X129433244Y81792478D01*
X129369835Y81770291D01*
X129312953Y81734549D01*
X129265451Y81687047D01*
X129229709Y81630165D01*
X129207522Y81566756D01*
X129200000Y81500000D01*
X129207522Y81433244D01*
X129229709Y81369835D01*
X129265451Y81312953D01*
X129312953Y81265451D01*
X129369835Y81229709D01*
X129433244Y81207522D01*
X129500000Y81200000D01*
X129566756Y81207522D01*
X129630165Y81229709D01*
X129687047Y81265451D01*
X129734549Y81312953D01*
X129770291Y81369835D01*
X129792478Y81433244D01*
X129800000Y81500000D01*
G37*
G36*
X129800000Y87500000D02*
X129792478Y87566756D01*
X129770291Y87630165D01*
X129734549Y87687047D01*
X129687047Y87734549D01*
X129630165Y87770291D01*
X129566756Y87792478D01*
X129500000Y87800000D01*
X129433244Y87792478D01*
X129369835Y87770291D01*
X129312953Y87734549D01*
X129265451Y87687047D01*
X129229709Y87630165D01*
X129207522Y87566756D01*
X129200000Y87500000D01*
X129207522Y87433244D01*
X129229709Y87369835D01*
X129265451Y87312953D01*
X129312953Y87265451D01*
X129369835Y87229709D01*
X129433244Y87207522D01*
X129500000Y87200000D01*
X129566756Y87207522D01*
X129630165Y87229709D01*
X129687047Y87265451D01*
X129734549Y87312953D01*
X129770291Y87369835D01*
X129792478Y87433244D01*
X129800000Y87500000D01*
G37*
G36*
X129800000Y99500000D02*
X129792478Y99566756D01*
X129770291Y99630165D01*
X129734549Y99687047D01*
X129687047Y99734549D01*
X129630165Y99770291D01*
X129566756Y99792478D01*
X129500000Y99800000D01*
X129433244Y99792478D01*
X129369835Y99770291D01*
X129312953Y99734549D01*
X129265451Y99687047D01*
X129229709Y99630165D01*
X129207522Y99566756D01*
X129200000Y99500000D01*
X129207522Y99433244D01*
X129229709Y99369835D01*
X129265451Y99312953D01*
X129312953Y99265451D01*
X129369835Y99229709D01*
X129433244Y99207522D01*
X129500000Y99200000D01*
X129566756Y99207522D01*
X129630165Y99229709D01*
X129687047Y99265451D01*
X129734549Y99312953D01*
X129770291Y99369835D01*
X129792478Y99433244D01*
X129800000Y99500000D01*
G37*
M02*
