%FSLAX46Y46*%
%MOMM*%
%LPD*%
%LPD*%
G36*
X139200000Y100000000D02*
X139162690Y101709880D01*
X139050832Y103416505D01*
X138864639Y105116627D01*
X138604464Y106807009D01*
X138270803Y108484433D01*
X137864292Y110145707D01*
X137385704Y111787667D01*
X136835951Y113407190D01*
X136216078Y115001191D01*
X135527265Y116566636D01*
X134770825Y118100546D01*
X133948196Y119600000D01*
X133060945Y121062145D01*
X132110760Y122484196D01*
X131099451Y123863448D01*
X130028942Y125197274D01*
X128901272Y126483136D01*
X127718586Y127718586D01*
X126483136Y128901272D01*
X125197274Y130028942D01*
X123863448Y131099451D01*
X122484196Y132110760D01*
X121062145Y133060945D01*
X119600000Y133948196D01*
X118100546Y134770825D01*
X116566636Y135527265D01*
X115001191Y136216078D01*
X113407190Y136835951D01*
X111787667Y137385704D01*
X110145707Y137864292D01*
X108484433Y138270803D01*
X106807009Y138604464D01*
X105116627Y138864639D01*
X103416505Y139050832D01*
X101709880Y139162690D01*
X100000000Y139200000D01*
X98290120Y139162690D01*
X96583495Y139050832D01*
X94883373Y138864639D01*
X93192991Y138604464D01*
X91515567Y138270803D01*
X89854293Y137864292D01*
X88212333Y137385704D01*
X86592810Y136835951D01*
X84998809Y136216078D01*
X83433364Y135527265D01*
X81899454Y134770825D01*
X80400000Y133948196D01*
X78937855Y133060945D01*
X77515804Y132110760D01*
X76136552Y131099451D01*
X74802726Y130028942D01*
X73516864Y128901272D01*
X72281414Y127718586D01*
X71098728Y126483136D01*
X69971058Y125197274D01*
X68900549Y123863448D01*
X67889240Y122484196D01*
X66939055Y121062145D01*
X66051804Y119600000D01*
X65229175Y118100546D01*
X64472735Y116566636D01*
X63783922Y115001191D01*
X63164049Y113407190D01*
X62614296Y111787667D01*
X62135708Y110145707D01*
X61729197Y108484433D01*
X61395536Y106807009D01*
X61135361Y105116627D01*
X60949168Y103416505D01*
X60837310Y101709880D01*
X60800000Y100000000D01*
X60837310Y98290120D01*
X60949168Y96583495D01*
X61135361Y94883373D01*
X61395536Y93192991D01*
X61729197Y91515567D01*
X62135708Y89854293D01*
X62614296Y88212333D01*
X63164049Y86592810D01*
X63783922Y84998809D01*
X64472735Y83433364D01*
X65229175Y81899454D01*
X66051804Y80400000D01*
X66939055Y78937855D01*
X67889240Y77515804D01*
X68900549Y76136552D01*
X69971058Y74802726D01*
X71098728Y73516864D01*
X72281414Y72281414D01*
X73516864Y71098728D01*
X74802726Y69971058D01*
X76136552Y68900549D01*
X77515804Y67889240D01*
X78937855Y66939055D01*
X80400000Y66051804D01*
X81899454Y65229175D01*
X83433364Y64472735D01*
X84998809Y63783922D01*
X86592810Y63164049D01*
X88212333Y62614296D01*
X89854293Y62135708D01*
X91515567Y61729197D01*
X93192991Y61395536D01*
X94883373Y61135361D01*
X96583495Y60949168D01*
X98290120Y60837310D01*
X100000000Y60800000D01*
X101709880Y60837310D01*
X103416505Y60949168D01*
X105116627Y61135361D01*
X106807009Y61395536D01*
X108484433Y61729197D01*
X110145707Y62135708D01*
X111787667Y62614296D01*
X113407190Y63164049D01*
X115001191Y63783922D01*
X116566636Y64472735D01*
X118100546Y65229175D01*
X119600000Y66051804D01*
X121062145Y66939055D01*
X122484196Y67889240D01*
X123863448Y68900549D01*
X125197274Y69971058D01*
X126483136Y71098728D01*
X127718586Y72281414D01*
X128901272Y73516864D01*
X130028942Y74802726D01*
X131099451Y76136552D01*
X132110760Y77515804D01*
X133060945Y78937855D01*
X133948196Y80400000D01*
X134770825Y81899454D01*
X135527265Y83433364D01*
X136216078Y84998809D01*
X136835951Y86592810D01*
X137385704Y88212333D01*
X137864292Y89854293D01*
X138270803Y91515567D01*
X138604464Y93192991D01*
X138864639Y94883373D01*
X139050832Y96583495D01*
X139162690Y98290120D01*
X139200000Y100000000D01*
G37*
%LPC*%
G36*
X117503000Y97866000D02*
X119003000Y97866000D01*
X119003000Y98586000D01*
X117503000Y98586000D01*
X117503000Y97866000D01*
G37*
G36*
X117503000Y98266000D02*
X119003000Y98266000D01*
X119003000Y98986000D01*
X117503000Y98986000D01*
X117503000Y98266000D01*
G37*
G36*
X117503000Y98666000D02*
X119003000Y98666000D01*
X119003000Y99386000D01*
X117503000Y99386000D01*
X117503000Y98666000D01*
G37*
G36*
X117503000Y99066000D02*
X119003000Y99066000D01*
X119003000Y99786000D01*
X117503000Y99786000D01*
X117503000Y99066000D01*
G37*
G36*
X117503000Y99466000D02*
X119003000Y99466000D01*
X119003000Y100186000D01*
X117503000Y100186000D01*
X117503000Y99466000D01*
G37*
G36*
X117503000Y99866000D02*
X119003000Y99866000D01*
X119003000Y100586000D01*
X117503000Y100586000D01*
X117503000Y99866000D01*
G37*
G36*
X117503000Y100266000D02*
X119003000Y100266000D01*
X119003000Y100986000D01*
X117503000Y100986000D01*
X117503000Y100266000D01*
G37*
G36*
X117503000Y100666000D02*
X119003000Y100666000D01*
X119003000Y101386000D01*
X117503000Y101386000D01*
X117503000Y100666000D01*
G37*
G36*
X117503000Y101066000D02*
X119003000Y101066000D01*
X119003000Y101786000D01*
X117503000Y101786000D01*
X117503000Y101066000D01*
G37*
G36*
X117503000Y101466000D02*
X119003000Y101466000D01*
X119003000Y102186000D01*
X117503000Y102186000D01*
X117503000Y101466000D01*
G37*
G36*
X117503000Y101866000D02*
X119003000Y101866000D01*
X119003000Y102586000D01*
X117503000Y102586000D01*
X117503000Y101866000D01*
G37*
G36*
X117503000Y102266000D02*
X119003000Y102266000D01*
X119003000Y102986000D01*
X117503000Y102986000D01*
X117503000Y102266000D01*
G37*
G36*
X117503000Y102666000D02*
X119003000Y102666000D01*
X119003000Y103386000D01*
X117503000Y103386000D01*
X117503000Y102666000D01*
G37*
G36*
X117503000Y103066000D02*
X119003000Y103066000D01*
X119003000Y103786000D01*
X117503000Y103786000D01*
X117503000Y103066000D01*
G37*
G36*
X116843000Y103726000D02*
X117563000Y103726000D01*
X117563000Y105226000D01*
X116843000Y105226000D01*
X116843000Y103726000D01*
G37*
G36*
X116443000Y103726000D02*
X117163000Y103726000D01*
X117163000Y105226000D01*
X116443000Y105226000D01*
X116443000Y103726000D01*
G37*
G36*
X116043000Y103726000D02*
X116763000Y103726000D01*
X116763000Y105226000D01*
X116043000Y105226000D01*
X116043000Y103726000D01*
G37*
G36*
X115643000Y103726000D02*
X116363000Y103726000D01*
X116363000Y105226000D01*
X115643000Y105226000D01*
X115643000Y103726000D01*
G37*
G36*
X114843000Y103726000D02*
X115563000Y103726000D01*
X115563000Y105226000D01*
X114843000Y105226000D01*
X114843000Y103726000D01*
G37*
G36*
X114443000Y103726000D02*
X115163000Y103726000D01*
X115163000Y105226000D01*
X114443000Y105226000D01*
X114443000Y103726000D01*
G37*
G36*
X114043000Y103726000D02*
X114763000Y103726000D01*
X114763000Y105226000D01*
X114043000Y105226000D01*
X114043000Y103726000D01*
G37*
G36*
X113643000Y103726000D02*
X114363000Y103726000D01*
X114363000Y105226000D01*
X113643000Y105226000D01*
X113643000Y103726000D01*
G37*
G36*
X113243000Y103726000D02*
X113963000Y103726000D01*
X113963000Y105226000D01*
X113243000Y105226000D01*
X113243000Y103726000D01*
G37*
G36*
X112843000Y103726000D02*
X113563000Y103726000D01*
X113563000Y105226000D01*
X112843000Y105226000D01*
X112843000Y103726000D01*
G37*
G36*
X112443000Y103726000D02*
X113163000Y103726000D01*
X113163000Y105226000D01*
X112443000Y105226000D01*
X112443000Y103726000D01*
G37*
G36*
X112043000Y103726000D02*
X112763000Y103726000D01*
X112763000Y105226000D01*
X112043000Y105226000D01*
X112043000Y103726000D01*
G37*
G36*
X111643000Y103726000D02*
X112363000Y103726000D01*
X112363000Y105226000D01*
X111643000Y105226000D01*
X111643000Y103726000D01*
G37*
G36*
X110203000Y103066000D02*
X111703000Y103066000D01*
X111703000Y103786000D01*
X110203000Y103786000D01*
X110203000Y103066000D01*
G37*
G36*
X110203000Y102666000D02*
X111703000Y102666000D01*
X111703000Y103386000D01*
X110203000Y103386000D01*
X110203000Y102666000D01*
G37*
G36*
X110203000Y102266000D02*
X111703000Y102266000D01*
X111703000Y102986000D01*
X110203000Y102986000D01*
X110203000Y102266000D01*
G37*
G36*
X110203000Y101866000D02*
X111703000Y101866000D01*
X111703000Y102586000D01*
X110203000Y102586000D01*
X110203000Y101866000D01*
G37*
G36*
X110203000Y101466000D02*
X111703000Y101466000D01*
X111703000Y102186000D01*
X110203000Y102186000D01*
X110203000Y101466000D01*
G37*
G36*
X110203000Y101066000D02*
X111703000Y101066000D01*
X111703000Y101786000D01*
X110203000Y101786000D01*
X110203000Y101066000D01*
G37*
G36*
X110203000Y100666000D02*
X111703000Y100666000D01*
X111703000Y101386000D01*
X110203000Y101386000D01*
X110203000Y100666000D01*
G37*
G36*
X110203000Y100266000D02*
X111703000Y100266000D01*
X111703000Y100986000D01*
X110203000Y100986000D01*
X110203000Y100266000D01*
G37*
G36*
X110203000Y99866000D02*
X111703000Y99866000D01*
X111703000Y100586000D01*
X110203000Y100586000D01*
X110203000Y99866000D01*
G37*
G36*
X110203000Y99466000D02*
X111703000Y99466000D01*
X111703000Y100186000D01*
X110203000Y100186000D01*
X110203000Y99466000D01*
G37*
G36*
X110203000Y99066000D02*
X111703000Y99066000D01*
X111703000Y99786000D01*
X110203000Y99786000D01*
X110203000Y99066000D01*
G37*
G36*
X110203000Y98666000D02*
X111703000Y98666000D01*
X111703000Y99386000D01*
X110203000Y99386000D01*
X110203000Y98666000D01*
G37*
G36*
X110203000Y98266000D02*
X111703000Y98266000D01*
X111703000Y98986000D01*
X110203000Y98986000D01*
X110203000Y98266000D01*
G37*
G36*
X110203000Y97866000D02*
X111703000Y97866000D01*
X111703000Y98586000D01*
X110203000Y98586000D01*
X110203000Y97866000D01*
G37*
G36*
X111643000Y96426000D02*
X112363000Y96426000D01*
X112363000Y97926000D01*
X111643000Y97926000D01*
X111643000Y96426000D01*
G37*
G36*
X112043000Y96426000D02*
X112763000Y96426000D01*
X112763000Y97926000D01*
X112043000Y97926000D01*
X112043000Y96426000D01*
G37*
G36*
X112443000Y96426000D02*
X113163000Y96426000D01*
X113163000Y97926000D01*
X112443000Y97926000D01*
X112443000Y96426000D01*
G37*
G36*
X112843000Y96426000D02*
X113563000Y96426000D01*
X113563000Y97926000D01*
X112843000Y97926000D01*
X112843000Y96426000D01*
G37*
G36*
X113243000Y96426000D02*
X113963000Y96426000D01*
X113963000Y97926000D01*
X113243000Y97926000D01*
X113243000Y96426000D01*
G37*
G36*
X113643000Y96426000D02*
X114363000Y96426000D01*
X114363000Y97926000D01*
X113643000Y97926000D01*
X113643000Y96426000D01*
G37*
G36*
X114043000Y96426000D02*
X114763000Y96426000D01*
X114763000Y97926000D01*
X114043000Y97926000D01*
X114043000Y96426000D01*
G37*
G36*
X114443000Y96426000D02*
X115163000Y96426000D01*
X115163000Y97926000D01*
X114443000Y97926000D01*
X114443000Y96426000D01*
G37*
G36*
X114843000Y96426000D02*
X115563000Y96426000D01*
X115563000Y97926000D01*
X114843000Y97926000D01*
X114843000Y96426000D01*
G37*
G36*
X115243000Y96426000D02*
X115963000Y96426000D01*
X115963000Y97926000D01*
X115243000Y97926000D01*
X115243000Y96426000D01*
G37*
G36*
X115643000Y96426000D02*
X116363000Y96426000D01*
X116363000Y97926000D01*
X115643000Y97926000D01*
X115643000Y96426000D01*
G37*
G36*
X116043000Y96426000D02*
X116763000Y96426000D01*
X116763000Y97926000D01*
X116043000Y97926000D01*
X116043000Y96426000D01*
G37*
G36*
X116443000Y96426000D02*
X117163000Y96426000D01*
X117163000Y97926000D01*
X116443000Y97926000D01*
X116443000Y96426000D01*
G37*
G36*
X116843000Y96426000D02*
X117563000Y96426000D01*
X117563000Y97926000D01*
X116843000Y97926000D01*
X116843000Y96426000D01*
G37*
G36*
X128994000Y111076000D02*
X131094000Y111076000D01*
X131094000Y112226000D01*
X128994000Y112226000D01*
X128994000Y111076000D01*
G37*
G36*
X128994000Y112346000D02*
X131094000Y112346000D01*
X131094000Y113496000D01*
X128994000Y113496000D01*
X128994000Y112346000D01*
G37*
G36*
X128994000Y113616000D02*
X131094000Y113616000D01*
X131094000Y114766000D01*
X128994000Y114766000D01*
X128994000Y113616000D01*
G37*
G36*
X123594000Y114886000D02*
X125694000Y114886000D01*
X125694000Y116036000D01*
X123594000Y116036000D01*
X123594000Y114886000D01*
G37*
G36*
X123594000Y113616000D02*
X125694000Y113616000D01*
X125694000Y114766000D01*
X123594000Y114766000D01*
X123594000Y113616000D01*
G37*
G36*
X123594000Y112346000D02*
X125694000Y112346000D01*
X125694000Y113496000D01*
X123594000Y113496000D01*
X123594000Y112346000D01*
G37*
G36*
X123594000Y111076000D02*
X125694000Y111076000D01*
X125694000Y112226000D01*
X123594000Y112226000D01*
X123594000Y111076000D01*
G37*
G36*
X123556000Y120433000D02*
X124656000Y120433000D01*
X124656000Y121333000D01*
X123556000Y121333000D01*
X123556000Y120433000D01*
G37*
G36*
X123556000Y121733000D02*
X124656000Y121733000D01*
X124656000Y122633000D01*
X123556000Y122633000D01*
X123556000Y121733000D01*
G37*
G36*
X123556000Y122383000D02*
X124656000Y122383000D01*
X124656000Y123283000D01*
X123556000Y123283000D01*
X123556000Y122383000D01*
G37*
G36*
X121556000Y121733000D02*
X122656000Y121733000D01*
X122656000Y122633000D01*
X121556000Y122633000D01*
X121556000Y121733000D01*
G37*
G36*
X121556000Y121083000D02*
X122656000Y121083000D01*
X122656000Y121983000D01*
X121556000Y121983000D01*
X121556000Y121083000D01*
G37*
G36*
X120633000Y129143000D02*
X122433000Y129143000D01*
X122433000Y130643000D01*
X120633000Y130643000D01*
X120633000Y129143000D01*
G37*
G36*
X118433000Y127543000D02*
X120233000Y127543000D01*
X120233000Y129043000D01*
X118433000Y129043000D01*
X118433000Y127543000D01*
G37*
G36*
X115896000Y122093000D02*
X117271000Y122093000D01*
X117271000Y123543000D01*
X115896000Y123543000D01*
X115896000Y122093000D01*
G37*
G36*
X123304000Y124786000D02*
X124679000Y124786000D01*
X124679000Y126236000D01*
X123304000Y126236000D01*
X123304000Y124786000D01*
G37*
G36*
X111540000Y113611000D02*
X112915000Y113611000D01*
X112915000Y115061000D01*
X111540000Y115061000D01*
X111540000Y113611000D01*
G37*
G36*
X109965000Y113611000D02*
X111340000Y113611000D01*
X111340000Y115061000D01*
X109965000Y115061000D01*
X109965000Y113611000D01*
G37*
G36*
X110239000Y110919000D02*
X111614000Y110919000D01*
X111614000Y112369000D01*
X110239000Y112369000D01*
X110239000Y110919000D01*
G37*
G36*
X129320000Y120148000D02*
X130695000Y120148000D01*
X130695000Y121598000D01*
X129320000Y121598000D01*
X129320000Y120148000D01*
G37*
G36*
X127745000Y120148000D02*
X129120000Y120148000D01*
X129120000Y121598000D01*
X127745000Y121598000D01*
X127745000Y120148000D01*
G37*
G36*
X127607000Y122815000D02*
X128982000Y122815000D01*
X128982000Y124265000D01*
X127607000Y124265000D01*
X127607000Y122815000D01*
G37*
G36*
X126032000Y122815000D02*
X127407000Y122815000D01*
X127407000Y124265000D01*
X126032000Y124265000D01*
X126032000Y122815000D01*
G37*
G36*
X112277000Y108230000D02*
X113652000Y108230000D01*
X113652000Y109680000D01*
X112277000Y109680000D01*
X112277000Y108230000D01*
G37*
G36*
X116795000Y114057000D02*
X118170000Y114057000D01*
X118170000Y115507000D01*
X116795000Y115507000D01*
X116795000Y114057000D01*
G37*
G36*
X116450000Y107338000D02*
X117825000Y107338000D01*
X117825000Y108788000D01*
X116450000Y108788000D01*
X116450000Y107338000D01*
G37*
G36*
X125114000Y117476000D02*
X126489000Y117476000D01*
X126489000Y118926000D01*
X125114000Y118926000D01*
X125114000Y117476000D01*
G37*
G36*
X127314000Y98769000D02*
X128689000Y98769000D01*
X128689000Y100219000D01*
X127314000Y100219000D01*
X127314000Y98769000D01*
G37*
G36*
X130100000Y117485000D02*
X131475000Y117485000D01*
X131475000Y118935000D01*
X130100000Y118935000D01*
X130100000Y117485000D01*
G37*
G36*
X108172000Y116341000D02*
X109547000Y116341000D01*
X109547000Y117791000D01*
X108172000Y117791000D01*
X108172000Y116341000D01*
G37*
G36*
X103098000Y104541000D02*
X104473000Y104541000D01*
X104473000Y105991000D01*
X103098000Y105991000D01*
X103098000Y104541000D01*
G37*
G36*
X106742000Y94852000D02*
X108842000Y94852000D01*
X108842000Y96002000D01*
X106742000Y96002000D01*
X106742000Y94852000D01*
G37*
G36*
X106742000Y96122000D02*
X108842000Y96122000D01*
X108842000Y97272000D01*
X106742000Y97272000D01*
X106742000Y96122000D01*
G37*
G36*
X106742000Y97392000D02*
X108842000Y97392000D01*
X108842000Y98542000D01*
X106742000Y98542000D01*
X106742000Y97392000D01*
G37*
G36*
X101342000Y98662000D02*
X103442000Y98662000D01*
X103442000Y99812000D01*
X101342000Y99812000D01*
X101342000Y98662000D01*
G37*
G36*
X101342000Y97392000D02*
X103442000Y97392000D01*
X103442000Y98542000D01*
X101342000Y98542000D01*
X101342000Y97392000D01*
G37*
G36*
X101342000Y96122000D02*
X103442000Y96122000D01*
X103442000Y97272000D01*
X101342000Y97272000D01*
X101342000Y96122000D01*
G37*
G36*
X101342000Y94852000D02*
X103442000Y94852000D01*
X103442000Y96002000D01*
X101342000Y96002000D01*
X101342000Y94852000D01*
G37*
G36*
X99237000Y107233000D02*
X100137000Y107233000D01*
X100137000Y108833000D01*
X99237000Y108833000D01*
X99237000Y107233000D01*
G37*
G36*
X98587000Y107233000D02*
X99487000Y107233000D01*
X99487000Y108833000D01*
X98587000Y108833000D01*
X98587000Y107233000D01*
G37*
G36*
X97287000Y107233000D02*
X98187000Y107233000D01*
X98187000Y108833000D01*
X97287000Y108833000D01*
X97287000Y107233000D01*
G37*
G36*
X97287000Y104633000D02*
X98187000Y104633000D01*
X98187000Y106233000D01*
X97287000Y106233000D01*
X97287000Y104633000D01*
G37*
G36*
X97937000Y104633000D02*
X98837000Y104633000D01*
X98837000Y106233000D01*
X97937000Y106233000D01*
X97937000Y104633000D01*
G37*
G36*
X85609000Y106500000D02*
X86709000Y106500000D01*
X86709000Y108100000D01*
X85609000Y108100000D01*
X85609000Y106500000D01*
G37*
G36*
X84659000Y106500000D02*
X85759000Y106500000D01*
X85759000Y108100000D01*
X84659000Y108100000D01*
X84659000Y106500000D01*
G37*
G36*
X84659000Y103900000D02*
X85759000Y103900000D01*
X85759000Y105500000D01*
X84659000Y105500000D01*
X84659000Y103900000D01*
G37*
G36*
X85609000Y103900000D02*
X86709000Y103900000D01*
X86709000Y105500000D01*
X85609000Y105500000D01*
X85609000Y103900000D01*
G37*
G36*
X86559000Y103900000D02*
X87659000Y103900000D01*
X87659000Y105500000D01*
X86559000Y105500000D01*
X86559000Y103900000D01*
G37*
G36*
X106747000Y104254000D02*
X107847000Y104254000D01*
X107847000Y105854000D01*
X106747000Y105854000D01*
X106747000Y104254000D01*
G37*
G36*
X105797000Y104254000D02*
X106897000Y104254000D01*
X106897000Y105854000D01*
X105797000Y105854000D01*
X105797000Y104254000D01*
G37*
G36*
X105797000Y101654000D02*
X106897000Y101654000D01*
X106897000Y103254000D01*
X105797000Y103254000D01*
X105797000Y101654000D01*
G37*
G36*
X106747000Y101654000D02*
X107847000Y101654000D01*
X107847000Y103254000D01*
X106747000Y103254000D01*
X106747000Y101654000D01*
G37*
G36*
X107697000Y101654000D02*
X108797000Y101654000D01*
X108797000Y103254000D01*
X107697000Y103254000D01*
X107697000Y101654000D01*
G37*
G36*
X99113000Y115260000D02*
X101213000Y115260000D01*
X101213000Y119360000D01*
X99113000Y119360000D01*
X99113000Y115260000D01*
G37*
G36*
X93313000Y115260000D02*
X95413000Y115260000D01*
X95413000Y119360000D01*
X93313000Y119360000D01*
X93313000Y115260000D01*
G37*
G36*
X91635000Y82699000D02*
X93835000Y82699000D01*
X93835000Y84899000D01*
X91635000Y84899000D01*
X91635000Y82699000D01*
G37*
G36*
X96375000Y83799000D02*
X96347421Y84043773D01*
X96266066Y84276272D01*
X96135015Y84484839D01*
X95960839Y84659015D01*
X95752272Y84790066D01*
X95519773Y84871421D01*
X95275000Y84899000D01*
X95030227Y84871421D01*
X94797728Y84790066D01*
X94589161Y84659015D01*
X94414985Y84484839D01*
X94283934Y84276272D01*
X94202579Y84043773D01*
X94175000Y83799000D01*
X94202579Y83554227D01*
X94283934Y83321728D01*
X94414985Y83113161D01*
X94589161Y82938985D01*
X94797728Y82807934D01*
X95030227Y82726579D01*
X95275000Y82699000D01*
X95519773Y82726579D01*
X95752272Y82807934D01*
X95960839Y82938985D01*
X96135015Y83113161D01*
X96266066Y83321728D01*
X96347421Y83554227D01*
X96375000Y83799000D01*
G37*
G36*
X98915000Y83799000D02*
X98887421Y84043773D01*
X98806066Y84276272D01*
X98675015Y84484839D01*
X98500839Y84659015D01*
X98292272Y84790066D01*
X98059773Y84871421D01*
X97815000Y84899000D01*
X97570227Y84871421D01*
X97337728Y84790066D01*
X97129161Y84659015D01*
X96954985Y84484839D01*
X96823934Y84276272D01*
X96742579Y84043773D01*
X96715000Y83799000D01*
X96742579Y83554227D01*
X96823934Y83321728D01*
X96954985Y83113161D01*
X97129161Y82938985D01*
X97337728Y82807934D01*
X97570227Y82726579D01*
X97815000Y82699000D01*
X98059773Y82726579D01*
X98292272Y82807934D01*
X98500839Y82938985D01*
X98675015Y83113161D01*
X98806066Y83321728D01*
X98887421Y83554227D01*
X98915000Y83799000D01*
G37*
G36*
X101455000Y83799000D02*
X101427421Y84043773D01*
X101346066Y84276272D01*
X101215015Y84484839D01*
X101040839Y84659015D01*
X100832272Y84790066D01*
X100599773Y84871421D01*
X100355000Y84899000D01*
X100110227Y84871421D01*
X99877728Y84790066D01*
X99669161Y84659015D01*
X99494985Y84484839D01*
X99363934Y84276272D01*
X99282579Y84043773D01*
X99255000Y83799000D01*
X99282579Y83554227D01*
X99363934Y83321728D01*
X99494985Y83113161D01*
X99669161Y82938985D01*
X99877728Y82807934D01*
X100110227Y82726579D01*
X100355000Y82699000D01*
X100599773Y82726579D01*
X100832272Y82807934D01*
X101040839Y82938985D01*
X101215015Y83113161D01*
X101346066Y83321728D01*
X101427421Y83554227D01*
X101455000Y83799000D01*
G37*
G36*
X96886000Y124250000D02*
X100386000Y124250000D01*
X100386000Y127750000D01*
X96886000Y127750000D01*
X96886000Y124250000D01*
G37*
G36*
X72359108Y120538033D02*
X73737967Y121916892D01*
X71899489Y123755369D01*
X70520631Y122376511D01*
X72359108Y120538033D01*
G37*
G36*
X78468511Y114428631D02*
X79847369Y115807489D01*
X78008892Y117645967D01*
X76630033Y116267108D01*
X78468511Y114428631D01*
G37*
G36*
X73773322Y121952247D02*
X75152180Y123331105D01*
X73313703Y125169583D01*
X71934844Y123790725D01*
X73773322Y121952247D01*
G37*
G36*
X79882725Y115842844D02*
X81261583Y117221703D01*
X79423105Y119060180D01*
X78044247Y117681322D01*
X79882725Y115842844D01*
G37*
G36*
X75150000Y106787000D02*
X75150000Y108887000D01*
X72850000Y108887000D01*
X72850000Y106787000D01*
X75150000Y106787000D01*
G37*
G36*
X75150000Y94387000D02*
X75150000Y96487000D01*
X72850000Y96487000D01*
X72850000Y94387000D01*
X75150000Y94387000D01*
G37*
G36*
X72136949Y82503020D02*
X74328980Y84695051D01*
X72136949Y86887082D01*
X69944918Y84695051D01*
X72136949Y82503020D01*
G37*
G36*
X77279051Y81102949D02*
X77240189Y81447856D01*
X77125553Y81775469D01*
X76940890Y82069358D01*
X76695460Y82314788D01*
X76401571Y82499451D01*
X76073959Y82614087D01*
X75729051Y82652949D01*
X75384144Y82614087D01*
X75056531Y82499451D01*
X74762642Y82314788D01*
X74517212Y82069358D01*
X74332549Y81775469D01*
X74217913Y81447856D01*
X74179051Y81102949D01*
X74217913Y80758041D01*
X74332549Y80430429D01*
X74517212Y80136540D01*
X74762642Y79891110D01*
X75056531Y79706447D01*
X75384144Y79591811D01*
X75729051Y79552949D01*
X76073959Y79591811D01*
X76401571Y79706447D01*
X76695460Y79891110D01*
X76940890Y80136540D01*
X77125553Y80430429D01*
X77240189Y80758041D01*
X77279051Y81102949D01*
G37*
G36*
X106879000Y74611000D02*
X109079000Y74611000D01*
X109079000Y76811000D01*
X106879000Y76811000D01*
X106879000Y74611000D01*
G37*
G36*
X111619000Y75711000D02*
X111591421Y75955773D01*
X111510066Y76188272D01*
X111379015Y76396839D01*
X111204839Y76571015D01*
X110996272Y76702066D01*
X110763773Y76783421D01*
X110519000Y76811000D01*
X110274227Y76783421D01*
X110041728Y76702066D01*
X109833161Y76571015D01*
X109658985Y76396839D01*
X109527934Y76188272D01*
X109446579Y75955773D01*
X109419000Y75711000D01*
X109446579Y75466227D01*
X109527934Y75233728D01*
X109658985Y75025161D01*
X109833161Y74850985D01*
X110041728Y74719934D01*
X110274227Y74638579D01*
X110519000Y74611000D01*
X110763773Y74638579D01*
X110996272Y74719934D01*
X111204839Y74850985D01*
X111379015Y75025161D01*
X111510066Y75233728D01*
X111591421Y75466227D01*
X111619000Y75711000D01*
G37*
G36*
X114159000Y75711000D02*
X114131421Y75955773D01*
X114050066Y76188272D01*
X113919015Y76396839D01*
X113744839Y76571015D01*
X113536272Y76702066D01*
X113303773Y76783421D01*
X113059000Y76811000D01*
X112814227Y76783421D01*
X112581728Y76702066D01*
X112373161Y76571015D01*
X112198985Y76396839D01*
X112067934Y76188272D01*
X111986579Y75955773D01*
X111959000Y75711000D01*
X111986579Y75466227D01*
X112067934Y75233728D01*
X112198985Y75025161D01*
X112373161Y74850985D01*
X112581728Y74719934D01*
X112814227Y74638579D01*
X113059000Y74611000D01*
X113303773Y74638579D01*
X113536272Y74719934D01*
X113744839Y74850985D01*
X113919015Y75025161D01*
X114050066Y75233728D01*
X114131421Y75466227D01*
X114159000Y75711000D01*
G37*
G36*
X116699000Y75711000D02*
X116671421Y75955773D01*
X116590066Y76188272D01*
X116459015Y76396839D01*
X116284839Y76571015D01*
X116076272Y76702066D01*
X115843773Y76783421D01*
X115599000Y76811000D01*
X115354227Y76783421D01*
X115121728Y76702066D01*
X114913161Y76571015D01*
X114738985Y76396839D01*
X114607934Y76188272D01*
X114526579Y75955773D01*
X114499000Y75711000D01*
X114526579Y75466227D01*
X114607934Y75233728D01*
X114738985Y75025161D01*
X114913161Y74850985D01*
X115121728Y74719934D01*
X115354227Y74638579D01*
X115599000Y74611000D01*
X115843773Y74638579D01*
X116076272Y74719934D01*
X116284839Y74850985D01*
X116459015Y75025161D01*
X116590066Y75233728D01*
X116671421Y75466227D01*
X116699000Y75711000D01*
G37*
G36*
X122712000Y74963000D02*
X122712000Y77163000D01*
X120512000Y77163000D01*
X120512000Y74963000D01*
X122712000Y74963000D01*
G37*
G36*
X122712000Y78603000D02*
X122684421Y78847773D01*
X122603066Y79080272D01*
X122472015Y79288839D01*
X122297839Y79463015D01*
X122089272Y79594066D01*
X121856773Y79675421D01*
X121612000Y79703000D01*
X121367227Y79675421D01*
X121134728Y79594066D01*
X120926161Y79463015D01*
X120751985Y79288839D01*
X120620934Y79080272D01*
X120539579Y78847773D01*
X120512000Y78603000D01*
X120539579Y78358227D01*
X120620934Y78125728D01*
X120751985Y77917161D01*
X120926161Y77742985D01*
X121134728Y77611934D01*
X121367227Y77530579D01*
X121612000Y77503000D01*
X121856773Y77530579D01*
X122089272Y77611934D01*
X122297839Y77742985D01*
X122472015Y77917161D01*
X122603066Y78125728D01*
X122684421Y78358227D01*
X122712000Y78603000D01*
G37*
G36*
X122712000Y83683000D02*
X122684421Y83927773D01*
X122603066Y84160272D01*
X122472015Y84368839D01*
X122297839Y84543015D01*
X122089272Y84674066D01*
X121856773Y84755421D01*
X121612000Y84783000D01*
X121367227Y84755421D01*
X121134728Y84674066D01*
X120926161Y84543015D01*
X120751985Y84368839D01*
X120620934Y84160272D01*
X120539579Y83927773D01*
X120512000Y83683000D01*
X120539579Y83438227D01*
X120620934Y83205728D01*
X120751985Y82997161D01*
X120926161Y82822985D01*
X121134728Y82691934D01*
X121367227Y82610579D01*
X121612000Y82583000D01*
X121856773Y82610579D01*
X122089272Y82691934D01*
X122297839Y82822985D01*
X122472015Y82997161D01*
X122603066Y83205728D01*
X122684421Y83438227D01*
X122712000Y83683000D01*
G37*
G36*
X122712000Y86223000D02*
X122684421Y86467773D01*
X122603066Y86700272D01*
X122472015Y86908839D01*
X122297839Y87083015D01*
X122089272Y87214066D01*
X121856773Y87295421D01*
X121612000Y87323000D01*
X121367227Y87295421D01*
X121134728Y87214066D01*
X120926161Y87083015D01*
X120751985Y86908839D01*
X120620934Y86700272D01*
X120539579Y86467773D01*
X120512000Y86223000D01*
X120539579Y85978227D01*
X120620934Y85745728D01*
X120751985Y85537161D01*
X120926161Y85362985D01*
X121134728Y85231934D01*
X121367227Y85150579D01*
X121612000Y85123000D01*
X121856773Y85150579D01*
X122089272Y85231934D01*
X122297839Y85362985D01*
X122472015Y85537161D01*
X122603066Y85745728D01*
X122684421Y85978227D01*
X122712000Y86223000D01*
G37*
G36*
X122712000Y88763000D02*
X122684421Y89007773D01*
X122603066Y89240272D01*
X122472015Y89448839D01*
X122297839Y89623015D01*
X122089272Y89754066D01*
X121856773Y89835421D01*
X121612000Y89863000D01*
X121367227Y89835421D01*
X121134728Y89754066D01*
X120926161Y89623015D01*
X120751985Y89448839D01*
X120620934Y89240272D01*
X120539579Y89007773D01*
X120512000Y88763000D01*
X120539579Y88518227D01*
X120620934Y88285728D01*
X120751985Y88077161D01*
X120926161Y87902985D01*
X121134728Y87771934D01*
X121367227Y87690579D01*
X121612000Y87663000D01*
X121856773Y87690579D01*
X122089272Y87771934D01*
X122297839Y87902985D01*
X122472015Y88077161D01*
X122603066Y88285728D01*
X122684421Y88518227D01*
X122712000Y88763000D01*
G37*
G36*
X122712000Y91303000D02*
X122684421Y91547773D01*
X122603066Y91780272D01*
X122472015Y91988839D01*
X122297839Y92163015D01*
X122089272Y92294066D01*
X121856773Y92375421D01*
X121612000Y92403000D01*
X121367227Y92375421D01*
X121134728Y92294066D01*
X120926161Y92163015D01*
X120751985Y91988839D01*
X120620934Y91780272D01*
X120539579Y91547773D01*
X120512000Y91303000D01*
X120539579Y91058227D01*
X120620934Y90825728D01*
X120751985Y90617161D01*
X120926161Y90442985D01*
X121134728Y90311934D01*
X121367227Y90230579D01*
X121612000Y90203000D01*
X121856773Y90230579D01*
X122089272Y90311934D01*
X122297839Y90442985D01*
X122472015Y90617161D01*
X122603066Y90825728D01*
X122684421Y91058227D01*
X122712000Y91303000D01*
G37*
G36*
X114567000Y125795000D02*
X114567000Y128895000D01*
X111467000Y128895000D01*
X111467000Y125795000D01*
X114567000Y125795000D01*
G37*
G36*
X114567000Y132425000D02*
X114528138Y132769907D01*
X114413502Y133097520D01*
X114228839Y133391409D01*
X113983409Y133636839D01*
X113689520Y133821502D01*
X113361907Y133936138D01*
X113017000Y133975000D01*
X112672093Y133936138D01*
X112344480Y133821502D01*
X112050591Y133636839D01*
X111805161Y133391409D01*
X111620498Y133097520D01*
X111505862Y132769907D01*
X111467000Y132425000D01*
X111505862Y132080093D01*
X111620498Y131752480D01*
X111805161Y131458591D01*
X112050591Y131213161D01*
X112344480Y131028498D01*
X112672093Y130913862D01*
X113017000Y130875000D01*
X113361907Y130913862D01*
X113689520Y131028498D01*
X113983409Y131213161D01*
X114228839Y131458591D01*
X114413502Y131752480D01*
X114528138Y132080093D01*
X114567000Y132425000D01*
G37*
G36*
X112792000Y118408000D02*
X113892000Y118408000D01*
X113892000Y119958000D01*
X112792000Y119958000D01*
X112792000Y118408000D01*
G37*
G36*
X111842000Y116208000D02*
X112942000Y116208000D01*
X112942000Y117758000D01*
X111842000Y117758000D01*
X111842000Y116208000D01*
G37*
G36*
X129579000Y104000000D02*
X132679000Y104000000D01*
X132679000Y107100000D01*
X129579000Y107100000D01*
X129579000Y104000000D01*
G37*
G36*
X127599000Y105550000D02*
X127560138Y105894907D01*
X127445502Y106222520D01*
X127260839Y106516409D01*
X127015409Y106761839D01*
X126721520Y106946502D01*
X126393907Y107061138D01*
X126049000Y107100000D01*
X125704093Y107061138D01*
X125376480Y106946502D01*
X125082591Y106761839D01*
X124837161Y106516409D01*
X124652498Y106222520D01*
X124537862Y105894907D01*
X124499000Y105550000D01*
X124537862Y105205093D01*
X124652498Y104877480D01*
X124837161Y104583591D01*
X125082591Y104338161D01*
X125376480Y104153498D01*
X125704093Y104038862D01*
X126049000Y104000000D01*
X126393907Y104038862D01*
X126721520Y104153498D01*
X127015409Y104338161D01*
X127260839Y104583591D01*
X127445502Y104877480D01*
X127560138Y105205093D01*
X127599000Y105550000D01*
G37*
G36*
X121073000Y108660000D02*
X122173000Y108660000D01*
X122173000Y110210000D01*
X121073000Y110210000D01*
X121073000Y108660000D01*
G37*
G36*
X120123000Y106460000D02*
X121223000Y106460000D01*
X121223000Y108010000D01*
X120123000Y108010000D01*
X120123000Y106460000D01*
G37*
G36*
X92900474Y131137124D02*
X89987427Y132197386D01*
X88927164Y129284339D01*
X91840212Y128224076D01*
X92900474Y131137124D01*
G37*
G36*
X87690181Y128473269D02*
X87651319Y128818176D01*
X87536682Y129145789D01*
X87352020Y129439678D01*
X87106590Y129685108D01*
X86812701Y129869771D01*
X86485088Y129984407D01*
X86140181Y130023269D01*
X85795273Y129984407D01*
X85467661Y129869771D01*
X85173772Y129685108D01*
X84928342Y129439678D01*
X84743679Y129145789D01*
X84629042Y128818176D01*
X84590181Y128473269D01*
X84629042Y128128361D01*
X84743679Y127800749D01*
X84928342Y127506860D01*
X85173772Y127261430D01*
X85467661Y127076767D01*
X85795273Y126962131D01*
X86140181Y126923269D01*
X86485088Y126962131D01*
X86812701Y127076767D01*
X87106590Y127261430D01*
X87352020Y127506860D01*
X87536682Y127800749D01*
X87651319Y128128361D01*
X87690181Y128473269D01*
G37*
G36*
X88525483Y123625298D02*
X86364190Y124411945D01*
X85611746Y122344621D01*
X87773039Y121557975D01*
X88525483Y123625298D01*
G37*
G36*
X92284254Y124993379D02*
X90122961Y125780025D01*
X89370517Y123712702D01*
X91531810Y122926055D01*
X92284254Y124993379D01*
G37*
G36*
X90717000Y118383000D02*
X92092000Y118383000D01*
X92092000Y119833000D01*
X90717000Y119833000D01*
X90717000Y118383000D01*
G37*
G36*
X89142000Y118383000D02*
X90517000Y118383000D01*
X90517000Y119833000D01*
X89142000Y119833000D01*
X89142000Y118383000D01*
G37*
G36*
X95290000Y123234000D02*
X96665000Y123234000D01*
X96665000Y124684000D01*
X95290000Y124684000D01*
X95290000Y123234000D01*
G37*
G36*
X92890000Y112627000D02*
X94265000Y112627000D01*
X94265000Y114077000D01*
X92890000Y114077000D01*
X92890000Y112627000D01*
G37*
G36*
X91315000Y112627000D02*
X92690000Y112627000D01*
X92690000Y114077000D01*
X91315000Y114077000D01*
X91315000Y112627000D01*
G37*
G36*
X97074000Y112632000D02*
X98449000Y112632000D01*
X98449000Y114082000D01*
X97074000Y114082000D01*
X97074000Y112632000D01*
G37*
G36*
X86047199Y70618991D02*
X88421937Y72611632D01*
X86429295Y74986370D01*
X84054557Y72993729D01*
X86047199Y70618991D01*
G37*
G36*
X91679753Y69537319D02*
X91640891Y69882227D01*
X91526255Y70209839D01*
X91341592Y70503729D01*
X91096162Y70749158D01*
X90802273Y70933821D01*
X90474660Y71048458D01*
X90129753Y71087319D01*
X89784845Y71048458D01*
X89457233Y70933821D01*
X89163344Y70749158D01*
X88917914Y70503729D01*
X88733251Y70209839D01*
X88618615Y69882227D01*
X88579753Y69537319D01*
X88618615Y69192412D01*
X88733251Y68864800D01*
X88917914Y68570910D01*
X89163344Y68325481D01*
X89457233Y68140818D01*
X89784845Y68026181D01*
X90129753Y67987319D01*
X90474660Y68026181D01*
X90802273Y68140818D01*
X91096162Y68325481D01*
X91341592Y68570910D01*
X91526255Y68864800D01*
X91640891Y69192412D01*
X91679753Y69537319D01*
G37*
G36*
X86663204Y74868570D02*
X88425106Y76346982D01*
X87010974Y78032279D01*
X85249071Y76553868D01*
X86663204Y74868570D01*
G37*
G36*
X83599026Y77439721D02*
X85360929Y78918132D01*
X83946796Y80603430D01*
X82184894Y79125018D01*
X83599026Y77439721D01*
G37*
G36*
X88117000Y82261000D02*
X89492000Y82261000D01*
X89492000Y83711000D01*
X88117000Y83711000D01*
X88117000Y82261000D01*
G37*
G36*
X86542000Y82261000D02*
X87917000Y82261000D01*
X87917000Y83711000D01*
X86542000Y83711000D01*
X86542000Y82261000D01*
G37*
G36*
X83908000Y83719000D02*
X85283000Y83719000D01*
X85283000Y85169000D01*
X83908000Y85169000D01*
X83908000Y83719000D01*
G37*
G36*
X91283000Y87645000D02*
X92658000Y87645000D01*
X92658000Y89095000D01*
X91283000Y89095000D01*
X91283000Y87645000D01*
G37*
G36*
X89708000Y87645000D02*
X91083000Y87645000D01*
X91083000Y89095000D01*
X89708000Y89095000D01*
X89708000Y87645000D01*
G37*
G36*
X90483000Y90307000D02*
X91858000Y90307000D01*
X91858000Y91757000D01*
X90483000Y91757000D01*
X90483000Y90307000D01*
G37*
G36*
X125735327Y93104886D02*
X126273636Y90051982D01*
X129326540Y90590291D01*
X128788231Y93643195D01*
X125735327Y93104886D01*
G37*
G36*
X129963066Y96850412D02*
X129924205Y97195319D01*
X129809568Y97522931D01*
X129624905Y97816821D01*
X129379476Y98062250D01*
X129085586Y98246913D01*
X128757974Y98361550D01*
X128413066Y98400412D01*
X128068159Y98361550D01*
X127740547Y98246913D01*
X127446657Y98062250D01*
X127201228Y97816821D01*
X127016565Y97522931D01*
X126901928Y97195319D01*
X126863066Y96850412D01*
X126901928Y96505504D01*
X127016565Y96177892D01*
X127201228Y95884002D01*
X127446657Y95638573D01*
X127740547Y95453910D01*
X128068159Y95339273D01*
X128413066Y95300412D01*
X128757974Y95339273D01*
X129085586Y95453910D01*
X129379476Y95638573D01*
X129624905Y95884002D01*
X129809568Y96177892D01*
X129924205Y96505504D01*
X129963066Y96850412D01*
G37*
G36*
X129528312Y96995131D02*
X129927703Y94730074D01*
X132094280Y95112100D01*
X131694889Y97377157D01*
X129528312Y96995131D01*
G37*
G36*
X128833720Y93055900D02*
X129233111Y90790843D01*
X131399688Y91172869D01*
X131000297Y93437926D01*
X128833720Y93055900D01*
G37*
G36*
X125738000Y96054000D02*
X127113000Y96054000D01*
X127113000Y97504000D01*
X125738000Y97504000D01*
X125738000Y96054000D01*
G37*
G36*
X124163000Y96054000D02*
X125538000Y96054000D01*
X125538000Y97504000D01*
X124163000Y97504000D01*
X124163000Y96054000D01*
G37*
G36*
X125742000Y93182000D02*
X127117000Y93182000D01*
X127117000Y94632000D01*
X125742000Y94632000D01*
X125742000Y93182000D01*
G37*
G36*
X115104000Y93644000D02*
X116479000Y93644000D01*
X116479000Y95094000D01*
X115104000Y95094000D01*
X115104000Y93644000D01*
G37*
G36*
X113529000Y93644000D02*
X114904000Y93644000D01*
X114904000Y95094000D01*
X113529000Y95094000D01*
X113529000Y93644000D01*
G37*
G36*
X115569000Y90962000D02*
X116944000Y90962000D01*
X116944000Y92412000D01*
X115569000Y92412000D01*
X115569000Y90962000D01*
G37*
G36*
X104400000Y127115000D02*
X106700000Y127115000D01*
X106700000Y129415000D01*
X104400000Y129415000D01*
X104400000Y127115000D01*
G37*
G36*
X71541000Y93814000D02*
X73841000Y93814000D01*
X73841000Y96114000D01*
X71541000Y96114000D01*
X71541000Y93814000D01*
G37*
G36*
X115792000Y76635000D02*
X118092000Y76635000D01*
X118092000Y78935000D01*
X115792000Y78935000D01*
X115792000Y76635000D01*
G37*
G36*
X98673000Y94275000D02*
X100048000Y94275000D01*
X100048000Y95725000D01*
X98673000Y95725000D01*
X98673000Y94275000D01*
G37*
G36*
X104162000Y91954000D02*
X105537000Y91954000D01*
X105537000Y93404000D01*
X104162000Y93404000D01*
X104162000Y91954000D01*
G37*
G36*
X94491000Y94275000D02*
X95866000Y94275000D01*
X95866000Y95725000D01*
X94491000Y95725000D01*
X94491000Y94275000D01*
G37*
G36*
X94738000Y102037000D02*
X96113000Y102037000D01*
X96113000Y103487000D01*
X94738000Y103487000D01*
X94738000Y102037000D01*
G37*
G36*
X98917000Y102021000D02*
X100292000Y102021000D01*
X100292000Y103471000D01*
X98917000Y103471000D01*
X98917000Y102021000D01*
G37*
G36*
X90559000Y102275000D02*
X91934000Y102275000D01*
X91934000Y103725000D01*
X90559000Y103725000D01*
X90559000Y102275000D01*
G37*
G36*
X103090000Y101277000D02*
X104465000Y101277000D01*
X104465000Y102727000D01*
X103090000Y102727000D01*
X103090000Y101277000D01*
G37*
G36*
X92100000Y98275000D02*
X93475000Y98275000D01*
X93475000Y99725000D01*
X92100000Y99725000D01*
X92100000Y98275000D01*
G37*
G36*
X111402000Y90977000D02*
X112777000Y90977000D01*
X112777000Y92427000D01*
X111402000Y92427000D01*
X111402000Y90977000D01*
G37*
G36*
X88100000Y94275000D02*
X89475000Y94275000D01*
X89475000Y95725000D01*
X88100000Y95725000D01*
X88100000Y94275000D01*
G37*
G36*
X97665000Y109954000D02*
X99040000Y109954000D01*
X99040000Y111404000D01*
X97665000Y111404000D01*
X97665000Y109954000D01*
G37*
G36*
X101857000Y110275000D02*
X103232000Y110275000D01*
X103232000Y111725000D01*
X101857000Y111725000D01*
X101857000Y110275000D01*
G37*
G36*
X106032000Y110937000D02*
X107407000Y110937000D01*
X107407000Y112387000D01*
X106032000Y112387000D01*
X106032000Y110937000D01*
G37*
G36*
X108061000Y106968000D02*
X109436000Y106968000D01*
X109436000Y108418000D01*
X108061000Y108418000D01*
X108061000Y106968000D01*
G37*
G36*
X106486000Y106968000D02*
X107861000Y106968000D01*
X107861000Y108418000D01*
X106486000Y108418000D01*
X106486000Y106968000D01*
G37*
G36*
X89299000Y109275000D02*
X90674000Y109275000D01*
X90674000Y110725000D01*
X89299000Y110725000D01*
X89299000Y109275000D01*
G37*
G36*
X87724000Y109275000D02*
X89099000Y109275000D01*
X89099000Y110725000D01*
X87724000Y110725000D01*
X87724000Y109275000D01*
G37*
G36*
X93469000Y109275000D02*
X94844000Y109275000D01*
X94844000Y110725000D01*
X93469000Y110725000D01*
X93469000Y109275000D01*
G37*
G36*
X116456000Y110020000D02*
X117831000Y110020000D01*
X117831000Y111470000D01*
X116456000Y111470000D01*
X116456000Y110020000D01*
G37*
G36*
X114881000Y110020000D02*
X116256000Y110020000D01*
X116256000Y111470000D01*
X114881000Y111470000D01*
X114881000Y110020000D01*
G37*
G36*
X120642000Y111368000D02*
X122017000Y111368000D01*
X122017000Y112818000D01*
X120642000Y112818000D01*
X120642000Y111368000D01*
G37*
G36*
X104721000Y113624000D02*
X106096000Y113624000D01*
X106096000Y115074000D01*
X104721000Y115074000D01*
X104721000Y113624000D01*
G37*
G36*
X103146000Y113624000D02*
X104521000Y113624000D01*
X104521000Y115074000D01*
X103146000Y115074000D01*
X103146000Y113624000D01*
G37*
G36*
X103980000Y116318000D02*
X105355000Y116318000D01*
X105355000Y117768000D01*
X103980000Y117768000D01*
X103980000Y116318000D01*
G37*
G36*
X108990000Y88283000D02*
X110365000Y88283000D01*
X110365000Y89733000D01*
X108990000Y89733000D01*
X108990000Y88283000D01*
G37*
G36*
X107415000Y88283000D02*
X108790000Y88283000D01*
X108790000Y89733000D01*
X107415000Y89733000D01*
X107415000Y88283000D01*
G37*
G36*
X113210000Y88259000D02*
X114585000Y88259000D01*
X114585000Y89709000D01*
X113210000Y89709000D01*
X113210000Y88259000D01*
G37*
G36*
X111635000Y88259000D02*
X113010000Y88259000D01*
X113010000Y89709000D01*
X111635000Y89709000D01*
X111635000Y88259000D01*
G37*
G36*
X116100000Y82903000D02*
X117475000Y82903000D01*
X117475000Y84353000D01*
X116100000Y84353000D01*
X116100000Y82903000D01*
G37*
G36*
X117712000Y85596000D02*
X119087000Y85596000D01*
X119087000Y87046000D01*
X117712000Y87046000D01*
X117712000Y85596000D01*
G37*
G36*
X116137000Y85596000D02*
X117512000Y85596000D01*
X117512000Y87046000D01*
X116137000Y87046000D01*
X116137000Y85596000D01*
G37*
G36*
X117696000Y88288000D02*
X119071000Y88288000D01*
X119071000Y89738000D01*
X117696000Y89738000D01*
X117696000Y88288000D01*
G37*
G36*
X90100000Y84979000D02*
X91475000Y84979000D01*
X91475000Y86429000D01*
X90100000Y86429000D01*
X90100000Y84979000D01*
G37*
G36*
X88525000Y84979000D02*
X89900000Y84979000D01*
X89900000Y86429000D01*
X88525000Y86429000D01*
X88525000Y84979000D01*
G37*
G36*
X86297000Y89275000D02*
X87672000Y89275000D01*
X87672000Y90725000D01*
X86297000Y90725000D01*
X86297000Y89275000D01*
G37*
G36*
X84722000Y89275000D02*
X86097000Y89275000D01*
X86097000Y90725000D01*
X84722000Y90725000D01*
X84722000Y89275000D01*
G37*
G36*
X81940000Y107275000D02*
X83315000Y107275000D01*
X83315000Y108725000D01*
X81940000Y108725000D01*
X81940000Y107275000D01*
G37*
G36*
X84100000Y110275000D02*
X85475000Y110275000D01*
X85475000Y111725000D01*
X84100000Y111725000D01*
X84100000Y110275000D01*
G37*
G36*
X118358000Y119403000D02*
X119733000Y119403000D01*
X119733000Y120853000D01*
X118358000Y120853000D01*
X118358000Y119403000D01*
G37*
G36*
X104473000Y121691000D02*
X105848000Y121691000D01*
X105848000Y123141000D01*
X104473000Y123141000D01*
X104473000Y121691000D01*
G37*
G36*
X107356000Y119023000D02*
X108731000Y119023000D01*
X108731000Y120473000D01*
X107356000Y120473000D01*
X107356000Y119023000D01*
G37*
G36*
X111542000Y121151000D02*
X112917000Y121151000D01*
X112917000Y122601000D01*
X111542000Y122601000D01*
X111542000Y121151000D01*
G37*
G36*
X109967000Y121151000D02*
X111342000Y121151000D01*
X111342000Y122601000D01*
X109967000Y122601000D01*
X109967000Y121151000D01*
G37*
G36*
X116775000Y116735000D02*
X118150000Y116735000D01*
X118150000Y118185000D01*
X116775000Y118185000D01*
X116775000Y116735000D01*
G37*
G36*
X120954000Y116721000D02*
X122329000Y116721000D01*
X122329000Y118171000D01*
X120954000Y118171000D01*
X120954000Y116721000D01*
G37*
G36*
X119379000Y116721000D02*
X120754000Y116721000D01*
X120754000Y118171000D01*
X119379000Y118171000D01*
X119379000Y116721000D01*
G37*
G36*
X96100000Y120523000D02*
X97475000Y120523000D01*
X97475000Y121973000D01*
X96100000Y121973000D01*
X96100000Y120523000D01*
G37*
G36*
X93651000Y78944000D02*
X95851000Y78944000D01*
X95851000Y81144000D01*
X93651000Y81144000D01*
X93651000Y78944000D01*
G37*
G36*
X108616000Y123243000D02*
X111716000Y123243000D01*
X111716000Y126343000D01*
X108616000Y126343000D01*
X108616000Y123243000D01*
G37*
G36*
X98660000Y88325025D02*
X96845025Y90140000D01*
X97340000Y90634975D01*
X99154975Y88820000D01*
X98660000Y88325025D01*
G37*
G36*
X97690000Y89790000D02*
X91590000Y89790000D01*
X91590000Y90490000D01*
X97690000Y90490000D01*
X97690000Y89790000D01*
G37*
G36*
X118700000Y120005025D02*
X117845025Y120860000D01*
X118340000Y121354975D01*
X119194975Y120500000D01*
X118700000Y120005025D01*
G37*
G36*
X117990000Y120510000D02*
X117990000Y121330000D01*
X118690000Y121330000D01*
X118690000Y120510000D01*
X117990000Y120510000D01*
G37*
G36*
X118340000Y120485025D02*
X116885025Y121940000D01*
X117380000Y122434975D01*
X118834975Y120980000D01*
X118340000Y120485025D01*
G37*
G36*
X117730000Y121590000D02*
X113910000Y121590000D01*
X113910000Y122290000D01*
X117730000Y122290000D01*
X117730000Y121590000D01*
G37*
G36*
X114260000Y121445025D02*
X110885025Y124820000D01*
X111380000Y125314975D01*
X114754975Y121940000D01*
X114260000Y121445025D01*
G37*
G36*
X102850000Y109590000D02*
X99870000Y109590000D01*
X99870000Y110290000D01*
X102850000Y110290000D01*
X102850000Y109590000D01*
G37*
G36*
X100714975Y109940000D02*
X99980000Y109205025D01*
X99485025Y109700000D01*
X100220000Y110434975D01*
X100714975Y109940000D01*
G37*
G36*
X100330000Y109350000D02*
X99030000Y109350000D01*
X99030000Y110050000D01*
X100330000Y110050000D01*
X100330000Y109350000D01*
G37*
G36*
X99874975Y109700000D02*
X98660000Y108485025D01*
X98165025Y108980000D01*
X99380000Y110194975D01*
X99874975Y109700000D01*
G37*
G36*
X99010000Y108630000D02*
X96870000Y108630000D01*
X96870000Y109330000D01*
X99010000Y109330000D01*
X99010000Y108630000D01*
G37*
G36*
X97714975Y108980000D02*
X94940000Y106205025D01*
X94445025Y106700000D01*
X97220000Y109474975D01*
X97714975Y108980000D01*
G37*
G36*
X95290000Y107050000D02*
X95290000Y105150000D01*
X94590000Y105150000D01*
X94590000Y107050000D01*
X95290000Y107050000D01*
G37*
G36*
X95434975Y105500000D02*
X93020000Y103085025D01*
X92525025Y103580000D01*
X94940000Y105994975D01*
X95434975Y105500000D01*
G37*
G36*
X93370000Y103930000D02*
X93370000Y102150000D01*
X92670000Y102150000D01*
X92670000Y103930000D01*
X93370000Y103930000D01*
G37*
G36*
X93514975Y102500000D02*
X90380000Y99365025D01*
X89885025Y99860000D01*
X93020000Y102994975D01*
X93514975Y102500000D01*
G37*
G36*
X90730000Y100210000D02*
X90730000Y97830000D01*
X90030000Y97830000D01*
X90030000Y100210000D01*
X90730000Y100210000D01*
G37*
G36*
X90380000Y98674975D02*
X91114975Y97940000D01*
X90620000Y97445025D01*
X89885025Y98180000D01*
X90380000Y98674975D01*
G37*
G36*
X90270000Y98290000D02*
X93250000Y98290000D01*
X93250000Y97590000D01*
X90270000Y97590000D01*
X90270000Y98290000D01*
G37*
G36*
X114917817Y105620000D02*
X114020000Y104722183D01*
X113242183Y105500000D01*
X114140000Y106397817D01*
X114917817Y105620000D01*
G37*
G36*
X114570000Y104950000D02*
X110950000Y104950000D01*
X110950000Y106050000D01*
X114570000Y106050000D01*
X114570000Y104950000D01*
G37*
G36*
X112277817Y105500000D02*
X111020000Y104242183D01*
X110242183Y105020000D01*
X111500000Y106277817D01*
X112277817Y105500000D01*
G37*
G36*
X111570000Y104470000D02*
X109510000Y104470000D01*
X109510000Y105570000D01*
X111570000Y105570000D01*
X111570000Y104470000D01*
G37*
G36*
X110837817Y105020000D02*
X108980000Y103162183D01*
X108202183Y103940000D01*
X110060000Y105797817D01*
X110837817Y105020000D01*
G37*
G36*
X109530000Y103390000D02*
X106990000Y103390000D01*
X106990000Y104490000D01*
X109530000Y104490000D01*
X109530000Y103390000D01*
G37*
G36*
X107540000Y103162183D02*
X106522183Y104180000D01*
X107300000Y104957817D01*
X108317817Y103940000D01*
X107540000Y103162183D01*
G37*
G36*
X106750000Y103630000D02*
X106750000Y105090000D01*
X107850000Y105090000D01*
X107850000Y103630000D01*
X106750000Y103630000D01*
G37*
G36*
X118700000Y120019167D02*
X116659167Y122060000D01*
X117140000Y122540833D01*
X119180833Y120500000D01*
X118700000Y120019167D01*
G37*
G36*
X117480000Y121720000D02*
X114040000Y121720000D01*
X114040000Y122400000D01*
X117480000Y122400000D01*
X117480000Y121720000D01*
G37*
G36*
X114380000Y121579167D02*
X111139167Y124820000D01*
X111620000Y125300833D01*
X114860833Y122060000D01*
X114380000Y121579167D01*
G37*
G36*
X111960000Y124480000D02*
X111040000Y124480000D01*
X111040000Y125160000D01*
X111960000Y125160000D01*
X111960000Y124480000D01*
G37*
G36*
X118360000Y100560000D02*
X119280000Y100560000D01*
X119280000Y99880000D01*
X118360000Y99880000D01*
X118360000Y100560000D01*
G37*
G36*
X118459167Y100220000D02*
X119060000Y100820833D01*
X119540833Y100340000D01*
X118940000Y99739167D01*
X118459167Y100220000D01*
G37*
G36*
X118720000Y100000000D02*
X118720000Y101760000D01*
X119400000Y101760000D01*
X119400000Y100000000D01*
X118720000Y100000000D01*
G37*
G36*
X118579167Y101420000D02*
X119300000Y102140833D01*
X119780833Y101660000D01*
X119060000Y100939167D01*
X118579167Y101420000D01*
G37*
G36*
X118960000Y101320000D02*
X118960000Y103080000D01*
X119640000Y103080000D01*
X119640000Y101320000D01*
X118960000Y101320000D01*
G37*
G36*
X118960000Y104800000D02*
X118960000Y108000000D01*
X119640000Y108000000D01*
X119640000Y104800000D01*
X118960000Y104800000D01*
G37*
G36*
X118819167Y107660000D02*
X120380000Y109220833D01*
X120860833Y108740000D01*
X119300000Y107179167D01*
X118819167Y107660000D01*
G37*
G36*
X120040000Y108400000D02*
X120040000Y110040000D01*
X120720000Y110040000D01*
X120720000Y108400000D01*
X120040000Y108400000D01*
G37*
G36*
X119899167Y109700000D02*
X122060000Y111860833D01*
X122540833Y111380000D01*
X120380000Y109219167D01*
X119899167Y109700000D01*
G37*
G36*
X121720000Y111040000D02*
X121720000Y113160000D01*
X122400000Y113160000D01*
X122400000Y111040000D01*
X121720000Y111040000D01*
G37*
G36*
X122060000Y112339167D02*
X120859167Y113540000D01*
X121340000Y114020833D01*
X122540833Y112820000D01*
X122060000Y112339167D01*
G37*
G36*
X121000000Y113200000D02*
X121000000Y115680000D01*
X121680000Y115680000D01*
X121680000Y113200000D01*
X121000000Y113200000D01*
G37*
G36*
X99210000Y88820000D02*
X99196210Y88942387D01*
X99155533Y89058636D01*
X99090007Y89162919D01*
X99002919Y89250007D01*
X98898636Y89315533D01*
X98782387Y89356210D01*
X98660000Y89370000D01*
X98537613Y89356210D01*
X98421364Y89315533D01*
X98317081Y89250007D01*
X98229993Y89162919D01*
X98164467Y89058636D01*
X98123790Y88942387D01*
X98110000Y88820000D01*
X98123790Y88697613D01*
X98164467Y88581364D01*
X98229993Y88477081D01*
X98317081Y88389993D01*
X98421364Y88324467D01*
X98537613Y88283790D01*
X98660000Y88270000D01*
X98782387Y88283790D01*
X98898636Y88324467D01*
X99002919Y88389993D01*
X99090007Y88477081D01*
X99155533Y88581364D01*
X99196210Y88697613D01*
X99210000Y88820000D01*
G37*
G36*
X92490000Y90140000D02*
X92476210Y90262387D01*
X92435533Y90378636D01*
X92370007Y90482919D01*
X92282919Y90570007D01*
X92178636Y90635533D01*
X92062387Y90676210D01*
X91940000Y90690000D01*
X91817613Y90676210D01*
X91701364Y90635533D01*
X91597081Y90570007D01*
X91509993Y90482919D01*
X91444467Y90378636D01*
X91403790Y90262387D01*
X91390000Y90140000D01*
X91403790Y90017613D01*
X91444467Y89901364D01*
X91509993Y89797081D01*
X91597081Y89709993D01*
X91701364Y89644467D01*
X91817613Y89603790D01*
X91940000Y89590000D01*
X92062387Y89603790D01*
X92178636Y89644467D01*
X92282919Y89709993D01*
X92370007Y89797081D01*
X92435533Y89901364D01*
X92476210Y90017613D01*
X92490000Y90140000D01*
G37*
G36*
X103050000Y109940000D02*
X103036210Y110062387D01*
X102995533Y110178636D01*
X102930007Y110282919D01*
X102842919Y110370007D01*
X102738636Y110435533D01*
X102622387Y110476210D01*
X102500000Y110490000D01*
X102377613Y110476210D01*
X102261364Y110435533D01*
X102157081Y110370007D01*
X102069993Y110282919D01*
X102004467Y110178636D01*
X101963790Y110062387D01*
X101950000Y109940000D01*
X101963790Y109817613D01*
X102004467Y109701364D01*
X102069993Y109597081D01*
X102157081Y109509993D01*
X102261364Y109444467D01*
X102377613Y109403790D01*
X102500000Y109390000D01*
X102622387Y109403790D01*
X102738636Y109444467D01*
X102842919Y109509993D01*
X102930007Y109597081D01*
X102995533Y109701364D01*
X103036210Y109817613D01*
X103050000Y109940000D01*
G37*
G36*
X93450000Y97940000D02*
X93436210Y98062387D01*
X93395533Y98178636D01*
X93330007Y98282919D01*
X93242919Y98370007D01*
X93138636Y98435533D01*
X93022387Y98476210D01*
X92900000Y98490000D01*
X92777613Y98476210D01*
X92661364Y98435533D01*
X92557081Y98370007D01*
X92469993Y98282919D01*
X92404467Y98178636D01*
X92363790Y98062387D01*
X92350000Y97940000D01*
X92363790Y97817613D01*
X92404467Y97701364D01*
X92469993Y97597081D01*
X92557081Y97509993D01*
X92661364Y97444467D01*
X92777613Y97403790D01*
X92900000Y97390000D01*
X93022387Y97403790D01*
X93138636Y97444467D01*
X93242919Y97509993D01*
X93330007Y97597081D01*
X93395533Y97701364D01*
X93436210Y97817613D01*
X93450000Y97940000D01*
G37*
G36*
X114690000Y105620000D02*
X114676210Y105742387D01*
X114635533Y105858636D01*
X114570007Y105962919D01*
X114482919Y106050007D01*
X114378636Y106115533D01*
X114262387Y106156210D01*
X114140000Y106170000D01*
X114017613Y106156210D01*
X113901364Y106115533D01*
X113797081Y106050007D01*
X113709993Y105962919D01*
X113644467Y105858636D01*
X113603790Y105742387D01*
X113590000Y105620000D01*
X113603790Y105497613D01*
X113644467Y105381364D01*
X113709993Y105277081D01*
X113797081Y105189993D01*
X113901364Y105124467D01*
X114017613Y105083790D01*
X114140000Y105070000D01*
X114262387Y105083790D01*
X114378636Y105124467D01*
X114482919Y105189993D01*
X114570007Y105277081D01*
X114635533Y105381364D01*
X114676210Y105497613D01*
X114690000Y105620000D01*
G37*
G36*
X119850000Y102740000D02*
X119836210Y102862387D01*
X119795533Y102978636D01*
X119730007Y103082919D01*
X119642919Y103170007D01*
X119538636Y103235533D01*
X119422387Y103276210D01*
X119300000Y103290000D01*
X119177613Y103276210D01*
X119061364Y103235533D01*
X118957081Y103170007D01*
X118869993Y103082919D01*
X118804467Y102978636D01*
X118763790Y102862387D01*
X118750000Y102740000D01*
X118763790Y102617613D01*
X118804467Y102501364D01*
X118869993Y102397081D01*
X118957081Y102309993D01*
X119061364Y102244467D01*
X119177613Y102203790D01*
X119300000Y102190000D01*
X119422387Y102203790D01*
X119538636Y102244467D01*
X119642919Y102309993D01*
X119730007Y102397081D01*
X119795533Y102501364D01*
X119836210Y102617613D01*
X119850000Y102740000D01*
G37*
G36*
X119850000Y105140000D02*
X119836210Y105262387D01*
X119795533Y105378636D01*
X119730007Y105482919D01*
X119642919Y105570007D01*
X119538636Y105635533D01*
X119422387Y105676210D01*
X119300000Y105690000D01*
X119177613Y105676210D01*
X119061364Y105635533D01*
X118957081Y105570007D01*
X118869993Y105482919D01*
X118804467Y105378636D01*
X118763790Y105262387D01*
X118750000Y105140000D01*
X118763790Y105017613D01*
X118804467Y104901364D01*
X118869993Y104797081D01*
X118957081Y104709993D01*
X119061364Y104644467D01*
X119177613Y104603790D01*
X119300000Y104590000D01*
X119422387Y104603790D01*
X119538636Y104644467D01*
X119642919Y104709993D01*
X119730007Y104797081D01*
X119795533Y104901364D01*
X119836210Y105017613D01*
X119850000Y105140000D01*
G37*
G36*
X121890000Y115340000D02*
X121876210Y115462387D01*
X121835533Y115578636D01*
X121770007Y115682919D01*
X121682919Y115770007D01*
X121578636Y115835533D01*
X121462387Y115876210D01*
X121340000Y115890000D01*
X121217613Y115876210D01*
X121101364Y115835533D01*
X120997081Y115770007D01*
X120909993Y115682919D01*
X120844467Y115578636D01*
X120803790Y115462387D01*
X120790000Y115340000D01*
X120803790Y115217613D01*
X120844467Y115101364D01*
X120909993Y114997081D01*
X120997081Y114909993D01*
X121101364Y114844467D01*
X121217613Y114803790D01*
X121340000Y114790000D01*
X121462387Y114803790D01*
X121578636Y114844467D01*
X121682919Y114909993D01*
X121770007Y114997081D01*
X121835533Y115101364D01*
X121876210Y115217613D01*
X121890000Y115340000D01*
G37*
G36*
X108570000Y119300000D02*
X108556210Y119422387D01*
X108515533Y119538636D01*
X108450007Y119642919D01*
X108362919Y119730007D01*
X108258636Y119795533D01*
X108142387Y119836210D01*
X108020000Y119850000D01*
X107897613Y119836210D01*
X107781364Y119795533D01*
X107677081Y119730007D01*
X107589993Y119642919D01*
X107524467Y119538636D01*
X107483790Y119422387D01*
X107470000Y119300000D01*
X107483790Y119177613D01*
X107524467Y119061364D01*
X107589993Y118957081D01*
X107677081Y118869993D01*
X107781364Y118804467D01*
X107897613Y118763790D01*
X108020000Y118750000D01*
X108142387Y118763790D01*
X108258636Y118804467D01*
X108362919Y118869993D01*
X108450007Y118957081D01*
X108515533Y119061364D01*
X108556210Y119177613D01*
X108570000Y119300000D01*
G37*
%LPD*%
G36*
X117753000Y98116000D02*
X118753000Y98116000D01*
X118753000Y98336000D01*
X117753000Y98336000D01*
X117753000Y98116000D01*
G37*
G36*
X117753000Y98516000D02*
X118753000Y98516000D01*
X118753000Y98736000D01*
X117753000Y98736000D01*
X117753000Y98516000D01*
G37*
G36*
X117753000Y98916000D02*
X118753000Y98916000D01*
X118753000Y99136000D01*
X117753000Y99136000D01*
X117753000Y98916000D01*
G37*
G36*
X117753000Y99316000D02*
X118753000Y99316000D01*
X118753000Y99536000D01*
X117753000Y99536000D01*
X117753000Y99316000D01*
G37*
G36*
X117753000Y99716000D02*
X118753000Y99716000D01*
X118753000Y99936000D01*
X117753000Y99936000D01*
X117753000Y99716000D01*
G37*
G36*
X117753000Y100116000D02*
X118753000Y100116000D01*
X118753000Y100336000D01*
X117753000Y100336000D01*
X117753000Y100116000D01*
G37*
G36*
X117753000Y100516000D02*
X118753000Y100516000D01*
X118753000Y100736000D01*
X117753000Y100736000D01*
X117753000Y100516000D01*
G37*
G36*
X117753000Y100916000D02*
X118753000Y100916000D01*
X118753000Y101136000D01*
X117753000Y101136000D01*
X117753000Y100916000D01*
G37*
G36*
X117753000Y101316000D02*
X118753000Y101316000D01*
X118753000Y101536000D01*
X117753000Y101536000D01*
X117753000Y101316000D01*
G37*
G36*
X117753000Y101716000D02*
X118753000Y101716000D01*
X118753000Y101936000D01*
X117753000Y101936000D01*
X117753000Y101716000D01*
G37*
G36*
X117753000Y102116000D02*
X118753000Y102116000D01*
X118753000Y102336000D01*
X117753000Y102336000D01*
X117753000Y102116000D01*
G37*
G36*
X117753000Y102516000D02*
X118753000Y102516000D01*
X118753000Y102736000D01*
X117753000Y102736000D01*
X117753000Y102516000D01*
G37*
G36*
X117753000Y102916000D02*
X118753000Y102916000D01*
X118753000Y103136000D01*
X117753000Y103136000D01*
X117753000Y102916000D01*
G37*
G36*
X117753000Y103316000D02*
X118753000Y103316000D01*
X118753000Y103536000D01*
X117753000Y103536000D01*
X117753000Y103316000D01*
G37*
G36*
X117093000Y103976000D02*
X117313000Y103976000D01*
X117313000Y104976000D01*
X117093000Y104976000D01*
X117093000Y103976000D01*
G37*
G36*
X116693000Y103976000D02*
X116913000Y103976000D01*
X116913000Y104976000D01*
X116693000Y104976000D01*
X116693000Y103976000D01*
G37*
G36*
X116293000Y103976000D02*
X116513000Y103976000D01*
X116513000Y104976000D01*
X116293000Y104976000D01*
X116293000Y103976000D01*
G37*
G36*
X115893000Y103976000D02*
X116113000Y103976000D01*
X116113000Y104976000D01*
X115893000Y104976000D01*
X115893000Y103976000D01*
G37*
G36*
X115493000Y103976000D02*
X115713000Y103976000D01*
X115713000Y104976000D01*
X115493000Y104976000D01*
X115493000Y103976000D01*
G37*
G36*
X115093000Y103976000D02*
X115313000Y103976000D01*
X115313000Y104976000D01*
X115093000Y104976000D01*
X115093000Y103976000D01*
G37*
G36*
X114693000Y103976000D02*
X114913000Y103976000D01*
X114913000Y104976000D01*
X114693000Y104976000D01*
X114693000Y103976000D01*
G37*
G36*
X114293000Y103976000D02*
X114513000Y103976000D01*
X114513000Y104976000D01*
X114293000Y104976000D01*
X114293000Y103976000D01*
G37*
G36*
X113893000Y103976000D02*
X114113000Y103976000D01*
X114113000Y104976000D01*
X113893000Y104976000D01*
X113893000Y103976000D01*
G37*
G36*
X113493000Y103976000D02*
X113713000Y103976000D01*
X113713000Y104976000D01*
X113493000Y104976000D01*
X113493000Y103976000D01*
G37*
G36*
X113093000Y103976000D02*
X113313000Y103976000D01*
X113313000Y104976000D01*
X113093000Y104976000D01*
X113093000Y103976000D01*
G37*
G36*
X112693000Y103976000D02*
X112913000Y103976000D01*
X112913000Y104976000D01*
X112693000Y104976000D01*
X112693000Y103976000D01*
G37*
G36*
X112293000Y103976000D02*
X112513000Y103976000D01*
X112513000Y104976000D01*
X112293000Y104976000D01*
X112293000Y103976000D01*
G37*
G36*
X111893000Y103976000D02*
X112113000Y103976000D01*
X112113000Y104976000D01*
X111893000Y104976000D01*
X111893000Y103976000D01*
G37*
G36*
X110453000Y103316000D02*
X111453000Y103316000D01*
X111453000Y103536000D01*
X110453000Y103536000D01*
X110453000Y103316000D01*
G37*
G36*
X110453000Y102916000D02*
X111453000Y102916000D01*
X111453000Y103136000D01*
X110453000Y103136000D01*
X110453000Y102916000D01*
G37*
G36*
X110453000Y102516000D02*
X111453000Y102516000D01*
X111453000Y102736000D01*
X110453000Y102736000D01*
X110453000Y102516000D01*
G37*
G36*
X110453000Y102116000D02*
X111453000Y102116000D01*
X111453000Y102336000D01*
X110453000Y102336000D01*
X110453000Y102116000D01*
G37*
G36*
X110453000Y101716000D02*
X111453000Y101716000D01*
X111453000Y101936000D01*
X110453000Y101936000D01*
X110453000Y101716000D01*
G37*
G36*
X110453000Y101316000D02*
X111453000Y101316000D01*
X111453000Y101536000D01*
X110453000Y101536000D01*
X110453000Y101316000D01*
G37*
G36*
X110453000Y100916000D02*
X111453000Y100916000D01*
X111453000Y101136000D01*
X110453000Y101136000D01*
X110453000Y100916000D01*
G37*
G36*
X110453000Y100516000D02*
X111453000Y100516000D01*
X111453000Y100736000D01*
X110453000Y100736000D01*
X110453000Y100516000D01*
G37*
G36*
X110453000Y100116000D02*
X111453000Y100116000D01*
X111453000Y100336000D01*
X110453000Y100336000D01*
X110453000Y100116000D01*
G37*
G36*
X110453000Y99716000D02*
X111453000Y99716000D01*
X111453000Y99936000D01*
X110453000Y99936000D01*
X110453000Y99716000D01*
G37*
G36*
X110453000Y99316000D02*
X111453000Y99316000D01*
X111453000Y99536000D01*
X110453000Y99536000D01*
X110453000Y99316000D01*
G37*
G36*
X110453000Y98916000D02*
X111453000Y98916000D01*
X111453000Y99136000D01*
X110453000Y99136000D01*
X110453000Y98916000D01*
G37*
G36*
X110453000Y98516000D02*
X111453000Y98516000D01*
X111453000Y98736000D01*
X110453000Y98736000D01*
X110453000Y98516000D01*
G37*
G36*
X110453000Y98116000D02*
X111453000Y98116000D01*
X111453000Y98336000D01*
X110453000Y98336000D01*
X110453000Y98116000D01*
G37*
G36*
X111893000Y96676000D02*
X112113000Y96676000D01*
X112113000Y97676000D01*
X111893000Y97676000D01*
X111893000Y96676000D01*
G37*
G36*
X112293000Y96676000D02*
X112513000Y96676000D01*
X112513000Y97676000D01*
X112293000Y97676000D01*
X112293000Y96676000D01*
G37*
G36*
X112693000Y96676000D02*
X112913000Y96676000D01*
X112913000Y97676000D01*
X112693000Y97676000D01*
X112693000Y96676000D01*
G37*
G36*
X113093000Y96676000D02*
X113313000Y96676000D01*
X113313000Y97676000D01*
X113093000Y97676000D01*
X113093000Y96676000D01*
G37*
G36*
X113493000Y96676000D02*
X113713000Y96676000D01*
X113713000Y97676000D01*
X113493000Y97676000D01*
X113493000Y96676000D01*
G37*
G36*
X113893000Y96676000D02*
X114113000Y96676000D01*
X114113000Y97676000D01*
X113893000Y97676000D01*
X113893000Y96676000D01*
G37*
G36*
X114293000Y96676000D02*
X114513000Y96676000D01*
X114513000Y97676000D01*
X114293000Y97676000D01*
X114293000Y96676000D01*
G37*
G36*
X114693000Y96676000D02*
X114913000Y96676000D01*
X114913000Y97676000D01*
X114693000Y97676000D01*
X114693000Y96676000D01*
G37*
G36*
X115093000Y96676000D02*
X115313000Y96676000D01*
X115313000Y97676000D01*
X115093000Y97676000D01*
X115093000Y96676000D01*
G37*
G36*
X115493000Y96676000D02*
X115713000Y96676000D01*
X115713000Y97676000D01*
X115493000Y97676000D01*
X115493000Y96676000D01*
G37*
G36*
X115893000Y96676000D02*
X116113000Y96676000D01*
X116113000Y97676000D01*
X115893000Y97676000D01*
X115893000Y96676000D01*
G37*
G36*
X116293000Y96676000D02*
X116513000Y96676000D01*
X116513000Y97676000D01*
X116293000Y97676000D01*
X116293000Y96676000D01*
G37*
G36*
X116693000Y96676000D02*
X116913000Y96676000D01*
X116913000Y97676000D01*
X116693000Y97676000D01*
X116693000Y96676000D01*
G37*
G36*
X117093000Y96676000D02*
X117313000Y96676000D01*
X117313000Y97676000D01*
X117093000Y97676000D01*
X117093000Y96676000D01*
G37*
G36*
X113003000Y99226000D02*
X116203000Y99226000D01*
X116203000Y102426000D01*
X113003000Y102426000D01*
X113003000Y99226000D01*
G37*
G36*
X129244000Y111326000D02*
X130844000Y111326000D01*
X130844000Y111976000D01*
X129244000Y111976000D01*
X129244000Y111326000D01*
G37*
G36*
X129244000Y112596000D02*
X130844000Y112596000D01*
X130844000Y113246000D01*
X129244000Y113246000D01*
X129244000Y112596000D01*
G37*
G36*
X129244000Y113866000D02*
X130844000Y113866000D01*
X130844000Y114516000D01*
X129244000Y114516000D01*
X129244000Y113866000D01*
G37*
G36*
X129244000Y115136000D02*
X130844000Y115136000D01*
X130844000Y115786000D01*
X129244000Y115786000D01*
X129244000Y115136000D01*
G37*
G36*
X123844000Y115136000D02*
X125444000Y115136000D01*
X125444000Y115786000D01*
X123844000Y115786000D01*
X123844000Y115136000D01*
G37*
G36*
X123844000Y113866000D02*
X125444000Y113866000D01*
X125444000Y114516000D01*
X123844000Y114516000D01*
X123844000Y113866000D01*
G37*
G36*
X123844000Y112596000D02*
X125444000Y112596000D01*
X125444000Y113246000D01*
X123844000Y113246000D01*
X123844000Y112596000D01*
G37*
G36*
X123844000Y111326000D02*
X125444000Y111326000D01*
X125444000Y111976000D01*
X123844000Y111976000D01*
X123844000Y111326000D01*
G37*
G36*
X123806000Y120683000D02*
X124406000Y120683000D01*
X124406000Y121083000D01*
X123806000Y121083000D01*
X123806000Y120683000D01*
G37*
G36*
X123806000Y121333000D02*
X124406000Y121333000D01*
X124406000Y121733000D01*
X123806000Y121733000D01*
X123806000Y121333000D01*
G37*
G36*
X123806000Y121983000D02*
X124406000Y121983000D01*
X124406000Y122383000D01*
X123806000Y122383000D01*
X123806000Y121983000D01*
G37*
G36*
X123806000Y122633000D02*
X124406000Y122633000D01*
X124406000Y123033000D01*
X123806000Y123033000D01*
X123806000Y122633000D01*
G37*
G36*
X121806000Y122633000D02*
X122406000Y122633000D01*
X122406000Y123033000D01*
X121806000Y123033000D01*
X121806000Y122633000D01*
G37*
G36*
X121806000Y121983000D02*
X122406000Y121983000D01*
X122406000Y122383000D01*
X121806000Y122383000D01*
X121806000Y121983000D01*
G37*
G36*
X121806000Y121333000D02*
X122406000Y121333000D01*
X122406000Y121733000D01*
X121806000Y121733000D01*
X121806000Y121333000D01*
G37*
G36*
X121806000Y120683000D02*
X122406000Y120683000D01*
X122406000Y121083000D01*
X121806000Y121083000D01*
X121806000Y120683000D01*
G37*
G36*
X120883000Y129393000D02*
X122183000Y129393000D01*
X122183000Y130393000D01*
X120883000Y130393000D01*
X120883000Y129393000D01*
G37*
G36*
X118683000Y129393000D02*
X119983000Y129393000D01*
X119983000Y130393000D01*
X118683000Y130393000D01*
X118683000Y129393000D01*
G37*
G36*
X118683000Y127793000D02*
X119983000Y127793000D01*
X119983000Y128793000D01*
X118683000Y128793000D01*
X118683000Y127793000D01*
G37*
G36*
X120883000Y127793000D02*
X122183000Y127793000D01*
X122183000Y128793000D01*
X120883000Y128793000D01*
X120883000Y127793000D01*
G37*
G36*
X116146000Y122343000D02*
X117021000Y122343000D01*
X117021000Y123293000D01*
X116146000Y123293000D01*
X116146000Y122343000D01*
G37*
G36*
X114571000Y122343000D02*
X115446000Y122343000D01*
X115446000Y123293000D01*
X114571000Y123293000D01*
X114571000Y122343000D01*
G37*
G36*
X123554000Y125036000D02*
X124429000Y125036000D01*
X124429000Y125986000D01*
X123554000Y125986000D01*
X123554000Y125036000D01*
G37*
G36*
X121979000Y125036000D02*
X122854000Y125036000D01*
X122854000Y125986000D01*
X121979000Y125986000D01*
X121979000Y125036000D01*
G37*
G36*
X111790000Y113861000D02*
X112665000Y113861000D01*
X112665000Y114811000D01*
X111790000Y114811000D01*
X111790000Y113861000D01*
G37*
G36*
X110215000Y113861000D02*
X111090000Y113861000D01*
X111090000Y114811000D01*
X110215000Y114811000D01*
X110215000Y113861000D01*
G37*
G36*
X110489000Y111169000D02*
X111364000Y111169000D01*
X111364000Y112119000D01*
X110489000Y112119000D01*
X110489000Y111169000D01*
G37*
G36*
X108914000Y111169000D02*
X109789000Y111169000D01*
X109789000Y112119000D01*
X108914000Y112119000D01*
X108914000Y111169000D01*
G37*
G36*
X129570000Y120398000D02*
X130445000Y120398000D01*
X130445000Y121348000D01*
X129570000Y121348000D01*
X129570000Y120398000D01*
G37*
G36*
X127995000Y120398000D02*
X128870000Y120398000D01*
X128870000Y121348000D01*
X127995000Y121348000D01*
X127995000Y120398000D01*
G37*
G36*
X127857000Y123065000D02*
X128732000Y123065000D01*
X128732000Y124015000D01*
X127857000Y124015000D01*
X127857000Y123065000D01*
G37*
G36*
X126282000Y123065000D02*
X127157000Y123065000D01*
X127157000Y124015000D01*
X126282000Y124015000D01*
X126282000Y123065000D01*
G37*
G36*
X112527000Y108480000D02*
X113402000Y108480000D01*
X113402000Y109430000D01*
X112527000Y109430000D01*
X112527000Y108480000D01*
G37*
G36*
X110952000Y108480000D02*
X111827000Y108480000D01*
X111827000Y109430000D01*
X110952000Y109430000D01*
X110952000Y108480000D01*
G37*
G36*
X117045000Y114307000D02*
X117920000Y114307000D01*
X117920000Y115257000D01*
X117045000Y115257000D01*
X117045000Y114307000D01*
G37*
G36*
X115470000Y114307000D02*
X116345000Y114307000D01*
X116345000Y115257000D01*
X115470000Y115257000D01*
X115470000Y114307000D01*
G37*
G36*
X116700000Y107588000D02*
X117575000Y107588000D01*
X117575000Y108538000D01*
X116700000Y108538000D01*
X116700000Y107588000D01*
G37*
G36*
X115125000Y107588000D02*
X116000000Y107588000D01*
X116000000Y108538000D01*
X115125000Y108538000D01*
X115125000Y107588000D01*
G37*
G36*
X125364000Y117726000D02*
X126239000Y117726000D01*
X126239000Y118676000D01*
X125364000Y118676000D01*
X125364000Y117726000D01*
G37*
G36*
X123789000Y117726000D02*
X124664000Y117726000D01*
X124664000Y118676000D01*
X123789000Y118676000D01*
X123789000Y117726000D01*
G37*
G36*
X127564000Y99019000D02*
X128439000Y99019000D01*
X128439000Y99969000D01*
X127564000Y99969000D01*
X127564000Y99019000D01*
G37*
G36*
X125989000Y99019000D02*
X126864000Y99019000D01*
X126864000Y99969000D01*
X125989000Y99969000D01*
X125989000Y99019000D01*
G37*
G36*
X130350000Y117735000D02*
X131225000Y117735000D01*
X131225000Y118685000D01*
X130350000Y118685000D01*
X130350000Y117735000D01*
G37*
G36*
X128775000Y117735000D02*
X129650000Y117735000D01*
X129650000Y118685000D01*
X128775000Y118685000D01*
X128775000Y117735000D01*
G37*
G36*
X108422000Y116591000D02*
X109297000Y116591000D01*
X109297000Y117541000D01*
X108422000Y117541000D01*
X108422000Y116591000D01*
G37*
G36*
X106847000Y116591000D02*
X107722000Y116591000D01*
X107722000Y117541000D01*
X106847000Y117541000D01*
X106847000Y116591000D01*
G37*
G36*
X103348000Y104791000D02*
X104223000Y104791000D01*
X104223000Y105741000D01*
X103348000Y105741000D01*
X103348000Y104791000D01*
G37*
G36*
X101773000Y104791000D02*
X102648000Y104791000D01*
X102648000Y105741000D01*
X101773000Y105741000D01*
X101773000Y104791000D01*
G37*
G36*
X106992000Y95102000D02*
X108592000Y95102000D01*
X108592000Y95752000D01*
X106992000Y95752000D01*
X106992000Y95102000D01*
G37*
G36*
X106992000Y96372000D02*
X108592000Y96372000D01*
X108592000Y97022000D01*
X106992000Y97022000D01*
X106992000Y96372000D01*
G37*
G36*
X106992000Y97642000D02*
X108592000Y97642000D01*
X108592000Y98292000D01*
X106992000Y98292000D01*
X106992000Y97642000D01*
G37*
G36*
X106992000Y98912000D02*
X108592000Y98912000D01*
X108592000Y99562000D01*
X106992000Y99562000D01*
X106992000Y98912000D01*
G37*
G36*
X101592000Y98912000D02*
X103192000Y98912000D01*
X103192000Y99562000D01*
X101592000Y99562000D01*
X101592000Y98912000D01*
G37*
G36*
X101592000Y97642000D02*
X103192000Y97642000D01*
X103192000Y98292000D01*
X101592000Y98292000D01*
X101592000Y97642000D01*
G37*
G36*
X101592000Y96372000D02*
X103192000Y96372000D01*
X103192000Y97022000D01*
X101592000Y97022000D01*
X101592000Y96372000D01*
G37*
G36*
X101592000Y95102000D02*
X103192000Y95102000D01*
X103192000Y95752000D01*
X101592000Y95752000D01*
X101592000Y95102000D01*
G37*
G36*
X99487000Y107483000D02*
X99887000Y107483000D01*
X99887000Y108583000D01*
X99487000Y108583000D01*
X99487000Y107483000D01*
G37*
G36*
X98837000Y107483000D02*
X99237000Y107483000D01*
X99237000Y108583000D01*
X98837000Y108583000D01*
X98837000Y107483000D01*
G37*
G36*
X98187000Y107483000D02*
X98587000Y107483000D01*
X98587000Y108583000D01*
X98187000Y108583000D01*
X98187000Y107483000D01*
G37*
G36*
X97537000Y107483000D02*
X97937000Y107483000D01*
X97937000Y108583000D01*
X97537000Y108583000D01*
X97537000Y107483000D01*
G37*
G36*
X97537000Y104883000D02*
X97937000Y104883000D01*
X97937000Y105983000D01*
X97537000Y105983000D01*
X97537000Y104883000D01*
G37*
G36*
X98187000Y104883000D02*
X98587000Y104883000D01*
X98587000Y105983000D01*
X98187000Y105983000D01*
X98187000Y104883000D01*
G37*
G36*
X98837000Y104883000D02*
X99237000Y104883000D01*
X99237000Y105983000D01*
X98837000Y105983000D01*
X98837000Y104883000D01*
G37*
G36*
X99487000Y104883000D02*
X99887000Y104883000D01*
X99887000Y105983000D01*
X99487000Y105983000D01*
X99487000Y104883000D01*
G37*
G36*
X86809000Y106750000D02*
X87409000Y106750000D01*
X87409000Y107850000D01*
X86809000Y107850000D01*
X86809000Y106750000D01*
G37*
G36*
X85859000Y106750000D02*
X86459000Y106750000D01*
X86459000Y107850000D01*
X85859000Y107850000D01*
X85859000Y106750000D01*
G37*
G36*
X84909000Y106750000D02*
X85509000Y106750000D01*
X85509000Y107850000D01*
X84909000Y107850000D01*
X84909000Y106750000D01*
G37*
G36*
X84909000Y104150000D02*
X85509000Y104150000D01*
X85509000Y105250000D01*
X84909000Y105250000D01*
X84909000Y104150000D01*
G37*
G36*
X85859000Y104150000D02*
X86459000Y104150000D01*
X86459000Y105250000D01*
X85859000Y105250000D01*
X85859000Y104150000D01*
G37*
G36*
X86809000Y104150000D02*
X87409000Y104150000D01*
X87409000Y105250000D01*
X86809000Y105250000D01*
X86809000Y104150000D01*
G37*
G36*
X107947000Y104504000D02*
X108547000Y104504000D01*
X108547000Y105604000D01*
X107947000Y105604000D01*
X107947000Y104504000D01*
G37*
G36*
X106997000Y104504000D02*
X107597000Y104504000D01*
X107597000Y105604000D01*
X106997000Y105604000D01*
X106997000Y104504000D01*
G37*
G36*
X106047000Y104504000D02*
X106647000Y104504000D01*
X106647000Y105604000D01*
X106047000Y105604000D01*
X106047000Y104504000D01*
G37*
G36*
X106047000Y101904000D02*
X106647000Y101904000D01*
X106647000Y103004000D01*
X106047000Y103004000D01*
X106047000Y101904000D01*
G37*
G36*
X106997000Y101904000D02*
X107597000Y101904000D01*
X107597000Y103004000D01*
X106997000Y103004000D01*
X106997000Y101904000D01*
G37*
G36*
X107947000Y101904000D02*
X108547000Y101904000D01*
X108547000Y103004000D01*
X107947000Y103004000D01*
X107947000Y101904000D01*
G37*
G36*
X99363000Y115510000D02*
X100963000Y115510000D01*
X100963000Y119110000D01*
X99363000Y119110000D01*
X99363000Y115510000D01*
G37*
G36*
X93563000Y115510000D02*
X95163000Y115510000D01*
X95163000Y119110000D01*
X93563000Y119110000D01*
X93563000Y115510000D01*
G37*
G36*
X91885000Y82949000D02*
X93585000Y82949000D01*
X93585000Y84649000D01*
X91885000Y84649000D01*
X91885000Y82949000D01*
G37*
G36*
X96125000Y83799000D02*
X96103689Y83988143D01*
X96040824Y84167801D01*
X95939557Y84328966D01*
X95804966Y84463557D01*
X95643801Y84564824D01*
X95464143Y84627689D01*
X95275000Y84649000D01*
X95085857Y84627689D01*
X94906199Y84564824D01*
X94745034Y84463557D01*
X94610443Y84328966D01*
X94509176Y84167801D01*
X94446311Y83988143D01*
X94425000Y83799000D01*
X94446311Y83609857D01*
X94509176Y83430199D01*
X94610443Y83269034D01*
X94745034Y83134443D01*
X94906199Y83033176D01*
X95085857Y82970311D01*
X95275000Y82949000D01*
X95464143Y82970311D01*
X95643801Y83033176D01*
X95804966Y83134443D01*
X95939557Y83269034D01*
X96040824Y83430199D01*
X96103689Y83609857D01*
X96125000Y83799000D01*
G37*
G36*
X98665000Y83799000D02*
X98643689Y83988143D01*
X98580824Y84167801D01*
X98479557Y84328966D01*
X98344966Y84463557D01*
X98183801Y84564824D01*
X98004143Y84627689D01*
X97815000Y84649000D01*
X97625857Y84627689D01*
X97446199Y84564824D01*
X97285034Y84463557D01*
X97150443Y84328966D01*
X97049176Y84167801D01*
X96986311Y83988143D01*
X96965000Y83799000D01*
X96986311Y83609857D01*
X97049176Y83430199D01*
X97150443Y83269034D01*
X97285034Y83134443D01*
X97446199Y83033176D01*
X97625857Y82970311D01*
X97815000Y82949000D01*
X98004143Y82970311D01*
X98183801Y83033176D01*
X98344966Y83134443D01*
X98479557Y83269034D01*
X98580824Y83430199D01*
X98643689Y83609857D01*
X98665000Y83799000D01*
G37*
G36*
X101205000Y83799000D02*
X101183689Y83988143D01*
X101120824Y84167801D01*
X101019557Y84328966D01*
X100884966Y84463557D01*
X100723801Y84564824D01*
X100544143Y84627689D01*
X100355000Y84649000D01*
X100165857Y84627689D01*
X99986199Y84564824D01*
X99825034Y84463557D01*
X99690443Y84328966D01*
X99589176Y84167801D01*
X99526311Y83988143D01*
X99505000Y83799000D01*
X99526311Y83609857D01*
X99589176Y83430199D01*
X99690443Y83269034D01*
X99825034Y83134443D01*
X99986199Y83033176D01*
X100165857Y82970311D01*
X100355000Y82949000D01*
X100544143Y82970311D01*
X100723801Y83033176D01*
X100884966Y83134443D01*
X101019557Y83269034D01*
X101120824Y83430199D01*
X101183689Y83609857D01*
X101205000Y83799000D01*
G37*
G36*
X103745000Y83799000D02*
X103723689Y83988143D01*
X103660824Y84167801D01*
X103559557Y84328966D01*
X103424966Y84463557D01*
X103263801Y84564824D01*
X103084143Y84627689D01*
X102895000Y84649000D01*
X102705857Y84627689D01*
X102526199Y84564824D01*
X102365034Y84463557D01*
X102230443Y84328966D01*
X102129176Y84167801D01*
X102066311Y83988143D01*
X102045000Y83799000D01*
X102066311Y83609857D01*
X102129176Y83430199D01*
X102230443Y83269034D01*
X102365034Y83134443D01*
X102526199Y83033176D01*
X102705857Y82970311D01*
X102895000Y82949000D01*
X103084143Y82970311D01*
X103263801Y83033176D01*
X103424966Y83134443D01*
X103559557Y83269034D01*
X103660824Y83430199D01*
X103723689Y83609857D01*
X103745000Y83799000D01*
G37*
G36*
X97136000Y124500000D02*
X100136000Y124500000D01*
X100136000Y127500000D01*
X97136000Y127500000D01*
X97136000Y124500000D01*
G37*
G36*
X105136000Y126000000D02*
X105098392Y126333781D01*
X104987453Y126650826D01*
X104808747Y126935235D01*
X104571235Y127172747D01*
X104286826Y127351453D01*
X103969781Y127462392D01*
X103636000Y127500000D01*
X103302219Y127462392D01*
X102985174Y127351453D01*
X102700765Y127172747D01*
X102463253Y126935235D01*
X102284547Y126650826D01*
X102173608Y126333781D01*
X102136000Y126000000D01*
X102173608Y125666219D01*
X102284547Y125349174D01*
X102463253Y125064765D01*
X102700765Y124827253D01*
X102985174Y124648547D01*
X103302219Y124537608D01*
X103636000Y124500000D01*
X103969781Y124537608D01*
X104286826Y124648547D01*
X104571235Y124827253D01*
X104808747Y125064765D01*
X104987453Y125349174D01*
X105098392Y125666219D01*
X105136000Y126000000D01*
G37*
G36*
X72359108Y120891587D02*
X73384413Y121916892D01*
X71899489Y123401816D01*
X70874184Y122376511D01*
X72359108Y120891587D01*
G37*
G36*
X78468511Y114782184D02*
X79493816Y115807489D01*
X78008892Y117292413D01*
X76983587Y116267108D01*
X78468511Y114782184D01*
G37*
G36*
X73773322Y122305800D02*
X74798627Y123331105D01*
X73313703Y124816029D01*
X72288398Y123790725D01*
X73773322Y122305800D01*
G37*
G36*
X79882725Y116196398D02*
X80908029Y117221703D01*
X79423105Y118706627D01*
X78397800Y117681322D01*
X79882725Y116196398D01*
G37*
G36*
X74900000Y107037000D02*
X74900000Y108637000D01*
X73100000Y108637000D01*
X73100000Y107037000D01*
X74900000Y107037000D01*
G37*
G36*
X74900000Y94637000D02*
X74900000Y96237000D01*
X73100000Y96237000D01*
X73100000Y94637000D01*
X74900000Y94637000D01*
G37*
G36*
X72136949Y82856574D02*
X73975426Y84695051D01*
X72136949Y86533529D01*
X70298471Y84695051D01*
X72136949Y82856574D01*
G37*
G36*
X77029051Y81102949D02*
X76996458Y81392226D01*
X76900311Y81666998D01*
X76745432Y81913486D01*
X76539588Y82119330D01*
X76293100Y82274208D01*
X76018328Y82370355D01*
X75729051Y82402949D01*
X75439774Y82370355D01*
X75165002Y82274208D01*
X74918514Y82119330D01*
X74712670Y81913486D01*
X74557792Y81666998D01*
X74461645Y81392226D01*
X74429051Y81102949D01*
X74461645Y80813672D01*
X74557792Y80538900D01*
X74712670Y80292412D01*
X74918514Y80086568D01*
X75165002Y79931689D01*
X75439774Y79835542D01*
X75729051Y79802949D01*
X76018328Y79835542D01*
X76293100Y79931689D01*
X76539588Y80086568D01*
X76745432Y80292412D01*
X76900311Y80538900D01*
X76996458Y80813672D01*
X77029051Y81102949D01*
G37*
G36*
X107129000Y74861000D02*
X108829000Y74861000D01*
X108829000Y76561000D01*
X107129000Y76561000D01*
X107129000Y74861000D01*
G37*
G36*
X111369000Y75711000D02*
X111347689Y75900143D01*
X111284824Y76079801D01*
X111183557Y76240966D01*
X111048966Y76375557D01*
X110887801Y76476824D01*
X110708143Y76539689D01*
X110519000Y76561000D01*
X110329857Y76539689D01*
X110150199Y76476824D01*
X109989034Y76375557D01*
X109854443Y76240966D01*
X109753176Y76079801D01*
X109690311Y75900143D01*
X109669000Y75711000D01*
X109690311Y75521857D01*
X109753176Y75342199D01*
X109854443Y75181034D01*
X109989034Y75046443D01*
X110150199Y74945176D01*
X110329857Y74882311D01*
X110519000Y74861000D01*
X110708143Y74882311D01*
X110887801Y74945176D01*
X111048966Y75046443D01*
X111183557Y75181034D01*
X111284824Y75342199D01*
X111347689Y75521857D01*
X111369000Y75711000D01*
G37*
G36*
X113909000Y75711000D02*
X113887689Y75900143D01*
X113824824Y76079801D01*
X113723557Y76240966D01*
X113588966Y76375557D01*
X113427801Y76476824D01*
X113248143Y76539689D01*
X113059000Y76561000D01*
X112869857Y76539689D01*
X112690199Y76476824D01*
X112529034Y76375557D01*
X112394443Y76240966D01*
X112293176Y76079801D01*
X112230311Y75900143D01*
X112209000Y75711000D01*
X112230311Y75521857D01*
X112293176Y75342199D01*
X112394443Y75181034D01*
X112529034Y75046443D01*
X112690199Y74945176D01*
X112869857Y74882311D01*
X113059000Y74861000D01*
X113248143Y74882311D01*
X113427801Y74945176D01*
X113588966Y75046443D01*
X113723557Y75181034D01*
X113824824Y75342199D01*
X113887689Y75521857D01*
X113909000Y75711000D01*
G37*
G36*
X116449000Y75711000D02*
X116427689Y75900143D01*
X116364824Y76079801D01*
X116263557Y76240966D01*
X116128966Y76375557D01*
X115967801Y76476824D01*
X115788143Y76539689D01*
X115599000Y76561000D01*
X115409857Y76539689D01*
X115230199Y76476824D01*
X115069034Y76375557D01*
X114934443Y76240966D01*
X114833176Y76079801D01*
X114770311Y75900143D01*
X114749000Y75711000D01*
X114770311Y75521857D01*
X114833176Y75342199D01*
X114934443Y75181034D01*
X115069034Y75046443D01*
X115230199Y74945176D01*
X115409857Y74882311D01*
X115599000Y74861000D01*
X115788143Y74882311D01*
X115967801Y74945176D01*
X116128966Y75046443D01*
X116263557Y75181034D01*
X116364824Y75342199D01*
X116427689Y75521857D01*
X116449000Y75711000D01*
G37*
G36*
X118989000Y75711000D02*
X118967689Y75900143D01*
X118904824Y76079801D01*
X118803557Y76240966D01*
X118668966Y76375557D01*
X118507801Y76476824D01*
X118328143Y76539689D01*
X118139000Y76561000D01*
X117949857Y76539689D01*
X117770199Y76476824D01*
X117609034Y76375557D01*
X117474443Y76240966D01*
X117373176Y76079801D01*
X117310311Y75900143D01*
X117289000Y75711000D01*
X117310311Y75521857D01*
X117373176Y75342199D01*
X117474443Y75181034D01*
X117609034Y75046443D01*
X117770199Y74945176D01*
X117949857Y74882311D01*
X118139000Y74861000D01*
X118328143Y74882311D01*
X118507801Y74945176D01*
X118668966Y75046443D01*
X118803557Y75181034D01*
X118904824Y75342199D01*
X118967689Y75521857D01*
X118989000Y75711000D01*
G37*
G36*
X122462000Y75213000D02*
X122462000Y76913000D01*
X120762000Y76913000D01*
X120762000Y75213000D01*
X122462000Y75213000D01*
G37*
G36*
X122462000Y78603000D02*
X122440689Y78792143D01*
X122377824Y78971801D01*
X122276557Y79132966D01*
X122141966Y79267557D01*
X121980801Y79368824D01*
X121801143Y79431689D01*
X121612000Y79453000D01*
X121422857Y79431689D01*
X121243199Y79368824D01*
X121082034Y79267557D01*
X120947443Y79132966D01*
X120846176Y78971801D01*
X120783311Y78792143D01*
X120762000Y78603000D01*
X120783311Y78413857D01*
X120846176Y78234199D01*
X120947443Y78073034D01*
X121082034Y77938443D01*
X121243199Y77837176D01*
X121422857Y77774311D01*
X121612000Y77753000D01*
X121801143Y77774311D01*
X121980801Y77837176D01*
X122141966Y77938443D01*
X122276557Y78073034D01*
X122377824Y78234199D01*
X122440689Y78413857D01*
X122462000Y78603000D01*
G37*
G36*
X122462000Y81143000D02*
X122440689Y81332143D01*
X122377824Y81511801D01*
X122276557Y81672966D01*
X122141966Y81807557D01*
X121980801Y81908824D01*
X121801143Y81971689D01*
X121612000Y81993000D01*
X121422857Y81971689D01*
X121243199Y81908824D01*
X121082034Y81807557D01*
X120947443Y81672966D01*
X120846176Y81511801D01*
X120783311Y81332143D01*
X120762000Y81143000D01*
X120783311Y80953857D01*
X120846176Y80774199D01*
X120947443Y80613034D01*
X121082034Y80478443D01*
X121243199Y80377176D01*
X121422857Y80314311D01*
X121612000Y80293000D01*
X121801143Y80314311D01*
X121980801Y80377176D01*
X122141966Y80478443D01*
X122276557Y80613034D01*
X122377824Y80774199D01*
X122440689Y80953857D01*
X122462000Y81143000D01*
G37*
G36*
X122462000Y83683000D02*
X122440689Y83872143D01*
X122377824Y84051801D01*
X122276557Y84212966D01*
X122141966Y84347557D01*
X121980801Y84448824D01*
X121801143Y84511689D01*
X121612000Y84533000D01*
X121422857Y84511689D01*
X121243199Y84448824D01*
X121082034Y84347557D01*
X120947443Y84212966D01*
X120846176Y84051801D01*
X120783311Y83872143D01*
X120762000Y83683000D01*
X120783311Y83493857D01*
X120846176Y83314199D01*
X120947443Y83153034D01*
X121082034Y83018443D01*
X121243199Y82917176D01*
X121422857Y82854311D01*
X121612000Y82833000D01*
X121801143Y82854311D01*
X121980801Y82917176D01*
X122141966Y83018443D01*
X122276557Y83153034D01*
X122377824Y83314199D01*
X122440689Y83493857D01*
X122462000Y83683000D01*
G37*
G36*
X122462000Y86223000D02*
X122440689Y86412143D01*
X122377824Y86591801D01*
X122276557Y86752966D01*
X122141966Y86887557D01*
X121980801Y86988824D01*
X121801143Y87051689D01*
X121612000Y87073000D01*
X121422857Y87051689D01*
X121243199Y86988824D01*
X121082034Y86887557D01*
X120947443Y86752966D01*
X120846176Y86591801D01*
X120783311Y86412143D01*
X120762000Y86223000D01*
X120783311Y86033857D01*
X120846176Y85854199D01*
X120947443Y85693034D01*
X121082034Y85558443D01*
X121243199Y85457176D01*
X121422857Y85394311D01*
X121612000Y85373000D01*
X121801143Y85394311D01*
X121980801Y85457176D01*
X122141966Y85558443D01*
X122276557Y85693034D01*
X122377824Y85854199D01*
X122440689Y86033857D01*
X122462000Y86223000D01*
G37*
G36*
X122462000Y88763000D02*
X122440689Y88952143D01*
X122377824Y89131801D01*
X122276557Y89292966D01*
X122141966Y89427557D01*
X121980801Y89528824D01*
X121801143Y89591689D01*
X121612000Y89613000D01*
X121422857Y89591689D01*
X121243199Y89528824D01*
X121082034Y89427557D01*
X120947443Y89292966D01*
X120846176Y89131801D01*
X120783311Y88952143D01*
X120762000Y88763000D01*
X120783311Y88573857D01*
X120846176Y88394199D01*
X120947443Y88233034D01*
X121082034Y88098443D01*
X121243199Y87997176D01*
X121422857Y87934311D01*
X121612000Y87913000D01*
X121801143Y87934311D01*
X121980801Y87997176D01*
X122141966Y88098443D01*
X122276557Y88233034D01*
X122377824Y88394199D01*
X122440689Y88573857D01*
X122462000Y88763000D01*
G37*
G36*
X122462000Y91303000D02*
X122440689Y91492143D01*
X122377824Y91671801D01*
X122276557Y91832966D01*
X122141966Y91967557D01*
X121980801Y92068824D01*
X121801143Y92131689D01*
X121612000Y92153000D01*
X121422857Y92131689D01*
X121243199Y92068824D01*
X121082034Y91967557D01*
X120947443Y91832966D01*
X120846176Y91671801D01*
X120783311Y91492143D01*
X120762000Y91303000D01*
X120783311Y91113857D01*
X120846176Y90934199D01*
X120947443Y90773034D01*
X121082034Y90638443D01*
X121243199Y90537176D01*
X121422857Y90474311D01*
X121612000Y90453000D01*
X121801143Y90474311D01*
X121980801Y90537176D01*
X122141966Y90638443D01*
X122276557Y90773034D01*
X122377824Y90934199D01*
X122440689Y91113857D01*
X122462000Y91303000D01*
G37*
G36*
X122462000Y93843000D02*
X122440689Y94032143D01*
X122377824Y94211801D01*
X122276557Y94372966D01*
X122141966Y94507557D01*
X121980801Y94608824D01*
X121801143Y94671689D01*
X121612000Y94693000D01*
X121422857Y94671689D01*
X121243199Y94608824D01*
X121082034Y94507557D01*
X120947443Y94372966D01*
X120846176Y94211801D01*
X120783311Y94032143D01*
X120762000Y93843000D01*
X120783311Y93653857D01*
X120846176Y93474199D01*
X120947443Y93313034D01*
X121082034Y93178443D01*
X121243199Y93077176D01*
X121422857Y93014311D01*
X121612000Y92993000D01*
X121801143Y93014311D01*
X121980801Y93077176D01*
X122141966Y93178443D01*
X122276557Y93313034D01*
X122377824Y93474199D01*
X122440689Y93653857D01*
X122462000Y93843000D01*
G37*
G36*
X122462000Y96383000D02*
X122440689Y96572143D01*
X122377824Y96751801D01*
X122276557Y96912966D01*
X122141966Y97047557D01*
X121980801Y97148824D01*
X121801143Y97211689D01*
X121612000Y97233000D01*
X121422857Y97211689D01*
X121243199Y97148824D01*
X121082034Y97047557D01*
X120947443Y96912966D01*
X120846176Y96751801D01*
X120783311Y96572143D01*
X120762000Y96383000D01*
X120783311Y96193857D01*
X120846176Y96014199D01*
X120947443Y95853034D01*
X121082034Y95718443D01*
X121243199Y95617176D01*
X121422857Y95554311D01*
X121612000Y95533000D01*
X121801143Y95554311D01*
X121980801Y95617176D01*
X122141966Y95718443D01*
X122276557Y95853034D01*
X122377824Y96014199D01*
X122440689Y96193857D01*
X122462000Y96383000D01*
G37*
G36*
X122462000Y98923000D02*
X122440689Y99112143D01*
X122377824Y99291801D01*
X122276557Y99452966D01*
X122141966Y99587557D01*
X121980801Y99688824D01*
X121801143Y99751689D01*
X121612000Y99773000D01*
X121422857Y99751689D01*
X121243199Y99688824D01*
X121082034Y99587557D01*
X120947443Y99452966D01*
X120846176Y99291801D01*
X120783311Y99112143D01*
X120762000Y98923000D01*
X120783311Y98733857D01*
X120846176Y98554199D01*
X120947443Y98393034D01*
X121082034Y98258443D01*
X121243199Y98157176D01*
X121422857Y98094311D01*
X121612000Y98073000D01*
X121801143Y98094311D01*
X121980801Y98157176D01*
X122141966Y98258443D01*
X122276557Y98393034D01*
X122377824Y98554199D01*
X122440689Y98733857D01*
X122462000Y98923000D01*
G37*
G36*
X114317000Y126045000D02*
X114317000Y128645000D01*
X111717000Y128645000D01*
X111717000Y126045000D01*
X114317000Y126045000D01*
G37*
G36*
X114317000Y132425000D02*
X114284406Y132714277D01*
X114188260Y132989049D01*
X114033381Y133235537D01*
X113827537Y133441381D01*
X113581049Y133596260D01*
X113306277Y133692406D01*
X113017000Y133725000D01*
X112727723Y133692406D01*
X112452951Y133596260D01*
X112206463Y133441381D01*
X112000619Y133235537D01*
X111845740Y132989049D01*
X111749594Y132714277D01*
X111717000Y132425000D01*
X111749594Y132135723D01*
X111845740Y131860951D01*
X112000619Y131614463D01*
X112206463Y131408619D01*
X112452951Y131253740D01*
X112727723Y131157594D01*
X113017000Y131125000D01*
X113306277Y131157594D01*
X113581049Y131253740D01*
X113827537Y131408619D01*
X114033381Y131614463D01*
X114188260Y131860951D01*
X114284406Y132135723D01*
X114317000Y132425000D01*
G37*
G36*
X113042000Y118658000D02*
X113642000Y118658000D01*
X113642000Y119708000D01*
X113042000Y119708000D01*
X113042000Y118658000D01*
G37*
G36*
X111142000Y118658000D02*
X111742000Y118658000D01*
X111742000Y119708000D01*
X111142000Y119708000D01*
X111142000Y118658000D01*
G37*
G36*
X112092000Y116458000D02*
X112692000Y116458000D01*
X112692000Y117508000D01*
X112092000Y117508000D01*
X112092000Y116458000D01*
G37*
G36*
X129829000Y104250000D02*
X132429000Y104250000D01*
X132429000Y106850000D01*
X129829000Y106850000D01*
X129829000Y104250000D01*
G37*
G36*
X127349000Y105550000D02*
X127316406Y105839277D01*
X127220260Y106114049D01*
X127065381Y106360537D01*
X126859537Y106566381D01*
X126613049Y106721260D01*
X126338277Y106817406D01*
X126049000Y106850000D01*
X125759723Y106817406D01*
X125484951Y106721260D01*
X125238463Y106566381D01*
X125032619Y106360537D01*
X124877740Y106114049D01*
X124781594Y105839277D01*
X124749000Y105550000D01*
X124781594Y105260723D01*
X124877740Y104985951D01*
X125032619Y104739463D01*
X125238463Y104533619D01*
X125484951Y104378740D01*
X125759723Y104282594D01*
X126049000Y104250000D01*
X126338277Y104282594D01*
X126613049Y104378740D01*
X126859537Y104533619D01*
X127065381Y104739463D01*
X127220260Y104985951D01*
X127316406Y105260723D01*
X127349000Y105550000D01*
G37*
G36*
X121323000Y108910000D02*
X121923000Y108910000D01*
X121923000Y109960000D01*
X121323000Y109960000D01*
X121323000Y108910000D01*
G37*
G36*
X119423000Y108910000D02*
X120023000Y108910000D01*
X120023000Y109960000D01*
X119423000Y109960000D01*
X119423000Y108910000D01*
G37*
G36*
X120373000Y106710000D02*
X120973000Y106710000D01*
X120973000Y107760000D01*
X120373000Y107760000D01*
X120373000Y106710000D01*
G37*
G36*
X92580046Y130987705D02*
X90136845Y131876958D01*
X89247593Y129433757D01*
X91690793Y128544505D01*
X92580046Y130987705D01*
G37*
G36*
X87440181Y128473269D02*
X87407587Y128762546D01*
X87311440Y129037318D01*
X87156562Y129283806D01*
X86950717Y129489650D01*
X86704230Y129644528D01*
X86429458Y129740675D01*
X86140181Y129773269D01*
X85850904Y129740675D01*
X85576132Y129644528D01*
X85329644Y129489650D01*
X85123800Y129283806D01*
X84968921Y129037318D01*
X84872774Y128762546D01*
X84840181Y128473269D01*
X84872774Y128183992D01*
X84968921Y127909220D01*
X85123800Y127662732D01*
X85329644Y127456888D01*
X85576132Y127302009D01*
X85850904Y127205863D01*
X86140181Y127173269D01*
X86429458Y127205863D01*
X86704230Y127302009D01*
X86950717Y127456888D01*
X87156562Y127662732D01*
X87311440Y127909220D01*
X87407587Y128183992D01*
X87440181Y128473269D01*
G37*
G36*
X88205055Y123475880D02*
X86513609Y124091517D01*
X85932174Y122494039D01*
X87623621Y121878403D01*
X88205055Y123475880D01*
G37*
G36*
X91963826Y124843961D02*
X90272379Y125459597D01*
X89690945Y123862120D01*
X91382391Y123246483D01*
X91963826Y124843961D01*
G37*
G36*
X90967000Y118633000D02*
X91842000Y118633000D01*
X91842000Y119583000D01*
X90967000Y119583000D01*
X90967000Y118633000D01*
G37*
G36*
X89392000Y118633000D02*
X90267000Y118633000D01*
X90267000Y119583000D01*
X89392000Y119583000D01*
X89392000Y118633000D01*
G37*
G36*
X95540000Y123484000D02*
X96415000Y123484000D01*
X96415000Y124434000D01*
X95540000Y124434000D01*
X95540000Y123484000D01*
G37*
G36*
X93965000Y123484000D02*
X94840000Y123484000D01*
X94840000Y124434000D01*
X93965000Y124434000D01*
X93965000Y123484000D01*
G37*
G36*
X93140000Y112877000D02*
X94015000Y112877000D01*
X94015000Y113827000D01*
X93140000Y113827000D01*
X93140000Y112877000D01*
G37*
G36*
X91565000Y112877000D02*
X92440000Y112877000D01*
X92440000Y113827000D01*
X91565000Y113827000D01*
X91565000Y112877000D01*
G37*
G36*
X97324000Y112882000D02*
X98199000Y112882000D01*
X98199000Y113832000D01*
X97324000Y113832000D01*
X97324000Y112882000D01*
G37*
G36*
X95749000Y112882000D02*
X96624000Y112882000D01*
X96624000Y113832000D01*
X95749000Y113832000D01*
X95749000Y112882000D01*
G37*
G36*
X86078013Y70971199D02*
X88069729Y72642447D01*
X86398481Y74634162D01*
X84406765Y72962914D01*
X86078013Y70971199D01*
G37*
G36*
X91429753Y69537319D02*
X91397159Y69826597D01*
X91301012Y70101368D01*
X91146134Y70347856D01*
X90940290Y70553700D01*
X90693802Y70708579D01*
X90419030Y70804726D01*
X90129753Y70837319D01*
X89840476Y70804726D01*
X89565704Y70708579D01*
X89319216Y70553700D01*
X89113372Y70347856D01*
X88958493Y70101368D01*
X88862347Y69826597D01*
X88829753Y69537319D01*
X88862347Y69248042D01*
X88958493Y68973271D01*
X89113372Y68726783D01*
X89319216Y68520939D01*
X89565704Y68366060D01*
X89840476Y68269913D01*
X90129753Y68237319D01*
X90419030Y68269913D01*
X90693802Y68366060D01*
X90940290Y68520939D01*
X91146134Y68726783D01*
X91301012Y68973271D01*
X91397159Y69248042D01*
X91429753Y69537319D01*
G37*
G36*
X86694018Y75220778D02*
X88072898Y76377796D01*
X86980159Y77680071D01*
X85601279Y76523054D01*
X86694018Y75220778D01*
G37*
G36*
X83629841Y77791929D02*
X85008721Y78948946D01*
X83915982Y80251222D01*
X82537102Y79094204D01*
X83629841Y77791929D01*
G37*
G36*
X88367000Y82511000D02*
X89242000Y82511000D01*
X89242000Y83461000D01*
X88367000Y83461000D01*
X88367000Y82511000D01*
G37*
G36*
X86792000Y82511000D02*
X87667000Y82511000D01*
X87667000Y83461000D01*
X86792000Y83461000D01*
X86792000Y82511000D01*
G37*
G36*
X84158000Y83969000D02*
X85033000Y83969000D01*
X85033000Y84919000D01*
X84158000Y84919000D01*
X84158000Y83969000D01*
G37*
G36*
X82583000Y83969000D02*
X83458000Y83969000D01*
X83458000Y84919000D01*
X82583000Y84919000D01*
X82583000Y83969000D01*
G37*
G36*
X91533000Y87895000D02*
X92408000Y87895000D01*
X92408000Y88845000D01*
X91533000Y88845000D01*
X91533000Y87895000D01*
G37*
G36*
X89958000Y87895000D02*
X90833000Y87895000D01*
X90833000Y88845000D01*
X89958000Y88845000D01*
X89958000Y87895000D01*
G37*
G36*
X90733000Y90557000D02*
X91608000Y90557000D01*
X91608000Y91507000D01*
X90733000Y91507000D01*
X90733000Y90557000D01*
G37*
G36*
X89158000Y90557000D02*
X90033000Y90557000D01*
X90033000Y91507000D01*
X89158000Y91507000D01*
X89158000Y90557000D01*
G37*
G36*
X126024941Y92902096D02*
X126476426Y90341596D01*
X129036926Y90793081D01*
X128585441Y93353581D01*
X126024941Y92902096D01*
G37*
G36*
X129713066Y96850412D02*
X129680473Y97139689D01*
X129584326Y97414461D01*
X129429447Y97660948D01*
X129223603Y97866793D01*
X128977115Y98021671D01*
X128702344Y98117818D01*
X128413066Y98150412D01*
X128123789Y98117818D01*
X127849018Y98021671D01*
X127602530Y97866793D01*
X127396685Y97660948D01*
X127241807Y97414461D01*
X127145660Y97139689D01*
X127113066Y96850412D01*
X127145660Y96561134D01*
X127241807Y96286363D01*
X127396685Y96039875D01*
X127602530Y95834031D01*
X127849018Y95679152D01*
X128123789Y95583005D01*
X128413066Y95550412D01*
X128702344Y95583005D01*
X128977115Y95679152D01*
X129223603Y95834031D01*
X129429447Y96039875D01*
X129584326Y96286363D01*
X129680473Y96561134D01*
X129713066Y96850412D01*
G37*
G36*
X129817926Y96792342D02*
X130130493Y95019688D01*
X131804666Y95314889D01*
X131492100Y97087543D01*
X129817926Y96792342D01*
G37*
G36*
X129123334Y92853111D02*
X129435900Y91080457D01*
X131110074Y91375658D01*
X130797507Y93148312D01*
X129123334Y92853111D01*
G37*
G36*
X125988000Y96304000D02*
X126863000Y96304000D01*
X126863000Y97254000D01*
X125988000Y97254000D01*
X125988000Y96304000D01*
G37*
G36*
X124413000Y96304000D02*
X125288000Y96304000D01*
X125288000Y97254000D01*
X124413000Y97254000D01*
X124413000Y96304000D01*
G37*
G36*
X125992000Y93432000D02*
X126867000Y93432000D01*
X126867000Y94382000D01*
X125992000Y94382000D01*
X125992000Y93432000D01*
G37*
G36*
X124417000Y93432000D02*
X125292000Y93432000D01*
X125292000Y94382000D01*
X124417000Y94382000D01*
X124417000Y93432000D01*
G37*
G36*
X115354000Y93894000D02*
X116229000Y93894000D01*
X116229000Y94844000D01*
X115354000Y94844000D01*
X115354000Y93894000D01*
G37*
G36*
X113779000Y93894000D02*
X114654000Y93894000D01*
X114654000Y94844000D01*
X113779000Y94844000D01*
X113779000Y93894000D01*
G37*
G36*
X115819000Y91212000D02*
X116694000Y91212000D01*
X116694000Y92162000D01*
X115819000Y92162000D01*
X115819000Y91212000D01*
G37*
G36*
X114244000Y91212000D02*
X115119000Y91212000D01*
X115119000Y92162000D01*
X114244000Y92162000D01*
X114244000Y91212000D01*
G37*
G36*
X104650000Y127365000D02*
X106450000Y127365000D01*
X106450000Y129165000D01*
X104650000Y129165000D01*
X104650000Y127365000D01*
G37*
G36*
X103950000Y128265000D02*
X103927435Y128465269D01*
X103860872Y128655495D01*
X103753648Y128826141D01*
X103611141Y128968648D01*
X103440495Y129075872D01*
X103250269Y129142435D01*
X103050000Y129165000D01*
X102849731Y129142435D01*
X102659505Y129075872D01*
X102488859Y128968648D01*
X102346352Y128826141D01*
X102239128Y128655495D01*
X102172565Y128465269D01*
X102150000Y128265000D01*
X102172565Y128064731D01*
X102239128Y127874505D01*
X102346352Y127703859D01*
X102488859Y127561352D01*
X102659505Y127454128D01*
X102849731Y127387565D01*
X103050000Y127365000D01*
X103250269Y127387565D01*
X103440495Y127454128D01*
X103611141Y127561352D01*
X103753648Y127703859D01*
X103860872Y127874505D01*
X103927435Y128064731D01*
X103950000Y128265000D01*
G37*
G36*
X71791000Y94064000D02*
X73591000Y94064000D01*
X73591000Y95864000D01*
X71791000Y95864000D01*
X71791000Y94064000D01*
G37*
G36*
X71091000Y94964000D02*
X71068435Y95164269D01*
X71001872Y95354495D01*
X70894648Y95525141D01*
X70752141Y95667648D01*
X70581495Y95774872D01*
X70391269Y95841435D01*
X70191000Y95864000D01*
X69990731Y95841435D01*
X69800505Y95774872D01*
X69629859Y95667648D01*
X69487352Y95525141D01*
X69380128Y95354495D01*
X69313565Y95164269D01*
X69291000Y94964000D01*
X69313565Y94763731D01*
X69380128Y94573505D01*
X69487352Y94402859D01*
X69629859Y94260352D01*
X69800505Y94153128D01*
X69990731Y94086565D01*
X70191000Y94064000D01*
X70391269Y94086565D01*
X70581495Y94153128D01*
X70752141Y94260352D01*
X70894648Y94402859D01*
X71001872Y94573505D01*
X71068435Y94763731D01*
X71091000Y94964000D01*
G37*
G36*
X116042000Y76885000D02*
X117842000Y76885000D01*
X117842000Y78685000D01*
X116042000Y78685000D01*
X116042000Y76885000D01*
G37*
G36*
X115342000Y77785000D02*
X115319435Y77985269D01*
X115252872Y78175495D01*
X115145648Y78346141D01*
X115003141Y78488648D01*
X114832495Y78595872D01*
X114642269Y78662435D01*
X114442000Y78685000D01*
X114241731Y78662435D01*
X114051505Y78595872D01*
X113880859Y78488648D01*
X113738352Y78346141D01*
X113631128Y78175495D01*
X113564565Y77985269D01*
X113542000Y77785000D01*
X113564565Y77584731D01*
X113631128Y77394505D01*
X113738352Y77223859D01*
X113880859Y77081352D01*
X114051505Y76974128D01*
X114241731Y76907565D01*
X114442000Y76885000D01*
X114642269Y76907565D01*
X114832495Y76974128D01*
X115003141Y77081352D01*
X115145648Y77223859D01*
X115252872Y77394505D01*
X115319435Y77584731D01*
X115342000Y77785000D01*
G37*
G36*
X98923000Y94525000D02*
X99798000Y94525000D01*
X99798000Y95475000D01*
X98923000Y95475000D01*
X98923000Y94525000D01*
G37*
G36*
X97348000Y94525000D02*
X98223000Y94525000D01*
X98223000Y95475000D01*
X97348000Y95475000D01*
X97348000Y94525000D01*
G37*
G36*
X104412000Y92204000D02*
X105287000Y92204000D01*
X105287000Y93154000D01*
X104412000Y93154000D01*
X104412000Y92204000D01*
G37*
G36*
X102837000Y92204000D02*
X103712000Y92204000D01*
X103712000Y93154000D01*
X102837000Y93154000D01*
X102837000Y92204000D01*
G37*
G36*
X94741000Y94525000D02*
X95616000Y94525000D01*
X95616000Y95475000D01*
X94741000Y95475000D01*
X94741000Y94525000D01*
G37*
G36*
X93166000Y94525000D02*
X94041000Y94525000D01*
X94041000Y95475000D01*
X93166000Y95475000D01*
X93166000Y94525000D01*
G37*
G36*
X94988000Y102287000D02*
X95863000Y102287000D01*
X95863000Y103237000D01*
X94988000Y103237000D01*
X94988000Y102287000D01*
G37*
G36*
X93413000Y102287000D02*
X94288000Y102287000D01*
X94288000Y103237000D01*
X93413000Y103237000D01*
X93413000Y102287000D01*
G37*
G36*
X99167000Y102271000D02*
X100042000Y102271000D01*
X100042000Y103221000D01*
X99167000Y103221000D01*
X99167000Y102271000D01*
G37*
G36*
X97592000Y102271000D02*
X98467000Y102271000D01*
X98467000Y103221000D01*
X97592000Y103221000D01*
X97592000Y102271000D01*
G37*
G36*
X90809000Y102525000D02*
X91684000Y102525000D01*
X91684000Y103475000D01*
X90809000Y103475000D01*
X90809000Y102525000D01*
G37*
G36*
X89234000Y102525000D02*
X90109000Y102525000D01*
X90109000Y103475000D01*
X89234000Y103475000D01*
X89234000Y102525000D01*
G37*
G36*
X103340000Y101527000D02*
X104215000Y101527000D01*
X104215000Y102477000D01*
X103340000Y102477000D01*
X103340000Y101527000D01*
G37*
G36*
X101765000Y101527000D02*
X102640000Y101527000D01*
X102640000Y102477000D01*
X101765000Y102477000D01*
X101765000Y101527000D01*
G37*
G36*
X92350000Y98525000D02*
X93225000Y98525000D01*
X93225000Y99475000D01*
X92350000Y99475000D01*
X92350000Y98525000D01*
G37*
G36*
X90775000Y98525000D02*
X91650000Y98525000D01*
X91650000Y99475000D01*
X90775000Y99475000D01*
X90775000Y98525000D01*
G37*
G36*
X111652000Y91227000D02*
X112527000Y91227000D01*
X112527000Y92177000D01*
X111652000Y92177000D01*
X111652000Y91227000D01*
G37*
G36*
X110077000Y91227000D02*
X110952000Y91227000D01*
X110952000Y92177000D01*
X110077000Y92177000D01*
X110077000Y91227000D01*
G37*
G36*
X88350000Y94525000D02*
X89225000Y94525000D01*
X89225000Y95475000D01*
X88350000Y95475000D01*
X88350000Y94525000D01*
G37*
G36*
X86775000Y94525000D02*
X87650000Y94525000D01*
X87650000Y95475000D01*
X86775000Y95475000D01*
X86775000Y94525000D01*
G37*
G36*
X97915000Y110204000D02*
X98790000Y110204000D01*
X98790000Y111154000D01*
X97915000Y111154000D01*
X97915000Y110204000D01*
G37*
G36*
X96340000Y110204000D02*
X97215000Y110204000D01*
X97215000Y111154000D01*
X96340000Y111154000D01*
X96340000Y110204000D01*
G37*
G36*
X102107000Y110525000D02*
X102982000Y110525000D01*
X102982000Y111475000D01*
X102107000Y111475000D01*
X102107000Y110525000D01*
G37*
G36*
X100532000Y110525000D02*
X101407000Y110525000D01*
X101407000Y111475000D01*
X100532000Y111475000D01*
X100532000Y110525000D01*
G37*
G36*
X106282000Y111187000D02*
X107157000Y111187000D01*
X107157000Y112137000D01*
X106282000Y112137000D01*
X106282000Y111187000D01*
G37*
G36*
X104707000Y111187000D02*
X105582000Y111187000D01*
X105582000Y112137000D01*
X104707000Y112137000D01*
X104707000Y111187000D01*
G37*
G36*
X108311000Y107218000D02*
X109186000Y107218000D01*
X109186000Y108168000D01*
X108311000Y108168000D01*
X108311000Y107218000D01*
G37*
G36*
X106736000Y107218000D02*
X107611000Y107218000D01*
X107611000Y108168000D01*
X106736000Y108168000D01*
X106736000Y107218000D01*
G37*
G36*
X89549000Y109525000D02*
X90424000Y109525000D01*
X90424000Y110475000D01*
X89549000Y110475000D01*
X89549000Y109525000D01*
G37*
G36*
X87974000Y109525000D02*
X88849000Y109525000D01*
X88849000Y110475000D01*
X87974000Y110475000D01*
X87974000Y109525000D01*
G37*
G36*
X93719000Y109525000D02*
X94594000Y109525000D01*
X94594000Y110475000D01*
X93719000Y110475000D01*
X93719000Y109525000D01*
G37*
G36*
X92144000Y109525000D02*
X93019000Y109525000D01*
X93019000Y110475000D01*
X92144000Y110475000D01*
X92144000Y109525000D01*
G37*
G36*
X116706000Y110270000D02*
X117581000Y110270000D01*
X117581000Y111220000D01*
X116706000Y111220000D01*
X116706000Y110270000D01*
G37*
G36*
X115131000Y110270000D02*
X116006000Y110270000D01*
X116006000Y111220000D01*
X115131000Y111220000D01*
X115131000Y110270000D01*
G37*
G36*
X120892000Y111618000D02*
X121767000Y111618000D01*
X121767000Y112568000D01*
X120892000Y112568000D01*
X120892000Y111618000D01*
G37*
G36*
X119317000Y111618000D02*
X120192000Y111618000D01*
X120192000Y112568000D01*
X119317000Y112568000D01*
X119317000Y111618000D01*
G37*
G36*
X104971000Y113874000D02*
X105846000Y113874000D01*
X105846000Y114824000D01*
X104971000Y114824000D01*
X104971000Y113874000D01*
G37*
G36*
X103396000Y113874000D02*
X104271000Y113874000D01*
X104271000Y114824000D01*
X103396000Y114824000D01*
X103396000Y113874000D01*
G37*
G36*
X104230000Y116568000D02*
X105105000Y116568000D01*
X105105000Y117518000D01*
X104230000Y117518000D01*
X104230000Y116568000D01*
G37*
G36*
X102655000Y116568000D02*
X103530000Y116568000D01*
X103530000Y117518000D01*
X102655000Y117518000D01*
X102655000Y116568000D01*
G37*
G36*
X109240000Y88533000D02*
X110115000Y88533000D01*
X110115000Y89483000D01*
X109240000Y89483000D01*
X109240000Y88533000D01*
G37*
G36*
X107665000Y88533000D02*
X108540000Y88533000D01*
X108540000Y89483000D01*
X107665000Y89483000D01*
X107665000Y88533000D01*
G37*
G36*
X113460000Y88509000D02*
X114335000Y88509000D01*
X114335000Y89459000D01*
X113460000Y89459000D01*
X113460000Y88509000D01*
G37*
G36*
X111885000Y88509000D02*
X112760000Y88509000D01*
X112760000Y89459000D01*
X111885000Y89459000D01*
X111885000Y88509000D01*
G37*
G36*
X116350000Y83153000D02*
X117225000Y83153000D01*
X117225000Y84103000D01*
X116350000Y84103000D01*
X116350000Y83153000D01*
G37*
G36*
X114775000Y83153000D02*
X115650000Y83153000D01*
X115650000Y84103000D01*
X114775000Y84103000D01*
X114775000Y83153000D01*
G37*
G36*
X117962000Y85846000D02*
X118837000Y85846000D01*
X118837000Y86796000D01*
X117962000Y86796000D01*
X117962000Y85846000D01*
G37*
G36*
X116387000Y85846000D02*
X117262000Y85846000D01*
X117262000Y86796000D01*
X116387000Y86796000D01*
X116387000Y85846000D01*
G37*
G36*
X117946000Y88538000D02*
X118821000Y88538000D01*
X118821000Y89488000D01*
X117946000Y89488000D01*
X117946000Y88538000D01*
G37*
G36*
X116371000Y88538000D02*
X117246000Y88538000D01*
X117246000Y89488000D01*
X116371000Y89488000D01*
X116371000Y88538000D01*
G37*
G36*
X90350000Y85229000D02*
X91225000Y85229000D01*
X91225000Y86179000D01*
X90350000Y86179000D01*
X90350000Y85229000D01*
G37*
G36*
X88775000Y85229000D02*
X89650000Y85229000D01*
X89650000Y86179000D01*
X88775000Y86179000D01*
X88775000Y85229000D01*
G37*
G36*
X86547000Y89525000D02*
X87422000Y89525000D01*
X87422000Y90475000D01*
X86547000Y90475000D01*
X86547000Y89525000D01*
G37*
G36*
X84972000Y89525000D02*
X85847000Y89525000D01*
X85847000Y90475000D01*
X84972000Y90475000D01*
X84972000Y89525000D01*
G37*
G36*
X82190000Y107525000D02*
X83065000Y107525000D01*
X83065000Y108475000D01*
X82190000Y108475000D01*
X82190000Y107525000D01*
G37*
G36*
X80615000Y107525000D02*
X81490000Y107525000D01*
X81490000Y108475000D01*
X80615000Y108475000D01*
X80615000Y107525000D01*
G37*
G36*
X84350000Y110525000D02*
X85225000Y110525000D01*
X85225000Y111475000D01*
X84350000Y111475000D01*
X84350000Y110525000D01*
G37*
G36*
X82775000Y110525000D02*
X83650000Y110525000D01*
X83650000Y111475000D01*
X82775000Y111475000D01*
X82775000Y110525000D01*
G37*
G36*
X118608000Y119653000D02*
X119483000Y119653000D01*
X119483000Y120603000D01*
X118608000Y120603000D01*
X118608000Y119653000D01*
G37*
G36*
X117033000Y119653000D02*
X117908000Y119653000D01*
X117908000Y120603000D01*
X117033000Y120603000D01*
X117033000Y119653000D01*
G37*
G36*
X104723000Y121941000D02*
X105598000Y121941000D01*
X105598000Y122891000D01*
X104723000Y122891000D01*
X104723000Y121941000D01*
G37*
G36*
X103148000Y121941000D02*
X104023000Y121941000D01*
X104023000Y122891000D01*
X103148000Y122891000D01*
X103148000Y121941000D01*
G37*
G36*
X107606000Y119273000D02*
X108481000Y119273000D01*
X108481000Y120223000D01*
X107606000Y120223000D01*
X107606000Y119273000D01*
G37*
G36*
X106031000Y119273000D02*
X106906000Y119273000D01*
X106906000Y120223000D01*
X106031000Y120223000D01*
X106031000Y119273000D01*
G37*
G36*
X111792000Y121401000D02*
X112667000Y121401000D01*
X112667000Y122351000D01*
X111792000Y122351000D01*
X111792000Y121401000D01*
G37*
G36*
X110217000Y121401000D02*
X111092000Y121401000D01*
X111092000Y122351000D01*
X110217000Y122351000D01*
X110217000Y121401000D01*
G37*
G36*
X117025000Y116985000D02*
X117900000Y116985000D01*
X117900000Y117935000D01*
X117025000Y117935000D01*
X117025000Y116985000D01*
G37*
G36*
X115450000Y116985000D02*
X116325000Y116985000D01*
X116325000Y117935000D01*
X115450000Y117935000D01*
X115450000Y116985000D01*
G37*
G36*
X121204000Y116971000D02*
X122079000Y116971000D01*
X122079000Y117921000D01*
X121204000Y117921000D01*
X121204000Y116971000D01*
G37*
G36*
X119629000Y116971000D02*
X120504000Y116971000D01*
X120504000Y117921000D01*
X119629000Y117921000D01*
X119629000Y116971000D01*
G37*
G36*
X96350000Y120773000D02*
X97225000Y120773000D01*
X97225000Y121723000D01*
X96350000Y121723000D01*
X96350000Y120773000D01*
G37*
G36*
X94775000Y120773000D02*
X95650000Y120773000D01*
X95650000Y121723000D01*
X94775000Y121723000D01*
X94775000Y120773000D01*
G37*
G36*
X93901000Y79194000D02*
X95601000Y79194000D01*
X95601000Y80894000D01*
X93901000Y80894000D01*
X93901000Y79194000D01*
G37*
G36*
X98141000Y80044000D02*
X98119689Y80233143D01*
X98056824Y80412801D01*
X97955557Y80573966D01*
X97820966Y80708557D01*
X97659801Y80809824D01*
X97480143Y80872689D01*
X97291000Y80894000D01*
X97101857Y80872689D01*
X96922199Y80809824D01*
X96761034Y80708557D01*
X96626443Y80573966D01*
X96525176Y80412801D01*
X96462311Y80233143D01*
X96441000Y80044000D01*
X96462311Y79854857D01*
X96525176Y79675199D01*
X96626443Y79514034D01*
X96761034Y79379443D01*
X96922199Y79278176D01*
X97101857Y79215311D01*
X97291000Y79194000D01*
X97480143Y79215311D01*
X97659801Y79278176D01*
X97820966Y79379443D01*
X97955557Y79514034D01*
X98056824Y79675199D01*
X98119689Y79854857D01*
X98141000Y80044000D01*
G37*
G36*
X108866000Y123493000D02*
X111466000Y123493000D01*
X111466000Y126093000D01*
X108866000Y126093000D01*
X108866000Y123493000D01*
G37*
G36*
X116546000Y124793000D02*
X116513406Y125082277D01*
X116417260Y125357049D01*
X116262381Y125603537D01*
X116056537Y125809381D01*
X115810049Y125964260D01*
X115535277Y126060406D01*
X115246000Y126093000D01*
X114956723Y126060406D01*
X114681951Y125964260D01*
X114435463Y125809381D01*
X114229619Y125603537D01*
X114074740Y125357049D01*
X113978594Y125082277D01*
X113946000Y124793000D01*
X113978594Y124503723D01*
X114074740Y124228951D01*
X114229619Y123982463D01*
X114435463Y123776619D01*
X114681951Y123621740D01*
X114956723Y123525594D01*
X115246000Y123493000D01*
X115535277Y123525594D01*
X115810049Y123621740D01*
X116056537Y123776619D01*
X116262381Y123982463D01*
X116417260Y124228951D01*
X116513406Y124503723D01*
X116546000Y124793000D01*
G37*
G36*
X98660000Y88678579D02*
X97198579Y90140000D01*
X97340000Y90281421D01*
X98801421Y88820000D01*
X98660000Y88678579D01*
G37*
G36*
X97440000Y90040000D02*
X91840000Y90040000D01*
X91840000Y90240000D01*
X97440000Y90240000D01*
X97440000Y90040000D01*
G37*
G36*
X118700000Y120358579D02*
X118198579Y120860000D01*
X118340000Y121001421D01*
X118841421Y120500000D01*
X118700000Y120358579D01*
G37*
G36*
X118240000Y120760000D02*
X118240000Y121080000D01*
X118440000Y121080000D01*
X118440000Y120760000D01*
X118240000Y120760000D01*
G37*
G36*
X118340000Y120838579D02*
X117238579Y121940000D01*
X117380000Y122081421D01*
X118481421Y120980000D01*
X118340000Y120838579D01*
G37*
G36*
X117480000Y121840000D02*
X114160000Y121840000D01*
X114160000Y122040000D01*
X117480000Y122040000D01*
X117480000Y121840000D01*
G37*
G36*
X114260000Y121798579D02*
X111238579Y124820000D01*
X111380000Y124961421D01*
X114401421Y121940000D01*
X114260000Y121798579D01*
G37*
G36*
X102600000Y109840000D02*
X100120000Y109840000D01*
X100120000Y110040000D01*
X102600000Y110040000D01*
X102600000Y109840000D01*
G37*
G36*
X100361421Y109940000D02*
X99980000Y109558579D01*
X99838579Y109700000D01*
X100220000Y110081421D01*
X100361421Y109940000D01*
G37*
G36*
X100080000Y109600000D02*
X99280000Y109600000D01*
X99280000Y109800000D01*
X100080000Y109800000D01*
X100080000Y109600000D01*
G37*
G36*
X99521421Y109700000D02*
X98660000Y108838579D01*
X98518579Y108980000D01*
X99380000Y109841421D01*
X99521421Y109700000D01*
G37*
G36*
X98760000Y108880000D02*
X97120000Y108880000D01*
X97120000Y109080000D01*
X98760000Y109080000D01*
X98760000Y108880000D01*
G37*
G36*
X97361421Y108980000D02*
X94940000Y106558579D01*
X94798579Y106700000D01*
X97220000Y109121421D01*
X97361421Y108980000D01*
G37*
G36*
X95040000Y106800000D02*
X95040000Y105400000D01*
X94840000Y105400000D01*
X94840000Y106800000D01*
X95040000Y106800000D01*
G37*
G36*
X95081421Y105500000D02*
X93020000Y103438579D01*
X92878579Y103580000D01*
X94940000Y105641421D01*
X95081421Y105500000D01*
G37*
G36*
X93120000Y103680000D02*
X93120000Y102400000D01*
X92920000Y102400000D01*
X92920000Y103680000D01*
X93120000Y103680000D01*
G37*
G36*
X93161421Y102500000D02*
X90380000Y99718579D01*
X90238579Y99860000D01*
X93020000Y102641421D01*
X93161421Y102500000D01*
G37*
G36*
X90480000Y99960000D02*
X90480000Y98080000D01*
X90280000Y98080000D01*
X90280000Y99960000D01*
X90480000Y99960000D01*
G37*
G36*
X90380000Y98321421D02*
X90761421Y97940000D01*
X90620000Y97798579D01*
X90238579Y98180000D01*
X90380000Y98321421D01*
G37*
G36*
X90520000Y98040000D02*
X93000000Y98040000D01*
X93000000Y97840000D01*
X90520000Y97840000D01*
X90520000Y98040000D01*
G37*
G36*
X114564264Y105620000D02*
X114020000Y105075736D01*
X113595736Y105500000D01*
X114140000Y106044264D01*
X114564264Y105620000D01*
G37*
G36*
X114320000Y105200000D02*
X111200000Y105200000D01*
X111200000Y105800000D01*
X114320000Y105800000D01*
X114320000Y105200000D01*
G37*
G36*
X111924264Y105500000D02*
X111020000Y104595736D01*
X110595736Y105020000D01*
X111500000Y105924264D01*
X111924264Y105500000D01*
G37*
G36*
X111320000Y104720000D02*
X109760000Y104720000D01*
X109760000Y105320000D01*
X111320000Y105320000D01*
X111320000Y104720000D01*
G37*
G36*
X110484264Y105020000D02*
X108980000Y103515736D01*
X108555736Y103940000D01*
X110060000Y105444264D01*
X110484264Y105020000D01*
G37*
G36*
X109280000Y103640000D02*
X107240000Y103640000D01*
X107240000Y104240000D01*
X109280000Y104240000D01*
X109280000Y103640000D01*
G37*
G36*
X107540000Y103515736D02*
X106875736Y104180000D01*
X107300000Y104604264D01*
X107964264Y103940000D01*
X107540000Y103515736D01*
G37*
G36*
X107000000Y103880000D02*
X107000000Y104840000D01*
X107600000Y104840000D01*
X107600000Y103880000D01*
X107000000Y103880000D01*
G37*
G36*
X118700000Y120372721D02*
X117012721Y122060000D01*
X117140000Y122187279D01*
X118827279Y120500000D01*
X118700000Y120372721D01*
G37*
G36*
X117230000Y121970000D02*
X114290000Y121970000D01*
X114290000Y122150000D01*
X117230000Y122150000D01*
X117230000Y121970000D01*
G37*
G36*
X114380000Y121932721D02*
X111492721Y124820000D01*
X111620000Y124947279D01*
X114507279Y122060000D01*
X114380000Y121932721D01*
G37*
G36*
X111710000Y124730000D02*
X111290000Y124730000D01*
X111290000Y124910000D01*
X111710000Y124910000D01*
X111710000Y124730000D01*
G37*
G36*
X118610000Y100310000D02*
X119030000Y100310000D01*
X119030000Y100130000D01*
X118610000Y100130000D01*
X118610000Y100310000D01*
G37*
G36*
X118812721Y100220000D02*
X119060000Y100467279D01*
X119187279Y100340000D01*
X118940000Y100092721D01*
X118812721Y100220000D01*
G37*
G36*
X118970000Y100250000D02*
X118970000Y101510000D01*
X119150000Y101510000D01*
X119150000Y100250000D01*
X118970000Y100250000D01*
G37*
G36*
X118932721Y101420000D02*
X119300000Y101787279D01*
X119427279Y101660000D01*
X119060000Y101292721D01*
X118932721Y101420000D01*
G37*
G36*
X119210000Y101570000D02*
X119210000Y102830000D01*
X119390000Y102830000D01*
X119390000Y101570000D01*
X119210000Y101570000D01*
G37*
G36*
X119210000Y105050000D02*
X119210000Y107750000D01*
X119390000Y107750000D01*
X119390000Y105050000D01*
X119210000Y105050000D01*
G37*
G36*
X119172721Y107660000D02*
X120380000Y108867279D01*
X120507279Y108740000D01*
X119300000Y107532721D01*
X119172721Y107660000D01*
G37*
G36*
X120290000Y108650000D02*
X120290000Y109790000D01*
X120470000Y109790000D01*
X120470000Y108650000D01*
X120290000Y108650000D01*
G37*
G36*
X120252721Y109700000D02*
X122060000Y111507279D01*
X122187279Y111380000D01*
X120380000Y109572721D01*
X120252721Y109700000D01*
G37*
G36*
X121970000Y111290000D02*
X121970000Y112910000D01*
X122150000Y112910000D01*
X122150000Y111290000D01*
X121970000Y111290000D01*
G37*
G36*
X122060000Y112692721D02*
X121212721Y113540000D01*
X121340000Y113667279D01*
X122187279Y112820000D01*
X122060000Y112692721D01*
G37*
G36*
X121250000Y113450000D02*
X121250000Y115430000D01*
X121430000Y115430000D01*
X121430000Y113450000D01*
X121250000Y113450000D01*
G37*
G36*
X98960000Y88820000D02*
X98952478Y88886756D01*
X98930291Y88950165D01*
X98894549Y89007047D01*
X98847047Y89054549D01*
X98790165Y89090291D01*
X98726756Y89112478D01*
X98660000Y89120000D01*
X98593244Y89112478D01*
X98529835Y89090291D01*
X98472953Y89054549D01*
X98425451Y89007047D01*
X98389709Y88950165D01*
X98367522Y88886756D01*
X98360000Y88820000D01*
X98367522Y88753244D01*
X98389709Y88689835D01*
X98425451Y88632953D01*
X98472953Y88585451D01*
X98529835Y88549709D01*
X98593244Y88527522D01*
X98660000Y88520000D01*
X98726756Y88527522D01*
X98790165Y88549709D01*
X98847047Y88585451D01*
X98894549Y88632953D01*
X98930291Y88689835D01*
X98952478Y88753244D01*
X98960000Y88820000D01*
G37*
G36*
X92240000Y90140000D02*
X92232478Y90206756D01*
X92210291Y90270165D01*
X92174549Y90327047D01*
X92127047Y90374549D01*
X92070165Y90410291D01*
X92006756Y90432478D01*
X91940000Y90440000D01*
X91873244Y90432478D01*
X91809835Y90410291D01*
X91752953Y90374549D01*
X91705451Y90327047D01*
X91669709Y90270165D01*
X91647522Y90206756D01*
X91640000Y90140000D01*
X91647522Y90073244D01*
X91669709Y90009835D01*
X91705451Y89952953D01*
X91752953Y89905451D01*
X91809835Y89869709D01*
X91873244Y89847522D01*
X91940000Y89840000D01*
X92006756Y89847522D01*
X92070165Y89869709D01*
X92127047Y89905451D01*
X92174549Y89952953D01*
X92210291Y90009835D01*
X92232478Y90073244D01*
X92240000Y90140000D01*
G37*
G36*
X102800000Y109940000D02*
X102792478Y110006756D01*
X102770291Y110070165D01*
X102734549Y110127047D01*
X102687047Y110174549D01*
X102630165Y110210291D01*
X102566756Y110232478D01*
X102500000Y110240000D01*
X102433244Y110232478D01*
X102369835Y110210291D01*
X102312953Y110174549D01*
X102265451Y110127047D01*
X102229709Y110070165D01*
X102207522Y110006756D01*
X102200000Y109940000D01*
X102207522Y109873244D01*
X102229709Y109809835D01*
X102265451Y109752953D01*
X102312953Y109705451D01*
X102369835Y109669709D01*
X102433244Y109647522D01*
X102500000Y109640000D01*
X102566756Y109647522D01*
X102630165Y109669709D01*
X102687047Y109705451D01*
X102734549Y109752953D01*
X102770291Y109809835D01*
X102792478Y109873244D01*
X102800000Y109940000D01*
G37*
G36*
X93200000Y97940000D02*
X93192478Y98006756D01*
X93170291Y98070165D01*
X93134549Y98127047D01*
X93087047Y98174549D01*
X93030165Y98210291D01*
X92966756Y98232478D01*
X92900000Y98240000D01*
X92833244Y98232478D01*
X92769835Y98210291D01*
X92712953Y98174549D01*
X92665451Y98127047D01*
X92629709Y98070165D01*
X92607522Y98006756D01*
X92600000Y97940000D01*
X92607522Y97873244D01*
X92629709Y97809835D01*
X92665451Y97752953D01*
X92712953Y97705451D01*
X92769835Y97669709D01*
X92833244Y97647522D01*
X92900000Y97640000D01*
X92966756Y97647522D01*
X93030165Y97669709D01*
X93087047Y97705451D01*
X93134549Y97752953D01*
X93170291Y97809835D01*
X93192478Y97873244D01*
X93200000Y97940000D01*
G37*
G36*
X114440000Y105620000D02*
X114432478Y105686756D01*
X114410291Y105750165D01*
X114374549Y105807047D01*
X114327047Y105854549D01*
X114270165Y105890291D01*
X114206756Y105912478D01*
X114140000Y105920000D01*
X114073244Y105912478D01*
X114009835Y105890291D01*
X113952953Y105854549D01*
X113905451Y105807047D01*
X113869709Y105750165D01*
X113847522Y105686756D01*
X113840000Y105620000D01*
X113847522Y105553244D01*
X113869709Y105489835D01*
X113905451Y105432953D01*
X113952953Y105385451D01*
X114009835Y105349709D01*
X114073244Y105327522D01*
X114140000Y105320000D01*
X114206756Y105327522D01*
X114270165Y105349709D01*
X114327047Y105385451D01*
X114374549Y105432953D01*
X114410291Y105489835D01*
X114432478Y105553244D01*
X114440000Y105620000D01*
G37*
G36*
X119600000Y102740000D02*
X119592478Y102806756D01*
X119570291Y102870165D01*
X119534549Y102927047D01*
X119487047Y102974549D01*
X119430165Y103010291D01*
X119366756Y103032478D01*
X119300000Y103040000D01*
X119233244Y103032478D01*
X119169835Y103010291D01*
X119112953Y102974549D01*
X119065451Y102927047D01*
X119029709Y102870165D01*
X119007522Y102806756D01*
X119000000Y102740000D01*
X119007522Y102673244D01*
X119029709Y102609835D01*
X119065451Y102552953D01*
X119112953Y102505451D01*
X119169835Y102469709D01*
X119233244Y102447522D01*
X119300000Y102440000D01*
X119366756Y102447522D01*
X119430165Y102469709D01*
X119487047Y102505451D01*
X119534549Y102552953D01*
X119570291Y102609835D01*
X119592478Y102673244D01*
X119600000Y102740000D01*
G37*
G36*
X119600000Y105140000D02*
X119592478Y105206756D01*
X119570291Y105270165D01*
X119534549Y105327047D01*
X119487047Y105374549D01*
X119430165Y105410291D01*
X119366756Y105432478D01*
X119300000Y105440000D01*
X119233244Y105432478D01*
X119169835Y105410291D01*
X119112953Y105374549D01*
X119065451Y105327047D01*
X119029709Y105270165D01*
X119007522Y105206756D01*
X119000000Y105140000D01*
X119007522Y105073244D01*
X119029709Y105009835D01*
X119065451Y104952953D01*
X119112953Y104905451D01*
X119169835Y104869709D01*
X119233244Y104847522D01*
X119300000Y104840000D01*
X119366756Y104847522D01*
X119430165Y104869709D01*
X119487047Y104905451D01*
X119534549Y104952953D01*
X119570291Y105009835D01*
X119592478Y105073244D01*
X119600000Y105140000D01*
G37*
G36*
X121640000Y115340000D02*
X121632478Y115406756D01*
X121610291Y115470165D01*
X121574549Y115527047D01*
X121527047Y115574549D01*
X121470165Y115610291D01*
X121406756Y115632478D01*
X121340000Y115640000D01*
X121273244Y115632478D01*
X121209835Y115610291D01*
X121152953Y115574549D01*
X121105451Y115527047D01*
X121069709Y115470165D01*
X121047522Y115406756D01*
X121040000Y115340000D01*
X121047522Y115273244D01*
X121069709Y115209835D01*
X121105451Y115152953D01*
X121152953Y115105451D01*
X121209835Y115069709D01*
X121273244Y115047522D01*
X121340000Y115040000D01*
X121406756Y115047522D01*
X121470165Y115069709D01*
X121527047Y115105451D01*
X121574549Y115152953D01*
X121610291Y115209835D01*
X121632478Y115273244D01*
X121640000Y115340000D01*
G37*
G36*
X108320000Y119300000D02*
X108312478Y119366756D01*
X108290291Y119430165D01*
X108254549Y119487047D01*
X108207047Y119534549D01*
X108150165Y119570291D01*
X108086756Y119592478D01*
X108020000Y119600000D01*
X107953244Y119592478D01*
X107889835Y119570291D01*
X107832953Y119534549D01*
X107785451Y119487047D01*
X107749709Y119430165D01*
X107727522Y119366756D01*
X107720000Y119300000D01*
X107727522Y119233244D01*
X107749709Y119169835D01*
X107785451Y119112953D01*
X107832953Y119065451D01*
X107889835Y119029709D01*
X107953244Y119007522D01*
X108020000Y119000000D01*
X108086756Y119007522D01*
X108150165Y119029709D01*
X108207047Y119065451D01*
X108254549Y119112953D01*
X108290291Y119169835D01*
X108312478Y119233244D01*
X108320000Y119300000D01*
G37*
G36*
X137709205Y106079588D02*
X137701683Y106146344D01*
X137679496Y106209753D01*
X137643754Y106266634D01*
X137596252Y106314137D01*
X137539370Y106349878D01*
X137475961Y106372066D01*
X137409205Y106379588D01*
X137342449Y106372066D01*
X137279040Y106349878D01*
X137222158Y106314137D01*
X137174656Y106266634D01*
X137138914Y106209753D01*
X137116727Y106146344D01*
X137109205Y106079588D01*
X137116727Y106012831D01*
X137138914Y105949422D01*
X137174656Y105892541D01*
X137222158Y105845038D01*
X137279040Y105809297D01*
X137342449Y105787109D01*
X137409205Y105779588D01*
X137475961Y105787109D01*
X137539370Y105809297D01*
X137596252Y105845038D01*
X137643754Y105892541D01*
X137679496Y105949422D01*
X137701683Y106012831D01*
X137709205Y106079588D01*
G37*
G36*
X136249531Y112001717D02*
X136242010Y112068473D01*
X136219822Y112131882D01*
X136184081Y112188764D01*
X136136578Y112236266D01*
X136079696Y112272008D01*
X136016287Y112294195D01*
X135949531Y112301717D01*
X135882775Y112294195D01*
X135819366Y112272008D01*
X135762484Y112236266D01*
X135714982Y112188764D01*
X135679240Y112131882D01*
X135657053Y112068473D01*
X135649531Y112001717D01*
X135657053Y111934961D01*
X135679240Y111871552D01*
X135714982Y111814670D01*
X135762484Y111767168D01*
X135819366Y111731426D01*
X135882775Y111709239D01*
X135949531Y111701717D01*
X136016287Y111709239D01*
X136079696Y111731426D01*
X136136578Y111767168D01*
X136184081Y111814670D01*
X136219822Y111871552D01*
X136242010Y111934961D01*
X136249531Y112001717D01*
G37*
G36*
X133858783Y117613008D02*
X133851262Y117679765D01*
X133829074Y117743173D01*
X133793333Y117800055D01*
X133745830Y117847558D01*
X133688948Y117883299D01*
X133625540Y117905487D01*
X133558783Y117913008D01*
X133492027Y117905487D01*
X133428618Y117883299D01*
X133371736Y117847558D01*
X133324234Y117800055D01*
X133288493Y117743173D01*
X133266305Y117679765D01*
X133258783Y117613008D01*
X133266305Y117546252D01*
X133288493Y117482843D01*
X133324234Y117425961D01*
X133371736Y117378459D01*
X133428618Y117342718D01*
X133492027Y117320530D01*
X133558783Y117313008D01*
X133625540Y117320530D01*
X133688948Y117342718D01*
X133745830Y117378459D01*
X133793333Y117425961D01*
X133829074Y117482843D01*
X133851262Y117546252D01*
X133858783Y117613008D01*
G37*
G36*
X130598881Y122768132D02*
X130591359Y122834888D01*
X130569171Y122898297D01*
X130533430Y122955179D01*
X130485928Y123002681D01*
X130429046Y123038422D01*
X130365637Y123060610D01*
X130298881Y123068132D01*
X130232124Y123060610D01*
X130168716Y123038422D01*
X130111834Y123002681D01*
X130064331Y122955179D01*
X130028590Y122898297D01*
X130006402Y122834888D01*
X129998881Y122768132D01*
X130006402Y122701376D01*
X130028590Y122637967D01*
X130064331Y122581085D01*
X130111834Y122533582D01*
X130168716Y122497841D01*
X130232124Y122475653D01*
X130298881Y122468132D01*
X130365637Y122475653D01*
X130429046Y122497841D01*
X130485928Y122533582D01*
X130533430Y122581085D01*
X130569171Y122637967D01*
X130591359Y122701376D01*
X130598881Y122768132D01*
G37*
G36*
X126554253Y127333573D02*
X126546731Y127400329D01*
X126524544Y127463738D01*
X126488802Y127520620D01*
X126441300Y127568122D01*
X126384418Y127603863D01*
X126321009Y127626051D01*
X126254253Y127633573D01*
X126187497Y127626051D01*
X126124088Y127603863D01*
X126067206Y127568122D01*
X126019704Y127520620D01*
X125983962Y127463738D01*
X125961775Y127400329D01*
X125954253Y127333573D01*
X125961775Y127266816D01*
X125983962Y127203408D01*
X126019704Y127146526D01*
X126067206Y127099023D01*
X126124088Y127063282D01*
X126187497Y127041094D01*
X126254253Y127033573D01*
X126321009Y127041094D01*
X126384418Y127063282D01*
X126441300Y127099023D01*
X126488802Y127146526D01*
X126524544Y127203408D01*
X126546731Y127266816D01*
X126554253Y127333573D01*
G37*
G36*
X116547448Y134240771D02*
X116539926Y134307528D01*
X116517739Y134370937D01*
X116481998Y134427818D01*
X116434495Y134475321D01*
X116377613Y134511062D01*
X116314204Y134533250D01*
X116247448Y134540771D01*
X116180692Y134533250D01*
X116117283Y134511062D01*
X116060401Y134475321D01*
X116012899Y134427818D01*
X115977157Y134370937D01*
X115954970Y134307528D01*
X115947448Y134240771D01*
X115954970Y134174015D01*
X115977157Y134110606D01*
X116012899Y134053725D01*
X116060401Y134006222D01*
X116117283Y133970481D01*
X116180692Y133948293D01*
X116247448Y133940771D01*
X116314204Y133948293D01*
X116377613Y133970481D01*
X116434495Y134006222D01*
X116481998Y134053725D01*
X116517739Y134110606D01*
X116539926Y134174015D01*
X116547448Y134240771D01*
G37*
G36*
X110844442Y136403636D02*
X110836920Y136470393D01*
X110814733Y136533802D01*
X110778991Y136590683D01*
X110731489Y136638186D01*
X110674607Y136673927D01*
X110611198Y136696115D01*
X110544442Y136703636D01*
X110477686Y136696115D01*
X110414277Y136673927D01*
X110357395Y136638186D01*
X110309892Y136590683D01*
X110274151Y136533802D01*
X110251964Y136470393D01*
X110244442Y136403636D01*
X110251964Y136336880D01*
X110274151Y136273471D01*
X110309892Y136216589D01*
X110357395Y136169087D01*
X110414277Y136133346D01*
X110477686Y136111158D01*
X110544442Y136103636D01*
X110611198Y136111158D01*
X110674607Y136133346D01*
X110731489Y136169087D01*
X110778991Y136216589D01*
X110814733Y136273471D01*
X110836920Y136336880D01*
X110844442Y136403636D01*
G37*
G36*
X104868340Y137623666D02*
X104860819Y137690423D01*
X104838631Y137753831D01*
X104802890Y137810713D01*
X104755387Y137858216D01*
X104698505Y137893957D01*
X104635096Y137916145D01*
X104568340Y137923666D01*
X104501584Y137916145D01*
X104438175Y137893957D01*
X104381293Y137858216D01*
X104333791Y137810713D01*
X104298050Y137753831D01*
X104275862Y137690423D01*
X104268340Y137623666D01*
X104275862Y137556910D01*
X104298050Y137493501D01*
X104333791Y137436619D01*
X104381293Y137389117D01*
X104438175Y137353376D01*
X104501584Y137331188D01*
X104568340Y137323666D01*
X104635096Y137331188D01*
X104698505Y137353376D01*
X104755387Y137389117D01*
X104802890Y137436619D01*
X104838631Y137493501D01*
X104860819Y137556910D01*
X104868340Y137623666D01*
G37*
G36*
X92719026Y137134066D02*
X92711505Y137200822D01*
X92689317Y137264231D01*
X92653576Y137321113D01*
X92606073Y137368615D01*
X92549191Y137404356D01*
X92485782Y137426544D01*
X92419026Y137434066D01*
X92352270Y137426544D01*
X92288861Y137404356D01*
X92231979Y137368615D01*
X92184477Y137321113D01*
X92148736Y137264231D01*
X92126548Y137200822D01*
X92119026Y137134066D01*
X92126548Y137067309D01*
X92148736Y137003901D01*
X92184477Y136947019D01*
X92231979Y136899516D01*
X92288861Y136863775D01*
X92352270Y136841587D01*
X92419026Y136834066D01*
X92485782Y136841587D01*
X92549191Y136863775D01*
X92606073Y136899516D01*
X92653576Y136947019D01*
X92689317Y137003901D01*
X92711505Y137067309D01*
X92719026Y137134066D01*
G37*
G36*
X86860475Y135437116D02*
X86852953Y135503872D01*
X86830765Y135567281D01*
X86795024Y135624163D01*
X86747522Y135671665D01*
X86690640Y135707406D01*
X86627231Y135729594D01*
X86560475Y135737116D01*
X86493719Y135729594D01*
X86430310Y135707406D01*
X86373428Y135671665D01*
X86325925Y135624163D01*
X86290184Y135567281D01*
X86267996Y135503872D01*
X86260475Y135437116D01*
X86267996Y135370359D01*
X86290184Y135306950D01*
X86325925Y135250069D01*
X86373428Y135202566D01*
X86430310Y135166825D01*
X86493719Y135144637D01*
X86560475Y135137116D01*
X86627231Y135144637D01*
X86690640Y135166825D01*
X86747522Y135202566D01*
X86795024Y135250069D01*
X86830765Y135306950D01*
X86852953Y135370359D01*
X86860475Y135437116D01*
G37*
G36*
X81350000Y132822363D02*
X81342478Y132889119D01*
X81320291Y132952528D01*
X81284549Y133009410D01*
X81237047Y133056912D01*
X81180165Y133092653D01*
X81116756Y133114841D01*
X81050000Y133122363D01*
X80983244Y133114841D01*
X80919835Y133092653D01*
X80862953Y133056912D01*
X80815451Y133009410D01*
X80779709Y132952528D01*
X80757522Y132889119D01*
X80750000Y132822363D01*
X80757522Y132755607D01*
X80779709Y132692198D01*
X80815451Y132635316D01*
X80862953Y132587813D01*
X80919835Y132552072D01*
X80983244Y132529884D01*
X81050000Y132522363D01*
X81116756Y132529884D01*
X81180165Y132552072D01*
X81237047Y132587813D01*
X81284549Y132635316D01*
X81320291Y132692198D01*
X81342478Y132755607D01*
X81350000Y132822363D01*
G37*
G36*
X76330320Y129357528D02*
X76322799Y129424284D01*
X76300611Y129487693D01*
X76264870Y129544575D01*
X76217367Y129592077D01*
X76160485Y129627819D01*
X76097077Y129650006D01*
X76030320Y129657528D01*
X75963564Y129650006D01*
X75900155Y129627819D01*
X75843273Y129592077D01*
X75795771Y129544575D01*
X75760030Y129487693D01*
X75737842Y129424284D01*
X75730320Y129357528D01*
X75737842Y129290772D01*
X75760030Y129227363D01*
X75795771Y129170481D01*
X75843273Y129122979D01*
X75900155Y129087237D01*
X75963564Y129065050D01*
X76030320Y129057528D01*
X76097077Y129065050D01*
X76160485Y129087237D01*
X76217367Y129122979D01*
X76264870Y129170481D01*
X76300611Y129227363D01*
X76322799Y129290772D01*
X76330320Y129357528D01*
G37*
G36*
X71931443Y125132349D02*
X71923921Y125199105D01*
X71901733Y125262514D01*
X71865992Y125319396D01*
X71818490Y125366898D01*
X71761608Y125402639D01*
X71698199Y125424827D01*
X71631443Y125432349D01*
X71564686Y125424827D01*
X71501278Y125402639D01*
X71444396Y125366898D01*
X71396893Y125319396D01*
X71361152Y125262514D01*
X71338964Y125199105D01*
X71331443Y125132349D01*
X71338964Y125065592D01*
X71361152Y125002184D01*
X71396893Y124945302D01*
X71444396Y124897799D01*
X71501278Y124862058D01*
X71564686Y124839870D01*
X71631443Y124832349D01*
X71698199Y124839870D01*
X71761608Y124862058D01*
X71818490Y124897799D01*
X71865992Y124945302D01*
X71901733Y125002184D01*
X71923921Y125065592D01*
X71931443Y125132349D01*
G37*
G36*
X68267296Y120256255D02*
X68259774Y120323011D01*
X68237586Y120386420D01*
X68201845Y120443302D01*
X68154343Y120490804D01*
X68097461Y120526545D01*
X68034052Y120548733D01*
X67967296Y120556255D01*
X67900539Y120548733D01*
X67837131Y120526545D01*
X67780249Y120490804D01*
X67732746Y120443302D01*
X67697005Y120386420D01*
X67674817Y120323011D01*
X67667296Y120256255D01*
X67674817Y120189499D01*
X67697005Y120126090D01*
X67732746Y120069208D01*
X67780249Y120021705D01*
X67837131Y119985964D01*
X67900539Y119963776D01*
X67967296Y119956255D01*
X68034052Y119963776D01*
X68097461Y119985964D01*
X68154343Y120021705D01*
X68201845Y120069208D01*
X68237586Y120126090D01*
X68259774Y120189499D01*
X68267296Y120256255D01*
G37*
G36*
X65432779Y114855535D02*
X65425257Y114922291D01*
X65403070Y114985700D01*
X65367329Y115042581D01*
X65319826Y115090084D01*
X65262944Y115125825D01*
X65199535Y115148013D01*
X65132779Y115155535D01*
X65066023Y115148013D01*
X65002614Y115125825D01*
X64945732Y115090084D01*
X64898230Y115042581D01*
X64862488Y114985700D01*
X64840301Y114922291D01*
X64832779Y114855535D01*
X64840301Y114788778D01*
X64862488Y114725369D01*
X64898230Y114668488D01*
X64945732Y114620985D01*
X65002614Y114585244D01*
X65066023Y114563056D01*
X65132779Y114555535D01*
X65199535Y114563056D01*
X65262944Y114585244D01*
X65319826Y114620985D01*
X65367329Y114668488D01*
X65403070Y114725369D01*
X65425257Y114788778D01*
X65432779Y114855535D01*
G37*
G36*
X63501305Y109070064D02*
X63493783Y109136820D01*
X63471596Y109200229D01*
X63435855Y109257111D01*
X63388352Y109304613D01*
X63331470Y109340354D01*
X63268061Y109362542D01*
X63201305Y109370064D01*
X63134549Y109362542D01*
X63071140Y109340354D01*
X63014258Y109304613D01*
X62966756Y109257111D01*
X62931014Y109200229D01*
X62908827Y109136820D01*
X62901305Y109070064D01*
X62908827Y109003307D01*
X62931014Y108939899D01*
X62966756Y108883017D01*
X63014258Y108835514D01*
X63071140Y108799773D01*
X63134549Y108777585D01*
X63201305Y108770064D01*
X63268061Y108777585D01*
X63331470Y108799773D01*
X63388352Y108835514D01*
X63435855Y108883017D01*
X63471596Y108939899D01*
X63493783Y109003307D01*
X63501305Y109070064D01*
G37*
G36*
X63501305Y90929936D02*
X63493783Y90996693D01*
X63471596Y91060101D01*
X63435855Y91116983D01*
X63388352Y91164486D01*
X63331470Y91200227D01*
X63268061Y91222415D01*
X63201305Y91229936D01*
X63134549Y91222415D01*
X63071140Y91200227D01*
X63014258Y91164486D01*
X62966756Y91116983D01*
X62931014Y91060101D01*
X62908827Y90996693D01*
X62901305Y90929936D01*
X62908827Y90863180D01*
X62931014Y90799771D01*
X62966756Y90742889D01*
X63014258Y90695387D01*
X63071140Y90659646D01*
X63134549Y90637458D01*
X63201305Y90629936D01*
X63268061Y90637458D01*
X63331470Y90659646D01*
X63388352Y90695387D01*
X63435855Y90742889D01*
X63471596Y90799771D01*
X63493783Y90863180D01*
X63501305Y90929936D01*
G37*
G36*
X65432779Y85144465D02*
X65425257Y85211222D01*
X65403070Y85274631D01*
X65367329Y85331512D01*
X65319826Y85379015D01*
X65262944Y85414756D01*
X65199535Y85436944D01*
X65132779Y85444465D01*
X65066023Y85436944D01*
X65002614Y85414756D01*
X64945732Y85379015D01*
X64898230Y85331512D01*
X64862488Y85274631D01*
X64840301Y85211222D01*
X64832779Y85144465D01*
X64840301Y85077709D01*
X64862488Y85014300D01*
X64898230Y84957419D01*
X64945732Y84909916D01*
X65002614Y84874175D01*
X65066023Y84851987D01*
X65132779Y84844465D01*
X65199535Y84851987D01*
X65262944Y84874175D01*
X65319826Y84909916D01*
X65367329Y84957419D01*
X65403070Y85014300D01*
X65425257Y85077709D01*
X65432779Y85144465D01*
G37*
G36*
X68267296Y79743745D02*
X68259774Y79810501D01*
X68237586Y79873910D01*
X68201845Y79930792D01*
X68154343Y79978295D01*
X68097461Y80014036D01*
X68034052Y80036224D01*
X67967296Y80043745D01*
X67900539Y80036224D01*
X67837131Y80014036D01*
X67780249Y79978295D01*
X67732746Y79930792D01*
X67697005Y79873910D01*
X67674817Y79810501D01*
X67667296Y79743745D01*
X67674817Y79676989D01*
X67697005Y79613580D01*
X67732746Y79556698D01*
X67780249Y79509196D01*
X67837131Y79473455D01*
X67900539Y79451267D01*
X67967296Y79443745D01*
X68034052Y79451267D01*
X68097461Y79473455D01*
X68154343Y79509196D01*
X68201845Y79556698D01*
X68237586Y79613580D01*
X68259774Y79676989D01*
X68267296Y79743745D01*
G37*
G36*
X71931443Y74867651D02*
X71923921Y74934408D01*
X71901733Y74997816D01*
X71865992Y75054698D01*
X71818490Y75102201D01*
X71761608Y75137942D01*
X71698199Y75160130D01*
X71631443Y75167651D01*
X71564686Y75160130D01*
X71501278Y75137942D01*
X71444396Y75102201D01*
X71396893Y75054698D01*
X71361152Y74997816D01*
X71338964Y74934408D01*
X71331443Y74867651D01*
X71338964Y74800895D01*
X71361152Y74737486D01*
X71396893Y74680604D01*
X71444396Y74633102D01*
X71501278Y74597361D01*
X71564686Y74575173D01*
X71631443Y74567651D01*
X71698199Y74575173D01*
X71761608Y74597361D01*
X71818490Y74633102D01*
X71865992Y74680604D01*
X71901733Y74737486D01*
X71923921Y74800895D01*
X71931443Y74867651D01*
G37*
G36*
X76330320Y70642472D02*
X76322799Y70709228D01*
X76300611Y70772637D01*
X76264870Y70829519D01*
X76217367Y70877021D01*
X76160485Y70912763D01*
X76097077Y70934950D01*
X76030320Y70942472D01*
X75963564Y70934950D01*
X75900155Y70912763D01*
X75843273Y70877021D01*
X75795771Y70829519D01*
X75760030Y70772637D01*
X75737842Y70709228D01*
X75730320Y70642472D01*
X75737842Y70575716D01*
X75760030Y70512307D01*
X75795771Y70455425D01*
X75843273Y70407923D01*
X75900155Y70372181D01*
X75963564Y70349994D01*
X76030320Y70342472D01*
X76097077Y70349994D01*
X76160485Y70372181D01*
X76217367Y70407923D01*
X76264870Y70455425D01*
X76300611Y70512307D01*
X76322799Y70575716D01*
X76330320Y70642472D01*
G37*
G36*
X81350000Y67177637D02*
X81342478Y67244393D01*
X81320291Y67307802D01*
X81284549Y67364684D01*
X81237047Y67412187D01*
X81180165Y67447928D01*
X81116756Y67470116D01*
X81050000Y67477637D01*
X80983244Y67470116D01*
X80919835Y67447928D01*
X80862953Y67412187D01*
X80815451Y67364684D01*
X80779709Y67307802D01*
X80757522Y67244393D01*
X80750000Y67177637D01*
X80757522Y67110881D01*
X80779709Y67047472D01*
X80815451Y66990590D01*
X80862953Y66943088D01*
X80919835Y66907347D01*
X80983244Y66885159D01*
X81050000Y66877637D01*
X81116756Y66885159D01*
X81180165Y66907347D01*
X81237047Y66943088D01*
X81284549Y66990590D01*
X81320291Y67047472D01*
X81342478Y67110881D01*
X81350000Y67177637D01*
G37*
G36*
X86860475Y64562884D02*
X86852953Y64629641D01*
X86830765Y64693050D01*
X86795024Y64749931D01*
X86747522Y64797434D01*
X86690640Y64833175D01*
X86627231Y64855363D01*
X86560475Y64862884D01*
X86493719Y64855363D01*
X86430310Y64833175D01*
X86373428Y64797434D01*
X86325925Y64749931D01*
X86290184Y64693050D01*
X86267996Y64629641D01*
X86260475Y64562884D01*
X86267996Y64496128D01*
X86290184Y64432719D01*
X86325925Y64375837D01*
X86373428Y64328335D01*
X86430310Y64292594D01*
X86493719Y64270406D01*
X86560475Y64262884D01*
X86627231Y64270406D01*
X86690640Y64292594D01*
X86747522Y64328335D01*
X86795024Y64375837D01*
X86830765Y64432719D01*
X86852953Y64496128D01*
X86860475Y64562884D01*
G37*
G36*
X92719026Y62865934D02*
X92711505Y62932691D01*
X92689317Y62996099D01*
X92653576Y63052981D01*
X92606073Y63100484D01*
X92549191Y63136225D01*
X92485782Y63158413D01*
X92419026Y63165934D01*
X92352270Y63158413D01*
X92288861Y63136225D01*
X92231979Y63100484D01*
X92184477Y63052981D01*
X92148736Y62996099D01*
X92126548Y62932691D01*
X92119026Y62865934D01*
X92126548Y62799178D01*
X92148736Y62735769D01*
X92184477Y62678887D01*
X92231979Y62631385D01*
X92288861Y62595644D01*
X92352270Y62573456D01*
X92419026Y62565934D01*
X92485782Y62573456D01*
X92549191Y62595644D01*
X92606073Y62631385D01*
X92653576Y62678887D01*
X92689317Y62735769D01*
X92711505Y62799178D01*
X92719026Y62865934D01*
G37*
G36*
X104868340Y62376334D02*
X104860819Y62443090D01*
X104838631Y62506499D01*
X104802890Y62563381D01*
X104755387Y62610883D01*
X104698505Y62646624D01*
X104635096Y62668812D01*
X104568340Y62676334D01*
X104501584Y62668812D01*
X104438175Y62646624D01*
X104381293Y62610883D01*
X104333791Y62563381D01*
X104298050Y62506499D01*
X104275862Y62443090D01*
X104268340Y62376334D01*
X104275862Y62309577D01*
X104298050Y62246169D01*
X104333791Y62189287D01*
X104381293Y62141784D01*
X104438175Y62106043D01*
X104501584Y62083855D01*
X104568340Y62076334D01*
X104635096Y62083855D01*
X104698505Y62106043D01*
X104755387Y62141784D01*
X104802890Y62189287D01*
X104838631Y62246169D01*
X104860819Y62309577D01*
X104868340Y62376334D01*
G37*
G36*
X110844442Y63596364D02*
X110836920Y63663120D01*
X110814733Y63726529D01*
X110778991Y63783411D01*
X110731489Y63830913D01*
X110674607Y63866654D01*
X110611198Y63888842D01*
X110544442Y63896364D01*
X110477686Y63888842D01*
X110414277Y63866654D01*
X110357395Y63830913D01*
X110309892Y63783411D01*
X110274151Y63726529D01*
X110251964Y63663120D01*
X110244442Y63596364D01*
X110251964Y63529607D01*
X110274151Y63466198D01*
X110309892Y63409317D01*
X110357395Y63361814D01*
X110414277Y63326073D01*
X110477686Y63303885D01*
X110544442Y63296364D01*
X110611198Y63303885D01*
X110674607Y63326073D01*
X110731489Y63361814D01*
X110778991Y63409317D01*
X110814733Y63466198D01*
X110836920Y63529607D01*
X110844442Y63596364D01*
G37*
G36*
X116547448Y65759229D02*
X116539926Y65825985D01*
X116517739Y65889394D01*
X116481998Y65946275D01*
X116434495Y65993778D01*
X116377613Y66029519D01*
X116314204Y66051707D01*
X116247448Y66059229D01*
X116180692Y66051707D01*
X116117283Y66029519D01*
X116060401Y65993778D01*
X116012899Y65946275D01*
X115977157Y65889394D01*
X115954970Y65825985D01*
X115947448Y65759229D01*
X115954970Y65692472D01*
X115977157Y65629063D01*
X116012899Y65572182D01*
X116060401Y65524679D01*
X116117283Y65488938D01*
X116180692Y65466750D01*
X116247448Y65459229D01*
X116314204Y65466750D01*
X116377613Y65488938D01*
X116434495Y65524679D01*
X116481998Y65572182D01*
X116517739Y65629063D01*
X116539926Y65692472D01*
X116547448Y65759229D01*
G37*
G36*
X121829654Y68808911D02*
X121822132Y68875668D01*
X121799945Y68939077D01*
X121764203Y68995958D01*
X121716701Y69043461D01*
X121659819Y69079202D01*
X121596410Y69101390D01*
X121529654Y69108911D01*
X121462898Y69101390D01*
X121399489Y69079202D01*
X121342607Y69043461D01*
X121295104Y68995958D01*
X121259363Y68939077D01*
X121237176Y68875668D01*
X121229654Y68808911D01*
X121237176Y68742155D01*
X121259363Y68678746D01*
X121295104Y68621865D01*
X121342607Y68574362D01*
X121399489Y68538621D01*
X121462898Y68516433D01*
X121529654Y68508911D01*
X121596410Y68516433D01*
X121659819Y68538621D01*
X121716701Y68574362D01*
X121764203Y68621865D01*
X121799945Y68678746D01*
X121822132Y68742155D01*
X121829654Y68808911D01*
G37*
G36*
X126554253Y72666427D02*
X126546731Y72733184D01*
X126524544Y72796592D01*
X126488802Y72853474D01*
X126441300Y72900977D01*
X126384418Y72936718D01*
X126321009Y72958906D01*
X126254253Y72966427D01*
X126187497Y72958906D01*
X126124088Y72936718D01*
X126067206Y72900977D01*
X126019704Y72853474D01*
X125983962Y72796592D01*
X125961775Y72733184D01*
X125954253Y72666427D01*
X125961775Y72599671D01*
X125983962Y72536262D01*
X126019704Y72479380D01*
X126067206Y72431878D01*
X126124088Y72396137D01*
X126187497Y72373949D01*
X126254253Y72366427D01*
X126321009Y72373949D01*
X126384418Y72396137D01*
X126441300Y72431878D01*
X126488802Y72479380D01*
X126524544Y72536262D01*
X126546731Y72599671D01*
X126554253Y72666427D01*
G37*
G36*
X130598881Y77231868D02*
X130591359Y77298624D01*
X130569171Y77362033D01*
X130533430Y77418915D01*
X130485928Y77466418D01*
X130429046Y77502159D01*
X130365637Y77524347D01*
X130298881Y77531868D01*
X130232124Y77524347D01*
X130168716Y77502159D01*
X130111834Y77466418D01*
X130064331Y77418915D01*
X130028590Y77362033D01*
X130006402Y77298624D01*
X129998881Y77231868D01*
X130006402Y77165112D01*
X130028590Y77101703D01*
X130064331Y77044821D01*
X130111834Y76997319D01*
X130168716Y76961578D01*
X130232124Y76939390D01*
X130298881Y76931868D01*
X130365637Y76939390D01*
X130429046Y76961578D01*
X130485928Y76997319D01*
X130533430Y77044821D01*
X130569171Y77101703D01*
X130591359Y77165112D01*
X130598881Y77231868D01*
G37*
G36*
X133858783Y82386992D02*
X133851262Y82453748D01*
X133829074Y82517157D01*
X133793333Y82574039D01*
X133745830Y82621541D01*
X133688948Y82657282D01*
X133625540Y82679470D01*
X133558783Y82686992D01*
X133492027Y82679470D01*
X133428618Y82657282D01*
X133371736Y82621541D01*
X133324234Y82574039D01*
X133288493Y82517157D01*
X133266305Y82453748D01*
X133258783Y82386992D01*
X133266305Y82320235D01*
X133288493Y82256827D01*
X133324234Y82199945D01*
X133371736Y82152442D01*
X133428618Y82116701D01*
X133492027Y82094513D01*
X133558783Y82086992D01*
X133625540Y82094513D01*
X133688948Y82116701D01*
X133745830Y82152442D01*
X133793333Y82199945D01*
X133829074Y82256827D01*
X133851262Y82320235D01*
X133858783Y82386992D01*
G37*
G36*
X136249531Y87998283D02*
X136242010Y88065039D01*
X136219822Y88128448D01*
X136184081Y88185330D01*
X136136578Y88232832D01*
X136079696Y88268574D01*
X136016287Y88290761D01*
X135949531Y88298283D01*
X135882775Y88290761D01*
X135819366Y88268574D01*
X135762484Y88232832D01*
X135714982Y88185330D01*
X135679240Y88128448D01*
X135657053Y88065039D01*
X135649531Y87998283D01*
X135657053Y87931527D01*
X135679240Y87868118D01*
X135714982Y87811236D01*
X135762484Y87763734D01*
X135819366Y87727992D01*
X135882775Y87705805D01*
X135949531Y87698283D01*
X136016287Y87705805D01*
X136079696Y87727992D01*
X136136578Y87763734D01*
X136184081Y87811236D01*
X136219822Y87868118D01*
X136242010Y87931527D01*
X136249531Y87998283D01*
G37*
G36*
X137709205Y93920412D02*
X137701683Y93987169D01*
X137679496Y94050578D01*
X137643754Y94107459D01*
X137596252Y94154962D01*
X137539370Y94190703D01*
X137475961Y94212891D01*
X137409205Y94220412D01*
X137342449Y94212891D01*
X137279040Y94190703D01*
X137222158Y94154962D01*
X137174656Y94107459D01*
X137138914Y94050578D01*
X137116727Y93987169D01*
X137109205Y93920412D01*
X137116727Y93853656D01*
X137138914Y93790247D01*
X137174656Y93733366D01*
X137222158Y93685863D01*
X137279040Y93650122D01*
X137342449Y93627934D01*
X137409205Y93620412D01*
X137475961Y93627934D01*
X137539370Y93650122D01*
X137596252Y93685863D01*
X137643754Y93733366D01*
X137679496Y93790247D01*
X137701683Y93853656D01*
X137709205Y93920412D01*
G37*
G36*
X63800000Y105500000D02*
X63792478Y105566756D01*
X63770291Y105630165D01*
X63734549Y105687047D01*
X63687047Y105734549D01*
X63630165Y105770291D01*
X63566756Y105792478D01*
X63500000Y105800000D01*
X63433244Y105792478D01*
X63369835Y105770291D01*
X63312953Y105734549D01*
X63265451Y105687047D01*
X63229709Y105630165D01*
X63207522Y105566756D01*
X63200000Y105500000D01*
X63207522Y105433244D01*
X63229709Y105369835D01*
X63265451Y105312953D01*
X63312953Y105265451D01*
X63369835Y105229709D01*
X63433244Y105207522D01*
X63500000Y105200000D01*
X63566756Y105207522D01*
X63630165Y105229709D01*
X63687047Y105265451D01*
X63734549Y105312953D01*
X63770291Y105369835D01*
X63792478Y105433244D01*
X63800000Y105500000D01*
G37*
G36*
X69800000Y87500000D02*
X69792478Y87566756D01*
X69770291Y87630165D01*
X69734549Y87687047D01*
X69687047Y87734549D01*
X69630165Y87770291D01*
X69566756Y87792478D01*
X69500000Y87800000D01*
X69433244Y87792478D01*
X69369835Y87770291D01*
X69312953Y87734549D01*
X69265451Y87687047D01*
X69229709Y87630165D01*
X69207522Y87566756D01*
X69200000Y87500000D01*
X69207522Y87433244D01*
X69229709Y87369835D01*
X69265451Y87312953D01*
X69312953Y87265451D01*
X69369835Y87229709D01*
X69433244Y87207522D01*
X69500000Y87200000D01*
X69566756Y87207522D01*
X69630165Y87229709D01*
X69687047Y87265451D01*
X69734549Y87312953D01*
X69770291Y87369835D01*
X69792478Y87433244D01*
X69800000Y87500000D01*
G37*
G36*
X69800000Y111500000D02*
X69792478Y111566756D01*
X69770291Y111630165D01*
X69734549Y111687047D01*
X69687047Y111734549D01*
X69630165Y111770291D01*
X69566756Y111792478D01*
X69500000Y111800000D01*
X69433244Y111792478D01*
X69369835Y111770291D01*
X69312953Y111734549D01*
X69265451Y111687047D01*
X69229709Y111630165D01*
X69207522Y111566756D01*
X69200000Y111500000D01*
X69207522Y111433244D01*
X69229709Y111369835D01*
X69265451Y111312953D01*
X69312953Y111265451D01*
X69369835Y111229709D01*
X69433244Y111207522D01*
X69500000Y111200000D01*
X69566756Y111207522D01*
X69630165Y111229709D01*
X69687047Y111265451D01*
X69734549Y111312953D01*
X69770291Y111369835D01*
X69792478Y111433244D01*
X69800000Y111500000D01*
G37*
G36*
X75800000Y75500000D02*
X75792478Y75566756D01*
X75770291Y75630165D01*
X75734549Y75687047D01*
X75687047Y75734549D01*
X75630165Y75770291D01*
X75566756Y75792478D01*
X75500000Y75800000D01*
X75433244Y75792478D01*
X75369835Y75770291D01*
X75312953Y75734549D01*
X75265451Y75687047D01*
X75229709Y75630165D01*
X75207522Y75566756D01*
X75200000Y75500000D01*
X75207522Y75433244D01*
X75229709Y75369835D01*
X75265451Y75312953D01*
X75312953Y75265451D01*
X75369835Y75229709D01*
X75433244Y75207522D01*
X75500000Y75200000D01*
X75566756Y75207522D01*
X75630165Y75229709D01*
X75687047Y75265451D01*
X75734549Y75312953D01*
X75770291Y75369835D01*
X75792478Y75433244D01*
X75800000Y75500000D01*
G37*
G36*
X75800000Y87500000D02*
X75792478Y87566756D01*
X75770291Y87630165D01*
X75734549Y87687047D01*
X75687047Y87734549D01*
X75630165Y87770291D01*
X75566756Y87792478D01*
X75500000Y87800000D01*
X75433244Y87792478D01*
X75369835Y87770291D01*
X75312953Y87734549D01*
X75265451Y87687047D01*
X75229709Y87630165D01*
X75207522Y87566756D01*
X75200000Y87500000D01*
X75207522Y87433244D01*
X75229709Y87369835D01*
X75265451Y87312953D01*
X75312953Y87265451D01*
X75369835Y87229709D01*
X75433244Y87207522D01*
X75500000Y87200000D01*
X75566756Y87207522D01*
X75630165Y87229709D01*
X75687047Y87265451D01*
X75734549Y87312953D01*
X75770291Y87369835D01*
X75792478Y87433244D01*
X75800000Y87500000D01*
G37*
G36*
X75800000Y93500000D02*
X75792478Y93566756D01*
X75770291Y93630165D01*
X75734549Y93687047D01*
X75687047Y93734549D01*
X75630165Y93770291D01*
X75566756Y93792478D01*
X75500000Y93800000D01*
X75433244Y93792478D01*
X75369835Y93770291D01*
X75312953Y93734549D01*
X75265451Y93687047D01*
X75229709Y93630165D01*
X75207522Y93566756D01*
X75200000Y93500000D01*
X75207522Y93433244D01*
X75229709Y93369835D01*
X75265451Y93312953D01*
X75312953Y93265451D01*
X75369835Y93229709D01*
X75433244Y93207522D01*
X75500000Y93200000D01*
X75566756Y93207522D01*
X75630165Y93229709D01*
X75687047Y93265451D01*
X75734549Y93312953D01*
X75770291Y93369835D01*
X75792478Y93433244D01*
X75800000Y93500000D01*
G37*
G36*
X75800000Y105500000D02*
X75792478Y105566756D01*
X75770291Y105630165D01*
X75734549Y105687047D01*
X75687047Y105734549D01*
X75630165Y105770291D01*
X75566756Y105792478D01*
X75500000Y105800000D01*
X75433244Y105792478D01*
X75369835Y105770291D01*
X75312953Y105734549D01*
X75265451Y105687047D01*
X75229709Y105630165D01*
X75207522Y105566756D01*
X75200000Y105500000D01*
X75207522Y105433244D01*
X75229709Y105369835D01*
X75265451Y105312953D01*
X75312953Y105265451D01*
X75369835Y105229709D01*
X75433244Y105207522D01*
X75500000Y105200000D01*
X75566756Y105207522D01*
X75630165Y105229709D01*
X75687047Y105265451D01*
X75734549Y105312953D01*
X75770291Y105369835D01*
X75792478Y105433244D01*
X75800000Y105500000D01*
G37*
G36*
X75800000Y111500000D02*
X75792478Y111566756D01*
X75770291Y111630165D01*
X75734549Y111687047D01*
X75687047Y111734549D01*
X75630165Y111770291D01*
X75566756Y111792478D01*
X75500000Y111800000D01*
X75433244Y111792478D01*
X75369835Y111770291D01*
X75312953Y111734549D01*
X75265451Y111687047D01*
X75229709Y111630165D01*
X75207522Y111566756D01*
X75200000Y111500000D01*
X75207522Y111433244D01*
X75229709Y111369835D01*
X75265451Y111312953D01*
X75312953Y111265451D01*
X75369835Y111229709D01*
X75433244Y111207522D01*
X75500000Y111200000D01*
X75566756Y111207522D01*
X75630165Y111229709D01*
X75687047Y111265451D01*
X75734549Y111312953D01*
X75770291Y111369835D01*
X75792478Y111433244D01*
X75800000Y111500000D01*
G37*
G36*
X75800000Y117500000D02*
X75792478Y117566756D01*
X75770291Y117630165D01*
X75734549Y117687047D01*
X75687047Y117734549D01*
X75630165Y117770291D01*
X75566756Y117792478D01*
X75500000Y117800000D01*
X75433244Y117792478D01*
X75369835Y117770291D01*
X75312953Y117734549D01*
X75265451Y117687047D01*
X75229709Y117630165D01*
X75207522Y117566756D01*
X75200000Y117500000D01*
X75207522Y117433244D01*
X75229709Y117369835D01*
X75265451Y117312953D01*
X75312953Y117265451D01*
X75369835Y117229709D01*
X75433244Y117207522D01*
X75500000Y117200000D01*
X75566756Y117207522D01*
X75630165Y117229709D01*
X75687047Y117265451D01*
X75734549Y117312953D01*
X75770291Y117369835D01*
X75792478Y117433244D01*
X75800000Y117500000D01*
G37*
G36*
X75800000Y123500000D02*
X75792478Y123566756D01*
X75770291Y123630165D01*
X75734549Y123687047D01*
X75687047Y123734549D01*
X75630165Y123770291D01*
X75566756Y123792478D01*
X75500000Y123800000D01*
X75433244Y123792478D01*
X75369835Y123770291D01*
X75312953Y123734549D01*
X75265451Y123687047D01*
X75229709Y123630165D01*
X75207522Y123566756D01*
X75200000Y123500000D01*
X75207522Y123433244D01*
X75229709Y123369835D01*
X75265451Y123312953D01*
X75312953Y123265451D01*
X75369835Y123229709D01*
X75433244Y123207522D01*
X75500000Y123200000D01*
X75566756Y123207522D01*
X75630165Y123229709D01*
X75687047Y123265451D01*
X75734549Y123312953D01*
X75770291Y123369835D01*
X75792478Y123433244D01*
X75800000Y123500000D01*
G37*
G36*
X81800000Y75500000D02*
X81792478Y75566756D01*
X81770291Y75630165D01*
X81734549Y75687047D01*
X81687047Y75734549D01*
X81630165Y75770291D01*
X81566756Y75792478D01*
X81500000Y75800000D01*
X81433244Y75792478D01*
X81369835Y75770291D01*
X81312953Y75734549D01*
X81265451Y75687047D01*
X81229709Y75630165D01*
X81207522Y75566756D01*
X81200000Y75500000D01*
X81207522Y75433244D01*
X81229709Y75369835D01*
X81265451Y75312953D01*
X81312953Y75265451D01*
X81369835Y75229709D01*
X81433244Y75207522D01*
X81500000Y75200000D01*
X81566756Y75207522D01*
X81630165Y75229709D01*
X81687047Y75265451D01*
X81734549Y75312953D01*
X81770291Y75369835D01*
X81792478Y75433244D01*
X81800000Y75500000D01*
G37*
G36*
X81800000Y81500000D02*
X81792478Y81566756D01*
X81770291Y81630165D01*
X81734549Y81687047D01*
X81687047Y81734549D01*
X81630165Y81770291D01*
X81566756Y81792478D01*
X81500000Y81800000D01*
X81433244Y81792478D01*
X81369835Y81770291D01*
X81312953Y81734549D01*
X81265451Y81687047D01*
X81229709Y81630165D01*
X81207522Y81566756D01*
X81200000Y81500000D01*
X81207522Y81433244D01*
X81229709Y81369835D01*
X81265451Y81312953D01*
X81312953Y81265451D01*
X81369835Y81229709D01*
X81433244Y81207522D01*
X81500000Y81200000D01*
X81566756Y81207522D01*
X81630165Y81229709D01*
X81687047Y81265451D01*
X81734549Y81312953D01*
X81770291Y81369835D01*
X81792478Y81433244D01*
X81800000Y81500000D01*
G37*
G36*
X81800000Y87500000D02*
X81792478Y87566756D01*
X81770291Y87630165D01*
X81734549Y87687047D01*
X81687047Y87734549D01*
X81630165Y87770291D01*
X81566756Y87792478D01*
X81500000Y87800000D01*
X81433244Y87792478D01*
X81369835Y87770291D01*
X81312953Y87734549D01*
X81265451Y87687047D01*
X81229709Y87630165D01*
X81207522Y87566756D01*
X81200000Y87500000D01*
X81207522Y87433244D01*
X81229709Y87369835D01*
X81265451Y87312953D01*
X81312953Y87265451D01*
X81369835Y87229709D01*
X81433244Y87207522D01*
X81500000Y87200000D01*
X81566756Y87207522D01*
X81630165Y87229709D01*
X81687047Y87265451D01*
X81734549Y87312953D01*
X81770291Y87369835D01*
X81792478Y87433244D01*
X81800000Y87500000D01*
G37*
G36*
X81800000Y93500000D02*
X81792478Y93566756D01*
X81770291Y93630165D01*
X81734549Y93687047D01*
X81687047Y93734549D01*
X81630165Y93770291D01*
X81566756Y93792478D01*
X81500000Y93800000D01*
X81433244Y93792478D01*
X81369835Y93770291D01*
X81312953Y93734549D01*
X81265451Y93687047D01*
X81229709Y93630165D01*
X81207522Y93566756D01*
X81200000Y93500000D01*
X81207522Y93433244D01*
X81229709Y93369835D01*
X81265451Y93312953D01*
X81312953Y93265451D01*
X81369835Y93229709D01*
X81433244Y93207522D01*
X81500000Y93200000D01*
X81566756Y93207522D01*
X81630165Y93229709D01*
X81687047Y93265451D01*
X81734549Y93312953D01*
X81770291Y93369835D01*
X81792478Y93433244D01*
X81800000Y93500000D01*
G37*
G36*
X81800000Y105500000D02*
X81792478Y105566756D01*
X81770291Y105630165D01*
X81734549Y105687047D01*
X81687047Y105734549D01*
X81630165Y105770291D01*
X81566756Y105792478D01*
X81500000Y105800000D01*
X81433244Y105792478D01*
X81369835Y105770291D01*
X81312953Y105734549D01*
X81265451Y105687047D01*
X81229709Y105630165D01*
X81207522Y105566756D01*
X81200000Y105500000D01*
X81207522Y105433244D01*
X81229709Y105369835D01*
X81265451Y105312953D01*
X81312953Y105265451D01*
X81369835Y105229709D01*
X81433244Y105207522D01*
X81500000Y105200000D01*
X81566756Y105207522D01*
X81630165Y105229709D01*
X81687047Y105265451D01*
X81734549Y105312953D01*
X81770291Y105369835D01*
X81792478Y105433244D01*
X81800000Y105500000D01*
G37*
G36*
X81800000Y111500000D02*
X81792478Y111566756D01*
X81770291Y111630165D01*
X81734549Y111687047D01*
X81687047Y111734549D01*
X81630165Y111770291D01*
X81566756Y111792478D01*
X81500000Y111800000D01*
X81433244Y111792478D01*
X81369835Y111770291D01*
X81312953Y111734549D01*
X81265451Y111687047D01*
X81229709Y111630165D01*
X81207522Y111566756D01*
X81200000Y111500000D01*
X81207522Y111433244D01*
X81229709Y111369835D01*
X81265451Y111312953D01*
X81312953Y111265451D01*
X81369835Y111229709D01*
X81433244Y111207522D01*
X81500000Y111200000D01*
X81566756Y111207522D01*
X81630165Y111229709D01*
X81687047Y111265451D01*
X81734549Y111312953D01*
X81770291Y111369835D01*
X81792478Y111433244D01*
X81800000Y111500000D01*
G37*
G36*
X81800000Y123500000D02*
X81792478Y123566756D01*
X81770291Y123630165D01*
X81734549Y123687047D01*
X81687047Y123734549D01*
X81630165Y123770291D01*
X81566756Y123792478D01*
X81500000Y123800000D01*
X81433244Y123792478D01*
X81369835Y123770291D01*
X81312953Y123734549D01*
X81265451Y123687047D01*
X81229709Y123630165D01*
X81207522Y123566756D01*
X81200000Y123500000D01*
X81207522Y123433244D01*
X81229709Y123369835D01*
X81265451Y123312953D01*
X81312953Y123265451D01*
X81369835Y123229709D01*
X81433244Y123207522D01*
X81500000Y123200000D01*
X81566756Y123207522D01*
X81630165Y123229709D01*
X81687047Y123265451D01*
X81734549Y123312953D01*
X81770291Y123369835D01*
X81792478Y123433244D01*
X81800000Y123500000D01*
G37*
G36*
X81800000Y129500000D02*
X81792478Y129566756D01*
X81770291Y129630165D01*
X81734549Y129687047D01*
X81687047Y129734549D01*
X81630165Y129770291D01*
X81566756Y129792478D01*
X81500000Y129800000D01*
X81433244Y129792478D01*
X81369835Y129770291D01*
X81312953Y129734549D01*
X81265451Y129687047D01*
X81229709Y129630165D01*
X81207522Y129566756D01*
X81200000Y129500000D01*
X81207522Y129433244D01*
X81229709Y129369835D01*
X81265451Y129312953D01*
X81312953Y129265451D01*
X81369835Y129229709D01*
X81433244Y129207522D01*
X81500000Y129200000D01*
X81566756Y129207522D01*
X81630165Y129229709D01*
X81687047Y129265451D01*
X81734549Y129312953D01*
X81770291Y129369835D01*
X81792478Y129433244D01*
X81800000Y129500000D01*
G37*
G36*
X87800000Y69500000D02*
X87792478Y69566756D01*
X87770291Y69630165D01*
X87734549Y69687047D01*
X87687047Y69734549D01*
X87630165Y69770291D01*
X87566756Y69792478D01*
X87500000Y69800000D01*
X87433244Y69792478D01*
X87369835Y69770291D01*
X87312953Y69734549D01*
X87265451Y69687047D01*
X87229709Y69630165D01*
X87207522Y69566756D01*
X87200000Y69500000D01*
X87207522Y69433244D01*
X87229709Y69369835D01*
X87265451Y69312953D01*
X87312953Y69265451D01*
X87369835Y69229709D01*
X87433244Y69207522D01*
X87500000Y69200000D01*
X87566756Y69207522D01*
X87630165Y69229709D01*
X87687047Y69265451D01*
X87734549Y69312953D01*
X87770291Y69369835D01*
X87792478Y69433244D01*
X87800000Y69500000D01*
G37*
G36*
X87800000Y93500000D02*
X87792478Y93566756D01*
X87770291Y93630165D01*
X87734549Y93687047D01*
X87687047Y93734549D01*
X87630165Y93770291D01*
X87566756Y93792478D01*
X87500000Y93800000D01*
X87433244Y93792478D01*
X87369835Y93770291D01*
X87312953Y93734549D01*
X87265451Y93687047D01*
X87229709Y93630165D01*
X87207522Y93566756D01*
X87200000Y93500000D01*
X87207522Y93433244D01*
X87229709Y93369835D01*
X87265451Y93312953D01*
X87312953Y93265451D01*
X87369835Y93229709D01*
X87433244Y93207522D01*
X87500000Y93200000D01*
X87566756Y93207522D01*
X87630165Y93229709D01*
X87687047Y93265451D01*
X87734549Y93312953D01*
X87770291Y93369835D01*
X87792478Y93433244D01*
X87800000Y93500000D01*
G37*
G36*
X87800000Y111500000D02*
X87792478Y111566756D01*
X87770291Y111630165D01*
X87734549Y111687047D01*
X87687047Y111734549D01*
X87630165Y111770291D01*
X87566756Y111792478D01*
X87500000Y111800000D01*
X87433244Y111792478D01*
X87369835Y111770291D01*
X87312953Y111734549D01*
X87265451Y111687047D01*
X87229709Y111630165D01*
X87207522Y111566756D01*
X87200000Y111500000D01*
X87207522Y111433244D01*
X87229709Y111369835D01*
X87265451Y111312953D01*
X87312953Y111265451D01*
X87369835Y111229709D01*
X87433244Y111207522D01*
X87500000Y111200000D01*
X87566756Y111207522D01*
X87630165Y111229709D01*
X87687047Y111265451D01*
X87734549Y111312953D01*
X87770291Y111369835D01*
X87792478Y111433244D01*
X87800000Y111500000D01*
G37*
G36*
X87800000Y117500000D02*
X87792478Y117566756D01*
X87770291Y117630165D01*
X87734549Y117687047D01*
X87687047Y117734549D01*
X87630165Y117770291D01*
X87566756Y117792478D01*
X87500000Y117800000D01*
X87433244Y117792478D01*
X87369835Y117770291D01*
X87312953Y117734549D01*
X87265451Y117687047D01*
X87229709Y117630165D01*
X87207522Y117566756D01*
X87200000Y117500000D01*
X87207522Y117433244D01*
X87229709Y117369835D01*
X87265451Y117312953D01*
X87312953Y117265451D01*
X87369835Y117229709D01*
X87433244Y117207522D01*
X87500000Y117200000D01*
X87566756Y117207522D01*
X87630165Y117229709D01*
X87687047Y117265451D01*
X87734549Y117312953D01*
X87770291Y117369835D01*
X87792478Y117433244D01*
X87800000Y117500000D01*
G37*
G36*
X93800000Y69500000D02*
X93792478Y69566756D01*
X93770291Y69630165D01*
X93734549Y69687047D01*
X93687047Y69734549D01*
X93630165Y69770291D01*
X93566756Y69792478D01*
X93500000Y69800000D01*
X93433244Y69792478D01*
X93369835Y69770291D01*
X93312953Y69734549D01*
X93265451Y69687047D01*
X93229709Y69630165D01*
X93207522Y69566756D01*
X93200000Y69500000D01*
X93207522Y69433244D01*
X93229709Y69369835D01*
X93265451Y69312953D01*
X93312953Y69265451D01*
X93369835Y69229709D01*
X93433244Y69207522D01*
X93500000Y69200000D01*
X93566756Y69207522D01*
X93630165Y69229709D01*
X93687047Y69265451D01*
X93734549Y69312953D01*
X93770291Y69369835D01*
X93792478Y69433244D01*
X93800000Y69500000D01*
G37*
G36*
X93800000Y75500000D02*
X93792478Y75566756D01*
X93770291Y75630165D01*
X93734549Y75687047D01*
X93687047Y75734549D01*
X93630165Y75770291D01*
X93566756Y75792478D01*
X93500000Y75800000D01*
X93433244Y75792478D01*
X93369835Y75770291D01*
X93312953Y75734549D01*
X93265451Y75687047D01*
X93229709Y75630165D01*
X93207522Y75566756D01*
X93200000Y75500000D01*
X93207522Y75433244D01*
X93229709Y75369835D01*
X93265451Y75312953D01*
X93312953Y75265451D01*
X93369835Y75229709D01*
X93433244Y75207522D01*
X93500000Y75200000D01*
X93566756Y75207522D01*
X93630165Y75229709D01*
X93687047Y75265451D01*
X93734549Y75312953D01*
X93770291Y75369835D01*
X93792478Y75433244D01*
X93800000Y75500000D01*
G37*
G36*
X93800000Y81500000D02*
X93792478Y81566756D01*
X93770291Y81630165D01*
X93734549Y81687047D01*
X93687047Y81734549D01*
X93630165Y81770291D01*
X93566756Y81792478D01*
X93500000Y81800000D01*
X93433244Y81792478D01*
X93369835Y81770291D01*
X93312953Y81734549D01*
X93265451Y81687047D01*
X93229709Y81630165D01*
X93207522Y81566756D01*
X93200000Y81500000D01*
X93207522Y81433244D01*
X93229709Y81369835D01*
X93265451Y81312953D01*
X93312953Y81265451D01*
X93369835Y81229709D01*
X93433244Y81207522D01*
X93500000Y81200000D01*
X93566756Y81207522D01*
X93630165Y81229709D01*
X93687047Y81265451D01*
X93734549Y81312953D01*
X93770291Y81369835D01*
X93792478Y81433244D01*
X93800000Y81500000D01*
G37*
G36*
X93800000Y93500000D02*
X93792478Y93566756D01*
X93770291Y93630165D01*
X93734549Y93687047D01*
X93687047Y93734549D01*
X93630165Y93770291D01*
X93566756Y93792478D01*
X93500000Y93800000D01*
X93433244Y93792478D01*
X93369835Y93770291D01*
X93312953Y93734549D01*
X93265451Y93687047D01*
X93229709Y93630165D01*
X93207522Y93566756D01*
X93200000Y93500000D01*
X93207522Y93433244D01*
X93229709Y93369835D01*
X93265451Y93312953D01*
X93312953Y93265451D01*
X93369835Y93229709D01*
X93433244Y93207522D01*
X93500000Y93200000D01*
X93566756Y93207522D01*
X93630165Y93229709D01*
X93687047Y93265451D01*
X93734549Y93312953D01*
X93770291Y93369835D01*
X93792478Y93433244D01*
X93800000Y93500000D01*
G37*
G36*
X93800000Y105500000D02*
X93792478Y105566756D01*
X93770291Y105630165D01*
X93734549Y105687047D01*
X93687047Y105734549D01*
X93630165Y105770291D01*
X93566756Y105792478D01*
X93500000Y105800000D01*
X93433244Y105792478D01*
X93369835Y105770291D01*
X93312953Y105734549D01*
X93265451Y105687047D01*
X93229709Y105630165D01*
X93207522Y105566756D01*
X93200000Y105500000D01*
X93207522Y105433244D01*
X93229709Y105369835D01*
X93265451Y105312953D01*
X93312953Y105265451D01*
X93369835Y105229709D01*
X93433244Y105207522D01*
X93500000Y105200000D01*
X93566756Y105207522D01*
X93630165Y105229709D01*
X93687047Y105265451D01*
X93734549Y105312953D01*
X93770291Y105369835D01*
X93792478Y105433244D01*
X93800000Y105500000D01*
G37*
G36*
X93800000Y111500000D02*
X93792478Y111566756D01*
X93770291Y111630165D01*
X93734549Y111687047D01*
X93687047Y111734549D01*
X93630165Y111770291D01*
X93566756Y111792478D01*
X93500000Y111800000D01*
X93433244Y111792478D01*
X93369835Y111770291D01*
X93312953Y111734549D01*
X93265451Y111687047D01*
X93229709Y111630165D01*
X93207522Y111566756D01*
X93200000Y111500000D01*
X93207522Y111433244D01*
X93229709Y111369835D01*
X93265451Y111312953D01*
X93312953Y111265451D01*
X93369835Y111229709D01*
X93433244Y111207522D01*
X93500000Y111200000D01*
X93566756Y111207522D01*
X93630165Y111229709D01*
X93687047Y111265451D01*
X93734549Y111312953D01*
X93770291Y111369835D01*
X93792478Y111433244D01*
X93800000Y111500000D01*
G37*
G36*
X93800000Y129500000D02*
X93792478Y129566756D01*
X93770291Y129630165D01*
X93734549Y129687047D01*
X93687047Y129734549D01*
X93630165Y129770291D01*
X93566756Y129792478D01*
X93500000Y129800000D01*
X93433244Y129792478D01*
X93369835Y129770291D01*
X93312953Y129734549D01*
X93265451Y129687047D01*
X93229709Y129630165D01*
X93207522Y129566756D01*
X93200000Y129500000D01*
X93207522Y129433244D01*
X93229709Y129369835D01*
X93265451Y129312953D01*
X93312953Y129265451D01*
X93369835Y129229709D01*
X93433244Y129207522D01*
X93500000Y129200000D01*
X93566756Y129207522D01*
X93630165Y129229709D01*
X93687047Y129265451D01*
X93734549Y129312953D01*
X93770291Y129369835D01*
X93792478Y129433244D01*
X93800000Y129500000D01*
G37*
G36*
X99800000Y69500000D02*
X99792478Y69566756D01*
X99770291Y69630165D01*
X99734549Y69687047D01*
X99687047Y69734549D01*
X99630165Y69770291D01*
X99566756Y69792478D01*
X99500000Y69800000D01*
X99433244Y69792478D01*
X99369835Y69770291D01*
X99312953Y69734549D01*
X99265451Y69687047D01*
X99229709Y69630165D01*
X99207522Y69566756D01*
X99200000Y69500000D01*
X99207522Y69433244D01*
X99229709Y69369835D01*
X99265451Y69312953D01*
X99312953Y69265451D01*
X99369835Y69229709D01*
X99433244Y69207522D01*
X99500000Y69200000D01*
X99566756Y69207522D01*
X99630165Y69229709D01*
X99687047Y69265451D01*
X99734549Y69312953D01*
X99770291Y69369835D01*
X99792478Y69433244D01*
X99800000Y69500000D01*
G37*
G36*
X99800000Y75500000D02*
X99792478Y75566756D01*
X99770291Y75630165D01*
X99734549Y75687047D01*
X99687047Y75734549D01*
X99630165Y75770291D01*
X99566756Y75792478D01*
X99500000Y75800000D01*
X99433244Y75792478D01*
X99369835Y75770291D01*
X99312953Y75734549D01*
X99265451Y75687047D01*
X99229709Y75630165D01*
X99207522Y75566756D01*
X99200000Y75500000D01*
X99207522Y75433244D01*
X99229709Y75369835D01*
X99265451Y75312953D01*
X99312953Y75265451D01*
X99369835Y75229709D01*
X99433244Y75207522D01*
X99500000Y75200000D01*
X99566756Y75207522D01*
X99630165Y75229709D01*
X99687047Y75265451D01*
X99734549Y75312953D01*
X99770291Y75369835D01*
X99792478Y75433244D01*
X99800000Y75500000D01*
G37*
G36*
X99800000Y81500000D02*
X99792478Y81566756D01*
X99770291Y81630165D01*
X99734549Y81687047D01*
X99687047Y81734549D01*
X99630165Y81770291D01*
X99566756Y81792478D01*
X99500000Y81800000D01*
X99433244Y81792478D01*
X99369835Y81770291D01*
X99312953Y81734549D01*
X99265451Y81687047D01*
X99229709Y81630165D01*
X99207522Y81566756D01*
X99200000Y81500000D01*
X99207522Y81433244D01*
X99229709Y81369835D01*
X99265451Y81312953D01*
X99312953Y81265451D01*
X99369835Y81229709D01*
X99433244Y81207522D01*
X99500000Y81200000D01*
X99566756Y81207522D01*
X99630165Y81229709D01*
X99687047Y81265451D01*
X99734549Y81312953D01*
X99770291Y81369835D01*
X99792478Y81433244D01*
X99800000Y81500000D01*
G37*
G36*
X99800000Y111500000D02*
X99792478Y111566756D01*
X99770291Y111630165D01*
X99734549Y111687047D01*
X99687047Y111734549D01*
X99630165Y111770291D01*
X99566756Y111792478D01*
X99500000Y111800000D01*
X99433244Y111792478D01*
X99369835Y111770291D01*
X99312953Y111734549D01*
X99265451Y111687047D01*
X99229709Y111630165D01*
X99207522Y111566756D01*
X99200000Y111500000D01*
X99207522Y111433244D01*
X99229709Y111369835D01*
X99265451Y111312953D01*
X99312953Y111265451D01*
X99369835Y111229709D01*
X99433244Y111207522D01*
X99500000Y111200000D01*
X99566756Y111207522D01*
X99630165Y111229709D01*
X99687047Y111265451D01*
X99734549Y111312953D01*
X99770291Y111369835D01*
X99792478Y111433244D01*
X99800000Y111500000D01*
G37*
G36*
X99800000Y123500000D02*
X99792478Y123566756D01*
X99770291Y123630165D01*
X99734549Y123687047D01*
X99687047Y123734549D01*
X99630165Y123770291D01*
X99566756Y123792478D01*
X99500000Y123800000D01*
X99433244Y123792478D01*
X99369835Y123770291D01*
X99312953Y123734549D01*
X99265451Y123687047D01*
X99229709Y123630165D01*
X99207522Y123566756D01*
X99200000Y123500000D01*
X99207522Y123433244D01*
X99229709Y123369835D01*
X99265451Y123312953D01*
X99312953Y123265451D01*
X99369835Y123229709D01*
X99433244Y123207522D01*
X99500000Y123200000D01*
X99566756Y123207522D01*
X99630165Y123229709D01*
X99687047Y123265451D01*
X99734549Y123312953D01*
X99770291Y123369835D01*
X99792478Y123433244D01*
X99800000Y123500000D01*
G37*
G36*
X99800000Y129500000D02*
X99792478Y129566756D01*
X99770291Y129630165D01*
X99734549Y129687047D01*
X99687047Y129734549D01*
X99630165Y129770291D01*
X99566756Y129792478D01*
X99500000Y129800000D01*
X99433244Y129792478D01*
X99369835Y129770291D01*
X99312953Y129734549D01*
X99265451Y129687047D01*
X99229709Y129630165D01*
X99207522Y129566756D01*
X99200000Y129500000D01*
X99207522Y129433244D01*
X99229709Y129369835D01*
X99265451Y129312953D01*
X99312953Y129265451D01*
X99369835Y129229709D01*
X99433244Y129207522D01*
X99500000Y129200000D01*
X99566756Y129207522D01*
X99630165Y129229709D01*
X99687047Y129265451D01*
X99734549Y129312953D01*
X99770291Y129369835D01*
X99792478Y129433244D01*
X99800000Y129500000D01*
G37*
G36*
X105800000Y69500000D02*
X105792478Y69566756D01*
X105770291Y69630165D01*
X105734549Y69687047D01*
X105687047Y69734549D01*
X105630165Y69770291D01*
X105566756Y69792478D01*
X105500000Y69800000D01*
X105433244Y69792478D01*
X105369835Y69770291D01*
X105312953Y69734549D01*
X105265451Y69687047D01*
X105229709Y69630165D01*
X105207522Y69566756D01*
X105200000Y69500000D01*
X105207522Y69433244D01*
X105229709Y69369835D01*
X105265451Y69312953D01*
X105312953Y69265451D01*
X105369835Y69229709D01*
X105433244Y69207522D01*
X105500000Y69200000D01*
X105566756Y69207522D01*
X105630165Y69229709D01*
X105687047Y69265451D01*
X105734549Y69312953D01*
X105770291Y69369835D01*
X105792478Y69433244D01*
X105800000Y69500000D01*
G37*
G36*
X105800000Y75500000D02*
X105792478Y75566756D01*
X105770291Y75630165D01*
X105734549Y75687047D01*
X105687047Y75734549D01*
X105630165Y75770291D01*
X105566756Y75792478D01*
X105500000Y75800000D01*
X105433244Y75792478D01*
X105369835Y75770291D01*
X105312953Y75734549D01*
X105265451Y75687047D01*
X105229709Y75630165D01*
X105207522Y75566756D01*
X105200000Y75500000D01*
X105207522Y75433244D01*
X105229709Y75369835D01*
X105265451Y75312953D01*
X105312953Y75265451D01*
X105369835Y75229709D01*
X105433244Y75207522D01*
X105500000Y75200000D01*
X105566756Y75207522D01*
X105630165Y75229709D01*
X105687047Y75265451D01*
X105734549Y75312953D01*
X105770291Y75369835D01*
X105792478Y75433244D01*
X105800000Y75500000D01*
G37*
G36*
X105800000Y81500000D02*
X105792478Y81566756D01*
X105770291Y81630165D01*
X105734549Y81687047D01*
X105687047Y81734549D01*
X105630165Y81770291D01*
X105566756Y81792478D01*
X105500000Y81800000D01*
X105433244Y81792478D01*
X105369835Y81770291D01*
X105312953Y81734549D01*
X105265451Y81687047D01*
X105229709Y81630165D01*
X105207522Y81566756D01*
X105200000Y81500000D01*
X105207522Y81433244D01*
X105229709Y81369835D01*
X105265451Y81312953D01*
X105312953Y81265451D01*
X105369835Y81229709D01*
X105433244Y81207522D01*
X105500000Y81200000D01*
X105566756Y81207522D01*
X105630165Y81229709D01*
X105687047Y81265451D01*
X105734549Y81312953D01*
X105770291Y81369835D01*
X105792478Y81433244D01*
X105800000Y81500000D01*
G37*
G36*
X105800000Y87500000D02*
X105792478Y87566756D01*
X105770291Y87630165D01*
X105734549Y87687047D01*
X105687047Y87734549D01*
X105630165Y87770291D01*
X105566756Y87792478D01*
X105500000Y87800000D01*
X105433244Y87792478D01*
X105369835Y87770291D01*
X105312953Y87734549D01*
X105265451Y87687047D01*
X105229709Y87630165D01*
X105207522Y87566756D01*
X105200000Y87500000D01*
X105207522Y87433244D01*
X105229709Y87369835D01*
X105265451Y87312953D01*
X105312953Y87265451D01*
X105369835Y87229709D01*
X105433244Y87207522D01*
X105500000Y87200000D01*
X105566756Y87207522D01*
X105630165Y87229709D01*
X105687047Y87265451D01*
X105734549Y87312953D01*
X105770291Y87369835D01*
X105792478Y87433244D01*
X105800000Y87500000D01*
G37*
G36*
X105800000Y123500000D02*
X105792478Y123566756D01*
X105770291Y123630165D01*
X105734549Y123687047D01*
X105687047Y123734549D01*
X105630165Y123770291D01*
X105566756Y123792478D01*
X105500000Y123800000D01*
X105433244Y123792478D01*
X105369835Y123770291D01*
X105312953Y123734549D01*
X105265451Y123687047D01*
X105229709Y123630165D01*
X105207522Y123566756D01*
X105200000Y123500000D01*
X105207522Y123433244D01*
X105229709Y123369835D01*
X105265451Y123312953D01*
X105312953Y123265451D01*
X105369835Y123229709D01*
X105433244Y123207522D01*
X105500000Y123200000D01*
X105566756Y123207522D01*
X105630165Y123229709D01*
X105687047Y123265451D01*
X105734549Y123312953D01*
X105770291Y123369835D01*
X105792478Y123433244D01*
X105800000Y123500000D01*
G37*
G36*
X111800000Y69500000D02*
X111792478Y69566756D01*
X111770291Y69630165D01*
X111734549Y69687047D01*
X111687047Y69734549D01*
X111630165Y69770291D01*
X111566756Y69792478D01*
X111500000Y69800000D01*
X111433244Y69792478D01*
X111369835Y69770291D01*
X111312953Y69734549D01*
X111265451Y69687047D01*
X111229709Y69630165D01*
X111207522Y69566756D01*
X111200000Y69500000D01*
X111207522Y69433244D01*
X111229709Y69369835D01*
X111265451Y69312953D01*
X111312953Y69265451D01*
X111369835Y69229709D01*
X111433244Y69207522D01*
X111500000Y69200000D01*
X111566756Y69207522D01*
X111630165Y69229709D01*
X111687047Y69265451D01*
X111734549Y69312953D01*
X111770291Y69369835D01*
X111792478Y69433244D01*
X111800000Y69500000D01*
G37*
G36*
X111800000Y81500000D02*
X111792478Y81566756D01*
X111770291Y81630165D01*
X111734549Y81687047D01*
X111687047Y81734549D01*
X111630165Y81770291D01*
X111566756Y81792478D01*
X111500000Y81800000D01*
X111433244Y81792478D01*
X111369835Y81770291D01*
X111312953Y81734549D01*
X111265451Y81687047D01*
X111229709Y81630165D01*
X111207522Y81566756D01*
X111200000Y81500000D01*
X111207522Y81433244D01*
X111229709Y81369835D01*
X111265451Y81312953D01*
X111312953Y81265451D01*
X111369835Y81229709D01*
X111433244Y81207522D01*
X111500000Y81200000D01*
X111566756Y81207522D01*
X111630165Y81229709D01*
X111687047Y81265451D01*
X111734549Y81312953D01*
X111770291Y81369835D01*
X111792478Y81433244D01*
X111800000Y81500000D01*
G37*
G36*
X111800000Y87500000D02*
X111792478Y87566756D01*
X111770291Y87630165D01*
X111734549Y87687047D01*
X111687047Y87734549D01*
X111630165Y87770291D01*
X111566756Y87792478D01*
X111500000Y87800000D01*
X111433244Y87792478D01*
X111369835Y87770291D01*
X111312953Y87734549D01*
X111265451Y87687047D01*
X111229709Y87630165D01*
X111207522Y87566756D01*
X111200000Y87500000D01*
X111207522Y87433244D01*
X111229709Y87369835D01*
X111265451Y87312953D01*
X111312953Y87265451D01*
X111369835Y87229709D01*
X111433244Y87207522D01*
X111500000Y87200000D01*
X111566756Y87207522D01*
X111630165Y87229709D01*
X111687047Y87265451D01*
X111734549Y87312953D01*
X111770291Y87369835D01*
X111792478Y87433244D01*
X111800000Y87500000D01*
G37*
G36*
X111800000Y129500000D02*
X111792478Y129566756D01*
X111770291Y129630165D01*
X111734549Y129687047D01*
X111687047Y129734549D01*
X111630165Y129770291D01*
X111566756Y129792478D01*
X111500000Y129800000D01*
X111433244Y129792478D01*
X111369835Y129770291D01*
X111312953Y129734549D01*
X111265451Y129687047D01*
X111229709Y129630165D01*
X111207522Y129566756D01*
X111200000Y129500000D01*
X111207522Y129433244D01*
X111229709Y129369835D01*
X111265451Y129312953D01*
X111312953Y129265451D01*
X111369835Y129229709D01*
X111433244Y129207522D01*
X111500000Y129200000D01*
X111566756Y129207522D01*
X111630165Y129229709D01*
X111687047Y129265451D01*
X111734549Y129312953D01*
X111770291Y129369835D01*
X111792478Y129433244D01*
X111800000Y129500000D01*
G37*
G36*
X117800000Y69500000D02*
X117792478Y69566756D01*
X117770291Y69630165D01*
X117734549Y69687047D01*
X117687047Y69734549D01*
X117630165Y69770291D01*
X117566756Y69792478D01*
X117500000Y69800000D01*
X117433244Y69792478D01*
X117369835Y69770291D01*
X117312953Y69734549D01*
X117265451Y69687047D01*
X117229709Y69630165D01*
X117207522Y69566756D01*
X117200000Y69500000D01*
X117207522Y69433244D01*
X117229709Y69369835D01*
X117265451Y69312953D01*
X117312953Y69265451D01*
X117369835Y69229709D01*
X117433244Y69207522D01*
X117500000Y69200000D01*
X117566756Y69207522D01*
X117630165Y69229709D01*
X117687047Y69265451D01*
X117734549Y69312953D01*
X117770291Y69369835D01*
X117792478Y69433244D01*
X117800000Y69500000D01*
G37*
G36*
X117800000Y81500000D02*
X117792478Y81566756D01*
X117770291Y81630165D01*
X117734549Y81687047D01*
X117687047Y81734549D01*
X117630165Y81770291D01*
X117566756Y81792478D01*
X117500000Y81800000D01*
X117433244Y81792478D01*
X117369835Y81770291D01*
X117312953Y81734549D01*
X117265451Y81687047D01*
X117229709Y81630165D01*
X117207522Y81566756D01*
X117200000Y81500000D01*
X117207522Y81433244D01*
X117229709Y81369835D01*
X117265451Y81312953D01*
X117312953Y81265451D01*
X117369835Y81229709D01*
X117433244Y81207522D01*
X117500000Y81200000D01*
X117566756Y81207522D01*
X117630165Y81229709D01*
X117687047Y81265451D01*
X117734549Y81312953D01*
X117770291Y81369835D01*
X117792478Y81433244D01*
X117800000Y81500000D01*
G37*
G36*
X117800000Y93500000D02*
X117792478Y93566756D01*
X117770291Y93630165D01*
X117734549Y93687047D01*
X117687047Y93734549D01*
X117630165Y93770291D01*
X117566756Y93792478D01*
X117500000Y93800000D01*
X117433244Y93792478D01*
X117369835Y93770291D01*
X117312953Y93734549D01*
X117265451Y93687047D01*
X117229709Y93630165D01*
X117207522Y93566756D01*
X117200000Y93500000D01*
X117207522Y93433244D01*
X117229709Y93369835D01*
X117265451Y93312953D01*
X117312953Y93265451D01*
X117369835Y93229709D01*
X117433244Y93207522D01*
X117500000Y93200000D01*
X117566756Y93207522D01*
X117630165Y93229709D01*
X117687047Y93265451D01*
X117734549Y93312953D01*
X117770291Y93369835D01*
X117792478Y93433244D01*
X117800000Y93500000D01*
G37*
G36*
X117800000Y123500000D02*
X117792478Y123566756D01*
X117770291Y123630165D01*
X117734549Y123687047D01*
X117687047Y123734549D01*
X117630165Y123770291D01*
X117566756Y123792478D01*
X117500000Y123800000D01*
X117433244Y123792478D01*
X117369835Y123770291D01*
X117312953Y123734549D01*
X117265451Y123687047D01*
X117229709Y123630165D01*
X117207522Y123566756D01*
X117200000Y123500000D01*
X117207522Y123433244D01*
X117229709Y123369835D01*
X117265451Y123312953D01*
X117312953Y123265451D01*
X117369835Y123229709D01*
X117433244Y123207522D01*
X117500000Y123200000D01*
X117566756Y123207522D01*
X117630165Y123229709D01*
X117687047Y123265451D01*
X117734549Y123312953D01*
X117770291Y123369835D01*
X117792478Y123433244D01*
X117800000Y123500000D01*
G37*
G36*
X117800000Y129500000D02*
X117792478Y129566756D01*
X117770291Y129630165D01*
X117734549Y129687047D01*
X117687047Y129734549D01*
X117630165Y129770291D01*
X117566756Y129792478D01*
X117500000Y129800000D01*
X117433244Y129792478D01*
X117369835Y129770291D01*
X117312953Y129734549D01*
X117265451Y129687047D01*
X117229709Y129630165D01*
X117207522Y129566756D01*
X117200000Y129500000D01*
X117207522Y129433244D01*
X117229709Y129369835D01*
X117265451Y129312953D01*
X117312953Y129265451D01*
X117369835Y129229709D01*
X117433244Y129207522D01*
X117500000Y129200000D01*
X117566756Y129207522D01*
X117630165Y129229709D01*
X117687047Y129265451D01*
X117734549Y129312953D01*
X117770291Y129369835D01*
X117792478Y129433244D01*
X117800000Y129500000D01*
G37*
G36*
X123800000Y75500000D02*
X123792478Y75566756D01*
X123770291Y75630165D01*
X123734549Y75687047D01*
X123687047Y75734549D01*
X123630165Y75770291D01*
X123566756Y75792478D01*
X123500000Y75800000D01*
X123433244Y75792478D01*
X123369835Y75770291D01*
X123312953Y75734549D01*
X123265451Y75687047D01*
X123229709Y75630165D01*
X123207522Y75566756D01*
X123200000Y75500000D01*
X123207522Y75433244D01*
X123229709Y75369835D01*
X123265451Y75312953D01*
X123312953Y75265451D01*
X123369835Y75229709D01*
X123433244Y75207522D01*
X123500000Y75200000D01*
X123566756Y75207522D01*
X123630165Y75229709D01*
X123687047Y75265451D01*
X123734549Y75312953D01*
X123770291Y75369835D01*
X123792478Y75433244D01*
X123800000Y75500000D01*
G37*
G36*
X123800000Y81500000D02*
X123792478Y81566756D01*
X123770291Y81630165D01*
X123734549Y81687047D01*
X123687047Y81734549D01*
X123630165Y81770291D01*
X123566756Y81792478D01*
X123500000Y81800000D01*
X123433244Y81792478D01*
X123369835Y81770291D01*
X123312953Y81734549D01*
X123265451Y81687047D01*
X123229709Y81630165D01*
X123207522Y81566756D01*
X123200000Y81500000D01*
X123207522Y81433244D01*
X123229709Y81369835D01*
X123265451Y81312953D01*
X123312953Y81265451D01*
X123369835Y81229709D01*
X123433244Y81207522D01*
X123500000Y81200000D01*
X123566756Y81207522D01*
X123630165Y81229709D01*
X123687047Y81265451D01*
X123734549Y81312953D01*
X123770291Y81369835D01*
X123792478Y81433244D01*
X123800000Y81500000D01*
G37*
G36*
X123800000Y87500000D02*
X123792478Y87566756D01*
X123770291Y87630165D01*
X123734549Y87687047D01*
X123687047Y87734549D01*
X123630165Y87770291D01*
X123566756Y87792478D01*
X123500000Y87800000D01*
X123433244Y87792478D01*
X123369835Y87770291D01*
X123312953Y87734549D01*
X123265451Y87687047D01*
X123229709Y87630165D01*
X123207522Y87566756D01*
X123200000Y87500000D01*
X123207522Y87433244D01*
X123229709Y87369835D01*
X123265451Y87312953D01*
X123312953Y87265451D01*
X123369835Y87229709D01*
X123433244Y87207522D01*
X123500000Y87200000D01*
X123566756Y87207522D01*
X123630165Y87229709D01*
X123687047Y87265451D01*
X123734549Y87312953D01*
X123770291Y87369835D01*
X123792478Y87433244D01*
X123800000Y87500000D01*
G37*
G36*
X123800000Y93500000D02*
X123792478Y93566756D01*
X123770291Y93630165D01*
X123734549Y93687047D01*
X123687047Y93734549D01*
X123630165Y93770291D01*
X123566756Y93792478D01*
X123500000Y93800000D01*
X123433244Y93792478D01*
X123369835Y93770291D01*
X123312953Y93734549D01*
X123265451Y93687047D01*
X123229709Y93630165D01*
X123207522Y93566756D01*
X123200000Y93500000D01*
X123207522Y93433244D01*
X123229709Y93369835D01*
X123265451Y93312953D01*
X123312953Y93265451D01*
X123369835Y93229709D01*
X123433244Y93207522D01*
X123500000Y93200000D01*
X123566756Y93207522D01*
X123630165Y93229709D01*
X123687047Y93265451D01*
X123734549Y93312953D01*
X123770291Y93369835D01*
X123792478Y93433244D01*
X123800000Y93500000D01*
G37*
G36*
X123800000Y99500000D02*
X123792478Y99566756D01*
X123770291Y99630165D01*
X123734549Y99687047D01*
X123687047Y99734549D01*
X123630165Y99770291D01*
X123566756Y99792478D01*
X123500000Y99800000D01*
X123433244Y99792478D01*
X123369835Y99770291D01*
X123312953Y99734549D01*
X123265451Y99687047D01*
X123229709Y99630165D01*
X123207522Y99566756D01*
X123200000Y99500000D01*
X123207522Y99433244D01*
X123229709Y99369835D01*
X123265451Y99312953D01*
X123312953Y99265451D01*
X123369835Y99229709D01*
X123433244Y99207522D01*
X123500000Y99200000D01*
X123566756Y99207522D01*
X123630165Y99229709D01*
X123687047Y99265451D01*
X123734549Y99312953D01*
X123770291Y99369835D01*
X123792478Y99433244D01*
X123800000Y99500000D01*
G37*
G36*
X123800000Y105500000D02*
X123792478Y105566756D01*
X123770291Y105630165D01*
X123734549Y105687047D01*
X123687047Y105734549D01*
X123630165Y105770291D01*
X123566756Y105792478D01*
X123500000Y105800000D01*
X123433244Y105792478D01*
X123369835Y105770291D01*
X123312953Y105734549D01*
X123265451Y105687047D01*
X123229709Y105630165D01*
X123207522Y105566756D01*
X123200000Y105500000D01*
X123207522Y105433244D01*
X123229709Y105369835D01*
X123265451Y105312953D01*
X123312953Y105265451D01*
X123369835Y105229709D01*
X123433244Y105207522D01*
X123500000Y105200000D01*
X123566756Y105207522D01*
X123630165Y105229709D01*
X123687047Y105265451D01*
X123734549Y105312953D01*
X123770291Y105369835D01*
X123792478Y105433244D01*
X123800000Y105500000D01*
G37*
G36*
X123800000Y129500000D02*
X123792478Y129566756D01*
X123770291Y129630165D01*
X123734549Y129687047D01*
X123687047Y129734549D01*
X123630165Y129770291D01*
X123566756Y129792478D01*
X123500000Y129800000D01*
X123433244Y129792478D01*
X123369835Y129770291D01*
X123312953Y129734549D01*
X123265451Y129687047D01*
X123229709Y129630165D01*
X123207522Y129566756D01*
X123200000Y129500000D01*
X123207522Y129433244D01*
X123229709Y129369835D01*
X123265451Y129312953D01*
X123312953Y129265451D01*
X123369835Y129229709D01*
X123433244Y129207522D01*
X123500000Y129200000D01*
X123566756Y129207522D01*
X123630165Y129229709D01*
X123687047Y129265451D01*
X123734549Y129312953D01*
X123770291Y129369835D01*
X123792478Y129433244D01*
X123800000Y129500000D01*
G37*
G36*
X129800000Y81500000D02*
X129792478Y81566756D01*
X129770291Y81630165D01*
X129734549Y81687047D01*
X129687047Y81734549D01*
X129630165Y81770291D01*
X129566756Y81792478D01*
X129500000Y81800000D01*
X129433244Y81792478D01*
X129369835Y81770291D01*
X129312953Y81734549D01*
X129265451Y81687047D01*
X129229709Y81630165D01*
X129207522Y81566756D01*
X129200000Y81500000D01*
X129207522Y81433244D01*
X129229709Y81369835D01*
X129265451Y81312953D01*
X129312953Y81265451D01*
X129369835Y81229709D01*
X129433244Y81207522D01*
X129500000Y81200000D01*
X129566756Y81207522D01*
X129630165Y81229709D01*
X129687047Y81265451D01*
X129734549Y81312953D01*
X129770291Y81369835D01*
X129792478Y81433244D01*
X129800000Y81500000D01*
G37*
G36*
X129800000Y87500000D02*
X129792478Y87566756D01*
X129770291Y87630165D01*
X129734549Y87687047D01*
X129687047Y87734549D01*
X129630165Y87770291D01*
X129566756Y87792478D01*
X129500000Y87800000D01*
X129433244Y87792478D01*
X129369835Y87770291D01*
X129312953Y87734549D01*
X129265451Y87687047D01*
X129229709Y87630165D01*
X129207522Y87566756D01*
X129200000Y87500000D01*
X129207522Y87433244D01*
X129229709Y87369835D01*
X129265451Y87312953D01*
X129312953Y87265451D01*
X129369835Y87229709D01*
X129433244Y87207522D01*
X129500000Y87200000D01*
X129566756Y87207522D01*
X129630165Y87229709D01*
X129687047Y87265451D01*
X129734549Y87312953D01*
X129770291Y87369835D01*
X129792478Y87433244D01*
X129800000Y87500000D01*
G37*
G36*
X129800000Y99500000D02*
X129792478Y99566756D01*
X129770291Y99630165D01*
X129734549Y99687047D01*
X129687047Y99734549D01*
X129630165Y99770291D01*
X129566756Y99792478D01*
X129500000Y99800000D01*
X129433244Y99792478D01*
X129369835Y99770291D01*
X129312953Y99734549D01*
X129265451Y99687047D01*
X129229709Y99630165D01*
X129207522Y99566756D01*
X129200000Y99500000D01*
X129207522Y99433244D01*
X129229709Y99369835D01*
X129265451Y99312953D01*
X129312953Y99265451D01*
X129369835Y99229709D01*
X129433244Y99207522D01*
X129500000Y99200000D01*
X129566756Y99207522D01*
X129630165Y99229709D01*
X129687047Y99265451D01*
X129734549Y99312953D01*
X129770291Y99369835D01*
X129792478Y99433244D01*
X129800000Y99500000D01*
G37*
M02*
