M48
METRIC,TZ
;WYVERN-E 2.0 FCM drill (PTH)
T1C0.300
T2C0.900
T3C1.000
T4C1.300
T5C1.800
T6C3.200
%
G90
G05
T1
X98.660Y88.820
X91.940Y90.140
X102.500Y109.940
X92.900Y97.940
X114.140Y105.620
X119.300Y102.740
X119.300Y105.140
X121.340Y115.340
X108.020Y119.300
X137.409Y106.080
X135.950Y112.002
X133.559Y117.613
X130.299Y122.768
X126.254Y127.334
X116.247Y134.241
X110.544Y136.404
X104.568Y137.624
X92.419Y137.134
X86.560Y135.437
X81.050Y132.822
X76.030Y129.358
X71.631Y125.132
X67.967Y120.256
X65.133Y114.856
X63.201Y109.070
X63.201Y90.930
X65.133Y85.144
X67.967Y79.744
X71.631Y74.868
X76.030Y70.642
X81.050Y67.178
X86.560Y64.563
X92.419Y62.866
X104.568Y62.376
X110.544Y63.596
X116.247Y65.759
X121.530Y68.809
X126.254Y72.666
X130.299Y77.232
X133.559Y82.387
X135.950Y87.998
X137.409Y93.920
X63.500Y105.500
X69.500Y87.500
X69.500Y111.500
X75.500Y75.500
X75.500Y87.500
X75.500Y93.500
X75.500Y105.500
X75.500Y111.500
X75.500Y117.500
X75.500Y123.500
X81.500Y75.500
X81.500Y81.500
X81.500Y87.500
X81.500Y93.500
X81.500Y105.500
X81.500Y111.500
X81.500Y123.500
X81.500Y129.500
X87.500Y69.500
X87.500Y93.500
X87.500Y111.500
X87.500Y117.500
X93.500Y69.500
X93.500Y75.500
X93.500Y81.500
X93.500Y93.500
X93.500Y105.500
X93.500Y111.500
X93.500Y129.500
X99.500Y69.500
X99.500Y75.500
X99.500Y81.500
X99.500Y111.500
X99.500Y123.500
X99.500Y129.500
X105.500Y69.500
X105.500Y75.500
X105.500Y81.500
X105.500Y87.500
X105.500Y123.500
X111.500Y69.500
X111.500Y81.500
X111.500Y87.500
X111.500Y129.500
X117.500Y69.500
X117.500Y81.500
X117.500Y93.500
X117.500Y123.500
X117.500Y129.500
X123.500Y75.500
X123.500Y81.500
X123.500Y87.500
X123.500Y93.500
X123.500Y99.500
X123.500Y105.500
X123.500Y129.500
X129.500Y81.500
X129.500Y87.500
X129.500Y99.500
T2
X72.129Y122.147
X78.239Y116.037
X73.544Y123.561
X79.653Y117.452
X105.550Y128.265
X103.050Y128.265
X72.691Y94.964
X70.191Y94.964
X116.942Y77.785
X114.442Y77.785
T3
X92.735Y83.799
X95.275Y83.799
X97.815Y83.799
X100.355Y83.799
X102.895Y83.799
X74.000Y107.837
X74.000Y95.437
X107.979Y75.711
X110.519Y75.711
X113.059Y75.711
X115.599Y75.711
X118.139Y75.711
X121.612Y76.063
X121.612Y78.603
X121.612Y81.143
X121.612Y83.683
X121.612Y86.223
X121.612Y88.763
X121.612Y91.303
X121.612Y93.843
X121.612Y96.383
X121.612Y98.923
X94.751Y80.044
X97.291Y80.044
T4
X72.137Y84.695
X75.729Y81.103
X113.017Y127.345
X113.017Y132.425
X131.129Y105.550
X126.049Y105.550
X90.914Y130.211
X86.140Y128.473
X86.238Y72.803
X90.130Y69.537
X127.531Y91.848
X128.413Y96.850
X110.166Y124.793
X115.246Y124.793
T5
X98.636Y126.000
X103.636Y126.000
T6
X136.800Y100.000
X100.000Y136.800
X63.200Y100.000
X100.000Y63.200
M30
